<?xml version="1.0" encoding="iso-8859-1"?>
<!-- Generator: Adobe Illustrator 19.1.1, SVG Export Plug-In . SVG Version: 6.00 Build 0)  -->
<svg version="1.1" baseProfile="basic" id="Layer_1"
	 xmlns="http://www.w3.org/2000/svg" xmlns:xlink="http://www.w3.org/1999/xlink" x="0px" y="0px" viewBox="220 -220 540 540"
	 xml:space="preserve">
<g>
	<g>
		<g>
			<path fill="#E6E6E6" d="M702.7,300H277.4c-20.6,0-37.4-16.8-37.4-37.4v-425.2c0-20.7,16.8-37.4,37.4-37.4h425.2
				c20.6,0,37.4,16.8,37.4,37.4v425.2C740.1,283.2,723.3,300,702.7,300z M277.4-165.8c-1.7,0-3,1.4-3,3v425.2c0,1.7,1.4,3,3,3h425.2
				c1.7,0,3-1.4,3-3v-425.2c0-1.7-1.4-3-3-3L277.4-165.8L277.4-165.8z"/>
		</g>
		<g>
			<path fill="#E6E6E6" d="M357.4,217.6c-5.6,0-10.1-4.5-10.1-10.1v-61.1c0-5.6,4.5-10.1,10.1-10.1s10.1,4.5,10.1,10.1v61.1
				C367.5,213.1,363,217.6,357.4,217.6z"/>
		</g>
		<g>
			<path fill="#E6E6E6" d="M357.4,30.8c-5.6,0-10.1-4.5-10.1-10.1v-122.3c0-5.6,4.5-10.1,10.1-10.1s10.1,4.5,10.1,10.1V20.7
				C367.5,26.3,363,30.8,357.4,30.8z"/>
		</g>
		<g>
			<path fill="#E6E6E6" d="M490,217.6c-5.6,0-10.1-4.5-10.1-10.1v-218c0-5.6,4.5-10.1,10.1-10.1s10.1,4.5,10.1,10.1v217.9
				C500.2,213.1,495.7,217.6,490,217.6z"/>
		</g>
		<g>
			<path fill="#E6E6E6" d="M490-37c-19.5,0-35.4-15.9-35.4-35.4s15.9-35.4,35.4-35.4s35.4,15.9,35.4,35.4S509.6-37,490-37z
				 M490-87.6c-8.4,0-15.2,6.8-15.2,15.2s6.8,15.2,15.2,15.2s15.2-6.8,15.2-15.2S498.5-87.6,490-87.6z"/>
		</g>
		<g>
			<path fill="#E6E6E6" d="M622.7,130.4c-5.6,0-10.1-4.5-10.1-10.1v-218c0-5.6,4.5-10.1,10.1-10.1s10.1,4.5,10.1,10.1v217.9
				C632.8,125.8,628.3,130.4,622.7,130.4z"/>
		</g>
		<g>
			<path fill="#E6E6E6" d="M622.7,217.6c-19.5,0-35.4-15.9-35.4-35.4s15.9-35.4,35.4-35.4s35.4,15.9,35.4,35.4
				S642.2,217.6,622.7,217.6z M622.7,166.9c-8.4,0-15.2,6.8-15.2,15.2s6.8,15.2,15.2,15.2s15.2-6.8,15.2-15.2
				S631.1,166.9,622.7,166.9z"/>
		</g>
		<g>
			<path fill="#E6E6E6" d="M357.4,121c-19.5,0-35.4-15.9-35.4-35.4s15.9-35.4,35.4-35.4s35.4,15.9,35.4,35.4S376.9,121,357.4,121z
				 M357.4,70.4c-8.4,0-15.2,6.8-15.2,15.2s6.8,15.2,15.2,15.2s15.2-6.8,15.2-15.2S365.8,70.4,357.4,70.4z"/>
		</g>
	</g>
</g>
</svg>
