<?xml version="1.0" encoding="iso-8859-1"?>
<!-- Generator: Adobe Illustrator 19.1.1, SVG Export Plug-In . SVG Version: 6.00 Build 0)  -->
<svg version="1.1" baseProfile="basic" id="Layer_1"
	 xmlns="http://www.w3.org/2000/svg" xmlns:xlink="http://www.w3.org/1999/xlink" x="0px" y="0px" viewBox="220 -220 540 540"
	 xml:space="preserve">
<g>
	<g>
		<g>
			<path fill="#CCCCCC" d="M596.342,292.633c-5.916,0-11.691-2.533-15.702-7.193L477.105,165.454h-180.01
				c-33.633,0-63.144-29.5-63.144-63.134V-132.08c0-33.633,29.51-63.154,63.144-63.154h384.019c33.633,0,63.154,29.52,63.154,63.154
				V102.32c0,33.633-29.52,63.134-63.154,63.134h-64.025v106.432c0,8.672-5.389,16.432-13.514,19.451
				C601.205,292.207,598.773,292.633,596.342,292.633z M297.096-153.739c-10.921,0-21.649,10.738-21.649,21.659V102.32
				c0,10.921,10.728,21.639,21.649,21.639h189.512c6.038,0,11.772,2.634,15.702,7.193l73.284,84.935v-71.38
				c0-11.468,9.28-20.747,20.747-20.747h84.772c10.921,0,21.659-10.718,21.659-21.639V-132.08c0-10.921-10.738-21.659-21.659-21.659
				H297.096z"/>
		</g>
		<g>
			<path fill="#CCCCCC" d="M613.787-41.513H364.423c-11.458,0-20.747-9.28-20.747-20.747s9.29-20.747,20.747-20.747h249.363
				c11.468,0,20.747,9.28,20.747,20.747S625.254-41.513,613.787-41.513z"/>
		</g>
		<g>
			<path fill="#CCCCCC" d="M613.787,58.232H364.423c-11.458,0-20.747-9.28-20.747-20.747s9.29-20.747,20.747-20.747h249.363
				c11.468,0,20.747,9.28,20.747,20.747S625.254,58.232,613.787,58.232z"/>
		</g>
	</g>
</g>
</svg>
