<?xml version="1.0" encoding="utf-8"?>
<!-- Generator: Adobe Illustrator 18.1.1, SVG Export Plug-In . SVG Version: 6.00 Build 0)  -->
<svg version="1.1" id="Capa_1" xmlns="http://www.w3.org/2000/svg" xmlns:xlink="http://www.w3.org/1999/xlink" x="0px" y="0px"
	 viewBox="-297 389 16 16" enable-background="new -297 389 16 16" xml:space="preserve">
<path fill="#FFFFFF" d="M-283.3,391.1c-0.3-0.2-0.8-0.1-1,0.2l-5.5,8.8l-3-3c-0.3-0.3-0.7-0.2-1,0c-0.3,0.3-0.2,0.7,0,1l3.7,3.6l0,0
	l0.1,0.1l0.1,0l0.1,0l0.1,0l0.2,0l0.1,0l0.2-0.1l0,0l0.1-0.1l0.1-0.1l0,0l6-9.6C-282.9,391.8-283,391.3-283.3,391.1z"/>
</svg>
