<?xml version="1.0" encoding="utf-8"?>
<!-- Generator: Adobe Illustrator 18.1.0, SVG Export Plug-In . SVG Version: 6.00 Build 0)  -->
<svg version="1.1" id="Layer_1" xmlns="http://www.w3.org/2000/svg" xmlns:xlink="http://www.w3.org/1999/xlink" x="0px" y="0px"
	 viewBox="0 0 15.5 13.4" enable-background="new 0 0 15.5 13.4" xml:space="preserve">
<line display="none" fill="none" stroke="#989898" stroke-width="2" stroke-linecap="round" stroke-linejoin="round" stroke-miterlimit="10" x1="7.7" y1="-4.8" x2="7.7" y2="18.2"/>
<line display="none" fill="none" stroke="#989898" stroke-width="2" stroke-linecap="round" stroke-linejoin="round" stroke-miterlimit="10" x1="19.2" y1="6.7" x2="-3.8" y2="6.7"/>
<line display="none" fill="none" stroke="#989898" stroke-width="2" stroke-linecap="round" stroke-linejoin="round" stroke-miterlimit="10" x1="19.2" y1="6.7" x2="-3.8" y2="6.7"/>
<line display="none" fill="none" stroke="#989898" stroke-width="2" stroke-linecap="round" stroke-linejoin="round" stroke-miterlimit="10" x1="15.9" y1="-1.4" x2="-0.4" y2="14.9"/>
<line display="none" fill="none" stroke="#989898" stroke-width="2" stroke-linecap="round" stroke-linejoin="round" stroke-miterlimit="10" x1="15.9" y1="14.9" x2="-0.4" y2="-1.4"/>
<polyline display="none" fill="none" stroke="#989898" stroke-width="2" stroke-linecap="round" stroke-linejoin="round" stroke-miterlimit="10" points="
	13.7,-5.3 1.7,6.7 13.7,18.7 "/>
<polyline display="none" fill="none" stroke="#989898" stroke-width="2" stroke-linecap="round" stroke-linejoin="round" stroke-miterlimit="10" points="
	1.7,-5.3 13.7,6.7 1.7,18.7 "/>
<polyline display="none" fill="none" stroke="#4E4E4E" stroke-width="2" stroke-linecap="round" stroke-linejoin="round" stroke-miterlimit="10" points="
	1.7,-5.3 13.7,6.7 1.7,18.7 "/>
<polyline display="none" fill="none" stroke="#4E4E4E" stroke-width="2" stroke-linecap="round" stroke-linejoin="round" stroke-miterlimit="10" points="
	13.7,18.7 1.7,6.7 13.7,-5.3 "/>
<polyline display="none" fill="none" stroke="#2EACE3" stroke-width="2" stroke-linecap="round" stroke-linejoin="round" stroke-miterlimit="10" points="
	13.7,-5.3 1.7,6.7 13.7,18.7 "/>
<polyline display="none" fill="none" stroke="#2EACE3" stroke-width="2" stroke-linecap="round" stroke-linejoin="round" stroke-miterlimit="10" points="
	1.7,-5.3 13.7,6.7 1.7,18.7 "/>
<polyline display="none" fill="none" stroke="#E6E6E5" stroke-width="2" stroke-linecap="round" stroke-linejoin="round" stroke-miterlimit="10" points="
	1.7,-5.3 13.7,6.7 1.7,18.7 "/>
<polyline display="none" fill="none" stroke="#E6E6E5" stroke-width="2" stroke-linecap="round" stroke-linejoin="round" stroke-miterlimit="10" points="
	13.7,18.7 1.7,6.7 13.7,-5.3 "/>
<polyline fill="none" stroke="#2EACE3" stroke-width="2" stroke-linecap="round" stroke-linejoin="round" stroke-miterlimit="10" points="
	1,6.7 6.4,12.4 14.5,1 "/>
<circle display="none" fill="#2EACE3" cx="392.1" cy="6.7" r="7.1"/>
</svg>
