<?xml version="1.0" encoding="utf-8"?>
<!-- Generator: Adobe Illustrator 19.1.1, SVG Export Plug-In . SVG Version: 6.00 Build 0)  -->
<svg version="1.1" id="Layer_1" xmlns="http://www.w3.org/2000/svg" xmlns:xlink="http://www.w3.org/1999/xlink" x="0px" y="0px"
	 viewBox="-470 271.7 18.3 18.3" style="enable-background:new -470 271.7 18.3 18.3;" xml:space="preserve">
<style type="text/css">
	.st0{display:none;fill:none;stroke:#989898;stroke-width:2;stroke-linecap:round;stroke-linejoin:round;stroke-miterlimit:10;}
	.st1{fill:none;stroke:#0079B0;stroke-width:2;stroke-linecap:round;stroke-linejoin:round;stroke-miterlimit:10;}
	.st2{display:none;fill:none;stroke:#4E4E4E;stroke-width:2;stroke-linecap:round;stroke-linejoin:round;stroke-miterlimit:10;}
	.st3{display:none;fill:none;stroke:#2EACE3;stroke-width:2;stroke-linecap:round;stroke-linejoin:round;stroke-miterlimit:10;}
	.st4{display:none;fill:none;stroke:#E6E6E5;stroke-width:2;stroke-linecap:round;stroke-linejoin:round;stroke-miterlimit:10;}
	.st5{display:none;fill:#2EACE3;}
</style>
<line class="st0" x1="-460.9" y1="269.3" x2="-460.9" y2="292.3"/>
<line class="st0" x1="-449.4" y1="280.8" x2="-472.4" y2="280.8"/>
<line class="st0" x1="-449.4" y1="280.8" x2="-472.4" y2="280.8"/>
<line class="st1" x1="-452.7" y1="272.7" x2="-469" y2="289"/>
<line class="st1" x1="-452.7" y1="289" x2="-469" y2="272.7"/>
<polyline class="st0" points="-454.9,268.8 -466.9,280.8 -454.9,292.9 "/>
<polyline class="st0" points="-466.9,268.8 -454.9,280.8 -466.9,292.9 "/>
<polyline class="st2" points="-466.9,268.8 -454.9,280.8 -466.9,292.9 "/>
<polyline class="st2" points="-454.9,292.9 -466.9,280.8 -454.9,268.8 "/>
<polyline class="st3" points="-454.9,268.8 -466.9,280.8 -454.9,292.9 "/>
<polyline class="st3" points="-466.9,268.8 -454.9,280.8 -466.9,292.9 "/>
<polyline class="st4" points="-466.9,268.8 -454.9,280.8 -466.9,292.9 "/>
<polyline class="st4" points="-454.9,292.9 -466.9,280.8 -454.9,268.8 "/>
<polyline class="st3" points="-467.6,280.8 -462.2,286.6 -454.1,275.1 "/>
<circle class="st5" cx="-76.6" cy="280.8" r="7.1"/>
</svg>
