<?xml version="1.0" encoding="utf-8"?>
<!-- Generator: Adobe Illustrator 18.1.1, SVG Export Plug-In . SVG Version: 6.00 Build 0)  -->
<!DOCTYPE svg PUBLIC "-//W3C//DTD SVG 1.1//EN" "http://www.w3.org/Graphics/SVG/1.1/DTD/svg11.dtd">
<svg version="1.1" id="Layer_1" xmlns="http://www.w3.org/2000/svg" xmlns:xlink="http://www.w3.org/1999/xlink" x="0px" y="0px"
	 viewBox="0 0 25 25" enable-background="new 0 0 25 25" xml:space="preserve">
<path fill="#1E1E1E" d="M2.9,6.7L2.9,6.7c0-1.2,1-1.9,1.9-1.9h15.4c1.2,0,1.9,0.8,1.9,1.9l0,0c0,1.2-0.8,1.9-1.9,1.9H4.8
	C3.8,8.7,2.9,7.9,2.9,6.7z"/>
<path fill="#1E1E1E" d="M2.9,12.5L2.9,12.5c0-1.2,1-1.9,1.9-1.9h15.4c1.2,0,1.9,0.8,1.9,1.9l0,0c0,1-0.8,1.9-1.9,1.9H4.8
	C3.8,14.4,2.9,13.7,2.9,12.5z"/>
<path fill="#1E1E1E" d="M2.9,18.3L2.9,18.3c0-1.2,1-1.9,1.9-1.9h15.4c1.2,0,1.9,1,1.9,1.9l0,0c0,1-0.8,1.9-1.9,1.9H4.8
	C3.8,20.2,2.9,19.2,2.9,18.3z"/>
</svg>
