<?xml version="1.0" encoding="utf-8"?>
<!-- Generator: Adobe Illustrator 18.1.0, SVG Export Plug-In . SVG Version: 6.00 Build 0)  -->
<svg version="1.1" id="Layer_1" xmlns="http://www.w3.org/2000/svg" xmlns:xlink="http://www.w3.org/1999/xlink" x="0px" y="0px"
	 viewBox="0 0 23.9 13.3" enable-background="new 0 0 23.9 13.3" xml:space="preserve">
<line display="none" fill="none" stroke="#989898" stroke-width="2" stroke-linecap="round" stroke-linejoin="round" stroke-miterlimit="10" x1="9.6" y1="-5.2" x2="9.6" y2="17.8"/>
<line display="none" fill="none" stroke="#989898" stroke-width="2" stroke-linecap="round" stroke-linejoin="round" stroke-miterlimit="10" x1="21.1" y1="6.3" x2="-1.9" y2="6.3"/>
<line display="none" fill="none" stroke="#989898" stroke-width="2" stroke-linecap="round" stroke-linejoin="round" stroke-miterlimit="10" x1="21.1" y1="6.3" x2="-1.9" y2="6.3"/>
<line display="none" fill="none" stroke="#989898" stroke-width="2" stroke-linecap="round" stroke-linejoin="round" stroke-miterlimit="10" x1="17.8" y1="-1.8" x2="1.5" y2="14.4"/>
<line display="none" fill="none" stroke="#989898" stroke-width="2" stroke-linecap="round" stroke-linejoin="round" stroke-miterlimit="10" x1="17.8" y1="14.4" x2="1.5" y2="-1.8"/>
<polyline display="none" fill="none" stroke="#989898" stroke-width="2" stroke-linecap="round" stroke-linejoin="round" stroke-miterlimit="10" points="
	15.7,-5.7 3.6,6.3 15.7,18.3 "/>
<polyline display="none" fill="none" stroke="#989898" stroke-width="2" stroke-linecap="round" stroke-linejoin="round" stroke-miterlimit="10" points="
	3.6,-5.7 15.7,6.3 3.6,18.3 "/>
<polyline display="none" fill="none" stroke="#4E4E4E" stroke-width="2" stroke-linecap="round" stroke-linejoin="round" stroke-miterlimit="10" points="
	3.6,-5.7 15.7,6.3 3.6,18.3 "/>
<polyline display="none" fill="none" stroke="#4E4E4E" stroke-width="2" stroke-linecap="round" stroke-linejoin="round" stroke-miterlimit="10" points="
	15.7,18.3 3.6,6.3 15.7,-5.7 "/>
<polyline display="none" fill="none" stroke="#2EACE3" stroke-width="2" stroke-linecap="round" stroke-linejoin="round" stroke-miterlimit="10" points="
	15.7,-5.7 3.6,6.3 15.7,18.3 "/>
<polyline display="none" fill="none" stroke="#2EACE3" stroke-width="2" stroke-linecap="round" stroke-linejoin="round" stroke-miterlimit="10" points="
	3.6,-5.7 15.7,6.3 3.6,18.3 "/>
<polyline display="none" fill="none" stroke="#E6E6E5" stroke-width="2" stroke-linecap="round" stroke-linejoin="round" stroke-miterlimit="10" points="
	3.6,-5.7 15.7,6.3 3.6,18.3 "/>
<polyline display="none" fill="none" stroke="#E6E6E5" stroke-width="2" stroke-linecap="round" stroke-linejoin="round" stroke-miterlimit="10" points="
	15.7,18.3 3.6,6.3 15.7,-5.7 "/>
<polyline display="none" fill="none" stroke="#2EACE3" stroke-width="2" stroke-linecap="round" stroke-linejoin="round" stroke-miterlimit="10" points="
	2.9,6.3 8.3,12 16.4,0.6 "/>
<circle display="none" fill="#2EACE3" cx="9.7" cy="6.3" r="7.1"/>
<g display="none">
	<g display="inline">
		
			<line fill="none" stroke="#2EACE3" stroke-width="2" stroke-linecap="round" stroke-linejoin="round" stroke-miterlimit="10" x1="3.1" y1="-0.6" x2="23.1" y2="-0.6"/>
		
			<line fill="none" stroke="#2EACE3" stroke-width="2" stroke-linecap="round" stroke-linejoin="round" stroke-miterlimit="10" x1="3.1" y1="6.4" x2="23.1" y2="6.4"/>
		
			<line fill="none" stroke="#2EACE3" stroke-width="2" stroke-linecap="round" stroke-linejoin="round" stroke-miterlimit="10" x1="3.1" y1="13.4" x2="23.1" y2="13.4"/>
	</g>
	<circle display="inline" fill="#2EACE3" cx="-2.1" cy="-0.7" r="1.7"/>
	<circle display="inline" fill="#2EACE3" cx="-2.1" cy="6.3" r="1.7"/>
	<circle display="inline" fill="#2EACE3" cx="-2.1" cy="13.3" r="1.7"/>
</g>
<g display="none">
	<g display="inline">
		
			<line fill="none" stroke="#989898" stroke-width="2" stroke-linecap="round" stroke-linejoin="round" stroke-miterlimit="10" x1="3.1" y1="-0.6" x2="23.1" y2="-0.6"/>
		
			<line fill="none" stroke="#989898" stroke-width="2" stroke-linecap="round" stroke-linejoin="round" stroke-miterlimit="10" x1="3.1" y1="6.4" x2="23.1" y2="6.4"/>
		
			<line fill="none" stroke="#989898" stroke-width="2" stroke-linecap="round" stroke-linejoin="round" stroke-miterlimit="10" x1="3.1" y1="13.4" x2="23.1" y2="13.4"/>
	</g>
	<circle display="inline" fill="#989898" cx="-2.1" cy="-0.7" r="1.7"/>
	<circle display="inline" fill="#989898" cx="-2.1" cy="6.3" r="1.7"/>
	<circle display="inline" fill="#989898" cx="-2.1" cy="13.3" r="1.7"/>
</g>
<g display="none">
	
		<line display="inline" fill="none" stroke="#2EACE3" stroke-width="2" stroke-linecap="round" stroke-linejoin="round" stroke-miterlimit="10" x1="-3.8" y1="-0.7" x2="23.2" y2="-0.7"/>
	
		<line display="inline" fill="none" stroke="#2EACE3" stroke-width="2" stroke-linecap="round" stroke-linejoin="round" stroke-miterlimit="10" x1="-3.8" y1="6.3" x2="23.2" y2="6.3"/>
	
		<line display="inline" fill="none" stroke="#2EACE3" stroke-width="2" stroke-linecap="round" stroke-linejoin="round" stroke-miterlimit="10" x1="-3.8" y1="13.3" x2="23.2" y2="13.3"/>
</g>
<g display="none">
	
		<line display="inline" fill="none" stroke="#989898" stroke-width="2" stroke-linecap="round" stroke-linejoin="round" stroke-miterlimit="10" x1="-3.8" y1="-0.6" x2="23.2" y2="-0.6"/>
	
		<line display="inline" fill="none" stroke="#989898" stroke-width="2" stroke-linecap="round" stroke-linejoin="round" stroke-miterlimit="10" x1="-3.8" y1="6.4" x2="23.2" y2="6.4"/>
	
		<line display="inline" fill="none" stroke="#989898" stroke-width="2" stroke-linecap="round" stroke-linejoin="round" stroke-miterlimit="10" x1="-3.8" y1="13.4" x2="23.2" y2="13.4"/>
</g>
<g display="none">
	
		<path display="inline" fill="none" stroke="#2EACE3" stroke-width="2" stroke-linecap="round" stroke-linejoin="round" stroke-miterlimit="10" d="
		M16.4,13.3c-3.4,3.5-9.1,3.5-12.6,0c-3.5-3.5-3.5-9.1,0-12.6c3.5-3.5,9.1-3.4,12.6,0"/>
	
		<polyline display="inline" fill="none" stroke="#2EACE3" stroke-width="2" stroke-linecap="round" stroke-linejoin="round" stroke-miterlimit="10" points="
		18.1,-3.3 18.1,2.4 12.4,2.4 	"/>
</g>
<g display="none">
	
		<path display="inline" fill="none" stroke="#989898" stroke-width="2" stroke-linecap="round" stroke-linejoin="round" stroke-miterlimit="10" d="
		M16.4,13.3c-3.4,3.5-9.1,3.5-12.6,0c-3.5-3.5-3.5-9.1,0-12.6c3.5-3.5,9.1-3.4,12.6,0"/>
	
		<polyline display="inline" fill="none" stroke="#989898" stroke-width="2" stroke-linecap="round" stroke-linejoin="round" stroke-miterlimit="10" points="
		18.1,-3.3 18.1,2.4 12.4,2.4 	"/>
</g>
<g display="none">
	
		<polygon display="inline" fill="none" stroke="#2EACE3" stroke-width="2" stroke-linecap="round" stroke-linejoin="round" stroke-miterlimit="10" points="
		10.5,11.4 7.8,11.7 8.1,9 17.6,-0.5 20,1.9 	"/>
	
		<path display="inline" fill="none" stroke="#2EACE3" stroke-width="2" stroke-linecap="round" stroke-linejoin="round" stroke-miterlimit="10" d="
		M12.7,0.3v-2.1c0-0.8-0.6-1.4-1.4-1.4H0.8C0-3.2-0.6-2.5-0.6-1.8v16.2c0,0.8,0.6,1.4,1.4,1.4h10.5c0.8,0,1.4-0.6,1.4-1.4V13"/>
	
		<line display="inline" fill="none" stroke="#2EACE3" stroke-width="2" stroke-linecap="round" stroke-linejoin="round" stroke-miterlimit="10" x1="3" y1="0.8" x2="9" y2="0.8"/>
	
		<line display="inline" fill="none" stroke="#2EACE3" stroke-width="2" stroke-linecap="round" stroke-linejoin="round" stroke-miterlimit="10" x1="3" y1="4.8" x2="6" y2="4.8"/>
</g>
<g display="none">
	
		<polygon display="inline" fill="none" stroke="#989898" stroke-width="2" stroke-linecap="round" stroke-linejoin="round" stroke-miterlimit="10" points="
		10.5,11.4 7.8,11.7 8.1,9 17.6,-0.5 20,1.9 	"/>
	
		<path display="inline" fill="none" stroke="#989898" stroke-width="2" stroke-linecap="round" stroke-linejoin="round" stroke-miterlimit="10" d="
		M12.7,0.3v-2.1c0-0.8-0.6-1.4-1.4-1.4H0.8C0-3.2-0.6-2.5-0.6-1.8v16.2c0,0.8,0.6,1.4,1.4,1.4h10.5c0.8,0,1.4-0.6,1.4-1.4V13"/>
	
		<line display="inline" fill="none" stroke="#989898" stroke-width="2" stroke-linecap="round" stroke-linejoin="round" stroke-miterlimit="10" x1="3" y1="0.8" x2="9" y2="0.8"/>
	
		<line display="inline" fill="none" stroke="#989898" stroke-width="2" stroke-linecap="round" stroke-linejoin="round" stroke-miterlimit="10" x1="3" y1="4.8" x2="6" y2="4.8"/>
</g>
<g display="none">
	
		<path display="inline" fill="none" stroke="#2EACE3" stroke-width="2" stroke-linecap="round" stroke-linejoin="round" stroke-miterlimit="10" d="
		M0.2-0.9v9.4c0,0.9,0.8,1.7,1.7,1.7h7.6l4.4,5.1v-5.1h3.4c0.9,0,1.7-0.8,1.7-1.7v-9.4c0-0.9-0.8-1.7-1.7-1.7H2
		C1-2.7,0.2-1.9,0.2-0.9z"/>
	
		<line display="inline" fill="none" stroke="#2EACE3" stroke-width="2" stroke-linecap="round" stroke-linejoin="round" stroke-miterlimit="10" x1="4.7" y1="1.8" x2="14.7" y2="1.8"/>
	
		<line display="inline" fill="none" stroke="#2EACE3" stroke-width="2" stroke-linecap="round" stroke-linejoin="round" stroke-miterlimit="10" x1="4.7" y1="5.8" x2="14.7" y2="5.8"/>
</g>
<g display="none">
	
		<path display="inline" fill="none" stroke="#989898" stroke-width="2" stroke-linecap="round" stroke-linejoin="round" stroke-miterlimit="10" d="
		M0.2-0.9v9.4c0,0.9,0.8,1.7,1.7,1.7h7.6l4.4,5.1v-5.1h3.4c0.9,0,1.7-0.8,1.7-1.7v-9.4c0-0.9-0.8-1.7-1.7-1.7H2
		C1-2.7,0.2-1.9,0.2-0.9z"/>
	
		<line display="inline" fill="none" stroke="#989898" stroke-width="2" stroke-linecap="round" stroke-linejoin="round" stroke-miterlimit="10" x1="4.7" y1="1.8" x2="14.7" y2="1.8"/>
	
		<line display="inline" fill="none" stroke="#989898" stroke-width="2" stroke-linecap="round" stroke-linejoin="round" stroke-miterlimit="10" x1="4.7" y1="5.8" x2="14.7" y2="5.8"/>
</g>
<g display="none">
	
		<circle display="inline" fill="none" stroke="#2EACE3" stroke-width="2" stroke-linecap="round" stroke-linejoin="round" stroke-miterlimit="10" cx="8.1" cy="5.3" r="8.4"/>
	
		<line display="inline" fill="none" stroke="#2EACE3" stroke-width="2" stroke-linecap="round" stroke-linejoin="round" stroke-miterlimit="10" x1="14.8" y1="10.9" x2="19.6" y2="15.7"/>
</g>
<g display="none">
	
		<circle display="inline" fill="none" stroke="#989898" stroke-width="2" stroke-linecap="round" stroke-linejoin="round" stroke-miterlimit="10" cx="8.1" cy="5.3" r="8.4"/>
	
		<line display="inline" fill="none" stroke="#989898" stroke-width="2" stroke-linecap="round" stroke-linejoin="round" stroke-miterlimit="10" x1="14.8" y1="10.9" x2="19.6" y2="15.7"/>
</g>
<g display="none">
	<g display="inline">
		<path fill="none" stroke="#2EACE3" stroke-width="2" stroke-linecap="round" stroke-linejoin="round" stroke-miterlimit="10" d="
			M12.1-1.6v-2.1c0-0.8-0.6-1.4-1.4-1.4H0.1c-0.8,0-1.4,0.6-1.4,1.4v16.2c0,0.8,0.6,1.4,1.4,1.4h10.5c0.8,0,1.4-0.6,1.4-1.4v-1.4
			V-1.6z"/>
		
			<line fill="none" stroke="#2EACE3" stroke-width="2" stroke-linecap="round" stroke-linejoin="round" stroke-miterlimit="10" x1="2.3" y1="-1.1" x2="8.3" y2="-1.1"/>
		
			<line fill="none" stroke="#2EACE3" stroke-width="2" stroke-linecap="round" stroke-linejoin="round" stroke-miterlimit="10" x1="2.3" y1="2.9" x2="8.3" y2="2.9"/>
		
			<line fill="none" stroke="#2EACE3" stroke-width="2" stroke-linecap="round" stroke-linejoin="round" stroke-miterlimit="10" x1="2.3" y1="6.5" x2="8.3" y2="6.5"/>
		<path fill="none" stroke="#2EACE3" stroke-width="2" stroke-linejoin="round" stroke-miterlimit="10" d="M7.3,16.3
			c0,0.8,0.6,1.4,1.4,1.4h10.5c0.8,0,1.4-0.6,1.4-1.4v-1.4V2.2V0.1c0-0.8-0.6-1.4-1.4-1.4h-4.6"/>
		
			<line fill="none" stroke="#2EACE3" stroke-width="2" stroke-linecap="round" stroke-linejoin="round" stroke-miterlimit="10" x1="15.6" y1="2.7" x2="16.9" y2="2.7"/>
		
			<line fill="none" stroke="#2EACE3" stroke-width="2" stroke-linecap="round" stroke-linejoin="round" stroke-miterlimit="10" x1="15.6" y1="6.7" x2="16.9" y2="6.7"/>
		
			<line fill="none" stroke="#2EACE3" stroke-width="2" stroke-linecap="round" stroke-linejoin="round" stroke-miterlimit="10" x1="15.6" y1="10.6" x2="16.9" y2="10.6"/>
	</g>
</g>
<g display="none">
	
		<path display="inline" fill="none" stroke="#989898" stroke-width="2" stroke-linecap="round" stroke-linejoin="round" stroke-miterlimit="10" d="
		M12.1-1.6v-2.1c0-0.8-0.6-1.4-1.4-1.4H0.1c-0.8,0-1.4,0.6-1.4,1.4v16.2c0,0.8,0.6,1.4,1.4,1.4h10.5c0.8,0,1.4-0.6,1.4-1.4v-1.4
		V-1.6z"/>
	
		<line display="inline" fill="none" stroke="#989898" stroke-width="2" stroke-linecap="round" stroke-linejoin="round" stroke-miterlimit="10" x1="2.3" y1="-1.1" x2="8.3" y2="-1.1"/>
	
		<line display="inline" fill="none" stroke="#989898" stroke-width="2" stroke-linecap="round" stroke-linejoin="round" stroke-miterlimit="10" x1="2.3" y1="2.9" x2="8.3" y2="2.9"/>
	
		<line display="inline" fill="none" stroke="#989898" stroke-width="2" stroke-linecap="round" stroke-linejoin="round" stroke-miterlimit="10" x1="2.3" y1="6.5" x2="8.3" y2="6.5"/>
	<path display="inline" fill="none" stroke="#989898" stroke-width="2" stroke-linejoin="round" stroke-miterlimit="10" d="
		M7.3,16.3c0,0.8,0.6,1.4,1.4,1.4h10.5c0.8,0,1.4-0.6,1.4-1.4v-1.4V2.2V0.1c0-0.8-0.6-1.4-1.4-1.4h-4.6"/>
	
		<line display="inline" fill="none" stroke="#989898" stroke-width="2" stroke-linecap="round" stroke-linejoin="round" stroke-miterlimit="10" x1="15.6" y1="2.7" x2="16.9" y2="2.7"/>
	
		<line display="inline" fill="none" stroke="#989898" stroke-width="2" stroke-linecap="round" stroke-linejoin="round" stroke-miterlimit="10" x1="15.6" y1="6.7" x2="16.9" y2="6.7"/>
	
		<line display="inline" fill="none" stroke="#989898" stroke-width="2" stroke-linecap="round" stroke-linejoin="round" stroke-miterlimit="10" x1="15.6" y1="10.6" x2="16.9" y2="10.6"/>
</g>
<g display="none">
	<g display="inline">
		<path fill="none" stroke="#2EACE3" stroke-width="2" stroke-linecap="round" stroke-linejoin="round" stroke-miterlimit="10" d="
			M14,12.7c-3.5,3.5-9.2,3.5-12.7,0S-2.2,3.5,1.3,0S10.5-3.5,14,0"/>
	</g>
	
		<line display="inline" fill="none" stroke="#2EACE3" stroke-width="2" stroke-linecap="round" stroke-linejoin="round" stroke-miterlimit="10" x1="10.1" y1="6.3" x2="20.1" y2="6.3"/>
	
		<polyline display="inline" fill="none" stroke="#2EACE3" stroke-width="2" stroke-linecap="round" stroke-linejoin="round" stroke-miterlimit="10" points="
		17,2.4 20.6,6 17,9.6 	"/>
</g>
<g display="none">
	<g display="inline">
		<path fill="none" stroke="#989898" stroke-width="2" stroke-linecap="round" stroke-linejoin="round" stroke-miterlimit="10" d="
			M14,12.7c-3.5,3.5-9.2,3.5-12.7,0S-2.2,3.5,1.3,0S10.5-3.5,14,0"/>
	</g>
	
		<line display="inline" fill="none" stroke="#989898" stroke-width="2" stroke-linecap="round" stroke-linejoin="round" stroke-miterlimit="10" x1="10.1" y1="6.3" x2="20.1" y2="6.3"/>
	
		<polyline display="inline" fill="none" stroke="#989898" stroke-width="2" stroke-linecap="round" stroke-linejoin="round" stroke-miterlimit="10" points="
		17,2.4 20.6,6 17,9.6 	"/>
</g>
<g display="none">
	
		<path display="inline" fill="none" stroke="#2EACE3" stroke-width="2" stroke-linecap="round" stroke-linejoin="round" stroke-miterlimit="10" d="
		M19,17.3H0.3c-1.5,0-2.7-1.2-2.7-2.7V-2c0-1.5,1.2-2.7,2.7-2.7H19c1.5,0,2.7,1.2,2.7,2.7v16.6C21.7,16.1,20.5,17.3,19,17.3z"/>
	
		<line display="inline" fill="none" stroke="#2EACE3" stroke-width="2" stroke-linecap="round" stroke-linejoin="round" stroke-miterlimit="10" x1="13.2" y1="3.9" x2="16.5" y2="0.6"/>
	
		<polyline display="inline" fill="none" stroke="#2EACE3" stroke-width="2" stroke-linecap="round" stroke-linejoin="round" stroke-miterlimit="10" points="
		12.7,-0.5 17.3,-0.5 17.3,4.1 	"/>
	
		<line display="inline" fill="none" stroke="#2EACE3" stroke-width="2" stroke-linecap="round" stroke-linejoin="round" stroke-miterlimit="10" x1="5.8" y1="3.9" x2="2.5" y2="0.6"/>
	
		<polyline display="inline" fill="none" stroke="#2EACE3" stroke-width="2" stroke-linecap="round" stroke-linejoin="round" stroke-miterlimit="10" points="
		6.3,-0.5 1.7,-0.5 1.7,4.1 	"/>
	
		<line display="inline" fill="none" stroke="#2EACE3" stroke-width="2" stroke-linecap="round" stroke-linejoin="round" stroke-miterlimit="10" x1="5.8" y1="8.6" x2="2.5" y2="11.9"/>
	
		<polyline display="inline" fill="none" stroke="#2EACE3" stroke-width="2" stroke-linecap="round" stroke-linejoin="round" stroke-miterlimit="10" points="
		6.3,13.1 1.7,13.1 1.7,8.5 	"/>
	
		<line display="inline" fill="none" stroke="#2EACE3" stroke-width="2" stroke-linecap="round" stroke-linejoin="round" stroke-miterlimit="10" x1="13.2" y1="8.6" x2="16.5" y2="11.9"/>
	
		<polyline display="inline" fill="none" stroke="#2EACE3" stroke-width="2" stroke-linecap="round" stroke-linejoin="round" stroke-miterlimit="10" points="
		12.7,13.1 17.3,13.1 17.3,8.5 	"/>
</g>
<g display="none">
	
		<path display="inline" fill="none" stroke="#989898" stroke-width="2" stroke-linecap="round" stroke-linejoin="round" stroke-miterlimit="10" d="
		M19,17.3H0.3c-1.5,0-2.7-1.2-2.7-2.7V-2c0-1.5,1.2-2.7,2.7-2.7H19c1.5,0,2.7,1.2,2.7,2.7v16.6C21.7,16.1,20.5,17.3,19,17.3z"/>
	
		<line display="inline" fill="none" stroke="#989898" stroke-width="2" stroke-linecap="round" stroke-linejoin="round" stroke-miterlimit="10" x1="16.8" y1="-0.4" x2="13.5" y2="2.9"/>
	
		<polyline display="inline" fill="none" stroke="#989898" stroke-width="2" stroke-linecap="round" stroke-linejoin="round" stroke-miterlimit="10" points="
		17.3,4.1 12.7,4.1 12.7,-0.5 	"/>
	
		<line display="inline" fill="none" stroke="#989898" stroke-width="2" stroke-linecap="round" stroke-linejoin="round" stroke-miterlimit="10" x1="2.2" y1="-0.4" x2="5.5" y2="2.9"/>
	
		<polyline display="inline" fill="none" stroke="#989898" stroke-width="2" stroke-linecap="round" stroke-linejoin="round" stroke-miterlimit="10" points="
		1.7,4.1 6.3,4.1 6.3,-0.5 	"/>
	
		<line display="inline" fill="none" stroke="#989898" stroke-width="2" stroke-linecap="round" stroke-linejoin="round" stroke-miterlimit="10" x1="2.2" y1="12.9" x2="5.5" y2="9.6"/>
	
		<polyline display="inline" fill="none" stroke="#989898" stroke-width="2" stroke-linecap="round" stroke-linejoin="round" stroke-miterlimit="10" points="
		1.7,8.5 6.3,8.5 6.3,13.1 	"/>
	
		<line display="inline" fill="none" stroke="#989898" stroke-width="2" stroke-linecap="round" stroke-linejoin="round" stroke-miterlimit="10" x1="16.8" y1="12.9" x2="13.5" y2="9.6"/>
	
		<polyline display="inline" fill="none" stroke="#989898" stroke-width="2" stroke-linecap="round" stroke-linejoin="round" stroke-miterlimit="10" points="
		17.3,8.5 12.7,8.5 12.7,13.1 	"/>
</g>
<g display="none">
	<g display="inline">
		<path fill="#2EACE3" d="M22.6,13.2c-0.1-3.3-2-5.9-4.9-7c1-0.8,1.7-2.1,1.7-3.5c0-2.5-2-4.5-4.5-4.5c-1.2,0-2.2,0.5-3,1.2
			c0.4,0.6,0.7,1.3,0.9,2c0.4-0.7,1.2-1.2,2.1-1.2c1.4,0,2.5,1.1,2.5,2.5s-1.1,2.5-2.5,2.5c-0.9,0-1.7-0.5-2.1-1.2
			c-0.1,0.6-0.3,1.2-0.6,1.7c0.8,0.6,1.6,1.3,2.2,2.1c0.2,0,0.4,0,0.6,0c3,0,5.2,1.9,5.6,4.7h-4.5c0,0.2,0,0.4,0.1,0.6
			c0,0.1,0,0.2,0,0.4c0,0.4-0.1,0.7-0.2,1.1h5.7c0,0,0,0,0,0c0.6,0,1-0.4,1-1C22.7,13.3,22.7,13.3,22.6,13.2z"/>
	</g>
</g>
<path display="none" fill="#2EACE3" d="M14.6,13.2c-0.1-3.3-2-5.9-4.9-7c1-0.8,1.7-2.1,1.7-3.5c0-2.5-2-4.5-4.5-4.5
	c-2.5,0-4.5,2-4.5,4.5c0,1.4,0.7,2.7,1.7,3.5C1.2,7.3-0.8,10-0.8,13.4c0,0.6,0.4,1,1,1h13.4c0,0,0,0,0,0c0.6,0,1-0.4,1-1
	C14.7,13.3,14.7,13.3,14.6,13.2z M6.9,0.2c1.4,0,2.5,1.1,2.5,2.5S8.3,5.2,6.9,5.2S4.4,4.1,4.4,2.7S5.6,0.2,6.9,0.2z M1.3,12.4
	C1.7,9.6,4,7.7,6.9,7.7s5.2,1.9,5.6,4.7H1.3z"/>
<g display="none">
	<g display="inline">
		<path fill="#989898" d="M22.6,13.2c-0.1-3.3-2-5.9-4.9-7c1-0.8,1.7-2.1,1.7-3.5c0-2.5-2-4.5-4.5-4.5c-1.2,0-2.2,0.5-3,1.2
			c0.4,0.6,0.7,1.3,0.9,2c0.4-0.7,1.2-1.2,2.1-1.2c1.4,0,2.5,1.1,2.5,2.5s-1.1,2.5-2.5,2.5c-0.9,0-1.7-0.5-2.1-1.2
			c-0.1,0.6-0.3,1.2-0.6,1.7c0.8,0.6,1.6,1.3,2.2,2.1c0.2,0,0.4,0,0.6,0c3,0,5.2,1.9,5.6,4.7h-4.5c0,0.2,0,0.4,0.1,0.6
			c0,0.1,0,0.2,0,0.4c0,0.4-0.1,0.7-0.2,1.1h5.7c0,0,0,0,0,0c0.6,0,1-0.4,1-1C22.7,13.3,22.7,13.3,22.6,13.2z"/>
	</g>
</g>
<path display="none" fill="#989898" d="M14.6,13.2c-0.1-3.3-2-5.9-4.9-7c1-0.8,1.7-2.1,1.7-3.5c0-2.5-2-4.5-4.5-4.5
	c-2.5,0-4.5,2-4.5,4.5c0,1.4,0.7,2.7,1.7,3.5C1.2,7.3-0.8,10-0.8,13.4c0,0.6,0.4,1,1,1h13.4c0,0,0,0,0,0c0.6,0,1-0.4,1-1
	C14.7,13.3,14.7,13.3,14.6,13.2z M6.9,0.2c1.4,0,2.5,1.1,2.5,2.5S8.3,5.2,6.9,5.2c-1.4,0-2.5-1.1-2.5-2.5S5.6,0.2,6.9,0.2z
	 M1.3,12.4C1.7,9.6,4,7.7,6.9,7.7c3,0,5.2,1.9,5.6,4.7H1.3z"/>
<polyline opacity="0.71" fill="none" stroke="#F3F3F3" stroke-width="2" stroke-miterlimit="10" points="23.2,0.7 11.9,11.9 
	0.7,0.7 "/>
</svg>
