<?xml version="1.0" encoding="utf-8"?>
<!-- Generator: Adobe Illustrator 18.1.0, SVG Export Plug-In . SVG Version: 6.00 Build 0)  -->
<svg version="1.1" id="Layer_1" xmlns="http://www.w3.org/2000/svg" xmlns:xlink="http://www.w3.org/1999/xlink" x="0px" y="0px"
	 viewBox="0 0 25 25" enable-background="new 0 0 25 25" xml:space="preserve">
<line display="none" fill="none" stroke="#989898" stroke-width="2" stroke-linecap="round" stroke-linejoin="round" stroke-miterlimit="10" x1="12.5" y1="1" x2="12.5" y2="24"/>
<line fill="none" stroke="#989898" stroke-width="2" stroke-linecap="round" stroke-linejoin="round" stroke-miterlimit="10" x1="24" y1="12.5" x2="1" y2="12.5"/>
<line display="none" fill="none" stroke="#989898" stroke-width="2" stroke-linecap="round" stroke-linejoin="round" stroke-miterlimit="10" x1="24" y1="12.5" x2="1" y2="12.5"/>
<line display="none" fill="none" stroke="#989898" stroke-width="2" stroke-linecap="round" stroke-linejoin="round" stroke-miterlimit="10" x1="20.6" y1="4.4" x2="4.4" y2="20.6"/>
<line display="none" fill="none" stroke="#989898" stroke-width="2" stroke-linecap="round" stroke-linejoin="round" stroke-miterlimit="10" x1="20.6" y1="20.6" x2="4.4" y2="4.4"/>
<polyline display="none" fill="none" stroke="#989898" stroke-width="2" stroke-linecap="round" stroke-linejoin="round" stroke-miterlimit="10" points="
	18.5,0.5 6.5,12.5 18.5,24.5 "/>
<polyline display="none" fill="none" stroke="#989898" stroke-width="2" stroke-linecap="round" stroke-linejoin="round" stroke-miterlimit="10" points="
	6.5,0.5 18.5,12.5 6.5,24.5 "/>
<polyline display="none" fill="none" stroke="#4E4E4E" stroke-width="2" stroke-linecap="round" stroke-linejoin="round" stroke-miterlimit="10" points="
	6.5,0.5 18.5,12.5 6.5,24.5 "/>
<polyline display="none" fill="none" stroke="#4E4E4E" stroke-width="2" stroke-linecap="round" stroke-linejoin="round" stroke-miterlimit="10" points="
	18.5,24.5 6.5,12.5 18.5,0.5 "/>
<polyline display="none" fill="none" stroke="#2EACE3" stroke-width="2" stroke-linecap="round" stroke-linejoin="round" stroke-miterlimit="10" points="
	18.5,0.5 6.5,12.5 18.5,24.5 "/>
<polyline display="none" fill="none" stroke="#2EACE3" stroke-width="2" stroke-linecap="round" stroke-linejoin="round" stroke-miterlimit="10" points="
	6.5,0.5 18.5,12.5 6.5,24.5 "/>
<polyline display="none" fill="none" stroke="#E6E6E5" stroke-width="2" stroke-linecap="round" stroke-linejoin="round" stroke-miterlimit="10" points="
	6.5,0.5 18.5,12.5 6.5,24.5 "/>
<polyline display="none" fill="none" stroke="#E6E6E5" stroke-width="2" stroke-linecap="round" stroke-linejoin="round" stroke-miterlimit="10" points="
	18.5,24.5 6.5,12.5 18.5,0.5 "/>
<polyline display="none" fill="none" stroke="#2EACE3" stroke-width="2" stroke-linecap="round" stroke-linejoin="round" stroke-miterlimit="10" points="
	5.8,12.5 11.2,18.2 19.2,6.8 "/>
<circle display="none" fill="#2EACE3" cx="396.8" cy="12.5" r="7.1"/>
</svg>
