<?xml version="1.0" encoding="utf-8"?>
<!-- Generator: Adobe Illustrator 18.1.0, SVG Export Plug-In . SVG Version: 6.00 Build 0)  -->
<svg version="1.1" id="Layer_1" xmlns="http://www.w3.org/2000/svg" xmlns:xlink="http://www.w3.org/1999/xlink" x="0px" y="0px"
	 viewBox="0 0 22.6 21" enable-background="new 0 0 22.6 21" xml:space="preserve">
<line display="none" fill="none" stroke="#989898" stroke-width="2" stroke-linecap="round" stroke-linejoin="round" stroke-miterlimit="10" x1="11.3" y1="-1" x2="11.3" y2="22"/>
<line display="none" fill="none" stroke="#989898" stroke-width="2" stroke-linecap="round" stroke-linejoin="round" stroke-miterlimit="10" x1="22.8" y1="10.5" x2="-0.2" y2="10.5"/>
<line display="none" fill="none" stroke="#989898" stroke-width="2" stroke-linecap="round" stroke-linejoin="round" stroke-miterlimit="10" x1="22.8" y1="10.5" x2="-0.2" y2="10.5"/>
<line display="none" fill="none" stroke="#989898" stroke-width="2" stroke-linecap="round" stroke-linejoin="round" stroke-miterlimit="10" x1="19.4" y1="2.4" x2="3.1" y2="18.6"/>
<line display="none" fill="none" stroke="#989898" stroke-width="2" stroke-linecap="round" stroke-linejoin="round" stroke-miterlimit="10" x1="19.4" y1="18.6" x2="3.1" y2="2.4"/>
<polyline display="none" fill="none" stroke="#989898" stroke-width="2" stroke-linecap="round" stroke-linejoin="round" stroke-miterlimit="10" points="
	17.3,-1.5 5.3,10.5 17.3,22.5 "/>
<polyline display="none" fill="none" stroke="#989898" stroke-width="2" stroke-linecap="round" stroke-linejoin="round" stroke-miterlimit="10" points="
	5.3,-1.5 17.3,10.5 5.3,22.5 "/>
<polyline display="none" fill="none" stroke="#4E4E4E" stroke-width="2" stroke-linecap="round" stroke-linejoin="round" stroke-miterlimit="10" points="
	5.3,-1.5 17.3,10.5 5.3,22.5 "/>
<polyline display="none" fill="none" stroke="#4E4E4E" stroke-width="2" stroke-linecap="round" stroke-linejoin="round" stroke-miterlimit="10" points="
	17.3,22.5 5.3,10.5 17.3,-1.5 "/>
<polyline display="none" fill="none" stroke="#2EACE3" stroke-width="2" stroke-linecap="round" stroke-linejoin="round" stroke-miterlimit="10" points="
	17.3,-1.5 5.3,10.5 17.3,22.5 "/>
<polyline display="none" fill="none" stroke="#2EACE3" stroke-width="2" stroke-linecap="round" stroke-linejoin="round" stroke-miterlimit="10" points="
	5.3,-1.5 17.3,10.5 5.3,22.5 "/>
<polyline display="none" fill="none" stroke="#E6E6E5" stroke-width="2" stroke-linecap="round" stroke-linejoin="round" stroke-miterlimit="10" points="
	5.3,-1.5 17.3,10.5 5.3,22.5 "/>
<polyline display="none" fill="none" stroke="#E6E6E5" stroke-width="2" stroke-linecap="round" stroke-linejoin="round" stroke-miterlimit="10" points="
	17.3,22.5 5.3,10.5 17.3,-1.5 "/>
<polyline display="none" fill="none" stroke="#2EACE3" stroke-width="2" stroke-linecap="round" stroke-linejoin="round" stroke-miterlimit="10" points="
	4.5,10.5 9.9,16.2 18,4.8 "/>
<circle display="none" fill="#2EACE3" cx="11.3" cy="10.5" r="7.1"/>
<g display="none">
	<g display="inline">
		
			<line fill="none" stroke="#2EACE3" stroke-width="2" stroke-linecap="round" stroke-linejoin="round" stroke-miterlimit="10" x1="4.8" y1="3.6" x2="24.8" y2="3.6"/>
		
			<line fill="none" stroke="#2EACE3" stroke-width="2" stroke-linecap="round" stroke-linejoin="round" stroke-miterlimit="10" x1="4.8" y1="10.6" x2="24.8" y2="10.6"/>
		
			<line fill="none" stroke="#2EACE3" stroke-width="2" stroke-linecap="round" stroke-linejoin="round" stroke-miterlimit="10" x1="4.8" y1="17.6" x2="24.8" y2="17.6"/>
	</g>
	<circle display="inline" fill="#2EACE3" cx="-0.5" cy="3.5" r="1.7"/>
	<circle display="inline" fill="#2EACE3" cx="-0.5" cy="10.5" r="1.7"/>
	<circle display="inline" fill="#2EACE3" cx="-0.5" cy="17.5" r="1.7"/>
</g>
<g display="none">
	<g display="inline">
		
			<line fill="none" stroke="#989898" stroke-width="2" stroke-linecap="round" stroke-linejoin="round" stroke-miterlimit="10" x1="4.8" y1="3.6" x2="24.8" y2="3.6"/>
		
			<line fill="none" stroke="#989898" stroke-width="2" stroke-linecap="round" stroke-linejoin="round" stroke-miterlimit="10" x1="4.8" y1="10.6" x2="24.8" y2="10.6"/>
		
			<line fill="none" stroke="#989898" stroke-width="2" stroke-linecap="round" stroke-linejoin="round" stroke-miterlimit="10" x1="4.8" y1="17.6" x2="24.8" y2="17.6"/>
	</g>
	<circle display="inline" fill="#989898" cx="-0.5" cy="3.5" r="1.7"/>
	<circle display="inline" fill="#989898" cx="-0.5" cy="10.5" r="1.7"/>
	<circle display="inline" fill="#989898" cx="-0.5" cy="17.5" r="1.7"/>
</g>
<g display="none">
	
		<line display="inline" fill="none" stroke="#2EACE3" stroke-width="2" stroke-linecap="round" stroke-linejoin="round" stroke-miterlimit="10" x1="-2.2" y1="3.5" x2="24.8" y2="3.5"/>
	
		<line display="inline" fill="none" stroke="#2EACE3" stroke-width="2" stroke-linecap="round" stroke-linejoin="round" stroke-miterlimit="10" x1="-2.2" y1="10.5" x2="24.8" y2="10.5"/>
	
		<line display="inline" fill="none" stroke="#2EACE3" stroke-width="2" stroke-linecap="round" stroke-linejoin="round" stroke-miterlimit="10" x1="-2.2" y1="17.5" x2="24.8" y2="17.5"/>
</g>
<g display="none">
	
		<line display="inline" fill="none" stroke="#989898" stroke-width="2" stroke-linecap="round" stroke-linejoin="round" stroke-miterlimit="10" x1="-2.2" y1="3.6" x2="24.8" y2="3.6"/>
	
		<line display="inline" fill="none" stroke="#989898" stroke-width="2" stroke-linecap="round" stroke-linejoin="round" stroke-miterlimit="10" x1="-2.2" y1="10.6" x2="24.8" y2="10.6"/>
	
		<line display="inline" fill="none" stroke="#989898" stroke-width="2" stroke-linecap="round" stroke-linejoin="round" stroke-miterlimit="10" x1="-2.2" y1="17.6" x2="24.8" y2="17.6"/>
</g>
<g display="none">
	
		<path display="inline" fill="none" stroke="#2EACE3" stroke-width="2" stroke-linecap="round" stroke-linejoin="round" stroke-miterlimit="10" d="
		M18.1,17.5c-3.4,3.5-9.1,3.5-12.6,0C2,14,2,8.3,5.5,4.9c3.5-3.5,9.1-3.4,12.6,0"/>
	
		<polyline display="inline" fill="none" stroke="#2EACE3" stroke-width="2" stroke-linecap="round" stroke-linejoin="round" stroke-miterlimit="10" points="
		19.7,0.9 19.7,6.6 14.1,6.6 	"/>
</g>
<g display="none">
	
		<path display="inline" fill="none" stroke="#989898" stroke-width="2" stroke-linecap="round" stroke-linejoin="round" stroke-miterlimit="10" d="
		M18.1,17.5c-3.4,3.5-9.1,3.5-12.6,0C2,14,2,8.3,5.5,4.9c3.5-3.5,9.1-3.4,12.6,0"/>
	
		<polyline display="inline" fill="none" stroke="#989898" stroke-width="2" stroke-linecap="round" stroke-linejoin="round" stroke-miterlimit="10" points="
		19.7,0.9 19.7,6.6 14.1,6.6 	"/>
</g>
<g>
	
		<polygon fill="none" stroke="#2EACE3" stroke-width="2" stroke-linecap="round" stroke-linejoin="round" stroke-miterlimit="10" points="
		12.1,15.5 9.5,15.9 9.7,13.1 19.2,3.7 21.6,6 	"/>
	<path fill="none" stroke="#2EACE3" stroke-width="2" stroke-linecap="round" stroke-linejoin="round" stroke-miterlimit="10" d="
		M14.4,4.5V2.4C14.4,1.6,13.7,1,13,1H2.4C1.6,1,1,1.6,1,2.4v16.2C1,19.4,1.6,20,2.4,20H13c0.8,0,1.4-0.6,1.4-1.4v-1.4"/>
	
		<line fill="none" stroke="#2EACE3" stroke-width="2" stroke-linecap="round" stroke-linejoin="round" stroke-miterlimit="10" x1="4.7" y1="5" x2="10.7" y2="5"/>
	
		<line fill="none" stroke="#2EACE3" stroke-width="2" stroke-linecap="round" stroke-linejoin="round" stroke-miterlimit="10" x1="4.7" y1="9" x2="7.7" y2="9"/>
</g>
<g display="none">
	
		<polygon display="inline" fill="none" stroke="#989898" stroke-width="2" stroke-linecap="round" stroke-linejoin="round" stroke-miterlimit="10" points="
		12.1,15.5 9.5,15.9 9.7,13.1 19.2,3.7 21.6,6 	"/>
	
		<path display="inline" fill="none" stroke="#989898" stroke-width="2" stroke-linecap="round" stroke-linejoin="round" stroke-miterlimit="10" d="
		M14.4,4.5V2.4C14.4,1.6,13.7,1,13,1H2.4C1.6,1,1,1.6,1,2.4v16.2C1,19.4,1.6,20,2.4,20H13c0.8,0,1.4-0.6,1.4-1.4v-1.4"/>
	
		<line display="inline" fill="none" stroke="#989898" stroke-width="2" stroke-linecap="round" stroke-linejoin="round" stroke-miterlimit="10" x1="4.7" y1="5" x2="10.7" y2="5"/>
	
		<line display="inline" fill="none" stroke="#989898" stroke-width="2" stroke-linecap="round" stroke-linejoin="round" stroke-miterlimit="10" x1="4.7" y1="9" x2="7.7" y2="9"/>
</g>
<g display="none">
	
		<path display="inline" fill="none" stroke="#2EACE3" stroke-width="2" stroke-linecap="round" stroke-linejoin="round" stroke-miterlimit="10" d="
		M1.9,3.2v9.4c0,0.9,0.8,1.7,1.7,1.7h7.6l4.4,5.1v-5.1H19c0.9,0,1.7-0.8,1.7-1.7V3.2c0-0.9-0.8-1.7-1.7-1.7H3.6
		C2.6,1.5,1.9,2.3,1.9,3.2z"/>
	
		<line display="inline" fill="none" stroke="#2EACE3" stroke-width="2" stroke-linecap="round" stroke-linejoin="round" stroke-miterlimit="10" x1="6.3" y1="6" x2="16.3" y2="6"/>
	
		<line display="inline" fill="none" stroke="#2EACE3" stroke-width="2" stroke-linecap="round" stroke-linejoin="round" stroke-miterlimit="10" x1="6.3" y1="10" x2="16.3" y2="10"/>
</g>
<g display="none">
	
		<path display="inline" fill="none" stroke="#989898" stroke-width="2" stroke-linecap="round" stroke-linejoin="round" stroke-miterlimit="10" d="
		M1.9,3.2v9.4c0,0.9,0.8,1.7,1.7,1.7h7.6l4.4,5.1v-5.1H19c0.9,0,1.7-0.8,1.7-1.7V3.2c0-0.9-0.8-1.7-1.7-1.7H3.6
		C2.6,1.5,1.9,2.3,1.9,3.2z"/>
	
		<line display="inline" fill="none" stroke="#989898" stroke-width="2" stroke-linecap="round" stroke-linejoin="round" stroke-miterlimit="10" x1="6.3" y1="6" x2="16.3" y2="6"/>
	
		<line display="inline" fill="none" stroke="#989898" stroke-width="2" stroke-linecap="round" stroke-linejoin="round" stroke-miterlimit="10" x1="6.3" y1="10" x2="16.3" y2="10"/>
</g>
<g display="none">
	
		<circle display="inline" fill="none" stroke="#2EACE3" stroke-width="2" stroke-linecap="round" stroke-linejoin="round" stroke-miterlimit="10" cx="9.7" cy="9.5" r="8.4"/>
	
		<line display="inline" fill="none" stroke="#2EACE3" stroke-width="2" stroke-linecap="round" stroke-linejoin="round" stroke-miterlimit="10" x1="16.4" y1="15.1" x2="21.3" y2="19.9"/>
</g>
<g display="none">
	
		<circle display="inline" fill="none" stroke="#989898" stroke-width="2" stroke-linecap="round" stroke-linejoin="round" stroke-miterlimit="10" cx="9.7" cy="9.5" r="8.4"/>
	
		<line display="inline" fill="none" stroke="#989898" stroke-width="2" stroke-linecap="round" stroke-linejoin="round" stroke-miterlimit="10" x1="16.4" y1="15.1" x2="21.3" y2="19.9"/>
</g>
<g display="none">
	<g display="inline">
		<path fill="none" stroke="#2EACE3" stroke-width="2" stroke-linecap="round" stroke-linejoin="round" stroke-miterlimit="10" d="
			M13.7,2.6V0.5c0-0.8-0.6-1.4-1.4-1.4H1.7C1-0.9,0.3-0.3,0.3,0.5v16.2c0,0.8,0.6,1.4,1.4,1.4h10.5c0.8,0,1.4-0.6,1.4-1.4v-1.4V2.6z
			"/>
		
			<line fill="none" stroke="#2EACE3" stroke-width="2" stroke-linecap="round" stroke-linejoin="round" stroke-miterlimit="10" x1="4" y1="3.1" x2="10" y2="3.1"/>
		
			<line fill="none" stroke="#2EACE3" stroke-width="2" stroke-linecap="round" stroke-linejoin="round" stroke-miterlimit="10" x1="4" y1="7.1" x2="10" y2="7.1"/>
		
			<line fill="none" stroke="#2EACE3" stroke-width="2" stroke-linecap="round" stroke-linejoin="round" stroke-miterlimit="10" x1="4" y1="10.7" x2="10" y2="10.7"/>
		<path fill="none" stroke="#2EACE3" stroke-width="2" stroke-linejoin="round" stroke-miterlimit="10" d="M8.9,20.5
			c0,0.8,0.6,1.4,1.4,1.4h10.5c0.8,0,1.4-0.6,1.4-1.4v-1.4V6.4V4.3c0-0.8-0.6-1.4-1.4-1.4h-4.6"/>
		
			<line fill="none" stroke="#2EACE3" stroke-width="2" stroke-linecap="round" stroke-linejoin="round" stroke-miterlimit="10" x1="17.2" y1="6.9" x2="18.6" y2="6.9"/>
		
			<line fill="none" stroke="#2EACE3" stroke-width="2" stroke-linecap="round" stroke-linejoin="round" stroke-miterlimit="10" x1="17.2" y1="10.9" x2="18.6" y2="10.9"/>
		
			<line fill="none" stroke="#2EACE3" stroke-width="2" stroke-linecap="round" stroke-linejoin="round" stroke-miterlimit="10" x1="17.2" y1="14.7" x2="18.6" y2="14.7"/>
	</g>
</g>
<g display="none">
	
		<path display="inline" fill="none" stroke="#989898" stroke-width="2" stroke-linecap="round" stroke-linejoin="round" stroke-miterlimit="10" d="
		M13.7,2.6V0.5c0-0.8-0.6-1.4-1.4-1.4H1.7C1-0.9,0.3-0.3,0.3,0.5v16.2c0,0.8,0.6,1.4,1.4,1.4h10.5c0.8,0,1.4-0.6,1.4-1.4v-1.4V2.6z"
		/>
	
		<line display="inline" fill="none" stroke="#989898" stroke-width="2" stroke-linecap="round" stroke-linejoin="round" stroke-miterlimit="10" x1="4" y1="3.1" x2="10" y2="3.1"/>
	
		<line display="inline" fill="none" stroke="#989898" stroke-width="2" stroke-linecap="round" stroke-linejoin="round" stroke-miterlimit="10" x1="4" y1="7.1" x2="10" y2="7.1"/>
	
		<line display="inline" fill="none" stroke="#989898" stroke-width="2" stroke-linecap="round" stroke-linejoin="round" stroke-miterlimit="10" x1="4" y1="10.7" x2="10" y2="10.7"/>
	<path display="inline" fill="none" stroke="#989898" stroke-width="2" stroke-linejoin="round" stroke-miterlimit="10" d="
		M8.9,20.5c0,0.8,0.6,1.4,1.4,1.4h10.5c0.8,0,1.4-0.6,1.4-1.4v-1.4V6.4V4.3c0-0.8-0.6-1.4-1.4-1.4h-4.6"/>
	
		<line display="inline" fill="none" stroke="#989898" stroke-width="2" stroke-linecap="round" stroke-linejoin="round" stroke-miterlimit="10" x1="17.2" y1="6.9" x2="18.6" y2="6.9"/>
	
		<line display="inline" fill="none" stroke="#989898" stroke-width="2" stroke-linecap="round" stroke-linejoin="round" stroke-miterlimit="10" x1="17.2" y1="10.9" x2="18.6" y2="10.9"/>
	
		<line display="inline" fill="none" stroke="#989898" stroke-width="2" stroke-linecap="round" stroke-linejoin="round" stroke-miterlimit="10" x1="17.2" y1="14.7" x2="18.6" y2="14.7"/>
</g>
<g display="none">
	<g display="inline">
		<path fill="none" stroke="#2EACE3" stroke-width="2" stroke-linecap="round" stroke-linejoin="round" stroke-miterlimit="10" d="
			M15.6,16.8c-3.5,3.5-9.2,3.5-12.7,0s-3.5-9.2,0-12.7s9.2-3.5,12.7,0"/>
	</g>
	
		<line display="inline" fill="none" stroke="#2EACE3" stroke-width="2" stroke-linecap="round" stroke-linejoin="round" stroke-miterlimit="10" x1="11.7" y1="10.5" x2="21.7" y2="10.5"/>
	
		<polyline display="inline" fill="none" stroke="#2EACE3" stroke-width="2" stroke-linecap="round" stroke-linejoin="round" stroke-miterlimit="10" points="
		18.6,6.5 22.3,10.2 18.6,13.8 	"/>
</g>
<g display="none">
	<g display="inline">
		<path fill="none" stroke="#989898" stroke-width="2" stroke-linecap="round" stroke-linejoin="round" stroke-miterlimit="10" d="
			M15.6,16.8c-3.5,3.5-9.2,3.5-12.7,0s-3.5-9.2,0-12.7s9.2-3.5,12.7,0"/>
	</g>
	
		<line display="inline" fill="none" stroke="#989898" stroke-width="2" stroke-linecap="round" stroke-linejoin="round" stroke-miterlimit="10" x1="11.7" y1="10.5" x2="21.7" y2="10.5"/>
	
		<polyline display="inline" fill="none" stroke="#989898" stroke-width="2" stroke-linecap="round" stroke-linejoin="round" stroke-miterlimit="10" points="
		18.6,6.5 22.3,10.2 18.6,13.8 	"/>
</g>
<g display="none">
	
		<path display="inline" fill="none" stroke="#2EACE3" stroke-width="2" stroke-linecap="round" stroke-linejoin="round" stroke-miterlimit="10" d="
		M20.6,21.5H2c-1.5,0-2.7-1.2-2.7-2.7V2.2c0-1.5,1.2-2.7,2.7-2.7h18.6c1.5,0,2.7,1.2,2.7,2.7v16.6C23.3,20.3,22.1,21.5,20.6,21.5z"
		/>
	
		<line display="inline" fill="none" stroke="#2EACE3" stroke-width="2" stroke-linecap="round" stroke-linejoin="round" stroke-miterlimit="10" x1="14.9" y1="8.1" x2="18.2" y2="4.8"/>
	
		<polyline display="inline" fill="none" stroke="#2EACE3" stroke-width="2" stroke-linecap="round" stroke-linejoin="round" stroke-miterlimit="10" points="
		14.4,3.7 18.9,3.7 18.9,8.2 	"/>
	
		<line display="inline" fill="none" stroke="#2EACE3" stroke-width="2" stroke-linecap="round" stroke-linejoin="round" stroke-miterlimit="10" x1="7.4" y1="8.1" x2="4.1" y2="4.8"/>
	
		<polyline display="inline" fill="none" stroke="#2EACE3" stroke-width="2" stroke-linecap="round" stroke-linejoin="round" stroke-miterlimit="10" points="
		7.9,3.7 3.4,3.7 3.4,8.2 	"/>
	
		<line display="inline" fill="none" stroke="#2EACE3" stroke-width="2" stroke-linecap="round" stroke-linejoin="round" stroke-miterlimit="10" x1="7.4" y1="12.8" x2="4.1" y2="16.1"/>
	
		<polyline display="inline" fill="none" stroke="#2EACE3" stroke-width="2" stroke-linecap="round" stroke-linejoin="round" stroke-miterlimit="10" points="
		7.9,17.2 3.4,17.2 3.4,12.7 	"/>
	
		<line display="inline" fill="none" stroke="#2EACE3" stroke-width="2" stroke-linecap="round" stroke-linejoin="round" stroke-miterlimit="10" x1="14.9" y1="12.8" x2="18.2" y2="16.1"/>
	
		<polyline display="inline" fill="none" stroke="#2EACE3" stroke-width="2" stroke-linecap="round" stroke-linejoin="round" stroke-miterlimit="10" points="
		14.4,17.2 18.9,17.2 18.9,12.7 	"/>
</g>
<g display="none">
	
		<path display="inline" fill="none" stroke="#989898" stroke-width="2" stroke-linecap="round" stroke-linejoin="round" stroke-miterlimit="10" d="
		M20.6,21.5H2c-1.5,0-2.7-1.2-2.7-2.7V2.2c0-1.5,1.2-2.7,2.7-2.7h18.6c1.5,0,2.7,1.2,2.7,2.7v16.6C23.3,20.3,22.1,21.5,20.6,21.5z"
		/>
	
		<line display="inline" fill="none" stroke="#989898" stroke-width="2" stroke-linecap="round" stroke-linejoin="round" stroke-miterlimit="10" x1="18.4" y1="3.8" x2="15.1" y2="7.1"/>
	
		<polyline display="inline" fill="none" stroke="#989898" stroke-width="2" stroke-linecap="round" stroke-linejoin="round" stroke-miterlimit="10" points="
		18.9,8.2 14.4,8.2 14.4,3.7 	"/>
	
		<line display="inline" fill="none" stroke="#989898" stroke-width="2" stroke-linecap="round" stroke-linejoin="round" stroke-miterlimit="10" x1="3.9" y1="3.8" x2="7.2" y2="7.1"/>
	
		<polyline display="inline" fill="none" stroke="#989898" stroke-width="2" stroke-linecap="round" stroke-linejoin="round" stroke-miterlimit="10" points="
		3.4,8.2 7.9,8.2 7.9,3.7 	"/>
	
		<line display="inline" fill="none" stroke="#989898" stroke-width="2" stroke-linecap="round" stroke-linejoin="round" stroke-miterlimit="10" x1="3.9" y1="17.1" x2="7.2" y2="13.8"/>
	
		<polyline display="inline" fill="none" stroke="#989898" stroke-width="2" stroke-linecap="round" stroke-linejoin="round" stroke-miterlimit="10" points="
		3.4,12.7 7.9,12.7 7.9,17.2 	"/>
	
		<line display="inline" fill="none" stroke="#989898" stroke-width="2" stroke-linecap="round" stroke-linejoin="round" stroke-miterlimit="10" x1="18.4" y1="17.1" x2="15.1" y2="13.8"/>
	
		<polyline display="inline" fill="none" stroke="#989898" stroke-width="2" stroke-linecap="round" stroke-linejoin="round" stroke-miterlimit="10" points="
		18.9,12.7 14.4,12.7 14.4,17.2 	"/>
</g>
</svg>
