<?xml version="1.0" encoding="utf-8"?>
<!-- Generator: Adobe Illustrator 18.1.0, SVG Export Plug-In . SVG Version: 6.00 Build 0)  -->
<svg version="1.1" id="Layer_1" xmlns="http://www.w3.org/2000/svg" xmlns:xlink="http://www.w3.org/1999/xlink" x="0px" y="0px"
	 viewBox="0 0 18.9 21.2" enable-background="new 0 0 18.9 21.2" xml:space="preserve">
<line display="none" fill="none" stroke="#989898" stroke-width="2" stroke-linecap="round" stroke-linejoin="round" stroke-miterlimit="10" x1="9.4" y1="-0.9" x2="9.4" y2="22.1"/>
<line display="none" fill="none" stroke="#989898" stroke-width="2" stroke-linecap="round" stroke-linejoin="round" stroke-miterlimit="10" x1="20.9" y1="10.6" x2="-2.1" y2="10.6"/>
<line display="none" fill="none" stroke="#989898" stroke-width="2" stroke-linecap="round" stroke-linejoin="round" stroke-miterlimit="10" x1="20.9" y1="10.6" x2="-2.1" y2="10.6"/>
<line display="none" fill="none" stroke="#989898" stroke-width="2" stroke-linecap="round" stroke-linejoin="round" stroke-miterlimit="10" x1="17.6" y1="2.5" x2="1.3" y2="18.7"/>
<line display="none" fill="none" stroke="#989898" stroke-width="2" stroke-linecap="round" stroke-linejoin="round" stroke-miterlimit="10" x1="17.6" y1="18.7" x2="1.3" y2="2.5"/>
<polyline display="none" fill="none" stroke="#989898" stroke-width="2" stroke-linecap="round" stroke-linejoin="round" stroke-miterlimit="10" points="
	15.4,-1.4 3.4,10.6 15.4,22.6 "/>
<polyline display="none" fill="none" stroke="#989898" stroke-width="2" stroke-linecap="round" stroke-linejoin="round" stroke-miterlimit="10" points="
	3.4,-1.4 15.4,10.6 3.4,22.6 "/>
<polyline display="none" fill="none" stroke="#4E4E4E" stroke-width="2" stroke-linecap="round" stroke-linejoin="round" stroke-miterlimit="10" points="
	3.4,-1.4 15.4,10.6 3.4,22.6 "/>
<polyline display="none" fill="none" stroke="#4E4E4E" stroke-width="2" stroke-linecap="round" stroke-linejoin="round" stroke-miterlimit="10" points="
	15.4,22.6 3.4,10.6 15.4,-1.4 "/>
<polyline display="none" fill="none" stroke="#2EACE3" stroke-width="2" stroke-linecap="round" stroke-linejoin="round" stroke-miterlimit="10" points="
	15.4,-1.4 3.4,10.6 15.4,22.6 "/>
<polyline display="none" fill="none" stroke="#2EACE3" stroke-width="2" stroke-linecap="round" stroke-linejoin="round" stroke-miterlimit="10" points="
	3.4,-1.4 15.4,10.6 3.4,22.6 "/>
<polyline display="none" fill="none" stroke="#E6E6E5" stroke-width="2" stroke-linecap="round" stroke-linejoin="round" stroke-miterlimit="10" points="
	3.4,-1.4 15.4,10.6 3.4,22.6 "/>
<polyline display="none" fill="none" stroke="#E6E6E5" stroke-width="2" stroke-linecap="round" stroke-linejoin="round" stroke-miterlimit="10" points="
	15.4,22.6 3.4,10.6 15.4,-1.4 "/>
<polyline display="none" fill="none" stroke="#2EACE3" stroke-width="2" stroke-linecap="round" stroke-linejoin="round" stroke-miterlimit="10" points="
	2.7,10.6 8.1,16.3 16.2,4.9 "/>
<circle display="none" fill="#2EACE3" cx="9.4" cy="10.6" r="7.1"/>
<g display="none">
	<g display="inline">
		
			<line fill="none" stroke="#2EACE3" stroke-width="2" stroke-linecap="round" stroke-linejoin="round" stroke-miterlimit="10" x1="2.9" y1="3.7" x2="22.9" y2="3.7"/>
		
			<line fill="none" stroke="#2EACE3" stroke-width="2" stroke-linecap="round" stroke-linejoin="round" stroke-miterlimit="10" x1="2.9" y1="10.7" x2="22.9" y2="10.7"/>
		
			<line fill="none" stroke="#2EACE3" stroke-width="2" stroke-linecap="round" stroke-linejoin="round" stroke-miterlimit="10" x1="2.9" y1="17.7" x2="22.9" y2="17.7"/>
	</g>
	<circle display="inline" fill="#2EACE3" cx="-2.3" cy="3.6" r="1.7"/>
	<circle display="inline" fill="#2EACE3" cx="-2.3" cy="10.6" r="1.7"/>
	<circle display="inline" fill="#2EACE3" cx="-2.3" cy="17.6" r="1.7"/>
</g>
<g display="none">
	<g display="inline">
		
			<line fill="none" stroke="#989898" stroke-width="2" stroke-linecap="round" stroke-linejoin="round" stroke-miterlimit="10" x1="2.9" y1="3.7" x2="22.9" y2="3.7"/>
		
			<line fill="none" stroke="#989898" stroke-width="2" stroke-linecap="round" stroke-linejoin="round" stroke-miterlimit="10" x1="2.9" y1="10.7" x2="22.9" y2="10.7"/>
		
			<line fill="none" stroke="#989898" stroke-width="2" stroke-linecap="round" stroke-linejoin="round" stroke-miterlimit="10" x1="2.9" y1="17.7" x2="22.9" y2="17.7"/>
	</g>
	<circle display="inline" fill="#989898" cx="-2.3" cy="3.6" r="1.7"/>
	<circle display="inline" fill="#989898" cx="-2.3" cy="10.6" r="1.7"/>
	<circle display="inline" fill="#989898" cx="-2.3" cy="17.6" r="1.7"/>
</g>
<g display="none">
	
		<line display="inline" fill="none" stroke="#2EACE3" stroke-width="2" stroke-linecap="round" stroke-linejoin="round" stroke-miterlimit="10" x1="-4" y1="3.6" x2="23" y2="3.6"/>
	
		<line display="inline" fill="none" stroke="#2EACE3" stroke-width="2" stroke-linecap="round" stroke-linejoin="round" stroke-miterlimit="10" x1="-4" y1="10.6" x2="23" y2="10.6"/>
	
		<line display="inline" fill="none" stroke="#2EACE3" stroke-width="2" stroke-linecap="round" stroke-linejoin="round" stroke-miterlimit="10" x1="-4" y1="17.6" x2="23" y2="17.6"/>
</g>
<g display="none">
	
		<line display="inline" fill="none" stroke="#989898" stroke-width="2" stroke-linecap="round" stroke-linejoin="round" stroke-miterlimit="10" x1="-4" y1="3.7" x2="23" y2="3.7"/>
	
		<line display="inline" fill="none" stroke="#989898" stroke-width="2" stroke-linecap="round" stroke-linejoin="round" stroke-miterlimit="10" x1="-4" y1="10.7" x2="23" y2="10.7"/>
	
		<line display="inline" fill="none" stroke="#989898" stroke-width="2" stroke-linecap="round" stroke-linejoin="round" stroke-miterlimit="10" x1="-4" y1="17.7" x2="23" y2="17.7"/>
</g>
<g display="none">
	
		<path display="inline" fill="none" stroke="#2EACE3" stroke-width="2" stroke-linecap="round" stroke-linejoin="round" stroke-miterlimit="10" d="
		M16.2,17.6c-3.4,3.5-9.1,3.5-12.6,0C0.1,14.1,0.1,8.5,3.6,5c3.5-3.5,9.1-3.4,12.6,0"/>
	
		<polyline display="inline" fill="none" stroke="#2EACE3" stroke-width="2" stroke-linecap="round" stroke-linejoin="round" stroke-miterlimit="10" points="
		17.9,1 17.9,6.7 12.2,6.7 	"/>
</g>
<g>
	<path fill="none" stroke="#989898" stroke-width="2" stroke-linecap="round" stroke-linejoin="round" stroke-miterlimit="10" d="
		M16.2,17.6c-3.4,3.5-9.1,3.5-12.6,0C0.1,14.1,0.1,8.5,3.6,5c3.5-3.5,9.1-3.4,12.6,0"/>
	
		<polyline fill="none" stroke="#989898" stroke-width="2" stroke-linecap="round" stroke-linejoin="round" stroke-miterlimit="10" points="
		17.9,1 17.9,6.7 12.2,6.7 	"/>
</g>
<g display="none">
	
		<polygon display="inline" fill="none" stroke="#2EACE3" stroke-width="2" stroke-linecap="round" stroke-linejoin="round" stroke-miterlimit="10" points="
		10.3,15.6 7.6,16 7.9,13.3 17.4,3.8 19.7,6.2 	"/>
	
		<path display="inline" fill="none" stroke="#2EACE3" stroke-width="2" stroke-linecap="round" stroke-linejoin="round" stroke-miterlimit="10" d="
		M12.5,4.6V2.5c0-0.8-0.6-1.4-1.4-1.4H0.6c-0.8,0-1.4,0.6-1.4,1.4v16.2c0,0.8,0.6,1.4,1.4,1.4h10.5c0.8,0,1.4-0.6,1.4-1.4v-1.4"/>
	
		<line display="inline" fill="none" stroke="#2EACE3" stroke-width="2" stroke-linecap="round" stroke-linejoin="round" stroke-miterlimit="10" x1="2.8" y1="5.1" x2="8.8" y2="5.1"/>
	
		<line display="inline" fill="none" stroke="#2EACE3" stroke-width="2" stroke-linecap="round" stroke-linejoin="round" stroke-miterlimit="10" x1="2.8" y1="9.1" x2="5.8" y2="9.1"/>
</g>
<g display="none">
	
		<polygon display="inline" fill="none" stroke="#989898" stroke-width="2" stroke-linecap="round" stroke-linejoin="round" stroke-miterlimit="10" points="
		10.3,15.6 7.6,16 7.9,13.3 17.4,3.8 19.7,6.2 	"/>
	
		<path display="inline" fill="none" stroke="#989898" stroke-width="2" stroke-linecap="round" stroke-linejoin="round" stroke-miterlimit="10" d="
		M12.5,4.6V2.5c0-0.8-0.6-1.4-1.4-1.4H0.6c-0.8,0-1.4,0.6-1.4,1.4v16.2c0,0.8,0.6,1.4,1.4,1.4h10.5c0.8,0,1.4-0.6,1.4-1.4v-1.4"/>
	
		<line display="inline" fill="none" stroke="#989898" stroke-width="2" stroke-linecap="round" stroke-linejoin="round" stroke-miterlimit="10" x1="2.8" y1="5.1" x2="8.8" y2="5.1"/>
	
		<line display="inline" fill="none" stroke="#989898" stroke-width="2" stroke-linecap="round" stroke-linejoin="round" stroke-miterlimit="10" x1="2.8" y1="9.1" x2="5.8" y2="9.1"/>
</g>
<g display="none">
	
		<path display="inline" fill="none" stroke="#2EACE3" stroke-width="2" stroke-linecap="round" stroke-linejoin="round" stroke-miterlimit="10" d="
		M0,3.3v9.4c0,0.9,0.8,1.7,1.7,1.7h7.6l4.4,5.1v-5.1h3.4c0.9,0,1.7-0.8,1.7-1.7V3.3c0-0.9-0.8-1.7-1.7-1.7H1.7C0.8,1.6,0,2.4,0,3.3z
		"/>
	
		<line display="inline" fill="none" stroke="#2EACE3" stroke-width="2" stroke-linecap="round" stroke-linejoin="round" stroke-miterlimit="10" x1="4.5" y1="6.1" x2="14.5" y2="6.1"/>
	
		<line display="inline" fill="none" stroke="#2EACE3" stroke-width="2" stroke-linecap="round" stroke-linejoin="round" stroke-miterlimit="10" x1="4.5" y1="10.1" x2="14.5" y2="10.1"/>
</g>
<g display="none">
	
		<path display="inline" fill="none" stroke="#989898" stroke-width="2" stroke-linecap="round" stroke-linejoin="round" stroke-miterlimit="10" d="
		M0,3.3v9.4c0,0.9,0.8,1.7,1.7,1.7h7.6l4.4,5.1v-5.1h3.4c0.9,0,1.7-0.8,1.7-1.7V3.3c0-0.9-0.8-1.7-1.7-1.7H1.7C0.8,1.6,0,2.4,0,3.3z
		"/>
	
		<line display="inline" fill="none" stroke="#989898" stroke-width="2" stroke-linecap="round" stroke-linejoin="round" stroke-miterlimit="10" x1="4.5" y1="6.1" x2="14.5" y2="6.1"/>
	
		<line display="inline" fill="none" stroke="#989898" stroke-width="2" stroke-linecap="round" stroke-linejoin="round" stroke-miterlimit="10" x1="4.5" y1="10.1" x2="14.5" y2="10.1"/>
</g>
<g display="none">
	
		<circle display="inline" fill="none" stroke="#2EACE3" stroke-width="2" stroke-linecap="round" stroke-linejoin="round" stroke-miterlimit="10" cx="7.9" cy="9.6" r="8.4"/>
	
		<line display="inline" fill="none" stroke="#2EACE3" stroke-width="2" stroke-linecap="round" stroke-linejoin="round" stroke-miterlimit="10" x1="14.6" y1="15.2" x2="19.4" y2="20"/>
</g>
<g display="none">
	
		<circle display="inline" fill="none" stroke="#989898" stroke-width="2" stroke-linecap="round" stroke-linejoin="round" stroke-miterlimit="10" cx="7.9" cy="9.6" r="8.4"/>
	
		<line display="inline" fill="none" stroke="#989898" stroke-width="2" stroke-linecap="round" stroke-linejoin="round" stroke-miterlimit="10" x1="14.6" y1="15.2" x2="19.4" y2="20"/>
</g>
<g display="none">
	<g display="inline">
		<path fill="none" stroke="#2EACE3" stroke-width="2" stroke-linecap="round" stroke-linejoin="round" stroke-miterlimit="10" d="
			M11.8,2.7V0.6c0-0.8-0.6-1.4-1.4-1.4H-0.1c-0.8,0-1.4,0.6-1.4,1.4v16.2c0,0.8,0.6,1.4,1.4,1.4h10.5c0.8,0,1.4-0.6,1.4-1.4v-1.4
			V2.7z"/>
		
			<line fill="none" stroke="#2EACE3" stroke-width="2" stroke-linecap="round" stroke-linejoin="round" stroke-miterlimit="10" x1="2.1" y1="3.2" x2="8.1" y2="3.2"/>
		
			<line fill="none" stroke="#2EACE3" stroke-width="2" stroke-linecap="round" stroke-linejoin="round" stroke-miterlimit="10" x1="2.1" y1="7.2" x2="8.1" y2="7.2"/>
		
			<line fill="none" stroke="#2EACE3" stroke-width="2" stroke-linecap="round" stroke-linejoin="round" stroke-miterlimit="10" x1="2.1" y1="10.8" x2="8.1" y2="10.8"/>
		<path fill="none" stroke="#2EACE3" stroke-width="2" stroke-linejoin="round" stroke-miterlimit="10" d="M7.1,20.6
			c0,0.8,0.6,1.4,1.4,1.4H19c0.8,0,1.4-0.6,1.4-1.4v-1.4V6.5V4.4C20.4,3.7,19.8,3,19,3h-4.6"/>
		
			<line fill="none" stroke="#2EACE3" stroke-width="2" stroke-linecap="round" stroke-linejoin="round" stroke-miterlimit="10" x1="15.3" y1="7" x2="16.7" y2="7"/>
		
			<line fill="none" stroke="#2EACE3" stroke-width="2" stroke-linecap="round" stroke-linejoin="round" stroke-miterlimit="10" x1="15.3" y1="11" x2="16.7" y2="11"/>
		
			<line fill="none" stroke="#2EACE3" stroke-width="2" stroke-linecap="round" stroke-linejoin="round" stroke-miterlimit="10" x1="15.3" y1="14.9" x2="16.7" y2="14.9"/>
	</g>
</g>
<g display="none">
	
		<path display="inline" fill="none" stroke="#989898" stroke-width="2" stroke-linecap="round" stroke-linejoin="round" stroke-miterlimit="10" d="
		M11.8,2.7V0.6c0-0.8-0.6-1.4-1.4-1.4H-0.1c-0.8,0-1.4,0.6-1.4,1.4v16.2c0,0.8,0.6,1.4,1.4,1.4h10.5c0.8,0,1.4-0.6,1.4-1.4v-1.4V2.7
		z"/>
	
		<line display="inline" fill="none" stroke="#989898" stroke-width="2" stroke-linecap="round" stroke-linejoin="round" stroke-miterlimit="10" x1="2.1" y1="3.2" x2="8.1" y2="3.2"/>
	
		<line display="inline" fill="none" stroke="#989898" stroke-width="2" stroke-linecap="round" stroke-linejoin="round" stroke-miterlimit="10" x1="2.1" y1="7.2" x2="8.1" y2="7.2"/>
	
		<line display="inline" fill="none" stroke="#989898" stroke-width="2" stroke-linecap="round" stroke-linejoin="round" stroke-miterlimit="10" x1="2.1" y1="10.8" x2="8.1" y2="10.8"/>
	<path display="inline" fill="none" stroke="#989898" stroke-width="2" stroke-linejoin="round" stroke-miterlimit="10" d="
		M7.1,20.6c0,0.8,0.6,1.4,1.4,1.4H19c0.8,0,1.4-0.6,1.4-1.4v-1.4V6.5V4.4C20.4,3.7,19.8,3,19,3h-4.6"/>
	
		<line display="inline" fill="none" stroke="#989898" stroke-width="2" stroke-linecap="round" stroke-linejoin="round" stroke-miterlimit="10" x1="15.3" y1="7" x2="16.7" y2="7"/>
	
		<line display="inline" fill="none" stroke="#989898" stroke-width="2" stroke-linecap="round" stroke-linejoin="round" stroke-miterlimit="10" x1="15.3" y1="11" x2="16.7" y2="11"/>
	
		<line display="inline" fill="none" stroke="#989898" stroke-width="2" stroke-linecap="round" stroke-linejoin="round" stroke-miterlimit="10" x1="15.3" y1="14.9" x2="16.7" y2="14.9"/>
</g>
<g display="none">
	<g display="inline">
		<path fill="none" stroke="#2EACE3" stroke-width="2" stroke-linecap="round" stroke-linejoin="round" stroke-miterlimit="10" d="
			M13.8,17c-3.5,3.5-9.2,3.5-12.7,0s-3.5-9.2,0-12.7s9.2-3.5,12.7,0"/>
	</g>
	
		<line display="inline" fill="none" stroke="#2EACE3" stroke-width="2" stroke-linecap="round" stroke-linejoin="round" stroke-miterlimit="10" x1="9.9" y1="10.6" x2="19.9" y2="10.6"/>
	
		<polyline display="inline" fill="none" stroke="#2EACE3" stroke-width="2" stroke-linecap="round" stroke-linejoin="round" stroke-miterlimit="10" points="
		16.8,6.6 20.4,10.3 16.8,13.9 	"/>
</g>
<g display="none">
	<g display="inline">
		<path fill="none" stroke="#989898" stroke-width="2" stroke-linecap="round" stroke-linejoin="round" stroke-miterlimit="10" d="
			M13.8,17c-3.5,3.5-9.2,3.5-12.7,0s-3.5-9.2,0-12.7s9.2-3.5,12.7,0"/>
	</g>
	
		<line display="inline" fill="none" stroke="#989898" stroke-width="2" stroke-linecap="round" stroke-linejoin="round" stroke-miterlimit="10" x1="9.9" y1="10.6" x2="19.9" y2="10.6"/>
	
		<polyline display="inline" fill="none" stroke="#989898" stroke-width="2" stroke-linecap="round" stroke-linejoin="round" stroke-miterlimit="10" points="
		16.8,6.6 20.4,10.3 16.8,13.9 	"/>
</g>
<g display="none">
	
		<path display="inline" fill="none" stroke="#2EACE3" stroke-width="2" stroke-linecap="round" stroke-linejoin="round" stroke-miterlimit="10" d="
		M18.8,21.6H0.1c-1.5,0-2.7-1.2-2.7-2.7V2.3c0-1.5,1.2-2.7,2.7-2.7h18.6c1.5,0,2.7,1.2,2.7,2.7v16.6C21.5,20.4,20.3,21.6,18.8,21.6z
		"/>
	
		<line display="inline" fill="none" stroke="#2EACE3" stroke-width="2" stroke-linecap="round" stroke-linejoin="round" stroke-miterlimit="10" x1="13" y1="8.2" x2="16.3" y2="4.9"/>
	
		<polyline display="inline" fill="none" stroke="#2EACE3" stroke-width="2" stroke-linecap="round" stroke-linejoin="round" stroke-miterlimit="10" points="
		12.5,3.8 17.1,3.8 17.1,8.4 	"/>
	
		<line display="inline" fill="none" stroke="#2EACE3" stroke-width="2" stroke-linecap="round" stroke-linejoin="round" stroke-miterlimit="10" x1="5.6" y1="8.2" x2="2.3" y2="4.9"/>
	
		<polyline display="inline" fill="none" stroke="#2EACE3" stroke-width="2" stroke-linecap="round" stroke-linejoin="round" stroke-miterlimit="10" points="
		6.1,3.8 1.5,3.8 1.5,8.4 	"/>
	
		<line display="inline" fill="none" stroke="#2EACE3" stroke-width="2" stroke-linecap="round" stroke-linejoin="round" stroke-miterlimit="10" x1="5.6" y1="12.9" x2="2.3" y2="16.2"/>
	
		<polyline display="inline" fill="none" stroke="#2EACE3" stroke-width="2" stroke-linecap="round" stroke-linejoin="round" stroke-miterlimit="10" points="
		6.1,17.4 1.5,17.4 1.5,12.8 	"/>
	
		<line display="inline" fill="none" stroke="#2EACE3" stroke-width="2" stroke-linecap="round" stroke-linejoin="round" stroke-miterlimit="10" x1="13" y1="12.9" x2="16.3" y2="16.2"/>
	
		<polyline display="inline" fill="none" stroke="#2EACE3" stroke-width="2" stroke-linecap="round" stroke-linejoin="round" stroke-miterlimit="10" points="
		12.5,17.4 17.1,17.4 17.1,12.8 	"/>
</g>
<g display="none">
	
		<path display="inline" fill="none" stroke="#989898" stroke-width="2" stroke-linecap="round" stroke-linejoin="round" stroke-miterlimit="10" d="
		M18.8,21.6H0.1c-1.5,0-2.7-1.2-2.7-2.7V2.3c0-1.5,1.2-2.7,2.7-2.7h18.6c1.5,0,2.7,1.2,2.7,2.7v16.6C21.5,20.4,20.3,21.6,18.8,21.6z
		"/>
	
		<line display="inline" fill="none" stroke="#989898" stroke-width="2" stroke-linecap="round" stroke-linejoin="round" stroke-miterlimit="10" x1="16.6" y1="3.9" x2="13.3" y2="7.2"/>
	
		<polyline display="inline" fill="none" stroke="#989898" stroke-width="2" stroke-linecap="round" stroke-linejoin="round" stroke-miterlimit="10" points="
		17.1,8.4 12.5,8.4 12.5,3.8 	"/>
	
		<line display="inline" fill="none" stroke="#989898" stroke-width="2" stroke-linecap="round" stroke-linejoin="round" stroke-miterlimit="10" x1="2" y1="3.9" x2="5.3" y2="7.2"/>
	
		<polyline display="inline" fill="none" stroke="#989898" stroke-width="2" stroke-linecap="round" stroke-linejoin="round" stroke-miterlimit="10" points="
		1.5,8.4 6.1,8.4 6.1,3.8 	"/>
	
		<line display="inline" fill="none" stroke="#989898" stroke-width="2" stroke-linecap="round" stroke-linejoin="round" stroke-miterlimit="10" x1="2" y1="17.2" x2="5.3" y2="13.9"/>
	
		<polyline display="inline" fill="none" stroke="#989898" stroke-width="2" stroke-linecap="round" stroke-linejoin="round" stroke-miterlimit="10" points="
		1.5,12.8 6.1,12.8 6.1,17.4 	"/>
	
		<line display="inline" fill="none" stroke="#989898" stroke-width="2" stroke-linecap="round" stroke-linejoin="round" stroke-miterlimit="10" x1="16.6" y1="17.2" x2="13.3" y2="13.9"/>
	
		<polyline display="inline" fill="none" stroke="#989898" stroke-width="2" stroke-linecap="round" stroke-linejoin="round" stroke-miterlimit="10" points="
		17.1,12.8 12.5,12.8 12.5,17.4 	"/>
</g>
</svg>
