<?xml version="1.0" encoding="utf-8"?>
<!-- Generator: Adobe Illustrator 18.1.0, SVG Export Plug-In . SVG Version: 6.00 Build 0)  -->
<svg version="1.1" id="Layer_1" xmlns="http://www.w3.org/2000/svg" xmlns:xlink="http://www.w3.org/1999/xlink" x="0px" y="0px"
	 viewBox="0 0 14 26" enable-background="new 0 0 14 26" xml:space="preserve">
<line display="none" fill="none" stroke="#989898" stroke-width="2" stroke-linecap="round" stroke-linejoin="round" stroke-miterlimit="10" x1="7" y1="1.5" x2="7" y2="24.5"/>
<line display="none" fill="none" stroke="#989898" stroke-width="2" stroke-linecap="round" stroke-linejoin="round" stroke-miterlimit="10" x1="18.5" y1="13" x2="-4.5" y2="13"/>
<line display="none" fill="none" stroke="#989898" stroke-width="2" stroke-linecap="round" stroke-linejoin="round" stroke-miterlimit="10" x1="18.5" y1="13" x2="-4.5" y2="13"/>
<line display="none" fill="none" stroke="#989898" stroke-width="2" stroke-linecap="round" stroke-linejoin="round" stroke-miterlimit="10" x1="15.1" y1="4.9" x2="-1.1" y2="21.2"/>
<line display="none" fill="none" stroke="#989898" stroke-width="2" stroke-linecap="round" stroke-linejoin="round" stroke-miterlimit="10" x1="15.1" y1="21.2" x2="-1.1" y2="4.9"/>
<polyline display="none" fill="none" stroke="#989898" stroke-width="2" stroke-linecap="round" stroke-linejoin="round" stroke-miterlimit="10" points="
	13,1 1,13 13,25 "/>
<polyline display="none" fill="none" stroke="#989898" stroke-width="2" stroke-linecap="round" stroke-linejoin="round" stroke-miterlimit="10" points="
	1,1 13,13 1,25 "/>
<polyline display="none" fill="none" stroke="#4E4E4E" stroke-width="2" stroke-linecap="round" stroke-linejoin="round" stroke-miterlimit="10" points="
	1,1 13,13 1,25 "/>
<polyline display="none" fill="none" stroke="#4E4E4E" stroke-width="2" stroke-linecap="round" stroke-linejoin="round" stroke-miterlimit="10" points="
	13,25 1,13 13,1 "/>
<polyline display="none" fill="none" stroke="#2EACE3" stroke-width="2" stroke-linecap="round" stroke-linejoin="round" stroke-miterlimit="10" points="
	13,1 1,13 13,25 "/>
<polyline display="none" fill="none" stroke="#2EACE3" stroke-width="2" stroke-linecap="round" stroke-linejoin="round" stroke-miterlimit="10" points="
	1,1 13,13 1,25 "/>
<polyline fill="none" stroke="#E6E6E5" stroke-width="2" stroke-linecap="round" stroke-linejoin="round" stroke-miterlimit="10" points="
	1,1 13,13 1,25 "/>
<polyline display="none" fill="none" stroke="#E6E6E5" stroke-width="2" stroke-linecap="round" stroke-linejoin="round" stroke-miterlimit="10" points="
	13,25 1,13 13,1 "/>
<polyline display="none" fill="none" stroke="#2EACE3" stroke-width="2" stroke-linecap="round" stroke-linejoin="round" stroke-miterlimit="10" points="
	0.3,13 5.7,18.7 13.7,7.3 "/>
<circle display="none" fill="#2EACE3" cx="391.3" cy="13" r="7.1"/>
</svg>
