<?xml version="1.0" standalone="no"?>
<!DOCTYPE svg PUBLIC "-//W3C//DTD SVG 1.1//EN" "http://www.w3.org/Graphics/SVG/1.1/DTD/svg11.dtd" >
<svg xmlns="http://www.w3.org/2000/svg" xmlns:xlink="http://www.w3.org/1999/xlink" version="1.1">
<metadata>
Created by FontForge 20201107 at Sat Apr 20 02:34:54 2024
 By www-data
Copyright 2023 MCKL Inc.
</metadata>
<defs>
<font id="Trust2A-Bold" horiz-adv-x="500" >
  <font-face 
    font-family="Trust 2A"
    font-weight="700"
    font-stretch="normal"
    units-per-em="1000"
    panose-1="2 1 8 3 2 1 1 6 1 1"
    ascent="800"
    descent="-200"
    x-height="503"
    cap-height="700"
    bbox="-83 -302 1078 972"
    underline-thickness="50"
    underline-position="-125"
    unicode-range="U+000D-FB02"
  />
<missing-glyph horiz-adv-x="474" 
d="M40 -200h394v900h-394v-900z" />
    <glyph glyph-name=".notdef" horiz-adv-x="474" 
d="M40 -200h394v900h-394v-900z" />
    <glyph glyph-name=".null" horiz-adv-x="0" 
 />
    <glyph glyph-name="uni000D" unicode="&#xd;" horiz-adv-x="202" 
 />
    <glyph glyph-name="NULL" horiz-adv-x="0" 
 />
    <glyph glyph-name="NULL" horiz-adv-x="0" 
 />
    <glyph glyph-name="space" unicode=" " horiz-adv-x="201" 
 />
    <glyph glyph-name="exclam" unicode="!" horiz-adv-x="248" 
d="M88 226h72l50 474h-172zM124 -8q35 0 59.5 24.5t24.5 58.5t-24.5 58.5t-59.5 24.5q-34 0 -59 -24.5t-25 -58.5t25 -58.5t59 -24.5z" />
    <glyph glyph-name="quotedbl" unicode="&#x22;" horiz-adv-x="425" 
d="M74 413h73l41 287h-154zM278 413h73l41 287h-154z" />
    <glyph glyph-name="numbersign" unicode="#" horiz-adv-x="698" 
d="M81 0h103l48 180h145l-47 -180h103l48 180h111l23 89h-111l43 162h111l24 89h-112l48 180h-104l-47 -180h-146l48 180h-104l-47 -180h-111l-23 -89h110l-42 -162h-112l-24 -89h112zM255 269l43 162h145l-42 -162h-146z" />
    <glyph glyph-name="dollar" unicode="$" horiz-adv-x="542" 
d="M199 -118l66 10l10 106q108 0 175.5 55t67.5 147q0 19 -3 36t-9 31.5t-14 27t-18.5 23t-22 20t-25 17.5t-27.5 15t-28.5 13l-29 12t-29.5 11l17 190q37 -10 74.5 -30t72.5 -48l-14 130q-28 16 -59.5 28t-64.5 19l10 113l-66 -8l-9 -98h-4q-107 0 -169.5 -54.5
t-62.5 -136.5q0 -19 3 -35.5t8.5 -31t13.5 -27t18 -23t21.5 -20t24 -17.5t26.5 -15t28 -13t28.5 -12t28.5 -11l-18 -206q-47 9 -94.5 33t-91.5 57l19 -134q31 -19 72 -33t86 -20zM161 522q0 34 27.5 57.5t75.5 24.5l-15 -174q-38 16 -63 37t-25 55zM392 185q0 -39 -31 -63.5
t-78 -27.5l17 188q40 -17 66 -39t26 -58z" />
    <glyph glyph-name="percent" unicode="%" horiz-adv-x="706" 
d="M196 0l404 700h-88l-404 -700h88zM168 365q61 0 105.5 47.5t44.5 124.5q0 76 -44 123.5t-106 47.5q-61 0 -105.5 -47.5t-44.5 -123.5q0 -77 44.5 -124.5t105.5 -47.5zM168 422q-21 0 -35.5 28t-14.5 85t14.5 85t35.5 28q22 0 36 -28t14 -85t-14 -85t-36 -28zM538 -7
q61 0 105.5 47.5t44.5 124.5q0 76 -44 123.5t-106 47.5q-61 0 -105.5 -47.5t-44.5 -123.5q0 -77 44.5 -124.5t105.5 -47.5zM538 50q-21 0 -35.5 28t-14.5 85t14.5 85t35.5 28q22 0 36 -28t14 -85t-14 -85t-36 -28z" />
    <glyph glyph-name="ampersand" unicode="&#x26;" horiz-adv-x="687" 
d="M250 -11q57 0 107.5 16t93.5 44q34 -31 71 -43.5t74 -12.5q20 0 40 3.5t37 13.5l13 100q-10 -4 -22.5 -6t-25.5 -2q-20 0 -42.5 9.5t-46.5 29.5q43 55 70.5 123t37.5 139h-131q1 -51 -13 -100t-38 -89q-37 38 -72 77.5t-66 80.5q66 30 110 77.5t44 110.5q0 70 -51.5 111
t-127.5 41q-23 0 -44 -3.5t-39.5 -10.5t-34 -17t-28 -22.5t-22.5 -27t-16.5 -31t-10 -34t-3.5 -36.5q0 -43 14.5 -80t43.5 -80q2 -4 5 -7.5t5 -7.5q-15 -6 -30 -13.5t-29 -16t-26.5 -18.5t-23.5 -22t-20 -25t-15.5 -28t-10 -31.5t-3.5 -34.5q0 -84 63 -130.5t163 -46.5z
M286 444q-22 33 -32 56t-10 48q0 31 17.5 52t48.5 21q30 0 48 -20.5t18 -51.5q0 -39 -21 -70t-55 -56q-3 5 -6.5 10.5t-7.5 10.5zM158 188q0 40 17.5 67t44.5 48q37 -48 77.5 -94.5t84.5 -91.5q-23 -15 -49 -23t-54 -8q-61 0 -91 30t-30 72z" />
    <glyph glyph-name="quotesingle" unicode="'" horiz-adv-x="222" 
d="M74 413h73l41 287h-154z" />
    <glyph glyph-name="parenleft" unicode="(" horiz-adv-x="395" 
d="M379 -171l9 13q-24 20 -45.5 43t-41 50.5t-36 58.5t-29.5 66t-22.5 74t-14.5 81.5t-5 89.5t5 89.5t14.5 81.5t22.5 74t29.5 66t36 58.5t41 51t45.5 42.5l-9 13q-32 -12 -62 -28t-58 -35.5t-53 -42t-46.5 -48.5t-40 -54.5t-32.5 -59.5t-24 -64.5t-15 -69.5t-5 -74t5 -74
t15 -69.5t24 -64.5t32.5 -59.5t40 -54.5t46.5 -48.5t53 -42t58 -35.5t62 -28z" />
    <glyph glyph-name="parenright" unicode=")" horiz-adv-x="395" 
d="M16 781l-9 -13q24 -19 45.5 -42.5t41 -51t36 -58.5t29.5 -66t22.5 -74t14.5 -81.5t5 -89.5q0 -46 -5 -89t-14.5 -82t-22.5 -74t-29.5 -66t-36 -58.5t-41 -50.5t-45.5 -43l9 -13q32 12 62 28t58 35.5t53 42t46.5 48.5t40 54.5t32.5 59.5t24 64.5t15 69.5t5 74t-5 74
t-15 69.5t-24 64.5t-32.5 59.5t-40 54.5t-46.5 48.5t-53 42t-58 35.5t-62 28z" />
    <glyph glyph-name="asterisk" unicode="*" horiz-adv-x="452" 
d="M165 311q7 25 22 67t39 96q24 -53 39 -95.5t22 -67.5l104 76q-22 14 -57.5 41t-83.5 70q61 5 107.5 6t72.5 0l-40 122q-19 -15 -57.5 -42t-90.5 -58q15 67 27 108t21 66h-128q9 -25 21 -66t27 -108q-52 31 -90.5 58t-57.5 42l-40 -122q26 1 71 0.5t109 -6.5
q-46 -42 -82.5 -69.5t-58.5 -41.5z" />
    <glyph glyph-name="plus" unicode="+" horiz-adv-x="612" 
d="M269 114h74v200h195v72h-195v200h-74v-200h-195v-72h195v-200z" />
    <glyph glyph-name="comma" unicode="," horiz-adv-x="233" 
d="M38 -163q69 35 114 95.5t45 123.5q0 49 -25 76t-60 27q-34 0 -55.5 -22.5t-21.5 -53.5q0 -10 1.5 -18t4.5 -15t6.5 -13t8 -11.5t9 -10.5l9 -10t8 -10.5t6.5 -11.5t4.5 -13.5t1.5 -15.5q0 -26 -19.5 -51.5t-49.5 -48.5z" />
    <glyph glyph-name="hyphen" unicode="-" horiz-adv-x="375" 
d="M25 299h312l12 95h-311z" />
    <glyph glyph-name="period" unicode="." horiz-adv-x="233" 
d="M117 -8q34 0 58.5 24.5t24.5 59.5q0 34 -24.5 58.5t-58.5 24.5q-35 0 -59.5 -24.5t-24.5 -58.5q0 -35 24.5 -59.5t59.5 -24.5z" />
    <glyph glyph-name="slash" unicode="/" horiz-adv-x="553" 
d="M-83 -200h123l531 966h-123z" />
    <glyph glyph-name="zero" unicode="0" horiz-adv-x="654" 
d="M326 -13q27 0 52.5 5t49.5 15.5t45.5 25t40 34t34.5 42.5t28.5 50t21.5 57.5t13.5 64t4.5 69.5t-4.5 69.5t-13.5 64t-21.5 57.5t-28 50t-34.5 42.5t-40.5 34t-45.5 25t-49.5 15.5t-52.5 5t-52 -5t-49 -15.5t-45.5 -25t-40.5 -34t-35 -42.5t-28.5 -50t-21.5 -57.5
t-13.5 -64t-4.5 -69.5t4.5 -69.5t13.5 -64t21.5 -57.5t28.5 -50t35 -42.5t40.5 -34t45.5 -25t49 -15.5t52 -5zM326 85q-63 0 -103.5 69.5t-40.5 194.5t40.5 194t103.5 69q64 0 104.5 -69t40.5 -194t-40.5 -194.5t-104.5 -69.5z" />
    <glyph glyph-name="one" unicode="1" horiz-adv-x="275" 
d="M44 0h188q-3 8 -6 18t-5.5 22.5t-4 26t-3 28t-2.5 29t-1.5 29t-1 28.5t-0.5 27v506l-175 -68q20 -27 27.5 -73t7.5 -97v-268q0 -13 -0.5 -27t-1 -28.5t-1.5 -29t-2.5 -29t-3 -28t-4 -26t-5.5 -22.5t-6 -18z" />
    <glyph glyph-name="two" unicode="2" 
d="M-2 0h464l20 140q-10 -4 -21.5 -7t-24 -6t-26.5 -5.5t-28 -4.5t-28.5 -3.5t-28 -3t-27 -2t-25 -1t-21.5 -0.5h-66l90 97q24 25 44 47.5t37.5 42.5t31.5 37.5t25.5 34t20 31.5t15 29.5t10.5 28.5t6 28.5t2 29.5q0 86 -63.5 141.5t-172.5 55.5q-56 0 -110 -16.5t-94 -43.5
l-16 -116q46 31 92.5 51.5t95.5 20.5q52 0 86 -30t34 -82q0 -10 -1 -20.5t-3.5 -20.5t-7 -21t-10 -23t-13.5 -25t-18 -28.5t-22.5 -32.5t-27.5 -37.5t-33 -43.5z" />
    <glyph glyph-name="three" unicode="3" horiz-adv-x="524" 
d="M232 -11q119 0 191.5 56t72.5 147q0 66 -42 111.5t-119 61.5q66 19 102.5 64t36.5 106q0 77 -63 127t-171 50q-56 0 -105.5 -14.5t-86.5 -33.5l-18 -117q43 25 90 43t96 18q54 0 85 -24.5t31 -67.5q0 -49 -37.5 -79t-98.5 -30h-51l-27 -99h72q78 0 119 -29.5t41 -78.5
t-35.5 -79t-96.5 -30q-49 0 -100 15.5t-96 40.5l7 -112q40 -19 91.5 -32.5t111.5 -13.5z" />
    <glyph glyph-name="four" unicode="4" horiz-adv-x="622" 
d="M-1 156h356q-1 -43 -6.5 -88.5t-15.5 -67.5h183q-10 22 -15 67.5t-6 88.5h97l18 132q-22 -7 -53.5 -11.5t-62.5 -6.5v178l-138 -34v-146h-191l128 226q6 9 12 20t12.5 23t13.5 24.5l14 25t14 25.5t14 25t13.5 23.5t12.5 21.5t11 18h-156q-10 -28 -30 -72.5t-36 -76.5z
" />
    <glyph glyph-name="five" unicode="5" horiz-adv-x="527" 
d="M232 -12q26 0 50 3.5t46.5 10.5t42.5 16.5t37.5 22.5t32.5 28t26.5 33t20 38t12.5 42t4 46q0 90 -62 147t-158 57q-32 0 -62 -6t-58 -19l22 183h272l21 128q-8 -2 -18 -4t-21 -3.5t-23.5 -3t-25 -2.5t-25.5 -2t-25.5 -1.5t-24 -1t-22.5 -0.5h-213l-45 -368l87 -38
q21 16 51.5 27t61.5 11q54 0 89 -30t35 -84q0 -55 -39 -91.5t-102 -36.5q-46 0 -93.5 14t-89.5 38l8 -111q37 -20 87 -31.5t101 -11.5z" />
    <glyph glyph-name="six" unicode="6" horiz-adv-x="594" 
d="M322 -13q26 0 50.5 5t46 14t41 22t35 29t28 35.5t21.5 42t13.5 47t4.5 50.5q0 24 -4 45.5t-11.5 41t-18.5 36.5t-25 31t-30 25t-35 18.5t-39.5 11.5t-42.5 4q-55 0 -103.5 -33.5t-74.5 -90.5v3q0 31 2.5 59.5t8 54t13.5 48t19.5 41t26 33.5t32 25t39 15.5t46.5 5.5
q38 0 78.5 -13t74.5 -37l-12 122q-33 16 -74 24.5t-81 8.5q-33 0 -63 -6t-56.5 -17t-50 -27.5t-43.5 -37t-36.5 -45.5t-29 -53t-21 -59.5t-13 -66t-4.5 -70.5q0 -38 5 -73.5t15 -66.5t25 -58t33.5 -49.5t41.5 -40t49.5 -29.5t56 -18.5t62.5 -6.5zM310 350q50 0 82 -32.5
t32 -95.5q0 -60 -30 -98t-78 -38q-57 0 -91.5 45.5t-43.5 130.5q23 40 57.5 64t71.5 24z" />
    <glyph glyph-name="seven" unicode="7" horiz-adv-x="518" 
d="M122 0h164q4 146 45 289.5t113 271.5l80 139h-490l-22 -135q43 17 98 21t104 4h162l-36 -52q-79 -113 -139.5 -248.5t-78.5 -289.5z" />
    <glyph glyph-name="eight" unicode="8" horiz-adv-x="568" 
d="M274 -13q31 0 58.5 4t52 11.5t45 18.5t38 25t30.5 30.5t22.5 35.5t14 39.5t4.5 42.5q0 18 -3.5 34.5t-9.5 30.5t-15 27t-20 24t-24 20.5t-27 18.5t-29 17t-30 15q57 22 93 64.5t36 93.5q0 72 -61.5 123t-164.5 51q-26 0 -49 -3.5t-43 -10t-37.5 -15.5t-32 -20t-26 -24
t-20.5 -27.5t-14.5 -30t-8.5 -31t-3 -31.5q0 -69 37 -111.5t88 -70.5q-69 -23 -107 -65.5t-38 -102.5q0 -78 66.5 -130.5t177.5 -52.5zM187 532q0 39 27 62.5t70 23.5q45 0 74 -26t29 -68q0 -32 -17 -61.5t-52 -51.5q-53 24 -92 51t-39 70zM158 184q0 35 19.5 66.5
t61.5 56.5q15 -7 30 -13.5t29.5 -13.5t27 -14t23.5 -14.5t20 -16t15.5 -18t10 -20.5t3.5 -23q0 -40 -33.5 -65.5t-84.5 -25.5q-54 0 -88 28t-34 73z" />
    <glyph glyph-name="nine" unicode="9" horiz-adv-x="594" 
d="M272 711q-26 0 -50.5 -5t-46 -14t-41 -22t-35 -29t-28 -35.5t-21.5 -42t-13.5 -47t-4.5 -50.5q0 -24 4 -45.5t11.5 -41t18.5 -36.5t25 -31t30 -25t35 -18.5t39.5 -11.5t42.5 -4q55 0 103.5 33.5t74.5 90.5v-3q0 -31 -2.5 -59.5t-8 -54t-13.5 -48t-19.5 -41t-26 -33.5
t-32 -25t-39 -15.5t-46.5 -5.5q-38 0 -78.5 13t-74.5 37l12 -122q33 -16 74 -24.5t81 -8.5q33 0 63 6t56.5 17t50 27.5t43.5 37t36.5 45.5t29 53t21 59.5t13 66t4.5 70.5q0 38 -5 73.5t-15 66.5t-25 58t-33.5 49.5t-41.5 40t-49.5 29.5t-56 18.5t-62.5 6.5zM284 348
q-50 0 -82 32.5t-32 95.5q0 60 30 98t78 38q57 0 91.5 -45.5t43.5 -130.5q-23 -40 -57.5 -64t-71.5 -24z" />
    <glyph glyph-name="colon" unicode=":" horiz-adv-x="233" 
d="M117 317q34 0 58.5 24.5t24.5 58.5t-24.5 58.5t-58.5 24.5q-35 0 -59.5 -24.5t-24.5 -58.5t24.5 -58.5t59.5 -24.5zM117 -8q34 0 58.5 24.5t24.5 58.5t-24.5 58.5t-58.5 24.5q-35 0 -59.5 -24.5t-24.5 -58.5t24.5 -58.5t59.5 -24.5z" />
    <glyph glyph-name="semicolon" unicode=";" horiz-adv-x="233" 
d="M117 317q34 0 58.5 24.5t24.5 58.5t-24.5 58.5t-58.5 24.5q-35 0 -59.5 -24.5t-24.5 -58.5t24.5 -58.5t59.5 -24.5zM38 -163q69 35 114 95.5t45 123.5q0 49 -25 76t-60 27q-34 0 -55.5 -23t-21.5 -53q0 -10 1.5 -18t4.5 -15t6.5 -13t8 -11.5t9 -10.5t8.5 -10t8 -10.5
t7 -11.5t4.5 -13.5t1.5 -15.5q0 -26 -19.5 -51.5t-49.5 -48.5z" />
    <glyph glyph-name="less" unicode="&#x3c;" horiz-adv-x="512" 
d="M454 105v81l-291 165l291 165v79l-428 -245z" />
    <glyph glyph-name="equal" unicode="=" horiz-adv-x="612" 
d="M74 401h464v72h-464v-72zM74 227h464v72h-464v-72z" />
    <glyph glyph-name="greater" unicode="&#x3e;" horiz-adv-x="512" 
d="M58 595v-81l291 -165l-291 -165v-79l428 245z" />
    <glyph glyph-name="question" unicode="?" horiz-adv-x="466" 
d="M238 209l4 8q-9 7 -14.5 16t-5.5 21q0 9 3.5 17.5t9 16.5t14 15.5t18.5 15t21 15t23 15.5t24 16.5t24 17.5t23 19.5t21 21.5t18.5 24t14 27t9 30.5t3.5 34.5q0 79 -59.5 125.5t-161.5 46.5q-51 0 -102.5 -13t-86.5 -33l-20 -122q43 27 92 45t94 18t70.5 -22.5t25.5 -59.5
q0 -11 -2.5 -21.5t-7 -20t-10.5 -18t-13.5 -17t-15.5 -16.5t-16.5 -16l-17 -16t-16.5 -16t-15.5 -16.5t-13.5 -17.5t-10.5 -18.5t-7 -20t-2.5 -21.5q0 -33 23.5 -55t62.5 -26zM211 -8q34 0 58.5 24.5t24.5 58.5t-24.5 58.5t-58.5 24.5q-35 0 -59.5 -24.5t-24.5 -58.5
t24.5 -58.5t59.5 -24.5z" />
    <glyph glyph-name="at" unicode="@" horiz-adv-x="750" 
d="M268 63q29 0 57.5 18.5t58.5 57.5q4 -34 31.5 -54.5t70.5 -20.5q20 0 39 4t37.5 11.5t35 19t32 25.5t28.5 31.5t23 37.5t17.5 42t11.5 46.5t4 50.5q0 28 -4.5 54t-13.5 49.5t-22 45t-30 39.5t-37 33.5t-43 27t-48.5 20t-53.5 12.5t-58 4q-28 0 -54.5 -4.5t-52 -12.5
t-49.5 -20t-46 -27.5t-42 -34t-37.5 -40t-32 -45.5t-26 -50.5t-19.5 -54.5t-12 -58t-4 -62q0 -34 5 -64.5t14.5 -58t23 -51.5t30.5 -44t37 -36.5t43 -29t48.5 -20.5t52.5 -12.5t55 -4.5q58 0 120.5 16t102.5 40l14 55q-53 -36 -114.5 -53t-116.5 -17q-28 0 -54.5 4.5t-51 14
t-46 23t-39.5 31.5t-32 40t-24 48t-15.5 56t-5.5 64q0 30 4.5 59.5t12.5 56.5t20 52.5t27 48.5t33 43t38.5 36.5t42.5 29.5t46.5 22t50 14t51.5 5q29 0 56 -4.5t51 -13t45 -21t38.5 -29t31 -36t23 -42t14.5 -47.5t5 -53q0 -23 -3.5 -44.5t-10 -40.5t-15 -35.5t-19.5 -30
t-23 -24.5t-25.5 -18t-27.5 -11t-28 -4q-21 0 -29 14.5t1 39.5l77 254l-86 -12q-19 13 -42 20t-49 7q-18 0 -35 -3.5t-32.5 -10.5t-30.5 -16.5t-28 -21.5t-24.5 -26t-21.5 -30t-17.5 -33t-12.5 -35.5t-8 -38t-3 -38.5q0 -61 27 -95t68 -34zM272 202q0 14 2 28t6 27.5
t10 26.5t13 25t15.5 22.5t17.5 19t19 14.5t20 9.5t21 3.5q12 0 24 -3t22 -9l-52 -170q-26 -34 -44.5 -49t-33.5 -15q-16 0 -28 18t-12 52z" />
    <glyph glyph-name="A" unicode="A" horiz-adv-x="678" 
d="M487 0h198q-4 8 -9.5 18t-11.5 21.5t-13 24.5t-13.5 27t-13.5 28l-14 28t-13.5 27.5t-12.5 26.5l-245 519l-245 -519q-6 -13 -12.5 -26.5t-13.5 -27.5l-14 -28t-13.5 -28t-13.5 -27t-13 -24.5t-11 -21.5t-10 -18h167q-2 26 8.5 67t25.5 81h257q15 -40 26 -81t10 -67z
M234 243l88 200l89 -200h-177z" />
    <glyph glyph-name="B" unicode="B" horiz-adv-x="634" 
d="M54 0h286q127 0 198.5 55t71.5 142q0 62 -39 106.5t-111 61.5q56 19 86 59.5t30 92.5q0 81 -67.5 132t-187.5 51h-269q3 -7 6 -16t5 -19.5t4 -22.5t3.5 -25t2.5 -26l2 -26t1.5 -26t0.5 -24.5v-22.5v-284v-22t-0.5 -25t-1.5 -26t-2 -26.5t-2 -26t-3 -24.5t-4 -23
t-4.5 -19.5t-5.5 -15.5zM316 603q53 0 84.5 -27.5t31.5 -73.5t-32 -73t-86 -27h-90v201h92zM336 308q58 0 93 -28.5t35 -77.5t-35 -79.5t-93 -30.5h-112v216h112z" />
    <glyph glyph-name="C" unicode="C" horiz-adv-x="658" 
d="M32 342q0 -31 4.5 -59.5t13.5 -55.5t21.5 -51.5t29 -46t36 -40.5t42 -34.5t47.5 -27.5t52.5 -20.5t57.5 -13t61 -4.5q62 0 121 17t104 48l12 116q-45 -33 -98.5 -56.5t-113.5 -23.5q-24 0 -47 4.5t-44 13.5t-40 21.5t-35 29.5t-28.5 37t-21.5 43.5t-13.5 50.5t-4.5 57
q0 29 4 55.5t12.5 50.5t20 44.5t26.5 37.5t33 30.5t39 22.5t44.5 14t48.5 5q66 0 119.5 -28.5t96.5 -70.5l-26 167q-42 3 -90.5 19.5t-123.5 16.5q-31 0 -60 -4.5t-56 -13.5t-52 -22t-47 -29.5t-41.5 -36.5t-35.5 -42.5t-28.5 -48t-21.5 -53.5t-13.5 -57.5t-4.5 -61.5z" />
    <glyph glyph-name="D" unicode="D" horiz-adv-x="728" 
d="M54 0h254q37 0 71.5 5t66.5 15t61 24.5t54 33.5t46 41.5t37.5 49t28 56.5t17.5 62.5t6 68.5q0 33 -5.5 64.5t-16.5 60t-27 54t-36.5 47.5t-45.5 40.5t-53.5 33t-61 24.5t-68 15t-74.5 5h-256q3 -7 6 -16t5 -19.5t4 -22.5t3.5 -25t2.5 -26l2 -26t1.5 -26t0.5 -24.5v-22.5
v-284v-22t-0.5 -25t-1.5 -26t-2 -26.5t-2 -26t-3 -24.5t-4 -23t-4.5 -19.5t-5.5 -15.5zM302 598q106 0 172 -68.5t66 -178.5q0 -29 -4.5 -55t-13 -49t-21 -42.5t-28 -36t-34.5 -29.5t-40.5 -21.5t-46 -13t-50.5 -4.5h-76v498h76z" />
    <glyph glyph-name="E" unicode="E" horiz-adv-x="578" 
d="M54 0h482l20 133q-10 -4 -23 -7.5t-27 -6.5t-29.5 -6t-31.5 -5l-32 -4t-31 -3.5t-29.5 -2.5t-27 -1.5t-23.5 -0.5h-78v213h36q49 0 92 -4.5t86 -14.5l-26 134q-34 -8 -72.5 -13.5t-81.5 -5.5h-34v194h77q13 0 27.5 -0.5t30 -1.5t31 -2.5t31.5 -3.5t32 -4.5t31 -5.5
t28.5 -7t25.5 -9l-22 135h-464q3 -7 6 -16t5 -19.5t4 -22.5t3.5 -25t2.5 -26l2 -26t1.5 -26t0.5 -24.5v-22.5v-284v-22t-0.5 -25t-1.5 -26t-2 -26.5t-2 -26t-3 -24.5t-4 -23t-4.5 -19.5t-5.5 -15.5z" />
    <glyph glyph-name="F" unicode="F" horiz-adv-x="556" 
d="M54 0h196q-3 7 -5.5 15.5t-5 19t-4 22.5t-3 24.5t-2.5 26t-2 26.5t-1.5 26t-0.5 24.5v22.5v101h38q50 0 93 -5t86 -15l-25 134q-34 -8 -73.5 -13t-82.5 -5h-36v195h78q13 0 27 -0.5t29 -1.5t31 -2t31.5 -3t31.5 -4.5t30.5 -6t28.5 -7.5t26 -9l-21 135h-466q3 -7 6 -16
t5 -19.5t4 -22.5t3.5 -25t2.5 -26l2 -26t1.5 -26t0.5 -24.5v-22.5v-284v-22t-0.5 -25t-1.5 -26.5t-2 -26.5l-2 -26t-3 -25t-4 -22.5t-4.5 -19t-5.5 -15.5z" />
    <glyph glyph-name="G" unicode="G" horiz-adv-x="734" 
d="M410 -11q72 0 146 19.5t133 49.5q-4 25 -7 57t-3 62v28q0 43 3.5 77t13.5 62h-173q11 -28 15 -59.5t4 -78.5v-96q-28 -10 -57.5 -15t-60.5 -5q-25 0 -48.5 4.5t-45 13t-40.5 21.5t-34.5 29.5t-28 36.5t-21.5 43.5t-13.5 50t-4.5 55.5q0 32 4.5 60t13 52t21 45t28 37.5
t33.5 29.5t39 21.5t44 13t47 4.5q67 0 124.5 -27t103.5 -72l-26 168q-43 3 -92 19t-124 16q-33 0 -64 -4.5t-59.5 -14t-54.5 -22.5t-49 -29.5t-42.5 -36.5t-35.5 -42.5t-28.5 -48t-21 -53t-13 -56.5t-4.5 -60q0 -36 5.5 -68.5t16.5 -62.5t27 -56t36 -49t44.5 -41.5t52.5 -33
t59.5 -24.5t65.5 -15t71 -5z" />
    <glyph glyph-name="H" unicode="H" horiz-adv-x="723" 
d="M54 0h194q-3 7 -5.5 15.5t-4.5 19t-3.5 22.5t-3 25t-2.5 26t-1.5 26.5t-1 26.5t-0.5 25v22v98h271v-98v-22t-0.5 -25t-1.5 -26.5t-2 -26.5l-2 -26t-3 -25t-4 -22.5t-4.5 -19t-5.5 -15.5h194q-3 7 -5.5 15.5t-4.5 19t-3.5 22.5t-2.5 25l-2 26t-2 26.5t-1.5 26.5t-0.5 25
v22v284v22.5t0.5 24.5t1.5 26.5t2 26.5l2 26t2.5 25t3.5 22.5t4.5 19.5t5.5 15h-194q3 -6 5.5 -15t4.5 -19.5t4 -22.5t3 -25l2 -26t2 -26.5t1.5 -26.5t0.5 -25v-22v-83h-271v83v22.5t0.5 24.5t1 26.5t1.5 26.5t2.5 26t3 25t3.5 22.5t4.5 19.5t5.5 15h-194q3 -6 5.5 -15
t4.5 -19.5t4 -22.5t3 -25l2 -26t2 -26.5t1.5 -26.5t0.5 -25v-22v-284v-22t-0.5 -25t-1.5 -26.5t-2 -26.5l-2 -26t-3 -25t-4 -22.5t-4.5 -19t-5.5 -15.5z" />
    <glyph glyph-name="I" unicode="I" horiz-adv-x="302" 
d="M54 0h194q-3 7 -5.5 15.5t-4.5 19t-3.5 22.5t-3 25t-2.5 26t-1.5 26.5t-1 26.5t-0.5 25v22v284v22.5t0.5 24.5t1 26.5t1.5 26.5t2.5 26t3 25t3.5 22.5t4.5 19.5t5.5 15h-194q3 -6 5.5 -15t4.5 -19.5t4 -22.5t3 -25l2 -26t2 -26.5t1.5 -26.5t0.5 -25v-22v-284v-22
t-0.5 -25t-1.5 -26.5t-2 -26.5l-2 -26t-3 -25t-4 -22.5t-4.5 -19t-5.5 -15.5z" />
    <glyph glyph-name="J" unicode="J" horiz-adv-x="294" 
d="M30 -204q87 0 139.5 52.5t52.5 137.5v506v22.5t0.5 24.5t1.5 26.5t2 26.5l2 26t2.5 25t3.5 22.5t4.5 19.5t5.5 15h-195q3 -7 5.5 -15.5t4.5 -19.5t4 -23t3.5 -24.5t2.5 -26t2 -26.5t1.5 -26t0.5 -24.5v-22.5v-514q0 -43 -19 -64.5t-52 -21.5q-18 0 -37 5t-37 16l12 -99
q18 -9 41.5 -13.5t48.5 -4.5z" />
    <glyph glyph-name="K" unicode="K" horiz-adv-x="670" 
d="M54 0h194q-3 7 -5.5 15.5t-4.5 19t-4 22.5t-3 25l-2 26t-2 26.5t-1.5 26.5t-0.5 25v22v284v22.5t0.5 24.5t1.5 26.5t2 26.5l2 26t3 25t4 22.5t4.5 19.5t5.5 15h-194q3 -6 5.5 -15t4.5 -19.5t4 -22.5t3 -25l2 -26t2 -26.5t1.5 -26.5t0.5 -25v-22v-284v-22t-0.5 -25
t-1.5 -26.5t-2 -26.5l-2 -26t-3 -25t-4 -22.5t-4.5 -19t-5.5 -15.5zM469 0h207q-22 26 -56.5 68.5t-65.5 85.5l-159 213l143 181q36 44 68.5 85.5t57.5 66.5h-177q2 -25 -16.5 -59t-46.5 -74l-176 -229l146 -196q31 -42 52 -79.5t23 -62.5z" />
    <glyph glyph-name="L" unicode="L" horiz-adv-x="570" 
d="M54 0h482l20 133q-9 -3 -20 -6.5t-23.5 -6t-26 -5t-28 -5t-29 -4l-29 -3t-28 -3t-26.5 -2t-24.5 -1t-20.5 -0.5h-75v395v22.5t0.5 24.5t1.5 26t2 26.5t2.5 26t3 24.5t4 23t5 19.5t5.5 15.5h-196q3 -6 5.5 -15t4.5 -19.5t4 -22.5t3 -25l2 -26t2 -26.5t1.5 -26.5t0.5 -25
v-22v-284v-22t-0.5 -25t-1.5 -26t-2 -26.5t-2.5 -26t-3 -24.5t-3.5 -23t-4.5 -19.5t-5.5 -15.5z" />
    <glyph glyph-name="M" unicode="M" horiz-adv-x="850" 
d="M51 0h162q-3 7 -5.5 15.5t-5 19.5t-4 22.5t-3 24.5l-3 26t-2 26l-1 26t-1 25t-0.5 22l-2 166l224 -283l225 283l-2 -166q0 -10 -0.5 -22t-1 -25t-1.5 -26t-2 -26.5t-2.5 -26t-3 -24.5t-3.5 -22.5t-4 -19t-5 -15.5h187q-3 7 -5.5 15.5t-4.5 19t-3.5 22.5t-3 24.5t-2.5 26
t-2 26.5t-1.5 26t-0.5 24.5v22.5v511l-345 -438l-354 438v-511v-22t-0.5 -25t-1.5 -26l-2 -26t-2.5 -26t-3.5 -24.5t-4 -22.5t-4.5 -19.5t-5.5 -15.5z" />
    <glyph glyph-name="N" unicode="N" horiz-adv-x="737" 
d="M662 493v22.5t0.5 24.5t1.5 26l2 26t2.5 26t3.5 24.5t4 22.5t4.5 19.5t5.5 15.5h-164q3 -6 5.5 -15t4.5 -19t4 -22t3.5 -24.5t2.5 -25t2 -25.5l2 -26t1.5 -24.5t0.5 -22.5l3 -216l-23 21l-453 415v-509v-22t-0.5 -25t-1.5 -26l-2 -26t-2.5 -26t-3.5 -24.5t-4 -22.5
t-4.5 -19.5t-5.5 -15.5h164q-3 7 -6 16t-5.5 20.5t-4.5 23.5t-3.5 25.5t-2.5 26.5t-1.5 26.5t-1 26t-0.5 23.5l-3 230l19 -18l456 -416v509z" />
    <glyph glyph-name="O" unicode="O" horiz-adv-x="784" 
d="M752 350q0 32 -4.5 62.5t-13.5 58t-22 53t-29 47.5t-35.5 41.5t-42 35t-47 28t-51 20.5t-55 12.5t-58.5 4.5t-58.5 -4.5t-55.5 -13t-52 -21t-47.5 -28.5t-42.5 -35t-36.5 -41.5t-29.5 -47.5t-22 -52.5t-13.5 -57.5t-4.5 -62t4.5 -62.5t13.5 -58t22 -53t29 -47.5
t35.5 -41.5t42 -35t47 -28t51 -20.5t55 -12.5t58.5 -4.5t58.5 4.5t55.5 13t52 21t47.5 28.5t42.5 35t36.5 41.5t29.5 47.5t22 52.5t13.5 57.5t4.5 62zM190 349q0 31 4 58.5t12 51.5t18.5 44.5t24.5 37t30.5 29t34.5 21t38.5 13t41.5 4.5t41 -4.5t38 -13t34 -21.5t29.5 -29.5
t24 -37t18 -44.5t11.5 -51t4 -58t-4 -58.5t-11.5 -51.5t-18.5 -44.5t-25 -37t-30 -29t-34.5 -21t-38.5 -13t-42 -4.5q-21 0 -40.5 4.5t-38 13t-34 21.5t-29.5 29.5t-24.5 37t-18 44.5t-11.5 51t-4 58z" />
    <glyph glyph-name="P" unicode="P" horiz-adv-x="614" 
d="M54 0h196q-3 7 -5.5 15.5t-5 19.5t-4 23t-3 24.5t-2.5 26t-2 26.5t-1.5 26t-0.5 25v22v54h88q122 0 197.5 60.5t75.5 161.5q0 96 -71.5 156t-196.5 60h-267q3 -7 5.5 -15.5t5 -19.5t4 -23t3 -24.5t3 -26t2 -26.5l1 -26t1 -24.5t0.5 -22.5v-284v-22t-0.5 -25t-1.5 -26.5
t-2 -26.5l-2 -26t-3 -25t-4 -22.5t-4.5 -19t-5.5 -15.5zM306 598q62 0 98 -31.5t36 -86.5q0 -57 -36.5 -88.5t-99.5 -31.5h-78v238h80z" />
    <glyph glyph-name="Q" unicode="Q" horiz-adv-x="784" 
d="M597 -176q37 0 73 6t63 18l19 104q-31 -12 -64 -19t-64 -7q-49 0 -89.5 20.5t-58.5 57.5q26 6 50.5 15.5t47.5 22t43.5 28t38.5 34.5t33 40t26.5 45t19.5 50t12.5 53.5t4.5 57.5q0 32 -4.5 62.5t-13.5 58t-22 53t-29.5 47.5t-36 41.5t-42 35t-47 28t-51 20.5t-55 12.5
t-57.5 4.5q-30 0 -58.5 -4.5t-55.5 -13t-51.5 -21t-47 -28.5t-42.5 -35t-36.5 -41.5t-29.5 -47.5t-22 -52.5t-14 -57.5t-5 -62t4.5 -61.5t13.5 -57t21 -52.5t28 -47t35 -41t40.5 -35t45.5 -28.5t50 -21t53 -13.5q29 -76 102.5 -122.5t171.5 -46.5zM190 349q0 31 4 58.5
t12 51.5t18.5 44.5t24.5 37t30.5 29t34.5 21t38.5 13t41.5 4.5t41 -4.5t38 -13t34 -21.5t29.5 -29.5t24 -37t18 -44.5t11.5 -51t4 -58t-4 -58.5t-11.5 -51.5t-18.5 -44.5t-25 -37t-30 -29t-34.5 -21t-38.5 -13t-42 -4.5q-21 0 -40.5 4.5t-38 13t-34 21.5t-29.5 29.5
t-24.5 37t-18 44.5t-11.5 51t-4 58z" />
    <glyph glyph-name="R" unicode="R" horiz-adv-x="646" 
d="M54 0h192q-3 7 -5.5 15.5t-4.5 19t-4 22.5t-3 25l-2 26t-2 26.5t-1.5 26.5t-0.5 25v22v75h85l170 -283h171q-5 6 -10.5 14t-12 17t-13.5 19t-14 20.5l-14 21l-14 21t-13 20.5t-12 19l-96 157q60 25 97 74t37 113q0 93 -68.5 148.5t-189.5 55.5h-274q3 -7 5.5 -15.5
t5 -19.5t4 -22.5t3 -24.5l3 -26t2 -26.5t1 -26t1 -24.5t0.5 -23v-284v-22t-0.5 -25t-1.5 -26.5t-2 -26.5l-2 -26t-3 -25t-4 -22.5t-4.5 -19t-5.5 -15.5zM309 599q60 0 95 -28t35 -79q0 -54 -36 -83t-96 -29h-84v219h86z" />
    <glyph glyph-name="S" unicode="S" horiz-adv-x="532" 
d="M268 -9q26 0 50 4t45.5 11.5t40.5 18t35 24.5t28 30.5t20.5 35t13 39.5t4.5 44q0 20 -3.5 38t-10 33t-15.5 28.5t-19.5 24.5t-23 21t-26 18t-28 15.5t-29.5 14.5t-30 13t-29 12t-28 12.5t-26 13t-23 13.5t-19.5 15.5t-15 17.5t-10 20t-3.5 24q0 36 25.5 59t68.5 23
q45 0 100 -23t112 -65l-26 154q-40 0 -89 14.5t-108 14.5q-25 0 -48.5 -4t-44 -11.5t-38 -18t-32 -24t-25.5 -29.5t-18.5 -34t-11 -37.5t-3.5 -40.5t3.5 -39t10 -34t15 -29.5t19.5 -25t23 -22t26 -19.5t28 -16.5t29 -14.5t29.5 -13.5l29 -13t28 -12.5t26 -13t23 -14
t19.5 -15t15 -17t9.5 -19.5t3.5 -22.5q1 -40 -28 -64t-72 -24q-52 0 -114.5 25t-132.5 79l29 -162q11 0 23 -1t24.5 -3.5t25 -5.5t26 -6t28 -6t29.5 -5.5t31.5 -4t33.5 -1.5z" />
    <glyph glyph-name="T" unicode="T" horiz-adv-x="634" 
d="M218 0h197q-3 7 -5.5 15.5t-4.5 19.5t-4 23t-3.5 24.5t-2.5 26t-2 26.5t-1.5 26t-0.5 25v22v392h33q51 0 104.5 -7t101.5 -28l-22 135h-582l-22 -135q48 21 101.5 28t104.5 7h32v-392v-22t-0.5 -25t-1.5 -26t-2 -26.5t-2.5 -26t-3.5 -24.5t-4 -23t-4.5 -19.5t-5.5 -15.5z
" />
    <glyph glyph-name="U" unicode="U" horiz-adv-x="716" 
d="M358 -13q32 0 62 5t56.5 14.5t49.5 23.5t42 32t34 40.5t25 49t15.5 56.5t5.5 64v220v22.5t0.5 24.5t1.5 26t2 26.5t2.5 26t3.5 24.5t4 23t4.5 19.5t5.5 15.5h-164q3 -7 5.5 -15.5t4.5 -19.5t4 -23t3.5 -24.5t2.5 -26t2 -26.5t1.5 -26t0.5 -24.5v-22.5v-226
q0 -84 -45.5 -127t-112.5 -43t-112 43t-45 126v227v22.5t0.5 24.5t1.5 26.5t2 26.5l2 26t3 25t4 22.5t4.5 19.5t5.5 15h-194q3 -6 5.5 -15t4.5 -19.5t3.5 -22.5t2.5 -25l2 -26t2 -26.5t1.5 -26.5t0.5 -25v-22v-232q0 -33 5.5 -62t15.5 -54t25 -46.5t34.5 -39t42.5 -31
t49.5 -22.5t56 -13.5t61.5 -4.5z" />
    <glyph glyph-name="V" unicode="V" horiz-adv-x="678" 
d="M584 499q6 13 12.5 26.5t13.5 27.5l14 28t13.5 28t13.5 27t13 24.5t11.5 21.5t9.5 18h-168q1 -8 0 -18t-3 -21.5t-5 -24t-6.5 -25.5t-8 -26t-9 -25.5t-9 -24.5t-9.5 -23l-111 -249l-111 249q-5 11 -9.5 23t-9.5 24.5t-9.5 25.5t-8 26t-7 25.5t-5.5 24t-3 21.5t0 18h-200
q5 -8 10 -18t11 -21.5t13 -24.5t13.5 -27t13.5 -28l14 -28t13.5 -27.5t12.5 -26.5l245 -519z" />
    <glyph glyph-name="W" unicode="W" horiz-adv-x="940" 
d="M857 508q19 53 40.5 106.5t37.5 85.5h-158q7 -32 -3.5 -79t-25.5 -93l-75 -235l-190 429l-179 -429l-76 235q-15 45 -25.5 92.5t-6.5 79.5h-190q16 -32 37 -85.5t40 -106.5l189 -530l192 452l204 -452z" />
    <glyph glyph-name="X" unicode="X" horiz-adv-x="650" 
d="M-5 0h165q0 29 17.5 68.5t48.5 85.5l74 108l71 -107q30 -45 48.5 -86t18.5 -69h215q-23 30 -55 76t-64 94l-132 197l114 163q33 46 64.5 93t55.5 77h-166q1 -29 -16.5 -69t-47.5 -85l-64 -93l-60 92q-30 44 -49 85.5t-18 69.5h-215q22 -30 54 -76t64 -94l122 -181
l-126 -179q-33 -46 -64.5 -93t-54.5 -77z" />
    <glyph glyph-name="Y" unicode="Y" horiz-adv-x="676" 
d="M238 0h198q-3 7 -6 16.5t-5 21.5t-4 25.5t-3.5 28t-2.5 29.5l-2 30t-1.5 29t-0.5 27.5v24.5v31l173 285q25 43 51 84t45 68h-168q3 -25 -10 -62.5t-34 -73.5l-110 -188l-112 188q-21 36 -35 73.5t-11 62.5h-204q19 -27 44.5 -68t51.5 -84l170 -281v-35v-24.5t-0.5 -27.5
t-1.5 -29l-2 -30t-2.5 -29.5t-3.5 -28t-4 -25.5t-4.5 -21.5t-5.5 -16.5z" />
    <glyph glyph-name="Z" unicode="Z" horiz-adv-x="580" 
d="M550 0l20 133q-10 -4 -22.5 -7.5t-25.5 -6.5t-27.5 -6t-29 -5l-29 -4t-29 -3.5t-27.5 -2.5t-25.5 -1.5t-22.5 -0.5h-119l363 604h-528l-23 -134q49 19 110.5 26.5t112.5 7.5h112l-360 -600h550z" />
    <glyph glyph-name="bracketleft" unicode="[" horiz-adv-x="398" 
d="M80 -160h298v76h-166v778h166v76h-298v-930z" />
    <glyph glyph-name="backslash" unicode="\" horiz-adv-x="553" 
d="M513 -200h123l-532 966h-122z" />
    <glyph glyph-name="bracketright" unicode="]" horiz-adv-x="398" 
d="M318 -160h-298v76h166v778h-166v76h298v-930z" />
    <glyph glyph-name="asciicircum" unicode="^" horiz-adv-x="490" 
d="M20 335h109l112 203l112 -203h117l-225 395z" />
    <glyph glyph-name="underscore" unicode="_" horiz-adv-x="462" 
d="M-8 -148h466l12 87h-466z" />
    <glyph glyph-name="grave" unicode="`" 
d="M239 559h71l-81 173h-149z" />
    <glyph glyph-name="a" unicode="a" horiz-adv-x="530" 
d="M174 -10q49 0 91.5 28.5t67.5 70.5q1 -26 4 -53.5t8 -42.5l146 15q-11 21 -16.5 60t-5.5 69v187q0 90 -52.5 140t-154.5 50q-47 0 -95.5 -11.5t-88.5 -32.5l-14 -102q52 30 90.5 42t75.5 12q48 0 75 -23.5t27 -74.5v-28l-134 -22q-87 -14 -127.5 -52t-40.5 -97t40 -97
t104 -38zM162 136q0 24 16 41.5t50 24.5l104 23v-86q-19 -24 -47 -42t-59 -18q-30 0 -47 16t-17 41z" />
    <glyph glyph-name="b" unicode="b" horiz-adv-x="572" 
d="M297 -11q26 0 51 5t47.5 14.5t42.5 24t36.5 32.5t30 39.5t22.5 47t14 53.5t5 59q0 29 -4 54.5t-12 48.5t-19 43t-25 36t-30.5 29t-35 21.5t-39 13t-41.5 4.5q-44 0 -81 -20.5t-61 -57.5v290l-160 -23q4 -7 6.5 -16t5 -19.5t4 -21.5t2.5 -23l2 -24t1.5 -23.5t0.5 -22.5
v-21v-537l98 35q29 -19 65 -30t74 -11zM291 421q49 0 81 -45t32 -123q0 -86 -36.5 -132.5t-90.5 -46.5q-20 0 -40.5 8.5t-38.5 21.5v265q19 24 43 38t50 14z" />
    <glyph glyph-name="c" unicode="c" horiz-adv-x="470" 
d="M284 -10q42 0 81 11.5t69 30.5l11 99q-26 -23 -60 -38t-69 -15q-64 0 -107 44.5t-43 123.5q0 78 39 126.5t102 48.5q38 0 72.5 -17.5t63.5 -47.5l-20 138q-32 -1 -64.5 8.5t-81.5 9.5q-23 0 -44.5 -4t-42 -12t-39.5 -19t-35.5 -25.5t-30 -31.5t-24.5 -36.5t-19 -41.5
t-12 -46t-4 -50q0 -28 5 -54t14 -49.5t22.5 -43.5t30.5 -37t37.5 -30.5t44 -22.5t49.5 -14t55 -5z" />
    <glyph glyph-name="d" unicode="d" horiz-adv-x="578" 
d="M226 -11q45 0 85 23.5t65 64.5v-83l160 14q-3 7 -6 16t-5 19.5t-3.5 21.5t-2.5 23t-2 23.5t-1.5 23t-0.5 22.5v21v548l-160 -23q4 -7 6.5 -16t4.5 -19.5t4 -21.5t3 -23t1.5 -24t1 -23.5t0.5 -22.5v-21v-76q-24 28 -57 43t-69 15q-23 0 -45 -5t-42 -14.5t-38 -23
t-33.5 -31t-27.5 -39t-20.5 -45.5t-13 -51t-4.5 -57t4 -56.5t11.5 -50.5t18 -44.5t24.5 -37.5t29.5 -30t34 -22t38 -13.5t40.5 -4.5zM168 250q0 79 33.5 125t84.5 46q26 0 49.5 -11.5t40.5 -32.5v-240q-20 -27 -44 -41.5t-52 -14.5q-49 0 -80.5 45t-31.5 124z" />
    <glyph glyph-name="e" unicode="e" horiz-adv-x="526" 
d="M294 -10q46 0 92 12.5t77 33.5l11 96q-36 -25 -76 -38.5t-80 -13.5q-62 0 -102 37t-49 109h333q3 134 -62 211t-172 77q-24 0 -46.5 -4t-42.5 -12t-37.5 -19.5t-33 -26t-28 -32t-22.5 -37t-16.5 -40.5t-10 -44t-3.5 -47q0 -29 5 -55.5t14 -50.5t23 -44.5t31.5 -38
t38.5 -31t45.5 -23t52.5 -14.5t58 -5zM268 424q38 0 65.5 -29t35.5 -86h-201q7 54 32.5 84.5t67.5 30.5z" />
    <glyph glyph-name="f" unicode="f" horiz-adv-x="374" 
d="M86 0h180q-3 7 -5.5 16t-4.5 19.5t-3.5 22t-3 23.5t-2 24.5t-1.5 25t-1 24v22.5v241h115v85h-116q-1 17 -2 35t-1 35q0 35 15.5 52.5t46.5 17.5q16 0 34 -5t35 -12l-12 98q-19 7 -41.5 10.5t-44.5 3.5q-78 0 -123 -47.5t-45 -130.5v-57h-89l-19 -85h108v-241v-22.5
t-0.5 -24t-1.5 -25t-2 -24.5t-2.5 -23.5t-3.5 -22t-4.5 -19.5t-5.5 -16z" />
    <glyph glyph-name="g" unicode="g" horiz-adv-x="539" 
d="M258 150q24 0 46.5 3.5t43 10.5t38.5 16.5t33 21.5t26.5 27t19.5 31.5t12.5 34.5t4.5 38q0 34 -13 64t-35 53q27 4 55.5 3.5t55.5 -5.5l-11 120q-42 -1 -79 -26.5t-53 -65.5q-28 18 -64.5 28t-79.5 10q-24 0 -46.5 -3.5t-43 -10.5t-38.5 -16.5t-33 -22t-26.5 -27
t-19.5 -31t-12.5 -35t-4.5 -38.5q0 -54 31 -96t85 -64q-51 -13 -78 -42t-27 -66q0 -30 18 -54t52 -38q-62 -9 -90.5 -31.5t-28.5 -52.5q0 -41 56.5 -70.5t164.5 -29.5q37 0 69.5 4t61.5 11t53.5 17t44.5 22.5t35 27t25.5 30.5t16 33.5t5.5 35.5q0 46 -32 72t-98 29l-178 10
q-33 2 -48.5 12.5t-15.5 26.5q0 13 10 23.5t29 15.5q15 -3 31 -4.5t32 -1.5zM258 221q-37 0 -61.5 29.5t-24.5 81.5t24.5 81.5t61.5 29.5t61.5 -29.5t24.5 -82.5q0 -51 -24 -80.5t-62 -29.5zM119 -95q0 16 12.5 29.5t34.5 22.5q6 -1 12.5 -1.5t13.5 -1.5l166 -11
q19 -1 28.5 -8t9.5 -17q0 -25 -48 -44.5t-117 -19.5q-55 0 -83.5 14t-28.5 37z" />
    <glyph glyph-name="h" unicode="h" horiz-adv-x="575" 
d="M44 0h176q-3 7 -5 15.5t-3.5 19t-3 21.5t-2.5 23t-2 24.5t-1.5 24t-0.5 23v21.5v191q19 23 43 38t52 15q34 0 56.5 -22.5t22.5 -65.5v-156v-21.5t-0.5 -23t-1.5 -24t-2 -24.5t-2.5 -23t-3 -21.5t-3.5 -19t-5 -15.5h176q-3 7 -5.5 16t-4 19.5t-3 22t-3 23.5t-2 24.5
t-1.5 25t-1 24v22.5v169q0 79 -42.5 123.5t-111.5 44.5q-51 0 -91 -26t-67 -69v307l-160 -23q3 -7 6 -16t5 -19.5t4 -21.5t3 -23l2 -24t1.5 -23.5t0.5 -22.5v-21v-355v-22.5t-0.5 -24t-1.5 -25t-2 -24.5t-2.5 -23.5t-3.5 -22t-4.5 -19.5t-5.5 -16z" />
    <glyph glyph-name="i" unicode="i" horiz-adv-x="266" 
d="M132 567q34 0 57.5 23.5t23.5 57.5q0 33 -23.5 56.5t-57.5 23.5q-36 0 -59 -23.5t-23 -56.5q0 -34 23 -57.5t59 -23.5zM44 0h178q-3 7 -5.5 16t-4.5 19.5t-3.5 22t-2.5 23.5t-2 24.5t-1.5 25t-0.5 24v22.5v331l-160 -24q3 -7 6 -16t5 -19.5t4 -21.5t3 -23l2 -24t1.5 -24
t0.5 -23v-21v-135v-22.5t-0.5 -24t-1.5 -25t-2 -24.5t-2.5 -23.5t-3.5 -22t-4.5 -19.5t-5.5 -16z" />
    <glyph glyph-name="j" unicode="j" horiz-adv-x="262" 
d="M132 567q34 0 57.5 23.5t23.5 57.5q0 33 -23.5 56.5t-57.5 23.5q-36 0 -59 -23.5t-23 -56.5q0 -34 23 -57.5t59 -23.5zM40 -208q76 0 119 39t43 117v560l-160 -24q3 -7 6 -16t5 -19.5t4 -21.5t3 -23l2 -24t1.5 -24t0.5 -23v-21v-370q0 -28 -13.5 -42.5t-40.5 -14.5
q-15 0 -33.5 3.5t-34.5 9.5l10 -90q18 -7 41 -11.5t47 -4.5z" />
    <glyph glyph-name="k" unicode="k" horiz-adv-x="545" 
d="M44 0h176q-3 7 -5 15.5t-3.5 19t-3 21.5t-2.5 23t-2 24.5t-1.5 24t-0.5 23v21.5v554l-160 -23q3 -7 6 -16t5 -19.5t4 -21.5t3 -23l2 -24t1.5 -23.5t0.5 -22.5v-21v-355v-22.5t-0.5 -24t-1.5 -25t-2 -24.5t-2.5 -23.5t-3.5 -22t-4.5 -19.5t-5.5 -16zM372 0h183
q-22 25 -49 62.5t-56 77.5l-96 135l82 101q27 33 56.5 68.5t51.5 58.5h-156q-2 -25 -18 -55.5t-40 -61.5l-108 -138l94 -135q23 -34 37.5 -62.5t18.5 -50.5z" />
    <glyph glyph-name="l" unicode="l" horiz-adv-x="266" 
d="M44 0h178q-3 7 -5.5 16t-4.5 19.5t-3.5 22t-2.5 23.5t-2 24.5t-1.5 25t-0.5 24v22.5v549l-160 -23q3 -7 6 -16t5 -19.5t4 -21.5t3 -23l2 -24t1.5 -23.5t0.5 -22.5v-21v-355v-22.5t-0.5 -24t-1.5 -25t-2 -24.5t-2.5 -23.5t-3.5 -22t-4.5 -19.5t-5.5 -16z" />
    <glyph glyph-name="m" unicode="m" horiz-adv-x="877" 
d="M44 0h176q-3 7 -5 15.5t-3.5 19t-3 21.5t-2.5 23t-2 24.5t-1.5 24t-0.5 23v21.5v192q19 22 42.5 37t50.5 15q32 0 53.5 -22t21.5 -64v-158v-21.5t-0.5 -23t-1.5 -24t-2 -24.5t-2 -23t-3 -21.5t-4 -19t-4 -15.5h175q-3 7 -5.5 16t-4 19.5t-3 22t-3 23.5t-2 24.5t-1.5 25
t-1 24v22.5v187q18 22 41.5 37t51.5 15q34 0 55.5 -22t21.5 -64v-158v-21.5t-0.5 -23t-1.5 -24t-2 -24.5t-2.5 -23t-3 -21.5t-3.5 -19t-5 -15.5h175q-3 7 -5 16t-4 19.5t-3.5 22t-2.5 23.5t-2 24.5t-1.5 25t-0.5 24v22.5v175q0 76 -41.5 119t-110.5 43q-52 0 -95 -28
t-69 -73q-13 48 -49.5 74.5t-88.5 26.5q-51 0 -92 -26t-68 -69v89l-160 -24q3 -7 6 -16t5 -19.5t4 -21.5t3 -23l2 -24t1.5 -24t0.5 -23v-21v-135v-22.5t-0.5 -24t-1.5 -25t-2 -24.5t-2.5 -23.5t-3.5 -22t-4.5 -19.5t-5.5 -16z" />
    <glyph glyph-name="n" unicode="n" horiz-adv-x="576" 
d="M44 0h176q-3 7 -5 15.5t-3.5 19t-3 21.5t-2.5 23t-2 24.5t-1.5 24t-0.5 23v21.5v191q19 23 43 38t52 15q34 0 56.5 -22.5t22.5 -65.5v-156v-21.5t-0.5 -23t-1.5 -24t-2 -24.5t-2.5 -23t-3 -21.5t-3.5 -19t-5 -15.5h176q-3 7 -5 16t-4 19.5t-3.5 22t-2.5 23.5t-1.5 24.5
t-1.5 25t-1 24v22.5v169q0 79 -43 123.5t-112 44.5q-51 0 -91 -26t-67 -69v89l-160 -24q3 -7 6 -16t5 -19.5t4 -21.5t3 -23l2 -24t1.5 -24t0.5 -23v-21v-135v-22.5t-0.5 -24t-1.5 -25t-2 -24.5t-2.5 -23.5t-3.5 -22t-4.5 -19.5t-5.5 -16z" />
    <glyph glyph-name="o" unicode="o" horiz-adv-x="564" 
d="M282 -11q24 0 47 4t44 11.5t40 19t35.5 25.5t30.5 31t25 36.5t18.5 41.5t11.5 45.5t4 49.5q0 25 -4 48.5t-11.5 45t-18 41t-24.5 36.5t-30.5 31t-35.5 25t-40 18.5t-44 11.5t-48 4q-24 0 -47 -4t-44 -11.5t-40 -18.5t-35.5 -25.5t-30.5 -31.5t-25 -36.5t-18.5 -41
t-11.5 -45.5t-4 -50q0 -25 4 -49t11.5 -45.5t18.5 -41t25 -36t30.5 -30.5t35.5 -25t40 -18.5t44 -11.5t47 -4zM284 78q-52 0 -84 45t-32 127t31.5 127t81.5 45q51 0 83 -45t32 -127t-31 -127t-81 -45z" />
    <glyph glyph-name="p" unicode="p" horiz-adv-x="578" 
d="M44 -200h178q-3 7 -5.5 16t-4.5 19.5t-3.5 22t-2.5 23.5t-2 24.5t-1.5 25t-0.5 24v22.5v72q24 -29 57 -44.5t70 -15.5q23 0 45 5t42 14.5t38 23.5t33 31.5t27 38.5t20.5 45t13 51.5t4.5 56.5q0 30 -4 57t-11.5 50.5t-18 44t-24 37.5t-29.5 30t-34 22t-37.5 13.5
t-40.5 4.5q-46 0 -86 -23t-65 -63v80l-160 -24q3 -7 6 -16t5 -19.5t4 -21.5t3 -23l2 -24t1.5 -24t0.5 -23v-21v-335v-22.5t-0.5 -24t-1.5 -25t-2 -24.5t-2.5 -23.5t-3.5 -22t-4.5 -19.5t-5.5 -16zM298 422q49 0 81 -45t32 -123q0 -81 -33.5 -126.5t-85.5 -45.5
q-25 0 -48.5 11.5t-41.5 32.5v239q20 27 44.5 42t51.5 15z" />
    <glyph glyph-name="q" unicode="q" horiz-adv-x="570" 
d="M355 -200h177q-3 7 -5 16t-3.5 19.5t-3 22t-2.5 23.5t-2 24.5t-1.5 25t-0.5 24v22.5v531l-124 -23q-26 13 -56 21t-61 8q-26 0 -51 -5t-47 -15t-42 -24t-36.5 -32t-29.5 -39.5t-22 -46.5t-14 -53t-5 -59q0 -28 4 -54t12 -49t19.5 -43t25.5 -36.5t30.5 -29t35.5 -21.5
t39 -13.5t42 -4.5q43 0 79.5 20.5t61.5 57.5v-90v-22.5t-1 -24t-1.5 -25t-2 -24.5t-3 -23.5t-3 -22t-4 -19.5t-5.5 -16zM168 250q0 86 36 132t90 46q21 0 42 -7.5t39 -20.5v-265q-19 -25 -43 -39t-52 -14q-49 0 -80.5 45t-31.5 123z" />
    <glyph glyph-name="r" unicode="r" horiz-adv-x="404" 
d="M44 0h179q-3 7 -5.5 16t-4.5 19.5t-3.5 22t-3 23.5t-2 24.5t-1.5 24.5t-1 23.5v22.5v137q23 40 52.5 62.5t69.5 22.5q19 0 37 -3t31 -7l-9 120q-7 3 -19 4.5t-24 1.5q-41 0 -78.5 -34t-59.5 -107v135l-160 -24q3 -7 6 -16t5 -19.5t4 -21.5t3 -23l2 -24t1.5 -24t0.5 -23
v-21v-135v-22.5t-0.5 -24t-1.5 -25t-2 -24.5t-2.5 -23.5t-3.5 -22t-4.5 -19.5t-5.5 -16z" />
    <glyph glyph-name="s" unicode="s" horiz-adv-x="440" 
d="M222 -9q80 0 134 44.5t54 116.5q0 17 -3 31.5t-9 26.5t-14 22t-17.5 18.5t-20.5 15.5t-23 12.5l-24 11t-24.5 10t-24.5 8.5t-23 8.5t-20.5 9t-17.5 10t-14 11.5t-9 13.5t-3 16.5q0 23 17 37t48 14q37 0 79.5 -17t82.5 -51l-22 134q-30 -3 -68.5 7.5t-85.5 10.5
q-78 0 -128 -42.5t-50 -109.5q0 -18 3 -32.5t9 -27.5t13.5 -23.5t17.5 -19t21 -16t22.5 -13.5t24 -11l25 -10t24 -9.5t22.5 -8.5t21 -9t17.5 -10.5t13.5 -11.5t9 -13.5t3 -16.5q0 -25 -20.5 -40.5t-51.5 -15.5q-46 0 -94.5 21.5t-91.5 58.5l26 -137q34 2 74.5 -11t97.5 -13z
" />
    <glyph glyph-name="t" unicode="t" horiz-adv-x="374" 
d="M247 -10q30 0 59 7t49 17l7 82q-12 -5 -28 -10t-32 -5q-28 0 -44 15t-16 46v276h118v85h-118v136l-138 -29v-107h-88l-19 -85h107v-291q0 -66 37 -101.5t106 -35.5z" />
    <glyph glyph-name="u" unicode="u" horiz-adv-x="576" 
d="M215 -11q51 0 91.5 26.5t67.5 69.5v-91l158 14q-3 7 -5.5 16t-4.5 19.5t-3.5 21.5t-2.5 22.5t-2 23.5t-1.5 23.5t-0.5 22v20.5v331l-160 -24q3 -7 6 -16t5 -19.5t4 -21.5t3 -23l2 -24t1.5 -24t0.5 -23v-21v-172q-19 -24 -43.5 -39.5t-52.5 -15.5q-34 0 -56 23t-22 66v334
l-160 -24q3 -7 6 -16t5 -19.5t3.5 -21.5t2.5 -23l2 -24t1.5 -24t0.5 -23v-21v-156q0 -78 42.5 -122.5t111.5 -44.5z" />
    <glyph glyph-name="v" unicode="v" horiz-adv-x="512" 
d="M444 350q21 43 42 84t36 69h-140q1 -26 -10.5 -64t-29.5 -77l-64 -136l-3 -6l-1 2l-66 140q-17 38 -29 76.5t-10 64.5h-179q15 -28 36 -69t42 -84l188 -374z" />
    <glyph glyph-name="w" unicode="w" horiz-adv-x="726" 
d="M662 350q17 43 34 84t30 69h-134q3 -26 -5 -63t-21 -76l-47 -134l-143 294l-134 -294l-48 134q-13 39 -20.5 76t-3.5 63h-170q13 -28 29.5 -69t34.5 -84l148 -374l145 309l157 -309z" />
    <glyph glyph-name="x" unicode="x" horiz-adv-x="510" 
d="M-2 0h146q0 24 15.5 55.5t37.5 63.5l39 57l40 -57q21 -31 37.5 -63t17.5 -56h183q-19 24 -44.5 61.5t-56.5 80.5l-85 119l72 99q27 38 55 77.5t49 65.5h-146q-1 -25 -17 -56.5t-37 -63.5l-32 -47l-33 47q-22 31 -38 63t-17 57h-183q19 -25 44.5 -62.5t56.5 -80.5l78 -108
l-78 -110q-28 -39 -55.5 -78t-48.5 -64z" />
    <glyph glyph-name="y" unicode="y" horiz-adv-x="536" 
d="M110 -208q63 0 109.5 34t76.5 104l172 414q19 45 38 88t34 71h-144q3 -28 -7 -67t-25 -78l-78 -200l-80 200q-16 39 -25.5 78t-8.5 67h-176q15 -28 33.5 -71t37.5 -88l146 -342l-15 -34q-18 -40 -40.5 -58t-55.5 -18q-20 0 -37 5.5t-33 12.5l12 -104q13 -6 30 -10t36 -4z
" />
    <glyph glyph-name="z" unicode="z" horiz-adv-x="445" 
d="M-1 0h412l18 115q-35 -16 -82.5 -24.5t-88.5 -8.5h-65l249 421h-402l-25 -116q35 16 80 23.5t88 7.5h63z" />
    <glyph glyph-name="braceleft" unicode="{" horiz-adv-x="394" 
d="M351 -158l-1 36q-75 0 -107 20t-32 56q0 10 2.5 19.5t7 19t10 19t12.5 19.5t14.5 19.5t14.5 19.5l14 20t12.5 20.5t10 21.5t7 22t2.5 23q0 43 -34 79.5t-113 48.5q79 12 113 48.5t34 79.5q0 12 -2.5 23t-7 22t-10 21.5t-12.5 20.5t-14.5 20t-14.5 19.5t-14 19.5
t-12.5 19.5t-10 19t-7 19t-2.5 19.5q0 36 32 56t107 20l1 36q-33 5 -61.5 6t-53 -1t-45 -7t-37.5 -12.5t-30 -17t-23 -20.5t-16.5 -23.5t-9.5 -25.5t-3 -26t2.5 -26t7 -25t11 -23t13.5 -21.5t14.5 -20.5l15 -20t14.5 -19t13.5 -18t11 -17.5t7 -17.5t2.5 -17
q0 -37 -39.5 -57.5t-114.5 -19.5v-68q75 1 114.5 -19.5t39.5 -57.5q0 -8 -2.5 -17t-7 -17.5t-11 -17.5t-13.5 -18t-14.5 -19l-15 -20t-14.5 -20.5t-13.5 -21.5t-11 -23t-7 -25t-2.5 -26t3 -26t9.5 -25.5t16.5 -23.5t23 -20.5t30 -17t37.5 -12.5t45 -7t53 -1t61.5 6z" />
    <glyph glyph-name="bar" unicode="|" horiz-adv-x="373" 
d="M131 -200h111v970h-111v-970z" />
    <glyph glyph-name="braceright" unicode="}" horiz-adv-x="394" 
d="M43 767l1 -36q75 0 107 -20t32 -56q0 -10 -2.5 -19.5t-7 -19t-10 -19t-12.5 -19.5t-14 -19.5t-14.5 -19.5t-14.5 -20t-12.5 -20.5t-10 -21.5t-7 -22t-2.5 -23q0 -43 34 -79.5t113 -48.5q-79 -12 -113 -48.5t-34 -79.5q0 -12 2.5 -23t7 -22t10 -21.5t12.5 -20.5t14.5 -20
t14.5 -19.5t14 -19.5t12.5 -19.5t10 -19t7 -19t2.5 -19.5q0 -36 -32 -56t-107 -20l-1 -36q33 -5 61.5 -6t53 1t45 7t37.5 12.5t30 17t23 20.5t16.5 23.5t9.5 25.5t3 26q0 14 -2.5 26.5t-7 24.5t-11 23t-13.5 21.5t-14.5 20.5l-15 20t-14.5 19t-13.5 18t-11 17.5t-7 17.5
t-2.5 17q0 37 39.5 57.5t114.5 19.5v68q-75 -1 -114.5 19.5t-39.5 57.5q0 8 2.5 17t7 17.5t11 17.5t13.5 18t14.5 19l15 20t14.5 20.5t13.5 21.5t11 23t7 25t2.5 26t-3 26t-9.5 25.5t-16.5 23.5t-23 20.5t-30 17t-37.5 12.5t-45 7t-53 1t-61.5 -6z" />
    <glyph glyph-name="asciitilde" unicode="~" horiz-adv-x="501" 
d="M332 243q43 0 74.5 46t51.5 153h-31q-19 -48 -37 -70t-42 -22q-7 0 -14 2t-14 6t-14.5 9t-15 11t-15.5 12t-16 12.5t-16.5 12.5t-17.5 11t-18.5 9t-19 6t-19.5 2q-43 0 -74 -45.5t-52 -153.5h32q18 49 36 70.5t42 21.5q7 0 14 -2t14 -6t14.5 -9t15.5 -11l16 -12t16 -12.5
t16.5 -12.5t17.5 -11t18 -9t18.5 -6t19.5 -2z" />
    <glyph glyph-name="uni00A0" unicode="&#xa0;" horiz-adv-x="202" 
 />
    <glyph glyph-name="exclamdown" unicode="&#xa1;" horiz-adv-x="240" 
d="M156 276h-72l-50 -474h172zM120 510q-35 0 -59.5 -24.5t-24.5 -58.5t24.5 -58.5t59.5 -24.5q34 0 59 24.5t25 58.5t-25 58.5t-59 24.5z" />
    <glyph glyph-name="cent" unicode="&#xa2;" horiz-adv-x="480" 
d="M230 -117l66 9l9 100q40 3 77 15t62 29l10 101q-28 -20 -64.5 -36t-75.5 -17l29 326q33 -6 59.5 -21t45.5 -32l-10 112q-19 12 -40.5 21t-45.5 14l10 112l-66 -10l-9 -96q-23 0 -45.5 -4t-44 -11.5t-40.5 -18.5t-36.5 -25t-32 -31t-26 -36.5t-19.5 -41.5t-12.5 -45.5
t-4.5 -49.5q0 -101 59 -170.5t155 -82.5zM154 244q0 64 35.5 111t88.5 57l-29 -316q-41 16 -68 55t-27 93z" />
    <glyph glyph-name="sterling" unicode="&#xa3;" horiz-adv-x="571" 
d="M142 -13q37 0 70 17.5t55 46.5q37 -23 77.5 -43.5t88.5 -20.5q25 0 51.5 7t45.5 20l14 109q-25 -18 -54 -26.5t-54 -8.5q-34 0 -66.5 12.5t-64.5 28.5q3 13 5 27.5t2 29.5q0 25 -5.5 48.5t-12.5 45.5h112v68h-138q-13 32 -23 65.5t-10 67.5q0 56 35 92t91 36
q44 0 86.5 -15t77.5 -42l-17 118q-33 20 -77.5 31.5t-90.5 11.5q-27 0 -52 -4.5t-47.5 -13t-42 -20.5t-35.5 -27t-28.5 -33t-21 -38t-13 -42t-4.5 -45q0 -37 13 -73t30 -70h-75v-67h114q18 -31 31.5 -60t14.5 -54q-19 7 -39 11.5t-41 4.5q-58 0 -89 -31t-31 -72t32 -66.5
t86 -25.5zM99 71q0 13 12 24t34 11q16 0 32 -5.5t32 -13.5q-10 -22 -27 -35.5t-38 -13.5t-33 8.5t-12 24.5z" />
    <glyph glyph-name="yen" unicode="&#xa5;" horiz-adv-x="659" 
d="M99 143h157q-2 -43 -7 -83t-14 -60h187q-9 20 -14 60t-7 83h159v63h-161v61h161v63h-129l131 217q26 43 51.5 84.5t44.5 68.5h-167q2 -25 -11 -62.5t-34 -73.5l-104 -178l-102 178q-21 36 -35 73.5t-11 62.5h-194q19 -27 45 -68.5t53 -84.5l129 -217h-128v-63h160v-61
h-160v-63z" />
    <glyph glyph-name="section" unicode="&#xa7;" horiz-adv-x="625" 
d="M299 -206q96 0 153 52.5t57 127.5q0 31 -9 55t-25 43q58 22 91.5 66.5t33.5 102.5q0 20 -3.5 37.5t-10 32.5t-15.5 27.5t-20 23.5t-24 20.5t-27 17.5t-29 15t-30.5 13.5t-31 12t-30.5 11t-29 11t-27 11.5t-24 12.5t-20 13.5t-15.5 15t-10 18t-3.5 21q0 28 22 46t62 18
t88.5 -17t91.5 -47l-16 118q-34 19 -78.5 30t-93.5 11q-96 0 -153 -52t-57 -127q0 -31 9 -55.5t25 -43.5q-57 -22 -91 -66t-34 -103q0 -20 3.5 -37.5t10 -32.5t15.5 -28t20 -24t24 -20.5t27 -17.5t29 -15t30.5 -13l31 -12t30.5 -11.5t29 -11t27 -11t24 -12t20 -14
t15.5 -15.5t10 -18t3.5 -21q0 -27 -22 -45.5t-62 -18.5q-44 0 -97 19.5t-100 52.5l16 -118q39 -22 87 -35t102 -13zM138 306q0 28 16 50.5t44 35.5q14 -9 29 -17t30.5 -15t32 -13t32.5 -12.5t31.5 -12.5t30 -12t28 -13t25 -14.5t21 -16t16 -18.5t10 -21.5t3.5 -25.5
q0 -28 -16.5 -50.5t-44.5 -35.5q-14 9 -28.5 16.5t-30.5 14.5t-32 13.5t-32 12.5t-31.5 12t-30.5 12.5t-28 13.5t-24.5 14.5t-21 16t-16 18.5t-10 22t-3.5 25z" />
    <glyph glyph-name="dieresis" unicode="&#xa8;" 
d="M151 572q34 0 54.5 22t20.5 51q0 30 -20.5 52t-54.5 22q-33 0 -54 -22t-21 -52q0 -29 21 -51t54 -22zM349 572q33 0 54 22t21 51q0 30 -21 52t-54 22q-34 0 -54.5 -22t-20.5 -52q0 -29 20.5 -51t54.5 -22z" />
    <glyph glyph-name="copyright" unicode="&#xa9;" horiz-adv-x="811" 
d="M406 -39q32 0 62.5 5t59 14.5t54.5 23.5t49 31.5t43 38.5t36.5 45t29.5 50.5t22 55.5t13.5 60t4.5 63t-4.5 63t-13.5 59.5t-22 55.5t-29.5 51t-36.5 45t-43 38.5t-49 31.5t-54.5 23.5t-59 14.5t-62.5 5q-33 0 -63.5 -5t-59 -14.5t-54.5 -23.5t-49 -31.5t-43 -38.5
t-36.5 -45t-29.5 -51t-22 -55.5t-13.5 -59.5t-4.5 -63t4.5 -63t13.5 -60t22 -55.5t29.5 -50.5t36.5 -45t43 -38.5t49 -31.5t54.5 -23.5t59 -14.5t63.5 -5zM406 5q-29 0 -56 4.5t-52 13t-47.5 21t-42.5 28t-37 34.5t-31.5 40t-25.5 45t-18.5 49.5t-11.5 52.5t-4 55t4 55
t11.5 52.5t18.5 49.5t25.5 45t31.5 40t37 34.5t42.5 28t47.5 21t52 13t56 4.5t55.5 -4.5t51.5 -13t47.5 -21t42.5 -28t37.5 -34.5t31.5 -40t25.5 -45t19 -49.5t11.5 -52.5t4 -55t-4 -55t-11.5 -52.5t-19 -49.5t-25.5 -45t-31.5 -40t-37.5 -34.5t-42.5 -28t-47.5 -21
t-51.5 -13t-55.5 -4.5zM422 123q37 0 73 11t64 30l9 92q-28 -22 -59 -35t-65 -13q-55 0 -91.5 39t-36.5 99q0 59 37 99.5t91 40.5q37 0 68 -16.5t56 -42.5l-14 123q-27 1 -55.5 12t-77.5 11q-20 0 -39.5 -3.5t-37.5 -10.5t-34 -16.5t-30.5 -22t-27 -27t-22 -31.5t-16.5 -35
t-10.5 -37.5t-3.5 -39.5q0 -101 62.5 -164t159.5 -63z" />
    <glyph glyph-name="ordfeminine" unicode="&#xaa;" horiz-adv-x="359" 
d="M116 360q34 0 62 19t44 47q1 -18 3 -36t6 -28l103 10q-7 15 -10.5 42t-3.5 48v122q0 61 -36 95t-106 34q-31 0 -64.5 -7.5t-61.5 -21.5l-9 -71q35 19 61 27t51 8q31 0 49 -15t18 -49v-18l-88 -15q-58 -10 -86 -35t-28 -65t26.5 -65.5t69.5 -25.5zM113 459q0 16 10.5 28.5
t32.5 16.5l66 15v-59q-13 -15 -31 -26.5t-37 -11.5t-30 10.5t-11 26.5z" />
    <glyph glyph-name="guillemotleft" unicode="&#xab;" horiz-adv-x="542" 
d="M279 -5h28l-143 257l143 255h-28l-267 -255zM498 -5h28l-143 257l143 255h-28l-267 -255z" />
    <glyph glyph-name="registered" unicode="&#xae;" horiz-adv-x="491" 
d="M246 286q23 0 45 4.5t42 12.5t37.5 20t33 27t27 32.5t20 38t13 43t4.5 46.5t-4.5 47t-13 43t-20 38t-27 33t-33 27t-37.5 20t-42 12.5t-45 4.5t-45 -4.5t-42 -12.5t-37.5 -20t-33 -27t-27 -33t-20 -38t-13 -43t-4.5 -47t4.5 -46.5t13 -43t20 -38t27 -32.5t33 -27
t37.5 -20t42 -12.5t45 -4.5zM246 321q-78 0 -132 54t-54 135t54 135.5t132 54.5t131 -54.5t53 -135.5t-53 -135t-131 -54zM148 394h75q-4 11 -5.5 35t-1.5 41v15h28l50 -91h72q-7 9 -17.5 25t-20.5 35l-23 41q19 9 30 25.5t11 38.5q0 35 -23.5 55t-63.5 20h-111
q4 -12 6 -35.5t2 -40.5v-88q0 -17 -2 -41t-6 -35zM248 592q18 0 28.5 -9.5t10.5 -24.5t-10.5 -24t-28.5 -9h-32v67h32z" />
    <glyph glyph-name="macron" unicode="&#xaf;" 
d="M102 595h296v82h-296v-82z" />
    <glyph glyph-name="degree" unicode="&#xb0;" horiz-adv-x="376" 
d="M188 409q64 0 108 43.5t44 107.5q0 65 -44 108.5t-108 43.5q-63 0 -108 -43.5t-45 -108.5q0 -64 45 -107.5t108 -43.5zM188 476q-35 0 -59 24t-24 60q0 37 24 61t59 24q36 0 59.5 -24t23.5 -61q0 -36 -23.5 -60t-59.5 -24z" />
    <glyph glyph-name="plusminus" unicode="&#xb1;" horiz-adv-x="612" 
d="M269 154h74v200h195v72h-195v200h-74v-200h-195v-72h195v-200zM74 -3h464v72h-464v-72z" />
    <glyph glyph-name="twosuperior" unicode="&#xb2;" horiz-adv-x="268" 
d="M4 372h240l12 80q-22 -7 -52 -11t-54 -4h-34l35 31q56 48 78.5 78.5t22.5 63.5q0 43 -34 70t-91 27q-29 0 -57.5 -9t-48.5 -22l-11 -69q21 15 44.5 25t47.5 10q23 0 37.5 -12.5t14.5 -34.5q0 -21 -13 -43.5t-47 -67.5z" />
    <glyph glyph-name="threesuperior" unicode="&#xb3;" horiz-adv-x="279" 
d="M126 366q63 0 101.5 27t38.5 70q0 30 -19.5 51t-56.5 29q31 10 48.5 30.5t17.5 48.5q0 37 -32.5 61t-87.5 24q-31 0 -60 -7.5t-48 -17.5l-10 -68q24 12 47 20.5t45 8.5q23 0 35.5 -9.5t12.5 -26.5q0 -19 -14.5 -30t-38.5 -11h-25l-17 -58h42q31 0 46 -10.5t15 -29.5
q0 -18 -14.5 -29t-39.5 -11q-24 0 -49 7t-48 19l5 -66q19 -10 48 -16t58 -6z" />
    <glyph glyph-name="acute" unicode="&#xb4;" 
d="M190 559h71l159 173h-149z" />
    <glyph glyph-name="paragraph" unicode="&#xb6;" horiz-adv-x="701" 
d="M302 217h60v-185v-24.5t-0.5 -27.5t-1.5 -29l-2 -30t-2.5 -29.5t-3 -28t-3.5 -25.5t-4 -21.5t-5 -16.5h120v900h-158q-124 0 -199 -66t-75 -175t75 -175.5t199 -66.5zM522 -200h122q-3 7 -5.5 16.5t-4.5 21.5t-3.5 25.5t-2.5 28t-2 29.5l-2 30t-1.5 29t-0.5 27.5v24.5
v436v24.5t0.5 27.5t1.5 29l2 30t2 29.5t2.5 28t3.5 25.5t4.5 21.5t5.5 16.5h-122v-900z" />
    <glyph glyph-name="periodcentered" unicode="&#xb7;" horiz-adv-x="233" 
d="M117 265q34 0 58.5 24.5t24.5 59.5q0 34 -24.5 58.5t-58.5 24.5q-35 0 -59.5 -24.5t-24.5 -58.5q0 -35 24.5 -59.5t59.5 -24.5z" />
    <glyph glyph-name="cedilla" unicode="&#xb8;" 
d="M238 -217q55 0 89.5 26.5t34.5 67.5q0 35 -27 57.5t-70 22.5h-9l33 60h-59l-61 -114l5 -5q10 3 25 5t28 2q22 0 34.5 -7.5t12.5 -19.5q0 -13 -14.5 -20.5t-40.5 -7.5q-23 0 -46 6t-43 15l7 -70q19 -7 46 -12.5t55 -5.5z" />
    <glyph glyph-name="onesuperior" unicode="&#xb9;" horiz-adv-x="160" 
d="M22 372h119q-6 16 -8.5 47.5t-2.5 56.5v232l-115 -35q10 -13 14 -37.5t4 -49.5v-110q0 -25 -2.5 -56.5t-8.5 -47.5z" />
    <glyph glyph-name="ordmasculine" unicode="&#xba;" horiz-adv-x="382" 
d="M191 360q74 0 124 50t50 127t-49.5 126.5t-124.5 49.5q-74 0 -123.5 -49.5t-49.5 -127.5q0 -76 49.5 -126t123.5 -50zM192 421q-33 0 -53.5 29.5t-20.5 84.5q0 56 20 85.5t52 29.5q34 0 54 -29.5t20 -85.5q0 -55 -20 -84.5t-52 -29.5z" />
    <glyph glyph-name="guillemotright" unicode="&#xbb;" horiz-adv-x="542" 
d="M263 -5h-28l143 257l-143 255h28l267 -255zM44 -5h-28l143 257l-143 255h28l267 -255z" />
    <glyph glyph-name="onequarter" unicode="&#xbc;" horiz-adv-x="578" 
d="M252 69h170q-1 -19 -3 -38.5t-6 -30.5h111q-3 11 -5 30.5t-3 38.5h46l10 73q-12 -4 -26.5 -6.5t-29.5 -3.5v84l-93 -20v-65h-78l47 83q14 25 34.5 59t35.5 56h-96q-5 -16 -16 -40.5t-19 -42.5zM37 372h119q-6 16 -8.5 47.5t-2.5 56.5v232l-115 -35q10 -13 14 -37.5
t4 -49.5v-110q0 -25 -2.5 -56.5t-8.5 -47.5zM89 0l404 700h-88l-404 -700h88z" />
    <glyph glyph-name="onehalf" unicode="&#xbd;" horiz-adv-x="579" 
d="M315 0h240l12 80q-22 -7 -52 -11t-54 -4h-34l35 31q56 48 78.5 78.5t22.5 63.5q0 43 -34 70t-91 27q-29 0 -57.5 -9t-48.5 -22l-11 -69q21 15 44.5 25t47.5 10q23 0 37.5 -12.5t14.5 -34.5q0 -21 -13 -43.5t-47 -67.5zM37 372h119q-6 16 -8.5 47.5t-2.5 56.5v232
l-115 -35q10 -13 14 -37.5t4 -49.5v-110q0 -25 -2.5 -56.5t-8.5 -47.5zM89 0l404 700h-88l-404 -700h88z" />
    <glyph glyph-name="threequarters" unicode="&#xbe;" horiz-adv-x="666" 
d="M126 366q63 0 101.5 27t38.5 70q0 30 -19.5 51t-56.5 29q31 10 48.5 30.5t17.5 48.5q0 37 -32.5 61t-87.5 24q-31 0 -60 -7.5t-48 -17.5l-10 -68q24 12 47 20.5t45 8.5q23 0 35.5 -9.5t12.5 -26.5q0 -19 -14.5 -30t-38.5 -11h-25l-17 -58h42q31 0 46 -10.5t15 -29.5
q0 -18 -14.5 -29t-39.5 -11q-24 0 -49 7t-48 19l5 -66q19 -10 48 -16t58 -6zM340 69h170q-1 -19 -3 -38.5t-6 -30.5h111q-3 11 -5 30.5t-3 38.5h46l10 73q-12 -4 -26.5 -6.5t-29.5 -3.5v84l-93 -20v-65h-78l47 83q14 25 34.5 59t35.5 56h-96q-5 -16 -16 -40.5t-19 -42.5z
M178 0l404 700h-88l-404 -700h88z" />
    <glyph glyph-name="questiondown" unicode="&#xbf;" horiz-adv-x="448" 
d="M228 293l-4 -8q9 -7 14.5 -16t5.5 -21q0 -9 -3.5 -17.5t-9 -16.5t-14 -15.5t-18.5 -15t-21 -15t-23 -15.5t-24 -16.5t-24 -17.5t-23 -19.5t-21 -21.5t-18.5 -24t-14 -27t-9 -30.5t-3.5 -34.5q0 -79 59.5 -125.5t161.5 -46.5q51 0 102.5 13t86.5 33l20 122
q-43 -27 -92 -45t-94 -18t-70.5 22.5t-25.5 59.5q0 11 2.5 21.5t7 20t10.5 18t13.5 17t15.5 16.5t16.5 16l17 16t16.5 16t15.5 16.5t13.5 17.5t10.5 18.5t7 20t2.5 21.5q0 33 -23.5 55t-62.5 26zM255 510q-34 0 -58.5 -24.5t-24.5 -58.5t24.5 -58.5t58.5 -24.5
q35 0 59.5 24.5t24.5 58.5t-24.5 58.5t-59.5 24.5z" />
    <glyph glyph-name="Agrave" unicode="&#xc0;" horiz-adv-x="678" 
d="M487 0h198q-4 8 -9.5 18t-11.5 21.5t-13 24.5t-13.5 27t-13.5 28l-14 28t-13.5 27.5t-12.5 26.5l-245 519l-245 -519q-6 -13 -12.5 -26.5t-13.5 -27.5l-14 -28t-13.5 -28t-13.5 -27t-13 -24.5t-11 -21.5t-10 -18h167q-2 26 8.5 67t25.5 81h257q15 -40 26 -81t10 -67z
M234 243l88 200l89 -200h-177zM323 757h72l-82 153h-149z" />
    <glyph glyph-name="Aacute" unicode="&#xc1;" horiz-adv-x="678" 
d="M487 0h198q-4 8 -9.5 18t-11.5 21.5t-13 24.5t-13.5 27t-13.5 28l-14 28t-13.5 27.5t-12.5 26.5l-245 519l-245 -519q-6 -13 -12.5 -26.5t-13.5 -27.5l-14 -28t-13.5 -28t-13.5 -27t-13 -24.5t-11 -21.5t-10 -18h167q-2 26 8.5 67t25.5 81h257q15 -40 26 -81t10 -67z
M234 243l88 200l89 -200h-177zM275 757h72l159 153h-149z" />
    <glyph glyph-name="Acircumflex" unicode="&#xc2;" horiz-adv-x="678" 
d="M487 0h198q-4 8 -9.5 18t-11.5 21.5t-13 24.5t-13.5 27t-13.5 28l-14 28t-13.5 27.5t-12.5 26.5l-245 519l-245 -519q-6 -13 -12.5 -26.5t-13.5 -27.5l-14 -28t-13.5 -28t-13.5 -27t-13 -24.5t-11 -21.5t-10 -18h167q-2 26 8.5 67t25.5 81h257q15 -40 26 -81t10 -67z
M234 243l88 200l89 -200h-177zM160 757h64l110 83l110 -83h66l-116 153h-118z" />
    <glyph glyph-name="Atilde" unicode="&#xc3;" horiz-adv-x="678" 
d="M487 0h198q-4 8 -9.5 18t-11.5 21.5t-13 24.5t-13.5 27t-13.5 28l-14 28t-13.5 27.5t-12.5 26.5l-245 519l-245 -519q-6 -13 -12.5 -26.5t-13.5 -27.5l-14 -28t-13.5 -28t-13.5 -27t-13 -24.5t-11 -21.5t-10 -18h167q-2 26 8.5 67t25.5 81h257q15 -40 26 -81t10 -67z
M234 243l88 200l89 -200h-177zM168 767h26q13 29 28.5 42.5t34.5 13.5q7 0 14 -2t14.5 -5t15.5 -7.5l16 -9t16.5 -9t17.5 -9t18 -7.5t18.5 -5t18.5 -2q38 0 66.5 33t44.5 105h-27q-13 -28 -28 -41.5t-34 -13.5q-7 0 -14 2t-14.5 5t-15.5 7t-16.5 9t-17 9.5t-17 8.5t-18 7
t-18.5 5t-19 2q-37 0 -66 -32.5t-44 -105.5z" />
    <glyph glyph-name="Adieresis" unicode="&#xc4;" horiz-adv-x="678" 
d="M487 0h198q-4 8 -9.5 18t-11.5 21.5t-13 24.5t-13.5 27t-13.5 28l-14 28t-13.5 27.5t-12.5 26.5l-245 519l-245 -519q-6 -13 -12.5 -26.5t-13.5 -27.5l-14 -28t-13.5 -28t-13.5 -27t-13 -24.5t-11 -21.5t-10 -18h167q-2 26 8.5 67t25.5 81h257q15 -40 26 -81t10 -67z
M234 243l88 200l89 -200h-177zM236 764q34 0 54.5 22t20.5 52t-20.5 51.5t-54.5 21.5q-33 0 -54 -21.5t-21 -51.5t21 -52t54 -22zM434 764q33 0 54 22t21 52t-21 51.5t-54 21.5q-34 0 -54.5 -21.5t-20.5 -51.5t20.5 -52t54.5 -22z" />
    <glyph glyph-name="Aring" unicode="&#xc5;" horiz-adv-x="678" 
d="M487 0h198q-4 8 -9.5 18t-11.5 21.5t-13 24.5t-13.5 27t-13.5 28l-14 28t-13.5 27.5t-12.5 26.5l-245 519l-245 -519q-6 -13 -12.5 -26.5t-13.5 -27.5l-14 -28t-13.5 -28t-13.5 -27t-13 -24.5t-11 -21.5t-10 -18h167q-2 26 8.5 67t25.5 81h257q15 -40 26 -81t10 -67z
M234 243l88 200l89 -200h-177zM335 755q51 0 84 31.5t33 76.5q0 46 -33 77.5t-84 31.5t-84 -31.5t-33 -77.5q0 -45 33 -76.5t84 -31.5zM335 808q-25 0 -41 16t-16 39q0 24 16 40t41 16t41 -16t16 -40q0 -23 -16 -39t-41 -16z" />
    <glyph glyph-name="AE" unicode="&#xc6;" horiz-adv-x="981" 
d="M-4 0h167q2 30 23 79t46 93h247q0 -13 -1 -27l-2 -28t-2.5 -28t-3 -27t-3.5 -24.5t-5 -21t-6 -16.5h482l20 133q-10 -4 -22.5 -7.5t-26.5 -6.5t-29.5 -6t-31.5 -5l-32 -4t-31 -3.5t-29.5 -2.5t-27 -1.5t-23.5 -0.5h-79v213h37q49 0 91.5 -4.5t85.5 -14.5l-25 134
q-34 -8 -73 -13.5t-82 -5.5h-34v195h78q13 0 27 -0.5t29.5 -1.5t31.5 -2.5t32 -3.5t31.5 -5t30.5 -6t29 -7t26 -9l-22 135h-537q0 -6 -1.5 -14t-4.5 -17.5t-7 -20t-9 -22t-10.5 -23.5t-11.5 -24l-12 -24t-12 -23t-11.5 -21t-10.5 -19l-173 -294q-7 -12 -15 -25.5
t-16.5 -27.5l-17 -28t-17 -27.5t-16.5 -26.5t-15.5 -24.5t-14 -21t-11.5 -17.5zM287 268l192 333v-333h-192z" />
    <glyph glyph-name="Ccedilla" unicode="&#xc7;" horiz-adv-x="658" 
d="M32 342q0 -31 5 -61t14 -57.5t22.5 -52t30.5 -47t37.5 -41.5t44.5 -34.5t50.5 -27t55 -19.5t59.5 -11l-47 -88l5 -5q10 3 25 5t28 2q22 0 34.5 -7.5t12.5 -19.5q0 -13 -14.5 -20.5t-40.5 -7.5q-23 0 -46 6t-43 15l7 -70q19 -7 46 -12.5t55 -5.5q55 0 89.5 26.5t34.5 67.5
q0 35 -27 57t-70 22h-5t-5 -1l19 34q59 1 114.5 18t98.5 47l12 116q-45 -33 -98.5 -56.5t-113.5 -23.5q-24 0 -47 4.5t-44 13.5t-40 21.5t-35 29.5t-28.5 37t-21.5 43.5t-13.5 50.5t-4.5 57q0 29 4 55.5t12.5 50.5t20 44.5t26.5 37.5t33 30.5t39 22.5t44.5 14t48.5 5
q66 0 119.5 -28.5t96.5 -70.5l-26 167q-42 3 -90.5 19.5t-123.5 16.5q-31 0 -60 -4.5t-56 -13.5t-52 -22t-47 -29.5t-41.5 -36.5t-35.5 -42.5t-28.5 -48t-21.5 -53.5t-13.5 -57.5t-4.5 -61.5z" />
    <glyph glyph-name="Egrave" unicode="&#xc8;" horiz-adv-x="578" 
d="M54 0h482l20 133q-10 -4 -23 -7.5t-27 -6.5t-29.5 -6t-31.5 -5l-32 -4t-31 -3.5t-29.5 -2.5t-27 -1.5t-23.5 -0.5h-78v213h36q49 0 92 -4.5t86 -14.5l-26 134q-34 -8 -72.5 -13.5t-81.5 -5.5h-34v194h77q13 0 27.5 -0.5t30 -1.5t31 -2.5t31.5 -3.5t32 -4.5t31 -5.5
t28.5 -7t25.5 -9l-22 135h-464q3 -7 6 -16t5 -19.5t4 -22.5t3.5 -25t2.5 -26l2 -26t1.5 -26t0.5 -24.5v-22.5v-284v-22t-0.5 -25t-1.5 -26t-2 -26.5t-2 -26t-3 -24.5t-4 -23t-4.5 -19.5t-5.5 -15.5zM300 757h72l-82 153h-149z" />
    <glyph glyph-name="Eacute" unicode="&#xc9;" horiz-adv-x="578" 
d="M54 0h482l20 133q-10 -4 -23 -7.5t-27 -6.5t-29.5 -6t-31.5 -5l-32 -4t-31 -3.5t-29.5 -2.5t-27 -1.5t-23.5 -0.5h-78v213h36q49 0 92 -4.5t86 -14.5l-26 134q-34 -8 -72.5 -13.5t-81.5 -5.5h-34v194h77q13 0 27.5 -0.5t30 -1.5t31 -2.5t31.5 -3.5t32 -4.5t31 -5.5
t28.5 -7t25.5 -9l-22 135h-464q3 -7 6 -16t5 -19.5t4 -22.5t3.5 -25t2.5 -26l2 -26t1.5 -26t0.5 -24.5v-22.5v-284v-22t-0.5 -25t-1.5 -26t-2 -26.5t-2 -26t-3 -24.5t-4 -23t-4.5 -19.5t-5.5 -15.5zM252 757h72l159 153h-149z" />
    <glyph glyph-name="Ecircumflex" unicode="&#xca;" horiz-adv-x="578" 
d="M54 0h482l20 133q-10 -4 -23 -7.5t-27 -6.5t-29.5 -6t-31.5 -5l-32 -4t-31 -3.5t-29.5 -2.5t-27 -1.5t-23.5 -0.5h-78v213h36q49 0 92 -4.5t86 -14.5l-26 134q-34 -8 -72.5 -13.5t-81.5 -5.5h-34v194h77q13 0 27.5 -0.5t30 -1.5t31 -2.5t31.5 -3.5t32 -4.5t31 -5.5
t28.5 -7t25.5 -9l-22 135h-464q3 -7 6 -16t5 -19.5t4 -22.5t3.5 -25t2.5 -26l2 -26t1.5 -26t0.5 -24.5v-22.5v-284v-22t-0.5 -25t-1.5 -26t-2 -26.5t-2 -26t-3 -24.5t-4 -23t-4.5 -19.5t-5.5 -15.5zM137 757h64l110 83l110 -83h66l-116 153h-118z" />
    <glyph glyph-name="Edieresis" unicode="&#xcb;" horiz-adv-x="578" 
d="M54 0h482l20 133q-10 -4 -23 -7.5t-27 -6.5t-29.5 -6t-31.5 -5l-32 -4t-31 -3.5t-29.5 -2.5t-27 -1.5t-23.5 -0.5h-78v213h36q49 0 92 -4.5t86 -14.5l-26 134q-34 -8 -72.5 -13.5t-81.5 -5.5h-34v194h77q13 0 27.5 -0.5t30 -1.5t31 -2.5t31.5 -3.5t32 -4.5t31 -5.5
t28.5 -7t25.5 -9l-22 135h-464q3 -7 6 -16t5 -19.5t4 -22.5t3.5 -25t2.5 -26l2 -26t1.5 -26t0.5 -24.5v-22.5v-284v-22t-0.5 -25t-1.5 -26t-2 -26.5t-2 -26t-3 -24.5t-4 -23t-4.5 -19.5t-5.5 -15.5zM213 764q34 0 54.5 22t20.5 52t-20.5 51.5t-54.5 21.5q-33 0 -54 -21.5
t-21 -51.5t21 -52t54 -22zM411 764q33 0 54 22t21 52t-21 51.5t-54 21.5q-34 0 -54.5 -21.5t-20.5 -51.5t20.5 -52t54.5 -22z" />
    <glyph glyph-name="Igrave" unicode="&#xcc;" horiz-adv-x="302" 
d="M54 0h194q-3 7 -5.5 15.5t-4.5 19t-3.5 22.5t-3 25t-2.5 26t-1.5 26.5t-1 26.5t-0.5 25v22v284v22.5t0.5 24.5t1 26.5t1.5 26.5t2.5 26t3 25t3.5 22.5t4.5 19.5t5.5 15h-194q3 -6 5.5 -15t4.5 -19.5t4 -22.5t3 -25l2 -26t2 -26.5t1.5 -26.5t0.5 -25v-22v-284v-22
t-0.5 -25t-1.5 -26.5t-2 -26.5l-2 -26t-3 -25t-4 -22.5t-4.5 -19t-5.5 -15.5zM139 757h72l-82 153h-149z" />
    <glyph glyph-name="Iacute" unicode="&#xcd;" horiz-adv-x="302" 
d="M54 0h194q-3 7 -5.5 15.5t-4.5 19t-3.5 22.5t-3 25t-2.5 26t-1.5 26.5t-1 26.5t-0.5 25v22v284v22.5t0.5 24.5t1 26.5t1.5 26.5t2.5 26t3 25t3.5 22.5t4.5 19.5t5.5 15h-194q3 -6 5.5 -15t4.5 -19.5t4 -22.5t3 -25l2 -26t2 -26.5t1.5 -26.5t0.5 -25v-22v-284v-22
t-0.5 -25t-1.5 -26.5t-2 -26.5l-2 -26t-3 -25t-4 -22.5t-4.5 -19t-5.5 -15.5zM91 757h72l159 153h-149z" />
    <glyph glyph-name="Icircumflex" unicode="&#xce;" horiz-adv-x="302" 
d="M54 0h194q-3 7 -5.5 15.5t-4.5 19t-3.5 22.5t-3 25t-2.5 26t-1.5 26.5t-1 26.5t-0.5 25v22v284v22.5t0.5 24.5t1 26.5t1.5 26.5t2.5 26t3 25t3.5 22.5t4.5 19.5t5.5 15h-194q3 -6 5.5 -15t4.5 -19.5t4 -22.5t3 -25l2 -26t2 -26.5t1.5 -26.5t0.5 -25v-22v-284v-22
t-0.5 -25t-1.5 -26.5t-2 -26.5l-2 -26t-3 -25t-4 -22.5t-4.5 -19t-5.5 -15.5zM-24 757h64l110 83l110 -83h66l-116 153h-118z" />
    <glyph glyph-name="Idieresis" unicode="&#xcf;" horiz-adv-x="302" 
d="M54 0h194q-3 7 -5.5 15.5t-4.5 19t-3.5 22.5t-3 25t-2.5 26t-1.5 26.5t-1 26.5t-0.5 25v22v284v22.5t0.5 24.5t1 26.5t1.5 26.5t2.5 26t3 25t3.5 22.5t4.5 19.5t5.5 15h-194q3 -6 5.5 -15t4.5 -19.5t4 -22.5t3 -25l2 -26t2 -26.5t1.5 -26.5t0.5 -25v-22v-284v-22
t-0.5 -25t-1.5 -26.5t-2 -26.5l-2 -26t-3 -25t-4 -22.5t-4.5 -19t-5.5 -15.5zM52 764q34 0 54.5 22t20.5 52t-20.5 51.5t-54.5 21.5q-33 0 -54 -21.5t-21 -51.5t21 -52t54 -22zM250 764q33 0 54 22t21 52t-21 51.5t-54 21.5q-34 0 -54.5 -21.5t-20.5 -51.5t20.5 -52
t54.5 -22z" />
    <glyph glyph-name="Eth" unicode="&#xd0;" horiz-adv-x="738" 
d="M64 0h254q37 0 71.5 5t66.5 15t61 24.5t54 33.5t46 41.5t37.5 49t28 56.5t17.5 62.5t6 68.5q0 33 -5.5 64.5t-16.5 60t-27 54t-36.5 47.5t-45.5 40.5t-53.5 33t-61 24.5t-68 15t-74.5 5h-256q3 -7 6 -16t5 -19.5t4 -22.5t3.5 -25t2.5 -26l2 -26t1.5 -26t0.5 -24.5v-22.5
v-98h-79l-17 -88h96v-98v-22t-0.5 -25t-1.5 -26t-2 -26.5t-2 -26t-3 -24.5t-4 -23t-4.5 -19.5t-5.5 -15.5zM360 306l18 88h-142v204h76q106 0 172 -68.5t66 -178.5q0 -29 -4.5 -55t-13 -49t-21 -42.5t-28 -36t-34.5 -29.5t-40.5 -21.5t-46 -13t-50.5 -4.5h-76v206h124z" />
    <glyph glyph-name="Ntilde" unicode="&#xd1;" horiz-adv-x="737" 
d="M662 493v22.5t0.5 24.5t1.5 26l2 26t2.5 26t3.5 24.5t4 22.5t4.5 19.5t5.5 15.5h-164q3 -6 5.5 -15t4.5 -19t4 -22t3.5 -24.5t2.5 -25t2 -25.5l2 -26t1.5 -24.5t0.5 -22.5l3 -216l-23 21l-453 415v-509v-22t-0.5 -25t-1.5 -26l-2 -26t-2.5 -26t-3.5 -24.5t-4 -22.5
t-4.5 -19.5t-5.5 -15.5h164q-3 7 -6 16t-5.5 20.5t-4.5 23.5t-3.5 25.5t-2.5 26.5t-1.5 26.5t-1 26t-0.5 23.5l-3 230l19 -18l456 -416v509zM205 767h26q13 29 28.5 42.5t34.5 13.5q7 0 14 -2t14.5 -5t15.5 -7.5l16 -9t16.5 -9t17.5 -9t18 -7.5t18.5 -5t18.5 -2
q38 0 66.5 33t44.5 105h-27q-13 -28 -28 -41.5t-34 -13.5q-7 0 -14 2t-14.5 5t-15.5 7t-16.5 9t-17 9.5t-17 8.5t-18 7t-18.5 5t-19 2q-37 0 -66 -32.5t-44 -105.5z" />
    <glyph glyph-name="Ograve" unicode="&#xd2;" horiz-adv-x="784" 
d="M752 350q0 32 -4.5 62.5t-13.5 58t-22 53t-29 47.5t-35.5 41.5t-42 35t-47 28t-51 20.5t-55 12.5t-58.5 4.5t-58.5 -4.5t-55.5 -13t-52 -21t-47.5 -28.5t-42.5 -35t-36.5 -41.5t-29.5 -47.5t-22 -52.5t-13.5 -57.5t-4.5 -62t4.5 -62.5t13.5 -58t22 -53t29 -47.5
t35.5 -41.5t42 -35t47 -28t51 -20.5t55 -12.5t58.5 -4.5t58.5 4.5t55.5 13t52 21t47.5 28.5t42.5 35t36.5 41.5t29.5 47.5t22 52.5t13.5 57.5t4.5 62zM190 349q0 31 4 58.5t12 51.5t18.5 44.5t24.5 37t30.5 29t34.5 21t38.5 13t41.5 4.5t41 -4.5t38 -13t34 -21.5t29.5 -29.5
t24 -37t18 -44.5t11.5 -51t4 -58t-4 -58.5t-11.5 -51.5t-18.5 -44.5t-25 -37t-30 -29t-34.5 -21t-38.5 -13t-42 -4.5q-21 0 -40.5 4.5t-38 13t-34 21.5t-29.5 29.5t-24.5 37t-18 44.5t-11.5 51t-4 58zM382 757h72l-82 153h-149z" />
    <glyph glyph-name="Oacute" unicode="&#xd3;" horiz-adv-x="784" 
d="M752 350q0 32 -4.5 62.5t-13.5 58t-22 53t-29 47.5t-35.5 41.5t-42 35t-47 28t-51 20.5t-55 12.5t-58.5 4.5t-58.5 -4.5t-55.5 -13t-52 -21t-47.5 -28.5t-42.5 -35t-36.5 -41.5t-29.5 -47.5t-22 -52.5t-13.5 -57.5t-4.5 -62t4.5 -62.5t13.5 -58t22 -53t29 -47.5
t35.5 -41.5t42 -35t47 -28t51 -20.5t55 -12.5t58.5 -4.5t58.5 4.5t55.5 13t52 21t47.5 28.5t42.5 35t36.5 41.5t29.5 47.5t22 52.5t13.5 57.5t4.5 62zM190 349q0 31 4 58.5t12 51.5t18.5 44.5t24.5 37t30.5 29t34.5 21t38.5 13t41.5 4.5t41 -4.5t38 -13t34 -21.5t29.5 -29.5
t24 -37t18 -44.5t11.5 -51t4 -58t-4 -58.5t-11.5 -51.5t-18.5 -44.5t-25 -37t-30 -29t-34.5 -21t-38.5 -13t-42 -4.5q-21 0 -40.5 4.5t-38 13t-34 21.5t-29.5 29.5t-24.5 37t-18 44.5t-11.5 51t-4 58zM334 757h72l159 153h-149z" />
    <glyph glyph-name="Ocircumflex" unicode="&#xd4;" horiz-adv-x="784" 
d="M752 350q0 32 -4.5 62.5t-13.5 58t-22 53t-29 47.5t-35.5 41.5t-42 35t-47 28t-51 20.5t-55 12.5t-58.5 4.5t-58.5 -4.5t-55.5 -13t-52 -21t-47.5 -28.5t-42.5 -35t-36.5 -41.5t-29.5 -47.5t-22 -52.5t-13.5 -57.5t-4.5 -62t4.5 -62.5t13.5 -58t22 -53t29 -47.5
t35.5 -41.5t42 -35t47 -28t51 -20.5t55 -12.5t58.5 -4.5t58.5 4.5t55.5 13t52 21t47.5 28.5t42.5 35t36.5 41.5t29.5 47.5t22 52.5t13.5 57.5t4.5 62zM190 349q0 31 4 58.5t12 51.5t18.5 44.5t24.5 37t30.5 29t34.5 21t38.5 13t41.5 4.5t41 -4.5t38 -13t34 -21.5t29.5 -29.5
t24 -37t18 -44.5t11.5 -51t4 -58t-4 -58.5t-11.5 -51.5t-18.5 -44.5t-25 -37t-30 -29t-34.5 -21t-38.5 -13t-42 -4.5q-21 0 -40.5 4.5t-38 13t-34 21.5t-29.5 29.5t-24.5 37t-18 44.5t-11.5 51t-4 58zM219 757h64l110 83l110 -83h66l-116 153h-118z" />
    <glyph glyph-name="Otilde" unicode="&#xd5;" horiz-adv-x="784" 
d="M752 350q0 32 -4.5 62.5t-13.5 58t-22 53t-29 47.5t-35.5 41.5t-42 35t-47 28t-51 20.5t-55 12.5t-58.5 4.5t-58.5 -4.5t-55.5 -13t-52 -21t-47.5 -28.5t-42.5 -35t-36.5 -41.5t-29.5 -47.5t-22 -52.5t-13.5 -57.5t-4.5 -62t4.5 -62.5t13.5 -58t22 -53t29 -47.5
t35.5 -41.5t42 -35t47 -28t51 -20.5t55 -12.5t58.5 -4.5t58.5 4.5t55.5 13t52 21t47.5 28.5t42.5 35t36.5 41.5t29.5 47.5t22 52.5t13.5 57.5t4.5 62zM190 349q0 31 4 58.5t12 51.5t18.5 44.5t24.5 37t30.5 29t34.5 21t38.5 13t41.5 4.5t41 -4.5t38 -13t34 -21.5t29.5 -29.5
t24 -37t18 -44.5t11.5 -51t4 -58t-4 -58.5t-11.5 -51.5t-18.5 -44.5t-25 -37t-30 -29t-34.5 -21t-38.5 -13t-42 -4.5q-21 0 -40.5 4.5t-38 13t-34 21.5t-29.5 29.5t-24.5 37t-18 44.5t-11.5 51t-4 58zM227 767h26q13 29 28.5 42.5t34.5 13.5q7 0 14 -2t14.5 -5t15.5 -7.5
l16 -9t16.5 -9t17.5 -9t18 -7.5t18.5 -5t18.5 -2q38 0 66.5 33t44.5 105h-27q-13 -28 -28 -41.5t-34 -13.5q-7 0 -14 2t-14.5 5t-15.5 7t-16.5 9t-17 9.5t-17 8.5t-18 7t-18.5 5t-19 2q-37 0 -66 -32.5t-44 -105.5z" />
    <glyph glyph-name="Odieresis" unicode="&#xd6;" horiz-adv-x="784" 
d="M752 350q0 32 -4.5 62.5t-13.5 58t-22 53t-29 47.5t-35.5 41.5t-42 35t-47 28t-51 20.5t-55 12.5t-58.5 4.5t-58.5 -4.5t-55.5 -13t-52 -21t-47.5 -28.5t-42.5 -35t-36.5 -41.5t-29.5 -47.5t-22 -52.5t-13.5 -57.5t-4.5 -62t4.5 -62.5t13.5 -58t22 -53t29 -47.5
t35.5 -41.5t42 -35t47 -28t51 -20.5t55 -12.5t58.5 -4.5t58.5 4.5t55.5 13t52 21t47.5 28.5t42.5 35t36.5 41.5t29.5 47.5t22 52.5t13.5 57.5t4.5 62zM190 349q0 31 4 58.5t12 51.5t18.5 44.5t24.5 37t30.5 29t34.5 21t38.5 13t41.5 4.5t41 -4.5t38 -13t34 -21.5t29.5 -29.5
t24 -37t18 -44.5t11.5 -51t4 -58t-4 -58.5t-11.5 -51.5t-18.5 -44.5t-25 -37t-30 -29t-34.5 -21t-38.5 -13t-42 -4.5q-21 0 -40.5 4.5t-38 13t-34 21.5t-29.5 29.5t-24.5 37t-18 44.5t-11.5 51t-4 58zM295 764q34 0 54.5 22t20.5 52t-20.5 51.5t-54.5 21.5q-33 0 -54 -21.5
t-21 -51.5t21 -52t54 -22zM493 764q33 0 54 22t21 52t-21 51.5t-54 21.5q-34 0 -54.5 -21.5t-20.5 -51.5t20.5 -52t54.5 -22z" />
    <glyph glyph-name="multiply" unicode="&#xd7;" horiz-adv-x="612" 
d="M153 147l152 152l152 -152l53 52l-152 152l152 152l-51 50l-151 -151l-152 151l-53 -52l152 -152l-152 -152z" />
    <glyph glyph-name="Oslash" unicode="&#xd8;" horiz-adv-x="784" 
d="M29 0h107l45 51q44 -31 97.5 -47.5t111.5 -16.5q30 0 58.5 4.5t55.5 13t52 21t47.5 28.5t42.5 35t36.5 41.5t29.5 47.5t22 52.5t13.5 57.5t4.5 62q0 74 -24 136.5t-65 109.5l92 104h-107l-45 -51q-44 31 -97.5 47.5t-111.5 16.5q-30 0 -58.5 -4.5t-55.5 -13t-52 -21
t-47.5 -28.5t-42.5 -35t-36.5 -41.5t-29.5 -47.5t-22 -52.5t-13.5 -57.5t-4.5 -62q0 -74 24 -136.5t65 -109.5zM190 349q0 31 4 58.5t12 51.5t18.5 44.5t24.5 37t30.5 29t34.5 21t38.5 13t41.5 4.5q37 0 69.5 -13.5t57.5 -38.5l-305 -344q-13 28 -19.5 62.5t-6.5 74.5z
M594 349q0 -31 -4 -58.5t-11.5 -51.5t-18.5 -44.5t-25 -37t-30 -29t-34.5 -21t-38.5 -13t-42 -4.5q-37 0 -69.5 13.5t-58.5 39.5l306 345q12 -28 19 -63.5t7 -75.5z" />
    <glyph glyph-name="Ugrave" unicode="&#xd9;" horiz-adv-x="716" 
d="M358 -13q32 0 62 5t56.5 14.5t49.5 23.5t42 32t34 40.5t25 49t15.5 56.5t5.5 64v220v22.5t0.5 24.5t1.5 26t2 26.5t2.5 26t3.5 24.5t4 23t4.5 19.5t5.5 15.5h-164q3 -7 5.5 -15.5t4.5 -19.5t4 -23t3.5 -24.5t2.5 -26t2 -26.5t1.5 -26t0.5 -24.5v-22.5v-226
q0 -84 -45.5 -127t-112.5 -43t-112 43t-45 126v227v22.5t0.5 24.5t1.5 26.5t2 26.5l2 26t3 25t4 22.5t4.5 19.5t5.5 15h-194q3 -6 5.5 -15t4.5 -19.5t3.5 -22.5t2.5 -25l2 -26t2 -26.5t1.5 -26.5t0.5 -25v-22v-232q0 -33 5.5 -62t15.5 -54t25 -46.5t34.5 -39t42.5 -31
t49.5 -22.5t56 -13.5t61.5 -4.5zM361 757h72l-82 153h-149z" />
    <glyph glyph-name="Uacute" unicode="&#xda;" horiz-adv-x="716" 
d="M358 -13q32 0 62 5t56.5 14.5t49.5 23.5t42 32t34 40.5t25 49t15.5 56.5t5.5 64v220v22.5t0.5 24.5t1.5 26t2 26.5t2.5 26t3.5 24.5t4 23t4.5 19.5t5.5 15.5h-164q3 -7 5.5 -15.5t4.5 -19.5t4 -23t3.5 -24.5t2.5 -26t2 -26.5t1.5 -26t0.5 -24.5v-22.5v-226
q0 -84 -45.5 -127t-112.5 -43t-112 43t-45 126v227v22.5t0.5 24.5t1.5 26.5t2 26.5l2 26t3 25t4 22.5t4.5 19.5t5.5 15h-194q3 -6 5.5 -15t4.5 -19.5t3.5 -22.5t2.5 -25l2 -26t2 -26.5t1.5 -26.5t0.5 -25v-22v-232q0 -33 5.5 -62t15.5 -54t25 -46.5t34.5 -39t42.5 -31
t49.5 -22.5t56 -13.5t61.5 -4.5zM313 757h72l159 153h-149z" />
    <glyph glyph-name="Ucircumflex" unicode="&#xdb;" horiz-adv-x="716" 
d="M358 -13q32 0 62 5t56.5 14.5t49.5 23.5t42 32t34 40.5t25 49t15.5 56.5t5.5 64v220v22.5t0.5 24.5t1.5 26t2 26.5t2.5 26t3.5 24.5t4 23t4.5 19.5t5.5 15.5h-164q3 -7 5.5 -15.5t4.5 -19.5t4 -23t3.5 -24.5t2.5 -26t2 -26.5t1.5 -26t0.5 -24.5v-22.5v-226
q0 -84 -45.5 -127t-112.5 -43t-112 43t-45 126v227v22.5t0.5 24.5t1.5 26.5t2 26.5l2 26t3 25t4 22.5t4.5 19.5t5.5 15h-194q3 -6 5.5 -15t4.5 -19.5t3.5 -22.5t2.5 -25l2 -26t2 -26.5t1.5 -26.5t0.5 -25v-22v-232q0 -33 5.5 -62t15.5 -54t25 -46.5t34.5 -39t42.5 -31
t49.5 -22.5t56 -13.5t61.5 -4.5zM198 757h64l110 83l110 -83h66l-116 153h-118z" />
    <glyph glyph-name="Udieresis" unicode="&#xdc;" horiz-adv-x="716" 
d="M358 -13q32 0 62 5t56.5 14.5t49.5 23.5t42 32t34 40.5t25 49t15.5 56.5t5.5 64v220v22.5t0.5 24.5t1.5 26t2 26.5t2.5 26t3.5 24.5t4 23t4.5 19.5t5.5 15.5h-164q3 -7 5.5 -15.5t4.5 -19.5t4 -23t3.5 -24.5t2.5 -26t2 -26.5t1.5 -26t0.5 -24.5v-22.5v-226
q0 -84 -45.5 -127t-112.5 -43t-112 43t-45 126v227v22.5t0.5 24.5t1.5 26.5t2 26.5l2 26t3 25t4 22.5t4.5 19.5t5.5 15h-194q3 -6 5.5 -15t4.5 -19.5t3.5 -22.5t2.5 -25l2 -26t2 -26.5t1.5 -26.5t0.5 -25v-22v-232q0 -33 5.5 -62t15.5 -54t25 -46.5t34.5 -39t42.5 -31
t49.5 -22.5t56 -13.5t61.5 -4.5zM274 764q34 0 54.5 22t20.5 52t-20.5 51.5t-54.5 21.5q-33 0 -54 -21.5t-21 -51.5t21 -52t54 -22zM472 764q33 0 54 22t21 52t-21 51.5t-54 21.5q-34 0 -54.5 -21.5t-20.5 -51.5t20.5 -52t54.5 -22z" />
    <glyph glyph-name="Yacute" unicode="&#xdd;" horiz-adv-x="676" 
d="M238 0h198q-3 7 -6 16.5t-5 21.5t-4 25.5t-3.5 28t-2.5 29.5l-2 30t-1.5 29t-0.5 27.5v24.5v31l173 285q25 43 51 84t45 68h-168q3 -25 -10 -62.5t-34 -73.5l-110 -188l-112 188q-21 36 -35 73.5t-11 62.5h-204q19 -27 44.5 -68t51.5 -84l170 -281v-35v-24.5t-0.5 -27.5
t-1.5 -29l-2 -30t-2.5 -29.5t-3.5 -28t-4 -25.5t-4.5 -21.5t-5.5 -16.5zM296 757h72l159 153h-149z" />
    <glyph glyph-name="Thorn" unicode="&#xde;" horiz-adv-x="614" 
d="M54 0h194q-9 19 -13.5 55t-6.5 75h86q122 0 197.5 61.5t75.5 162.5q0 97 -71.5 157t-196.5 60h-91q2 38 6.5 74t13.5 55h-194q3 -6 5.5 -15t4.5 -19.5t4 -22.5t3 -25l2 -26t2 -26.5t1.5 -26.5t0.5 -25v-22v-284v-22t-0.5 -25t-1.5 -26.5t-2 -26.5l-2 -26t-3 -25t-4 -22.5
t-4.5 -19t-5.5 -15.5zM306 470q62 0 98 -32.5t36 -88.5q0 -57 -36.5 -89t-99.5 -32h-78v242h80z" />
    <glyph glyph-name="germandbls" unicode="&#xdf;" horiz-adv-x="679" 
d="M-2 418h108v-241v-22.5t-0.5 -24t-1.5 -25t-2 -24.5t-2.5 -23.5t-3.5 -22t-4.5 -19.5t-5.5 -16h159v521q0 59 29 93.5t77 34.5q43 0 70 -26t27 -71q0 -44 -27.5 -90t-90.5 -100l84 -59q49 -34 74.5 -65.5t25.5 -65.5q0 -40 -25.5 -66t-70.5 -26q-25 0 -53 11t-55 33
l19 -112q29 -11 54.5 -15.5t70.5 -4.5q21 0 40 3.5t37 10.5t34 16.5t29.5 21.5t24 26.5t18 31t11.5 34.5t4 37q0 57 -37.5 110.5t-110.5 102.5l-27 17q41 36 68.5 77.5t27.5 87.5q0 76 -61 122.5t-162 46.5q-110 0 -176.5 -63.5t-67.5 -170.5h-89z" />
    <glyph glyph-name="agrave" unicode="&#xe0;" horiz-adv-x="530" 
d="M174 -10q49 0 91.5 28.5t67.5 70.5q1 -26 4 -53.5t8 -42.5l146 15q-11 21 -16.5 60t-5.5 69v187q0 90 -52.5 140t-154.5 50q-47 0 -95.5 -11.5t-88.5 -32.5l-14 -102q52 30 90.5 42t75.5 12q48 0 75 -23.5t27 -74.5v-28l-134 -22q-87 -14 -127.5 -52t-40.5 -97t40 -97
t104 -38zM162 136q0 24 16 41.5t50 24.5l104 23v-86q-19 -24 -47 -42t-59 -18q-30 0 -47 16t-17 41zM239 560h71l-81 173h-149z" />
    <glyph glyph-name="aacute" unicode="&#xe1;" horiz-adv-x="530" 
d="M174 -10q49 0 91.5 28.5t67.5 70.5q1 -26 4 -53.5t8 -42.5l146 15q-11 21 -16.5 60t-5.5 69v187q0 90 -52.5 140t-154.5 50q-47 0 -95.5 -11.5t-88.5 -32.5l-14 -102q52 30 90.5 42t75.5 12q48 0 75 -23.5t27 -74.5v-28l-134 -22q-87 -14 -127.5 -52t-40.5 -97t40 -97
t104 -38zM162 136q0 24 16 41.5t50 24.5l104 23v-86q-19 -24 -47 -42t-59 -18q-30 0 -47 16t-17 41zM190 560h71l159 173h-149z" />
    <glyph glyph-name="acircumflex" unicode="&#xe2;" horiz-adv-x="530" 
d="M174 -10q49 0 91.5 28.5t67.5 70.5q1 -26 4 -53.5t8 -42.5l146 15q-11 21 -16.5 60t-5.5 69v187q0 90 -52.5 140t-154.5 50q-47 0 -95.5 -11.5t-88.5 -32.5l-14 -102q52 30 90.5 42t75.5 12q48 0 75 -23.5t27 -74.5v-28l-134 -22q-87 -14 -127.5 -52t-40.5 -97t40 -97
t104 -38zM162 136q0 24 16 41.5t50 24.5l104 23v-86q-19 -24 -47 -42t-59 -18q-30 0 -47 16t-17 41zM75 560h64l110 98l110 -98h66l-116 173h-118z" />
    <glyph glyph-name="atilde" unicode="&#xe3;" horiz-adv-x="530" 
d="M174 -10q49 0 91.5 28.5t67.5 70.5q1 -26 4 -53.5t8 -42.5l146 15q-11 21 -16.5 60t-5.5 69v187q0 90 -52.5 140t-154.5 50q-47 0 -95.5 -11.5t-88.5 -32.5l-14 -102q52 30 90.5 42t75.5 12q48 0 75 -23.5t27 -74.5v-28l-134 -22q-87 -14 -127.5 -52t-40.5 -97t40 -97
t104 -38zM162 136q0 24 16 41.5t50 24.5l104 23v-86q-19 -24 -47 -42t-59 -18q-30 0 -47 16t-17 41zM83 570h26q15 33 30 49t34 16q7 0 14 -2t14.5 -6t15 -9t15.5 -10t16.5 -10.5t17 -10.5t18 -9t18.5 -6t19 -2q37 0 65.5 35.5t45.5 113.5h-27q-14 -32 -29 -48.5t-34 -16.5
q-7 0 -14 2t-14.5 6t-15.5 9t-16 10.5t-16.5 11t-17 10.5t-18 9t-18.5 6t-19 2q-37 0 -65.5 -36t-44.5 -114z" />
    <glyph glyph-name="adieresis" unicode="&#xe4;" horiz-adv-x="530" 
d="M174 -10q49 0 91.5 28.5t67.5 70.5q1 -26 4 -53.5t8 -42.5l146 15q-11 21 -16.5 60t-5.5 69v187q0 90 -52.5 140t-154.5 50q-47 0 -95.5 -11.5t-88.5 -32.5l-14 -102q52 30 90.5 42t75.5 12q48 0 75 -23.5t27 -74.5v-28l-134 -22q-87 -14 -127.5 -52t-40.5 -97t40 -97
t104 -38zM162 136q0 24 16 41.5t50 24.5l104 23v-86q-19 -24 -47 -42t-59 -18q-30 0 -47 16t-17 41zM151 573q34 0 54.5 22t20.5 51q0 30 -20.5 52t-54.5 22q-33 0 -54 -22t-21 -52q0 -29 21 -51t54 -22zM349 573q33 0 54 22t21 51q0 30 -21 52t-54 22q-34 0 -54.5 -22
t-20.5 -52q0 -29 20.5 -51t54.5 -22z" />
    <glyph glyph-name="aring" unicode="&#xe5;" horiz-adv-x="530" 
d="M174 -10q49 0 91.5 28.5t67.5 70.5q1 -26 4 -53.5t8 -42.5l146 15q-11 21 -16.5 60t-5.5 69v187q0 90 -52.5 140t-154.5 50q-47 0 -95.5 -11.5t-88.5 -32.5l-14 -102q52 30 90.5 42t75.5 12q48 0 75 -23.5t27 -74.5v-28l-134 -22q-87 -14 -127.5 -52t-40.5 -97t40 -97
t104 -38zM162 136q0 24 16 41.5t50 24.5l104 23v-86q-19 -24 -47 -42t-59 -18q-30 0 -47 16t-17 41zM250 564q51 0 84 31.5t33 76.5q0 46 -33 77t-84 31t-84 -31t-33 -77q0 -45 33 -76.5t84 -31.5zM250 618q-25 0 -41 16t-16 38q0 23 16 39t41 16t41 -16t16 -39
q0 -22 -16 -38t-41 -16z" />
    <glyph glyph-name="ae" unicode="&#xe6;" horiz-adv-x="834" 
d="M186 -10q59 0 109.5 26t87.5 73q34 -46 90 -72.5t126 -26.5q46 0 92 12.5t77 33.5l11 96q-36 -25 -76 -38.5t-80 -13.5q-63 0 -103 37t-48 109h332q3 134 -61.5 211t-171.5 77q-46 0 -84.5 -16.5t-67.5 -44.5q-22 29 -62 45t-95 16q-47 0 -95.5 -11.5t-88.5 -32.5
l-14 -102q52 28 90.5 41t75.5 13q48 0 75 -23.5t27 -74.5v-28l-134 -22q-87 -15 -127.5 -53t-40.5 -96q0 -59 42 -97t114 -38zM572 424q38 0 66 -29t36 -86h-201q7 54 32.5 84.5t66.5 30.5zM162 136q0 24 16 42.5t50 25.5l105 21q1 -20 5.5 -39t11.5 -37q-25 -31 -57 -50
t-66 -19q-31 0 -48 15.5t-17 40.5z" />
    <glyph glyph-name="ccedilla" unicode="&#xe7;" horiz-adv-x="470" 
d="M258 -217q55 0 89.5 26.5t34.5 67.5q0 35 -27 57t-70 22h-5t-5 -1l19 35q40 1 76 13t64 29l11 99q-26 -23 -60 -38t-69 -15q-64 0 -107 44.5t-43 123.5q0 78 39 126.5t102 48.5q38 0 72.5 -17.5t63.5 -47.5l-20 138q-32 -1 -64.5 8.5t-81.5 9.5q-23 0 -44.5 -4t-42 -12
t-39.5 -19t-35.5 -25.5t-30 -31.5t-24.5 -36.5t-19 -41.5t-12 -46t-4 -50q0 -100 58 -169t153 -84l-48 -90l5 -5q10 3 25 5t28 2q22 0 34.5 -7.5t12.5 -19.5q0 -13 -14.5 -20.5t-40.5 -7.5q-23 0 -46 6t-43 15l7 -70q19 -7 46 -12.5t55 -5.5z" />
    <glyph glyph-name="egrave" unicode="&#xe8;" horiz-adv-x="526" 
d="M294 -10q46 0 92 12.5t77 33.5l11 96q-36 -25 -76 -38.5t-80 -13.5q-62 0 -102 37t-49 109h333q3 134 -62 211t-172 77q-24 0 -46.5 -4t-42.5 -12t-37.5 -19.5t-33 -26t-28 -32t-22.5 -37t-16.5 -40.5t-10 -44t-3.5 -47q0 -29 5 -55.5t14 -50.5t23 -44.5t31.5 -38
t38.5 -31t45.5 -23t52.5 -14.5t58 -5zM268 424q38 0 65.5 -29t35.5 -86h-201q7 54 32.5 84.5t67.5 30.5zM253 560h71l-81 173h-149z" />
    <glyph glyph-name="eacute" unicode="&#xe9;" horiz-adv-x="526" 
d="M294 -10q46 0 92 12.5t77 33.5l11 96q-36 -25 -76 -38.5t-80 -13.5q-62 0 -102 37t-49 109h333q3 134 -62 211t-172 77q-24 0 -46.5 -4t-42.5 -12t-37.5 -19.5t-33 -26t-28 -32t-22.5 -37t-16.5 -40.5t-10 -44t-3.5 -47q0 -29 5 -55.5t14 -50.5t23 -44.5t31.5 -38
t38.5 -31t45.5 -23t52.5 -14.5t58 -5zM268 424q38 0 65.5 -29t35.5 -86h-201q7 54 32.5 84.5t67.5 30.5zM204 560h71l159 173h-149z" />
    <glyph glyph-name="ecircumflex" unicode="&#xea;" horiz-adv-x="526" 
d="M294 -10q46 0 92 12.5t77 33.5l11 96q-36 -25 -76 -38.5t-80 -13.5q-62 0 -102 37t-49 109h333q3 134 -62 211t-172 77q-24 0 -46.5 -4t-42.5 -12t-37.5 -19.5t-33 -26t-28 -32t-22.5 -37t-16.5 -40.5t-10 -44t-3.5 -47q0 -29 5 -55.5t14 -50.5t23 -44.5t31.5 -38
t38.5 -31t45.5 -23t52.5 -14.5t58 -5zM268 424q38 0 65.5 -29t35.5 -86h-201q7 54 32.5 84.5t67.5 30.5zM89 560h64l110 98l110 -98h66l-116 173h-118z" />
    <glyph glyph-name="edieresis" unicode="&#xeb;" horiz-adv-x="526" 
d="M294 -10q46 0 92 12.5t77 33.5l11 96q-36 -25 -76 -38.5t-80 -13.5q-62 0 -102 37t-49 109h333q3 134 -62 211t-172 77q-24 0 -46.5 -4t-42.5 -12t-37.5 -19.5t-33 -26t-28 -32t-22.5 -37t-16.5 -40.5t-10 -44t-3.5 -47q0 -29 5 -55.5t14 -50.5t23 -44.5t31.5 -38
t38.5 -31t45.5 -23t52.5 -14.5t58 -5zM268 424q38 0 65.5 -29t35.5 -86h-201q7 54 32.5 84.5t67.5 30.5zM165 573q34 0 54.5 22t20.5 51q0 30 -20.5 52t-54.5 22q-33 0 -54 -22t-21 -52q0 -29 21 -51t54 -22zM363 573q33 0 54 22t21 51q0 30 -21 52t-54 22q-34 0 -54.5 -22
t-20.5 -52q0 -29 20.5 -51t54.5 -22z" />
    <glyph glyph-name="igrave" unicode="&#xec;" horiz-adv-x="266" 
d="M44 0h178q-3 7 -5.5 16t-4.5 19.5t-3.5 22t-2.5 23.5t-2 24.5t-1.5 25t-0.5 24v22.5v331l-160 -24q4 -7 6.5 -16t5 -19.5t4 -22t2.5 -23.5l2 -24t1.5 -24t0.5 -23.5v-21.5v-133v-22.5t-0.5 -24t-1.5 -25t-2 -24.5t-2.5 -23.5t-3.5 -22t-4.5 -19.5t-5.5 -16zM121 560h71
l-81 173h-149z" />
    <glyph glyph-name="iacute" unicode="&#xed;" horiz-adv-x="266" 
d="M44 0h178q-3 7 -5.5 16t-4.5 19.5t-3.5 22t-2.5 23.5t-2 24.5t-1.5 25t-0.5 24v22.5v331l-160 -24q4 -7 6.5 -16t5 -19.5t4 -22t2.5 -23.5l2 -24t1.5 -24t0.5 -23.5v-21.5v-133v-22.5t-0.5 -24t-1.5 -25t-2 -24.5t-2.5 -23.5t-3.5 -22t-4.5 -19.5t-5.5 -16zM72 560h71
l159 173h-149z" />
    <glyph glyph-name="icircumflex" unicode="&#xee;" horiz-adv-x="266" 
d="M44 0h178q-3 7 -5.5 16t-4.5 19.5t-3.5 22t-2.5 23.5t-2 24.5t-1.5 25t-0.5 24v22.5v331l-160 -24q4 -7 6.5 -16t5 -19.5t4 -22t2.5 -23.5l2 -24t1.5 -24t0.5 -23.5v-21.5v-133v-22.5t-0.5 -24t-1.5 -25t-2 -24.5t-2.5 -23.5t-3.5 -22t-4.5 -19.5t-5.5 -16zM-43 560h64
l110 98l110 -98h66l-116 173h-118z" />
    <glyph glyph-name="idieresis" unicode="&#xef;" horiz-adv-x="266" 
d="M44 0h178q-3 7 -5.5 16t-4.5 19.5t-3.5 22t-2.5 23.5t-2 24.5t-1.5 25t-0.5 24v22.5v331l-160 -24q4 -7 6.5 -16t5 -19.5t4 -22t2.5 -23.5l2 -24t1.5 -24t0.5 -23.5v-21.5v-133v-22.5t-0.5 -24t-1.5 -25t-2 -24.5t-2.5 -23.5t-3.5 -22t-4.5 -19.5t-5.5 -16zM33 573
q34 0 54.5 22t20.5 51q0 30 -20.5 52t-54.5 22q-33 0 -54 -22t-21 -52q0 -29 21 -51t54 -22zM231 573q33 0 54 22t21 51q0 30 -21 52t-54 22q-34 0 -54.5 -22t-20.5 -52q0 -29 20.5 -51t54.5 -22z" />
    <glyph glyph-name="eth" unicode="&#xf0;" horiz-adv-x="568" 
d="M282 -11q29 0 55 5.5t49.5 15.5t44.5 25t38 34t30.5 42.5t23 50t14.5 56t5 62.5q0 94 -41.5 184.5t-122.5 159.5l78 32v62l-132 -53q-32 21 -69 38.5t-79 30.5l-48 -18q34 -19 64.5 -39.5t55.5 -42.5l-76 -31v-63l121 49q31 -34 53 -74t35 -85q-25 35 -59.5 53.5
t-75.5 18.5q-21 0 -40.5 -4t-37.5 -11.5t-34.5 -18.5t-30.5 -25t-26 -30.5t-21.5 -35.5t-16 -39.5t-10 -42.5t-3.5 -45q0 -25 4 -49t11.5 -45.5t18.5 -41t25 -36t30.5 -30.5t35.5 -25t40 -18.5t44 -11.5t47 -4zM168 250q0 81 32 126t86 45q31 0 59.5 -16t49.5 -42
q3 -21 4.5 -43.5t1.5 -45.5q0 -95 -32.5 -145.5t-84.5 -50.5t-84 45t-32 127z" />
    <glyph glyph-name="ntilde" unicode="&#xf1;" horiz-adv-x="576" 
d="M44 0h176q-3 7 -5 15.5t-3.5 19t-3 21.5t-2.5 23t-2 24.5t-1.5 24t-0.5 23v21.5v191q19 23 43 38t52 15q34 0 56.5 -22.5t22.5 -65.5v-156v-21.5t-0.5 -23t-1.5 -24t-2 -24.5t-2.5 -23t-3 -21.5t-3.5 -19t-5 -15.5h176q-3 7 -5 16t-4 19.5t-3.5 22t-2.5 23.5t-1.5 24.5
t-1.5 25t-1 24v22.5v169q0 79 -43 123.5t-112 44.5q-51 0 -91 -26t-67 -69v89l-160 -24q3 -7 6 -16t5 -19.5t4 -21.5t3 -23l2 -24t1.5 -24t0.5 -23v-21v-135v-22.5t-0.5 -24t-1.5 -25t-2 -24.5t-2.5 -23.5t-3.5 -22t-4.5 -19.5t-5.5 -16zM123 570h26q15 33 30 49t34 16
q7 0 14 -2t14.5 -6t15 -9t15.5 -10t16.5 -10.5t17 -10.5t18 -9t18.5 -6t19 -2q37 0 65.5 35.5t45.5 113.5h-27q-14 -32 -29 -48.5t-34 -16.5q-7 0 -14 2t-14.5 6t-15.5 9t-16 10.5t-16.5 11t-17 10.5t-18 9t-18.5 6t-19 2q-37 0 -65.5 -36t-44.5 -114z" />
    <glyph glyph-name="ograve" unicode="&#xf2;" horiz-adv-x="564" 
d="M282 -11q24 0 47 4t44 11.5t40 19t35.5 25.5t30.5 31t25 36.5t18.5 41.5t11.5 45.5t4 49.5q0 25 -4 48.5t-11.5 45t-18 41t-24.5 36.5t-30.5 31t-35.5 25t-40 18.5t-44 11.5t-48 4q-24 0 -47 -4t-44 -11.5t-40 -18.5t-35.5 -25.5t-30.5 -31.5t-25 -36.5t-18.5 -41
t-11.5 -45.5t-4 -50q0 -25 4 -49t11.5 -45.5t18.5 -41t25 -36t30.5 -30.5t35.5 -25t40 -18.5t44 -11.5t47 -4zM284 78q-52 0 -84 45t-32 127t31.5 127t81.5 45q51 0 83 -45t32 -127t-31 -127t-81 -45zM270 560h71l-81 173h-149z" />
    <glyph glyph-name="oacute" unicode="&#xf3;" horiz-adv-x="564" 
d="M282 -11q24 0 47 4t44 11.5t40 19t35.5 25.5t30.5 31t25 36.5t18.5 41.5t11.5 45.5t4 49.5q0 25 -4 48.5t-11.5 45t-18 41t-24.5 36.5t-30.5 31t-35.5 25t-40 18.5t-44 11.5t-48 4q-24 0 -47 -4t-44 -11.5t-40 -18.5t-35.5 -25.5t-30.5 -31.5t-25 -36.5t-18.5 -41
t-11.5 -45.5t-4 -50q0 -25 4 -49t11.5 -45.5t18.5 -41t25 -36t30.5 -30.5t35.5 -25t40 -18.5t44 -11.5t47 -4zM284 78q-52 0 -84 45t-32 127t31.5 127t81.5 45q51 0 83 -45t32 -127t-31 -127t-81 -45zM221 560h71l159 173h-149z" />
    <glyph glyph-name="ocircumflex" unicode="&#xf4;" horiz-adv-x="564" 
d="M282 -11q24 0 47 4t44 11.5t40 19t35.5 25.5t30.5 31t25 36.5t18.5 41.5t11.5 45.5t4 49.5q0 25 -4 48.5t-11.5 45t-18 41t-24.5 36.5t-30.5 31t-35.5 25t-40 18.5t-44 11.5t-48 4q-24 0 -47 -4t-44 -11.5t-40 -18.5t-35.5 -25.5t-30.5 -31.5t-25 -36.5t-18.5 -41
t-11.5 -45.5t-4 -50q0 -25 4 -49t11.5 -45.5t18.5 -41t25 -36t30.5 -30.5t35.5 -25t40 -18.5t44 -11.5t47 -4zM284 78q-52 0 -84 45t-32 127t31.5 127t81.5 45q51 0 83 -45t32 -127t-31 -127t-81 -45zM106 560h64l110 98l110 -98h66l-116 173h-118z" />
    <glyph glyph-name="otilde" unicode="&#xf5;" horiz-adv-x="564" 
d="M282 -11q24 0 47 4t44 11.5t40 19t35.5 25.5t30.5 31t25 36.5t18.5 41.5t11.5 45.5t4 49.5q0 25 -4 48.5t-11.5 45t-18 41t-24.5 36.5t-30.5 31t-35.5 25t-40 18.5t-44 11.5t-48 4q-24 0 -47 -4t-44 -11.5t-40 -18.5t-35.5 -25.5t-30.5 -31.5t-25 -36.5t-18.5 -41
t-11.5 -45.5t-4 -50q0 -25 4 -49t11.5 -45.5t18.5 -41t25 -36t30.5 -30.5t35.5 -25t40 -18.5t44 -11.5t47 -4zM284 78q-52 0 -84 45t-32 127t31.5 127t81.5 45q51 0 83 -45t32 -127t-31 -127t-81 -45zM114 570h26q15 33 30 49t34 16q7 0 14 -2t14.5 -6t15 -9t15.5 -10
t16.5 -10.5t17 -10.5t18 -9t18.5 -6t19 -2q37 0 65.5 35.5t45.5 113.5h-27q-14 -32 -29 -48.5t-34 -16.5q-7 0 -14 2t-14.5 6t-15.5 9t-16 10.5t-16.5 11t-17 10.5t-18 9t-18.5 6t-19 2q-37 0 -65.5 -36t-44.5 -114z" />
    <glyph glyph-name="odieresis" unicode="&#xf6;" horiz-adv-x="564" 
d="M282 -11q24 0 47 4t44 11.5t40 19t35.5 25.5t30.5 31t25 36.5t18.5 41.5t11.5 45.5t4 49.5q0 25 -4 48.5t-11.5 45t-18 41t-24.5 36.5t-30.5 31t-35.5 25t-40 18.5t-44 11.5t-48 4q-24 0 -47 -4t-44 -11.5t-40 -18.5t-35.5 -25.5t-30.5 -31.5t-25 -36.5t-18.5 -41
t-11.5 -45.5t-4 -50q0 -25 4 -49t11.5 -45.5t18.5 -41t25 -36t30.5 -30.5t35.5 -25t40 -18.5t44 -11.5t47 -4zM284 78q-52 0 -84 45t-32 127t31.5 127t81.5 45q51 0 83 -45t32 -127t-31 -127t-81 -45zM182 573q34 0 54.5 22t20.5 51q0 30 -20.5 52t-54.5 22q-33 0 -54 -22
t-21 -52q0 -29 21 -51t54 -22zM380 573q33 0 54 22t21 51q0 30 -21 52t-54 22q-34 0 -54.5 -22t-20.5 -52q0 -29 20.5 -51t54.5 -22z" />
    <glyph glyph-name="divide" unicode="&#xf7;" horiz-adv-x="612" 
d="M306 476q27 0 46.5 18.5t19.5 46.5q0 27 -19.5 45t-46.5 18t-45.5 -18t-18.5 -45q0 -28 18.5 -46.5t45.5 -18.5zM74 314h464v72h-464v-72zM306 96q27 0 46.5 18t19.5 45q0 28 -19.5 46.5t-46.5 18.5t-45.5 -18.5t-18.5 -46.5q0 -27 18.5 -45t45.5 -18z" />
    <glyph glyph-name="oslash" unicode="&#xf8;" horiz-adv-x="564" 
d="M13 0h96l27 32q31 -21 68 -32t78 -11q24 0 47 4t44 11.5t40 19t35.5 25.5t30.5 31t25 36.5t18.5 41.5t11.5 45.5t4 49.5q0 49 -15 92.5t-42 77.5l71 80h-96l-27 -32q-31 20 -68 31.5t-79 11.5q-24 0 -47 -4t-44 -11.5t-40 -18.5t-35.5 -25.5t-30.5 -31.5t-25 -36.5
t-18.5 -41t-11.5 -45.5t-4 -50q0 -50 15 -93t42 -77zM168 250q0 82 31.5 127t81.5 45q21 0 39.5 -8t32.5 -23l-178 -211q-3 16 -5 33.5t-2 36.5zM284 78q-22 0 -40.5 8t-32.5 23l178 211q3 -16 5 -33.5t2 -36.5q0 -82 -31 -127t-81 -45z" />
    <glyph glyph-name="ugrave" unicode="&#xf9;" horiz-adv-x="576" 
d="M215 -11q51 0 91.5 26.5t67.5 69.5v-91l158 14q-3 7 -5.5 16t-4.5 19.5t-3.5 21.5t-2.5 22.5t-2 23.5t-1.5 23.5t-0.5 22v20.5v331l-160 -24q3 -7 6 -16t5 -19.5t4 -21.5t3 -23l2 -24t1.5 -24t0.5 -23v-21v-172q-19 -24 -43.5 -39.5t-52.5 -15.5q-34 0 -56 23t-22 66v334
l-160 -24q3 -7 6 -16t5 -19.5t3.5 -21.5t2.5 -23l2 -24t1.5 -24t0.5 -23v-21v-156q0 -78 42.5 -122.5t111.5 -44.5zM275 560h71l-81 173h-149z" />
    <glyph glyph-name="uacute" unicode="&#xfa;" horiz-adv-x="576" 
d="M215 -11q51 0 91.5 26.5t67.5 69.5v-91l158 14q-3 7 -5.5 16t-4.5 19.5t-3.5 21.5t-2.5 22.5t-2 23.5t-1.5 23.5t-0.5 22v20.5v331l-160 -24q3 -7 6 -16t5 -19.5t4 -21.5t3 -23l2 -24t1.5 -24t0.5 -23v-21v-172q-19 -24 -43.5 -39.5t-52.5 -15.5q-34 0 -56 23t-22 66v334
l-160 -24q3 -7 6 -16t5 -19.5t3.5 -21.5t2.5 -23l2 -24t1.5 -24t0.5 -23v-21v-156q0 -78 42.5 -122.5t111.5 -44.5zM226 560h71l159 173h-149z" />
    <glyph glyph-name="ucircumflex" unicode="&#xfb;" horiz-adv-x="576" 
d="M215 -11q51 0 91.5 26.5t67.5 69.5v-91l158 14q-3 7 -5.5 16t-4.5 19.5t-3.5 21.5t-2.5 22.5t-2 23.5t-1.5 23.5t-0.5 22v20.5v331l-160 -24q3 -7 6 -16t5 -19.5t4 -21.5t3 -23l2 -24t1.5 -24t0.5 -23v-21v-172q-19 -24 -43.5 -39.5t-52.5 -15.5q-34 0 -56 23t-22 66v334
l-160 -24q3 -7 6 -16t5 -19.5t3.5 -21.5t2.5 -23l2 -24t1.5 -24t0.5 -23v-21v-156q0 -78 42.5 -122.5t111.5 -44.5zM111 560h64l110 98l110 -98h66l-116 173h-118z" />
    <glyph glyph-name="udieresis" unicode="&#xfc;" horiz-adv-x="576" 
d="M215 -11q51 0 91.5 26.5t67.5 69.5v-91l158 14q-3 7 -5.5 16t-4.5 19.5t-3.5 21.5t-2.5 22.5t-2 23.5t-1.5 23.5t-0.5 22v20.5v331l-160 -24q3 -7 6 -16t5 -19.5t4 -21.5t3 -23l2 -24t1.5 -24t0.5 -23v-21v-172q-19 -24 -43.5 -39.5t-52.5 -15.5q-34 0 -56 23t-22 66v334
l-160 -24q3 -7 6 -16t5 -19.5t3.5 -21.5t2.5 -23l2 -24t1.5 -24t0.5 -23v-21v-156q0 -78 42.5 -122.5t111.5 -44.5zM187 573q34 0 54.5 22t20.5 51q0 30 -20.5 52t-54.5 22q-33 0 -54 -22t-21 -52q0 -29 21 -51t54 -22zM385 573q33 0 54 22t21 51q0 30 -21 52t-54 22
q-34 0 -54.5 -22t-20.5 -52q0 -29 20.5 -51t54.5 -22z" />
    <glyph glyph-name="yacute" unicode="&#xfd;" horiz-adv-x="536" 
d="M110 -208q63 0 109.5 34t76.5 104l172 414q19 45 38 88t34 71h-144q3 -28 -7 -67t-25 -78l-78 -200l-80 200q-16 39 -25.5 78t-8.5 67h-176q15 -28 33.5 -71t37.5 -88l146 -342l-15 -34q-18 -40 -40.5 -58t-55.5 -18q-20 0 -37 5.5t-33 12.5l12 -104q13 -6 30 -10t36 -4z
M232 560h71l159 173h-149z" />
    <glyph glyph-name="thorn" unicode="&#xfe;" horiz-adv-x="578" 
d="M44 -200h178q-3 7 -5.5 16t-4.5 19.5t-3.5 22t-2.5 23.5t-2 24.5t-1.5 25t-0.5 24v22.5v72q24 -29 57 -44.5t70 -15.5q23 0 45 5t42 14.5t38 23.5t33 31.5t27 38.5t20.5 45t13 51.5t4.5 56.5q0 30 -4 57t-11.5 50.5t-18 44t-24 37.5t-29.5 30t-34 22t-37.5 13.5
t-40.5 4.5q-46 0 -86 -23t-65 -63v298l-160 -23q3 -7 6 -16t5 -19.5t4 -21.5t3 -23l2 -24t1.5 -23.5t0.5 -22.5v-21v-555v-22.5t-0.5 -24t-1.5 -25t-2 -24.5t-2.5 -23.5t-3.5 -22t-4.5 -19.5t-5.5 -16zM298 422q49 0 81 -45t32 -123q0 -81 -33.5 -126.5t-85.5 -45.5
q-25 0 -48.5 11.5t-41.5 32.5v239q20 27 44.5 42t51.5 15z" />
    <glyph glyph-name="ydieresis" unicode="&#xff;" horiz-adv-x="536" 
d="M110 -208q63 0 109.5 34t76.5 104l172 414q19 45 38 88t34 71h-144q3 -28 -7 -67t-25 -78l-78 -200l-80 200q-16 39 -25.5 78t-8.5 67h-176q15 -28 33.5 -71t37.5 -88l146 -342l-15 -34q-18 -40 -40.5 -58t-55.5 -18q-20 0 -37 5.5t-33 12.5l12 -104q13 -6 30 -10t36 -4z
M193 573q34 0 54.5 22t20.5 51q0 30 -20.5 52t-54.5 22q-33 0 -54 -22t-21 -52q0 -29 21 -51t54 -22zM391 573q33 0 54 22t21 51q0 30 -21 52t-54 22q-34 0 -54.5 -22t-20.5 -52q0 -29 20.5 -51t54.5 -22z" />
    <glyph glyph-name="Amacron" unicode="&#x100;" horiz-adv-x="678" 
d="M487 0h198q-4 8 -9.5 18t-11.5 21.5t-13 24.5t-13.5 27t-13.5 28l-14 28t-13.5 27.5t-12.5 26.5l-245 519l-245 -519q-6 -13 -12.5 -26.5t-13.5 -27.5l-14 -28t-13.5 -28t-13.5 -27t-13 -24.5t-11 -21.5t-10 -18h167q-2 26 8.5 67t25.5 81h257q15 -40 26 -81t10 -67z
M234 243l88 200l89 -200h-177zM187 788h296v82h-296v-82z" />
    <glyph glyph-name="amacron" unicode="&#x101;" horiz-adv-x="530" 
d="M174 -10q49 0 91.5 28.5t67.5 70.5q1 -26 4 -53.5t8 -42.5l146 15q-11 21 -16.5 60t-5.5 69v187q0 90 -52.5 140t-154.5 50q-47 0 -95.5 -11.5t-88.5 -32.5l-14 -102q52 30 90.5 42t75.5 12q48 0 75 -23.5t27 -74.5v-28l-134 -22q-87 -14 -127.5 -52t-40.5 -97t40 -97
t104 -38zM162 136q0 24 16 41.5t50 24.5l104 23v-86q-19 -24 -47 -42t-59 -18q-30 0 -47 16t-17 41zM102 596h296v82h-296v-82z" />
    <glyph glyph-name="Abreve" unicode="&#x102;" horiz-adv-x="678" 
d="M487 0h198q-4 8 -9.5 18t-11.5 21.5t-13 24.5t-13.5 27t-13.5 28l-14 28t-13.5 27.5t-12.5 26.5l-245 519l-245 -519q-6 -13 -12.5 -26.5t-13.5 -27.5l-14 -28t-13.5 -28t-13.5 -27t-13 -24.5t-11 -21.5t-10 -18h167q-2 26 8.5 67t25.5 81h257q15 -40 26 -81t10 -67z
M234 243l88 200l89 -200h-177zM335 754q68 0 112 39t50 111h-18q-16 -32 -53.5 -49.5t-90.5 -17.5t-90.5 17.5t-53.5 49.5h-18q6 -72 50 -111t112 -39z" />
    <glyph glyph-name="abreve" unicode="&#x103;" horiz-adv-x="530" 
d="M174 -10q49 0 91.5 28.5t67.5 70.5q1 -26 4 -53.5t8 -42.5l146 15q-11 21 -16.5 60t-5.5 69v187q0 90 -52.5 140t-154.5 50q-47 0 -95.5 -11.5t-88.5 -32.5l-14 -102q52 30 90.5 42t75.5 12q48 0 75 -23.5t27 -74.5v-28l-134 -22q-87 -14 -127.5 -52t-40.5 -97t40 -97
t104 -38zM162 136q0 24 16 41.5t50 24.5l104 23v-86q-19 -24 -47 -42t-59 -18q-30 0 -47 16t-17 41zM250 558q66 0 109 44t50 125h-18q-19 -39 -54 -63t-87 -24t-87 24t-54 63h-18q7 -81 50 -125t109 -44z" />
    <glyph glyph-name="Aogonek" unicode="&#x104;" horiz-adv-x="678" 
d="M605 -209q17 0 36.5 3.5t34.5 8.5l16 70q-11 -4 -24.5 -7t-24.5 -3q-21 0 -33.5 10.5t-12.5 29.5q0 21 23 45.5t64 51.5h1q-4 8 -9.5 18t-11.5 21.5t-13 24.5t-13.5 27t-13.5 28l-14 28t-13.5 27.5t-12.5 26.5l-245 519l-245 -519q-6 -13 -12.5 -26.5t-13.5 -27.5
l-14 -28t-13.5 -28t-13.5 -27t-13 -24.5t-11 -21.5t-10 -18h167q-2 26 8.5 67t25.5 81h257q15 -40 26 -81t10 -67h155q-74 -29 -108 -61t-34 -69q0 -34 29.5 -56.5t75.5 -22.5zM234 243l88 200l89 -200h-177z" />
    <glyph glyph-name="aogonek" unicode="&#x105;" horiz-adv-x="530" 
d="M174 -10q49 0 91.5 28.5t67.5 70.5q1 -26 4 -53.5t8 -42.5l89 9q-66 -28 -96.5 -58.5t-30.5 -65.5q0 -34 29.5 -56.5t75.5 -22.5q17 0 36.5 3.5t34.5 8.5l16 70q-11 -4 -24.5 -7t-24.5 -3q-21 0 -33.5 10.5t-12.5 29.5q0 21 23 45.5t64 51.5q-11 21 -16.5 60t-5.5 69v187
q0 90 -52.5 140t-154.5 50q-47 0 -95.5 -11.5t-88.5 -32.5l-14 -102q52 30 90.5 42t75.5 12q48 0 75 -23.5t27 -74.5v-28l-134 -22q-87 -14 -127.5 -52t-40.5 -97t40 -97t104 -38zM162 136q0 24 16 41.5t50 24.5l104 23v-86q-19 -24 -47 -42t-59 -18q-30 0 -47 16t-17 41z
" />
    <glyph glyph-name="Cacute" unicode="&#x106;" horiz-adv-x="658" 
d="M32 342q0 -31 4.5 -59.5t13.5 -55.5t21.5 -51.5t29 -46t36 -40.5t42 -34.5t47.5 -27.5t52.5 -20.5t57.5 -13t61 -4.5q62 0 121 17t104 48l12 116q-45 -33 -98.5 -56.5t-113.5 -23.5q-24 0 -47 4.5t-44 13.5t-40 21.5t-35 29.5t-28.5 37t-21.5 43.5t-13.5 50.5t-4.5 57
q0 29 4 55.5t12.5 50.5t20 44.5t26.5 37.5t33 30.5t39 22.5t44.5 14t48.5 5q66 0 119.5 -28.5t96.5 -70.5l-26 167q-42 3 -90.5 19.5t-123.5 16.5q-31 0 -60 -4.5t-56 -13.5t-52 -22t-47 -29.5t-41.5 -36.5t-35.5 -42.5t-28.5 -48t-21.5 -53.5t-13.5 -57.5t-4.5 -61.5z
M324 757h72l159 153h-149z" />
    <glyph glyph-name="cacute" unicode="&#x107;" horiz-adv-x="470" 
d="M284 -10q42 0 81 11.5t69 30.5l11 99q-26 -23 -60 -38t-69 -15q-64 0 -107 44.5t-43 123.5q0 78 39 126.5t102 48.5q38 0 72.5 -17.5t63.5 -47.5l-20 138q-32 -1 -64.5 8.5t-81.5 9.5q-23 0 -44.5 -4t-42 -12t-39.5 -19t-35.5 -25.5t-30 -31.5t-24.5 -36.5t-19 -41.5
t-12 -46t-4 -50q0 -28 5 -54t14 -49.5t22.5 -43.5t30.5 -37t37.5 -30.5t44 -22.5t49.5 -14t55 -5zM200 560h71l159 173h-149z" />
    <glyph glyph-name="Ccircumflex" unicode="&#x108;" horiz-adv-x="658" 
d="M32 342q0 -31 4.5 -59.5t13.5 -55.5t21.5 -51.5t29 -46t36 -40.5t42 -34.5t47.5 -27.5t52.5 -20.5t57.5 -13t61 -4.5q62 0 121 17t104 48l12 116q-45 -33 -98.5 -56.5t-113.5 -23.5q-24 0 -47 4.5t-44 13.5t-40 21.5t-35 29.5t-28.5 37t-21.5 43.5t-13.5 50.5t-4.5 57
q0 29 4 55.5t12.5 50.5t20 44.5t26.5 37.5t33 30.5t39 22.5t44.5 14t48.5 5q66 0 119.5 -28.5t96.5 -70.5l-26 167q-42 3 -90.5 19.5t-123.5 16.5q-31 0 -60 -4.5t-56 -13.5t-52 -22t-47 -29.5t-41.5 -36.5t-35.5 -42.5t-28.5 -48t-21.5 -53.5t-13.5 -57.5t-4.5 -61.5z
M209 757h64l110 83l110 -83h66l-116 153h-118z" />
    <glyph glyph-name="ccircumflex" unicode="&#x109;" horiz-adv-x="470" 
d="M284 -10q42 0 81 11.5t69 30.5l11 99q-26 -23 -60 -38t-69 -15q-64 0 -107 44.5t-43 123.5q0 78 39 126.5t102 48.5q38 0 72.5 -17.5t63.5 -47.5l-20 138q-32 -1 -64.5 8.5t-81.5 9.5q-23 0 -44.5 -4t-42 -12t-39.5 -19t-35.5 -25.5t-30 -31.5t-24.5 -36.5t-19 -41.5
t-12 -46t-4 -50q0 -28 5 -54t14 -49.5t22.5 -43.5t30.5 -37t37.5 -30.5t44 -22.5t49.5 -14t55 -5zM85 560h64l110 98l110 -98h66l-116 173h-118z" />
    <glyph glyph-name="Cdotaccent" unicode="&#x10a;" horiz-adv-x="658" 
d="M32 342q0 -31 4.5 -59.5t13.5 -55.5t21.5 -51.5t29 -46t36 -40.5t42 -34.5t47.5 -27.5t52.5 -20.5t57.5 -13t61 -4.5q62 0 121 17t104 48l12 116q-45 -33 -98.5 -56.5t-113.5 -23.5q-24 0 -47 4.5t-44 13.5t-40 21.5t-35 29.5t-28.5 37t-21.5 43.5t-13.5 50.5t-4.5 57
q0 29 4 55.5t12.5 50.5t20 44.5t26.5 37.5t33 30.5t39 22.5t44.5 14t48.5 5q66 0 119.5 -28.5t96.5 -70.5l-26 167q-42 3 -90.5 19.5t-123.5 16.5q-31 0 -60 -4.5t-56 -13.5t-52 -22t-47 -29.5t-41.5 -36.5t-35.5 -42.5t-28.5 -48t-21.5 -53.5t-13.5 -57.5t-4.5 -61.5z
M384 763q34 0 56 22t22 53t-22 53.5t-56 22.5t-56 -22.5t-22 -53.5t22 -53t56 -22z" />
    <glyph glyph-name="cdotaccent" unicode="&#x10b;" horiz-adv-x="470" 
d="M284 -10q42 0 81 11.5t69 30.5l11 99q-26 -23 -60 -38t-69 -15q-64 0 -107 44.5t-43 123.5q0 78 39 126.5t102 48.5q38 0 72.5 -17.5t63.5 -47.5l-20 138q-32 -1 -64.5 8.5t-81.5 9.5q-23 0 -44.5 -4t-42 -12t-39.5 -19t-35.5 -25.5t-30 -31.5t-24.5 -36.5t-19 -41.5
t-12 -46t-4 -50q0 -28 5 -54t14 -49.5t22.5 -43.5t30.5 -37t37.5 -30.5t44 -22.5t49.5 -14t55 -5zM260 571q34 0 56 22.5t22 53.5t-22 53.5t-56 22.5t-56 -22.5t-22 -53.5t22 -53.5t56 -22.5z" />
    <glyph glyph-name="Ccaron" unicode="&#x10c;" horiz-adv-x="658" 
d="M32 342q0 -31 4.5 -59.5t13.5 -55.5t21.5 -51.5t29 -46t36 -40.5t42 -34.5t47.5 -27.5t52.5 -20.5t57.5 -13t61 -4.5q62 0 121 17t104 48l12 116q-45 -33 -98.5 -56.5t-113.5 -23.5q-24 0 -47 4.5t-44 13.5t-40 21.5t-35 29.5t-28.5 37t-21.5 43.5t-13.5 50.5t-4.5 57
q0 29 4 55.5t12.5 50.5t20 44.5t26.5 37.5t33 30.5t39 22.5t44.5 14t48.5 5q66 0 119.5 -28.5t96.5 -70.5l-26 167q-42 3 -90.5 19.5t-123.5 16.5q-31 0 -60 -4.5t-56 -13.5t-52 -22t-47 -29.5t-41.5 -36.5t-35.5 -42.5t-28.5 -48t-21.5 -53.5t-13.5 -57.5t-4.5 -61.5z
M325 757h118l116 153h-64l-110 -82l-110 82h-66z" />
    <glyph glyph-name="ccaron" unicode="&#x10d;" horiz-adv-x="470" 
d="M284 -10q42 0 81 11.5t69 30.5l11 99q-26 -23 -60 -38t-69 -15q-64 0 -107 44.5t-43 123.5q0 78 39 126.5t102 48.5q38 0 72.5 -17.5t63.5 -47.5l-20 138q-32 -1 -64.5 8.5t-81.5 9.5q-23 0 -44.5 -4t-42 -12t-39.5 -19t-35.5 -25.5t-30 -31.5t-24.5 -36.5t-19 -41.5
t-12 -46t-4 -50q0 -28 5 -54t14 -49.5t22.5 -43.5t30.5 -37t37.5 -30.5t44 -22.5t49.5 -14t55 -5zM201 560h118l116 173h-64l-110 -97l-110 97h-66z" />
    <glyph glyph-name="Dcaron" unicode="&#x10e;" horiz-adv-x="728" 
d="M54 0h254q37 0 71.5 5t66.5 15t61 24.5t54 33.5t46 41.5t37.5 49t28 56.5t17.5 62.5t6 68.5q0 33 -5.5 64.5t-16.5 60t-27 54t-36.5 47.5t-45.5 40.5t-53.5 33t-61 24.5t-68 15t-74.5 5h-256q3 -7 6 -16t5 -19.5t4 -22.5t3.5 -25t2.5 -26l2 -26t1.5 -26t0.5 -24.5v-22.5
v-284v-22t-0.5 -25t-1.5 -26t-2 -26.5t-2 -26t-3 -24.5t-4 -23t-4.5 -19.5t-5.5 -15.5zM302 598q106 0 172 -68.5t66 -178.5q0 -29 -4.5 -55t-13 -49t-21 -42.5t-28 -36t-34.5 -29.5t-40.5 -21.5t-46 -13t-50.5 -4.5h-76v498h76zM299 757h118l116 153h-64l-110 -83l-110 83
h-66z" />
    <glyph glyph-name="dcaron" unicode="&#x10f;" horiz-adv-x="693" 
d="M226 -11q45 0 85 23.5t65 64.5v-83l160 14q-3 7 -6 16t-5 19.5t-3.5 21.5t-2.5 23t-2 23.5t-1.5 23t-0.5 22.5v21v548l-160 -23q4 -7 6.5 -16t4.5 -19.5t4 -21.5t3 -23t1.5 -24t1 -23.5t0.5 -22.5v-21v-76q-24 28 -57 43t-69 15q-23 0 -45 -5t-42 -14.5t-38 -23
t-33.5 -31t-27.5 -39t-20.5 -45.5t-13 -51t-4.5 -57t4 -56.5t11.5 -50.5t18 -44.5t24.5 -37.5t29.5 -30t34 -22t38 -13.5t40.5 -4.5zM168 250q0 79 33.5 125t84.5 46q26 0 49.5 -11.5t40.5 -32.5v-240q-20 -27 -44 -41.5t-52 -14.5q-49 0 -80.5 45t-31.5 124zM572 499h58
l84 219h-130z" />
    <glyph glyph-name="Dcroat" unicode="&#x110;" horiz-adv-x="738" 
d="M64 0h254q37 0 71.5 5t66.5 15t61 24.5t54 33.5t46 41.5t37.5 49t28 56.5t17.5 62.5t6 68.5q0 33 -5.5 64.5t-16.5 60t-27 54t-36.5 47.5t-45.5 40.5t-53.5 33t-61 24.5t-68 15t-74.5 5h-256q3 -7 6 -16t5 -19.5t4 -22.5t3.5 -25t2.5 -26l2 -26t1.5 -26t0.5 -24.5v-22.5
v-98h-79l-17 -88h96v-98v-22t-0.5 -25t-1.5 -26t-2 -26.5t-2 -26t-3 -24.5t-4 -23t-4.5 -19.5t-5.5 -15.5zM360 306l18 88h-142v204h76q106 0 172 -68.5t66 -178.5q0 -29 -4.5 -55t-13 -49t-21 -42.5t-28 -36t-34.5 -29.5t-40.5 -21.5t-46 -13t-50.5 -4.5h-76v206h124z" />
    <glyph glyph-name="dcroat" unicode="&#x111;" horiz-adv-x="578" 
d="M226 -11q45 0 85 23.5t65 64.5v-83l160 14q-3 7 -6 16t-5 19.5t-3.5 21.5t-2.5 23t-2 23.5t-1.5 23t-0.5 22.5v21v383h64l14 68h-78v97l-159 -23q6 -13 10 -32.5t6 -41.5h-110l-14 -68h128v-105q-24 28 -57 43t-69 15q-23 0 -45 -5t-42 -14.5t-38 -23t-33.5 -31
t-27.5 -39t-20.5 -45.5t-13 -51t-4.5 -57t4 -56.5t11.5 -50.5t18 -44.5t24.5 -37.5t29.5 -30t34 -22t38 -13.5t40.5 -4.5zM168 250q0 79 33.5 125t84.5 46q26 0 49.5 -11.5t40.5 -32.5v-240q-20 -27 -44 -41.5t-52 -14.5q-49 0 -80.5 45t-31.5 124z" />
    <glyph glyph-name="Emacron" unicode="&#x112;" horiz-adv-x="578" 
d="M54 0h482l20 133q-10 -4 -23 -7.5t-27 -6.5t-29.5 -6t-31.5 -5l-32 -4t-31 -3.5t-29.5 -2.5t-27 -1.5t-23.5 -0.5h-78v213h36q49 0 92 -4.5t86 -14.5l-26 134q-34 -8 -72.5 -13.5t-81.5 -5.5h-34v194h77q13 0 27.5 -0.5t30 -1.5t31 -2.5t31.5 -3.5t32 -4.5t31 -5.5
t28.5 -7t25.5 -9l-22 135h-464q3 -7 6 -16t5 -19.5t4 -22.5t3.5 -25t2.5 -26l2 -26t1.5 -26t0.5 -24.5v-22.5v-284v-22t-0.5 -25t-1.5 -26t-2 -26.5t-2 -26t-3 -24.5t-4 -23t-4.5 -19.5t-5.5 -15.5zM164 788h296v82h-296v-82z" />
    <glyph glyph-name="emacron" unicode="&#x113;" horiz-adv-x="526" 
d="M294 -10q46 0 92 12.5t77 33.5l11 96q-36 -25 -76 -38.5t-80 -13.5q-62 0 -102 37t-49 109h333q3 134 -62 211t-172 77q-24 0 -46.5 -4t-42.5 -12t-37.5 -19.5t-33 -26t-28 -32t-22.5 -37t-16.5 -40.5t-10 -44t-3.5 -47q0 -29 5 -55.5t14 -50.5t23 -44.5t31.5 -38
t38.5 -31t45.5 -23t52.5 -14.5t58 -5zM268 424q38 0 65.5 -29t35.5 -86h-201q7 54 32.5 84.5t67.5 30.5zM116 596h296v82h-296v-82z" />
    <glyph glyph-name="Ebreve" unicode="&#x114;" horiz-adv-x="578" 
d="M54 0h482l20 133q-10 -4 -23 -7.5t-27 -6.5t-29.5 -6t-31.5 -5l-32 -4t-31 -3.5t-29.5 -2.5t-27 -1.5t-23.5 -0.5h-78v213h36q49 0 92 -4.5t86 -14.5l-26 134q-34 -8 -72.5 -13.5t-81.5 -5.5h-34v194h77q13 0 27.5 -0.5t30 -1.5t31 -2.5t31.5 -3.5t32 -4.5t31 -5.5
t28.5 -7t25.5 -9l-22 135h-464q3 -7 6 -16t5 -19.5t4 -22.5t3.5 -25t2.5 -26l2 -26t1.5 -26t0.5 -24.5v-22.5v-284v-22t-0.5 -25t-1.5 -26t-2 -26.5t-2 -26t-3 -24.5t-4 -23t-4.5 -19.5t-5.5 -15.5zM312 754q68 0 112 39t50 111h-18q-16 -32 -53.5 -49.5t-90.5 -17.5
t-90.5 17.5t-53.5 49.5h-18q6 -72 50 -111t112 -39z" />
    <glyph glyph-name="ebreve" unicode="&#x115;" horiz-adv-x="526" 
d="M294 -10q46 0 92 12.5t77 33.5l11 96q-36 -25 -76 -38.5t-80 -13.5q-62 0 -102 37t-49 109h333q3 134 -62 211t-172 77q-24 0 -46.5 -4t-42.5 -12t-37.5 -19.5t-33 -26t-28 -32t-22.5 -37t-16.5 -40.5t-10 -44t-3.5 -47q0 -29 5 -55.5t14 -50.5t23 -44.5t31.5 -38
t38.5 -31t45.5 -23t52.5 -14.5t58 -5zM268 424q38 0 65.5 -29t35.5 -86h-201q7 54 32.5 84.5t67.5 30.5zM264 558q66 0 109 44t50 125h-18q-19 -39 -54 -63t-87 -24t-87 24t-54 63h-18q7 -81 50 -125t109 -44z" />
    <glyph glyph-name="Edotaccent" unicode="&#x116;" horiz-adv-x="578" 
d="M54 0h482l20 133q-10 -4 -23 -7.5t-27 -6.5t-29.5 -6t-31.5 -5l-32 -4t-31 -3.5t-29.5 -2.5t-27 -1.5t-23.5 -0.5h-78v213h36q49 0 92 -4.5t86 -14.5l-26 134q-34 -8 -72.5 -13.5t-81.5 -5.5h-34v194h77q13 0 27.5 -0.5t30 -1.5t31 -2.5t31.5 -3.5t32 -4.5t31 -5.5
t28.5 -7t25.5 -9l-22 135h-464q3 -7 6 -16t5 -19.5t4 -22.5t3.5 -25t2.5 -26l2 -26t1.5 -26t0.5 -24.5v-22.5v-284v-22t-0.5 -25t-1.5 -26t-2 -26.5t-2 -26t-3 -24.5t-4 -23t-4.5 -19.5t-5.5 -15.5zM312 762q34 0 56 22.5t22 53.5t-22 53.5t-56 22.5t-56 -22.5t-22 -53.5
t22 -53.5t56 -22.5z" />
    <glyph glyph-name="edotaccent" unicode="&#x117;" horiz-adv-x="526" 
d="M294 -10q46 0 92 12.5t77 33.5l11 96q-36 -25 -76 -38.5t-80 -13.5q-62 0 -102 37t-49 109h333q3 134 -62 211t-172 77q-24 0 -46.5 -4t-42.5 -12t-37.5 -19.5t-33 -26t-28 -32t-22.5 -37t-16.5 -40.5t-10 -44t-3.5 -47q0 -29 5 -55.5t14 -50.5t23 -44.5t31.5 -38
t38.5 -31t45.5 -23t52.5 -14.5t58 -5zM268 424q38 0 65.5 -29t35.5 -86h-201q7 54 32.5 84.5t67.5 30.5zM264 571q34 0 56 22.5t22 53.5t-22 53.5t-56 22.5t-56 -22.5t-22 -53.5t22 -53.5t56 -22.5z" />
    <glyph glyph-name="Eogonek" unicode="&#x118;" horiz-adv-x="578" 
d="M54 0h440q-74 -29 -108 -61t-34 -69q0 -34 29.5 -56.5t75.5 -22.5q17 0 36.5 3.5t34.5 8.5l16 70q-11 -4 -24.5 -7t-24.5 -3q-21 0 -33.5 10.5t-12.5 29.5q0 21 23 45.5t64 51.5l20 133q-10 -4 -23 -7.5t-27 -6.5t-29.5 -6t-31.5 -5l-32 -4t-31 -3.5t-29.5 -2.5t-27 -1.5
t-23.5 -0.5h-78v213h36q49 0 92 -4.5t86 -14.5l-26 134q-34 -8 -72.5 -13.5t-81.5 -5.5h-34v194h77q13 0 27.5 -0.5t30 -1.5t31 -2.5t31.5 -3.5t32 -4.5t31 -5.5t28.5 -7t25.5 -9l-22 135h-464q3 -7 6 -16t5 -19.5t4 -22.5t3.5 -25t2.5 -26l2 -26t1.5 -26t0.5 -24.5v-22.5
v-284v-22t-0.5 -25t-1.5 -26t-2 -26.5t-2 -26t-3 -24.5t-4 -23t-4.5 -19.5t-5.5 -15.5z" />
    <glyph glyph-name="eogonek" unicode="&#x119;" horiz-adv-x="526" 
d="M294 -10q16 0 32 1.5t32 4.5q-62 -31 -90.5 -61.5t-28.5 -66.5q0 -34 29.5 -56.5t75.5 -22.5q18 0 38 3.5t35 8.5l16 70q-11 -4 -25 -7t-26 -3q-21 0 -33.5 10.5t-12.5 29.5q0 25 20 51.5t62 60.5q13 4 24 10t21 13l11 96q-36 -25 -76 -38.5t-80 -13.5q-62 0 -102 37
t-49 109h333q3 134 -62 211t-172 77q-24 0 -46.5 -4t-42.5 -12t-37.5 -19.5t-33 -26t-28 -32t-22.5 -37t-16.5 -40.5t-10 -44t-3.5 -47q0 -29 5 -55.5t14 -50.5t23 -44.5t31.5 -38t38.5 -31t45.5 -23t52.5 -14.5t58 -5zM268 424q38 0 65.5 -29t35.5 -86h-201q7 54 32.5 84.5
t67.5 30.5z" />
    <glyph glyph-name="Ecaron" unicode="&#x11a;" horiz-adv-x="578" 
d="M54 0h482l20 133q-10 -4 -23 -7.5t-27 -6.5t-29.5 -6t-31.5 -5l-32 -4t-31 -3.5t-29.5 -2.5t-27 -1.5t-23.5 -0.5h-78v213h36q49 0 92 -4.5t86 -14.5l-26 134q-34 -8 -72.5 -13.5t-81.5 -5.5h-34v194h77q13 0 27.5 -0.5t30 -1.5t31 -2.5t31.5 -3.5t32 -4.5t31 -5.5
t28.5 -7t25.5 -9l-22 135h-464q3 -7 6 -16t5 -19.5t4 -22.5t3.5 -25t2.5 -26l2 -26t1.5 -26t0.5 -24.5v-22.5v-284v-22t-0.5 -25t-1.5 -26t-2 -26.5t-2 -26t-3 -24.5t-4 -23t-4.5 -19.5t-5.5 -15.5zM253 757h118l116 153h-64l-110 -83l-110 83h-66z" />
    <glyph glyph-name="ecaron" unicode="&#x11b;" horiz-adv-x="526" 
d="M294 -10q46 0 92 12.5t77 33.5l11 96q-36 -25 -76 -38.5t-80 -13.5q-62 0 -102 37t-49 109h333q3 134 -62 211t-172 77q-24 0 -46.5 -4t-42.5 -12t-37.5 -19.5t-33 -26t-28 -32t-22.5 -37t-16.5 -40.5t-10 -44t-3.5 -47q0 -29 5 -55.5t14 -50.5t23 -44.5t31.5 -38
t38.5 -31t45.5 -23t52.5 -14.5t58 -5zM268 424q38 0 65.5 -29t35.5 -86h-201q7 54 32.5 84.5t67.5 30.5zM205 560h118l116 173h-64l-110 -97l-110 97h-66z" />
    <glyph glyph-name="Gcircumflex" unicode="&#x11c;" horiz-adv-x="734" 
d="M410 -11q72 0 146 19.5t133 49.5q-4 25 -7 57t-3 62v28q0 43 3.5 77t13.5 62h-173q11 -28 15 -59.5t4 -78.5v-96q-28 -10 -57.5 -15t-60.5 -5q-25 0 -48.5 4.5t-45 13t-40.5 21.5t-34.5 29.5t-28 36.5t-21.5 43.5t-13.5 50t-4.5 55.5q0 32 4.5 60t13 52t21 45t28 37.5
t33.5 29.5t39 21.5t44 13t47 4.5q67 0 124.5 -27t103.5 -72l-26 168q-43 3 -92 19t-124 16q-33 0 -64 -4.5t-59.5 -14t-54.5 -22.5t-49 -29.5t-42.5 -36.5t-35.5 -42.5t-28.5 -48t-21 -53t-13 -56.5t-4.5 -60q0 -36 5.5 -68.5t16.5 -62.5t27 -56t36 -49t44.5 -41.5t52.5 -33
t59.5 -24.5t65.5 -15t71 -5zM219 757h64l110 83l110 -83h66l-116 153h-118z" />
    <glyph glyph-name="gcircumflex" unicode="&#x11d;" horiz-adv-x="539" 
d="M258 150q24 0 46.5 3.5t43 10.5t38.5 16.5t33 21.5t26.5 27t19.5 31.5t12.5 34.5t4.5 38q0 34 -13 64t-35 53q27 4 55.5 3.5t55.5 -5.5l-11 120q-42 -1 -79 -26.5t-53 -65.5q-28 18 -64.5 28t-79.5 10q-24 0 -46.5 -3.5t-43 -10.5t-38.5 -16.5t-33 -22t-26.5 -27
t-19.5 -31t-12.5 -35t-4.5 -38.5q0 -54 31 -96t85 -64q-51 -13 -78 -42t-27 -66q0 -30 18 -54t52 -38q-62 -9 -90.5 -31.5t-28.5 -52.5q0 -41 56.5 -70.5t164.5 -29.5q37 0 69.5 4t61.5 11t53.5 17t44.5 22.5t35 27t25.5 30.5t16 33.5t5.5 35.5q0 46 -32 72t-98 29l-178 10
q-33 2 -48.5 12.5t-15.5 26.5q0 13 10 23.5t29 15.5q15 -3 31 -4.5t32 -1.5zM258 221q-37 0 -61.5 29.5t-24.5 81.5t24.5 81.5t61.5 29.5t61.5 -29.5t24.5 -82.5q0 -51 -24 -80.5t-62 -29.5zM119 -95q0 16 12.5 29.5t34.5 22.5q6 -1 12.5 -1.5t13.5 -1.5l166 -11
q19 -1 28.5 -8t9.5 -17q0 -25 -48 -44.5t-117 -19.5q-55 0 -83.5 14t-28.5 37zM87 560h64l110 98l110 -98h66l-116 173h-118z" />
    <glyph glyph-name="Gbreve" unicode="&#x11e;" horiz-adv-x="734" 
d="M410 -11q72 0 146 19.5t133 49.5q-4 25 -7 57t-3 62v28q0 43 3.5 77t13.5 62h-173q11 -28 15 -59.5t4 -78.5v-96q-28 -10 -57.5 -15t-60.5 -5q-25 0 -48.5 4.5t-45 13t-40.5 21.5t-34.5 29.5t-28 36.5t-21.5 43.5t-13.5 50t-4.5 55.5q0 32 4.5 60t13 52t21 45t28 37.5
t33.5 29.5t39 21.5t44 13t47 4.5q67 0 124.5 -27t103.5 -72l-26 168q-43 3 -92 19t-124 16q-33 0 -64 -4.5t-59.5 -14t-54.5 -22.5t-49 -29.5t-42.5 -36.5t-35.5 -42.5t-28.5 -48t-21 -53t-13 -56.5t-4.5 -60q0 -36 5.5 -68.5t16.5 -62.5t27 -56t36 -49t44.5 -41.5t52.5 -33
t59.5 -24.5t65.5 -15t71 -5zM394 755q68 0 112 38.5t50 110.5h-18q-16 -32 -53.5 -49t-90.5 -17t-90.5 17t-53.5 49h-18q6 -72 50 -110.5t112 -38.5z" />
    <glyph glyph-name="gbreve" unicode="&#x11f;" horiz-adv-x="539" 
d="M258 150q24 0 46.5 3.5t43 10.5t38.5 16.5t33 21.5t26.5 27t19.5 31.5t12.5 34.5t4.5 38q0 34 -13 64t-35 53q27 4 55.5 3.5t55.5 -5.5l-11 120q-42 -1 -79 -26.5t-53 -65.5q-28 18 -64.5 28t-79.5 10q-24 0 -46.5 -3.5t-43 -10.5t-38.5 -16.5t-33 -22t-26.5 -27
t-19.5 -31t-12.5 -35t-4.5 -38.5q0 -54 31 -96t85 -64q-51 -13 -78 -42t-27 -66q0 -30 18 -54t52 -38q-62 -9 -90.5 -31.5t-28.5 -52.5q0 -41 56.5 -70.5t164.5 -29.5q37 0 69.5 4t61.5 11t53.5 17t44.5 22.5t35 27t25.5 30.5t16 33.5t5.5 35.5q0 46 -32 72t-98 29l-178 10
q-33 2 -48.5 12.5t-15.5 26.5q0 13 10 23.5t29 15.5q15 -3 31 -4.5t32 -1.5zM258 221q-37 0 -61.5 29.5t-24.5 81.5t24.5 81.5t61.5 29.5t61.5 -29.5t24.5 -82.5q0 -51 -24 -80.5t-62 -29.5zM119 -95q0 16 12.5 29.5t34.5 22.5q6 -1 12.5 -1.5t13.5 -1.5l166 -11
q19 -1 28.5 -8t9.5 -17q0 -25 -48 -44.5t-117 -19.5q-55 0 -83.5 14t-28.5 37zM262 557q66 0 109 44.5t50 125.5h-18q-20 -39 -54.5 -63t-86.5 -24t-86.5 24t-54.5 63h-18q7 -81 50 -125.5t109 -44.5z" />
    <glyph glyph-name="Gdotaccent" unicode="&#x120;" horiz-adv-x="734" 
d="M410 -11q72 0 146 19.5t133 49.5q-4 25 -7 57t-3 62v28q0 43 3.5 77t13.5 62h-173q11 -28 15 -59.5t4 -78.5v-96q-28 -10 -57.5 -15t-60.5 -5q-25 0 -48.5 4.5t-45 13t-40.5 21.5t-34.5 29.5t-28 36.5t-21.5 43.5t-13.5 50t-4.5 55.5q0 32 4.5 60t13 52t21 45t28 37.5
t33.5 29.5t39 21.5t44 13t47 4.5q67 0 124.5 -27t103.5 -72l-26 168q-43 3 -92 19t-124 16q-33 0 -64 -4.5t-59.5 -14t-54.5 -22.5t-49 -29.5t-42.5 -36.5t-35.5 -42.5t-28.5 -48t-21 -53t-13 -56.5t-4.5 -60q0 -36 5.5 -68.5t16.5 -62.5t27 -56t36 -49t44.5 -41.5t52.5 -33
t59.5 -24.5t65.5 -15t71 -5zM394 763q34 0 56 22t22 53t-22 53.5t-56 22.5t-56 -22.5t-22 -53.5t22 -53t56 -22z" />
    <glyph glyph-name="gdotaccent" unicode="&#x121;" horiz-adv-x="539" 
d="M258 150q24 0 46.5 3.5t43 10.5t38.5 16.5t33 21.5t26.5 27t19.5 31.5t12.5 34.5t4.5 38q0 34 -13 64t-35 53q27 4 55.5 3.5t55.5 -5.5l-11 120q-42 -1 -79 -26.5t-53 -65.5q-28 18 -64.5 28t-79.5 10q-24 0 -46.5 -3.5t-43 -10.5t-38.5 -16.5t-33 -22t-26.5 -27
t-19.5 -31t-12.5 -35t-4.5 -38.5q0 -54 31 -96t85 -64q-51 -13 -78 -42t-27 -66q0 -30 18 -54t52 -38q-62 -9 -90.5 -31.5t-28.5 -52.5q0 -41 56.5 -70.5t164.5 -29.5q37 0 69.5 4t61.5 11t53.5 17t44.5 22.5t35 27t25.5 30.5t16 33.5t5.5 35.5q0 46 -32 72t-98 29l-178 10
q-33 2 -48.5 12.5t-15.5 26.5q0 13 10 23.5t29 15.5q15 -3 31 -4.5t32 -1.5zM258 221q-37 0 -61.5 29.5t-24.5 81.5t24.5 81.5t61.5 29.5t61.5 -29.5t24.5 -82.5q0 -51 -24 -80.5t-62 -29.5zM119 -95q0 16 12.5 29.5t34.5 22.5q6 -1 12.5 -1.5t13.5 -1.5l166 -11
q19 -1 28.5 -8t9.5 -17q0 -25 -48 -44.5t-117 -19.5q-55 0 -83.5 14t-28.5 37zM262 571q34 0 56 22.5t22 53.5t-22 53.5t-56 22.5t-56 -22.5t-22 -53.5t22 -53.5t56 -22.5z" />
    <glyph glyph-name="uni0122" unicode="&#x122;" horiz-adv-x="734" 
d="M410 -11q72 0 146 19.5t133 49.5q-4 25 -7 57t-3 62v28q0 43 3.5 77t13.5 62h-173q11 -28 15 -59.5t4 -78.5v-96q-28 -10 -57.5 -15t-60.5 -5q-25 0 -48.5 4.5t-45 13t-40.5 21.5t-34.5 29.5t-28 36.5t-21.5 43.5t-13.5 50t-4.5 55.5q0 32 4.5 60t13 52t21 45t28 37.5
t33.5 29.5t39 21.5t44 13t47 4.5q67 0 124.5 -27t103.5 -72l-26 168q-43 3 -92 19t-124 16q-33 0 -64 -4.5t-59.5 -14t-54.5 -22.5t-49 -29.5t-42.5 -36.5t-35.5 -42.5t-28.5 -48t-21 -53t-13 -56.5t-4.5 -60q0 -36 5.5 -68.5t16.5 -62.5t27 -56t36 -49t44.5 -41.5t52.5 -33
t59.5 -24.5t65.5 -15t71 -5zM358 -302q59 25 91 66t32 89q0 39 -22.5 62t-53.5 23q-29 0 -48 -18.5t-19 -44.5q0 -9 1.5 -15.5t4.5 -12.5t7 -10.5t8.5 -8.5t9 -7.5l9 -7t8.5 -7.5t7 -8t4.5 -9.5t1.5 -11.5q0 -16 -12 -35.5t-33 -37.5z" />
    <glyph glyph-name="uni0123" unicode="&#x123;" horiz-adv-x="539" 
d="M312 811q-59 -25 -91 -66t-32 -89q0 -39 22.5 -62t53.5 -23q29 0 48 18.5t19 44.5q0 9 -1.5 15.5t-4.5 12.5t-7 10.5t-8.5 8.5t-9 7.5l-9 7t-8.5 7.5t-7 8t-4.5 9.5t-1.5 11.5q0 16 12 35.5t33 37.5zM258 150q24 0 46.5 3.5t43 10.5t38.5 16.5t33 21.5t26.5 27t19.5 31.5
t12.5 34.5t4.5 38q0 34 -13 64t-35 53q27 4 55.5 3.5t55.5 -5.5l-11 120q-42 -1 -79 -26.5t-53 -65.5q-28 18 -64.5 28t-79.5 10q-24 0 -46.5 -3.5t-43 -10.5t-38.5 -16.5t-33 -22t-26.5 -27t-19.5 -31t-12.5 -35t-4.5 -38.5q0 -54 31 -96t85 -64q-51 -13 -78 -42t-27 -66
q0 -30 18 -54t52 -38q-62 -9 -90.5 -31.5t-28.5 -52.5q0 -41 56.5 -70.5t164.5 -29.5q37 0 69.5 4t61.5 11t53.5 17t44.5 22.5t35 27t25.5 30.5t16 33.5t5.5 35.5q0 46 -32 72t-98 29l-178 10q-33 2 -48.5 12.5t-15.5 26.5q0 13 10 23.5t29 15.5q15 -3 31 -4.5t32 -1.5z
M258 221q-37 0 -61.5 29.5t-24.5 81.5t24.5 81.5t61.5 29.5t61.5 -29.5t24.5 -82.5q0 -51 -24 -80.5t-62 -29.5zM119 -95q0 16 12.5 29.5t34.5 22.5q6 -1 12.5 -1.5t13.5 -1.5l166 -11q19 -1 28.5 -8t9.5 -17q0 -25 -48 -44.5t-117 -19.5q-55 0 -83.5 14t-28.5 37z" />
    <glyph glyph-name="Hcircumflex" unicode="&#x124;" horiz-adv-x="723" 
d="M54 0h194q-3 7 -5.5 15.5t-4.5 19t-3.5 22.5t-3 25t-2.5 26t-1.5 26.5t-1 26.5t-0.5 25v22v98h271v-98v-22t-0.5 -25t-1.5 -26.5t-2 -26.5l-2 -26t-3 -25t-4 -22.5t-4.5 -19t-5.5 -15.5h194q-3 7 -5.5 15.5t-4.5 19t-3.5 22.5t-2.5 25l-2 26t-2 26.5t-1.5 26.5t-0.5 25
v22v284v22.5t0.5 24.5t1.5 26.5t2 26.5l2 26t2.5 25t3.5 22.5t4.5 19.5t5.5 15h-194q3 -6 5.5 -15t4.5 -19.5t4 -22.5t3 -25l2 -26t2 -26.5t1.5 -26.5t0.5 -25v-22v-83h-271v83v22.5t0.5 24.5t1 26.5t1.5 26.5t2.5 26t3 25t3.5 22.5t4.5 19.5t5.5 15h-194q3 -6 5.5 -15
t4.5 -19.5t4 -22.5t3 -25l2 -26t2 -26.5t1.5 -26.5t0.5 -25v-22v-284v-22t-0.5 -25t-1.5 -26.5t-2 -26.5l-2 -26t-3 -25t-4 -22.5t-4.5 -19t-5.5 -15.5zM187 757h64l110 83l110 -83h66l-116 153h-118z" />
    <glyph glyph-name="hcircumflex" unicode="&#x125;" horiz-adv-x="575" 
d="M44 0h176q-3 7 -5 15.5t-3.5 19t-3 21.5t-2.5 23t-2 24.5t-1.5 24t-0.5 23v21.5v191q19 23 43 38t52 15q34 0 56.5 -22.5t22.5 -65.5v-156v-21.5t-0.5 -23t-1.5 -24t-2 -24.5t-2.5 -23t-3 -21.5t-3.5 -19t-5 -15.5h176q-3 7 -5.5 16t-4 19.5t-3 22t-3 23.5t-2 24.5
t-1.5 25t-1 24v22.5v169q0 79 -42.5 123.5t-111.5 44.5q-51 0 -91 -26t-67 -69v307l-160 -23q3 -7 6 -16t5 -19.5t4 -21.5t3 -23l2 -24t1.5 -23.5t0.5 -22.5v-21v-355v-22.5t-0.5 -24t-1.5 -25t-2 -24.5t-2.5 -23.5t-3.5 -22t-4.5 -19.5t-5.5 -16zM-41 776h64l110 98
l110 -98h66l-116 173h-118z" />
    <glyph glyph-name="Hbar" unicode="&#x126;" horiz-adv-x="732" 
d="M60 0h193q-3 7 -5.5 15.5t-4.5 19t-3.5 22.5t-3 25t-2.5 26t-2 26.5t-1.5 26.5t-0.5 25v22v98h272v-98v-22t-0.5 -25t-1.5 -26.5t-2 -26.5t-2.5 -26t-3 -25t-3.5 -22.5t-4 -19t-5 -15.5h193q-3 7 -5.5 15.5t-4.5 19t-3.5 22.5t-3 25t-2.5 26t-2 26.5t-1.5 26.5t-0.5 25
v22v295h75l17 83h-88q2 34 7 65.5t12 48.5h-193q7 -17 11.5 -48.5t7.5 -65.5h-265q2 34 7 65.5t12 48.5h-193q7 -17 11.5 -48.5t7.5 -65.5h-72l-16 -83h91v-295v-22t-0.5 -25t-1.5 -26.5t-2 -26.5t-2.5 -26t-3 -25t-3.5 -22.5t-4 -19t-5 -15.5zM230 409v94h272v-94h-272z
" />
    <glyph glyph-name="hbar" unicode="&#x127;" horiz-adv-x="576" 
d="M44 0h176q-3 7 -5 15.5t-3.5 19t-3 21.5t-2.5 23t-2 24.5t-1.5 24t-0.5 23v21.5v191q19 23 43 38t52 15q34 0 56.5 -22.5t22.5 -65.5v-156v-21.5t-0.5 -23t-1.5 -24t-2 -24.5t-2.5 -23t-3 -21.5t-3.5 -19t-5 -15.5h176q-3 7 -5.5 16t-4 19.5t-3 22t-3 23.5t-2 24.5
t-1.5 25t-1 24v22.5v169q0 79 -42.5 123.5t-111.5 44.5q-51 0 -91 -26t-67 -69v142h116l14 68h-130v97l-160 -23q7 -13 11 -32.5t6 -41.5h-59l-14 -68h78v-384v-22.5t-0.5 -24t-1.5 -25t-2 -24.5t-2.5 -23.5t-3.5 -22t-4.5 -19.5t-5.5 -16z" />
    <glyph glyph-name="Itilde" unicode="&#x128;" horiz-adv-x="302" 
d="M54 0h194q-3 7 -5.5 15.5t-4.5 19t-3.5 22.5t-3 25t-2.5 26t-1.5 26.5t-1 26.5t-0.5 25v22v284v22.5t0.5 24.5t1 26.5t1.5 26.5t2.5 26t3 25t3.5 22.5t4.5 19.5t5.5 15h-194q3 -6 5.5 -15t4.5 -19.5t4 -22.5t3 -25l2 -26t2 -26.5t1.5 -26.5t0.5 -25v-22v-284v-22
t-0.5 -25t-1.5 -26.5t-2 -26.5l-2 -26t-3 -25t-4 -22.5t-4.5 -19t-5.5 -15.5zM-16 767h26q13 29 28.5 42.5t34.5 13.5q7 0 14 -2t14.5 -5t15.5 -7.5l16 -9t16.5 -9t17.5 -9t18 -7.5t18.5 -5t18.5 -2q38 0 66.5 33t44.5 105h-27q-13 -28 -28 -41.5t-34 -13.5q-7 0 -14 2
t-14.5 5t-15.5 7t-16.5 9t-17 9.5t-17 8.5t-18 7t-18.5 5t-19 2q-37 0 -66 -32.5t-44 -105.5z" />
    <glyph glyph-name="itilde" unicode="&#x129;" horiz-adv-x="266" 
d="M44 0h178q-3 7 -5.5 16t-4.5 19.5t-3.5 22t-2.5 23.5t-2 24.5t-1.5 25t-0.5 24v22.5v331l-160 -24q4 -7 6.5 -16t5 -19.5t4 -22t2.5 -23.5l2 -24t1.5 -24t0.5 -23.5v-21.5v-133v-22.5t-0.5 -24t-1.5 -25t-2 -24.5t-2.5 -23.5t-3.5 -22t-4.5 -19.5t-5.5 -16zM-35 570h26
q15 33 30 49t34 16q7 0 14 -2t14.5 -6t15 -9t15.5 -10t16.5 -10.5t17 -10.5t18 -9t18.5 -6t19 -2q37 0 65.5 35.5t45.5 113.5h-27q-14 -32 -29 -48.5t-34 -16.5q-7 0 -14 2t-14.5 6t-15.5 9t-16 10.5t-16.5 11t-17 10.5t-18 9t-18.5 6t-19 2q-37 0 -65.5 -36t-44.5 -114z
" />
    <glyph glyph-name="Imacron" unicode="&#x12a;" horiz-adv-x="302" 
d="M54 0h194q-3 7 -5.5 15.5t-4.5 19t-3.5 22.5t-3 25t-2.5 26t-1.5 26.5t-1 26.5t-0.5 25v22v284v22.5t0.5 24.5t1 26.5t1.5 26.5t2.5 26t3 25t3.5 22.5t4.5 19.5t5.5 15h-194q3 -6 5.5 -15t4.5 -19.5t4 -22.5t3 -25l2 -26t2 -26.5t1.5 -26.5t0.5 -25v-22v-284v-22
t-0.5 -25t-1.5 -26.5t-2 -26.5l-2 -26t-3 -25t-4 -22.5t-4.5 -19t-5.5 -15.5zM3 788h296v82h-296v-82z" />
    <glyph glyph-name="imacron" unicode="&#x12b;" horiz-adv-x="266" 
d="M44 0h178q-3 7 -5.5 16t-4.5 19.5t-3.5 22t-2.5 23.5t-2 24.5t-1.5 25t-0.5 24v22.5v331l-160 -24q4 -7 6.5 -16t5 -19.5t4 -22t2.5 -23.5l2 -24t1.5 -24t0.5 -23.5v-21.5v-133v-22.5t-0.5 -24t-1.5 -25t-2 -24.5t-2.5 -23.5t-3.5 -22t-4.5 -19.5t-5.5 -16zM-16 596h296
v82h-296v-82z" />
    <glyph glyph-name="Ibreve" unicode="&#x12c;" horiz-adv-x="302" 
d="M54 0h194q-3 7 -5.5 15.5t-4.5 19t-3.5 22.5t-3 25t-2.5 26t-1.5 26.5t-1 26.5t-0.5 25v22v284v22.5t0.5 24.5t1 26.5t1.5 26.5t2.5 26t3 25t3.5 22.5t4.5 19.5t5.5 15h-194q3 -6 5.5 -15t4.5 -19.5t4 -22.5t3 -25l2 -26t2 -26.5t1.5 -26.5t0.5 -25v-22v-284v-22
t-0.5 -25t-1.5 -26.5t-2 -26.5l-2 -26t-3 -25t-4 -22.5t-4.5 -19t-5.5 -15.5zM151 754q68 0 112 39t50 111h-18q-16 -32 -53.5 -49.5t-90.5 -17.5t-90.5 17.5t-53.5 49.5h-18q6 -72 50 -111t112 -39z" />
    <glyph glyph-name="ibreve" unicode="&#x12d;" horiz-adv-x="266" 
d="M44 0h178q-3 7 -5.5 16t-4.5 19.5t-3.5 22t-2.5 23.5t-2 24.5t-1.5 25t-0.5 24v22.5v331l-160 -24q4 -7 6.5 -16t5 -19.5t4 -22t2.5 -23.5l2 -24t1.5 -24t0.5 -23.5v-21.5v-133v-22.5t-0.5 -24t-1.5 -25t-2 -24.5t-2.5 -23.5t-3.5 -22t-4.5 -19.5t-5.5 -16zM132 557
q66 0 109 44.5t50 125.5h-18q-20 -39 -54.5 -63t-86.5 -24t-86.5 24t-54.5 63h-18q7 -81 50 -125.5t109 -44.5z" />
    <glyph glyph-name="Iogonek" unicode="&#x12e;" horiz-adv-x="302" 
d="M54 0h152q-74 -29 -108 -61t-34 -69q0 -34 29.5 -56.5t75.5 -22.5q17 0 36.5 3.5t34.5 8.5l16 70q-11 -4 -24.5 -7t-24.5 -3q-21 0 -33.5 10.5t-12.5 29.5q0 21 23 45.5t64 51.5q-3 7 -5.5 15.5t-4.5 19t-3.5 22.5t-3 25t-2.5 26t-1.5 26.5t-1 26.5t-0.5 25v22v284v22.5
t0.5 24.5t1 26.5t1.5 26.5t2.5 26t3 25t3.5 22.5t4.5 19.5t5.5 15h-194q3 -6 5.5 -15t4.5 -19.5t4 -22.5t3 -25l2 -26t2 -26.5t1.5 -26.5t0.5 -25v-22v-284v-22t-0.5 -25t-1.5 -26.5t-2 -26.5l-2 -26t-3 -25t-4 -22.5t-4.5 -19t-5.5 -15.5z" />
    <glyph glyph-name="iogonek" unicode="&#x12f;" horiz-adv-x="266" 
d="M132 567q34 0 57.5 23.5t23.5 57.5q0 33 -23.5 56.5t-57.5 23.5q-36 0 -59 -23.5t-23 -56.5q0 -34 23 -57.5t59 -23.5zM44 0h117q-74 -29 -108 -61t-34 -69q0 -34 29.5 -56.5t75.5 -22.5q17 0 36.5 3.5t34.5 8.5l16 70q-11 -4 -24.5 -7t-24.5 -3q-21 0 -33.5 10.5
t-12.5 29.5q0 21 23 45.5t64 51.5h19q-3 7 -5.5 16t-4.5 19.5t-3.5 22t-2.5 23.5t-2 24.5t-1.5 25t-0.5 24v22.5v331l-160 -24q3 -7 6 -16t5 -19.5t4 -21.5t3 -23l2 -24t1.5 -24t0.5 -23v-21v-135v-22.5t-0.5 -24t-1.5 -25t-2 -24.5t-2.5 -23.5t-3.5 -22t-4.5 -19.5
t-5.5 -16z" />
    <glyph glyph-name="Idotaccent" unicode="&#x130;" horiz-adv-x="302" 
d="M54 0h194q-3 7 -5.5 15.5t-4.5 19t-3.5 22.5t-3 25t-2.5 26t-1.5 26.5t-1 26.5t-0.5 25v22v284v22.5t0.5 24.5t1 26.5t1.5 26.5t2.5 26t3 25t3.5 22.5t4.5 19.5t5.5 15h-194q3 -6 5.5 -15t4.5 -19.5t4 -22.5t3 -25l2 -26t2 -26.5t1.5 -26.5t0.5 -25v-22v-284v-22
t-0.5 -25t-1.5 -26.5t-2 -26.5l-2 -26t-3 -25t-4 -22.5t-4.5 -19t-5.5 -15.5zM151 762q34 0 56 22.5t22 53.5t-22 53.5t-56 22.5t-56 -22.5t-22 -53.5t22 -53.5t56 -22.5z" />
    <glyph glyph-name="dotlessi" unicode="&#x131;" horiz-adv-x="266" 
d="M44 0h178q-3 7 -5.5 16t-4.5 19.5t-3.5 22t-2.5 23.5t-2 24.5t-1.5 25t-0.5 24v22.5v331l-160 -24q4 -7 6.5 -16t5 -19.5t4 -22t2.5 -23.5l2 -24t1.5 -24t0.5 -23.5v-21.5v-133v-22.5t-0.5 -24t-1.5 -25t-2 -24.5t-2.5 -23.5t-3.5 -22t-4.5 -19.5t-5.5 -16z" />
    <glyph glyph-name="IJ" unicode="&#x132;" horiz-adv-x="597" 
d="M54 0h194q-3 7 -5.5 15.5t-4.5 19t-3.5 22.5t-3 25t-2.5 26t-1.5 26.5t-1 26.5t-0.5 25v22v284v22.5t0.5 24.5t1 26.5t1.5 26.5t2.5 26t3 25t3.5 22.5t4.5 19.5t5.5 15h-194q3 -6 5.5 -15t4.5 -19.5t4 -22.5t3 -25l2 -26t2 -26.5t1.5 -26.5t0.5 -25v-22v-284v-22
t-0.5 -25t-1.5 -26.5t-2 -26.5l-2 -26t-3 -25t-4 -22.5t-4.5 -19t-5.5 -15.5zM332 -204q87 0 139.5 52.5t52.5 137.5v506v22.5t0.5 24.5t1.5 26.5t2 26.5l2 26t2.5 25t3.5 22.5t4.5 19.5t5.5 15h-195q3 -7 5.5 -15.5t4.5 -19.5t4 -23t3.5 -24.5t2.5 -26t2 -26.5t1.5 -26
t0.5 -24.5v-22.5v-514q0 -43 -19 -64.5t-52 -21.5q-18 0 -37 5t-37 16l12 -99q18 -9 41.5 -13.5t48.5 -4.5z" />
    <glyph glyph-name="ij" unicode="&#x133;" horiz-adv-x="528" 
d="M132 567q34 0 57.5 23.5t23.5 57.5q0 33 -23.5 56.5t-57.5 23.5q-36 0 -59 -23.5t-23 -56.5q0 -34 23 -57.5t59 -23.5zM44 0h178q-3 7 -5.5 16t-4.5 19.5t-3.5 22t-2.5 23.5t-2 24.5t-1.5 25t-0.5 24v22.5v331l-160 -24q3 -7 6 -16t5 -19.5t4 -21.5t3 -23l2 -24t1.5 -24
t0.5 -23v-21v-135v-22.5t-0.5 -24t-1.5 -25t-2 -24.5t-2.5 -23.5t-3.5 -22t-4.5 -19.5t-5.5 -16zM398 567q34 0 57.5 23.5t23.5 57.5q0 33 -23.5 56.5t-57.5 23.5q-36 0 -59 -23.5t-23 -56.5q0 -34 23 -57.5t59 -23.5zM306 -208q76 0 119 39t43 117v560l-160 -24q3 -7 6 -16
t5 -19.5t4 -21.5t3 -23l2 -24t1.5 -24t0.5 -23v-21v-370q0 -28 -13.5 -42.5t-40.5 -14.5q-15 0 -33.5 3.5t-34.5 9.5l10 -90q18 -7 41 -11.5t47 -4.5z" />
    <glyph glyph-name="Jcircumflex" unicode="&#x134;" horiz-adv-x="294" 
d="M30 -204q87 0 139.5 52.5t52.5 137.5v506v22.5t0.5 24.5t1.5 26.5t2 26.5l2 26t2.5 25t3.5 22.5t4.5 19.5t5.5 15h-195q3 -7 5.5 -15.5t4.5 -19.5t4 -23t3.5 -24.5t2.5 -26t2 -26.5t1.5 -26t0.5 -24.5v-22.5v-514q0 -43 -19 -64.5t-52 -21.5q-18 0 -37 5t-37 16l12 -99
q18 -9 41.5 -13.5t48.5 -4.5zM-28 757h64l110 83l110 -83h66l-116 153h-118z" />
    <glyph glyph-name="jcircumflex" unicode="&#x135;" horiz-adv-x="262" 
d="M40 -208q76 0 119 39t43 117v560l-160 -24q3 -7 6 -16t5 -19.5t4 -21.5t3 -23l2 -24t1.5 -24t0.5 -23v-21v-370q0 -28 -13.5 -42.5t-40.5 -14.5q-15 0 -33.5 3.5t-34.5 9.5l10 -90q18 -7 41 -11.5t47 -4.5zM-43 560h64l110 98l110 -98h66l-116 173h-118z" />
    <glyph glyph-name="uni0136" unicode="&#x136;" horiz-adv-x="670" 
d="M54 0h194q-3 7 -5.5 15.5t-4.5 19t-4 22.5t-3 25l-2 26t-2 26.5t-1.5 26.5t-0.5 25v22v284v22.5t0.5 24.5t1.5 26.5t2 26.5l2 26t3 25t4 22.5t4.5 19.5t5.5 15h-194q3 -6 5.5 -15t4.5 -19.5t4 -22.5t3 -25l2 -26t2 -26.5t1.5 -26.5t0.5 -25v-22v-284v-22t-0.5 -25
t-1.5 -26.5t-2 -26.5l-2 -26t-3 -25t-4 -22.5t-4.5 -19t-5.5 -15.5zM469 0h207q-22 26 -56.5 68.5t-65.5 85.5l-159 213l143 181q36 44 68.5 85.5t57.5 66.5h-177q2 -25 -16.5 -59t-46.5 -74l-176 -229l146 -196q31 -42 52 -79.5t23 -62.5zM306 -302q59 25 91 66t32 89
q0 39 -22.5 62t-53.5 23q-29 0 -48.5 -18.5t-19.5 -44.5q0 -8 1.5 -15t4.5 -12.5t7 -10.5t8.5 -9t9.5 -7.5t9.5 -7t8.5 -7.5t7 -8t4.5 -9.5t1.5 -11.5q0 -16 -12 -35.5t-33 -37.5z" />
    <glyph glyph-name="uni0137" unicode="&#x137;" horiz-adv-x="545" 
d="M44 0h176q-3 7 -5 15.5t-3.5 19t-3 21.5t-2.5 23t-2 24.5t-1.5 24t-0.5 23v21.5v554l-160 -23q3 -7 6 -16t5 -19.5t4 -21.5t3 -23l2 -24t1.5 -23.5t0.5 -22.5v-21v-355v-22.5t-0.5 -24t-1.5 -25t-2 -24.5t-2.5 -23.5t-3.5 -22t-4.5 -19.5t-5.5 -16zM372 0h183
q-22 25 -49 62.5t-56 77.5l-96 135l82 101q27 33 56.5 68.5t51.5 58.5h-156q-2 -25 -18 -55.5t-40 -61.5l-108 -138l94 -135q23 -34 37.5 -62.5t18.5 -50.5zM246 -302q59 25 91 66t32 89q0 39 -22.5 62t-53.5 23q-29 0 -48.5 -18.5t-19.5 -44.5q0 -8 1.5 -15t4.5 -12.5
t7 -10.5t8.5 -9t9.5 -7.5t9.5 -7t8.5 -7.5t7 -8t4.5 -9.5t1.5 -11.5q0 -16 -12 -35.5t-33 -37.5z" />
    <glyph glyph-name="kgreenlandic" unicode="&#x138;" horiz-adv-x="545" 
d="M44 0h176q-3 7 -5 15.5t-3.5 19t-3 21.5t-2.5 23t-2 24.5t-1.5 24t-0.5 23v21.5v336l-160 -24q3 -7 6 -16t5 -19.5t4 -21.5t3 -23l2 -24t1.5 -24t0.5 -23v-21v-135v-22.5t-0.5 -24t-1.5 -25t-2 -24.5t-2.5 -23.5t-3.5 -22t-4.5 -19.5t-5.5 -16zM372 0h183
q-22 25 -49 62.5t-56 77.5l-96 135l82 101q27 33 56.5 68.5t51.5 58.5h-156q-2 -25 -18 -55.5t-40 -61.5l-108 -138l94 -135q23 -34 37.5 -62.5t18.5 -50.5z" />
    <glyph glyph-name="Lacute" unicode="&#x139;" horiz-adv-x="570" 
d="M54 0h482l20 133q-9 -3 -20 -6.5t-23.5 -6t-26 -5t-28 -5t-29 -4l-29 -3t-28 -3t-26.5 -2t-24.5 -1t-20.5 -0.5h-75v395v22.5t0.5 24.5t1.5 26t2 26.5t2.5 26t3 24.5t4 23t5 19.5t5.5 15.5h-196q3 -6 5.5 -15t4.5 -19.5t4 -22.5t3 -25l2 -26t2 -26.5t1.5 -26.5t0.5 -25
v-22v-284v-22t-0.5 -25t-1.5 -26t-2 -26.5t-2.5 -26t-3 -24.5t-3.5 -23t-4.5 -19.5t-5.5 -15.5zM91 757h72l159 153h-149z" />
    <glyph glyph-name="lacute" unicode="&#x13a;" horiz-adv-x="266" 
d="M44 0h178q-3 7 -5.5 16t-4.5 19.5t-3.5 22t-2.5 23.5t-2 24.5t-1.5 25t-0.5 24v22.5v549l-160 -23q3 -7 6 -16t5 -19.5t4 -21.5t3 -23l2 -24t1.5 -23.5t0.5 -22.5v-21v-355v-22.5t-0.5 -24t-1.5 -25t-2 -24.5t-2.5 -23.5t-3.5 -22t-4.5 -19.5t-5.5 -16zM73 776h71
l159 173h-149z" />
    <glyph glyph-name="uni013B" unicode="&#x13b;" horiz-adv-x="570" 
d="M54 0h482l20 133q-9 -3 -20 -6.5t-23.5 -6t-26 -5t-28 -5t-29 -4l-29 -3t-28 -3t-26.5 -2t-24.5 -1t-20.5 -0.5h-75v395v22.5t0.5 24.5t1.5 26t2 26.5t2.5 26t3 24.5t4 23t5 19.5t5.5 15.5h-196q3 -6 5.5 -15t4.5 -19.5t4 -22.5t3 -25l2 -26t2 -26.5t1.5 -26.5t0.5 -25
v-22v-284v-22t-0.5 -25t-1.5 -26t-2 -26.5t-2.5 -26t-3 -24.5t-3.5 -23t-4.5 -19.5t-5.5 -15.5zM276 -302q59 25 91 66t32 89q0 39 -22.5 62t-53.5 23q-29 0 -48.5 -18.5t-19.5 -44.5q0 -8 1.5 -15t4.5 -12.5t7 -10.5t8.5 -9t9.5 -7.5t9.5 -7t8.5 -7.5t7 -8t4.5 -9.5
t1.5 -11.5q0 -16 -12 -35.5t-33 -37.5z" />
    <glyph glyph-name="uni013C" unicode="&#x13c;" horiz-adv-x="266" 
d="M44 0h178q-3 7 -5.5 16t-4.5 19.5t-3.5 22t-2.5 23.5t-2 24.5t-1.5 25t-0.5 24v22.5v549l-160 -23q3 -7 6 -16t5 -19.5t4 -21.5t3 -23l2 -24t1.5 -23.5t0.5 -22.5v-21v-355v-22.5t-0.5 -24t-1.5 -25t-2 -24.5t-2.5 -23.5t-3.5 -22t-4.5 -19.5t-5.5 -16zM83 -302
q59 25 91 66t32 89q0 39 -22.5 62t-53.5 23q-29 0 -48.5 -18.5t-19.5 -44.5q0 -8 1.5 -15t4.5 -12.5t7 -10.5t8.5 -9t9.5 -7.5t9.5 -7t8.5 -7.5t7 -8t4.5 -9.5t1.5 -11.5q0 -16 -12 -35.5t-33 -37.5z" />
    <glyph glyph-name="Lcaron" unicode="&#x13d;" horiz-adv-x="570" 
d="M54 0h482l20 133q-9 -3 -20 -6.5t-23.5 -6t-26 -5t-28 -5t-29 -4l-29 -3t-28 -3t-26.5 -2t-24.5 -1t-20.5 -0.5h-75v395v22.5t0.5 24.5t1.5 26t2 26.5t2.5 26t3 24.5t4 23t5 19.5t5.5 15.5h-196q3 -6 5.5 -15t4.5 -19.5t4 -22.5t3 -25l2 -26t2 -26.5t1.5 -26.5t0.5 -25
v-22v-284v-22t-0.5 -25t-1.5 -26t-2 -26.5t-2.5 -26t-3 -24.5t-3.5 -23t-4.5 -19.5t-5.5 -15.5zM306 481h58l84 219h-130z" />
    <glyph glyph-name="lcaron" unicode="&#x13e;" horiz-adv-x="381" 
d="M44 0h178q-3 7 -5.5 16t-4.5 19.5t-3.5 22t-2.5 23.5t-2 24.5t-1.5 25t-0.5 24v22.5v549l-160 -23q3 -7 6 -16t5 -19.5t4 -21.5t3 -23l2 -24t1.5 -23.5t0.5 -22.5v-21v-355v-22.5t-0.5 -24t-1.5 -25t-2 -24.5t-2.5 -23.5t-3.5 -22t-4.5 -19.5t-5.5 -16zM260 499h58
l84 219h-130z" />
    <glyph glyph-name="Ldot" unicode="&#x13f;" horiz-adv-x="570" 
d="M437 311q34 0 56 22.5t22 53.5t-22 53.5t-56 22.5t-56 -22.5t-22 -53.5t22 -53.5t56 -22.5zM54 0h482l20 133q-9 -3 -20 -6.5t-23.5 -6t-26 -5t-28 -5t-29 -4l-29 -3t-28 -3t-26.5 -2t-24.5 -1t-20.5 -0.5h-75v395v22.5t0.5 24.5t1.5 26t2 26.5t2.5 26t3 24.5t4 23
t5 19.5t5.5 15.5h-196q3 -6 5.5 -15t4.5 -19.5t4 -22.5t3 -25l2 -26t2 -26.5t1.5 -26.5t0.5 -25v-22v-284v-22t-0.5 -25t-1.5 -26t-2 -26.5t-2.5 -26t-3 -24.5t-3.5 -23t-4.5 -19.5t-5.5 -15.5z" />
    <glyph glyph-name="ldot" unicode="&#x140;" horiz-adv-x="412" 
d="M261 342q0 -31 22 -53.5t56 -22.5t56 22.5t22 53.5t-22 53.5t-56 22.5t-56 -22.5t-22 -53.5zM44 0h178q-3 7 -5.5 16t-4.5 19.5t-3.5 22t-2.5 23.5t-2 24.5t-1.5 25t-0.5 24v22.5v549l-160 -23q3 -7 6 -16t5 -19.5t4 -21.5t3 -23l2 -24t1.5 -23.5t0.5 -22.5v-21v-355
v-22.5t-0.5 -24t-1.5 -25t-2 -24.5t-2.5 -23.5t-3.5 -22t-4.5 -19.5t-5.5 -16z" />
    <glyph glyph-name="Lslash" unicode="&#x141;" horiz-adv-x="580" 
d="M64 0h482l20 133q-9 -3 -20 -6.5t-23.5 -6t-26 -5t-28 -5t-29 -4l-29 -3t-28 -3t-26.5 -2t-24.5 -1t-20.5 -0.5h-75v199l151 93v99l-151 -93v97v22.5t0.5 24.5t1.5 26t2 26.5t2.5 26t3 24.5t4 23t5 19.5t5.5 15.5h-196q3 -6 5.5 -15t4.5 -19.5t4 -22.5t3 -25l2 -26
t2 -26.5t1.5 -26.5t0.5 -25v-22v-189l-78 -48v-99l78 48v-21.5t-0.5 -23.5t-1.5 -25l-2 -26t-2.5 -26t-3 -24.5t-3.5 -22.5t-4.5 -19.5t-5.5 -15.5z" />
    <glyph glyph-name="lslash" unicode="&#x142;" horiz-adv-x="266" 
d="M44 0h178q-3 7 -5.5 16t-4.5 19.5t-3.5 22t-2.5 23.5t-2 24.5t-1.5 25t-0.5 24v22.5v153l84 56v92l-84 -55v303l-160 -23q3 -7 6 -16t5 -19.5t4 -21.5t3 -23l2 -24t1.5 -23.5t0.5 -22.5v-21v-186l-84 -56v-93l84 56v-76v-22.5t-0.5 -24t-1.5 -25t-2 -24.5t-2.5 -23.5
t-3.5 -22t-4.5 -19.5t-5.5 -16z" />
    <glyph glyph-name="Nacute" unicode="&#x143;" horiz-adv-x="737" 
d="M662 493v22.5t0.5 24.5t1.5 26l2 26t2.5 26t3.5 24.5t4 22.5t4.5 19.5t5.5 15.5h-164q3 -6 5.5 -15t4.5 -19t4 -22t3.5 -24.5t2.5 -25t2 -25.5l2 -26t1.5 -24.5t0.5 -22.5l3 -216l-23 21l-453 415v-509v-22t-0.5 -25t-1.5 -26l-2 -26t-2.5 -26t-3.5 -24.5t-4 -22.5
t-4.5 -19.5t-5.5 -15.5h164q-3 7 -6 16t-5.5 20.5t-4.5 23.5t-3.5 25.5t-2.5 26.5t-1.5 26.5t-1 26t-0.5 23.5l-3 230l19 -18l456 -416v509zM312 757h72l159 153h-149z" />
    <glyph glyph-name="nacute" unicode="&#x144;" horiz-adv-x="576" 
d="M44 0h176q-3 7 -5 15.5t-3.5 19t-3 21.5t-2.5 23t-2 24.5t-1.5 24t-0.5 23v21.5v191q19 23 43 38t52 15q34 0 56.5 -22.5t22.5 -65.5v-156v-21.5t-0.5 -23t-1.5 -24t-2 -24.5t-2.5 -23t-3 -21.5t-3.5 -19t-5 -15.5h176q-3 7 -5 16t-4 19.5t-3.5 22t-2.5 23.5t-1.5 24.5
t-1.5 25t-1 24v22.5v169q0 79 -43 123.5t-112 44.5q-51 0 -91 -26t-67 -69v89l-160 -24q3 -7 6 -16t5 -19.5t4 -21.5t3 -23l2 -24t1.5 -24t0.5 -23v-21v-135v-22.5t-0.5 -24t-1.5 -25t-2 -24.5t-2.5 -23.5t-3.5 -22t-4.5 -19.5t-5.5 -16zM230 560h71l159 173h-149z" />
    <glyph glyph-name="uni0145" unicode="&#x145;" horiz-adv-x="737" 
d="M662 493v22.5t0.5 24.5t1.5 26l2 26t2.5 26t3.5 24.5t4 22.5t4.5 19.5t5.5 15.5h-164q3 -6 5.5 -15t4.5 -19t4 -22t3.5 -24.5t2.5 -25t2 -25.5l2 -26t1.5 -24.5t0.5 -22.5l3 -216l-23 21l-453 415v-509v-22t-0.5 -25t-1.5 -26l-2 -26t-2.5 -26t-3.5 -24.5t-4 -22.5
t-4.5 -19.5t-5.5 -15.5h164q-3 7 -6 16t-5.5 20.5t-4.5 23.5t-3.5 25.5t-2.5 26.5t-1.5 26.5t-1 26t-0.5 23.5l-3 230l19 -18l456 -416v509zM339 -302q59 25 91 66t32 89q0 39 -22.5 62t-53.5 23q-29 0 -48.5 -18.5t-19.5 -44.5q0 -8 1.5 -15t4.5 -12.5t7 -10.5t8.5 -9
t9.5 -7.5t9.5 -7t8.5 -7.5t7 -8t4.5 -9.5t1.5 -11.5q0 -16 -12 -35.5t-33 -37.5z" />
    <glyph glyph-name="uni0146" unicode="&#x146;" horiz-adv-x="576" 
d="M44 0h176q-3 7 -5 15.5t-3.5 19t-3 21.5t-2.5 23t-2 24.5t-1.5 24t-0.5 23v21.5v191q19 23 43 38t52 15q34 0 56.5 -22.5t22.5 -65.5v-156v-21.5t-0.5 -23t-1.5 -24t-2 -24.5t-2.5 -23t-3 -21.5t-3.5 -19t-5 -15.5h176q-3 7 -5 16t-4 19.5t-3.5 22t-2.5 23.5t-1.5 24.5
t-1.5 25t-1 24v22.5v169q0 79 -43 123.5t-112 44.5q-51 0 -91 -26t-67 -69v89l-160 -24q3 -7 6 -16t5 -19.5t4 -21.5t3 -23l2 -24t1.5 -24t0.5 -23v-21v-135v-22.5t-0.5 -24t-1.5 -25t-2 -24.5t-2.5 -23.5t-3.5 -22t-4.5 -19.5t-5.5 -16zM248 -302q59 25 91 66t32 89
q0 39 -22.5 62t-53.5 23q-29 0 -48.5 -18.5t-19.5 -44.5q0 -8 1.5 -15t4.5 -12.5t7 -10.5t8.5 -9t9.5 -7.5t9.5 -7t8.5 -7.5t7 -8t4.5 -9.5t1.5 -11.5q0 -16 -12 -35.5t-33 -37.5z" />
    <glyph glyph-name="Ncaron" unicode="&#x147;" horiz-adv-x="737" 
d="M662 493v22.5t0.5 24.5t1.5 26l2 26t2.5 26t3.5 24.5t4 22.5t4.5 19.5t5.5 15.5h-164q3 -6 5.5 -15t4.5 -19t4 -22t3.5 -24.5t2.5 -25t2 -25.5l2 -26t1.5 -24.5t0.5 -22.5l3 -216l-23 21l-453 415v-509v-22t-0.5 -25t-1.5 -26l-2 -26t-2.5 -26t-3.5 -24.5t-4 -22.5
t-4.5 -19.5t-5.5 -15.5h164q-3 7 -6 16t-5.5 20.5t-4.5 23.5t-3.5 25.5t-2.5 26.5t-1.5 26.5t-1 26t-0.5 23.5l-3 230l19 -18l456 -416v509zM313 757h118l116 153h-64l-110 -83l-110 83h-66z" />
    <glyph glyph-name="ncaron" unicode="&#x148;" horiz-adv-x="576" 
d="M44 0h176q-3 7 -5 15.5t-3.5 19t-3 21.5t-2.5 23t-2 24.5t-1.5 24t-0.5 23v21.5v191q19 23 43 38t52 15q34 0 56.5 -22.5t22.5 -65.5v-156v-21.5t-0.5 -23t-1.5 -24t-2 -24.5t-2.5 -23t-3 -21.5t-3.5 -19t-5 -15.5h176q-3 7 -5 16t-4 19.5t-3.5 22t-2.5 23.5t-1.5 24.5
t-1.5 25t-1 24v22.5v169q0 79 -43 123.5t-112 44.5q-51 0 -91 -26t-67 -69v89l-160 -24q3 -7 6 -16t5 -19.5t4 -21.5t3 -23l2 -24t1.5 -24t0.5 -23v-21v-135v-22.5t-0.5 -24t-1.5 -25t-2 -24.5t-2.5 -23.5t-3.5 -22t-4.5 -19.5t-5.5 -16zM231 560h118l116 173h-64l-110 -98
l-110 98h-66z" />
    <glyph glyph-name="Eng" unicode="&#x14a;" horiz-adv-x="737" 
d="M51 0h164q-3 7 -6 16t-5.5 20.5t-4.5 23.5t-3.5 25.5t-2.5 26.5t-1.5 26.5t-1 26t-0.5 23.5l-3 230l58 -54l295 -268v-130q0 -36 -19.5 -56t-53.5 -20q-22 0 -43 6t-40 14l2 -98q22 -9 51.5 -14.5t57.5 -5.5q75 0 121 44.5t46 126.5v530v22.5t0.5 24.5t1.5 26l2 26
t2.5 26t3.5 24.5t4 22.5t4.5 19.5t5.5 15.5h-164q3 -6 5.5 -15t4.5 -19t4 -22t3 -24.5t2.5 -25t2 -25.5l1 -26t1 -24.5t0.5 -22.5l2 -215l-473 435v-509v-22t-0.5 -25t-1.5 -26l-2 -26t-2.5 -26t-3.5 -24.5t-4 -22.5t-4.5 -19.5t-5.5 -15.5z" />
    <glyph glyph-name="eng" unicode="&#x14b;" horiz-adv-x="574" 
d="M44 0h176q-3 7 -5 15.5t-3.5 19t-3 21.5t-2.5 23t-2 24.5t-1.5 24t-0.5 23v21.5v191q19 23 43 38t52 15q34 0 56.5 -22.5t22.5 -65.5v-386q0 -28 -13.5 -42.5t-39.5 -14.5q-16 0 -34 3.5t-34 9.5l9 -90q18 -7 41.5 -11.5t46.5 -4.5q77 0 119.5 39t42.5 117v398
q0 79 -42.5 123.5t-111.5 44.5q-51 0 -91 -26t-67 -69v89l-160 -24q3 -7 6 -16t5 -19.5t4 -21.5t3 -23l2 -24t1.5 -24t0.5 -23v-21v-135v-22.5t-0.5 -24t-1.5 -25t-2 -24.5t-2.5 -23.5t-3.5 -22t-4.5 -19.5t-5.5 -16z" />
    <glyph glyph-name="Omacron" unicode="&#x14c;" horiz-adv-x="784" 
d="M752 350q0 32 -4.5 62.5t-13.5 58t-22 53t-29 47.5t-35.5 41.5t-42 35t-47 28t-51 20.5t-55 12.5t-58.5 4.5t-58.5 -4.5t-55.5 -13t-52 -21t-47.5 -28.5t-42.5 -35t-36.5 -41.5t-29.5 -47.5t-22 -52.5t-13.5 -57.5t-4.5 -62t4.5 -62.5t13.5 -58t22 -53t29 -47.5
t35.5 -41.5t42 -35t47 -28t51 -20.5t55 -12.5t58.5 -4.5t58.5 4.5t55.5 13t52 21t47.5 28.5t42.5 35t36.5 41.5t29.5 47.5t22 52.5t13.5 57.5t4.5 62zM190 349q0 31 4 58.5t12 51.5t18.5 44.5t24.5 37t30.5 29t34.5 21t38.5 13t41.5 4.5t41 -4.5t38 -13t34 -21.5t29.5 -29.5
t24 -37t18 -44.5t11.5 -51t4 -58t-4 -58.5t-11.5 -51.5t-18.5 -44.5t-25 -37t-30 -29t-34.5 -21t-38.5 -13t-42 -4.5q-21 0 -40.5 4.5t-38 13t-34 21.5t-29.5 29.5t-24.5 37t-18 44.5t-11.5 51t-4 58zM246 788h296v82h-296v-82z" />
    <glyph glyph-name="omacron" unicode="&#x14d;" horiz-adv-x="564" 
d="M282 -11q24 0 47 4t44 11.5t40 19t35.5 25.5t30.5 31t25 36.5t18.5 41.5t11.5 45.5t4 49.5q0 25 -4 48.5t-11.5 45t-18 41t-24.5 36.5t-30.5 31t-35.5 25t-40 18.5t-44 11.5t-48 4q-24 0 -47 -4t-44 -11.5t-40 -18.5t-35.5 -25.5t-30.5 -31.5t-25 -36.5t-18.5 -41
t-11.5 -45.5t-4 -50q0 -25 4 -49t11.5 -45.5t18.5 -41t25 -36t30.5 -30.5t35.5 -25t40 -18.5t44 -11.5t47 -4zM284 78q-52 0 -84 45t-32 127t31.5 127t81.5 45q51 0 83 -45t32 -127t-31 -127t-81 -45zM133 596h296v82h-296v-82z" />
    <glyph glyph-name="Obreve" unicode="&#x14e;" horiz-adv-x="784" 
d="M752 350q0 32 -4.5 62.5t-13.5 58t-22 53t-29 47.5t-35.5 41.5t-42 35t-47 28t-51 20.5t-55 12.5t-58.5 4.5t-58.5 -4.5t-55.5 -13t-52 -21t-47.5 -28.5t-42.5 -35t-36.5 -41.5t-29.5 -47.5t-22 -52.5t-13.5 -57.5t-4.5 -62t4.5 -62.5t13.5 -58t22 -53t29 -47.5
t35.5 -41.5t42 -35t47 -28t51 -20.5t55 -12.5t58.5 -4.5t58.5 4.5t55.5 13t52 21t47.5 28.5t42.5 35t36.5 41.5t29.5 47.5t22 52.5t13.5 57.5t4.5 62zM190 349q0 31 4 58.5t12 51.5t18.5 44.5t24.5 37t30.5 29t34.5 21t38.5 13t41.5 4.5t41 -4.5t38 -13t34 -21.5t29.5 -29.5
t24 -37t18 -44.5t11.5 -51t4 -58t-4 -58.5t-11.5 -51.5t-18.5 -44.5t-25 -37t-30 -29t-34.5 -21t-38.5 -13t-42 -4.5q-21 0 -40.5 4.5t-38 13t-34 21.5t-29.5 29.5t-24.5 37t-18 44.5t-11.5 51t-4 58zM394 755q68 0 112 38.5t50 110.5h-18q-16 -32 -53.5 -49t-90.5 -17
t-90.5 17t-53.5 49h-18q6 -72 50 -110.5t112 -38.5z" />
    <glyph glyph-name="obreve" unicode="&#x14f;" horiz-adv-x="564" 
d="M282 -11q24 0 47 4t44 11.5t40 19t35.5 25.5t30.5 31t25 36.5t18.5 41.5t11.5 45.5t4 49.5q0 25 -4 48.5t-11.5 45t-18 41t-24.5 36.5t-30.5 31t-35.5 25t-40 18.5t-44 11.5t-48 4q-24 0 -47 -4t-44 -11.5t-40 -18.5t-35.5 -25.5t-30.5 -31.5t-25 -36.5t-18.5 -41
t-11.5 -45.5t-4 -50q0 -25 4 -49t11.5 -45.5t18.5 -41t25 -36t30.5 -30.5t35.5 -25t40 -18.5t44 -11.5t47 -4zM284 78q-52 0 -84 45t-32 127t31.5 127t81.5 45q51 0 83 -45t32 -127t-31 -127t-81 -45zM281 558q66 0 109 44t50 125h-18q-19 -39 -54 -63t-87 -24t-87 24
t-54 63h-18q7 -81 50 -125t109 -44z" />
    <glyph glyph-name="Ohungarumlaut" unicode="&#x150;" horiz-adv-x="784" 
d="M752 350q0 32 -4.5 62.5t-13.5 58t-22 53t-29 47.5t-35.5 41.5t-42 35t-47 28t-51 20.5t-55 12.5t-58.5 4.5t-58.5 -4.5t-55.5 -13t-52 -21t-47.5 -28.5t-42.5 -35t-36.5 -41.5t-29.5 -47.5t-22 -52.5t-13.5 -57.5t-4.5 -62t4.5 -62.5t13.5 -58t22 -53t29 -47.5
t35.5 -41.5t42 -35t47 -28t51 -20.5t55 -12.5t58.5 -4.5t58.5 4.5t55.5 13t52 21t47.5 28.5t42.5 35t36.5 41.5t29.5 47.5t22 52.5t13.5 57.5t4.5 62zM190 349q0 31 4 58.5t12 51.5t18.5 44.5t24.5 37t30.5 29t34.5 21t38.5 13t41.5 4.5t41 -4.5t38 -13t34 -21.5t29.5 -29.5
t24 -37t18 -44.5t11.5 -51t4 -58t-4 -58.5t-11.5 -51.5t-18.5 -44.5t-25 -37t-30 -29t-34.5 -21t-38.5 -13t-42 -4.5q-21 0 -40.5 4.5t-38 13t-34 21.5t-29.5 29.5t-24.5 37t-18 44.5t-11.5 51t-4 58zM252 757h74l145 153h-134zM432 757h74l145 153h-134z" />
    <glyph glyph-name="ohungarumlaut" unicode="&#x151;" horiz-adv-x="564" 
d="M282 -11q24 0 47 4t44 11.5t40 19t35.5 25.5t30.5 31t25 36.5t18.5 41.5t11.5 45.5t4 49.5q0 25 -4 48.5t-11.5 45t-18 41t-24.5 36.5t-30.5 31t-35.5 25t-40 18.5t-44 11.5t-48 4q-24 0 -47 -4t-44 -11.5t-40 -18.5t-35.5 -25.5t-30.5 -31.5t-25 -36.5t-18.5 -41
t-11.5 -45.5t-4 -50q0 -25 4 -49t11.5 -45.5t18.5 -41t25 -36t30.5 -30.5t35.5 -25t40 -18.5t44 -11.5t47 -4zM284 78q-52 0 -84 45t-32 127t31.5 127t81.5 45q51 0 83 -45t32 -127t-31 -127t-81 -45zM139 560h74l145 173h-134zM319 560h74l145 173h-134z" />
    <glyph glyph-name="OE" unicode="&#x152;" horiz-adv-x="1005" 
d="M420 0h543l19 133q-9 -3 -20 -6.5t-23.5 -6.5t-26 -5.5t-27.5 -4.5t-28.5 -4t-28.5 -3.5t-27.5 -3t-26 -2t-24 -1t-20.5 -0.5h-79v213h37q49 0 91.5 -4.5t85.5 -14.5l-25 134q-34 -8 -73.5 -13.5t-82.5 -5.5h-33v195h77q13 0 27.5 -0.5t29.5 -1.5t31 -2.5t32 -3.5t32 -5
t31 -6t29 -7t26 -9l-22 135h-524q-37 0 -71.5 -5t-66.5 -15t-61 -24.5t-54 -33.5t-46 -41.5t-37.5 -49t-28 -56.5t-17.5 -62.5t-6 -68.5q0 -33 5.5 -64.5t16.5 -60t27 -54t36.5 -47.5t45.5 -40.5t53.5 -33t61 -24.5t68 -15t74.5 -5zM428 96q-26 0 -50.5 4.5t-46.5 13.5
t-41 21.5t-35 29.5t-28.5 36.5t-21 43t-13 49.5t-4.5 54t4.5 54t13 49t21 43t28.5 36.5t35 29t41 21.5t46.5 13.5t50.5 4.5h75v-503h-75z" />
    <glyph glyph-name="oe" unicode="&#x153;" horiz-adv-x="899" 
d="M282 -11q57 0 105 23.5t81 64.5q34 -41 85 -64t114 -23q46 0 92 12.5t77 33.5l11 96q-36 -25 -76 -38.5t-80 -13.5q-63 0 -103 37t-48 109h332q3 134 -61.5 211t-171.5 77q-54 0 -98.5 -23t-74.5 -62q-33 40 -80.5 62.5t-103.5 22.5q-24 0 -47 -4t-44 -11.5t-40 -18.5
t-35.5 -25.5t-30.5 -31.5t-25 -36.5t-18.5 -41t-11.5 -45.5t-4 -50q0 -25 4 -49t11.5 -45.5t18.5 -41t25 -36t30.5 -30.5t35.5 -25t40 -18.5t44 -11.5t47 -4zM640 424q38 0 66 -29t36 -86h-201q7 54 32.5 84.5t66.5 30.5zM284 78q-52 0 -84 45t-32 127t31.5 127t81.5 45
q51 0 83 -45t32 -127t-31 -127t-81 -45z" />
    <glyph glyph-name="Racute" unicode="&#x154;" horiz-adv-x="646" 
d="M54 0h192q-3 7 -5.5 15.5t-4.5 19t-4 22.5t-3 25l-2 26t-2 26.5t-1.5 26.5t-0.5 25v22v75h85l170 -283h171q-5 6 -10.5 14t-12 17t-13.5 19t-14 20.5l-14 21l-14 21t-13 20.5t-12 19l-96 157q60 25 97 74t37 113q0 93 -68.5 148.5t-189.5 55.5h-274q3 -7 5.5 -15.5
t5 -19.5t4 -22.5t3 -24.5l3 -26t2 -26.5t1 -26t1 -24.5t0.5 -23v-284v-22t-0.5 -25t-1.5 -26.5t-2 -26.5l-2 -26t-3 -25t-4 -22.5t-4.5 -19t-5.5 -15.5zM309 599q60 0 95 -28t35 -79q0 -54 -36 -83t-96 -29h-84v219h86zM260 757h72l159 153h-149z" />
    <glyph glyph-name="racute" unicode="&#x155;" horiz-adv-x="404" 
d="M44 0h179q-3 7 -5.5 16t-4.5 19.5t-3.5 22t-3 23.5t-2 24.5t-1.5 24.5t-1 23.5v22.5v137q23 40 52.5 62.5t69.5 22.5q19 0 37 -3t31 -7l-9 120q-7 3 -19 4.5t-24 1.5q-41 0 -78.5 -34t-59.5 -107v135l-160 -24q3 -7 6 -16t5 -19.5t4 -21.5t3 -23l2 -24t1.5 -24t0.5 -23
v-21v-135v-22.5t-0.5 -24t-1.5 -25t-2 -24.5t-2.5 -23.5t-3.5 -22t-4.5 -19.5t-5.5 -16zM174 560h71l159 173h-149z" />
    <glyph glyph-name="uni0156" unicode="&#x156;" horiz-adv-x="646" 
d="M54 0h192q-3 7 -5.5 15.5t-4.5 19t-4 22.5t-3 25l-2 26t-2 26.5t-1.5 26.5t-0.5 25v22v75h85l170 -283h171q-5 6 -10.5 14t-12 17t-13.5 19t-14 20.5l-14 21l-14 21t-13 20.5t-12 19l-96 157q60 25 97 74t37 113q0 93 -68.5 148.5t-189.5 55.5h-274q3 -7 5.5 -15.5
t5 -19.5t4 -22.5t3 -24.5l3 -26t2 -26.5t1 -26t1 -24.5t0.5 -23v-284v-22t-0.5 -25t-1.5 -26.5t-2 -26.5l-2 -26t-3 -25t-4 -22.5t-4.5 -19t-5.5 -15.5zM309 599q60 0 95 -28t35 -79q0 -54 -36 -83t-96 -29h-84v219h86zM314 -302q59 25 91 66t32 89q0 39 -22.5 62t-53.5 23
q-29 0 -48.5 -18.5t-19.5 -44.5q0 -8 1.5 -15t4.5 -12.5t7 -10.5t8.5 -9t9.5 -7.5t9.5 -7t8.5 -7.5t7 -8t4.5 -9.5t1.5 -11.5q0 -16 -12 -35.5t-33 -37.5z" />
    <glyph glyph-name="uni0157" unicode="&#x157;" horiz-adv-x="404" 
d="M44 0h179q-3 7 -5.5 16t-4.5 19.5t-3.5 22t-3 23.5t-2 24.5t-1.5 24.5t-1 23.5v22.5v137q23 40 52.5 62.5t69.5 22.5q19 0 37 -3t31 -7l-9 120q-7 3 -19 4.5t-24 1.5q-41 0 -78.5 -34t-59.5 -107v135l-160 -24q3 -7 6 -16t5 -19.5t4 -21.5t3 -23l2 -24t1.5 -24t0.5 -23
v-21v-135v-22.5t-0.5 -24t-1.5 -25t-2 -24.5t-2.5 -23.5t-3.5 -22t-4.5 -19.5t-5.5 -16zM83 -302q59 25 91 66t32 89q0 39 -22.5 62t-53.5 23q-29 0 -48.5 -18.5t-19.5 -44.5q0 -8 1.5 -15t4.5 -12.5t7 -10.5t8.5 -9t9.5 -7.5t9.5 -7t8.5 -7.5t7 -8t4.5 -9.5t1.5 -11.5
q0 -16 -12 -35.5t-33 -37.5z" />
    <glyph glyph-name="Rcaron" unicode="&#x158;" horiz-adv-x="646" 
d="M54 0h192q-3 7 -5.5 15.5t-4.5 19t-4 22.5t-3 25l-2 26t-2 26.5t-1.5 26.5t-0.5 25v22v75h85l170 -283h171q-5 6 -10.5 14t-12 17t-13.5 19t-14 20.5l-14 21l-14 21t-13 20.5t-12 19l-96 157q60 25 97 74t37 113q0 93 -68.5 148.5t-189.5 55.5h-274q3 -7 5.5 -15.5
t5 -19.5t4 -22.5t3 -24.5l3 -26t2 -26.5t1 -26t1 -24.5t0.5 -23v-284v-22t-0.5 -25t-1.5 -26.5t-2 -26.5l-2 -26t-3 -25t-4 -22.5t-4.5 -19t-5.5 -15.5zM309 599q60 0 95 -28t35 -79q0 -54 -36 -83t-96 -29h-84v219h86zM261 757h118l116 153h-64l-110 -83l-110 83h-66z" />
    <glyph glyph-name="rcaron" unicode="&#x159;" horiz-adv-x="404" 
d="M44 0h179q-3 7 -5.5 16t-4.5 19.5t-3.5 22t-3 23.5t-2 24.5t-1.5 24.5t-1 23.5v22.5v137q23 40 52.5 62.5t69.5 22.5q19 0 37 -3t31 -7l-9 120q-7 3 -19 4.5t-24 1.5q-41 0 -78.5 -34t-59.5 -107v135l-160 -24q3 -7 6 -16t5 -19.5t4 -21.5t3 -23l2 -24t1.5 -24t0.5 -23
v-21v-135v-22.5t-0.5 -24t-1.5 -25t-2 -24.5t-2.5 -23.5t-3.5 -22t-4.5 -19.5t-5.5 -16zM175 560h118l116 173h-64l-110 -98l-110 98h-66z" />
    <glyph glyph-name="Sacute" unicode="&#x15a;" horiz-adv-x="532" 
d="M268 -9q26 0 50 4t45.5 11.5t40.5 18t35 24.5t28 30.5t20.5 35t13 39.5t4.5 44q0 20 -3.5 38t-10 33t-15.5 28.5t-19.5 24.5t-23 21t-26 18t-28 15.5t-29.5 14.5t-30 13t-29 12t-28 12.5t-26 13t-23 13.5t-19.5 15.5t-15 17.5t-10 20t-3.5 24q0 36 25.5 59t68.5 23
q45 0 100 -23t112 -65l-26 154q-40 0 -89 14.5t-108 14.5q-25 0 -48.5 -4t-44 -11.5t-38 -18t-32 -24t-25.5 -29.5t-18.5 -34t-11 -37.5t-3.5 -40.5t3.5 -39t10 -34t15 -29.5t19.5 -25t23 -22t26 -19.5t28 -16.5t29 -14.5t29.5 -13.5l29 -13t28 -12.5t26 -13t23 -14
t19.5 -15t15 -17t9.5 -19.5t3.5 -22.5q1 -40 -28 -64t-72 -24q-52 0 -114.5 25t-132.5 79l29 -162q11 0 23 -1t24.5 -3.5t25 -5.5t26 -6t28 -6t29.5 -5.5t31.5 -4t33.5 -1.5zM193 757h72l159 153h-149z" />
    <glyph glyph-name="sacute" unicode="&#x15b;" horiz-adv-x="440" 
d="M222 -9q80 0 134 44.5t54 116.5q0 17 -3 31.5t-9 26.5t-14 22t-17.5 18.5t-20.5 15.5t-23 12.5l-24 11t-24.5 10t-24.5 8.5t-23 8.5t-20.5 9t-17.5 10t-14 11.5t-9 13.5t-3 16.5q0 23 17 37t48 14q37 0 79.5 -17t82.5 -51l-22 134q-30 -3 -68.5 7.5t-85.5 10.5
q-78 0 -128 -42.5t-50 -109.5q0 -18 3 -32.5t9 -27.5t13.5 -23.5t17.5 -19t21 -16t22.5 -13.5t24 -11l25 -10t24 -9.5t22.5 -8.5t21 -9t17.5 -10.5t13.5 -11.5t9 -13.5t3 -16.5q0 -25 -20.5 -40.5t-51.5 -15.5q-46 0 -94.5 21.5t-91.5 58.5l26 -137q34 2 74.5 -11t97.5 -13z
M166 560h71l159 173h-149z" />
    <glyph glyph-name="Scircumflex" unicode="&#x15c;" horiz-adv-x="532" 
d="M268 -9q26 0 50 4t45.5 11.5t40.5 18t35 24.5t28 30.5t20.5 35t13 39.5t4.5 44q0 20 -3.5 38t-10 33t-15.5 28.5t-19.5 24.5t-23 21t-26 18t-28 15.5t-29.5 14.5t-30 13t-29 12t-28 12.5t-26 13t-23 13.5t-19.5 15.5t-15 17.5t-10 20t-3.5 24q0 36 25.5 59t68.5 23
q45 0 100 -23t112 -65l-26 154q-40 0 -89 14.5t-108 14.5q-25 0 -48.5 -4t-44 -11.5t-38 -18t-32 -24t-25.5 -29.5t-18.5 -34t-11 -37.5t-3.5 -40.5t3.5 -39t10 -34t15 -29.5t19.5 -25t23 -22t26 -19.5t28 -16.5t29 -14.5t29.5 -13.5l29 -13t28 -12.5t26 -13t23 -14
t19.5 -15t15 -17t9.5 -19.5t3.5 -22.5q1 -40 -28 -64t-72 -24q-52 0 -114.5 25t-132.5 79l29 -162q11 0 23 -1t24.5 -3.5t25 -5.5t26 -6t28 -6t29.5 -5.5t31.5 -4t33.5 -1.5zM78 757h64l110 83l110 -83h66l-116 153h-118z" />
    <glyph glyph-name="scircumflex" unicode="&#x15d;" horiz-adv-x="440" 
d="M222 -9q80 0 134 44.5t54 116.5q0 17 -3 31.5t-9 26.5t-14 22t-17.5 18.5t-20.5 15.5t-23 12.5l-24 11t-24.5 10t-24.5 8.5t-23 8.5t-20.5 9t-17.5 10t-14 11.5t-9 13.5t-3 16.5q0 23 17 37t48 14q37 0 79.5 -17t82.5 -51l-22 134q-30 -3 -68.5 7.5t-85.5 10.5
q-78 0 -128 -42.5t-50 -109.5q0 -18 3 -32.5t9 -27.5t13.5 -23.5t17.5 -19t21 -16t22.5 -13.5t24 -11l25 -10t24 -9.5t22.5 -8.5t21 -9t17.5 -10.5t13.5 -11.5t9 -13.5t3 -16.5q0 -25 -20.5 -40.5t-51.5 -15.5q-46 0 -94.5 21.5t-91.5 58.5l26 -137q34 2 74.5 -11t97.5 -13z
M51 560h64l110 98l110 -98h66l-116 173h-118z" />
    <glyph glyph-name="uni015E" unicode="&#x15e;" horiz-adv-x="532" 
d="M264 -217q55 0 89.5 26.5t34.5 67.5q0 35 -27 57t-70 22h-5t-5 -1l21 38q90 9 147 65.5t56 139.5q0 20 -3.5 38t-10 33t-15.5 28.5t-19.5 24.5t-23 21t-26 18t-28 15.5t-29.5 14.5t-30 13t-29 12t-28 12.5t-26 13t-23 13.5t-19.5 15.5t-15 17.5t-10 20t-3.5 24
q0 36 25.5 59t68.5 23q45 0 100 -23t112 -65l-26 154q-40 0 -89 14.5t-108 14.5q-25 0 -48.5 -4t-44 -11.5t-38 -18t-32 -24t-25.5 -29.5t-18.5 -34t-11 -37.5t-3.5 -40.5t3.5 -39t10 -34t15 -29.5t19.5 -25t23 -22t26 -19.5t28 -16.5t29 -14.5t29.5 -13.5l29 -13t28 -12.5
t26 -13t23 -14t19.5 -15t15 -17t9.5 -19.5t3.5 -22.5q1 -40 -28 -64t-72 -24q-52 0 -114.5 25t-132.5 79l29 -162q41 1 88.5 -13.5t107.5 -18.5l-48 -89l5 -5q10 3 25 5t28 2q22 0 34.5 -7.5t12.5 -19.5q0 -13 -14.5 -20.5t-40.5 -7.5q-23 0 -46 6t-43 15l7 -70
q19 -7 46 -12.5t55 -5.5z" />
    <glyph glyph-name="uni015F" unicode="&#x15f;" horiz-adv-x="440" 
d="M206 -217q55 0 89.5 26.5t34.5 67.5q0 35 -27 57t-70 22h-5t-5 -1l20 37q72 6 119.5 49.5t47.5 110.5q0 17 -3 31.5t-9 26.5t-14 22t-17.5 18.5t-20.5 15.5t-23 12.5l-24 11t-24.5 10t-24.5 8.5t-23 8.5t-20.5 9t-17.5 10t-14 11.5t-9 13.5t-3 16.5q0 23 17 37t48 14
q37 0 79.5 -17t82.5 -51l-22 134q-30 -3 -68.5 7.5t-85.5 10.5q-78 0 -128 -42.5t-50 -109.5q0 -18 3 -32.5t9 -27.5t13.5 -23.5t17.5 -19t21 -16t22.5 -13.5t24 -11l25 -10t24 -9.5t22.5 -8.5t21 -9t17.5 -10.5t13.5 -11.5t9 -13.5t3 -16.5q0 -25 -20.5 -40.5t-51.5 -15.5
q-46 0 -94.5 21.5t-91.5 58.5l26 -137q28 1 60.5 -8.5t74.5 -13.5l-48 -90l5 -5q10 3 25 5t28 2q22 0 34.5 -7.5t12.5 -19.5q0 -13 -14.5 -20.5t-40.5 -7.5q-23 0 -46 6t-43 15l7 -70q19 -7 46 -12.5t55 -5.5z" />
    <glyph glyph-name="Scaron" unicode="&#x160;" horiz-adv-x="532" 
d="M268 -9q26 0 50 4t45.5 11.5t40.5 18t35 24.5t28 30.5t20.5 35t13 39.5t4.5 44q0 20 -3.5 38t-10 33t-15.5 28.5t-19.5 24.5t-23 21t-26 18t-28 15.5t-29.5 14.5t-30 13t-29 12t-28 12.5t-26 13t-23 13.5t-19.5 15.5t-15 17.5t-10 20t-3.5 24q0 36 25.5 59t68.5 23
q45 0 100 -23t112 -65l-26 154q-40 0 -89 14.5t-108 14.5q-25 0 -48.5 -4t-44 -11.5t-38 -18t-32 -24t-25.5 -29.5t-18.5 -34t-11 -37.5t-3.5 -40.5t3.5 -39t10 -34t15 -29.5t19.5 -25t23 -22t26 -19.5t28 -16.5t29 -14.5t29.5 -13.5l29 -13t28 -12.5t26 -13t23 -14
t19.5 -15t15 -17t9.5 -19.5t3.5 -22.5q1 -40 -28 -64t-72 -24q-52 0 -114.5 25t-132.5 79l29 -162q11 0 23 -1t24.5 -3.5t25 -5.5t26 -6t28 -6t29.5 -5.5t31.5 -4t33.5 -1.5zM194 757h118l116 153h-64l-110 -82l-110 82h-66z" />
    <glyph glyph-name="scaron" unicode="&#x161;" horiz-adv-x="440" 
d="M222 -9q80 0 134 44.5t54 116.5q0 17 -3 31.5t-9 26.5t-14 22t-17.5 18.5t-20.5 15.5t-23 12.5l-24 11t-24.5 10t-24.5 8.5t-23 8.5t-20.5 9t-17.5 10t-14 11.5t-9 13.5t-3 16.5q0 23 17 37t48 14q37 0 79.5 -17t82.5 -51l-22 134q-30 -3 -68.5 7.5t-85.5 10.5
q-78 0 -128 -42.5t-50 -109.5q0 -18 3 -32.5t9 -27.5t13.5 -23.5t17.5 -19t21 -16t22.5 -13.5t24 -11l25 -10t24 -9.5t22.5 -8.5t21 -9t17.5 -10.5t13.5 -11.5t9 -13.5t3 -16.5q0 -25 -20.5 -40.5t-51.5 -15.5q-46 0 -94.5 21.5t-91.5 58.5l26 -137q34 2 74.5 -11t97.5 -13z
M167 560h118l116 173h-64l-110 -97l-110 97h-66z" />
    <glyph glyph-name="uni0162" unicode="&#x162;" horiz-adv-x="634" 
d="M218 0h69l-52 -97l5 -5q10 3 25 5t28 2q22 0 34.5 -7.5t12.5 -19.5q0 -13 -14.5 -20.5t-40.5 -7.5q-23 0 -46 6t-43 15l7 -70q19 -7 46 -12.5t55 -5.5q55 0 89.5 26.5t34.5 67.5q0 35 -27 57.5t-70 22.5h-9l24 43h69q-3 7 -5.5 15.5t-4.5 19.5t-4 23t-3.5 24.5t-2.5 26
t-2 26.5t-1.5 26t-0.5 25v22v392h33q51 0 104.5 -7t101.5 -28l-22 135h-582l-22 -135q48 21 101.5 28t104.5 7h32v-392v-22t-0.5 -25t-1.5 -26t-2 -26.5t-2.5 -26t-3.5 -24.5t-4 -23t-4.5 -19.5t-5.5 -15.5z" />
    <glyph glyph-name="uni0163" unicode="&#x163;" horiz-adv-x="374" 
d="M223 -217q55 0 89.5 26.5t34.5 67.5q0 35 -27 57t-70 22h-5t-5 -1l19 35q27 1 52.5 8t43.5 16l7 82q-12 -5 -28 -10t-32 -5q-28 0 -44 15t-16 46v276h118v85h-118v136l-138 -29v-107h-88l-19 -85h107v-291q0 -55 25 -89t74 -44l-49 -91l5 -5q10 3 25 5t28 2
q22 0 34.5 -7.5t12.5 -19.5q0 -13 -14.5 -20.5t-40.5 -7.5q-23 0 -46 6t-43 15l7 -70q19 -7 46 -12.5t55 -5.5z" />
    <glyph glyph-name="Tcaron" unicode="&#x164;" horiz-adv-x="634" 
d="M218 0h197q-3 7 -5.5 15.5t-4.5 19.5t-4 23t-3.5 24.5t-2.5 26t-2 26.5t-1.5 26t-0.5 25v22v392h33q51 0 104.5 -7t101.5 -28l-22 135h-582l-22 -135q48 21 101.5 28t104.5 7h32v-392v-22t-0.5 -25t-1.5 -26t-2 -26.5t-2.5 -26t-3.5 -24.5t-4 -23t-4.5 -19.5t-5.5 -15.5z
M257 757h118l116 153h-64l-110 -83l-110 83h-66z" />
    <glyph glyph-name="tcaron" unicode="&#x165;" horiz-adv-x="374" 
d="M308 750l-12 -191h63l79 191h-130zM247 -10q30 0 59 7t49 17l7 82q-12 -5 -28 -10t-32 -5q-28 0 -44 15t-16 46v276h118v85h-118v136l-138 -29v-107h-88l-19 -85h107v-291q0 -66 37 -101.5t106 -35.5z" />
    <glyph glyph-name="Tbar" unicode="&#x166;" horiz-adv-x="634" 
d="M218 0h197q-3 7 -5.5 15.5t-4.5 19.5t-4 23t-3.5 24.5t-2.5 26t-2 26.5t-1.5 26t-0.5 25v22v93h119l17 87h-136v212h33q51 0 104.5 -7t101.5 -28l-22 135h-582l-22 -135q48 21 101.5 28t104.5 7h32v-212h-118l-17 -87h135v-93v-22t-0.5 -25t-1.5 -26t-2 -26.5t-2.5 -26
t-3.5 -24.5t-4 -23t-4.5 -19.5t-5.5 -15.5z" />
    <glyph glyph-name="tbar" unicode="&#x167;" horiz-adv-x="374" 
d="M247 -10q30 0 59 7t49 17l7 82q-12 -5 -28 -10t-32 -5q-28 0 -44 15t-16 46v110h118v74h-118v92h118v85h-118v136l-138 -29v-107h-88l-19 -85h107v-92h-88l-18 -74h106v-125q0 -66 37 -101.5t106 -35.5z" />
    <glyph glyph-name="Utilde" unicode="&#x168;" horiz-adv-x="716" 
d="M358 -13q32 0 62 5t56.5 14.5t49.5 23.5t42 32t34 40.5t25 49t15.5 56.5t5.5 64v220v22.5t0.5 24.5t1.5 26t2 26.5t2.5 26t3.5 24.5t4 23t4.5 19.5t5.5 15.5h-164q3 -7 5.5 -15.5t4.5 -19.5t4 -23t3.5 -24.5t2.5 -26t2 -26.5t1.5 -26t0.5 -24.5v-22.5v-226
q0 -84 -45.5 -127t-112.5 -43t-112 43t-45 126v227v22.5t0.5 24.5t1.5 26.5t2 26.5l2 26t3 25t4 22.5t4.5 19.5t5.5 15h-194q3 -6 5.5 -15t4.5 -19.5t3.5 -22.5t2.5 -25l2 -26t2 -26.5t1.5 -26.5t0.5 -25v-22v-232q0 -33 5.5 -62t15.5 -54t25 -46.5t34.5 -39t42.5 -31
t49.5 -22.5t56 -13.5t61.5 -4.5zM206 767h26q13 29 28.5 42.5t34.5 13.5q7 0 14 -2t14.5 -5t15.5 -7.5l16 -9t16.5 -9t17.5 -9t18 -7.5t18.5 -5t18.5 -2q38 0 66.5 33t44.5 105h-27q-13 -28 -28 -41.5t-34 -13.5q-7 0 -14 2t-14.5 5t-15.5 7t-16.5 9t-17 9.5t-17 8.5t-18 7
t-18.5 5t-19 2q-37 0 -66 -32.5t-44 -105.5z" />
    <glyph glyph-name="utilde" unicode="&#x169;" horiz-adv-x="576" 
d="M215 -11q51 0 91.5 26.5t67.5 69.5v-91l158 14q-3 7 -5.5 16t-4.5 19.5t-3.5 21.5t-2.5 22.5t-2 23.5t-1.5 23.5t-0.5 22v20.5v331l-160 -24q3 -7 6 -16t5 -19.5t4 -21.5t3 -23l2 -24t1.5 -24t0.5 -23v-21v-172q-19 -24 -43.5 -39.5t-52.5 -15.5q-34 0 -56 23t-22 66v334
l-160 -24q3 -7 6 -16t5 -19.5t3.5 -21.5t2.5 -23l2 -24t1.5 -24t0.5 -23v-21v-156q0 -78 42.5 -122.5t111.5 -44.5zM119 570h26q15 33 30 49t34 16q7 0 14 -2t14.5 -6t15 -9t15.5 -10t16.5 -10.5t17 -10.5t18 -9t18.5 -6t19 -2q37 0 65.5 35.5t45.5 113.5h-27
q-14 -32 -29 -48.5t-34 -16.5q-7 0 -14 2t-14.5 6t-15.5 9t-16 10.5t-16.5 11t-17 10.5t-18 9t-18.5 6t-19 2q-37 0 -65.5 -36t-44.5 -114z" />
    <glyph glyph-name="Umacron" unicode="&#x16a;" horiz-adv-x="716" 
d="M358 -13q32 0 62 5t56.5 14.5t49.5 23.5t42 32t34 40.5t25 49t15.5 56.5t5.5 64v220v22.5t0.5 24.5t1.5 26t2 26.5t2.5 26t3.5 24.5t4 23t4.5 19.5t5.5 15.5h-164q3 -7 5.5 -15.5t4.5 -19.5t4 -23t3.5 -24.5t2.5 -26t2 -26.5t1.5 -26t0.5 -24.5v-22.5v-226
q0 -84 -45.5 -127t-112.5 -43t-112 43t-45 126v227v22.5t0.5 24.5t1.5 26.5t2 26.5l2 26t3 25t4 22.5t4.5 19.5t5.5 15h-194q3 -6 5.5 -15t4.5 -19.5t3.5 -22.5t2.5 -25l2 -26t2 -26.5t1.5 -26.5t0.5 -25v-22v-232q0 -33 5.5 -62t15.5 -54t25 -46.5t34.5 -39t42.5 -31
t49.5 -22.5t56 -13.5t61.5 -4.5zM225 788h296v82h-296v-82z" />
    <glyph glyph-name="umacron" unicode="&#x16b;" horiz-adv-x="576" 
d="M215 -11q51 0 91.5 26.5t67.5 69.5v-91l158 14q-3 7 -5.5 16t-4.5 19.5t-3.5 21.5t-2.5 22.5t-2 23.5t-1.5 23.5t-0.5 22v20.5v331l-160 -24q3 -7 6 -16t5 -19.5t4 -21.5t3 -23l2 -24t1.5 -24t0.5 -23v-21v-172q-19 -24 -43.5 -39.5t-52.5 -15.5q-34 0 -56 23t-22 66v334
l-160 -24q3 -7 6 -16t5 -19.5t3.5 -21.5t2.5 -23l2 -24t1.5 -24t0.5 -23v-21v-156q0 -78 42.5 -122.5t111.5 -44.5zM138 596h296v82h-296v-82z" />
    <glyph glyph-name="Ubreve" unicode="&#x16c;" horiz-adv-x="716" 
d="M358 -13q32 0 62 5t56.5 14.5t49.5 23.5t42 32t34 40.5t25 49t15.5 56.5t5.5 64v220v22.5t0.5 24.5t1.5 26t2 26.5t2.5 26t3.5 24.5t4 23t4.5 19.5t5.5 15.5h-164q3 -7 5.5 -15.5t4.5 -19.5t4 -23t3.5 -24.5t2.5 -26t2 -26.5t1.5 -26t0.5 -24.5v-22.5v-226
q0 -84 -45.5 -127t-112.5 -43t-112 43t-45 126v227v22.5t0.5 24.5t1.5 26.5t2 26.5l2 26t3 25t4 22.5t4.5 19.5t5.5 15h-194q3 -6 5.5 -15t4.5 -19.5t3.5 -22.5t2.5 -25l2 -26t2 -26.5t1.5 -26.5t0.5 -25v-22v-232q0 -33 5.5 -62t15.5 -54t25 -46.5t34.5 -39t42.5 -31
t49.5 -22.5t56 -13.5t61.5 -4.5zM373 754q68 0 112 39t50 111h-18q-16 -32 -53.5 -49.5t-90.5 -17.5t-90.5 17.5t-53.5 49.5h-18q6 -72 50 -111t112 -39z" />
    <glyph glyph-name="ubreve" unicode="&#x16d;" horiz-adv-x="576" 
d="M215 -11q51 0 91.5 26.5t67.5 69.5v-91l158 14q-3 7 -5.5 16t-4.5 19.5t-3.5 21.5t-2.5 22.5t-2 23.5t-1.5 23.5t-0.5 22v20.5v331l-160 -24q3 -7 6 -16t5 -19.5t4 -21.5t3 -23l2 -24t1.5 -24t0.5 -23v-21v-172q-19 -24 -43.5 -39.5t-52.5 -15.5q-34 0 -56 23t-22 66v334
l-160 -24q3 -7 6 -16t5 -19.5t3.5 -21.5t2.5 -23l2 -24t1.5 -24t0.5 -23v-21v-156q0 -78 42.5 -122.5t111.5 -44.5zM286 557q66 0 109 44.5t50 125.5h-18q-20 -39 -54.5 -63t-86.5 -24t-86.5 24t-54.5 63h-18q7 -81 50 -125.5t109 -44.5z" />
    <glyph glyph-name="Uring" unicode="&#x16e;" horiz-adv-x="716" 
d="M358 -13q32 0 62 5t56.5 14.5t49.5 23.5t42 32t34 40.5t25 49t15.5 56.5t5.5 64v220v22.5t0.5 24.5t1.5 26t2 26.5t2.5 26t3.5 24.5t4 23t4.5 19.5t5.5 15.5h-164q3 -7 5.5 -15.5t4.5 -19.5t4 -23t3.5 -24.5t2.5 -26t2 -26.5t1.5 -26t0.5 -24.5v-22.5v-226
q0 -84 -45.5 -127t-112.5 -43t-112 43t-45 126v227v22.5t0.5 24.5t1.5 26.5t2 26.5l2 26t3 25t4 22.5t4.5 19.5t5.5 15h-194q3 -6 5.5 -15t4.5 -19.5t3.5 -22.5t2.5 -25l2 -26t2 -26.5t1.5 -26.5t0.5 -25v-22v-232q0 -33 5.5 -62t15.5 -54t25 -46.5t34.5 -39t42.5 -31
t49.5 -22.5t56 -13.5t61.5 -4.5zM373 755q51 0 84 31.5t33 76.5q0 46 -33 77.5t-84 31.5t-84 -31.5t-33 -77.5q0 -45 33 -76.5t84 -31.5zM373 808q-25 0 -41 16t-16 39q0 24 16 40t41 16t41 -16t16 -40q0 -23 -16 -39t-41 -16z" />
    <glyph glyph-name="uring" unicode="&#x16f;" horiz-adv-x="576" 
d="M215 -11q51 0 91.5 26.5t67.5 69.5v-91l158 14q-3 7 -5.5 16t-4.5 19.5t-3.5 21.5t-2.5 22.5t-2 23.5t-1.5 23.5t-0.5 22v20.5v331l-160 -24q3 -7 6 -16t5 -19.5t4 -21.5t3 -23l2 -24t1.5 -24t0.5 -23v-21v-172q-19 -24 -43.5 -39.5t-52.5 -15.5q-34 0 -56 23t-22 66v334
l-160 -24q3 -7 6 -16t5 -19.5t3.5 -21.5t2.5 -23l2 -24t1.5 -24t0.5 -23v-21v-156q0 -78 42.5 -122.5t111.5 -44.5zM286 564q51 0 84 31t33 77t-33 77t-84 31t-84 -31t-33 -77t33 -77t84 -31zM286 617q-25 0 -41 16t-16 39t16 39t41 16t41 -16t16 -39t-16 -39t-41 -16z" />
    <glyph glyph-name="Uhungarumlaut" unicode="&#x170;" horiz-adv-x="716" 
d="M358 -13q32 0 62 5t56.5 14.5t49.5 23.5t42 32t34 40.5t25 49t15.5 56.5t5.5 64v220v22.5t0.5 24.5t1.5 26t2 26.5t2.5 26t3.5 24.5t4 23t4.5 19.5t5.5 15.5h-164q3 -7 5.5 -15.5t4.5 -19.5t4 -23t3.5 -24.5t2.5 -26t2 -26.5t1.5 -26t0.5 -24.5v-22.5v-226
q0 -84 -45.5 -127t-112.5 -43t-112 43t-45 126v227v22.5t0.5 24.5t1.5 26.5t2 26.5l2 26t3 25t4 22.5t4.5 19.5t5.5 15h-194q3 -6 5.5 -15t4.5 -19.5t3.5 -22.5t2.5 -25l2 -26t2 -26.5t1.5 -26.5t0.5 -25v-22v-232q0 -33 5.5 -62t15.5 -54t25 -46.5t34.5 -39t42.5 -31
t49.5 -22.5t56 -13.5t61.5 -4.5zM231 757h74l145 153h-134zM411 757h74l145 153h-134z" />
    <glyph glyph-name="uhungarumlaut" unicode="&#x171;" horiz-adv-x="576" 
d="M215 -11q51 0 91.5 26.5t67.5 69.5v-91l158 14q-3 7 -5.5 16t-4.5 19.5t-3.5 21.5t-2.5 22.5t-2 23.5t-1.5 23.5t-0.5 22v20.5v331l-160 -24q3 -7 6 -16t5 -19.5t4 -21.5t3 -23l2 -24t1.5 -24t0.5 -23v-21v-172q-19 -24 -43.5 -39.5t-52.5 -15.5q-34 0 -56 23t-22 66v334
l-160 -24q3 -7 6 -16t5 -19.5t3.5 -21.5t2.5 -23l2 -24t1.5 -24t0.5 -23v-21v-156q0 -78 42.5 -122.5t111.5 -44.5zM144 560h74l145 173h-134zM324 560h74l145 173h-134z" />
    <glyph glyph-name="Uogonek" unicode="&#x172;" horiz-adv-x="716" 
d="M358 -13q19 0 36.5 1.5t34.5 4.5q-59 -29 -86.5 -59.5t-27.5 -65.5q0 -34 29.5 -56.5t75.5 -22.5q18 0 38 3.5t35 8.5l16 70q-11 -4 -25 -7t-26 -3q-21 0 -33.5 10.5t-12.5 29.5q0 25 20 51.5t62 60.5h-1q72 31 113.5 97t41.5 162v220v22.5t0.5 24.5t1.5 26t2 26.5
t2.5 26t3.5 24.5t4 23t4.5 19.5t5.5 15.5h-164q3 -7 5.5 -15.5t4.5 -19.5t4 -23t3.5 -24.5t2.5 -26t2 -26.5t1.5 -26t0.5 -24.5v-22.5v-226q0 -84 -45.5 -127t-112.5 -43t-112 43t-45 126v227v22.5t0.5 24.5t1.5 26.5t2 26.5l2 26t3 25t4 22.5t4.5 19.5t5.5 15h-194
q3 -6 5.5 -15t4.5 -19.5t3.5 -22.5t2.5 -25l2 -26t2 -26.5t1.5 -26.5t0.5 -25v-22v-232q0 -33 5.5 -62t15.5 -54t25 -46.5t34.5 -39t42.5 -31t49.5 -22.5t56 -13.5t61.5 -4.5z" />
    <glyph glyph-name="uogonek" unicode="&#x173;" horiz-adv-x="576" 
d="M215 -11q51 0 91.5 26.5t67.5 69.5v-91l97 9q-69 -29 -101 -60t-32 -67q0 -34 29.5 -56.5t75.5 -22.5q17 0 36.5 3.5t34.5 8.5l16 70q-11 -4 -24.5 -7t-24.5 -3q-21 0 -33.5 10.5t-12.5 29.5q0 21 23 45.5t64 51.5l-4 1l14 1q-3 7 -5.5 16t-4.5 19.5t-3.5 21.5t-2.5 22.5
t-2 23.5t-1.5 23.5t-0.5 22v20.5v331l-160 -24q3 -7 6 -16t5 -19.5t4 -21.5t3 -23l2 -24t1.5 -24t0.5 -23v-21v-172q-19 -24 -43.5 -39.5t-52.5 -15.5q-34 0 -56 23t-22 66v334l-160 -24q3 -7 6 -16t5 -19.5t3.5 -21.5t2.5 -23l2 -24t1.5 -24t0.5 -23v-21v-156
q0 -78 42.5 -122.5t111.5 -44.5z" />
    <glyph glyph-name="Wcircumflex" unicode="&#x174;" horiz-adv-x="940" 
d="M857 508q19 53 40.5 106.5t37.5 85.5h-158q7 -32 -3.5 -79t-25.5 -93l-75 -235l-190 429l-179 -429l-76 235q-15 45 -25.5 92.5t-6.5 79.5h-190q16 -32 37 -85.5t40 -106.5l189 -530l192 452l204 -452zM311 757h64l110 83l110 -83h66l-116 153h-118z" />
    <glyph glyph-name="wcircumflex" unicode="&#x175;" horiz-adv-x="726" 
d="M662 350q17 43 34 84t30 69h-134q3 -26 -5 -63t-21 -76l-47 -134l-143 294l-134 -294l-48 134q-13 39 -20.5 76t-3.5 63h-170q13 -28 29.5 -69t34.5 -84l148 -374l145 309l157 -309zM203 560h64l110 98l110 -98h66l-116 173h-118z" />
    <glyph glyph-name="Ycircumflex" unicode="&#x176;" horiz-adv-x="676" 
d="M238 0h198q-3 7 -6 16.5t-5 21.5t-4 25.5t-3.5 28t-2.5 29.5l-2 30t-1.5 29t-0.5 27.5v24.5v31l173 285q25 43 51 84t45 68h-168q3 -25 -10 -62.5t-34 -73.5l-110 -188l-112 188q-21 36 -35 73.5t-11 62.5h-204q19 -27 44.5 -68t51.5 -84l170 -281v-35v-24.5t-0.5 -27.5
t-1.5 -29l-2 -30t-2.5 -29.5t-3.5 -28t-4 -25.5t-4.5 -21.5t-5.5 -16.5zM181 757h64l110 83l110 -83h66l-116 153h-118z" />
    <glyph glyph-name="ycircumflex" unicode="&#x177;" horiz-adv-x="536" 
d="M110 -208q63 0 109.5 34t76.5 104l172 414q19 45 38 88t34 71h-144q3 -28 -7 -67t-25 -78l-78 -200l-80 200q-16 39 -25.5 78t-8.5 67h-176q15 -28 33.5 -71t37.5 -88l146 -342l-15 -34q-18 -40 -40.5 -58t-55.5 -18q-20 0 -37 5.5t-33 12.5l12 -104q13 -6 30 -10t36 -4z
M117 560h64l110 98l110 -98h66l-116 173h-118z" />
    <glyph glyph-name="Ydieresis" unicode="&#x178;" horiz-adv-x="676" 
d="M238 0h198q-3 7 -6 16.5t-5 21.5t-4 25.5t-3.5 28t-2.5 29.5l-2 30t-1.5 29t-0.5 27.5v24.5v31l173 285q25 43 51 84t45 68h-168q3 -25 -10 -62.5t-34 -73.5l-110 -188l-112 188q-21 36 -35 73.5t-11 62.5h-204q19 -27 44.5 -68t51.5 -84l170 -281v-35v-24.5t-0.5 -27.5
t-1.5 -29l-2 -30t-2.5 -29.5t-3.5 -28t-4 -25.5t-4.5 -21.5t-5.5 -16.5zM257 764q34 0 54.5 22t20.5 52t-20.5 51.5t-54.5 21.5q-33 0 -54 -21.5t-21 -51.5t21 -52t54 -22zM455 764q33 0 54 22t21 52t-21 51.5t-54 21.5q-34 0 -54.5 -21.5t-20.5 -51.5t20.5 -52t54.5 -22z
" />
    <glyph glyph-name="Zacute" unicode="&#x179;" horiz-adv-x="580" 
d="M550 0l20 133q-10 -4 -22.5 -7.5t-25.5 -6.5t-27.5 -6t-29 -5l-29 -4t-29 -3.5t-27.5 -2.5t-25.5 -1.5t-22.5 -0.5h-119l363 604h-528l-23 -134q49 19 110.5 26.5t112.5 7.5h112l-360 -600h550zM240 757h72l159 153h-149z" />
    <glyph glyph-name="zacute" unicode="&#x17a;" horiz-adv-x="445" 
d="M-1 0h412l18 115q-35 -16 -82.5 -24.5t-88.5 -8.5h-65l249 421h-402l-25 -116q35 16 80 23.5t88 7.5h63zM170 560h71l159 173h-149z" />
    <glyph glyph-name="Zdotaccent" unicode="&#x17b;" horiz-adv-x="580" 
d="M550 0l20 133q-10 -4 -22.5 -7.5t-25.5 -6.5t-27.5 -6t-29 -5l-29 -4t-29 -3.5t-27.5 -2.5t-25.5 -1.5t-22.5 -0.5h-119l363 604h-528l-23 -134q49 19 110.5 26.5t112.5 7.5h112l-360 -600h550zM300 762q34 0 56 22.5t22 53.5t-22 53.5t-56 22.5t-56 -22.5t-22 -53.5
t22 -53.5t56 -22.5z" />
    <glyph glyph-name="zdotaccent" unicode="&#x17c;" horiz-adv-x="445" 
d="M-1 0h412l18 115q-35 -16 -82.5 -24.5t-88.5 -8.5h-65l249 421h-402l-25 -116q35 16 80 23.5t88 7.5h63zM230 571q34 0 56 22.5t22 53.5t-22 53.5t-56 22.5t-56 -22.5t-22 -53.5t22 -53.5t56 -22.5z" />
    <glyph glyph-name="Zcaron" unicode="&#x17d;" horiz-adv-x="580" 
d="M550 0l20 133q-10 -4 -22.5 -7.5t-25.5 -6.5t-27.5 -6t-29 -5l-29 -4t-29 -3.5t-27.5 -2.5t-25.5 -1.5t-22.5 -0.5h-119l363 604h-528l-23 -134q49 19 110.5 26.5t112.5 7.5h112l-360 -600h550zM241 757h118l116 153h-64l-110 -83l-110 83h-66z" />
    <glyph glyph-name="zcaron" unicode="&#x17e;" horiz-adv-x="445" 
d="M-1 0h412l18 115q-35 -16 -82.5 -24.5t-88.5 -8.5h-65l249 421h-402l-25 -116q35 16 80 23.5t88 7.5h63zM171 560h118l116 173h-64l-110 -98l-110 98h-66z" />
    <glyph glyph-name="uni0218" unicode="&#x218;" horiz-adv-x="532" 
d="M268 -9q26 0 50 4t45.5 11.5t40.5 18t35 24.5t28 30.5t20.5 35t13 39.5t4.5 44q0 20 -3.5 38t-10 33t-15.5 28.5t-19.5 24.5t-23 21t-26 18t-28 15.5t-29.5 14.5t-30 13t-29 12t-28 12.5t-26 13t-23 13.5t-19.5 15.5t-15 17.5t-10 20t-3.5 24q0 36 25.5 59t68.5 23
q45 0 100 -23t112 -65l-26 154q-40 0 -89 14.5t-108 14.5q-25 0 -48.5 -4t-44 -11.5t-38 -18t-32 -24t-25.5 -29.5t-18.5 -34t-11 -37.5t-3.5 -40.5t3.5 -39t10 -34t15 -29.5t19.5 -25t23 -22t26 -19.5t28 -16.5t29 -14.5t29.5 -13.5l29 -13t28 -12.5t26 -13t23 -14
t19.5 -15t15 -17t9.5 -19.5t3.5 -22.5q1 -40 -28 -64t-72 -24q-52 0 -114.5 25t-132.5 79l29 -162q11 0 23 -1t24.5 -3.5t25 -5.5t26 -6t28 -6t29.5 -5.5t31.5 -4t33.5 -1.5zM226 -302q59 25 91 66t32 89q0 39 -22.5 62t-53.5 23q-29 0 -48 -18.5t-19 -44.5q0 -9 1.5 -15.5
t4.5 -12.5t7 -10.5t8.5 -8.5t9 -7.5l9 -7t8.5 -7.5t7 -8t4.5 -9.5t1.5 -11.5q0 -16 -12 -35.5t-33 -37.5z" />
    <glyph glyph-name="uni0219" unicode="&#x219;" horiz-adv-x="440" 
d="M222 -9q80 0 134 44.5t54 116.5q0 17 -3 31.5t-9 26.5t-14 22t-17.5 18.5t-20.5 15.5t-23 12.5l-24 11t-24.5 10t-24.5 8.5t-23 8.5t-20.5 9t-17.5 10t-14 11.5t-9 13.5t-3 16.5q0 23 17 37t48 14q37 0 79.5 -17t82.5 -51l-22 134q-30 -3 -68.5 7.5t-85.5 10.5
q-78 0 -128 -42.5t-50 -109.5q0 -18 3 -32.5t9 -27.5t13.5 -23.5t17.5 -19t21 -16t22.5 -13.5t24 -11l25 -10t24 -9.5t22.5 -8.5t21 -9t17.5 -10.5t13.5 -11.5t9 -13.5t3 -16.5q0 -25 -20.5 -40.5t-51.5 -15.5q-46 0 -94.5 21.5t-91.5 58.5l26 -137q34 2 74.5 -11t97.5 -13z
M168 -302q59 25 91 66t32 89q0 39 -22.5 62t-53.5 23q-29 0 -48 -18.5t-19 -44.5q0 -9 1.5 -15.5t4.5 -12.5t7 -10.5t8.5 -8.5t9 -7.5l9 -7t8.5 -7.5t7 -8t4.5 -9.5t1.5 -11.5q0 -16 -12 -35.5t-33 -37.5z" />
    <glyph glyph-name="uni021A" unicode="&#x21a;" horiz-adv-x="634" 
d="M218 0h197q-3 7 -5.5 15.5t-4.5 19.5t-4 23t-3.5 24.5t-2.5 26t-2 26.5t-1.5 26t-0.5 25v22v392h33q51 0 104.5 -7t101.5 -28l-22 135h-582l-22 -135q48 21 101.5 28t104.5 7h32v-392v-22t-0.5 -25t-1.5 -26t-2 -26.5t-2.5 -26t-3.5 -24.5t-4 -23t-4.5 -19.5t-5.5 -15.5z
M266 -302q59 25 91 66t32 89q0 39 -22.5 62t-53.5 23q-29 0 -48.5 -18.5t-19.5 -44.5q0 -8 1.5 -15t4.5 -12.5t7 -10.5t8.5 -9t9.5 -7.5t9.5 -7t8.5 -7.5t7 -8t4.5 -9.5t1.5 -11.5q0 -16 -12 -35.5t-33 -37.5z" />
    <glyph glyph-name="uni021B" unicode="&#x21b;" horiz-adv-x="374" 
d="M247 -10q30 0 59 7t49 17l7 82q-12 -5 -28 -10t-32 -5q-28 0 -44 15t-16 46v276h118v85h-118v136l-138 -29v-107h-88l-19 -85h107v-291q0 -66 37 -101.5t106 -35.5zM185 -302q59 25 91 66t32 89q0 39 -22.5 62t-53.5 23q-29 0 -48 -18.5t-19 -44.5q0 -9 1.5 -15.5
t4.5 -12.5t7 -10.5t8.5 -8.5t9 -7.5l9 -7t8.5 -7.5t7 -8t4.5 -9.5t1.5 -11.5q0 -16 -12 -35.5t-33 -37.5z" />
    <glyph glyph-name="uni0237" unicode="&#x237;" horiz-adv-x="262" 
d="M40 -208q76 0 119 39t43 117v560l-160 -24q3 -7 6 -16t5 -19.5t4 -21.5t3 -23l2 -24t1.5 -24t0.5 -23v-21v-370q0 -28 -13.5 -42.5t-40.5 -14.5q-15 0 -33.5 3.5t-34.5 9.5l10 -90q18 -7 41 -11.5t47 -4.5z" />
    <glyph glyph-name="circumflex" unicode="&#x2c6;" 
d="M75 559h64l110 98l110 -98h66l-116 173h-118z" />
    <glyph glyph-name="caron" unicode="&#x2c7;" 
d="M191 559h118l116 173h-64l-110 -98l-110 98h-66z" />
    <glyph glyph-name="breve" unicode="&#x2d8;" 
d="M250 556q66 0 109 44.5t50 125.5h-18q-20 -39 -54.5 -63t-86.5 -24t-86.5 24t-54.5 63h-18q7 -81 50 -125.5t109 -44.5z" />
    <glyph glyph-name="dotaccent" unicode="&#x2d9;" 
d="M250 570q34 0 56 22.5t22 53.5t-22 53.5t-56 22.5t-56 -22.5t-22 -53.5t22 -53.5t56 -22.5z" />
    <glyph glyph-name="ring" unicode="&#x2da;" 
d="M250 563q51 0 84 31t33 77t-33 77t-84 31t-84 -31t-33 -77t33 -77t84 -31zM250 616q-25 0 -41 16t-16 39t16 39t41 16t41 -16t16 -39t-16 -39t-41 -16z" />
    <glyph glyph-name="ogonek" unicode="&#x2db;" 
d="M255 -209q17 0 36.5 3.5t34.5 8.5l16 70q-11 -4 -24.5 -7t-24.5 -3q-21 0 -33.5 10.5t-12.5 29.5q0 21 23 45.5t64 51.5l-27 6q-81 -31 -119 -64t-38 -72q0 -34 29.5 -56.5t75.5 -22.5z" />
    <glyph glyph-name="tilde" unicode="&#x2dc;" 
d="M83 569h26q15 33 30 49t34 16q7 0 14 -2t14.5 -6t15 -9t15.5 -10t16.5 -10.5t17 -10.5t18 -9t18.5 -6t19 -2q37 0 65.5 35.5t45.5 113.5h-27q-14 -32 -29 -48.5t-34 -16.5q-7 0 -14 2t-14.5 6t-15.5 9t-16 10.5t-16.5 11t-17 10.5t-18 9t-18.5 6t-19 2q-37 0 -65.5 -36
t-44.5 -114z" />
    <glyph glyph-name="hungarumlaut" unicode="&#x2dd;" 
d="M108 559h74l145 173h-134zM288 559h74l145 173h-134z" />
    <glyph glyph-name="Wgrave" unicode="&#x1e80;" horiz-adv-x="940" 
d="M857 508q19 53 40.5 106.5t37.5 85.5h-158q7 -32 -3.5 -79t-25.5 -93l-75 -235l-190 429l-179 -429l-76 235q-15 45 -25.5 92.5t-6.5 79.5h-190q16 -32 37 -85.5t40 -106.5l189 -530l192 452l204 -452zM474 757h72l-82 153h-149z" />
    <glyph glyph-name="wgrave" unicode="&#x1e81;" horiz-adv-x="726" 
d="M662 350q17 43 34 84t30 69h-134q3 -26 -5 -63t-21 -76l-47 -134l-143 294l-134 -294l-48 134q-13 39 -20.5 76t-3.5 63h-170q13 -28 29.5 -69t34.5 -84l148 -374l145 309l157 -309zM367 560h71l-81 173h-149z" />
    <glyph glyph-name="Wacute" unicode="&#x1e82;" horiz-adv-x="940" 
d="M857 508q19 53 40.5 106.5t37.5 85.5h-158q7 -32 -3.5 -79t-25.5 -93l-75 -235l-190 429l-179 -429l-76 235q-15 45 -25.5 92.5t-6.5 79.5h-190q16 -32 37 -85.5t40 -106.5l189 -530l192 452l204 -452zM426 757h72l159 153h-149z" />
    <glyph glyph-name="wacute" unicode="&#x1e83;" horiz-adv-x="726" 
d="M662 350q17 43 34 84t30 69h-134q3 -26 -5 -63t-21 -76l-47 -134l-143 294l-134 -294l-48 134q-13 39 -20.5 76t-3.5 63h-170q13 -28 29.5 -69t34.5 -84l148 -374l145 309l157 -309zM318 560h71l159 173h-149z" />
    <glyph glyph-name="Wdieresis" unicode="&#x1e84;" horiz-adv-x="940" 
d="M857 508q19 53 40.5 106.5t37.5 85.5h-158q7 -32 -3.5 -79t-25.5 -93l-75 -235l-190 429l-179 -429l-76 235q-15 45 -25.5 92.5t-6.5 79.5h-190q16 -32 37 -85.5t40 -106.5l189 -530l192 452l204 -452zM387 764q34 0 54.5 22t20.5 52t-20.5 51.5t-54.5 21.5
q-33 0 -54 -21.5t-21 -51.5t21 -52t54 -22zM585 764q33 0 54 22t21 52t-21 51.5t-54 21.5q-34 0 -54.5 -21.5t-20.5 -51.5t20.5 -52t54.5 -22z" />
    <glyph glyph-name="wdieresis" unicode="&#x1e85;" horiz-adv-x="726" 
d="M662 350q17 43 34 84t30 69h-134q3 -26 -5 -63t-21 -76l-47 -134l-143 294l-134 -294l-48 134q-13 39 -20.5 76t-3.5 63h-170q13 -28 29.5 -69t34.5 -84l148 -374l145 309l157 -309zM279 573q34 0 54.5 22t20.5 51q0 30 -20.5 52t-54.5 22q-33 0 -54 -22t-21 -52
q0 -29 21 -51t54 -22zM477 573q33 0 54 22t21 51q0 30 -21 52t-54 22q-34 0 -54.5 -22t-20.5 -52q0 -29 20.5 -51t54.5 -22z" />
    <glyph glyph-name="Ygrave" unicode="&#x1ef2;" horiz-adv-x="676" 
d="M238 0h198q-3 7 -6 16.5t-5 21.5t-4 25.5t-3.5 28t-2.5 29.5l-2 30t-1.5 29t-0.5 27.5v24.5v31l173 285q25 43 51 84t45 68h-168q3 -25 -10 -62.5t-34 -73.5l-110 -188l-112 188q-21 36 -35 73.5t-11 62.5h-204q19 -27 44.5 -68t51.5 -84l170 -281v-35v-24.5t-0.5 -27.5
t-1.5 -29l-2 -30t-2.5 -29.5t-3.5 -28t-4 -25.5t-4.5 -21.5t-5.5 -16.5zM344 757h72l-82 153h-149z" />
    <glyph glyph-name="ygrave" unicode="&#x1ef3;" horiz-adv-x="536" 
d="M110 -208q63 0 109.5 34t76.5 104l172 414q19 45 38 88t34 71h-144q3 -28 -7 -67t-25 -78l-78 -200l-80 200q-16 39 -25.5 78t-8.5 67h-176q15 -28 33.5 -71t37.5 -88l146 -342l-15 -34q-18 -40 -40.5 -58t-55.5 -18q-20 0 -37 5.5t-33 12.5l12 -104q13 -6 30 -10t36 -4z
M281 560h71l-81 173h-149z" />
    <glyph glyph-name="uni2002" unicode="&#x2002;" horiz-adv-x="529" 
 />
    <glyph glyph-name="uni2003" unicode="&#x2003;" horiz-adv-x="759" 
 />
    <glyph glyph-name="uni2009" unicode="&#x2009;" horiz-adv-x="167" 
 />
    <glyph glyph-name="uni200A" unicode="&#x200a;" horiz-adv-x="124" 
 />
    <glyph glyph-name="uni200B" unicode="&#x200b;" horiz-adv-x="0" 
 />
    <glyph glyph-name="endash" unicode="&#x2013;" horiz-adv-x="529" 
d="M25 300h466l13 92h-466z" />
    <glyph glyph-name="emdash" unicode="&#x2014;" horiz-adv-x="759" 
d="M25 300h696l13 92h-696z" />
    <glyph glyph-name="uni2015" unicode="&#x2015;" horiz-adv-x="1104" 
d="M25 300h1041l12 92h-1040z" />
    <glyph glyph-name="quoteleft" unicode="&#x2018;" horiz-adv-x="223" 
d="M185 713q-69 -35 -114 -95.5t-45 -123.5q0 -49 25 -76t60 -27q34 0 55.5 22.5t21.5 53.5q0 10 -1.5 18t-4.5 15t-6.5 13t-8 11.5t-9 10.5l-9 10t-8 10.5t-6.5 11.5t-4.5 13.5t-1.5 15.5q0 26 19.5 51.5t49.5 48.5z" />
    <glyph glyph-name="quoteright" unicode="&#x2019;" horiz-adv-x="223" 
d="M38 391q69 35 114 95.5t45 123.5q0 49 -25 76t-60 27q-34 0 -55.5 -22.5t-21.5 -53.5q0 -10 1.5 -18t4.5 -15t6.5 -13t8 -11.5t9 -10.5l9 -10t8 -10.5t6.5 -11.5t4.5 -13.5t1.5 -15.5q0 -26 -19.5 -51.5t-49.5 -48.5z" />
    <glyph glyph-name="quotesinglbase" unicode="&#x201a;" horiz-adv-x="223" 
d="M38 -161q69 35 114 95.5t45 123.5q0 49 -25 76t-60 27q-34 0 -55.5 -22.5t-21.5 -53.5q0 -10 1.5 -18t4.5 -15t6.5 -13t8 -11.5t9 -10.5l9 -10t8 -10.5t6.5 -11.5t4.5 -13.5t1.5 -15.5q0 -26 -19.5 -51.5t-49.5 -48.5z" />
    <glyph glyph-name="uni201B" unicode="&#x201b;" horiz-adv-x="223" 
d="M185 391l13 17q-30 23 -49.5 48.5t-19.5 51.5q0 8 1.5 15.5t4.5 13.5t6.5 11.5t8 10.5l9 10t9 10.5t8 11.5t6.5 13t4.5 15t1.5 18q0 31 -21.5 53.5t-55.5 22.5q-35 0 -60 -27t-25 -76q0 -63 45 -123.5t114 -95.5z" />
    <glyph glyph-name="quotedblleft" unicode="&#x201c;" horiz-adv-x="428" 
d="M185 713q-69 -35 -114 -95.5t-45 -123.5q0 -49 25 -76t60 -27q34 0 55.5 22.5t21.5 53.5q0 10 -1.5 18t-4.5 15t-6.5 13t-8 11.5t-9 10.5l-9 10t-8 10.5t-6.5 11.5t-4.5 13.5t-1.5 15.5q0 26 19.5 51.5t49.5 48.5zM389 713q-69 -35 -114 -95.5t-45 -123.5q0 -49 25 -76
t60 -27q34 0 55.5 22.5t21.5 53.5q0 10 -1.5 18t-4.5 15t-6.5 13t-8 11.5t-9 10.5l-9 10t-8 10.5t-6.5 11.5t-4.5 13.5t-1.5 15.5q0 26 19.5 51.5t49.5 48.5z" />
    <glyph glyph-name="quotedblright" unicode="&#x201d;" horiz-adv-x="427" 
d="M39 391q69 35 114 95.5t45 123.5q0 49 -25 76t-60 27q-34 0 -55.5 -22.5t-21.5 -53.5q0 -10 1.5 -18t4.5 -15t6.5 -13t8 -11.5t9 -10.5l9 -10t8 -10.5t6.5 -11.5t4.5 -13.5t1.5 -15.5q0 -26 -19.5 -51.5t-49.5 -48.5zM243 391q69 35 114 95.5t45 123.5q0 49 -25 76
t-60 27q-34 0 -55.5 -22.5t-21.5 -53.5q0 -10 1.5 -18t4.5 -15t6.5 -13t8 -11.5t9 -10.5l9 -10t8 -10.5t6.5 -11.5t4.5 -13.5t1.5 -15.5q0 -26 -19.5 -51.5t-49.5 -48.5z" />
    <glyph glyph-name="quotedblbase" unicode="&#x201e;" horiz-adv-x="427" 
d="M39 -161q69 35 114 95.5t45 123.5q0 49 -25 76t-60 27q-34 0 -55.5 -22.5t-21.5 -53.5q0 -10 1.5 -18t4.5 -15t6.5 -13t8 -11.5t9 -10.5l9 -10t8 -10.5t6.5 -11.5t4.5 -13.5t1.5 -15.5q0 -26 -19.5 -51.5t-49.5 -48.5zM243 -161q69 35 114 95.5t45 123.5q0 49 -25 76
t-60 27q-34 0 -55.5 -22.5t-21.5 -53.5q0 -10 1.5 -18t4.5 -15t6.5 -13t8 -11.5t9 -10.5l9 -10t8 -10.5t6.5 -11.5t4.5 -13.5t1.5 -15.5q0 -26 -19.5 -51.5t-49.5 -48.5z" />
    <glyph glyph-name="uni201F" unicode="&#x201f;" horiz-adv-x="427" 
d="M388 391l13 17q-30 23 -49.5 48.5t-19.5 51.5q0 8 1.5 15.5t4.5 13.5t6.5 11.5t8 10.5l9 10t9 10.5t8 11.5t6.5 13t4.5 15t1.5 18q0 31 -21.5 53.5t-55.5 22.5q-35 0 -60 -27t-25 -76q0 -63 45 -123.5t114 -95.5zM184 391l13 17q-30 23 -49.5 48.5t-19.5 51.5
q0 8 1.5 15.5t4.5 13.5t6.5 11.5t8 10.5l9 10t9 10.5t8 11.5t6.5 13t4.5 15t1.5 18q0 31 -21.5 53.5t-55.5 22.5q-35 0 -60 -27t-25 -76q0 -63 45 -123.5t114 -95.5z" />
    <glyph glyph-name="dagger" unicode="&#x2020;" horiz-adv-x="484" 
d="M234 -113h14q13 112 29.5 226.5t32.5 209.5q-11 33 -20 67.5t-16 68.5q67 -8 106.5 -14.5t71.5 -14.5v116q-32 -9 -71.5 -15.5t-107.5 -14.5q11 69 21.5 109t23.5 75h-152q13 -35 23.5 -74.5t20.5 -108.5q-68 7 -107 13.5t-71 15.5v-116q32 8 71 14.5t106 13.5
q-6 -34 -15.5 -68t-19.5 -67q16 -95 32 -209.5t28 -226.5z" />
    <glyph glyph-name="daggerdbl" unicode="&#x2021;" horiz-adv-x="484" 
d="M32 146v-116q32 8 71 14.5t107 13.5q-10 -68 -20.5 -108t-23.5 -75h152q-13 35 -23.5 75t-21.5 109q68 -8 107.5 -14.5t71.5 -14.5v116q-32 -9 -71.5 -16t-107.5 -14q7 43 16 86t21 86q-11 42 -20.5 85t-16.5 86q68 -8 107.5 -14.5t71.5 -14.5v116q-32 -9 -71.5 -15.5
t-107.5 -14.5q11 69 21.5 109t23.5 75h-152q13 -35 23.5 -74.5t20.5 -108.5q-68 7 -107 13.5t-71 15.5v-116q32 8 71 14.5t107 13.5q-7 -43 -16.5 -85.5t-19.5 -84.5q10 -43 19.5 -86t16.5 -86q-68 7 -107 14t-71 16z" />
    <glyph glyph-name="bullet" unicode="&#x2022;" horiz-adv-x="434" 
d="M217 202q64 0 109 45t45 109t-45 109t-109 45t-109 -45t-45 -109t45 -109t109 -45z" />
    <glyph glyph-name="ellipsis" unicode="&#x2026;" horiz-adv-x="700" 
d="M117 -8q34 0 58.5 24.5t24.5 59.5q0 34 -24.5 58.5t-58.5 24.5q-35 0 -59.5 -24.5t-24.5 -58.5q0 -35 24.5 -59.5t59.5 -24.5zM350 -8q34 0 58.5 24.5t24.5 59.5q0 34 -24.5 58.5t-58.5 24.5q-35 0 -59.5 -24.5t-24.5 -58.5q0 -35 24.5 -59.5t59.5 -24.5zM584 -8
q34 0 58.5 24.5t24.5 59.5q0 34 -24.5 58.5t-58.5 24.5q-35 0 -59.5 -24.5t-24.5 -58.5q0 -35 24.5 -59.5t59.5 -24.5z" />
    <glyph glyph-name="perthousand" unicode="&#x2030;" horiz-adv-x="1042" 
d="M196 0l404 700h-88l-404 -700h88zM168 365q61 0 105.5 47.5t44.5 124.5q0 76 -44 123.5t-106 47.5q-61 0 -105.5 -47.5t-44.5 -123.5q0 -77 44.5 -124.5t105.5 -47.5zM168 422q-21 0 -35.5 28t-14.5 85t14.5 85t35.5 28q22 0 36 -28t14 -85t-14 -85t-36 -28zM538 -7
q61 0 105.5 47.5t44.5 124.5q0 76 -44 123.5t-106 47.5q-61 0 -105.5 -47.5t-44.5 -123.5q0 -77 44.5 -124.5t105.5 -47.5zM538 50q-21 0 -35.5 28t-14.5 85t14.5 85t35.5 28q22 0 36 -28t14 -85t-14 -85t-36 -28zM874 -7q61 0 105.5 47.5t44.5 124.5q0 76 -44 123.5
t-106 47.5q-61 0 -105.5 -47.5t-44.5 -123.5q0 -77 44.5 -124.5t105.5 -47.5zM874 50q-21 0 -35.5 28t-14.5 85t14.5 85t35.5 28q22 0 36 -28t14 -85t-14 -85t-36 -28z" />
    <glyph glyph-name="guilsinglleft" unicode="&#x2039;" horiz-adv-x="323" 
d="M279 -5h28l-143 257l143 255h-28l-267 -255z" />
    <glyph glyph-name="guilsinglright" unicode="&#x203a;" horiz-adv-x="323" 
d="M44 -5h-28l143 257l-143 255h28l267 -255z" />
    <glyph glyph-name="fraction" unicode="&#x2044;" horiz-adv-x="492" 
d="M88 0l404 700h-88l-404 -700h88z" />
    <glyph glyph-name="uni2070" unicode="&#x2070;" horiz-adv-x="336" 
d="M168 365q61 0 105.5 47.5t44.5 124.5q0 76 -44 123.5t-106 47.5q-61 0 -105.5 -47.5t-44.5 -123.5q0 -77 44.5 -124.5t105.5 -47.5zM168 422q-21 0 -35.5 28t-14.5 85t14.5 85t35.5 28q22 0 36 -28t14 -85t-14 -85t-36 -28z" />
    <glyph glyph-name="uni2074" unicode="&#x2074;" horiz-adv-x="330" 
d="M4 441h170q-1 -19 -3 -38.5t-6 -30.5h111q-3 11 -5 30.5t-3 38.5h46l10 73q-12 -4 -26.5 -6.5t-29.5 -3.5v84l-93 -20v-65h-78l47 83q14 25 34.5 59t35.5 56h-96q-5 -16 -16 -40.5t-19 -42.5z" />
    <glyph glyph-name="uni2075" unicode="&#x2075;" horiz-adv-x="278" 
d="M123 366q62 0 102.5 32.5t40.5 83.5q0 43 -30.5 68.5t-77.5 25.5q-16 0 -30.5 -2.5t-27.5 -7.5l9 68h133l14 74q-17 -3 -41.5 -5t-49.5 -2h-121l-24 -179l56 -20q9 6 21 11t25 5q22 0 35 -11.5t13 -30.5q0 -21 -16 -35.5t-42 -14.5q-24 0 -48 8t-46 18l6 -66
q20 -10 46.5 -15t52.5 -5z" />
    <glyph glyph-name="uni2076" unicode="&#x2076;" horiz-adv-x="310" 
d="M164 365q58 0 94 34t36 85q0 44 -28.5 71t-68.5 27q-25 0 -47 -14t-35 -40q0 54 20 85t61 31q18 0 37 -6t36 -16l-8 69q-17 8 -38 12t-43 4q-73 0 -118 -51t-45 -129q0 -74 40.5 -118t106.5 -44zM160 530q18 0 29 -14t11 -40q0 -24 -11 -39t-27 -15q-20 0 -32 19t-14 60
q7 13 19 21t25 8z" />
    <glyph glyph-name="uni2077" unicode="&#x2077;" horiz-adv-x="273" 
d="M60 372h112q-3 77 15.5 142t54.5 131l30 56h-250l-14 -79q19 7 45.5 9.5t50.5 2.5h87l-5 -6q-50 -55 -84.5 -118t-41.5 -138z" />
    <glyph glyph-name="uni2078" unicode="&#x2078;" horiz-adv-x="301" 
d="M146 365q66 0 103.5 30t37.5 73q0 36 -24 56t-55 33q28 7 46 26.5t18 42.5q0 34 -32 58t-88 24q-60 0 -94 -29.5t-34 -68.5q0 -34 18.5 -54.5t43.5 -33.5q-34 -8 -53 -26t-19 -46q0 -35 34.5 -60t97.5 -25zM116 620q0 15 10.5 24.5t27.5 9.5q16 0 28 -11t12 -27
q0 -12 -6.5 -23t-18.5 -20q-22 9 -37.5 20t-15.5 27zM99 460q0 13 6 24t19 21q27 -11 47.5 -21.5t20.5 -29.5q0 -16 -12.5 -25t-31.5 -9q-22 0 -35.5 11t-13.5 29z" />
    <glyph glyph-name="uni2079" unicode="&#x2079;" horiz-adv-x="310" 
d="M146 707q-58 0 -94 -34t-36 -85q0 -44 28.5 -71t68.5 -27q25 0 47 14t35 40q0 -54 -20 -85t-61 -31q-18 0 -37 6t-36 16l8 -69q17 -8 38 -12t43 -4q73 0 118 51t45 129q0 74 -40.5 118t-106.5 44zM150 542q-18 0 -29 14t-11 40q0 24 11 39t27 15q20 0 32 -19t14 -60
q-7 -13 -19 -21t-25 -8z" />
    <glyph glyph-name="uni2080" unicode="&#x2080;" horiz-adv-x="336" 
d="M168 -7q61 0 105.5 47.5t44.5 124.5q0 76 -44 123.5t-106 47.5q-61 0 -105.5 -47.5t-44.5 -123.5q0 -77 44.5 -124.5t105.5 -47.5zM168 50q-21 0 -35.5 28t-14.5 85t14.5 85t35.5 28q22 0 36 -28t14 -85t-14 -85t-36 -28z" />
    <glyph glyph-name="uni2081" unicode="&#x2081;" horiz-adv-x="160" 
d="M22 0h119q-6 16 -8.5 47.5t-2.5 56.5v232l-115 -35q10 -13 14 -37.5t4 -49.5v-110q0 -25 -2.5 -56.5t-8.5 -47.5z" />
    <glyph glyph-name="uni2082" unicode="&#x2082;" horiz-adv-x="268" 
d="M4 0h240l12 80q-22 -7 -52 -11t-54 -4h-34l35 31q56 48 78.5 78.5t22.5 63.5q0 43 -34 70t-91 27q-29 0 -57.5 -9t-48.5 -22l-11 -69q21 15 44.5 25t47.5 10q23 0 37.5 -12.5t14.5 -34.5q0 -21 -13 -43.5t-47 -67.5z" />
    <glyph glyph-name="uni2083" unicode="&#x2083;" horiz-adv-x="279" 
d="M126 -6q63 0 101.5 27t38.5 70q0 30 -19.5 51t-56.5 29q31 10 48.5 30.5t17.5 48.5q0 37 -32.5 61t-87.5 24q-31 0 -60 -7.5t-48 -17.5l-10 -68q24 12 47 20.5t45 8.5q23 0 35.5 -9.5t12.5 -26.5q0 -19 -14.5 -30t-38.5 -11h-25l-17 -58h42q31 0 46 -10.5t15 -29.5
q0 -18 -14.5 -29t-39.5 -11q-24 0 -49 7t-48 19l5 -66q19 -10 48 -16t58 -6z" />
    <glyph glyph-name="uni2084" unicode="&#x2084;" horiz-adv-x="330" 
d="M4 69h170q-1 -19 -3 -38.5t-6 -30.5h111q-3 11 -5 30.5t-3 38.5h46l10 73q-12 -4 -26.5 -6.5t-29.5 -3.5v84l-93 -20v-65h-78l47 83q14 25 34.5 59t35.5 56h-96q-5 -16 -16 -40.5t-19 -42.5z" />
    <glyph glyph-name="uni2085" unicode="&#x2085;" horiz-adv-x="278" 
d="M123 -6q62 0 102.5 32.5t40.5 83.5q0 43 -30.5 68.5t-77.5 25.5q-16 0 -30.5 -2.5t-27.5 -7.5l9 68h133l14 74q-17 -3 -41.5 -5t-49.5 -2h-121l-24 -179l56 -20q9 6 21 11t25 5q22 0 35 -11.5t13 -30.5q0 -21 -16 -35.5t-42 -14.5q-24 0 -48 8t-46 18l6 -66
q20 -10 46.5 -15t52.5 -5z" />
    <glyph glyph-name="uni2086" unicode="&#x2086;" horiz-adv-x="310" 
d="M164 -7q58 0 94 34t36 85q0 44 -28.5 71t-68.5 27q-25 0 -47 -14t-35 -40q0 54 20 85t61 31q18 0 37 -6t36 -16l-8 69q-17 8 -38 12t-43 4q-73 0 -118 -51t-45 -129q0 -74 40.5 -118t106.5 -44zM160 158q18 0 29 -14t11 -40q0 -24 -11 -39t-27 -15q-20 0 -32 19t-14 60
q7 13 19 21t25 8z" />
    <glyph glyph-name="uni2087" unicode="&#x2087;" horiz-adv-x="273" 
d="M60 0h112q-3 77 15.5 142t54.5 131l30 56h-250l-14 -79q19 7 45.5 9.5t50.5 2.5h87l-5 -6q-50 -55 -84.5 -118t-41.5 -138z" />
    <glyph glyph-name="uni2088" unicode="&#x2088;" horiz-adv-x="301" 
d="M146 -7q66 0 103.5 30t37.5 73q0 36 -24 56t-55 33q28 7 46 26.5t18 42.5q0 34 -32 58t-88 24q-60 0 -94 -29.5t-34 -68.5q0 -34 18.5 -54.5t43.5 -33.5q-34 -8 -53 -26t-19 -46q0 -35 34.5 -60t97.5 -25zM116 248q0 15 10.5 24.5t27.5 9.5q16 0 28 -11t12 -27
q0 -12 -6.5 -23t-18.5 -20q-22 9 -37.5 20t-15.5 27zM99 88q0 13 6 24t19 21q27 -11 47.5 -21.5t20.5 -29.5q0 -16 -12.5 -25t-31.5 -9q-22 0 -35.5 11t-13.5 29z" />
    <glyph glyph-name="uni2089" unicode="&#x2089;" horiz-adv-x="310" 
d="M146 335q-58 0 -94 -34t-36 -85q0 -44 28.5 -71t68.5 -27q25 0 47 14t35 40q0 -54 -20 -85t-61 -31q-18 0 -37 6t-36 16l8 -69q17 -8 38 -12t43 -4q73 0 118 51t45 129q0 74 -40.5 118t-106.5 44zM150 170q-18 0 -29 14t-11 40q0 24 11 39t27 15q20 0 32 -19t14 -60
q-7 -13 -19 -21t-25 -8z" />
    <glyph glyph-name="Euro" unicode="&#x20ac;" horiz-adv-x="653" 
d="M4 246h97q8 -34 21.5 -64.5t32 -56.5t41.5 -47.5t49.5 -38t56.5 -28t63 -17.5t69 -6q49 0 95 11.5t81 29.5l20 103q-37 -21 -80.5 -33.5t-84.5 -12.5q-81 0 -138 42.5t-80 117.5h169l36 63h-217q-1 9 -1.5 18t-0.5 19v12t1 12h248l35 64h-273q22 79 78.5 126.5
t133.5 47.5q44 0 87 -12.5t80 -34.5l-13 114q-39 18 -84.5 27.5t-93.5 9.5q-31 0 -60 -5.5t-56 -15.5t-52 -24.5t-46.5 -33t-40.5 -40.5t-34 -47.5t-26 -53.5t-18 -58h-95v-64h87q-1 -6 -1 -11.5v-11.5q0 -10 0.5 -19.5t1.5 -18.5h-88v-63z" />
    <glyph glyph-name="trademark" unicode="&#x2122;" horiz-adv-x="768" 
d="M125 355h107q-1 5 -2.5 11.5t-2.5 14.5t-1.5 16.5t-1 18t-1 18.5t-0.5 17v15v170h23q22 0 45.5 -3.5t44.5 -10.5l-14 78h-287l-14 -78q22 7 45 10.5t45 3.5h23v-170v-15t-0.5 -17t-1 -18.5t-1 -18t-1.5 -16.5t-2 -14.5t-3 -11.5zM366 355h87q-1 5 -2.5 11.5t-2.5 14.5
t-1.5 16.5t-1 18t-1 18.5t-0.5 17v15v120l98 -178l100 181v-123v-15t-0.5 -17t-1 -18.5t-1 -18t-2 -16.5t-2.5 -14.5t-3 -11.5h104q-2 5 -3 11.5t-2.5 14.5t-2 16.5t-1 18t-1 18.5t-0.5 17v15v124v15t0.5 17t1 18.5t1 18t2 16.5t2.5 14.5t3 10.5h-105l-79 -149l-80 149h-106
q2 -4 3 -10.5t2 -14.5t2 -16.5t1 -18t0.5 -18.5t0.5 -17v-15v-124v-15t-0.5 -17t-0.5 -18.5t-1 -18t-2 -16.5t-2 -14.5t-3 -11.5z" />
    <glyph glyph-name="uni2153" unicode="&#x2153;" horiz-adv-x="583" 
d="M430 -6q63 0 101.5 27t38.5 70q0 30 -19.5 51t-56.5 29q31 10 48.5 30.5t17.5 48.5q0 37 -32.5 61t-87.5 24q-31 0 -60 -7.5t-48 -17.5l-10 -68q24 12 47 20.5t45 8.5q23 0 35.5 -9.5t12.5 -26.5q0 -19 -14.5 -30t-38.5 -11h-25l-17 -58h42q31 0 46 -10.5t15 -29.5
q0 -18 -14.5 -29t-39.5 -11q-24 0 -49 7t-48 19l5 -66q19 -10 48 -16t58 -6zM37 372h119q-6 16 -8.5 47.5t-2.5 56.5v232l-115 -35q10 -13 14 -37.5t4 -49.5v-110q0 -25 -2.5 -56.5t-8.5 -47.5zM89 0l404 700h-88l-404 -700h88z" />
    <glyph glyph-name="uni2154" unicode="&#x2154;" horiz-adv-x="675" 
d="M4 372h240l12 80q-22 -7 -52 -11t-54 -4h-34l35 31q56 48 78.5 78.5t22.5 63.5q0 43 -34 70t-91 27q-29 0 -57.5 -9t-48.5 -22l-11 -69q21 15 44.5 25t47.5 10q23 0 37.5 -12.5t14.5 -34.5q0 -21 -13 -43.5t-47 -67.5zM522 -6q63 0 101.5 27t38.5 70q0 30 -19.5 51
t-56.5 29q31 10 48.5 30.5t17.5 48.5q0 37 -32.5 61t-87.5 24q-31 0 -60 -7.5t-48 -17.5l-10 -68q24 12 47 20.5t45 8.5q23 0 35.5 -9.5t12.5 -26.5q0 -19 -14.5 -30t-38.5 -11h-25l-17 -58h42q31 0 46 -10.5t15 -29.5q0 -18 -14.5 -29t-39.5 -11q-24 0 -49 7t-48 19l5 -66
q19 -10 48 -16t58 -6zM184 0l404 700h-88l-404 -700h88z" />
    <glyph glyph-name="uni2155" unicode="&#x2155;" horiz-adv-x="588" 
d="M432 -6q62 0 102.5 32.5t40.5 83.5q0 43 -30.5 68.5t-77.5 25.5q-16 0 -30.5 -2.5t-27.5 -7.5l9 68h133l14 74q-17 -3 -41.5 -5t-49.5 -2h-121l-24 -179l56 -20q9 6 21 11t25 5q22 0 35 -11.5t13 -30.5q0 -21 -16 -35.5t-42 -14.5q-24 0 -48 8t-46 18l6 -66
q20 -10 46.5 -15t52.5 -5zM37 372h119q-6 16 -8.5 47.5t-2.5 56.5v232l-115 -35q10 -13 14 -37.5t4 -49.5v-110q0 -25 -2.5 -56.5t-8.5 -47.5zM89 0l404 700h-88l-404 -700h88z" />
    <glyph glyph-name="uni2156" unicode="&#x2156;" horiz-adv-x="680" 
d="M4 372h240l12 80q-22 -7 -52 -11t-54 -4h-34l35 31q56 48 78.5 78.5t22.5 63.5q0 43 -34 70t-91 27q-29 0 -57.5 -9t-48.5 -22l-11 -69q21 15 44.5 25t47.5 10q23 0 37.5 -12.5t14.5 -34.5q0 -21 -13 -43.5t-47 -67.5zM525 -6q62 0 102.5 32.5t40.5 83.5q0 43 -30.5 68.5
t-77.5 25.5q-16 0 -30.5 -2.5t-27.5 -7.5l9 68h133l14 74q-17 -3 -41.5 -5t-49.5 -2h-121l-24 -179l56 -20q9 6 21 11t25 5q22 0 35 -11.5t13 -30.5q0 -21 -16 -35.5t-42 -14.5q-24 0 -48 8t-46 18l6 -66q20 -10 46.5 -15t52.5 -5zM184 0l404 700h-88l-404 -700h88z" />
    <glyph glyph-name="uni2157" unicode="&#x2157;" horiz-adv-x="670" 
d="M126 366q63 0 101.5 27t38.5 70q0 30 -19.5 51t-56.5 29q31 10 48.5 30.5t17.5 48.5q0 37 -32.5 61t-87.5 24q-31 0 -60 -7.5t-48 -17.5l-10 -68q24 12 47 20.5t45 8.5q23 0 35.5 -9.5t12.5 -26.5q0 -19 -14.5 -30t-38.5 -11h-25l-17 -58h42q31 0 46 -10.5t15 -29.5
q0 -18 -14.5 -29t-39.5 -11q-24 0 -49 7t-48 19l5 -66q19 -10 48 -16t58 -6zM515 -6q62 0 102.5 32.5t40.5 83.5q0 43 -30.5 68.5t-77.5 25.5q-16 0 -30.5 -2.5t-27.5 -7.5l9 68h133l14 74q-17 -3 -41.5 -5t-49.5 -2h-121l-24 -179l56 -20q9 6 21 11t25 5q22 0 35 -11.5
t13 -30.5q0 -21 -16 -35.5t-42 -14.5q-24 0 -48 8t-46 18l6 -66q20 -10 46.5 -15t52.5 -5zM174 0l404 700h-88l-404 -700h88z" />
    <glyph glyph-name="uni2158" unicode="&#x2158;" horiz-adv-x="726" 
d="M4 441h170q-1 -19 -3 -38.5t-6 -30.5h111q-3 11 -5 30.5t-3 38.5h46l10 73q-12 -4 -26.5 -6.5t-29.5 -3.5v84l-93 -20v-65h-78l47 83q14 25 34.5 59t35.5 56h-96q-5 -16 -16 -40.5t-19 -42.5zM570 -6q62 0 102.5 32.5t40.5 83.5q0 43 -30.5 68.5t-77.5 25.5
q-16 0 -30.5 -2.5t-27.5 -7.5l9 68h133l14 74q-17 -3 -41.5 -5t-49.5 -2h-121l-24 -179l56 -20q9 6 21 11t25 5q22 0 35 -11.5t13 -30.5q0 -21 -16 -35.5t-42 -14.5q-24 0 -48 8t-46 18l6 -66q20 -10 46.5 -15t52.5 -5zM230 0l404 700h-88l-404 -700h88z" />
    <glyph glyph-name="uni2159" unicode="&#x2159;" horiz-adv-x="573" 
d="M428 -7q58 0 94 34t36 85q0 44 -28.5 71t-68.5 27q-25 0 -47 -14t-35 -40q0 54 20 85t61 31q18 0 37 -6t36 -16l-8 69q-17 8 -38 12t-43 4q-73 0 -118 -51t-45 -129q0 -74 40.5 -118t106.5 -44zM424 158q18 0 29 -14t11 -40q0 -24 -11 -39t-27 -15q-20 0 -32 19t-14 60
q7 13 19 21t25 8zM38 372h119q-6 16 -8.5 47.5t-2.5 56.5v232l-115 -35q10 -13 14 -37.5t4 -49.5v-110q0 -25 -2.5 -56.5t-8.5 -47.5zM88 0l404 700h-88l-404 -700h88z" />
    <glyph glyph-name="uni215A" unicode="&#x215a;" horiz-adv-x="652" 
d="M123 366q62 0 102.5 32.5t40.5 83.5q0 43 -30.5 68.5t-77.5 25.5q-16 0 -30.5 -2.5t-27.5 -7.5l9 68h133l14 74q-17 -3 -41.5 -5t-49.5 -2h-121l-24 -179l56 -20q9 6 21 11t25 5q22 0 35 -11.5t13 -30.5q0 -21 -16 -35.5t-42 -14.5q-24 0 -48 8t-46 18l6 -66
q20 -10 46.5 -15t52.5 -5zM506 -7q58 0 94 34t36 85q0 44 -28.5 71t-68.5 27q-25 0 -47 -14t-35 -40q0 54 20 85t61 31q18 0 37 -6t36 -16l-8 69q-17 8 -38 12t-43 4q-73 0 -118 -51t-45 -129q0 -74 40.5 -118t106.5 -44zM502 158q18 0 29 -14t11 -40q0 -24 -11 -39t-27 -15
q-20 0 -32 19t-14 60q7 13 19 21t25 8zM164 0l404 700h-88l-404 -700h88z" />
    <glyph glyph-name="uni215B" unicode="&#x215b;" horiz-adv-x="588" 
d="M433 -7q66 0 103.5 30t37.5 73q0 36 -24 56t-55 33q28 7 46 26.5t18 42.5q0 34 -32 58t-88 24q-60 0 -94 -29.5t-34 -68.5q0 -34 18.5 -54.5t43.5 -33.5q-34 -8 -53 -26t-19 -46q0 -35 34.5 -60t97.5 -25zM403 248q0 15 10.5 24.5t27.5 9.5q16 0 28 -11t12 -27
q0 -12 -6.5 -23t-18.5 -20q-22 9 -37.5 20t-15.5 27zM386 88q0 13 6 24t19 21q27 -11 47.5 -21.5t20.5 -29.5q0 -16 -12.5 -25t-31.5 -9q-22 0 -35.5 11t-13.5 29zM37 372h119q-6 16 -8.5 47.5t-2.5 56.5v232l-115 -35q10 -13 14 -37.5t4 -49.5v-110q0 -25 -2.5 -56.5
t-8.5 -47.5zM89 0l404 700h-88l-404 -700h88z" />
    <glyph glyph-name="uni215C" unicode="&#x215c;" horiz-adv-x="677" 
d="M126 366q63 0 101.5 27t38.5 70q0 30 -19.5 51t-56.5 29q31 10 48.5 30.5t17.5 48.5q0 37 -32.5 61t-87.5 24q-31 0 -60 -7.5t-48 -17.5l-10 -68q24 12 47 20.5t45 8.5q23 0 35.5 -9.5t12.5 -26.5q0 -19 -14.5 -30t-38.5 -11h-25l-17 -58h42q31 0 46 -10.5t15 -29.5
q0 -18 -14.5 -29t-39.5 -11q-24 0 -49 7t-48 19l5 -66q19 -10 48 -16t58 -6zM522 -7q66 0 103.5 30t37.5 73q0 36 -24 56t-55 33q28 7 46 26.5t18 42.5q0 34 -32 58t-88 24q-60 0 -94 -29.5t-34 -68.5q0 -34 18.5 -54.5t43.5 -33.5q-34 -8 -53 -26t-19 -46q0 -35 34.5 -60
t97.5 -25zM492 248q0 15 10.5 24.5t27.5 9.5q16 0 28 -11t12 -27q0 -12 -6.5 -23t-18.5 -20q-22 9 -37.5 20t-15.5 27zM475 88q0 13 6 24t19 21q27 -11 47.5 -21.5t20.5 -29.5q0 -16 -12.5 -25t-31.5 -9q-22 0 -35.5 11t-13.5 29zM176 0l404 700h-88l-404 -700h88z" />
    <glyph glyph-name="uni215D" unicode="&#x215d;" horiz-adv-x="666" 
d="M123 366q62 0 102.5 32.5t40.5 83.5q0 43 -30.5 68.5t-77.5 25.5q-16 0 -30.5 -2.5t-27.5 -7.5l9 68h133l14 74q-17 -3 -41.5 -5t-49.5 -2h-121l-24 -179l56 -20q9 6 21 11t25 5q22 0 35 -11.5t13 -30.5q0 -21 -16 -35.5t-42 -14.5q-24 0 -48 8t-46 18l6 -66
q20 -10 46.5 -15t52.5 -5zM511 -7q66 0 103.5 30t37.5 73q0 36 -24 56t-55 33q28 7 46 26.5t18 42.5q0 34 -32 58t-88 24q-60 0 -94 -29.5t-34 -68.5q0 -34 18.5 -54.5t43.5 -33.5q-34 -8 -53 -26t-19 -46q0 -35 34.5 -60t97.5 -25zM481 248q0 15 10.5 24.5t27.5 9.5
q16 0 28 -11t12 -27q0 -12 -6.5 -23t-18.5 -20q-22 9 -37.5 20t-15.5 27zM464 88q0 13 6 24t19 21q27 -11 47.5 -21.5t20.5 -29.5q0 -16 -12.5 -25t-31.5 -9q-22 0 -35.5 11t-13.5 29zM164 0l404 700h-88l-404 -700h88z" />
    <glyph glyph-name="uni215E" unicode="&#x215e;" horiz-adv-x="628" 
d="M60 372h112q-3 77 15.5 142t54.5 131l30 56h-250l-14 -79q19 7 45.5 9.5t50.5 2.5h87l-5 -6q-50 -55 -84.5 -118t-41.5 -138zM471 -7q66 0 103.5 30t37.5 73q0 36 -24 56t-55 33q28 7 46 26.5t18 42.5q0 34 -32 58t-88 24q-60 0 -94 -29.5t-34 -68.5q0 -34 18.5 -54.5
t43.5 -33.5q-34 -8 -53 -26t-19 -46q0 -35 34.5 -60t97.5 -25zM441 248q0 15 10.5 24.5t27.5 9.5q16 0 28 -11t12 -27q0 -12 -6.5 -23t-18.5 -20q-22 9 -37.5 20t-15.5 27zM424 88q0 13 6 24t19 21q27 -11 47.5 -21.5t20.5 -29.5q0 -16 -12.5 -25t-31.5 -9q-22 0 -35.5 11
t-13.5 29zM126 0l404 700h-88l-404 -700h88z" />
    <glyph glyph-name="uni215F" unicode="&#x215f;" horiz-adv-x="494" 
d="M38 372h119q-6 16 -8.5 47.5t-2.5 56.5v232l-115 -35q10 -13 14 -37.5t4 -49.5v-110q0 -25 -2.5 -56.5t-8.5 -47.5zM90 0l404 700h-88l-404 -700h88z" />
    <glyph glyph-name="uni2190" unicode="&#x2190;" horiz-adv-x="734" 
d="M263 89h131q-50 54 -101 108.5t-102 108.5q125 -2 252 -5.5t252 -5.5v112q-125 -2 -251 -5t-251 -6q50 54 100.5 107.5t100.5 107.5h-131q-51 -57 -115.5 -126.5t-123.5 -134.5q59 -65 119 -130.5t120 -130.5z" />
    <glyph glyph-name="arrowup" unicode="&#x2191;" horiz-adv-x="734" 
d="M106 472v-131q54 50 108.5 101t108.5 102q-2 -125 -5.5 -252t-5.5 -252h112q-2 125 -5 251t-6 251q54 -50 107.5 -100.5t107.5 -100.5v131q-57 51 -126.5 115.5t-134.5 123.5q-65 -59 -130.5 -119t-130.5 -120z" />
    <glyph glyph-name="uni2192" unicode="&#x2192;" horiz-adv-x="734" 
d="M471 89h-131q50 54 101 108.5t102 108.5q-125 -2 -252 -5.5t-252 -5.5v112q125 -2 251 -5t251 -6q-50 54 -100.5 107.5t-100.5 107.5h131q51 -57 115.5 -126.5t123.5 -134.5q-59 -65 -119 -130.5t-120 -130.5z" />
    <glyph glyph-name="arrowdown" unicode="&#x2193;" horiz-adv-x="734" 
d="M628 241v131q-54 -50 -108.5 -101t-108.5 -102q2 125 5.5 252t5.5 252h-112q2 -125 5 -251t6 -251q-54 50 -107.5 100.5t-107.5 100.5v-131q57 -51 126.5 -115.5t134.5 -123.5q65 59 130.5 119t130.5 120z" />
    <glyph glyph-name="uni2196" unicode="&#x2196;" horiz-adv-x="734" 
d="M101 257l93 -93q2 74 4.5 148.5t4.5 148.5q88 -90 175 -182t174 -182l79 79q-89 87 -180.5 174.5t-182.5 173.5q74 2 147.5 4.5t147.5 4.5l-93 93q-77 -4 -171.5 -7.5t-182.5 -7.5q-4 -88 -7.5 -177t-7.5 -177z" />
    <glyph glyph-name="uni2197" unicode="&#x2197;" horiz-adv-x="734" 
d="M264 627l-93 -93q74 -2 148.5 -4.5t148.5 -4.5q-90 -88 -182 -175t-182 -174l79 -79q87 89 174.5 180.5t173.5 182.5q2 -74 4.5 -147.5t4.5 -147.5l93 93q-4 77 -7.5 171.5t-7.5 182.5q-88 4 -177 7.5t-177 7.5z" />
    <glyph glyph-name="uni2198" unicode="&#x2198;" horiz-adv-x="734" 
d="M633 443l-93 93q-2 -74 -4.5 -148.5t-4.5 -148.5q-88 90 -175 182t-174 182l-79 -79q89 -87 180.5 -174.5t182.5 -173.5q-74 -2 -147.5 -4.5t-147.5 -4.5l93 -93q77 4 171.5 7.5t182.5 7.5q4 88 7.5 177t7.5 177z" />
    <glyph glyph-name="uni2199" unicode="&#x2199;" horiz-adv-x="734" 
d="M470 74l93 93q-74 2 -148.5 4.5t-148.5 4.5q90 88 182 175t182 174l-79 79q-87 -89 -174.5 -180.5t-173.5 -182.5q-2 74 -4.5 147.5t-4.5 147.5l-93 -93q4 -77 7.5 -171.5t7.5 -182.5q88 -4 177 -7.5t177 -7.5z" />
    <glyph glyph-name="minus" unicode="&#x2212;" horiz-adv-x="612" 
d="M74 314h464v72h-464v-72z" />
    <glyph glyph-name="approxequal" unicode="&#x2248;" horiz-adv-x="612" 
d="M427 353q25 0 57 11.5t54 33.5v74q-22 -22 -52 -34.5t-59 -12.5q-13 0 -26.5 2t-26.5 6t-26 8.5t-26 10t-26.5 11t-27 10t-27 8.5t-27 6t-27.5 2q-30 0 -60.5 -12t-52.5 -33v-74q22 22 52.5 34.5t60.5 12.5q13 0 26 -2t26 -6t26 -8.5t26.5 -10t26.5 -11t26.5 -10t27 -8.5
t27.5 -6t28 -2zM427 179q25 0 57 12t54 33v74q-22 -22 -52 -34.5t-59 -12.5q-13 0 -26.5 2t-26.5 6t-26 8.5t-26 10t-26.5 11t-27 10t-27 8.5t-27 6t-27.5 2q-30 0 -60.5 -11.5t-52.5 -33.5v-74q22 22 52.5 34.5t60.5 12.5q13 0 26 -2t26 -6t26 -8.5t26.5 -10t26.5 -11
t26.5 -10t27 -8.5t27.5 -6t28 -2z" />
    <glyph glyph-name="notequal" unicode="&#x2260;" horiz-adv-x="612" 
d="M94 89h70l94 139h280v67h-234l74 110h160v67h-114l94 139h-63l-96 -139h-285v-67h239l-77 -110h-162v-67h116z" />
    <glyph glyph-name="lessequal" unicode="&#x2264;" horiz-adv-x="612" 
d="M74 -3h464v72h-464v-72zM516 147v81l-291 165l291 165v79l-428 -245z" />
    <glyph glyph-name="greaterequal" unicode="&#x2265;" horiz-adv-x="612" 
d="M74 -3h464v72h-464v-72zM109 637v-81l291 -165l-291 -165v-79l428 245z" />
    <glyph glyph-name="uni25A0" unicode="&#x25a0;" horiz-adv-x="896" 
d="M798 700h-700v-700h700v700z" />
    <glyph glyph-name="uni25A1" unicode="&#x25a1;" horiz-adv-x="896" 
d="M798 700h-700v-700h700v700zM696 598v-496h-496v496h496z" />
    <glyph glyph-name="uni25AA" unicode="&#x25aa;" horiz-adv-x="720" 
d="M94 0h534v534h-534v-534z" />
    <glyph glyph-name="uni25AB" unicode="&#x25ab;" horiz-adv-x="720" 
d="M94 0h534v534h-534v-534zM178 450h366v-366h-366v366z" />
    <glyph glyph-name="triagup" unicode="&#x25b2;" horiz-adv-x="751" 
d="M724 0l-348 606l-350 -606h698z" />
    <glyph glyph-name="triagrt" unicode="&#x25ba;" horiz-adv-x="751" 
d="M90 0l604 350l-604 349v-699z" />
    <glyph glyph-name="triagdn" unicode="&#x25bc;" horiz-adv-x="751" 
d="M26 700l350 -606l348 606h-698z" />
    <glyph glyph-name="triaglf" unicode="&#x25c4;" horiz-adv-x="751" 
d="M662 699l-606 -349l606 -350v699z" />
    <glyph glyph-name="uni25CB" unicode="&#x25cb;" horiz-adv-x="840" 
d="M420 -9q30 0 58.5 4.5t55 13.5t51.5 22t47.5 29.5t42 36t36 42t29.5 47.5t22 51.5t13.5 55t4.5 58.5t-4.5 58t-13.5 55t-22 51.5t-29.5 47t-36 42t-42 36t-47.5 29.5t-51.5 22t-55 13.5t-58.5 4.5t-58.5 -4.5t-55 -13.5t-51.5 -22t-47.5 -29.5t-42 -36t-36 -42t-29.5 -47
t-22 -51.5t-13.5 -55t-4.5 -58t4.5 -58.5t13.5 -55t22 -51.5t29.5 -47.5t36 -42t42 -36t47.5 -29.5t51.5 -22t55 -13.5t58.5 -4.5zM420 87q-24 0 -47 4.5t-44.5 12.5t-41 19.5t-37 26t-32 32t-26 37t-19.5 41t-12.5 44.5t-4.5 47t4.5 47t12.5 44.5t19.5 41t26 36.5t32 31.5
t37 26t41 19.5t44.5 12.5t47 4.5t47 -4.5t44 -12.5t40.5 -19.5t37 -26t32 -32t26 -37.5t19.5 -41.5t12 -44.5t4 -47t-4 -47t-12 -44t-19.5 -40.5t-26 -37t-32 -32t-37 -26t-40.5 -19.5t-44 -12t-47 -4z" />
    <glyph glyph-name="uni25CF" unicode="&#x25cf;" horiz-adv-x="840" 
d="M420 -9q30 0 58.5 4.5t55 13.5t51.5 22t47.5 29.5t42 36t36 42t29.5 47.5t22 51.5t13.5 55t4.5 58.5t-4.5 58t-13.5 55t-22 51.5t-29.5 47t-36 42t-42 36t-47.5 29.5t-51.5 22t-55 13.5t-58.5 4.5t-58.5 -4.5t-55 -13.5t-51.5 -22t-47.5 -29.5t-42 -36t-36 -42t-29.5 -47
t-22 -51.5t-13.5 -55t-4.5 -58t4.5 -58.5t13.5 -55t22 -51.5t29.5 -47.5t36 -42t42 -36t47.5 -29.5t51.5 -22t55 -13.5t58.5 -4.5z" />
    <glyph glyph-name="uni25E2" unicode="&#x25e2;" horiz-adv-x="701" 
d="M12 181l676 -181l-180 676z" />
    <glyph glyph-name="uni25E3" unicode="&#x25e3;" horiz-adv-x="701" 
d="M194 676l-182 -676l676 181z" />
    <glyph glyph-name="uni25E4" unicode="&#x25e4;" horiz-adv-x="701" 
d="M688 520l-676 181l182 -676z" />
    <glyph glyph-name="uni25E5" unicode="&#x25e5;" horiz-adv-x="701" 
d="M508 25l180 676l-676 -181z" />
    <glyph glyph-name="caronSlovak" unicode="&#xe413;" 
d="M238 499h58l84 219h-130z" />
    <glyph glyph-name="uni00200326" unicode="&#xe414;" 
d="M200 -302q59 25 91 66t32 89q0 39 -22.5 62t-53.5 23q-29 0 -48.5 -18.5t-19.5 -44.5q0 -8 1.5 -15t4.5 -12.5t7 -10.5t8.5 -9t9.5 -7.5t9.5 -7t8.5 -7.5t7 -8t4.5 -9.5t1.5 -11.5q0 -16 -12 -35.5t-33 -37.5z" />
    <glyph glyph-name="fi" unicode="&#xfb01;" horiz-adv-x="639" 
d="M86 0h180q-3 7 -5.5 16t-4.5 19.5t-3.5 22t-3 23.5t-2 24.5t-1.5 25t-1 24v22.5v241h115v85h-116q-1 17 -2 35t-1 35q0 35 15.5 52.5t46.5 17.5q16 0 34 -5t35 -12l-12 98q-19 7 -41.5 10.5t-44.5 3.5q-78 0 -123 -47.5t-45 -130.5v-57h-89l-19 -85h108v-241v-22.5
t-0.5 -24t-1.5 -25t-2 -24.5t-2.5 -23.5t-3.5 -22t-4.5 -19.5t-5.5 -16zM506 567q34 0 57.5 23.5t23.5 57.5q0 33 -23.5 56.5t-57.5 23.5q-36 0 -59 -23.5t-23 -56.5q0 -34 23 -57.5t59 -23.5zM418 0h178q-3 7 -5.5 16t-4.5 19.5t-3.5 22t-2.5 23.5t-2 24.5t-1.5 25t-0.5 24
v22.5v331l-160 -24q3 -7 6 -16t5 -19.5t4 -21.5t3 -23l2 -24t1.5 -24t0.5 -23v-21v-135v-22.5t-0.5 -24t-1.5 -25t-2 -24.5t-2.5 -23.5t-3.5 -22t-4.5 -19.5t-5.5 -16z" />
    <glyph glyph-name="fl" unicode="&#xfb02;" horiz-adv-x="639" 
d="M86 0h180q-3 7 -5.5 16t-4.5 19.5t-3.5 22t-3 23.5t-2 24.5t-1.5 25t-1 24v22.5v241h115v85h-116q-1 17 -2 35t-1 35q0 35 15.5 52.5t46.5 17.5q16 0 34 -5t35 -12l-12 98q-19 7 -41.5 10.5t-44.5 3.5q-78 0 -123 -47.5t-45 -130.5v-57h-89l-19 -85h108v-241v-22.5
t-0.5 -24t-1.5 -25t-2 -24.5t-2.5 -23.5t-3.5 -22t-4.5 -19.5t-5.5 -16zM418 0h178q-3 7 -5.5 16t-4.5 19.5t-3.5 22t-2.5 23.5t-2 24.5t-1.5 25t-0.5 24v22.5v549l-160 -23q3 -7 6 -16t5 -19.5t4 -21.5t3 -23l2 -24t1.5 -23.5t0.5 -22.5v-21v-355v-22.5t-0.5 -24t-1.5 -25
t-2 -24.5t-2.5 -23.5t-3.5 -22t-4.5 -19.5t-5.5 -16z" />
    <glyph glyph-name="A.flat" horiz-adv-x="691" 
d="M-3 0h171q-4 31 6.5 80t25.5 92h258q16 -43 28 -92t8 -80h200q-4 8 -9 17.5t-10 21t-11 24t-12 26t-12 27.5t-11.5 28t-11.5 27.5t-11 26.5l-198 504h-124l-199 -503q-5 -13 -10.5 -26.5t-11.5 -28t-12 -28.5t-12 -27.5t-11.5 -26t-11 -24t-10.5 -21t-9 -17.5zM235 268
l94 257l94 -257h-188z" />
    <glyph glyph-name="J.alt" horiz-adv-x="480" 
d="M186 -10q100 0 160.5 51t60.5 135v316v22.5t0.5 24.5t1.5 26.5t2 26.5l2 26t3 25t4 22.5t4.5 19.5t5.5 15h-196q3 -7 5.5 -15.5t4.5 -19.5t4 -23t3.5 -24.5t2.5 -26t2 -26.5t1.5 -26t0.5 -24.5v-22.5v-306q0 -51 -27.5 -75.5t-74.5 -24.5q-34 0 -70.5 12t-69.5 32
l10 -102q33 -17 74 -27.5t86 -10.5z" />
    <glyph glyph-name="M.flat" horiz-adv-x="847" 
d="M52 0h164q-3 7 -5.5 15.5t-4.5 19.5t-4 23t-3.5 24.5t-2.5 26t-2 26.5t-1.5 26t-0.5 25v22l-2 309l218 -401l222 405l-3 -313q0 -10 -0.5 -22t-1 -25t-1 -26.5t-1.5 -26.5t-2.5 -26t-3 -25t-3.5 -22.5t-4.5 -19t-5.5 -15.5h189q-3 7 -5.5 15.5t-4.5 19t-3.5 22.5t-3 25
t-2.5 26t-2 26.5t-1.5 26.5t-0.5 25v22v284q0 11 0.5 22.5t1 24t1.5 26t2 26.5t3 25.5t4 24.5t4.5 23t5.5 20t6 16h-186l-186 -345l-186 345h-191q3 -7 6 -16t5.5 -20t4.5 -23t3.5 -24.5t3 -25.5t2 -26.5t1 -26t1 -24t0.5 -22.5v-284v-22t-0.5 -25t-1.5 -26t-2 -26.5
t-2.5 -26t-3.5 -24.5t-4 -23t-4.5 -19.5t-5.5 -15.5z" />
    <glyph glyph-name="N.flat" horiz-adv-x="740" 
d="M551 0h115v492v22.5t0.5 24.5t1.5 26t2 26.5t2 26t3 24.5t4 23t4.5 19.5t5.5 15.5h-163q3 -7 5.5 -15.5t4.5 -19.5t4 -23t3.5 -24.5t2.5 -26t2 -26.5l2 -26t1.5 -24.5t0.5 -22.5l4 -254l-330 462h-178q3 -7 6 -16t5.5 -20t4.5 -23t4 -25.5t3 -27l2 -27t1.5 -26.5t1 -25
t0.5 -23v-279v-22t-0.5 -25t-1.5 -26t-2 -26.5t-2.5 -26t-3.5 -24.5t-4 -23t-4.5 -19.5t-5.5 -15.5h163q-3 7 -5.5 15.5t-4.5 19.5t-4 23t-3.5 24.5t-2.5 26t-2 26.5t-1.5 26t-1 25t-0.5 22l-4 304z" />
    <glyph glyph-name="Q.alt" horiz-adv-x="784" 
d="M696 -192q22 0 48 3.5t50 9.5q-90 27 -160 75t-113 114q25 9 48.5 22t44.5 29t39.5 35.5t33.5 41.5t27.5 46t20.5 51t12.5 55.5t4.5 59.5q0 32 -4.5 62.5t-13.5 58t-22 53t-29 47.5t-35.5 41.5t-42 35t-47 28t-51 20.5t-55 12.5t-58.5 4.5t-58.5 -4.5t-55.5 -13t-52 -21
t-47.5 -28.5t-42.5 -35t-36.5 -41.5t-29.5 -47.5t-22 -52.5t-13.5 -57.5t-4.5 -62q0 -34 5 -66t15 -61t24.5 -55.5t32.5 -49t39.5 -42t46.5 -35t52 -26.5t56 -18t60 -9q55 -84 144.5 -132t188.5 -48zM190 349q0 31 4 58.5t12 51.5t18.5 44.5t24.5 37t30.5 29t34.5 21
t38.5 13t41.5 4.5t41 -4.5t38 -13t34 -21.5t29.5 -29.5t24 -37t18 -44.5t11.5 -51t4 -58t-4 -58.5t-11.5 -51.5t-18.5 -44.5t-25 -37t-30 -29t-34.5 -21t-38.5 -13t-42 -4.5q-21 0 -40.5 4.5t-38 13t-34 21.5t-29.5 29.5t-24.5 37t-18 44.5t-11.5 51t-4 58z" />
    <glyph glyph-name="R.alt" horiz-adv-x="646" 
d="M54 0h192q-3 7 -5.5 15.5t-4.5 19t-4 22.5t-3 25l-2 26t-2 26.5t-1.5 26.5t-0.5 25v22v75h88q54 -120 144.5 -194.5t208.5 -88.5l2 2q-72 75 -125.5 153.5t-84.5 155.5q57 26 92.5 74.5t35.5 110.5q0 93 -69 148.5t-191 55.5h-272q3 -7 5.5 -15.5t5 -19.5t4 -22.5
t3 -24.5l3 -26t2 -26.5t1 -26t1 -24.5t0.5 -23v-284v-22t-0.5 -25t-1.5 -26.5t-2 -26.5l-2 -26t-3 -25t-4 -22.5t-4.5 -19t-5.5 -15.5zM309 599q60 0 95 -28t35 -79q0 -54 -36 -83t-96 -29h-84v219h86z" />
    <glyph glyph-name="V.flat" horiz-adv-x="690" 
d="M694 700h-170q2 -8 2 -18.5t-1.5 -22t-3.5 -23.5t-5 -25t-6.5 -26t-7.5 -26t-8 -25.5t-8 -23.5l-125 -333l-125 333q-4 11 -8 23t-8.5 25t-8 26t-6.5 26t-5.5 25.5t-4 24t-2 22t0.5 18.5h-197q4 -7 9 -17t10.5 -21.5t11 -24t11.5 -26t12 -27.5t11.5 -28t11 -27.5
t10.5 -26.5l200 -504h124l198 503q5 13 10.5 26.5t11 28t11.5 28.5t12.5 27.5t12 26t11 24t10.5 21.5t9 17z" />
    <glyph glyph-name="W.flat" horiz-adv-x="948" 
d="M210 -2h119l123 420l21 71l21 -71l126 -420h118l132 496q15 56 33 114.5t31 91.5h-152q7 -30 -0.5 -82t-18.5 -98l-61 -258l-12 -50l-14 50l-130 439h-108l-131 -443l-15 -52l-12 52l-62 262q-3 12 -5.5 24.5l-5 25t-5 25.5t-4.5 25t-3.5 24t-2 22t0 18.5t1.5 15.5h-180
q13 -33 30.5 -91.5t33.5 -114.5z" />
    <glyph glyph-name="Agrave.flat" horiz-adv-x="691" 
d="M-3 0h171q-4 31 6.5 80t25.5 92h258q16 -43 28 -92t8 -80h200q-4 8 -9 17.5t-10 21t-11 24t-12 26t-12 27.5t-11.5 28t-11.5 27.5t-11 26.5l-198 504h-124l-199 -503q-5 -13 -10.5 -26.5t-11.5 -28t-12 -28.5t-12 -27.5t-11.5 -26t-11 -24t-10.5 -21t-9 -17.5zM235 268
l94 257l94 -257h-188zM332 757h72l-82 153h-149z" />
    <glyph glyph-name="Aacute.flat" horiz-adv-x="691" 
d="M-3 0h171q-4 31 6.5 80t25.5 92h258q16 -43 28 -92t8 -80h200q-4 8 -9 17.5t-10 21t-11 24t-12 26t-12 27.5t-11.5 28t-11.5 27.5t-11 26.5l-198 504h-124l-199 -503q-5 -13 -10.5 -26.5t-11.5 -28t-12 -28.5t-12 -27.5t-11.5 -26t-11 -24t-10.5 -21t-9 -17.5zM235 268
l94 257l94 -257h-188zM284 757h72l159 153h-149z" />
    <glyph glyph-name="Acircumflex.flat" horiz-adv-x="691" 
d="M-3 0h171q-4 31 6.5 80t25.5 92h258q16 -43 28 -92t8 -80h200q-4 8 -9 17.5t-10 21t-11 24t-12 26t-12 27.5t-11.5 28t-11.5 27.5t-11 26.5l-198 504h-124l-199 -503q-5 -13 -10.5 -26.5t-11.5 -28t-12 -28.5t-12 -27.5t-11.5 -26t-11 -24t-10.5 -21t-9 -17.5zM235 268
l94 257l94 -257h-188zM169 757h64l110 83l110 -83h66l-116 153h-118z" />
    <glyph glyph-name="Atilde.flat" horiz-adv-x="691" 
d="M-3 0h171q-4 31 6.5 80t25.5 92h258q16 -43 28 -92t8 -80h200q-4 8 -9 17.5t-10 21t-11 24t-12 26t-12 27.5t-11.5 28t-11.5 27.5t-11 26.5l-198 504h-124l-199 -503q-5 -13 -10.5 -26.5t-11.5 -28t-12 -28.5t-12 -27.5t-11.5 -26t-11 -24t-10.5 -21t-9 -17.5zM235 268
l94 257l94 -257h-188zM177 767h26q13 29 28.5 42.5t34.5 13.5q7 0 14 -2t14.5 -5t15.5 -7.5l16 -9t16.5 -9t17.5 -9t18 -7.5t18.5 -5t18.5 -2q38 0 66.5 33t44.5 105h-27q-13 -28 -28 -41.5t-34 -13.5q-7 0 -14 2t-14.5 5t-15.5 7t-16.5 9t-17 9.5t-17 8.5t-18 7t-18.5 5
t-19 2q-37 0 -66 -32.5t-44 -105.5z" />
    <glyph glyph-name="Adieresis.flat" horiz-adv-x="691" 
d="M-3 0h171q-4 31 6.5 80t25.5 92h258q16 -43 28 -92t8 -80h200q-4 8 -9 17.5t-10 21t-11 24t-12 26t-12 27.5t-11.5 28t-11.5 27.5t-11 26.5l-198 504h-124l-199 -503q-5 -13 -10.5 -26.5t-11.5 -28t-12 -28.5t-12 -27.5t-11.5 -26t-11 -24t-10.5 -21t-9 -17.5zM235 268
l94 257l94 -257h-188zM245 764q34 0 54.5 22t20.5 52t-20.5 51.5t-54.5 21.5q-33 0 -54 -21.5t-21 -51.5t21 -52t54 -22zM443 764q33 0 54 22t21 52t-21 51.5t-54 21.5q-34 0 -54.5 -21.5t-20.5 -51.5t20.5 -52t54.5 -22z" />
    <glyph glyph-name="Amacron.flat" horiz-adv-x="691" 
d="M-3 0h171q-4 31 6.5 80t25.5 92h258q16 -43 28 -92t8 -80h200q-4 8 -9 17.5t-10 21t-11 24t-12 26t-12 27.5t-11.5 28t-11.5 27.5t-11 26.5l-198 504h-124l-199 -503q-5 -13 -10.5 -26.5t-11.5 -28t-12 -28.5t-12 -27.5t-11.5 -26t-11 -24t-10.5 -21t-9 -17.5zM235 268
l94 257l94 -257h-188zM196 788h296v82h-296v-82z" />
    <glyph glyph-name="Aogonek.flat" horiz-adv-x="691" 
d="M-3 0h171q-4 31 6.5 80t25.5 92h258q16 -43 28 -92t8 -80h155q-74 -29 -108 -61t-34 -69q0 -34 29.5 -56.5t75.5 -22.5q17 0 36.5 3.5t34.5 8.5l16 70q-11 -4 -24.5 -7t-24.5 -3q-21 0 -33.5 10.5t-12.5 29.5q0 21 23 45.5t64 51.5h3q-4 8 -9 17.5t-10 21t-11 24t-12 26
t-12 27.5t-11.5 28t-11.5 27.5t-11 26.5l-198 504h-124l-199 -503q-5 -13 -10.5 -26.5t-11.5 -28t-12 -28.5t-12 -27.5t-11.5 -26t-11 -24t-10.5 -21t-9 -17.5zM235 268l94 257l94 -257h-188z" />
    <glyph glyph-name="Abreve.flat" horiz-adv-x="691" 
d="M-3 0h171q-4 31 6.5 80t25.5 92h258q16 -43 28 -92t8 -80h200q-4 8 -9 17.5t-10 21t-11 24t-12 26t-12 27.5t-11.5 28t-11.5 27.5t-11 26.5l-198 504h-124l-199 -503q-5 -13 -10.5 -26.5t-11.5 -28t-12 -28.5t-12 -27.5t-11.5 -26t-11 -24t-10.5 -21t-9 -17.5zM235 268
l94 257l94 -257h-188zM344 755q68 0 112 38.5t50 110.5h-18q-16 -32 -53.5 -49t-90.5 -17t-90.5 17t-53.5 49h-18q6 -72 50 -110.5t112 -38.5z" />
    <glyph glyph-name="Aring.flat" horiz-adv-x="691" 
d="M-3 0h171q-4 31 6.5 80t25.5 92h258q16 -43 28 -92t8 -80h200q-4 8 -9 17.5t-10 21t-11 24t-12 26t-12 27.5t-11.5 28t-11.5 27.5t-11 26.5l-198 504h-124l-199 -503q-5 -13 -10.5 -26.5t-11.5 -28t-12 -28.5t-12 -27.5t-11.5 -26t-11 -24t-10.5 -21t-9 -17.5zM235 268
l94 257l94 -257h-188zM344 756q51 0 84 31t33 77q0 45 -33 76.5t-84 31.5t-84 -31.5t-33 -76.5q0 -46 33 -77t84 -31zM344 809q-25 0 -41 16t-16 39t16 39t41 16t41 -16t16 -39t-16 -39t-41 -16z" />
    <glyph glyph-name="Eng.flat" horiz-adv-x="740" 
d="M499 -208q78 0 122.5 40t44.5 118v542v22.5t0.5 24.5t1.5 26t2 26.5t2 26t3 24.5t4 23t4.5 19.5t5.5 15.5h-163q3 -7 5.5 -15.5t4.5 -19.5t4 -23t3.5 -24.5t2.5 -26t2 -26.5t1.5 -26t1 -24.5t0.5 -22.5l2 -247l-327 455h-178q3 -7 6 -16t5.5 -20t4.5 -23t4 -25.5t3 -27
l2 -27t1.5 -26.5t1 -25t0.5 -23v-279v-22t-0.5 -25t-1.5 -26t-2 -26.5t-2.5 -26t-3.5 -24.5t-4 -23t-4.5 -19.5t-5.5 -15.5h163q-3 7 -5.5 15.5t-4.5 19.5t-4 23t-3.5 24.5t-2.5 26t-2 26.5t-1.5 26t-1 25t-0.5 22l-4 305l356 -496v-57q0 -34 -18 -53.5t-52 -19.5
q-18 0 -36.5 3.5t-34.5 9.5l1 -91q19 -7 45.5 -12t51.5 -5z" />
    </font>
</defs>
</svg>
