<?xml version="1.0" standalone="no"?>
<!DOCTYPE svg PUBLIC "-//W3C//DTD SVG 1.1//EN" "http://www.w3.org/Graphics/SVG/1.1/DTD/svg11.dtd" >
<svg xmlns="http://www.w3.org/2000/svg" xmlns:xlink="http://www.w3.org/1999/xlink" version="1.1">
<metadata>
Created by FontForge 20201107 at Sat Apr 20 02:34:55 2024
 By www-data
Copyright 2023 MCKL Inc.
</metadata>
<defs>
<font id="Trust2A-Medium" horiz-adv-x="500" >
  <font-face 
    font-family="Trust 2A Medium"
    font-weight="500"
    font-stretch="normal"
    units-per-em="1000"
    panose-1="2 1 6 3 2 1 1 6 1 1"
    ascent="800"
    descent="-200"
    x-height="498"
    cap-height="700"
    bbox="-80 -292 1043 963"
    underline-thickness="50"
    underline-position="-125"
    unicode-range="U+000D-FB02"
  />
<missing-glyph horiz-adv-x="474" 
d="M40 -200h394v900h-394v-900z" />
    <glyph glyph-name=".notdef" horiz-adv-x="474" 
d="M40 -200h394v900h-394v-900z" />
    <glyph glyph-name=".null" horiz-adv-x="0" 
 />
    <glyph glyph-name="uni000D" unicode="&#xd;" horiz-adv-x="198" 
 />
    <glyph glyph-name="NULL" horiz-adv-x="0" 
 />
    <glyph glyph-name="NULL" horiz-adv-x="0" 
 />
    <glyph glyph-name="space" unicode=" " horiz-adv-x="197" 
 />
    <glyph glyph-name="exclam" unicode="!" horiz-adv-x="230" 
d="M86 208h57l41 492h-139zM115 -8q30 0 50.5 21t20.5 50t-20.5 50t-50.5 21t-51 -21t-21 -50t21 -50t51 -21z" />
    <glyph glyph-name="quotedbl" unicode="&#x22;" horiz-adv-x="382" 
d="M71 429h57l34 271h-125zM254 429h57l34 271h-125z" />
    <glyph glyph-name="numbersign" unicode="#" horiz-adv-x="671" 
d="M81 0h85l49 187h155l-49 -187h85l49 187h115l20 74h-115l46 178h116l19 74h-115l49 187h-85l-49 -187h-154l49 187h-86l-49 -187h-115l-19 -74h114l-46 -178h-116l-19 -74h115zM235 261l47 178h154l-46 -178h-155z" />
    <glyph glyph-name="dollar" unicode="$" horiz-adv-x="516" 
d="M191 -115l57 9l9 106h2q25 0 48.5 3.5t44.5 10t39.5 16.5t33.5 23t27.5 28t20.5 33t12.5 38.5t4.5 42.5q0 18 -3 34.5t-8.5 30.5t-13.5 26t-17.5 22.5t-21 20t-24 17.5t-25.5 15t-27 13t-28.5 12t-28.5 12l19 214q34 -9 68.5 -27.5t68.5 -44.5l-12 107q-26 16 -56.5 28
t-61.5 18l10 115l-58 -9l-9 -99h-6q-99 0 -158 -52.5t-59 -130.5q0 -20 3.5 -37.5t10 -32t15.5 -27.5t20 -24t24 -20t27 -17t29 -15.5t30.5 -14t30.5 -12.5l-21 -234q-44 9 -89 31.5t-86 53.5l16 -112q30 -17 69.5 -31t82.5 -21zM140 526q0 40 31.5 67t83.5 27l-17 -200
q-42 19 -70 42.5t-28 63.5zM387 183q0 -45 -35.5 -74t-87.5 -31l19 217q44 -19 74 -44.5t30 -67.5z" />
    <glyph glyph-name="percent" unicode="%" horiz-adv-x="684" 
d="M178 0l403 700h-73l-404 -700h74zM162 365q59 0 101 47.5t42 124.5q0 76 -41.5 123.5t-101.5 47.5q-58 0 -100 -47.5t-42 -123.5q0 -77 42 -124.5t100 -47.5zM162 414q-25 0 -42 31t-17 90q0 60 17 90.5t42 30.5q26 0 42.5 -30.5t16.5 -90.5q0 -59 -16.5 -90t-42.5 -31z
M521 -7q59 0 101 47.5t42 124.5q0 76 -41.5 123.5t-101.5 47.5q-58 0 -100 -47.5t-42 -123.5q0 -77 42 -124.5t100 -47.5zM521 42q-25 0 -42 31t-17 90q0 60 17 90.5t42 30.5q26 0 42.5 -30.5t16.5 -90.5q0 -59 -16.5 -90t-42.5 -31z" />
    <glyph glyph-name="ampersand" unicode="&#x26;" horiz-adv-x="661" 
d="M243 -10q58 0 109 18.5t92 49.5q34 -34 69.5 -49t74.5 -15q17 0 34 3t32 11l12 83q-10 -4 -21.5 -6.5t-23.5 -2.5q-23 0 -47 12t-52 38l-3 3q41 54 66.5 121t34.5 136h-107q1 -54 -13.5 -105t-39.5 -93q-41 43 -79 88t-72 91q64 33 108 80t44 113t-47 106t-119 40
q-21 0 -39.5 -3.5t-35.5 -10.5t-31 -16.5t-25.5 -21t-20.5 -25.5t-15.5 -30t-9.5 -33t-3 -35q0 -45 16 -83t45 -81l4 -6l4 -6q-15 -7 -29.5 -15t-28.5 -17.5t-26.5 -20t-24 -22.5t-20 -25t-15 -28.5t-10 -32t-3.5 -35.5q0 -81 60.5 -128t155.5 -47zM267 433q-24 36 -35.5 62
t-11.5 55q0 36 19 61.5t55 25.5q34 0 53.5 -23t19.5 -57q0 -44 -25.5 -78t-63.5 -62q-3 4 -5.5 8t-5.5 8zM135 181q0 48 23.5 80t57.5 57q39 -53 82.5 -104.5t90.5 -100.5q-27 -21 -58.5 -33t-64.5 -12q-63 0 -97 33t-34 80z" />
    <glyph glyph-name="quotesingle" unicode="'" horiz-adv-x="199" 
d="M71 429h57l34 271h-125z" />
    <glyph glyph-name="parenleft" unicode="(" horiz-adv-x="375" 
d="M359 -172l10 13q-24 20 -47 43.5t-43 51t-37.5 58.5t-31.5 66t-24 74t-15 81.5t-5 89.5t5 89.5t15 81.5t24 74t31.5 66t37.5 58.5t43 51t47 43.5l-10 13q-29 -12 -57 -28t-53.5 -35.5t-49 -42t-44 -48.5t-37.5 -54.5t-30.5 -59.5t-23 -65t-14.5 -70t-5 -74t5 -74
t14.5 -70t23 -65t30.5 -59.5t37.5 -54.5t44 -48.5t49 -42t53.5 -35.5t57 -28z" />
    <glyph glyph-name="parenright" unicode=")" horiz-adv-x="375" 
d="M16 782l-10 -13q24 -20 47 -43.5t43 -51t37.5 -58.5t31.5 -66t24 -74t15 -81.5t5 -89.5t-5 -89.5t-15 -81.5t-24 -74t-31.5 -66t-37.5 -58.5t-43 -51t-47 -43.5l10 -13q29 12 57 28t53.5 35.5t49 42t44 48.5t37.5 54.5t30.5 59.5t23 65t14.5 70t5 74t-5 74t-14.5 70
t-23 65t-30.5 59.5t-37.5 54.5t-44 48.5t-49 42t-53.5 35.5t-57 28z" />
    <glyph glyph-name="asterisk" unicode="*" horiz-adv-x="436" 
d="M154 329q7 23 22 61.5t42 94.5q27 -56 42 -94.5t22 -61.5l90 66q-20 13 -52.5 39t-81.5 72q64 7 107 9.5t68 2.5l-35 106q-19 -14 -54.5 -38t-91.5 -55q13 68 24 107t18 62h-112q7 -23 18 -62t24 -107q-55 31 -91 55t-55 38l-35 -106q25 0 66.5 -2.5t108.5 -9.5
q-47 -44 -80.5 -71t-53.5 -40z" />
    <glyph glyph-name="plus" unicode="+" horiz-adv-x="602" 
d="M270 121h62v199h196v60h-196v199h-62v-199h-196v-60h196v-199z" />
    <glyph glyph-name="comma" unicode="," horiz-adv-x="212" 
d="M39 -156q61 33 98.5 87t37.5 113q0 43 -21 67t-52 24q-28 0 -46.5 -19.5t-18.5 -46.5q0 -8 1.5 -15t4 -13t6 -11.5t7 -10t8 -9t8 -9.5t7 -9.5t6 -10t4 -12t1.5 -14.5q0 -25 -17.5 -49.5t-45.5 -46.5z" />
    <glyph glyph-name="hyphen" unicode="-" horiz-adv-x="361" 
d="M27 306h297l10 78h-297z" />
    <glyph glyph-name="period" unicode="." horiz-adv-x="212" 
d="M107 -8q29 0 49.5 21t20.5 51q0 29 -20.5 50t-49.5 21q-30 0 -51 -21t-21 -50q0 -30 21 -51t51 -21z" />
    <glyph glyph-name="slash" unicode="/" horiz-adv-x="536" 
d="M-80 -200h101l531 967h-101z" />
    <glyph glyph-name="zero" unicode="0" horiz-adv-x="635" 
d="M317 -13q26 0 50.5 5t47 15.5t43 25t38.5 33.5t33.5 42.5t27.5 50t20 57t12.5 64t4.5 70.5t-4.5 70.5t-12.5 64t-20 57t-27.5 50t-33.5 42.5t-38.5 33.5t-43 25t-47 15.5t-50.5 5t-50 -5t-47 -15.5t-43.5 -25t-38.5 -33.5t-33 -42.5t-27 -50t-20.5 -57t-13 -64
t-4.5 -70.5q0 -36 4.5 -70t13 -64.5t20.5 -57t27 -50t33 -42.5t38.5 -33.5t43.5 -25t47 -15.5t50 -5zM317 68q-69 0 -114.5 75t-45.5 206t45.5 206t114.5 75q70 0 115 -75t45 -206t-45 -206t-115 -75z" />
    <glyph glyph-name="one" unicode="1" horiz-adv-x="259" 
d="M53 0h154q-3 7 -5.5 16t-4 20.5t-3 23.5t-3 25.5t-2 27t-1.5 27t-1 26v24.5v522l-145 -55q18 -25 25 -66.5t7 -90.5v-310v-24.5t-1 -26t-1.5 -27t-2 -27t-3 -25.5t-3.5 -23.5t-4.5 -20.5t-5.5 -16z" />
    <glyph glyph-name="two" unicode="2" horiz-adv-x="481" 
d="M2 0h442l18 116q-9 -3 -20 -6t-23.5 -5.5t-26.5 -4.5l-28 -4t-28.5 -3.5t-28.5 -2.5t-27.5 -1.5t-25 -1t-21.5 -0.5h-79l118 137q23 26 42.5 48.5t36 42.5t30 38.5t24 35.5t18 33t12.5 32t7.5 32t2.5 33q0 82 -59.5 136.5t-162.5 54.5q-54 0 -106 -16.5t-89 -43.5
l-14 -98q44 32 91 52.5t94 20.5q55 0 91 -32.5t36 -87.5q0 -11 -1 -22t-4 -21.5t-7 -22t-9.5 -23t-13 -24.5t-17 -27.5t-21 -31t-25.5 -35.5t-30 -40z" />
    <glyph glyph-name="three" unicode="3" horiz-adv-x="504" 
d="M221 -11q115 0 183.5 56.5t68.5 144.5q0 67 -42 113t-119 62q66 19 103 64t37 108q0 75 -60 124.5t-161 49.5q-54 0 -102 -14.5t-84 -35.5l-16 -97q43 26 89.5 44.5t95.5 18.5q58 0 90.5 -28.5t32.5 -75.5q0 -54 -40.5 -88.5t-109.5 -34.5h-49l-22 -81h65
q84 0 129.5 -33.5t45.5 -88.5q0 -54 -38 -89t-107 -35q-47 0 -96 14.5t-92 39.5l7 -94q37 -19 86.5 -31.5t104.5 -12.5z" />
    <glyph glyph-name="four" unicode="4" horiz-adv-x="588" 
d="M0 168h356q0 -10 -0.5 -21.5t-1 -24t-1.5 -24.5t-2 -23.5t-3 -22.5t-3.5 -20.5t-4 -17.5t-5.5 -14h151q-3 6 -5 14t-4 17.5t-3 20.5t-2 22.5t-2 23.5t-1.5 24.5t-1 24t-0.5 21.5h94l15 109q-20 -7 -49.5 -11t-59.5 -6v190l-111 -28v-164h-219l136 243q6 11 13 23t14 25
t15 26.5t15.5 27l15 27t15 26t14 24t12.5 20.5h-128q-11 -28 -33 -74t-38 -80z" />
    <glyph glyph-name="five" unicode="5" horiz-adv-x="509" 
d="M226 -11q28 0 53.5 4.5t49 12.5t44 20t37.5 27.5t31 34t23.5 39.5t14.5 45t5 50q0 23 -4 44t-12 39.5t-19.5 35t-26 30t-32 24t-37.5 17.5t-41.5 11t-45.5 4q-33 0 -63.5 -6.5t-58.5 -20.5l24 211h274l18 105q-7 -2 -17 -3.5t-21 -3t-23.5 -3t-25 -2.5t-25.5 -1.5
t-25.5 -1t-24 -1t-21.5 -0.5h-195l-43 -364l73 -29q23 17 55 28t64 11q60 0 99 -35.5t39 -95.5q0 -62 -42.5 -102.5t-108.5 -40.5q-47 0 -93.5 14.5t-86.5 37.5l8 -92q35 -20 82.5 -31.5t97.5 -11.5z" />
    <glyph glyph-name="six" unicode="6" horiz-adv-x="575" 
d="M311 -13q25 0 48.5 4.5t44.5 13.5t39.5 22t33.5 29t27.5 35t20.5 40.5t12.5 45.5t4.5 49q0 24 -4 45.5t-11.5 41t-18.5 36.5t-24.5 31t-30 25t-35 18.5t-39 11.5t-42.5 4q-57 0 -106.5 -35t-76.5 -92v13q0 28 2 54.5t6.5 51.5t11 47t15.5 41.5t21 36t26.5 29.5t31.5 22
t37.5 13.5t43.5 4.5q38 0 78 -13t73 -37l-11 102q-31 16 -71 25t-79 9q-32 0 -60.5 -6t-54.5 -17.5t-48 -28t-41 -37.5t-34.5 -46t-27 -53.5t-19.5 -59.5t-12 -65t-4 -70q0 -37 5 -72t14 -66t23 -58t31.5 -49.5t39 -40.5t47 -30t54 -18.5t59.5 -6.5zM302 361q54 0 91 -36
t37 -107q0 -66 -34.5 -108t-88.5 -42q-63 0 -101 50.5t-48 137.5q24 50 64 77.5t80 27.5z" />
    <glyph glyph-name="seven" unicode="7" horiz-adv-x="498" 
d="M125 0h131q7 148 49 292t117 275l77 133h-467l-19 -112q38 15 90.5 19t98.5 4h175l-40 -59q-80 -119 -137.5 -258t-74.5 -294z" />
    <glyph glyph-name="eight" unicode="8" horiz-adv-x="545" 
d="M265 -13q112 0 180.5 57t68.5 143q0 19 -3.5 35t-10 30.5t-16 27.5t-21 24.5t-24.5 21.5t-27.5 19t-29.5 17.5t-31 16.5q61 24 97.5 68t36.5 97q0 70 -58.5 119.5t-153.5 49.5q-26 0 -49.5 -4t-43.5 -11.5t-37.5 -18t-31 -23t-24 -27.5t-18 -31.5t-11 -34t-3.5 -35.5
q0 -69 38.5 -111t89.5 -71q-73 -27 -112.5 -71.5t-39.5 -105.5q0 -78 65 -130t169 -52zM165 537q0 45 30 71.5t78 26.5q49 0 80.5 -28.5t31.5 -73.5q0 -37 -21.5 -70.5t-64.5 -57.5q-54 26 -94 56t-40 76zM135 179q0 42 24.5 77t76.5 64q16 -8 31.5 -15.5t30 -15t27.5 -15
t25 -16.5t21 -18t16 -19.5t10.5 -22.5t3.5 -26q0 -48 -37 -77t-94 -29q-60 0 -97.5 32t-37.5 81z" />
    <glyph glyph-name="nine" unicode="9" horiz-adv-x="575" 
d="M264 711q-25 0 -48.5 -4.5t-44.5 -13.5t-39.5 -22t-33.5 -29t-27.5 -35t-20.5 -40.5t-12.5 -45.5t-4.5 -49q0 -24 4 -45.5t11.5 -41t18.5 -36.5t24.5 -31t30 -25t35 -18.5t39 -11.5t42.5 -4q57 0 106.5 35t76.5 92v-13q0 -28 -2 -54.5t-6.5 -51.5t-11 -47t-15.5 -41.5
t-21 -36t-26.5 -29.5t-31.5 -22t-37.5 -13.5t-43.5 -4.5q-38 0 -78 13t-73 37l11 -102q31 -16 71 -25t79 -9q32 0 60.5 6t54.5 17.5t48 28t41 37.5t34.5 46t27 53.5t19.5 59.5t12 65t4 70q0 38 -5 72.5t-14 65.5t-23 58t-31.5 49.5t-39 40.5t-47 30t-53.5 18.5t-60 6.5z
M273 337q-54 0 -91 36t-37 107q0 66 34.5 108t88.5 42q63 0 101 -50.5t48 -137.5q-24 -50 -64 -77.5t-80 -27.5z" />
    <glyph glyph-name="colon" unicode=":" horiz-adv-x="212" 
d="M107 329q29 0 49.5 21t20.5 50t-20.5 50t-49.5 21q-30 0 -51 -21t-21 -50t21 -50t51 -21zM107 -8q29 0 49.5 21t20.5 50t-20.5 50t-49.5 21q-30 0 -51 -21t-21 -50t21 -50t51 -21z" />
    <glyph glyph-name="semicolon" unicode=";" horiz-adv-x="212" 
d="M107 329q29 0 49.5 21t20.5 50t-20.5 50t-49.5 21q-30 0 -51 -21t-21 -50t21 -50t51 -21zM39 -156q61 33 98.5 87t37.5 113q0 43 -21.5 67t-51.5 24q-28 0 -46.5 -19.5t-18.5 -46.5q0 -8 1.5 -15.5t4 -13.5t6 -11t7 -9.5t7.5 -9t8 -9.5t7.5 -9.5t6 -10t4 -12t1.5 -14.5
q0 -25 -17.5 -49t-45.5 -47z" />
    <glyph glyph-name="less" unicode="&#x3c;" horiz-adv-x="502" 
d="M445 111v68l-304 172l304 172v66l-418 -239z" />
    <glyph glyph-name="equal" unicode="=" horiz-adv-x="602" 
d="M74 402h454v60h-454v-60zM74 238h454v60h-454v-60z" />
    <glyph glyph-name="greater" unicode="&#x3e;" horiz-adv-x="502" 
d="M57 589v-68l304 -172l-304 -172v-66l418 239z" />
    <glyph glyph-name="question" unicode="?" horiz-adv-x="440" 
d="M224 200l4 8q-10 7 -16 17.5t-6 23.5q0 10 3 19t9 17t13.5 16.5t17 16.5t20 16t22 16.5t23 17.5t23 18.5t22 20t20 22t17 24t13.5 27t9 30t3 33.5q0 76 -55.5 122t-151.5 46q-49 0 -97 -13t-82 -34l-16 -101q39 26 86 44.5t91 18.5q49 0 78 -25.5t29 -68.5
q0 -13 -2.5 -24.5t-7.5 -22t-11 -20t-14 -19t-16.5 -18l-17.5 -17.5t-18 -17.5t-17.5 -17t-16.5 -17t-14 -18t-11 -19.5t-7.5 -20.5t-2.5 -22.5q0 -32 21.5 -53t55.5 -26zM200 -8q29 0 50 21t21 50t-21 50t-50 21q-30 0 -51 -21t-21 -50t21 -50t51 -21z" />
    <glyph glyph-name="at" unicode="@" horiz-adv-x="745" 
d="M271 61q29 0 57.5 18.5t59.5 59.5q2 -34 27 -55.5t67 -21.5q19 0 38 4t37 11.5t34.5 19t32 25.5t28.5 31.5t23.5 37.5t18 42t11.5 46.5t4 51.5q0 28 -4.5 54t-13.5 49.5t-22 44.5t-29.5 39t-36.5 33t-42.5 26.5t-47.5 19.5t-52.5 12t-56.5 4q-27 0 -53.5 -4.5
t-51.5 -12.5t-49 -20t-46 -27.5t-42 -34t-37.5 -40t-32 -45.5t-26 -50t-19.5 -54.5t-12 -58.5t-4 -61q0 -34 5 -65t14.5 -58t22.5 -51t30 -44t37.5 -36t43 -28.5t48 -21t52.5 -12.5t55 -4q16 0 33.5 1.5t35 4t34.5 6.5t34 9t32.5 11t29 13t25.5 15l13 50q-55 -37 -116 -54
t-117 -17q-28 0 -54.5 4.5t-50.5 14t-45.5 23t-39.5 31.5t-32.5 40t-24.5 48t-15.5 56.5t-5.5 64.5q0 31 4.5 60t12.5 56.5t20 53t27.5 48.5t33.5 43t38.5 37t43 30t46.5 22t49.5 14t52.5 5q28 0 54 -4.5t49.5 -13t44.5 -20.5t38.5 -28t31.5 -35.5t23.5 -42t14.5 -48.5
t5 -54q0 -21 -3 -41t-8.5 -38t-13 -34t-16.5 -30t-20 -25.5t-22.5 -20t-24 -15t-25.5 -9.5t-26 -3q-22 0 -31 15t0 43l80 258l-74 -12q-18 13 -40 19.5t-47 6.5q-18 0 -34.5 -3.5t-32.5 -10.5t-31 -17t-28 -22.5t-25 -27t-21.5 -30.5t-17.5 -33.5t-13 -36t-8 -38t-3 -38.5
q0 -57 26 -91t66 -34zM261 194q0 15 2.5 30t7 30t11 29t14.5 27t17 24.5t19.5 21t21.5 16t22.5 10t22.5 3.5q13 0 27 -3.5t25 -10.5l-55 -181q-30 -37 -51 -53.5t-38 -16.5q-19 0 -32.5 19t-13.5 55z" />
    <glyph glyph-name="A" unicode="A" horiz-adv-x="653" 
d="M495 0h162q-4 7 -9 17t-11 21t-12 24t-12.5 26t-13 27t-13 27.5t-12.5 26.5t-11 25l-236 524l-237 -524q-5 -12 -11 -25t-12.5 -26.5t-13 -27.5t-13 -27t-12.5 -26t-12 -24t-11 -21t-9 -17h138q0 7 0.5 16t2.5 19t4.5 21t5.5 22.5t7 23.5l8 24t8 23.5t8 21.5h271
q4 -10 8.5 -21.5t8.5 -23.5l8 -24t7.5 -23.5t6 -22.5t4.5 -21t2.5 -19t0.5 -16zM211 249l103 241l102 -241h-205z" />
    <glyph glyph-name="B" unicode="B" horiz-adv-x="611" 
d="M61 0h264q121 0 189.5 54.5t68.5 140.5q0 64 -40 109.5t-113 61.5q56 19 86.5 60t30.5 94q0 80 -64.5 130t-179.5 50h-243q3 -7 6 -16.5t5 -20.5t4 -24t3 -26.5l2 -27t1.5 -27t1 -26t0.5 -23.5v-318v-21t-0.5 -23t-1.5 -24l-2 -24t-2.5 -24t-3 -23t-3.5 -20.5t-4 -17.5
t-5 -14zM298 621q61 0 97 -30.5t36 -81.5q0 -52 -36 -82.5t-98 -30.5h-97v225h98zM320 319q67 0 106 -32.5t39 -87.5t-38.5 -89t-104.5 -34h-122v243h120z" />
    <glyph glyph-name="C" unicode="C" horiz-adv-x="644" 
d="M35 344q0 -31 4.5 -60t13 -56t20.5 -51.5t28 -46t35 -40.5t41 -35t46.5 -28t51.5 -20.5t55.5 -13t59.5 -4.5q60 0 118 16.5t100 46.5l10 97q-43 -32 -96.5 -54.5t-113.5 -22.5q-26 0 -50.5 5t-47 14.5t-42.5 23.5t-36.5 32t-30 40t-22.5 47.5t-14 54t-5 59.5t4.5 59
t13.5 53.5t21.5 47.5t28.5 40.5t35 33t41 24.5t46.5 15t51.5 5q63 0 117 -26.5t97 -67.5l-21 141q-10 1 -20 2.5t-21 4.5t-22.5 6.5t-24 7t-26.5 6.5t-29 5.5t-32 4t-36 1.5q-29 0 -57 -4.5t-54.5 -13.5t-50.5 -22t-45.5 -29t-40.5 -36t-34.5 -42.5t-28 -48t-21 -53
t-13 -57.5t-4.5 -61z" />
    <glyph glyph-name="D" unicode="D" horiz-adv-x="711" 
d="M61 0h239q36 0 69.5 5t64.5 15.5t59 25t52.5 33.5t44.5 41.5t36 49t27 56t17 62t6 67.5q0 33 -5.5 64t-16 59.5t-26 54t-35.5 48t-44.5 41t-52 33t-59 24.5t-66 15.5t-71.5 5.5h-240q3 -7 6 -16.5t5 -20.5t4 -24t3 -26.5l2 -27t1.5 -27t1 -26t0.5 -23.5v-318v-21
t-0.5 -23t-1.5 -24l-2 -24t-2.5 -24t-3 -23t-3.5 -20.5t-4 -17.5t-5 -14zM295 617q29 0 55 -5t49.5 -14.5t43.5 -23.5t37.5 -31.5t30.5 -39t22 -45.5t14 -51.5t5 -56.5q0 -30 -5 -57.5t-14 -52.5t-22 -46t-30.5 -39t-37.5 -31.5t-43.5 -23t-49.5 -14.5t-55 -5h-93v536h93z
" />
    <glyph glyph-name="E" unicode="E" horiz-adv-x="556" 
d="M61 0h457l17 111q-8 -3 -18.5 -6t-22.5 -5.5t-25 -5t-27 -4.5t-28 -3.5l-28 -3t-27.5 -2.5t-26 -1.5t-23.5 -1t-20 -0.5h-88v244h41q49 0 91.5 -4t81.5 -13l-22 111q-32 -7 -71 -11.5t-81 -4.5h-40v218h82q13 0 27 -0.5t29.5 -1t31.5 -2t32 -3.5t31.5 -4t30 -5t27.5 -6.5
t24 -7.5l-19 112h-437q3 -7 6 -16.5t5 -20.5t4 -24t3 -26.5l2 -27t1.5 -27t1 -26t0.5 -23.5v-318v-21t-0.5 -23t-1.5 -24l-2 -24t-2.5 -24t-3 -23t-3.5 -20.5t-4 -17.5t-5 -14z" />
    <glyph glyph-name="F" unicode="F" horiz-adv-x="533" 
d="M63 0h159q-2 6 -4.5 14t-4 17.5t-3 20t-3 22.5t-2.5 24t-1.5 24l-1 24t-0.5 22.5v20.5v132h43q49 0 92 -4t82 -13l-22 111q-32 -7 -71.5 -11.5t-81.5 -4.5h-42v219h83q13 0 27 -0.5t29.5 -1t31 -2t31.5 -3.5t31.5 -4t29.5 -5t27 -6.5t24 -7.5l-18 112h-438q3 -7 6 -16.5
t5 -20.5t4 -24t3 -26.5l2 -27t1.5 -27t1 -26.5t0.5 -24v-318v-21t-0.5 -22.5t-1 -23.5t-1.5 -24.5t-2.5 -24t-3 -22.5t-3 -20.5t-4 -17.5t-4.5 -14z" />
    <glyph glyph-name="G" unicode="G" horiz-adv-x="722" 
d="M404 -11q68 0 139.5 19t128.5 50q-4 25 -6.5 56.5t-2.5 62.5v32q0 39 3.5 72t13.5 58h-144q10 -24 13.5 -55.5t3.5 -73.5v-112q-32 -13 -67 -19.5t-71 -6.5q-28 0 -53.5 5t-49 15t-43.5 24t-37 32t-30.5 39.5t-22.5 46.5t-14 53t-5 59q0 33 5 62t14 55t22 48t29.5 40
t36 32t41.5 23.5t46.5 14.5t50.5 5q65 0 122.5 -25t103.5 -69l-21 142q-10 1 -20.5 2.5t-21.5 4.5t-23 6t-25 6.5t-27 6.5t-29.5 5.5t-32.5 4t-36 1.5q-32 0 -61.5 -4.5t-57 -13.5t-52.5 -22t-47 -29.5t-41 -36.5t-35 -42.5t-28 -47.5t-20.5 -52.5t-13 -57t-4.5 -60.5
q0 -35 5.5 -67.5t16 -62t25.5 -56t35 -49.5t43.5 -42t51 -33.5t58 -24.5t64.5 -15.5t70 -5.5z" />
    <glyph glyph-name="H" unicode="H" horiz-adv-x="708" 
d="M63 0h158q-2 6 -4.5 14t-4 17.5t-3 20.5t-2.5 22.5t-2 24t-1.5 24.5t-1 23.5t-0.5 22.5v21v126h304v-126v-21t-0.5 -22.5t-1 -23.5t-1.5 -24.5t-2.5 -24t-3 -22.5t-3 -20.5t-3.5 -17.5t-5 -14h159q-2 6 -4.5 14t-4 17.5t-3 20.5t-3 22.5t-2.5 24t-1.5 24.5t-1 23.5
t-0.5 22.5v21v320v21t0.5 22.5t1 23.5t1.5 24.5t2.5 24t3 22.5t3 20.5t4 17.5t4.5 14h-159q3 -6 5 -14t3.5 -17.5t3 -20.5t3 -22.5t2.5 -24t1.5 -24.5t1 -23.5t0.5 -22.5v-21v-110h-304v110v21t0.5 22.5t1 23.5t1.5 24.5t2 24t2.5 22.5t3 20.5t4 17.5t4.5 14h-158
q3 -6 5 -14t3.5 -17.5t3 -20.5t3 -22.5t2.5 -24t1.5 -24.5t1 -23.5t0.5 -22.5v-21v-320v-21t-0.5 -22.5t-1 -23.5t-1.5 -24.5t-2.5 -24t-3 -22.5t-3 -20.5t-4 -17.5t-4.5 -14z" />
    <glyph glyph-name="I" unicode="I" horiz-adv-x="284" 
d="M63 0h158q-2 6 -4.5 14t-4 17.5t-3 20.5t-2.5 22.5t-2 24t-1.5 24.5t-1 23.5t-0.5 22.5v21v320v21t0.5 22.5t1 23.5t1.5 24.5t2 24t2.5 22.5t3 20.5t4 17.5t4.5 14h-158q3 -6 5 -14t3.5 -17.5t3 -20.5t3 -22.5t2.5 -24t1.5 -24.5t1 -23.5t0.5 -22.5v-21v-320v-21
t-0.5 -22.5t-1 -23.5t-1.5 -24.5t-2.5 -24t-3 -22.5t-3 -20.5t-4 -17.5t-4.5 -14z" />
    <glyph glyph-name="J" unicode="J" horiz-adv-x="276" 
d="M25 -204q78 0 125.5 47t47.5 127v540v21t0.5 22.5t1 23.5t1.5 24.5t2 24t2.5 22.5t3.5 20.5t4 17.5t4 14h-159q3 -6 5 -14t4 -17.5t3.5 -20.5t2.5 -22.5t2 -24t2 -24.5t1.5 -23.5t0.5 -22.5v-21v-546q0 -45 -20 -67t-54 -22q-19 0 -37.5 5.5t-37.5 16.5l10 -83
q17 -9 39 -13.5t46 -4.5z" />
    <glyph glyph-name="K" unicode="K" horiz-adv-x="634" 
d="M63 0h158q-2 6 -4.5 14t-4 17.5t-3 20.5t-3 22.5t-2.5 24t-1.5 24.5t-1 23.5t-0.5 22.5v21v320v21t0.5 22.5t1 23.5t1.5 24.5t2.5 24t3 22.5t3 20.5t4 17.5t4.5 14h-158q3 -6 5 -14t3.5 -17.5t3 -20.5t3 -22.5t2.5 -24t1.5 -24.5t1 -23.5t0.5 -22.5v-21v-320v-21
t-0.5 -22.5t-1 -23.5t-1.5 -24.5t-2.5 -24t-3 -22.5t-3 -20.5t-4 -17.5t-4.5 -14zM473 0h171q-23 25 -58.5 67t-68.5 83l-169 215l155 188q36 43 68.5 82.5t57.5 64.5h-148q-1 -24 -20 -57t-48 -71l-186 -229l165 -207q31 -40 54 -76t27 -60z" />
    <glyph glyph-name="L" unicode="L" horiz-adv-x="548" 
d="M61 0h456l17 111q-8 -3 -18.5 -6t-22.5 -5.5t-25 -4.5t-27 -4t-28 -3.5l-28 -3t-27.5 -2.5t-26 -1.5t-24 -1t-20.5 -0.5h-85v431v21t0.5 22.5t1 23.5t1.5 24.5t2.5 24t3 22.5t3 20.5t4 17.5t4.5 14h-159q3 -6 5 -14t3.5 -17.5t3 -20.5t3 -22.5t2.5 -24t1.5 -24.5t1 -23.5
t0.5 -22.5v-21v-319v-21t-0.5 -23t-1.5 -24t-2 -24.5t-2.5 -24t-3 -22.5t-3.5 -20.5t-4 -17.5t-5 -14z" />
    <glyph glyph-name="M" unicode="M" horiz-adv-x="831" 
d="M59 0h136q-3 6 -5 14t-4 17.5t-3.5 20t-3 22.5t-2.5 24l-2 24t-1.5 24t-0.5 22.5v20.5l-2 231v1l233 -322l234 321l-1 -231q0 -10 -0.5 -20.5t-1 -22.5t-1.5 -24l-2 -24l-2 -24t-2.5 -22.5t-3.5 -20t-4 -17.5t-4 -14h154q-2 6 -4 14t-4 17.5t-3.5 20t-2.5 22.5l-2 24
l-2 24t-1.5 24t-0.5 22.5v20.5v528l-331 -455l-338 455v-528v-20.5t-0.5 -22.5t-1.5 -24l-2 -24t-2.5 -24t-3 -22.5t-3.5 -20t-4 -17.5t-5 -14z" />
    <glyph glyph-name="N" unicode="N" horiz-adv-x="724" 
d="M644 511v20.5t0.5 22.5t1.5 24t1.5 24t2 24t3 22.5t3.5 20t4 17.5t5 14h-136q3 -7 5.5 -16t4.5 -20t3.5 -23.5t3 -25.5t2.5 -26.5t1.5 -26.5t1 -25t0.5 -23l2 -277v-4l-32 33l-440 449v-526v-20.5t-0.5 -22.5t-1.5 -24l-2 -24t-2.5 -24t-3 -22.5t-3.5 -20t-4 -17.5
t-5 -14h137q-3 6 -5.5 14.5t-4.5 19t-4 22t-3 24l-2 25t-1.5 24.5l-1 24t-0.5 22l-2 287v3l31 -33l441 -447v526z" />
    <glyph glyph-name="O" unicode="O" horiz-adv-x="771" 
d="M736 350q0 32 -4.5 62t-13 58t-21 53t-28.5 47.5t-35 41.5t-40.5 35t-46 28t-50.5 20.5t-53.5 13t-56.5 4.5t-57.5 -4.5t-54.5 -13t-50.5 -21t-46 -28.5t-41 -35.5t-35.5 -42t-28.5 -47.5t-21 -52.5t-13 -57.5t-4.5 -61q0 -32 4.5 -62t13 -58t21 -53t28.5 -47.5t35 -41.5
t40.5 -35t46 -28t50.5 -20.5t53.5 -13t56.5 -4.5t57.5 4.5t54.5 13t50.5 21t46 28.5t41 35.5t35.5 42t28.5 47.5t21 52.5t13 57.5t4.5 61zM161 349q0 32 4.5 61t13 55t20.5 47.5t27 40t33 32t38.5 23t43 14.5t46.5 5t46 -5t42 -14.5t38 -23.5t33 -32t27 -40t20 -47.5
t12.5 -54.5t4.5 -61t-4.5 -61t-13 -54.5t-20 -47.5t-27 -40t-33.5 -31.5t-38.5 -23t-43 -14.5t-46.5 -5q-23 0 -45 5t-42.5 14.5t-38 23.5t-32.5 32t-27 40t-20.5 47t-13 54t-4.5 61z" />
    <glyph glyph-name="P" unicode="P" horiz-adv-x="589" 
d="M63 0h159q-2 6 -4.5 14t-4 17.5t-3 20.5t-3 22.5t-2.5 24t-1.5 24.5t-1 23.5t-0.5 22.5v21v86h96q118 0 189.5 59.5t71.5 155.5q0 93 -69 151t-188 58h-242q3 -6 5 -14t4 -17.5t4 -20.5t3.5 -23t2.5 -24t1.5 -24l1 -24t1 -23t0.5 -21v-319v-21t-0.5 -22.5t-1 -23.5
t-1.5 -24.5t-2.5 -24t-3 -22.5t-3 -20.5t-4 -17.5t-4.5 -14zM291 617q69 0 109.5 -35t40.5 -95t-40.5 -95.5t-110.5 -35.5h-88v261h89z" />
    <glyph glyph-name="Q" unicode="Q" horiz-adv-x="771" 
d="M596 -173q34 0 68 6t59 16l16 86q-29 -11 -60.5 -17.5t-61.5 -6.5q-54 0 -99.5 22.5t-64.5 65.5q27 5 52 14t48.5 21.5t44.5 28t39.5 34.5t33.5 41t27 46t20.5 51t13 55.5t4.5 59.5q0 32 -4.5 62t-13.5 58t-21.5 53t-28 47.5t-35 41.5t-41 35t-45.5 28t-50 20.5t-53.5 13
t-56.5 4.5t-57 -4.5t-54.5 -13t-50.5 -21t-46 -28.5t-41 -35.5t-35 -42t-28.5 -47.5t-21.5 -52.5t-13.5 -57.5t-4.5 -61q0 -32 4.5 -62t13.5 -58t21.5 -53t28.5 -47.5t35 -41.5t41 -35t46 -28.5t50 -21t54 -12.5q28 -75 101 -119.5t166 -44.5zM161 349q0 32 4.5 61t13 55
t20.5 47.5t27 40t33 32t38.5 23t43 14.5t46.5 5t46 -5t42 -14.5t38 -23.5t33 -32t27 -40t20 -47.5t12.5 -54.5t4.5 -61t-4.5 -61t-13 -54.5t-20 -47.5t-27 -40t-33.5 -31.5t-38.5 -23t-43 -14.5t-46.5 -5q-23 0 -45 5t-42.5 14.5t-38 23.5t-32.5 32t-27 40t-20.5 47t-13 54
t-4.5 61z" />
    <glyph glyph-name="R" unicode="R" horiz-adv-x="622" 
d="M63 0h157q-2 6 -4.5 14t-4 17.5t-3 20.5t-3 22.5t-2.5 24t-1.5 24.5t-1 23.5t-0.5 22.5v21v105h104l179 -295h140q-19 24 -49 68t-52 80l-104 167q63 22 101 71.5t38 115.5q0 90 -66 144t-181 54h-250q3 -6 5 -14t4 -17.5t4 -20.5t3.5 -23t2.5 -24t1.5 -24l1 -24t1 -23
t0.5 -21v-319v-21t-0.5 -22.5t-1 -23.5t-1.5 -24.5t-2.5 -24t-3 -22.5t-3 -20.5t-4 -17.5t-4.5 -14zM297 618q66 0 105 -31.5t39 -88.5q0 -59 -40 -91.5t-106 -32.5h-95v244h97z" />
    <glyph glyph-name="S" unicode="S" horiz-adv-x="510" 
d="M259 -9q23 0 45 3.5t42.5 10.5t38 17.5t32.5 23.5t27 29t20.5 34t13 38.5t4.5 42.5q0 20 -3.5 37t-10 32t-15 28t-19.5 24.5t-23 21.5t-25.5 18.5t-28 16.5t-29 15.5t-29 14.5t-29 13.5t-28 13.5t-25.5 14.5t-22.5 15.5t-19.5 17t-15 19t-9.5 22t-3.5 25q0 40 28 66.5
t75 26.5q45 0 97.5 -23t103.5 -63l-23 133q-37 1 -83 16t-103 15q-23 0 -44.5 -3.5t-40.5 -11t-35.5 -17.5t-30 -22.5t-24 -27.5t-17.5 -32t-10.5 -35.5t-3.5 -38.5t3.5 -37.5t9.5 -33t14.5 -29t19.5 -25t23 -21.5t25.5 -19.5t27.5 -17.5t29 -15.5t29.5 -14.5t28.5 -14
t27.5 -14t25.5 -14t23 -15t19.5 -17t14.5 -19t9.5 -21.5t3.5 -24.5q1 -47 -32.5 -75t-80.5 -28q-53 0 -112.5 25.5t-121.5 74.5l26 -139q11 0 21.5 -1.5t22 -4t23.5 -6t25 -6.5t27 -6.5t28.5 -6t30.5 -4t33 -1.5z" />
    <glyph glyph-name="T" unicode="T" horiz-adv-x="605" 
d="M222 0h161q-3 6 -5 14t-4 17.5t-3.5 20.5t-3 22.5t-2 24t-1.5 24.5t-1.5 23.5t-0.5 22.5v21v428h39q50 0 104.5 -6t97.5 -24l-19 112h-563l-19 -112q43 18 97.5 24t104.5 6h39v-428v-21t-0.5 -22.5t-1.5 -23.5t-1.5 -24.5t-2 -24t-3 -22.5t-3.5 -20.5t-4 -17.5t-5 -14z
" />
    <glyph glyph-name="U" unicode="U" horiz-adv-x="700" 
d="M351 -12q31 0 59 4.5t53 14t47 23t40.5 31.5t33 39.5t24.5 47.5t15 55t5 62v245v21t0.5 22.5t1.5 23.5t1.5 24.5t2 24t3 22.5t3.5 20.5t4 17.5t5 14h-137q3 -6 5 -14t4 -17.5t3.5 -20.5t2.5 -22.5t2 -24t2 -24.5t1.5 -23.5t0.5 -22.5v-21v-247q0 -91 -49 -138.5
t-121 -47.5t-121.5 47t-49.5 139v247v21t0.5 22.5t1 23.5t1.5 24.5t2.5 24t3 22.5t3 20.5t4 17.5t4.5 14h-158q3 -6 5 -14t3.5 -17.5t3 -20.5t2.5 -22.5t2 -24t1.5 -24.5t1 -23.5t0.5 -22.5v-21v-253q0 -32 5 -60.5t15.5 -53.5t24.5 -46t32.5 -38.5t41 -30.5t47.5 -22
t53 -13.5t59 -4.5z" />
    <glyph glyph-name="V" unicode="V" horiz-adv-x="653" 
d="M563 506q5 12 11 25t12.5 26.5t13 27.5t13 27t12.5 26t12 24t11 21t9 17h-139q0 -8 -0.5 -17.5t-2.5 -20.5t-5 -22.5t-6.5 -24.5t-8 -25.5t-8.5 -25t-8.5 -24t-9.5 -22.5l-130 -304l-129 304q-4 11 -9 22.5t-9.5 24t-8.5 25t-8 25.5t-7 24.5t-5 22.5t-3 20.5t-1 17.5
h-163q4 -7 9 -17t11 -21t12 -24t12.5 -26t13 -27t13 -27.5t12.5 -26.5t11 -25l237 -524z" />
    <glyph glyph-name="W" unicode="W" horiz-adv-x="910" 
d="M192 537q-13 43 -22.5 88.5t-5.5 74.5h-155q13 -30 32 -81t36 -100l179 -540l195 489l203 -489l179 540q17 49 36 100t33 81h-131q5 -29 -4 -74.5t-22 -88.5l-88 -291l-192 474l-184 -473z" />
    <glyph glyph-name="X" unicode="X" horiz-adv-x="618" 
d="M-4 0h137q2 28 21 67.5t48 83.5l88 130l87 -130q29 -43 48.5 -83t21.5 -68h175q-23 29 -54 74.5t-62 91.5l-134 200l117 168q31 45 62 91t54 75h-138q-1 -28 -20 -68t-48 -83l-77 -112l-74 112q-28 43 -48 83t-22 68h-174q22 -29 53 -74t62 -91l122 -183l-129 -186
q-31 -45 -62.5 -91t-53.5 -75z" />
    <glyph glyph-name="Y" unicode="Y" horiz-adv-x="644" 
d="M241 0h161q-3 6 -5 15t-4 19.5t-3.5 22t-3 24.5t-2 26t-1.5 26.5t-1.5 26t-0.5 24.5v22v63l172 281q25 42 50.5 83t43.5 67h-139q1 -25 -12.5 -61t-35.5 -73l-123 -208l-124 208q-22 37 -36.5 73t-13.5 61h-167q19 -26 44.5 -67t50.5 -83l171 -281v-63v-22t-0.5 -24.5
t-1.5 -26t-2 -26.5l-2 -26t-2.5 -24.5t-3.5 -22t-4 -19.5t-5 -15z" />
    <glyph glyph-name="Z" unicode="Z" horiz-adv-x="555" 
d="M527 0l17 111q-9 -3 -21 -6t-25 -6t-27 -5.5t-28.5 -4.5t-29.5 -3.5t-29.5 -2.5t-28 -2t-25.5 -1.5t-22 -0.5h-132l371 621h-499l-19 -111q11 4 23.5 7.5t26 6.5t28.5 5t30 3.5l30 3t29.5 2t28 1t26.5 0.5h122l-370 -618h524z" />
    <glyph glyph-name="bracketleft" unicode="[" horiz-adv-x="379" 
d="M82 -160h276v63h-170v804h170v63h-276v-930z" />
    <glyph glyph-name="backslash" unicode="\" horiz-adv-x="536" 
d="M515 -200h101l-532 967h-101z" />
    <glyph glyph-name="bracketright" unicode="]" horiz-adv-x="379" 
d="M297 -160h-276v63h170v804h-170v63h276v-930z" />
    <glyph glyph-name="asciicircum" unicode="^" horiz-adv-x="468" 
d="M21 349h89l121 222l120 -222h96l-213 381z" />
    <glyph glyph-name="underscore" unicode="_" horiz-adv-x="446" 
d="M-7 -135h450l10 71h-450z" />
    <glyph glyph-name="grave" unicode="`" 
d="M242 556h60l-85 167h-127z" />
    <glyph glyph-name="a" unicode="a" horiz-adv-x="510" 
d="M174 -10q50 0 92.5 29.5t68.5 70.5q1 -26 3.5 -53.5t6.5 -42.5l119 13q-10 21 -15.5 61t-5.5 69v193q0 85 -49 131.5t-142 46.5q-45 0 -90.5 -11t-85.5 -31l-13 -86q49 28 89 40.5t77 12.5q49 0 77 -25t28 -78v-37l-137 -24q-82 -14 -123.5 -51.5t-41.5 -95.5t39.5 -95
t102.5 -37zM139 129q0 29 19.5 49.5t63.5 29.5l112 23v-97q-21 -28 -53.5 -49t-66.5 -21q-35 0 -55 18t-20 47z" />
    <glyph glyph-name="b" unicode="b" horiz-adv-x="555" 
d="M281 -10q26 0 50 5t46 14.5t41.5 23t36 31t29.5 39t22 46t14 52.5t5 58q0 28 -4 53.5t-12 48.5t-19 42.5t-24.5 36t-30 29t-35 21.5t-39 13.5t-42.5 4.5q-43 0 -80.5 -20t-62.5 -57v294l-131 -21q3 -6 5.5 -14.5t4.5 -18t3.5 -20t2.5 -21.5l2 -22t1.5 -22t0.5 -21.5
v-19.5v-549l84 31q27 -17 61 -27t71 -10zM283 432q56 0 92.5 -49.5t36.5 -131.5q0 -90 -41.5 -140.5t-104.5 -50.5q-24 0 -47 8.5t-43 22.5v284q23 27 50 42t57 15z" />
    <glyph glyph-name="c" unicode="c" horiz-adv-x="457" 
d="M278 -10q41 0 80 12t67 31l10 84q-28 -23 -62.5 -38t-71.5 -15q-69 0 -113.5 49t-44.5 132t42.5 135t108.5 52q39 0 74 -17.5t63 -45.5l-17 118q-30 -1 -61.5 9.5t-80.5 10.5q-22 0 -43 -4t-41 -11.5t-38 -18.5t-33.5 -25.5t-29 -31.5t-24 -36.5t-18 -41t-11.5 -45.5
t-4 -49q0 -28 4.5 -53.5t13.5 -48.5t21.5 -43t28.5 -37t36 -30.5t42.5 -22.5t48 -14t53.5 -5z" />
    <glyph glyph-name="d" unicode="d" horiz-adv-x="562" 
d="M229 -10q46 0 87 24t66 66v-85l131 13q-3 6 -5.5 14.5t-4.5 18t-3.5 20.5t-2.5 22t-2 22.5t-1.5 22.5t-0.5 21v19v557l-132 -21q3 -6 5.5 -14.5t5 -18t4 -20t2.5 -21.5l2 -22t1.5 -22t0.5 -21.5v-19.5v-99q-25 31 -59.5 46.5t-72.5 15.5q-23 0 -44.5 -5t-41.5 -14.5
t-37.5 -23t-32.5 -30.5t-26.5 -38t-20 -45t-13 -51t-4.5 -56t4 -55.5t11.5 -50t18 -43.5t24 -36.5t29.5 -29.5t34 -22t37.5 -13.5t40.5 -4.5zM143 247q0 84 37.5 134.5t96.5 50.5q30 0 57 -13.5t48 -38.5v-251q-25 -31 -53 -47t-59 -16q-55 0 -91 49t-36 132z" />
    <glyph glyph-name="e" unicode="e" horiz-adv-x="514" 
d="M287 -10q44 0 88.5 12.5t73.5 32.5l11 82q-35 -25 -75 -39t-80 -14q-70 0 -114 45t-49 126h342q2 124 -59.5 199t-162.5 75q-23 0 -44.5 -4t-40.5 -12t-36.5 -19t-32 -25.5t-27 -31.5t-22 -36t-16 -40.5t-10 -44.5t-3.5 -47q0 -29 4.5 -55t14 -50t22.5 -44.5t30 -37.5
t37.5 -30.5t44 -22.5t49.5 -14t55 -5zM262 434q44 0 76 -32.5t41 -97.5h-235q9 60 40 95t78 35z" />
    <glyph glyph-name="f" unicode="f" horiz-adv-x="349" 
d="M89 0h148q-3 7 -5 15t-4 18t-3.5 21t-2.5 22.5t-1.5 23t-1.5 23t-1 22.5v21v262h118v70h-119q-1 21 -1.5 42t-0.5 40q0 37 16.5 56t48.5 19q16 0 33.5 -5t33.5 -12l-11 82q-16 6 -37 9.5t-40 3.5q-71 0 -111.5 -42.5t-40.5 -120.5v-72h-91l-16 -70h107v-262v-21
t-0.5 -22.5t-1.5 -23l-2 -23t-2.5 -22.5t-3 -21t-4 -18t-4.5 -15z" />
    <glyph glyph-name="g" unicode="g" horiz-adv-x="517" 
d="M249 147q23 0 44 3.5t40.5 10.5t36.5 16.5t31 21.5t25 26.5t19 31t12 34.5t4 37q0 34 -12 63.5t-34 52.5q25 6 53 7.5t54 -2.5l-10 99q-39 -1 -73 -23.5t-50 -58.5q-27 20 -63 31t-77 11q-91 0 -151 -52t-60 -130q0 -53 30 -95t80 -64q-48 -12 -73 -39t-25 -61
q0 -28 18 -51t52 -35q-60 -11 -89 -35.5t-29 -55.5q0 -43 55 -72t157 -29q34 0 65 3.5t57.5 10.5t49.5 17t41.5 21.5t33 25.5t24 29t14.5 31.5t5 32.5q0 43 -30 67.5t-91 28.5l-174 12q-35 2 -51.5 13t-16.5 29q0 14 12 25.5t35 18.5q14 -4 29.5 -5.5t31.5 -1.5zM249 207
q-43 0 -72 33t-29 88q0 54 28.5 87t72.5 33t72.5 -33t28.5 -88q0 -54 -28 -87t-73 -33zM102 -95q0 19 16 36t49 29q4 -1 8 -1.5t8 -0.5l169 -13q24 -2 35 -10t11 -22q0 -31 -50.5 -54t-123.5 -23q-60 0 -91 16.5t-31 42.5z" />
    <glyph glyph-name="h" unicode="h" horiz-adv-x="558" 
d="M52 0h145q-2 6 -4 14.5t-4 18t-3 20.5l-2 22t-2 23t-1.5 23t-0.5 21.5v20.5v204q25 28 52 44.5t58 16.5q40 0 65.5 -26t25.5 -75v-164v-20t-0.5 -22t-1.5 -22.5l-2 -23t-2 -22.5t-3 -20.5t-4 -18t-4 -14.5h145q-2 6 -4 14.5t-4 18.5t-3 21t-2 22.5l-2 23t-1.5 23
t-0.5 22.5v21v177q0 77 -42.5 121.5t-111.5 44.5q-49 0 -90 -26t-68 -68v310l-131 -21q3 -6 5.5 -14.5t4.5 -18t3.5 -20t2.5 -21.5l2 -22t1.5 -22t0.5 -21.5v-19.5v-379v-21t-0.5 -22.5t-1.5 -23l-2 -23t-2 -22.5t-3 -21t-4 -18t-4 -15z" />
    <glyph glyph-name="i" unicode="i" horiz-adv-x="250" 
d="M123 573q30 0 50 20t20 49q0 28 -20 48t-50 20t-49.5 -20t-19.5 -48q0 -29 19.5 -49t49.5 -20zM52 0h146q-2 7 -4.5 15t-4 18t-3 21t-2.5 22.5l-2 23t-1.5 23t-0.5 22.5v21v337l-131 -22q3 -6 5.5 -14.5t4.5 -18t3.5 -20t2.5 -21.5l2 -22t1.5 -22t0.5 -21.5v-19.5v-156
v-21t-0.5 -22.5t-1.5 -23l-2 -23t-2 -22.5t-3 -21t-4 -18t-4 -15z" />
    <glyph glyph-name="j" unicode="j" horiz-adv-x="245" 
d="M122 573q30 0 50 20t20 49q0 28 -20 48t-50 20q-29 0 -49 -20t-20 -48q0 -29 20 -49t49 -20zM37 -207q67 0 104.5 35.5t37.5 104.5v570l-131 -22q3 -6 5.5 -14.5t4.5 -18t3.5 -20t2.5 -21.5l2 -22t1.5 -22t0.5 -21.5v-19.5v-393q0 -29 -13.5 -44t-39.5 -15q-15 0 -32 3.5
t-32 9.5l8 -76q16 -6 37 -10t41 -4z" />
    <glyph glyph-name="k" unicode="k" horiz-adv-x="511" 
d="M52 0h145q-2 6 -4 14.5t-4 18t-3 20.5l-2 22t-2 23t-1.5 23t-0.5 21.5v20.5v562l-131 -21q3 -6 5.5 -14.5t4.5 -18t3.5 -20t2.5 -21.5l2 -22t1.5 -22t0.5 -21.5v-19.5v-379v-21t-0.5 -22.5t-1.5 -23l-2 -23t-2 -22.5t-3 -21t-4 -18t-4 -15zM369 0h152q-22 25 -50.5 60.5
t-58.5 75.5l-100 131l89 107q28 34 57.5 67.5t51.5 56.5h-131q-4 -23 -20.5 -51.5t-40.5 -58.5l-115 -140l105 -139q25 -33 40.5 -60t20.5 -49z" />
    <glyph glyph-name="l" unicode="l" horiz-adv-x="250" 
d="M52 0h146q-2 7 -4.5 15t-4 18t-3 21t-2.5 22.5l-2 23t-1.5 23t-0.5 22.5v21v559l-131 -21q3 -6 5.5 -14.5t4.5 -18t3.5 -20t2.5 -21.5l2 -22t1.5 -22t0.5 -21.5v-19.5v-379v-21t-0.5 -22.5t-1.5 -23l-2 -23t-2 -22.5t-3 -21t-4 -18t-4 -15z" />
    <glyph glyph-name="m" unicode="m" horiz-adv-x="857" 
d="M52 0h144q-2 6 -4 14.5t-3.5 18t-3 20.5t-2 22t-1.5 23t-1.5 23t-0.5 21.5v20.5v206q23 25 49.5 42t57.5 17q38 0 62.5 -25t24.5 -73v-167v-20.5t-0.5 -21.5t-1 -23t-1.5 -23l-2 -22t-3 -20.5t-4 -18t-4 -14.5h145q-2 7 -4.5 15t-4 18t-3 21t-2.5 22.5l-2 23t-1.5 23
t-0.5 22.5v21v182v12t-1 11q22 25 49 41t58 16q40 0 64.5 -25t24.5 -74v-166v-20.5t-0.5 -21.5t-1.5 -23t-2 -23l-2 -22t-3 -20.5t-4 -18t-4 -14.5h145q-2 7 -4 15t-4 18t-3 21t-2 22.5l-2 23t-1.5 23t-0.5 22.5v21v181q0 75 -42 118.5t-110 43.5q-53 0 -95 -27t-68 -70
q-15 46 -51 71.5t-87 25.5q-50 0 -90.5 -26t-67.5 -67v87l-131 -22q3 -6 5.5 -14.5t4.5 -18t3.5 -20t2.5 -21.5l2 -22t1.5 -22t0.5 -21.5v-19.5v-156v-21t-0.5 -22.5t-1.5 -23l-2 -23t-2 -22.5t-3 -21t-4 -18t-4 -15z" />
    <glyph glyph-name="n" unicode="n" horiz-adv-x="558" 
d="M52 0h145q-2 6 -4 14.5t-4 18t-3 20.5t-2 22.5l-2 23t-1.5 22.5t-0.5 22v20v204q25 28 52 44.5t58 16.5q40 0 65.5 -26t25.5 -75v-164v-20t-0.5 -22t-1.5 -22.5t-1.5 -23t-2 -22.5t-3 -20.5t-3.5 -18t-4 -14.5h145q-3 6 -5 14.5t-3.5 18.5t-3 21t-2.5 22.5l-2 23t-1.5 23
t-0.5 22.5v21v177q0 77 -42.5 121.5t-111.5 44.5q-49 0 -90 -26t-68 -68v88l-131 -22q3 -6 5.5 -14t4.5 -18t3.5 -20.5t2.5 -21.5t2 -22.5t1.5 -22.5t0.5 -21v-19v-156v-21t-0.5 -22.5t-1.5 -23l-2 -23t-2 -22.5t-3 -21t-4 -18.5t-4 -14.5z" />
    <glyph glyph-name="o" unicode="o" horiz-adv-x="549" 
d="M275 -10q26 0 50.5 5t46.5 14.5t41.5 23t36 31t29.5 38t22 44t13.5 50t4.5 54.5t-4.5 54t-13.5 49.5t-22 44t-29.5 38t-36 31t-41.5 23t-46.5 14.5t-50.5 5q-23 0 -45 -4t-42.5 -11.5t-38.5 -18.5t-34 -25t-29 -31t-23.5 -36.5t-17.5 -41t-11 -45t-4 -48.5q0 -28 4.5 -54
t13.5 -49.5t22 -44t29.5 -37.5t36 -30.5t41.5 -23t47 -14.5t51 -5zM275 64q-58 0 -94.5 49t-36.5 135t36.5 135.5t93.5 49.5q58 0 94.5 -49.5t36.5 -135.5t-36 -135t-94 -49z" />
    <glyph glyph-name="p" unicode="p" horiz-adv-x="562" 
d="M52 -200h146q-2 7 -4.5 15t-4 18t-3 21t-2.5 22.5l-2 23t-1.5 23t-0.5 22.5v21v87q25 -31 59.5 -47t72.5 -16q23 0 44.5 5t41.5 14.5t37.5 23t32.5 30.5t26.5 38t20 45t13 51t4.5 56t-4 55.5t-11.5 50t-18 43.5t-24 36.5t-29.5 29.5t-34 22t-37.5 13.5t-40.5 4.5
q-46 0 -87 -23.5t-66 -64.5v83l-131 -22q3 -6 5.5 -14.5t4.5 -18t3.5 -20t2.5 -21.5l2 -22t1.5 -22t0.5 -21.5v-19.5v-356v-21t-0.5 -22.5t-1.5 -23l-2 -23t-2 -22.5t-3 -21t-4 -18t-4 -15zM292 432q55 0 91 -49t36 -132q0 -84 -37.5 -134.5t-95.5 -50.5q-31 0 -58 13.5
t-48 38.5v251q25 31 53 47t59 16z" />
    <glyph glyph-name="q" unicode="q" horiz-adv-x="554" 
d="M362 -200h146q-3 7 -5 15t-3.5 18t-3 21t-2.5 22.5t-1.5 23l-1 23t-0.5 22.5v21v536l-102 -22q-25 13 -54.5 20.5t-60.5 7.5q-26 0 -50 -5t-46 -14.5t-41.5 -23.5t-36 -31.5t-29.5 -39t-22 -46.5t-14 -52.5t-5 -58.5q0 -28 4 -53.5t12 -48t19 -42t25 -36t30.5 -29t35 -21
t38.5 -13t42 -4.5q43 0 80.5 20.5t62.5 56.5v-101v-21t-0.5 -22.5t-1.5 -23l-2 -23t-2 -22.5t-3 -21t-4 -18t-4 -15zM143 245q0 91 42 142t106 51q22 0 45 -8t43 -21v-285q-23 -28 -50 -43t-58 -15q-55 0 -91.5 49t-36.5 130z" />
    <glyph glyph-name="r" unicode="r" horiz-adv-x="374" 
d="M52 0h147q-3 7 -5 15t-4 18t-3.5 21t-2.5 22.5t-1.5 23t-1.5 23t-1 22.5v21v160q23 40 52.5 63.5t69.5 23.5q16 0 32.5 -2.5t27.5 -6.5l-7 99q-6 2 -17 4t-23 2q-39 0 -76 -31.5t-59 -98.5v124l-131 -22q3 -6 5.5 -14.5t4.5 -18t3.5 -20t2.5 -21.5l2 -22t1.5 -22
t0.5 -21.5v-19.5v-156v-21t-0.5 -22.5t-1.5 -23l-2 -23t-2 -22.5t-3 -21t-4 -18t-4 -15z" />
    <glyph glyph-name="s" unicode="s" horiz-adv-x="420" 
d="M212 -9q75 0 125.5 42t50.5 110q0 17 -3 31t-9 26t-14 22t-17.5 18.5t-20.5 15.5t-23 13.5t-24 12t-24.5 10.5t-24.5 9.5t-23 9.5t-20.5 10.5t-17.5 11.5t-14 13t-9 15t-3 18q0 26 19 42.5t53 16.5q37 0 77.5 -17.5t77.5 -50.5l-19 116q-29 -1 -64.5 10.5t-81.5 11.5
q-72 0 -117.5 -39.5t-45.5 -102.5q0 -17 3 -31t9 -26.5t13.5 -22.5t17.5 -19t20.5 -16t22.5 -13.5t24.5 -12t24.5 -10.5l24 -10t22.5 -10t20.5 -10.5t17.5 -12t13.5 -13.5t9 -15.5t3 -18.5q0 -29 -22.5 -47.5t-59.5 -18.5q-45 0 -91 20t-86 57l22 -119q32 1 70.5 -12.5
t93.5 -13.5z" />
    <glyph glyph-name="t" unicode="t" horiz-adv-x="349" 
d="M233 -10q28 0 54 6.5t44 15.5l6 70q-12 -6 -28.5 -11.5t-33.5 -5.5q-28 0 -43.5 15t-15.5 46v302h121v70h-121v129l-111 -25v-104h-89l-16 -70h105v-314q0 -60 33 -92t95 -32z" />
    <glyph glyph-name="u" unicode="u" horiz-adv-x="558" 
d="M219 -11q50 0 91 26t68 67v-87l131 13q-3 6 -5.5 14.5t-4.5 18t-3.5 20t-2.5 21.5t-2 22.5t-1.5 22.5t-0.5 21v19v336l-132 -22q3 -6 5.5 -14.5t5 -18t4 -20t2.5 -21.5l2 -22t1.5 -22t0.5 -21.5v-19.5v-191q-23 -28 -50.5 -45t-59.5 -17q-39 0 -64.5 26t-25.5 75v333
l-132 -22q3 -6 5.5 -14.5t4.5 -18t3.5 -20t2.5 -21.5l2 -22t1.5 -22t0.5 -21.5v-19.5v-167q0 -78 42.5 -122t110.5 -44z" />
    <glyph glyph-name="v" unicode="v" horiz-adv-x="491" 
d="M425 349q20 42 39 81.5t34 67.5h-118q1 -26 -10 -62t-28 -74l-68 -150l-15 -33l-12 29l-69 154q-17 38 -28 74t-10 62h-147q15 -28 34.5 -67.5t39.5 -81.5l179 -370z" />
    <glyph glyph-name="w" unicode="w" horiz-adv-x="700" 
d="M637 350q16 43 31.5 81.5t27.5 66.5h-113q3 -25 -4 -60.5t-20 -73.5l-56 -168l-144 322l-136 -321l-57 167q-13 38 -19.5 73.5t-3.5 60.5h-139q12 -28 27 -66.5t31 -81.5l139 -372l145 330l153 -330z" />
    <glyph glyph-name="x" unicode="x" horiz-adv-x="480" 
d="M-2 0h122q2 23 18.5 54.5t38.5 63.5l48 70l50 -71q22 -31 39 -62.5t19 -54.5h150q-19 24 -44.5 61t-55.5 78l-84 120l72 100q27 37 54 75t48 64h-122q-2 -24 -19 -55t-39 -64l-41 -60l-43 61q-21 31 -38 63t-20 55h-149q18 -24 43.5 -61t56.5 -79l77 -108l-79 -111
q-26 -37 -53.5 -75.5t-48.5 -63.5z" />
    <glyph glyph-name="y" unicode="y" horiz-adv-x="506" 
d="M98 -207q57 0 98.5 31t68.5 96l175 425q18 43 36 84t32 69h-119q1 -27 -8.5 -63.5t-24.5 -75.5l-89 -227l-91 227q-16 39 -25.5 75.5t-8.5 63.5h-144q14 -28 31.5 -69t35.5 -84l143 -339l-23 -54q-17 -40 -39 -58t-55 -18q-19 0 -34.5 5t-31.5 12l9 -86q13 -6 29.5 -10
t34.5 -4z" />
    <glyph glyph-name="z" unicode="z" horiz-adv-x="426" 
d="M2 0h390l16 97q-32 -13 -81.5 -21t-89.5 -8h-77l257 430h-378l-21 -98q33 13 81 20.5t89 7.5h70z" />
    <glyph glyph-name="braceleft" unicode="{" horiz-adv-x="375" 
d="M323 -159l-1 31q-75 1 -107 23t-32 59q0 11 2.5 21.5t7 20.5t10.5 19.5t13 19.5t15 20t15.5 20t14.5 20t13 20.5t10.5 21.5t7 22.5t2.5 23.5q0 43 -33 77.5t-104 44.5q71 10 104 44.5t33 77.5q0 12 -2.5 23.5t-7 22.5t-10.5 21.5t-13 20.5t-14.5 20t-15.5 20t-15 20
t-13 19.5t-10.5 19.5t-7 20.5t-2.5 21.5q0 37 32 59t107 23l1 31q-29 4 -55 4.5t-48 -2.5t-40.5 -8t-33.5 -12.5t-27 -16.5t-21 -20t-14.5 -22.5t-8.5 -24t-3 -25.5q0 -14 2.5 -26.5t7.5 -24.5t11 -23t13 -21.5t15 -20.5t16 -19.5t15 -19t13 -18.5t11 -18t7.5 -18.5
t2.5 -18.5q0 -39 -38.5 -60t-116.5 -20v-58q78 1 116.5 -20t38.5 -60q0 -9 -2.5 -18.5t-7.5 -18.5t-11 -18t-13 -18.5t-15 -19t-16 -19.5t-15 -20.5t-13 -21.5t-11 -23t-7.5 -24.5t-2.5 -26.5q0 -13 3 -25.5t8.5 -24t14.5 -22.5t21 -20t27 -16.5t33.5 -12.5t40.5 -8t48 -2.5
t55 4.5z" />
    <glyph glyph-name="bar" unicode="|" horiz-adv-x="388" 
d="M149 -200h91v970h-91v-970z" />
    <glyph glyph-name="braceright" unicode="}" horiz-adv-x="375" 
d="M52 768l1 -31q75 -1 107 -23t32 -59q0 -11 -2.5 -21.5t-7 -20.5t-10.5 -19.5t-13 -19.5t-14.5 -20t-15.5 -20t-15 -20t-13 -20.5t-10.5 -21.5t-7 -22.5t-2.5 -23.5q0 -43 33 -77.5t104 -44.5q-71 -10 -104 -44.5t-33 -77.5q0 -12 2.5 -23.5t7 -22.5t10.5 -21.5t13 -20.5
t15 -20t15.5 -20t14.5 -20t13 -19.5t10.5 -19.5t7 -20.5t2.5 -21.5q0 -37 -32 -59t-107 -23l-1 -31q29 -4 55 -4.5t48 2.5t40.5 8t33.5 12.5t27 16.5t21 20t14.5 22.5t8.5 24t3 25.5q0 14 -2.5 26.5t-7.5 24.5t-11 23t-13 21.5t-15 20.5t-16 19.5t-15 19t-13 18.5t-11 18
t-7.5 18.5t-2.5 18.5q0 39 38.5 60t116.5 20v58q-78 -1 -116.5 20t-38.5 60q0 9 2.5 18.5t7.5 18.5t11 18t13 18.5t15 19t16 19.5t15 20.5t13 21.5t11 23t7.5 24.5t2.5 26.5q0 13 -3 25.5t-8.5 24t-14.5 22.5t-21 20t-27 16.5t-33.5 12.5t-40.5 8t-48 2.5t-55 -4.5z" />
    <glyph glyph-name="asciitilde" unicode="~" horiz-adv-x="474" 
d="M317 251q40 0 70.5 41.5t48.5 140.5h-29q-17 -51 -35 -72.5t-41 -21.5q-7 0 -14 2t-14 6t-14.5 9t-15 11t-15 12.5t-15.5 13t-16 12.5t-16.5 11t-17.5 9t-18 6t-19 2q-40 0 -69.5 -41.5t-48.5 -140.5h29q17 51 34.5 73t41.5 22q7 0 14 -2t14 -6t14 -9.5t14.5 -11.5
t15.5 -12t16 -12.5t16 -12.5t16.5 -11.5t17 -9.5t18 -6t18.5 -2z" />
    <glyph glyph-name="uni00A0" unicode="&#xa0;" horiz-adv-x="198" 
 />
    <glyph glyph-name="exclamdown" unicode="&#xa1;" horiz-adv-x="223" 
d="M140 289h-57l-41 -492h139zM111 505q-30 0 -50.5 -21t-20.5 -50t20.5 -50t50.5 -21t51 21t21 50t-21 50t-51 21z" />
    <glyph glyph-name="cent" unicode="&#xa2;" horiz-adv-x="464" 
d="M221 -115l57 8l9 99q40 1 78.5 14t63.5 31l10 85q-29 -22 -66.5 -38t-77.5 -16h-1l31 354q34 -6 60.5 -21t48.5 -32l-10 94q-19 13 -42 22.5t-50 14.5l10 109l-57 -9l-9 -96q-23 0 -44.5 -4.5t-42 -12.5t-39 -19t-35 -24.5t-30 -30.5t-24.5 -36t-18.5 -40t-11.5 -44
t-4 -48q0 -98 56.5 -166.5t147.5 -83.5zM132 243q0 71 39 121.5t98 58.5l-31 -345q-47 17 -76.5 61t-29.5 104z" />
    <glyph glyph-name="sterling" unicode="&#xa3;" horiz-adv-x="556" 
d="M137 -13q37 0 68 18t53 49q37 -24 77.5 -45.5t87.5 -21.5q24 0 50 6.5t44 19.5l13 91q-24 -18 -51.5 -26t-52.5 -8q-36 0 -70 15t-68 34q3 13 5 27t2 29q0 28 -6.5 55t-16.5 54h124v58h-146q-14 36 -25.5 72.5t-11.5 74.5q0 60 37 99t97 39q43 0 84 -14.5t76 -41.5
l-15 99q-32 20 -74.5 31t-86.5 11q-26 0 -49.5 -4.5t-44.5 -12.5t-39.5 -19.5t-33.5 -26.5t-27 -32.5t-20.5 -37t-12.5 -41t-4 -44.5q0 -39 13.5 -77.5t32.5 -75.5h-82v-57h111q18 -34 31.5 -66t13.5 -60v-6q-19 7 -39.5 12t-41.5 5q-54 0 -82.5 -29.5t-28.5 -66.5
q0 -39 29.5 -62.5t79.5 -23.5zM92 67q0 14 12.5 25.5t35.5 11.5q16 0 33 -5.5t33 -13.5q-10 -24 -27.5 -38.5t-39.5 -14.5t-34.5 9.5t-12.5 25.5z" />
    <glyph glyph-name="yen" unicode="&#xa5;" horiz-adv-x="627" 
d="M99 152h157q-2 -44 -7 -87.5t-13 -64.5h154q-8 21 -13 64.5t-6 87.5h157v55h-158v62h158v54h-132l136 227q25 42 50.5 83t44.5 67h-139q1 -25 -13 -61t-35 -73l-117 -197l-114 197q-22 37 -36 73t-13 61h-160q19 -26 44.5 -67t51.5 -83l136 -227h-133v-54h158v-62h-158
v-55z" />
    <glyph glyph-name="section" unicode="&#xa7;" horiz-adv-x="602" 
d="M291 -206q90 0 143.5 49.5t53.5 120.5q0 32 -10.5 57.5t-29.5 44.5q60 22 93.5 66t33.5 101q0 20 -3.5 37t-10 31.5t-15.5 27.5t-20.5 24t-24.5 20.5t-27 18t-29.5 16t-31 14l-31 13t-31 12.5t-29.5 12t-27 12.5t-24.5 13.5t-20.5 15t-15.5 17t-10 19t-3.5 22
q0 33 26 54.5t70 21.5q40 0 86 -17t89 -46l-13 98q-35 20 -78.5 31.5t-89.5 11.5q-90 0 -144 -49.5t-54 -120.5q0 -32 10.5 -57.5t29.5 -44.5q-59 -22 -92.5 -66t-33.5 -101q0 -20 3.5 -37t10 -31.5t15.5 -27.5t20.5 -24t24.5 -20.5t27 -18t29.5 -16t31 -14l31 -13t31 -12.5
t29.5 -12t27 -12.5t24.5 -13.5t20.5 -15t15.5 -17t10 -19t3.5 -22q0 -32 -26 -54t-70 -22q-43 0 -94 19t-97 51l12 -98q37 -23 85.5 -36.5t99.5 -13.5zM120 303q0 33 19.5 59.5t55.5 42.5q14 -9 28.5 -16.5t30.5 -14.5l32 -14t32 -13.5t31.5 -13t30 -13t27.5 -14t24.5 -16
t21 -18t16 -20t10 -23t3.5 -26.5q0 -33 -20 -59.5t-57 -42.5q-13 9 -28 16.5t-30.5 14.5t-31.5 14t-32 13.5t-31.5 13t-29.5 13t-27.5 14t-24.5 16t-20.5 18t-16 20t-10 23t-3.5 26.5z" />
    <glyph glyph-name="dieresis" unicode="&#xa8;" 
d="M158 576q29 0 47 19.5t18 44.5t-18 44.5t-47 19.5q-28 0 -46.5 -19.5t-18.5 -44.5t18.5 -44.5t46.5 -19.5zM342 576q28 0 46.5 19.5t18.5 44.5t-18.5 44.5t-46.5 19.5q-29 0 -47 -19.5t-18 -44.5t18 -44.5t47 -19.5z" />
    <glyph glyph-name="copyright" unicode="&#xa9;" horiz-adv-x="801" 
d="M400 -35q32 0 62 5t58 14.5t53.5 23t48 31t42.5 38.5t36.5 45t29 50.5t21.5 55t13.5 59t4.5 62.5t-4.5 62.5t-13.5 59t-21.5 55t-29 50t-36.5 44.5t-42.5 38.5t-48 31t-53.5 23t-58 14.5t-62 5t-62 -5t-58 -14.5t-53 -23t-48 -31t-42.5 -38.5t-36 -44.5t-29 -50
t-21.5 -55t-13.5 -59t-4.5 -62.5t4.5 -62.5t13.5 -59t21.5 -55t29 -50.5t36 -45t42.5 -38.5t48 -31t53 -23t58 -14.5t62 -5zM400 6q-28 0 -54.5 4.5t-51 13t-47 21t-42.5 28t-37 34.5t-31.5 40t-25.5 45t-18.5 49.5t-11.5 52.5t-4 55t4 55t11.5 52.5t18.5 49t25.5 44.5
t31.5 40t37 34.5t42.5 28t47 21t51 13t54.5 4.5t54.5 -4.5t51 -13t47 -21t42.5 -28t37 -34.5t31.5 -40t25.5 -44.5t18.5 -49t11.5 -52.5t4 -55t-4 -55t-11.5 -52.5t-18.5 -49.5t-25.5 -45t-31.5 -40t-37 -34.5t-42.5 -28t-47 -21t-51 -13t-54.5 -4.5zM414 126q37 0 73 10.5
t62 29.5l8 80q-29 -22 -60.5 -36t-65.5 -14q-60 0 -98 43t-38 109q0 65 39.5 108.5t96.5 43.5q38 0 69.5 -16.5t56.5 -42.5l-13 107q-25 1 -54 12.5t-76 11.5q-19 0 -38 -3.5t-36.5 -10.5t-33.5 -16.5t-30 -21.5t-26 -26.5t-21.5 -31t-16 -35t-10 -38t-3.5 -39.5
q0 -99 60 -161.5t155 -62.5z" />
    <glyph glyph-name="ordfeminine" unicode="&#xaa;" horiz-adv-x="346" 
d="M116 363q34 0 62.5 19t45.5 47q1 -17 2.5 -35t4.5 -28l87 9q-7 14 -10.5 41.5t-3.5 47.5v127q0 58 -34 90t-99 32q-30 0 -61 -8t-59 -21l-8 -61q33 18 59.5 26.5t51.5 8.5q32 0 50.5 -16.5t18.5 -50.5v-24l-91 -16q-55 -10 -83 -34.5t-28 -64.5t26 -64.5t69 -24.5z
M98 458q0 19 13 32.5t41 19.5l71 15v-65q-13 -18 -34 -31t-43 -13t-35 11.5t-13 30.5z" />
    <glyph glyph-name="guillemotleft" unicode="&#xab;" horiz-adv-x="511" 
d="M262 -5h27l-148 254l148 253h-27l-250 -253zM469 -5h27l-148 254l148 253h-27l-250 -253z" />
    <glyph glyph-name="registered" unicode="&#xae;" horiz-adv-x="482" 
d="M241 294q23 0 44 4t40.5 12.5t36.5 20t32 26t26.5 32t19.5 37.5t12.5 41.5t4.5 45.5t-4.5 46t-12.5 42t-19.5 37.5t-26.5 32t-32 26t-36.5 19.5t-40.5 12t-44 4q-22 0 -43 -4t-40.5 -12t-37 -19.5t-32 -26t-26 -32t-19.5 -37.5t-12.5 -42t-4.5 -46t4.5 -45.5t12.5 -41.5
t19.5 -37.5t26 -32t32 -26t37 -20t40.5 -12.5t43 -4zM241 327q-19 0 -37 3.5t-34 10.5t-30.5 17t-27 22.5t-22 27t-16.5 31.5t-10.5 35.5t-3.5 38.5t3.5 38.5t10.5 35.5t16.5 32t22 27.5t27 22.5t30.5 17t34 10.5t37 3.5q76 0 128.5 -53.5t52.5 -133.5q0 -79 -52.5 -132.5
t-128.5 -53.5zM150 398h66q-4 10 -5.5 33.5t-1.5 40.5v19h32l53 -93h62q-7 9 -17 24t-23 35l-25 41q21 9 33 26t12 39q0 34 -23 53.5t-61 19.5h-102q4 -11 6 -34.5t2 -39.5v-90q0 -17 -2 -40.5t-6 -33.5zM243 599q19 0 30.5 -10.5t11.5 -26.5t-11.5 -26t-30.5 -10h-34v73h34
z" />
    <glyph glyph-name="macron" unicode="&#xaf;" 
d="M110 597h280v68h-280v-68z" />
    <glyph glyph-name="degree" unicode="&#xb0;" horiz-adv-x="364" 
d="M182 419q62 0 104.5 42t42.5 104q0 63 -42.5 105t-104.5 42q-61 0 -104.5 -42t-43.5 -105q0 -62 43.5 -104t104.5 -42zM182 475q-37 0 -63 26t-26 64q0 39 26 64.5t63 25.5q38 0 63 -25.5t25 -64.5q0 -38 -25 -64t-63 -26z" />
    <glyph glyph-name="plusminus" unicode="&#xb1;" horiz-adv-x="602" 
d="M270 150h62v199h196v60h-196v199h-62v-199h-196v-60h196v-199zM74 -2h454v60h-454v-60z" />
    <glyph glyph-name="twosuperior" unicode="&#xb2;" horiz-adv-x="256" 
d="M4 372h228l11 70q-20 -7 -52 -11t-55 -4h-38l47 46q50 47 71 77t21 63q0 41 -31.5 67.5t-85.5 26.5q-28 0 -54.5 -9t-45.5 -22l-10 -60q21 16 44.5 26t46.5 10q24 0 39 -14t15 -37q0 -22 -12.5 -45.5t-46.5 -66.5z" />
    <glyph glyph-name="threesuperior" unicode="&#xb3;" horiz-adv-x="266" 
d="M120 366q60 0 95.5 27t35.5 69q0 31 -20 52.5t-59 28.5q33 10 51 30.5t18 48.5q0 37 -30.5 61t-82.5 24q-30 0 -56 -7.5t-45 -17.5l-9 -60q22 13 45 21.5t45 8.5q25 0 38.5 -11t13.5 -30q0 -21 -16 -34.5t-44 -13.5h-24l-15 -49h38q34 0 52 -12.5t18 -34.5t-16.5 -35
t-44.5 -13q-22 0 -46.5 7t-46.5 19l4 -57q19 -10 46 -16t55 -6z" />
    <glyph glyph-name="acute" unicode="&#xb4;" 
d="M198 556h59l152 167h-126z" />
    <glyph glyph-name="paragraph" unicode="&#xb6;" horiz-adv-x="672" 
d="M297 228h68v-200v-21t-0.5 -23.5t-1 -25.5t-1 -26.5t-1.5 -27t-2.5 -26t-2.5 -24.5t-3 -22t-4 -18t-4 -14h101v900h-149q-120 0 -193.5 -64.5t-73.5 -171.5q0 -106 73.5 -171t193.5 -65zM507 -200h102q-2 6 -4 14t-4 18t-3 22t-2.5 24.5t-2.5 26t-1.5 27t-1 26.5t-1 25.5
t-0.5 23.5v21v444v21t0.5 23.5t1 25.5t1 26.5t1.5 27t2.5 26t2.5 24.5t3 22t4 18t4 14h-102v-900z" />
    <glyph glyph-name="periodcentered" unicode="&#xb7;" horiz-adv-x="212" 
d="M107 275q29 0 49.5 21t20.5 51q0 29 -20.5 50t-49.5 21q-30 0 -51 -21t-21 -50q0 -30 21 -51t51 -21z" />
    <glyph glyph-name="cedilla" unicode="&#xb8;" 
d="M238 -213q51 0 83 24.5t32 64.5q0 33 -26.5 54.5t-66.5 21.5h-5.5t-5.5 -1l33 62l-48 3l-59 -111l5 -4q10 3 23 4.5t26 1.5q22 0 36.5 -8.5t14.5 -22.5q0 -15 -15 -24t-41 -9q-23 0 -46 6t-42 16l6 -60q17 -7 43.5 -12.5t52.5 -5.5z" />
    <glyph glyph-name="onesuperior" unicode="&#xb9;" horiz-adv-x="149" 
d="M25 372h101q-6 15 -8 44.5t-2 52.5v238l-97 -30q9 -13 13 -35t4 -47v-126q0 -23 -2.5 -52.5t-8.5 -44.5z" />
    <glyph glyph-name="ordmasculine" unicode="&#xba;" horiz-adv-x="372" 
d="M186 363q71 0 119 50t48 125q0 76 -47.5 125.5t-119.5 49.5q-71 0 -118.5 -50t-47.5 -126q0 -75 47.5 -124.5t118.5 -49.5zM187 415q-38 0 -61.5 32.5t-23.5 89.5t23.5 90t60.5 33t60.5 -33t23.5 -90t-23 -89.5t-60 -32.5z" />
    <glyph glyph-name="guillemotright" unicode="&#xbb;" horiz-adv-x="511" 
d="M249 -5h-27l148 254l-148 253h27l250 -253zM42 -5h-27l148 254l-148 253h27l250 -253z" />
    <glyph glyph-name="onequarter" unicode="&#xbc;" horiz-adv-x="554" 
d="M246 74h170q-1 -20 -3.5 -41.5t-6.5 -32.5h95q-4 11 -5.5 32.5t-2.5 41.5h45l9 63q-11 -3 -25 -5.5t-29 -3.5v87l-77 -18v-70h-89l53 95q13 23 31.5 55t32.5 52h-81q-5 -15 -15.5 -39t-19.5 -41zM45 372h101q-6 15 -8 44.5t-2 52.5v238l-97 -30q9 -13 13 -35t4 -47v-126
q0 -23 -2.5 -52.5t-8.5 -44.5zM75 0l403 700h-73l-404 -700h74z" />
    <glyph glyph-name="onehalf" unicode="&#xbd;" horiz-adv-x="561" 
d="M310 0h228l11 70q-20 -7 -52 -11t-55 -4h-38l47 46q50 47 71 77t21 63q0 41 -31.5 67.5t-85.5 26.5q-28 0 -54.5 -9t-45.5 -22l-10 -60q21 16 44.5 26t46.5 10q24 0 39 -14t15 -37q0 -22 -12.5 -45.5t-46.5 -66.5zM45 372h101q-6 15 -8 44.5t-2 52.5v238l-97 -30
q9 -13 13 -35t4 -47v-126q0 -23 -2.5 -52.5t-8.5 -44.5zM75 0l403 700h-73l-404 -700h74z" />
    <glyph glyph-name="threequarters" unicode="&#xbe;" horiz-adv-x="636" 
d="M120 366q60 0 95.5 27t35.5 69q0 31 -20 52.5t-59 28.5q33 10 51 30.5t18 48.5q0 37 -30.5 61t-82.5 24q-30 0 -56 -7.5t-45 -17.5l-9 -60q22 13 45 21.5t45 8.5q25 0 38.5 -11t13.5 -30q0 -21 -16 -34.5t-44 -13.5h-24l-15 -49h38q34 0 52 -12.5t18 -34.5t-16.5 -35
t-44.5 -13q-22 0 -46.5 7t-46.5 19l4 -57q19 -10 46 -16t55 -6zM328 74h170q-1 -20 -3.5 -41.5t-6.5 -32.5h95q-4 11 -5.5 32.5t-2.5 41.5h45l9 63q-11 -3 -25 -5.5t-29 -3.5v87l-77 -18v-70h-89l53 95q13 23 31.5 55t32.5 52h-81q-5 -15 -15.5 -39t-19.5 -41zM157 0
l403 700h-73l-404 -700h74z" />
    <glyph glyph-name="questiondown" unicode="&#xbf;" horiz-adv-x="422" 
d="M217 297l-4 -8q10 -7 16 -17.5t6 -23.5q0 -10 -3 -19t-9 -17t-13.5 -16.5t-17 -16.5t-20 -16t-22 -16.5t-23 -17.5t-23 -18.5t-22 -20t-20 -22t-17 -24t-13.5 -27t-9 -30t-3 -33.5q0 -76 55.5 -122t151.5 -46q49 0 97 13t82 34l16 101q-39 -26 -86 -44.5t-91 -18.5
q-49 0 -78 25.5t-29 68.5q0 13 2.5 24.5t7.5 22t11 20t14 19t16.5 18l17.5 17.5t18 17.5t17.5 17t16.5 17t14 18t11 19.5t7.5 20.5t2.5 22.5q0 32 -21.5 53t-55.5 26zM241 505q-29 0 -50 -21t-21 -50t21 -50t50 -21q30 0 51 21t21 50t-21 50t-51 21z" />
    <glyph glyph-name="Agrave" unicode="&#xc0;" horiz-adv-x="653" 
d="M495 0h162q-4 7 -9 17t-11 21t-12 24t-12.5 26t-13 27t-13 27.5t-12.5 26.5t-11 25l-236 524l-237 -524q-5 -12 -11 -25t-12.5 -26.5t-13 -27.5t-13 -27t-12.5 -26t-12 -24t-11 -21t-9 -17h138q0 7 0.5 16t2.5 19t4.5 21t5.5 22.5t7 23.5l8 24t8 23.5t8 21.5h271
q4 -10 8.5 -21.5t8.5 -23.5l8 -24t7.5 -23.5t6 -22.5t4.5 -21t2.5 -19t0.5 -16zM211 249l103 241l102 -241h-205zM314 759h61l-83 147h-125z" />
    <glyph glyph-name="Aacute" unicode="&#xc1;" horiz-adv-x="653" 
d="M495 0h162q-4 7 -9 17t-11 21t-12 24t-12.5 26t-13 27t-13 27.5t-12.5 26.5t-11 25l-236 524l-237 -524q-5 -12 -11 -25t-12.5 -26.5t-13 -27.5t-13 -27t-12.5 -26t-12 -24t-11 -21t-9 -17h138q0 7 0.5 16t2.5 19t4.5 21t5.5 22.5t7 23.5l8 24t8 23.5t8 21.5h271
q4 -10 8.5 -21.5t8.5 -23.5l8 -24t7.5 -23.5t6 -22.5t4.5 -21t2.5 -19t0.5 -16zM211 249l103 241l102 -241h-205zM271 759h60l148 147h-125z" />
    <glyph glyph-name="Acircumflex" unicode="&#xc2;" horiz-adv-x="653" 
d="M495 0h162q-4 7 -9 17t-11 21t-12 24t-12.5 26t-13 27t-13 27.5t-12.5 26.5t-11 25l-236 524l-237 -524q-5 -12 -11 -25t-12.5 -26.5t-13 -27.5t-13 -27t-12.5 -26t-12 -24t-11 -21t-9 -17h138q0 7 0.5 16t2.5 19t4.5 21t5.5 22.5t7 23.5l8 24t8 23.5t8 21.5h271
q4 -10 8.5 -21.5t8.5 -23.5l8 -24t7.5 -23.5t6 -22.5t4.5 -21t2.5 -19t0.5 -16zM211 249l103 241l102 -241h-205zM160 759h54l109 85l108 -85h55l-115 147h-96z" />
    <glyph glyph-name="Atilde" unicode="&#xc3;" horiz-adv-x="653" 
d="M495 0h162q-4 7 -9 17t-11 21t-12 24t-12.5 26t-13 27t-13 27.5t-12.5 26.5t-11 25l-236 524l-237 -524q-5 -12 -11 -25t-12.5 -26.5t-13 -27.5t-13 -27t-12.5 -26t-12 -24t-11 -21t-9 -17h138q0 7 0.5 16t2.5 19t4.5 21t5.5 22.5t7 23.5l8 24t8 23.5t8 21.5h271
q4 -10 8.5 -21.5t8.5 -23.5l8 -24t7.5 -23.5t6 -22.5t4.5 -21t2.5 -19t0.5 -16zM211 249l103 241l102 -241h-205zM164 771h25q11 29 25.5 43t33.5 14q7 0 13.5 -2t14 -5t15.5 -7.5l16 -9t16.5 -9.5t17 -9.5t17.5 -7.5t18 -5t18 -2q34 0 60.5 30.5t40.5 96.5h-25
q-12 -28 -26 -42t-33 -14q-7 0 -14 2t-14.5 5t-15 7.5t-15.5 9t-16.5 9l-17 9t-17.5 7.5t-18 5t-18 2q-34 0 -60.5 -30.5t-40.5 -96.5z" />
    <glyph glyph-name="Adieresis" unicode="&#xc4;" horiz-adv-x="653" 
d="M495 0h162q-4 7 -9 17t-11 21t-12 24t-12.5 26t-13 27t-13 27.5t-12.5 26.5t-11 25l-236 524l-237 -524q-5 -12 -11 -25t-12.5 -26.5t-13 -27.5t-13 -27t-12.5 -26t-12 -24t-11 -21t-9 -17h138q0 7 0.5 16t2.5 19t4.5 21t5.5 22.5t7 23.5l8 24t8 23.5t8 21.5h271
q4 -10 8.5 -21.5t8.5 -23.5l8 -24t7.5 -23.5t6 -22.5t4.5 -21t2.5 -19t0.5 -16zM211 249l103 241l102 -241h-205zM231 772q29 0 47 19.5t18 44.5q0 26 -18 45t-47 19q-28 0 -46.5 -19t-18.5 -45q0 -25 18.5 -44.5t46.5 -19.5zM415 772q28 0 46.5 19.5t18.5 44.5
q0 26 -18.5 45t-46.5 19q-29 0 -47 -19t-18 -45q0 -25 18 -44.5t47 -19.5z" />
    <glyph glyph-name="Aring" unicode="&#xc5;" horiz-adv-x="653" 
d="M495 0h162q-4 7 -9 17t-11 21t-12 24t-12.5 26t-13 27t-13 27.5t-12.5 26.5t-11 25l-236 524l-237 -524q-5 -12 -11 -25t-12.5 -26.5t-13 -27.5t-13 -27t-12.5 -26t-12 -24t-11 -21t-9 -17h138q0 7 0.5 16t2.5 19t4.5 21t5.5 22.5t7 23.5l8 24t8 23.5t8 21.5h271
q4 -10 8.5 -21.5t8.5 -23.5l8 -24t7.5 -23.5t6 -22.5t4.5 -21t2.5 -19t0.5 -16zM211 249l103 241l102 -241h-205zM323 756q49 0 79.5 30.5t30.5 73.5t-30.5 73t-79.5 30t-79.5 -30t-30.5 -73t30.5 -73.5t79.5 -30.5zM323 803q-25 0 -41.5 16.5t-16.5 40.5t16.5 40.5
t41.5 16.5t41.5 -16.5t16.5 -40.5t-16.5 -40.5t-41.5 -16.5z" />
    <glyph glyph-name="AE" unicode="&#xc6;" horiz-adv-x="950" 
d="M-4 0h140q3 31 27 82t49 94l8 13h257v-20t-0.5 -22.5t-1.5 -24t-2 -24.5t-2 -23.5t-2.5 -22.5t-3.5 -20.5t-4 -17.5t-5 -14h457l17 111q-8 -3 -18.5 -6t-22.5 -5.5t-25 -5t-27 -4.5t-28 -3.5l-28 -3t-27.5 -2.5t-26 -1.5t-24 -1t-20.5 -0.5h-88v244h42q49 0 91.5 -4
t81.5 -13l-22 111q-32 -7 -71.5 -11.5t-80.5 -4.5h-41v218h83q13 0 27 -0.5t29.5 -1t31.5 -2t31.5 -3.5t31.5 -4t30.5 -5t27.5 -6.5t24 -7.5l-19 112h-495q0 -6 -2 -14t-5.5 -18t-8 -21t-9.5 -22.5t-11 -24t-12 -24t-12.5 -23t-12.5 -21.5t-11 -19l-199 -329
q-7 -11 -14.5 -23.5t-15.5 -25.5l-16 -26t-16 -25.5t-16 -24.5l-15 -22.5t-13.5 -20t-11.5 -16.5zM266 267l211 353v-353h-211z" />
    <glyph glyph-name="Ccedilla" unicode="&#xc7;" horiz-adv-x="644" 
d="M35 344q0 -32 4.5 -62t14 -57.5t22.5 -53t30 -47.5t37 -41t43.5 -35t49.5 -27.5t54.5 -19t59.5 -10.5l-46 -86l5 -4q10 3 23 4.5t26 1.5q22 0 36.5 -8.5t14.5 -22.5q0 -15 -15 -24t-41 -9q-23 0 -46 6t-42 16l6 -60q17 -7 43.5 -12.5t52.5 -5.5q51 0 83 24.5t32 64.5
q0 33 -26.5 54t-66.5 21h-6t-6 -1l21 39q58 1 114 17.5t96 45.5l10 97q-43 -32 -96.5 -54.5t-113.5 -22.5q-26 0 -50.5 5t-47 14.5t-42.5 23.5t-36.5 32t-30 40t-22.5 47.5t-14 54t-5 59.5t4.5 59t13.5 53.5t21.5 47.5t28.5 40.5t35 33t41 24.5t46.5 15t51.5 5
q63 0 117 -26.5t97 -67.5l-21 141q-10 1 -20 2.5t-21 4.5t-22.5 6.5t-24 7t-26.5 6.5t-29 5.5t-32 4t-36 1.5q-29 0 -57 -4.5t-54.5 -13.5t-50.5 -22t-45.5 -29t-40.5 -36t-34.5 -42.5t-28 -48t-21 -53t-13 -57.5t-4.5 -61z" />
    <glyph glyph-name="Egrave" unicode="&#xc8;" horiz-adv-x="556" 
d="M61 0h457l17 111q-8 -3 -18.5 -6t-22.5 -5.5t-25 -5t-27 -4.5t-28 -3.5l-28 -3t-27.5 -2.5t-26 -1.5t-23.5 -1t-20 -0.5h-88v244h41q49 0 91.5 -4t81.5 -13l-22 111q-32 -7 -71 -11.5t-81 -4.5h-40v218h82q13 0 27 -0.5t29.5 -1t31.5 -2t32 -3.5t31.5 -4t30 -5t27.5 -6.5
t24 -7.5l-19 112h-437q3 -7 6 -16.5t5 -20.5t4 -24t3 -26.5l2 -27t1.5 -27t1 -26t0.5 -23.5v-318v-21t-0.5 -23t-1.5 -24l-2 -24t-2.5 -24t-3 -23t-3.5 -20.5t-4 -17.5t-5 -14zM295 759h61l-83 147h-125z" />
    <glyph glyph-name="Eacute" unicode="&#xc9;" horiz-adv-x="556" 
d="M61 0h457l17 111q-8 -3 -18.5 -6t-22.5 -5.5t-25 -5t-27 -4.5t-28 -3.5l-28 -3t-27.5 -2.5t-26 -1.5t-23.5 -1t-20 -0.5h-88v244h41q49 0 91.5 -4t81.5 -13l-22 111q-32 -7 -71 -11.5t-81 -4.5h-40v218h82q13 0 27 -0.5t29.5 -1t31.5 -2t32 -3.5t31.5 -4t30 -5t27.5 -6.5
t24 -7.5l-19 112h-437q3 -7 6 -16.5t5 -20.5t4 -24t3 -26.5l2 -27t1.5 -27t1 -26t0.5 -23.5v-318v-21t-0.5 -23t-1.5 -24l-2 -24t-2.5 -24t-3 -23t-3.5 -20.5t-4 -17.5t-5 -14zM252 759h60l148 147h-125z" />
    <glyph glyph-name="Ecircumflex" unicode="&#xca;" horiz-adv-x="556" 
d="M61 0h457l17 111q-8 -3 -18.5 -6t-22.5 -5.5t-25 -5t-27 -4.5t-28 -3.5l-28 -3t-27.5 -2.5t-26 -1.5t-23.5 -1t-20 -0.5h-88v244h41q49 0 91.5 -4t81.5 -13l-22 111q-32 -7 -71 -11.5t-81 -4.5h-40v218h82q13 0 27 -0.5t29.5 -1t31.5 -2t32 -3.5t31.5 -4t30 -5t27.5 -6.5
t24 -7.5l-19 112h-437q3 -7 6 -16.5t5 -20.5t4 -24t3 -26.5l2 -27t1.5 -27t1 -26t0.5 -23.5v-318v-21t-0.5 -23t-1.5 -24l-2 -24t-2.5 -24t-3 -23t-3.5 -20.5t-4 -17.5t-5 -14zM141 759h54l109 85l108 -85h55l-115 147h-96z" />
    <glyph glyph-name="Edieresis" unicode="&#xcb;" horiz-adv-x="556" 
d="M61 0h457l17 111q-8 -3 -18.5 -6t-22.5 -5.5t-25 -5t-27 -4.5t-28 -3.5l-28 -3t-27.5 -2.5t-26 -1.5t-23.5 -1t-20 -0.5h-88v244h41q49 0 91.5 -4t81.5 -13l-22 111q-32 -7 -71 -11.5t-81 -4.5h-40v218h82q13 0 27 -0.5t29.5 -1t31.5 -2t32 -3.5t31.5 -4t30 -5t27.5 -6.5
t24 -7.5l-19 112h-437q3 -7 6 -16.5t5 -20.5t4 -24t3 -26.5l2 -27t1.5 -27t1 -26t0.5 -23.5v-318v-21t-0.5 -23t-1.5 -24l-2 -24t-2.5 -24t-3 -23t-3.5 -20.5t-4 -17.5t-5 -14zM212 772q29 0 47 19.5t18 44.5q0 26 -18 45t-47 19q-28 0 -46.5 -19t-18.5 -45
q0 -25 18.5 -44.5t46.5 -19.5zM396 772q28 0 46.5 19.5t18.5 44.5q0 26 -18.5 45t-46.5 19q-29 0 -47 -19t-18 -45q0 -25 18 -44.5t47 -19.5z" />
    <glyph glyph-name="Igrave" unicode="&#xcc;" horiz-adv-x="284" 
d="M63 0h158q-2 6 -4.5 14t-4 17.5t-3 20.5t-2.5 22.5t-2 24t-1.5 24.5t-1 23.5t-0.5 22.5v21v320v21t0.5 22.5t1 23.5t1.5 24.5t2 24t2.5 22.5t3 20.5t4 17.5t4.5 14h-158q3 -6 5 -14t3.5 -17.5t3 -20.5t3 -22.5t2.5 -24t1.5 -24.5t1 -23.5t0.5 -22.5v-21v-320v-21
t-0.5 -22.5t-1 -23.5t-1.5 -24.5t-2.5 -24t-3 -22.5t-3 -20.5t-4 -17.5t-4.5 -14zM133 759h61l-83 147h-125z" />
    <glyph glyph-name="Iacute" unicode="&#xcd;" horiz-adv-x="284" 
d="M63 0h158q-2 6 -4.5 14t-4 17.5t-3 20.5t-2.5 22.5t-2 24t-1.5 24.5t-1 23.5t-0.5 22.5v21v320v21t0.5 22.5t1 23.5t1.5 24.5t2 24t2.5 22.5t3 20.5t4 17.5t4.5 14h-158q3 -6 5 -14t3.5 -17.5t3 -20.5t3 -22.5t2.5 -24t1.5 -24.5t1 -23.5t0.5 -22.5v-21v-320v-21
t-0.5 -22.5t-1 -23.5t-1.5 -24.5t-2.5 -24t-3 -22.5t-3 -20.5t-4 -17.5t-4.5 -14zM90 759h60l148 147h-125z" />
    <glyph glyph-name="Icircumflex" unicode="&#xce;" horiz-adv-x="284" 
d="M63 0h158q-2 6 -4.5 14t-4 17.5t-3 20.5t-2.5 22.5t-2 24t-1.5 24.5t-1 23.5t-0.5 22.5v21v320v21t0.5 22.5t1 23.5t1.5 24.5t2 24t2.5 22.5t3 20.5t4 17.5t4.5 14h-158q3 -6 5 -14t3.5 -17.5t3 -20.5t3 -22.5t2.5 -24t1.5 -24.5t1 -23.5t0.5 -22.5v-21v-320v-21
t-0.5 -22.5t-1 -23.5t-1.5 -24.5t-2.5 -24t-3 -22.5t-3 -20.5t-4 -17.5t-4.5 -14zM-21 759h54l109 85l108 -85h55l-115 147h-96z" />
    <glyph glyph-name="Idieresis" unicode="&#xcf;" horiz-adv-x="284" 
d="M63 0h158q-2 6 -4.5 14t-4 17.5t-3 20.5t-2.5 22.5t-2 24t-1.5 24.5t-1 23.5t-0.5 22.5v21v320v21t0.5 22.5t1 23.5t1.5 24.5t2 24t2.5 22.5t3 20.5t4 17.5t4.5 14h-158q3 -6 5 -14t3.5 -17.5t3 -20.5t3 -22.5t2.5 -24t1.5 -24.5t1 -23.5t0.5 -22.5v-21v-320v-21
t-0.5 -22.5t-1 -23.5t-1.5 -24.5t-2.5 -24t-3 -22.5t-3 -20.5t-4 -17.5t-4.5 -14zM50 772q29 0 47 19.5t18 44.5q0 26 -18 45t-47 19q-28 0 -46.5 -19t-18.5 -45q0 -25 18.5 -44.5t46.5 -19.5zM234 772q28 0 46.5 19.5t18.5 44.5q0 26 -18.5 45t-46.5 19q-29 0 -47 -19
t-18 -45q0 -25 18 -44.5t47 -19.5z" />
    <glyph glyph-name="Eth" unicode="&#xd0;" horiz-adv-x="719" 
d="M68 0h239q36 0 69.5 5t64.5 15.5t59 25t52.5 33.5t44.5 41.5t36 49t27 56t17 62t6 67.5q0 33 -5.5 64t-16 59.5t-26 54t-35.5 48t-44.5 41t-52 33t-59 24.5t-66 15.5t-71.5 5.5h-240q3 -7 6 -16.5t5 -20.5t4 -24t3 -26.5l2 -27t1.5 -27t1 -26t0.5 -23.5v-122h-79l-15 -72
h94v-124v-21t-0.5 -23t-1.5 -24l-2 -24t-2.5 -24t-3 -23t-3.5 -20.5t-4 -17.5t-5 -14zM344 315l15 72h-150v230h93q29 0 55 -5t49.5 -14.5t43.5 -23.5t37.5 -31.5t30.5 -39t22 -45.5t14 -51.5t5 -56.5q0 -30 -5 -57.5t-14 -52.5t-22 -46t-30.5 -39t-37.5 -31.5t-43.5 -23
t-49.5 -14.5t-55 -5h-93v234h135z" />
    <glyph glyph-name="Ntilde" unicode="&#xd1;" horiz-adv-x="724" 
d="M644 511v20.5t0.5 22.5t1.5 24t1.5 24t2 24t3 22.5t3.5 20t4 17.5t5 14h-136q3 -7 5.5 -16t4.5 -20t3.5 -23.5t3 -25.5t2.5 -26.5t1.5 -26.5t1 -25t0.5 -23l2 -277v-4l-32 33l-440 449v-526v-20.5t-0.5 -22.5t-1.5 -24l-2 -24t-2.5 -24t-3 -22.5t-3.5 -20t-4 -17.5
t-5 -14h137q-3 6 -5.5 14.5t-4.5 19t-4 22t-3 24l-2 25t-1.5 24.5l-1 24t-0.5 22l-2 287v3l31 -33l441 -447v526zM208 771h25q11 29 25.5 43t33.5 14q7 0 13.5 -2t14 -5t15.5 -7.5l16 -9t16.5 -9.5t17 -9.5t17.5 -7.5t18 -5t18 -2q34 0 60.5 30.5t40.5 96.5h-25
q-12 -28 -26 -42t-33 -14q-7 0 -14 2t-14.5 5t-15 7.5t-15.5 9t-16.5 9l-17 9t-17.5 7.5t-18 5t-18 2q-34 0 -60.5 -30.5t-40.5 -96.5z" />
    <glyph glyph-name="Ograve" unicode="&#xd2;" horiz-adv-x="771" 
d="M736 350q0 32 -4.5 62t-13 58t-21 53t-28.5 47.5t-35 41.5t-40.5 35t-46 28t-50.5 20.5t-53.5 13t-56.5 4.5t-57.5 -4.5t-54.5 -13t-50.5 -21t-46 -28.5t-41 -35.5t-35.5 -42t-28.5 -47.5t-21 -52.5t-13 -57.5t-4.5 -61q0 -32 4.5 -62t13 -58t21 -53t28.5 -47.5t35 -41.5
t40.5 -35t46 -28t50.5 -20.5t53.5 -13t56.5 -4.5t57.5 4.5t54.5 13t50.5 21t46 28.5t41 35.5t35.5 42t28.5 47.5t21 52.5t13 57.5t4.5 61zM161 349q0 32 4.5 61t13 55t20.5 47.5t27 40t33 32t38.5 23t43 14.5t46.5 5t46 -5t42 -14.5t38 -23.5t33 -32t27 -40t20 -47.5
t12.5 -54.5t4.5 -61t-4.5 -61t-13 -54.5t-20 -47.5t-27 -40t-33.5 -31.5t-38.5 -23t-43 -14.5t-46.5 -5q-23 0 -45 5t-42.5 14.5t-38 23.5t-32.5 32t-27 40t-20.5 47t-13 54t-4.5 61zM378 759h61l-83 147h-125z" />
    <glyph glyph-name="Oacute" unicode="&#xd3;" horiz-adv-x="771" 
d="M736 350q0 32 -4.5 62t-13 58t-21 53t-28.5 47.5t-35 41.5t-40.5 35t-46 28t-50.5 20.5t-53.5 13t-56.5 4.5t-57.5 -4.5t-54.5 -13t-50.5 -21t-46 -28.5t-41 -35.5t-35.5 -42t-28.5 -47.5t-21 -52.5t-13 -57.5t-4.5 -61q0 -32 4.5 -62t13 -58t21 -53t28.5 -47.5t35 -41.5
t40.5 -35t46 -28t50.5 -20.5t53.5 -13t56.5 -4.5t57.5 4.5t54.5 13t50.5 21t46 28.5t41 35.5t35.5 42t28.5 47.5t21 52.5t13 57.5t4.5 61zM161 349q0 32 4.5 61t13 55t20.5 47.5t27 40t33 32t38.5 23t43 14.5t46.5 5t46 -5t42 -14.5t38 -23.5t33 -32t27 -40t20 -47.5
t12.5 -54.5t4.5 -61t-4.5 -61t-13 -54.5t-20 -47.5t-27 -40t-33.5 -31.5t-38.5 -23t-43 -14.5t-46.5 -5q-23 0 -45 5t-42.5 14.5t-38 23.5t-32.5 32t-27 40t-20.5 47t-13 54t-4.5 61zM335 759h60l148 147h-125z" />
    <glyph glyph-name="Ocircumflex" unicode="&#xd4;" horiz-adv-x="771" 
d="M736 350q0 32 -4.5 62t-13 58t-21 53t-28.5 47.5t-35 41.5t-40.5 35t-46 28t-50.5 20.5t-53.5 13t-56.5 4.5t-57.5 -4.5t-54.5 -13t-50.5 -21t-46 -28.5t-41 -35.5t-35.5 -42t-28.5 -47.5t-21 -52.5t-13 -57.5t-4.5 -61q0 -32 4.5 -62t13 -58t21 -53t28.5 -47.5t35 -41.5
t40.5 -35t46 -28t50.5 -20.5t53.5 -13t56.5 -4.5t57.5 4.5t54.5 13t50.5 21t46 28.5t41 35.5t35.5 42t28.5 47.5t21 52.5t13 57.5t4.5 61zM161 349q0 32 4.5 61t13 55t20.5 47.5t27 40t33 32t38.5 23t43 14.5t46.5 5t46 -5t42 -14.5t38 -23.5t33 -32t27 -40t20 -47.5
t12.5 -54.5t4.5 -61t-4.5 -61t-13 -54.5t-20 -47.5t-27 -40t-33.5 -31.5t-38.5 -23t-43 -14.5t-46.5 -5q-23 0 -45 5t-42.5 14.5t-38 23.5t-32.5 32t-27 40t-20.5 47t-13 54t-4.5 61zM224 759h54l109 85l108 -85h55l-115 147h-96z" />
    <glyph glyph-name="Otilde" unicode="&#xd5;" horiz-adv-x="771" 
d="M736 350q0 32 -4.5 62t-13 58t-21 53t-28.5 47.5t-35 41.5t-40.5 35t-46 28t-50.5 20.5t-53.5 13t-56.5 4.5t-57.5 -4.5t-54.5 -13t-50.5 -21t-46 -28.5t-41 -35.5t-35.5 -42t-28.5 -47.5t-21 -52.5t-13 -57.5t-4.5 -61q0 -32 4.5 -62t13 -58t21 -53t28.5 -47.5t35 -41.5
t40.5 -35t46 -28t50.5 -20.5t53.5 -13t56.5 -4.5t57.5 4.5t54.5 13t50.5 21t46 28.5t41 35.5t35.5 42t28.5 47.5t21 52.5t13 57.5t4.5 61zM161 349q0 32 4.5 61t13 55t20.5 47.5t27 40t33 32t38.5 23t43 14.5t46.5 5t46 -5t42 -14.5t38 -23.5t33 -32t27 -40t20 -47.5
t12.5 -54.5t4.5 -61t-4.5 -61t-13 -54.5t-20 -47.5t-27 -40t-33.5 -31.5t-38.5 -23t-43 -14.5t-46.5 -5q-23 0 -45 5t-42.5 14.5t-38 23.5t-32.5 32t-27 40t-20.5 47t-13 54t-4.5 61zM228 771h25q11 29 25.5 43t33.5 14q7 0 13.5 -2t14 -5t15.5 -7.5l16 -9t16.5 -9.5
t17 -9.5t17.5 -7.5t18 -5t18 -2q34 0 60.5 30.5t40.5 96.5h-25q-12 -28 -26 -42t-33 -14q-7 0 -14 2t-14.5 5t-15 7.5t-15.5 9t-16.5 9l-17 9t-17.5 7.5t-18 5t-18 2q-34 0 -60.5 -30.5t-40.5 -96.5z" />
    <glyph glyph-name="Odieresis" unicode="&#xd6;" horiz-adv-x="771" 
d="M736 350q0 32 -4.5 62t-13 58t-21 53t-28.5 47.5t-35 41.5t-40.5 35t-46 28t-50.5 20.5t-53.5 13t-56.5 4.5t-57.5 -4.5t-54.5 -13t-50.5 -21t-46 -28.5t-41 -35.5t-35.5 -42t-28.5 -47.5t-21 -52.5t-13 -57.5t-4.5 -61q0 -32 4.5 -62t13 -58t21 -53t28.5 -47.5t35 -41.5
t40.5 -35t46 -28t50.5 -20.5t53.5 -13t56.5 -4.5t57.5 4.5t54.5 13t50.5 21t46 28.5t41 35.5t35.5 42t28.5 47.5t21 52.5t13 57.5t4.5 61zM161 349q0 32 4.5 61t13 55t20.5 47.5t27 40t33 32t38.5 23t43 14.5t46.5 5t46 -5t42 -14.5t38 -23.5t33 -32t27 -40t20 -47.5
t12.5 -54.5t4.5 -61t-4.5 -61t-13 -54.5t-20 -47.5t-27 -40t-33.5 -31.5t-38.5 -23t-43 -14.5t-46.5 -5q-23 0 -45 5t-42.5 14.5t-38 23.5t-32.5 32t-27 40t-20.5 47t-13 54t-4.5 61zM295 772q29 0 47 19.5t18 44.5q0 26 -18 45t-47 19q-28 0 -46.5 -19t-18.5 -45
q0 -25 18.5 -44.5t46.5 -19.5zM479 772q28 0 46.5 19.5t18.5 44.5q0 26 -18.5 45t-46.5 19q-29 0 -47 -19t-18 -45q0 -25 18 -44.5t47 -19.5z" />
    <glyph glyph-name="multiply" unicode="&#xd7;" horiz-adv-x="602" 
d="M148 156l152 152l152 -152l44 43l-152 152l152 152l-42 41l-151 -151l-152 151l-44 -43l152 -152l-152 -152z" />
    <glyph glyph-name="Oslash" unicode="&#xd8;" horiz-adv-x="771" 
d="M33 0h90l50 57q43 -34 97.5 -52t113.5 -18q29 0 57.5 4.5t54.5 13t50.5 21t46 28.5t41 35.5t35.5 42t28.5 47.5t21 52.5t13 57.5t4.5 61q0 74 -23.5 137t-64.5 110l90 103h-90l-50 -57q-43 34 -97.5 52t-113.5 18q-29 0 -57.5 -4.5t-54.5 -13t-50.5 -21t-46 -28.5
t-41 -35.5t-35.5 -42t-28.5 -47.5t-21 -52.5t-13 -57.5t-4.5 -61q0 -74 23.5 -137t64.5 -110zM161 349q0 32 4.5 61t13 55t20.5 47.5t27 40t33 32t38.5 23t43 14.5t46.5 5q42 0 79 -15.5t66 -43.5l-334 -380q-17 32 -27 73t-10 88zM610 349q0 -32 -4.5 -61t-13 -54.5
t-20 -47.5t-27 -40t-33.5 -31.5t-38.5 -23t-43 -14.5t-46.5 -5q-42 0 -79 15.5t-66 44.5l334 380q17 -33 27 -74t10 -89z" />
    <glyph glyph-name="Ugrave" unicode="&#xd9;" horiz-adv-x="700" 
d="M351 -12q31 0 59 4.5t53 14t47 23t40.5 31.5t33 39.5t24.5 47.5t15 55t5 62v245v21t0.5 22.5t1.5 23.5t1.5 24.5t2 24t3 22.5t3.5 20.5t4 17.5t5 14h-137q3 -6 5 -14t4 -17.5t3.5 -20.5t2.5 -22.5t2 -24t2 -24.5t1.5 -23.5t0.5 -22.5v-21v-247q0 -91 -49 -138.5
t-121 -47.5t-121.5 47t-49.5 139v247v21t0.5 22.5t1 23.5t1.5 24.5t2.5 24t3 22.5t3 20.5t4 17.5t4.5 14h-158q3 -6 5 -14t3.5 -17.5t3 -20.5t2.5 -22.5t2 -24t1.5 -24.5t1 -23.5t0.5 -22.5v-21v-253q0 -32 5 -60.5t15.5 -53.5t24.5 -46t32.5 -38.5t41 -30.5t47.5 -22
t53 -13.5t59 -4.5zM353 759h61l-83 147h-125z" />
    <glyph glyph-name="Uacute" unicode="&#xda;" horiz-adv-x="700" 
d="M351 -12q31 0 59 4.5t53 14t47 23t40.5 31.5t33 39.5t24.5 47.5t15 55t5 62v245v21t0.5 22.5t1.5 23.5t1.5 24.5t2 24t3 22.5t3.5 20.5t4 17.5t5 14h-137q3 -6 5 -14t4 -17.5t3.5 -20.5t2.5 -22.5t2 -24t2 -24.5t1.5 -23.5t0.5 -22.5v-21v-247q0 -91 -49 -138.5
t-121 -47.5t-121.5 47t-49.5 139v247v21t0.5 22.5t1 23.5t1.5 24.5t2.5 24t3 22.5t3 20.5t4 17.5t4.5 14h-158q3 -6 5 -14t3.5 -17.5t3 -20.5t2.5 -22.5t2 -24t1.5 -24.5t1 -23.5t0.5 -22.5v-21v-253q0 -32 5 -60.5t15.5 -53.5t24.5 -46t32.5 -38.5t41 -30.5t47.5 -22
t53 -13.5t59 -4.5zM310 759h60l148 147h-125z" />
    <glyph glyph-name="Ucircumflex" unicode="&#xdb;" horiz-adv-x="700" 
d="M351 -12q31 0 59 4.5t53 14t47 23t40.5 31.5t33 39.5t24.5 47.5t15 55t5 62v245v21t0.5 22.5t1.5 23.5t1.5 24.5t2 24t3 22.5t3.5 20.5t4 17.5t5 14h-137q3 -6 5 -14t4 -17.5t3.5 -20.5t2.5 -22.5t2 -24t2 -24.5t1.5 -23.5t0.5 -22.5v-21v-247q0 -91 -49 -138.5
t-121 -47.5t-121.5 47t-49.5 139v247v21t0.5 22.5t1 23.5t1.5 24.5t2.5 24t3 22.5t3 20.5t4 17.5t4.5 14h-158q3 -6 5 -14t3.5 -17.5t3 -20.5t2.5 -22.5t2 -24t1.5 -24.5t1 -23.5t0.5 -22.5v-21v-253q0 -32 5 -60.5t15.5 -53.5t24.5 -46t32.5 -38.5t41 -30.5t47.5 -22
t53 -13.5t59 -4.5zM199 759h54l109 85l108 -85h55l-115 147h-96z" />
    <glyph glyph-name="Udieresis" unicode="&#xdc;" horiz-adv-x="700" 
d="M351 -12q31 0 59 4.5t53 14t47 23t40.5 31.5t33 39.5t24.5 47.5t15 55t5 62v245v21t0.5 22.5t1.5 23.5t1.5 24.5t2 24t3 22.5t3.5 20.5t4 17.5t5 14h-137q3 -6 5 -14t4 -17.5t3.5 -20.5t2.5 -22.5t2 -24t2 -24.5t1.5 -23.5t0.5 -22.5v-21v-247q0 -91 -49 -138.5
t-121 -47.5t-121.5 47t-49.5 139v247v21t0.5 22.5t1 23.5t1.5 24.5t2.5 24t3 22.5t3 20.5t4 17.5t4.5 14h-158q3 -6 5 -14t3.5 -17.5t3 -20.5t2.5 -22.5t2 -24t1.5 -24.5t1 -23.5t0.5 -22.5v-21v-253q0 -32 5 -60.5t15.5 -53.5t24.5 -46t32.5 -38.5t41 -30.5t47.5 -22
t53 -13.5t59 -4.5zM270 772q29 0 47 19.5t18 44.5q0 26 -18 45t-47 19q-28 0 -46.5 -19t-18.5 -45q0 -25 18.5 -44.5t46.5 -19.5zM454 772q28 0 46.5 19.5t18.5 44.5q0 26 -18.5 45t-46.5 19q-29 0 -47 -19t-18 -45q0 -25 18 -44.5t47 -19.5z" />
    <glyph glyph-name="Yacute" unicode="&#xdd;" horiz-adv-x="644" 
d="M241 0h161q-3 6 -5 15t-4 19.5t-3.5 22t-3 24.5t-2 26t-1.5 26.5t-1.5 26t-0.5 24.5v22v63l172 281q25 42 50.5 83t43.5 67h-139q1 -25 -12.5 -61t-35.5 -73l-123 -208l-124 208q-22 37 -36.5 73t-13.5 61h-167q19 -26 44.5 -67t50.5 -83l171 -281v-63v-22t-0.5 -24.5
t-1.5 -26t-2 -26.5l-2 -26t-2.5 -24.5t-3.5 -22t-4 -19.5t-5 -15zM284 759h60l148 147h-125z" />
    <glyph glyph-name="Thorn" unicode="&#xde;" horiz-adv-x="589" 
d="M63 0h158q-8 19 -12.5 58t-5.5 78h95q118 0 189.5 60t71.5 158q0 94 -69 152t-188 58h-99q1 39 5.5 78t12.5 58h-158q3 -6 5 -14t3.5 -17.5t3 -20.5t3 -22.5t2.5 -24t1.5 -24.5t1 -23.5t0.5 -22.5v-21v-320v-21t-0.5 -22.5t-1 -23.5t-1.5 -24.5t-2.5 -24t-3 -22.5
t-3 -20.5t-4 -17.5t-4.5 -14zM291 482q69 0 109.5 -36t40.5 -96q0 -62 -40.5 -98t-110.5 -36h-88v266h89z" />
    <glyph glyph-name="germandbls" unicode="&#xdf;" horiz-adv-x="647" 
d="M423 -9q83 0 138.5 50.5t55.5 126.5q0 59 -37 110.5t-112 98.5l-30 18q47 40 75.5 83t28.5 90q0 72 -57.5 118.5t-151.5 46.5q-101 0 -164 -62t-63 -167v-6h-90l-16 -70h106v-262v-21t-0.5 -22.5t-1.5 -23l-2 -23t-2 -22.5t-3 -21t-4 -18t-4 -15h133q-1 7 -1.5 15.5
t-0.5 18t-0.5 21t-0.5 23t-0.5 23t-0.5 23v22.5v21v353q0 63 31.5 101.5t84.5 38.5q46 0 76 -28.5t30 -75.5q0 -44 -28 -90t-95 -104l81 -53q54 -36 81 -69.5t27 -71.5q0 -46 -28.5 -74.5t-79.5 -28.5q-28 0 -58 11t-57 33l16 -94q28 -13 56 -18.5t68 -5.5z" />
    <glyph glyph-name="agrave" unicode="&#xe0;" horiz-adv-x="510" 
d="M174 -10q50 0 92.5 29.5t68.5 70.5q1 -26 3.5 -53.5t6.5 -42.5l119 13q-10 21 -15.5 61t-5.5 69v193q0 85 -49 131.5t-142 46.5q-45 0 -90.5 -11t-85.5 -31l-13 -86q49 28 89 40.5t77 12.5q49 0 77 -25t28 -78v-37l-137 -24q-82 -14 -123.5 -51.5t-41.5 -95.5t39.5 -95
t102.5 -37zM139 129q0 29 19.5 49.5t63.5 29.5l112 23v-97q-21 -28 -53.5 -49t-66.5 -21q-35 0 -55 18t-20 47zM235 557h60l-85 167h-127z" />
    <glyph glyph-name="aacute" unicode="&#xe1;" horiz-adv-x="510" 
d="M174 -10q50 0 92.5 29.5t68.5 70.5q1 -26 3.5 -53.5t6.5 -42.5l119 13q-10 21 -15.5 61t-5.5 69v193q0 85 -49 131.5t-142 46.5q-45 0 -90.5 -11t-85.5 -31l-13 -86q49 28 89 40.5t77 12.5q49 0 77 -25t28 -78v-37l-137 -24q-82 -14 -123.5 -51.5t-41.5 -95.5t39.5 -95
t102.5 -37zM139 129q0 29 19.5 49.5t63.5 29.5l112 23v-97q-21 -28 -53.5 -49t-66.5 -21q-35 0 -55 18t-20 47zM191 557h59l152 167h-126z" />
    <glyph glyph-name="acircumflex" unicode="&#xe2;" horiz-adv-x="510" 
d="M174 -10q50 0 92.5 29.5t68.5 70.5q1 -26 3.5 -53.5t6.5 -42.5l119 13q-10 21 -15.5 61t-5.5 69v193q0 85 -49 131.5t-142 46.5q-45 0 -90.5 -11t-85.5 -31l-13 -86q49 28 89 40.5t77 12.5q49 0 77 -25t28 -78v-37l-137 -24q-82 -14 -123.5 -51.5t-41.5 -95.5t39.5 -95
t102.5 -37zM139 129q0 29 19.5 49.5t63.5 29.5l112 23v-97q-21 -28 -53.5 -49t-66.5 -21q-35 0 -55 18t-20 47zM80 557h54l109 102l108 -102h55l-115 167h-96z" />
    <glyph glyph-name="atilde" unicode="&#xe3;" horiz-adv-x="510" 
d="M174 -10q50 0 92.5 29.5t68.5 70.5q1 -26 3.5 -53.5t6.5 -42.5l119 13q-10 21 -15.5 61t-5.5 69v193q0 85 -49 131.5t-142 46.5q-45 0 -90.5 -11t-85.5 -31l-13 -86q49 28 89 40.5t77 12.5q49 0 77 -25t28 -78v-37l-137 -24q-82 -14 -123.5 -51.5t-41.5 -95.5t39.5 -95
t102.5 -37zM139 129q0 29 19.5 49.5t63.5 29.5l112 23v-97q-21 -28 -53.5 -49t-66.5 -21q-35 0 -55 18t-20 47zM84 569h25q13 34 27 50.5t33 16.5q7 0 13.5 -2.5t14 -6t15 -8.5t15.5 -10.5t16.5 -11.5t17 -11t17 -8.5t18 -6t18.5 -2.5q34 0 59.5 33.5t41.5 105.5h-25
q-13 -34 -27 -51t-33 -17q-6 0 -12.5 2t-13 5t-13 7.5t-14 9.5t-14.5 10t-14.5 10t-15.5 9.5t-16 7.5t-16 5t-16 2q-34 0 -60 -33.5t-41 -105.5z" />
    <glyph glyph-name="adieresis" unicode="&#xe4;" horiz-adv-x="510" 
d="M174 -10q50 0 92.5 29.5t68.5 70.5q1 -26 3.5 -53.5t6.5 -42.5l119 13q-10 21 -15.5 61t-5.5 69v193q0 85 -49 131.5t-142 46.5q-45 0 -90.5 -11t-85.5 -31l-13 -86q49 28 89 40.5t77 12.5q49 0 77 -25t28 -78v-37l-137 -24q-82 -14 -123.5 -51.5t-41.5 -95.5t39.5 -95
t102.5 -37zM139 129q0 29 19.5 49.5t63.5 29.5l112 23v-97q-21 -28 -53.5 -49t-66.5 -21q-35 0 -55 18t-20 47zM151 577q29 0 47 19.5t18 44.5t-18 44.5t-47 19.5q-28 0 -46.5 -19.5t-18.5 -44.5t18.5 -44.5t46.5 -19.5zM335 577q28 0 46.5 19.5t18.5 44.5t-18.5 44.5
t-46.5 19.5q-29 0 -47 -19.5t-18 -44.5t18 -44.5t47 -19.5z" />
    <glyph glyph-name="aring" unicode="&#xe5;" horiz-adv-x="510" 
d="M174 -10q50 0 92.5 29.5t68.5 70.5q1 -26 3.5 -53.5t6.5 -42.5l119 13q-10 21 -15.5 61t-5.5 69v193q0 85 -49 131.5t-142 46.5q-45 0 -90.5 -11t-85.5 -31l-13 -86q49 28 89 40.5t77 12.5q49 0 77 -25t28 -78v-37l-137 -24q-82 -14 -123.5 -51.5t-41.5 -95.5t39.5 -95
t102.5 -37zM139 129q0 29 19.5 49.5t63.5 29.5l112 23v-97q-21 -28 -53.5 -49t-66.5 -21q-35 0 -55 18t-20 47zM243 564q49 0 79.5 30t30.5 73t-30.5 73.5t-79.5 30.5t-79.5 -30.5t-30.5 -73.5t30.5 -73t79.5 -30zM243 611q-25 0 -41.5 16.5t-16.5 39.5q0 24 16.5 40.5
t41.5 16.5t41.5 -16.5t16.5 -40.5q0 -23 -16.5 -39.5t-41.5 -16.5z" />
    <glyph glyph-name="ae" unicode="&#xe6;" horiz-adv-x="819" 
d="M182 -10q58 0 109 27t88 76q33 -48 87 -75.5t123 -27.5q44 0 88.5 12.5t74.5 32.5l10 82q-35 -25 -75 -39t-80 -14q-69 0 -113 45t-49 126h342q1 124 -60 199t-163 75q-48 0 -88 -19t-68 -52q-20 34 -59.5 52t-96.5 18q-45 0 -90.5 -11t-85.5 -31l-13 -87q49 28 89 41
t77 13q49 0 77 -25t28 -78v-36l-137 -24q-82 -14 -123.5 -51.5t-41.5 -96.5q0 -58 40.5 -95t109.5 -37zM564 434q45 0 76.5 -32.5t40.5 -97.5h-234q8 60 39 95t78 35zM139 130q0 29 19.5 50.5t62.5 29.5l113 23q1 -23 6 -45.5t12 -41.5q-28 -37 -64.5 -59.5t-73.5 -22.5
q-35 0 -55 18t-20 48z" />
    <glyph glyph-name="ccedilla" unicode="&#xe7;" horiz-adv-x="457" 
d="M253 -213q51 0 83 24.5t32 64.5q0 33 -26.5 54t-66.5 21h-6t-6 -1l22 40q39 1 76 13t64 30l10 84q-28 -23 -62.5 -38t-71.5 -15q-69 0 -113.5 49t-44.5 132t42.5 135t108.5 52q39 0 74 -17.5t63 -45.5l-17 118q-30 -1 -61.5 9.5t-80.5 10.5q-22 0 -43 -4t-41 -11.5
t-38 -18.5t-33.5 -25.5t-29 -31.5t-24 -36.5t-18 -41t-11.5 -45.5t-4 -49q0 -99 56.5 -168.5t150.5 -82.5l-47 -88l5 -4q10 3 23 4.5t26 1.5q22 0 36.5 -8.5t14.5 -22.5q0 -15 -15 -24t-41 -9q-23 0 -46 6t-42 16l6 -60q17 -7 43.5 -12.5t52.5 -5.5z" />
    <glyph glyph-name="egrave" unicode="&#xe8;" horiz-adv-x="514" 
d="M287 -10q44 0 88.5 12.5t73.5 32.5l11 82q-35 -25 -75 -39t-80 -14q-70 0 -114 45t-49 126h342q2 124 -59.5 199t-162.5 75q-23 0 -44.5 -4t-40.5 -12t-36.5 -19t-32 -25.5t-27 -31.5t-22 -36t-16 -40.5t-10 -44.5t-3.5 -47q0 -29 4.5 -55t14 -50t22.5 -44.5t30 -37.5
t37.5 -30.5t44 -22.5t49.5 -14t55 -5zM262 434q44 0 76 -32.5t41 -97.5h-235q9 60 40 95t78 35zM251 557h60l-85 167h-127z" />
    <glyph glyph-name="eacute" unicode="&#xe9;" horiz-adv-x="514" 
d="M287 -10q44 0 88.5 12.5t73.5 32.5l11 82q-35 -25 -75 -39t-80 -14q-70 0 -114 45t-49 126h342q2 124 -59.5 199t-162.5 75q-23 0 -44.5 -4t-40.5 -12t-36.5 -19t-32 -25.5t-27 -31.5t-22 -36t-16 -40.5t-10 -44.5t-3.5 -47q0 -29 4.5 -55t14 -50t22.5 -44.5t30 -37.5
t37.5 -30.5t44 -22.5t49.5 -14t55 -5zM262 434q44 0 76 -32.5t41 -97.5h-235q9 60 40 95t78 35zM207 557h59l152 167h-126z" />
    <glyph glyph-name="ecircumflex" unicode="&#xea;" horiz-adv-x="514" 
d="M287 -10q44 0 88.5 12.5t73.5 32.5l11 82q-35 -25 -75 -39t-80 -14q-70 0 -114 45t-49 126h342q2 124 -59.5 199t-162.5 75q-23 0 -44.5 -4t-40.5 -12t-36.5 -19t-32 -25.5t-27 -31.5t-22 -36t-16 -40.5t-10 -44.5t-3.5 -47q0 -29 4.5 -55t14 -50t22.5 -44.5t30 -37.5
t37.5 -30.5t44 -22.5t49.5 -14t55 -5zM262 434q44 0 76 -32.5t41 -97.5h-235q9 60 40 95t78 35zM96 557h54l109 102l108 -102h55l-115 167h-96z" />
    <glyph glyph-name="edieresis" unicode="&#xeb;" horiz-adv-x="514" 
d="M287 -10q44 0 88.5 12.5t73.5 32.5l11 82q-35 -25 -75 -39t-80 -14q-70 0 -114 45t-49 126h342q2 124 -59.5 199t-162.5 75q-23 0 -44.5 -4t-40.5 -12t-36.5 -19t-32 -25.5t-27 -31.5t-22 -36t-16 -40.5t-10 -44.5t-3.5 -47q0 -29 4.5 -55t14 -50t22.5 -44.5t30 -37.5
t37.5 -30.5t44 -22.5t49.5 -14t55 -5zM262 434q44 0 76 -32.5t41 -97.5h-235q9 60 40 95t78 35zM167 577q29 0 47 19.5t18 44.5t-18 44.5t-47 19.5q-28 0 -46.5 -19.5t-18.5 -44.5t18.5 -44.5t46.5 -19.5zM351 577q28 0 46.5 19.5t18.5 44.5t-18.5 44.5t-46.5 19.5
q-29 0 -47 -19.5t-18 -44.5t18 -44.5t47 -19.5z" />
    <glyph glyph-name="igrave" unicode="&#xec;" horiz-adv-x="250" 
d="M52 0h146q-2 7 -4.5 15t-4 18t-3 21t-2.5 22.5l-2 23t-1.5 23t-0.5 22.5v21v337l-131 -22q3 -6 5.5 -14.5t4.5 -18t3.5 -20t2.5 -22t2 -22.5t1.5 -22.5t0.5 -22v-19.5v-154v-21t-0.5 -22.5t-1.5 -23l-2 -23t-2 -22.5t-3 -21t-4 -18t-4 -15zM117 557h60l-85 167h-127z" />
    <glyph glyph-name="iacute" unicode="&#xed;" horiz-adv-x="250" 
d="M52 0h146q-2 7 -4.5 15t-4 18t-3 21t-2.5 22.5l-2 23t-1.5 23t-0.5 22.5v21v337l-131 -22q3 -6 5.5 -14.5t4.5 -18t3.5 -20t2.5 -22t2 -22.5t1.5 -22.5t0.5 -22v-19.5v-154v-21t-0.5 -22.5t-1.5 -23l-2 -23t-2 -22.5t-3 -21t-4 -18t-4 -15zM73 557h59l152 167h-126z" />
    <glyph glyph-name="icircumflex" unicode="&#xee;" horiz-adv-x="250" 
d="M52 0h146q-2 7 -4.5 15t-4 18t-3 21t-2.5 22.5l-2 23t-1.5 23t-0.5 22.5v21v337l-131 -22q3 -6 5.5 -14.5t4.5 -18t3.5 -20t2.5 -22t2 -22.5t1.5 -22.5t0.5 -22v-19.5v-154v-21t-0.5 -22.5t-1.5 -23l-2 -23t-2 -22.5t-3 -21t-4 -18t-4 -15zM-38 557h54l109 102l108 -102
h55l-115 167h-96z" />
    <glyph glyph-name="idieresis" unicode="&#xef;" horiz-adv-x="250" 
d="M52 0h146q-2 7 -4.5 15t-4 18t-3 21t-2.5 22.5l-2 23t-1.5 23t-0.5 22.5v21v337l-131 -22q3 -6 5.5 -14.5t4.5 -18t3.5 -20t2.5 -22t2 -22.5t1.5 -22.5t0.5 -22v-19.5v-154v-21t-0.5 -22.5t-1.5 -23l-2 -23t-2 -22.5t-3 -21t-4 -18t-4 -15zM33 577q29 0 47 19.5t18 44.5
t-18 44.5t-47 19.5q-28 0 -46.5 -19.5t-18.5 -44.5t18.5 -44.5t46.5 -19.5zM217 577q28 0 46.5 19.5t18.5 44.5t-18.5 44.5t-46.5 19.5q-29 0 -47 -19.5t-18 -44.5t18 -44.5t47 -19.5z" />
    <glyph glyph-name="eth" unicode="&#xf0;" horiz-adv-x="551" 
d="M275 -10q27 0 51.5 5t47 15t42.5 25t36.5 34t29.5 41.5t22 49.5t13.5 57t4.5 63q0 90 -39.5 180t-116.5 160l80 32v54l-125 -50q-32 22 -69 41.5t-79 32.5l-42 -18q36 -18 67 -38.5t58 -43.5l-78 -31v-55l117 47q34 -37 57.5 -79.5t36.5 -90.5q-26 38 -62.5 58.5
t-79.5 20.5q-21 0 -40.5 -4t-37.5 -11.5t-34 -18.5t-30 -24.5t-25.5 -30t-21 -35.5t-15.5 -39.5t-9.5 -42.5t-3.5 -46q0 -28 4.5 -54t13.5 -49.5t22 -44t29.5 -37.5t36 -30.5t41.5 -23t47 -14.5t51 -5zM144 248q0 85 35.5 134.5t95.5 49.5q39 0 71.5 -20t56.5 -54
q3 -19 4.5 -40t1.5 -43q0 -104 -37 -157.5t-97 -53.5q-58 0 -94.5 49.5t-36.5 134.5z" />
    <glyph glyph-name="ntilde" unicode="&#xf1;" horiz-adv-x="558" 
d="M52 0h145q-2 6 -4 14.5t-4 18t-3 20.5t-2 22.5l-2 23t-1.5 22.5t-0.5 22v20v204q25 28 52 44.5t58 16.5q40 0 65.5 -26t25.5 -75v-164v-20t-0.5 -22t-1.5 -22.5t-1.5 -23t-2 -22.5t-3 -20.5t-3.5 -18t-4 -14.5h145q-3 6 -5 14.5t-3.5 18.5t-3 21t-2.5 22.5l-2 23t-1.5 23
t-0.5 22.5v21v177q0 77 -42.5 121.5t-111.5 44.5q-49 0 -90 -26t-68 -68v88l-131 -22q3 -6 5.5 -14t4.5 -18t3.5 -20.5t2.5 -21.5t2 -22.5t1.5 -22.5t0.5 -21v-19v-156v-21t-0.5 -22.5t-1.5 -23l-2 -23t-2 -22.5t-3 -21t-4 -18.5t-4 -14.5zM122 569h25q13 34 27 50.5
t33 16.5q7 0 13.5 -2.5t14 -6t15 -8.5t15.5 -10.5t16.5 -11.5t17 -11t17 -8.5t18 -6t18.5 -2.5q34 0 59.5 33.5t41.5 105.5h-25q-13 -34 -27 -51t-33 -17q-6 0 -12.5 2t-13 5t-13 7.5t-14 9.5t-14.5 10t-14.5 10t-15.5 9.5t-16 7.5t-16 5t-16 2q-34 0 -60 -33.5t-41 -105.5z
" />
    <glyph glyph-name="ograve" unicode="&#xf2;" horiz-adv-x="549" 
d="M275 -10q26 0 50.5 5t46.5 14.5t41.5 23t36 31t29.5 38t22 44t13.5 50t4.5 54.5t-4.5 54t-13.5 49.5t-22 44t-29.5 38t-36 31t-41.5 23t-46.5 14.5t-50.5 5q-23 0 -45 -4t-42.5 -11.5t-38.5 -18.5t-34 -25t-29 -31t-23.5 -36.5t-17.5 -41t-11 -45t-4 -48.5q0 -28 4.5 -54
t13.5 -49.5t22 -44t29.5 -37.5t36 -30.5t41.5 -23t47 -14.5t51 -5zM275 64q-58 0 -94.5 49t-36.5 135t36.5 135.5t93.5 49.5q58 0 94.5 -49.5t36.5 -135.5t-36 -135t-94 -49zM266 557h60l-85 167h-127z" />
    <glyph glyph-name="oacute" unicode="&#xf3;" horiz-adv-x="549" 
d="M275 -10q26 0 50.5 5t46.5 14.5t41.5 23t36 31t29.5 38t22 44t13.5 50t4.5 54.5t-4.5 54t-13.5 49.5t-22 44t-29.5 38t-36 31t-41.5 23t-46.5 14.5t-50.5 5q-23 0 -45 -4t-42.5 -11.5t-38.5 -18.5t-34 -25t-29 -31t-23.5 -36.5t-17.5 -41t-11 -45t-4 -48.5q0 -28 4.5 -54
t13.5 -49.5t22 -44t29.5 -37.5t36 -30.5t41.5 -23t47 -14.5t51 -5zM275 64q-58 0 -94.5 49t-36.5 135t36.5 135.5t93.5 49.5q58 0 94.5 -49.5t36.5 -135.5t-36 -135t-94 -49zM222 557h59l152 167h-126z" />
    <glyph glyph-name="ocircumflex" unicode="&#xf4;" horiz-adv-x="549" 
d="M275 -10q26 0 50.5 5t46.5 14.5t41.5 23t36 31t29.5 38t22 44t13.5 50t4.5 54.5t-4.5 54t-13.5 49.5t-22 44t-29.5 38t-36 31t-41.5 23t-46.5 14.5t-50.5 5q-23 0 -45 -4t-42.5 -11.5t-38.5 -18.5t-34 -25t-29 -31t-23.5 -36.5t-17.5 -41t-11 -45t-4 -48.5q0 -28 4.5 -54
t13.5 -49.5t22 -44t29.5 -37.5t36 -30.5t41.5 -23t47 -14.5t51 -5zM275 64q-58 0 -94.5 49t-36.5 135t36.5 135.5t93.5 49.5q58 0 94.5 -49.5t36.5 -135.5t-36 -135t-94 -49zM111 557h54l109 102l108 -102h55l-115 167h-96z" />
    <glyph glyph-name="otilde" unicode="&#xf5;" horiz-adv-x="549" 
d="M275 -10q26 0 50.5 5t46.5 14.5t41.5 23t36 31t29.5 38t22 44t13.5 50t4.5 54.5t-4.5 54t-13.5 49.5t-22 44t-29.5 38t-36 31t-41.5 23t-46.5 14.5t-50.5 5q-23 0 -45 -4t-42.5 -11.5t-38.5 -18.5t-34 -25t-29 -31t-23.5 -36.5t-17.5 -41t-11 -45t-4 -48.5q0 -28 4.5 -54
t13.5 -49.5t22 -44t29.5 -37.5t36 -30.5t41.5 -23t47 -14.5t51 -5zM275 64q-58 0 -94.5 49t-36.5 135t36.5 135.5t93.5 49.5q58 0 94.5 -49.5t36.5 -135.5t-36 -135t-94 -49zM115 569h25q13 34 27 50.5t33 16.5q7 0 13.5 -2.5t14 -6t15 -8.5t15.5 -10.5t16.5 -11.5t17 -11
t17 -8.5t18 -6t18.5 -2.5q34 0 59.5 33.5t41.5 105.5h-25q-13 -34 -27 -51t-33 -17q-6 0 -12.5 2t-13 5t-13 7.5t-14 9.5t-14.5 10t-14.5 10t-15.5 9.5t-16 7.5t-16 5t-16 2q-34 0 -60 -33.5t-41 -105.5z" />
    <glyph glyph-name="odieresis" unicode="&#xf6;" horiz-adv-x="549" 
d="M275 -10q26 0 50.5 5t46.5 14.5t41.5 23t36 31t29.5 38t22 44t13.5 50t4.5 54.5t-4.5 54t-13.5 49.5t-22 44t-29.5 38t-36 31t-41.5 23t-46.5 14.5t-50.5 5q-23 0 -45 -4t-42.5 -11.5t-38.5 -18.5t-34 -25t-29 -31t-23.5 -36.5t-17.5 -41t-11 -45t-4 -48.5q0 -28 4.5 -54
t13.5 -49.5t22 -44t29.5 -37.5t36 -30.5t41.5 -23t47 -14.5t51 -5zM275 64q-58 0 -94.5 49t-36.5 135t36.5 135.5t93.5 49.5q58 0 94.5 -49.5t36.5 -135.5t-36 -135t-94 -49zM182 577q29 0 47 19.5t18 44.5t-18 44.5t-47 19.5q-28 0 -46.5 -19.5t-18.5 -44.5t18.5 -44.5
t46.5 -19.5zM366 577q28 0 46.5 19.5t18.5 44.5t-18.5 44.5t-46.5 19.5q-29 0 -47 -19.5t-18 -44.5t18 -44.5t47 -19.5z" />
    <glyph glyph-name="divide" unicode="&#xf7;" horiz-adv-x="602" 
d="M301 475q24 0 41.5 16.5t17.5 41.5q0 24 -17.5 40.5t-41.5 16.5t-40.5 -16.5t-16.5 -40.5q0 -25 16.5 -41.5t40.5 -16.5zM74 320h454v60h-454v-60zM301 110q24 0 41.5 16.5t17.5 40.5q0 25 -17.5 41.5t-41.5 16.5t-40.5 -16.5t-16.5 -41.5q0 -24 16.5 -40.5t40.5 -16.5z
" />
    <glyph glyph-name="oslash" unicode="&#xf8;" horiz-adv-x="549" 
d="M18 0h82l30 36q30 -22 67 -34t78 -12q26 0 50.5 5t46.5 14.5t41.5 23t36 31t29.5 38t22 44t13.5 50t4.5 54.5q0 49 -14.5 92.5t-40.5 76.5l67 79h-81l-30 -36q-30 22 -67 34.5t-78 12.5q-23 0 -45 -4t-42.5 -11.5t-38.5 -18.5t-34 -25t-29 -31t-23.5 -36.5t-17.5 -41
t-11 -45t-4 -48.5q0 -50 15 -93t41 -76zM144 248q0 86 36.5 135.5t93.5 49.5q25 0 47 -9.5t38 -27.5l-201 -240q-7 19 -10.5 42.5t-3.5 49.5zM275 64q-25 0 -46.5 9.5t-37.5 26.5l200 239q7 -19 10.5 -42t3.5 -49q0 -86 -36 -135t-94 -49z" />
    <glyph glyph-name="ugrave" unicode="&#xf9;" horiz-adv-x="558" 
d="M219 -11q50 0 91 26t68 67v-87l131 13q-3 6 -5.5 14.5t-4.5 18t-3.5 20t-2.5 21.5t-2 22.5t-1.5 22.5t-0.5 21v19v336l-132 -22q3 -6 5.5 -14.5t5 -18t4 -20t2.5 -21.5l2 -22t1.5 -22t0.5 -21.5v-19.5v-191q-23 -28 -50.5 -45t-59.5 -17q-39 0 -64.5 26t-25.5 75v333
l-132 -22q3 -6 5.5 -14.5t4.5 -18t3.5 -20t2.5 -21.5l2 -22t1.5 -22t0.5 -21.5v-19.5v-167q0 -78 42.5 -122t110.5 -44zM270 557h60l-85 167h-127z" />
    <glyph glyph-name="uacute" unicode="&#xfa;" horiz-adv-x="558" 
d="M219 -11q50 0 91 26t68 67v-87l131 13q-3 6 -5.5 14.5t-4.5 18t-3.5 20t-2.5 21.5t-2 22.5t-1.5 22.5t-0.5 21v19v336l-132 -22q3 -6 5.5 -14.5t5 -18t4 -20t2.5 -21.5l2 -22t1.5 -22t0.5 -21.5v-19.5v-191q-23 -28 -50.5 -45t-59.5 -17q-39 0 -64.5 26t-25.5 75v333
l-132 -22q3 -6 5.5 -14.5t4.5 -18t3.5 -20t2.5 -21.5l2 -22t1.5 -22t0.5 -21.5v-19.5v-167q0 -78 42.5 -122t110.5 -44zM226 557h59l152 167h-126z" />
    <glyph glyph-name="ucircumflex" unicode="&#xfb;" horiz-adv-x="558" 
d="M219 -11q50 0 91 26t68 67v-87l131 13q-3 6 -5.5 14.5t-4.5 18t-3.5 20t-2.5 21.5t-2 22.5t-1.5 22.5t-0.5 21v19v336l-132 -22q3 -6 5.5 -14.5t5 -18t4 -20t2.5 -21.5l2 -22t1.5 -22t0.5 -21.5v-19.5v-191q-23 -28 -50.5 -45t-59.5 -17q-39 0 -64.5 26t-25.5 75v333
l-132 -22q3 -6 5.5 -14.5t4.5 -18t3.5 -20t2.5 -21.5l2 -22t1.5 -22t0.5 -21.5v-19.5v-167q0 -78 42.5 -122t110.5 -44zM115 557h54l109 102l108 -102h55l-115 167h-96z" />
    <glyph glyph-name="udieresis" unicode="&#xfc;" horiz-adv-x="558" 
d="M219 -11q50 0 91 26t68 67v-87l131 13q-3 6 -5.5 14.5t-4.5 18t-3.5 20t-2.5 21.5t-2 22.5t-1.5 22.5t-0.5 21v19v336l-132 -22q3 -6 5.5 -14.5t5 -18t4 -20t2.5 -21.5l2 -22t1.5 -22t0.5 -21.5v-19.5v-191q-23 -28 -50.5 -45t-59.5 -17q-39 0 -64.5 26t-25.5 75v333
l-132 -22q3 -6 5.5 -14.5t4.5 -18t3.5 -20t2.5 -21.5l2 -22t1.5 -22t0.5 -21.5v-19.5v-167q0 -78 42.5 -122t110.5 -44zM186 577q29 0 47 19.5t18 44.5t-18 44.5t-47 19.5q-28 0 -46.5 -19.5t-18.5 -44.5t18.5 -44.5t46.5 -19.5zM370 577q28 0 46.5 19.5t18.5 44.5
t-18.5 44.5t-46.5 19.5q-29 0 -47 -19.5t-18 -44.5t18 -44.5t47 -19.5z" />
    <glyph glyph-name="yacute" unicode="&#xfd;" horiz-adv-x="506" 
d="M98 -207q57 0 98.5 31t68.5 96l175 425q18 43 36 84t32 69h-119q1 -27 -8.5 -63.5t-24.5 -75.5l-89 -227l-91 227q-16 39 -25.5 75.5t-8.5 63.5h-144q14 -28 31.5 -69t35.5 -84l143 -339l-23 -54q-17 -40 -39 -58t-55 -18q-19 0 -34.5 5t-31.5 12l9 -86q13 -6 29.5 -10
t34.5 -4zM219 557h59l152 167h-126z" />
    <glyph glyph-name="thorn" unicode="&#xfe;" horiz-adv-x="561" 
d="M50 -200h146q-2 7 -4 15t-4 18t-3 21t-2 22.5l-2 23t-1.5 23t-0.5 22.5v21v86q25 -31 59.5 -46.5t72.5 -15.5q23 0 44.5 5t41 14.5t37 23t32.5 30.5t26.5 38t20 45t13 51t4.5 56t-4 55.5t-11.5 50t-18 43.5t-24 36.5t-29.5 29.5t-34 22t-37.5 13.5t-40.5 4.5
q-45 0 -85.5 -23t-66.5 -64v304l-132 -21q3 -6 5.5 -14.5t4.5 -18t3.5 -20t3 -21.5t2 -22l1 -22t1 -21.5t0.5 -19.5v-579v-21t-0.5 -22.5t-1.5 -23l-2 -23t-2.5 -22.5t-3 -21t-3.5 -18t-5 -15zM291 432q55 0 90.5 -49t35.5 -132q0 -84 -37.5 -134.5t-95.5 -50.5
q-30 0 -57 13t-48 37v253q24 31 52.5 47t59.5 16z" />
    <glyph glyph-name="ydieresis" unicode="&#xff;" horiz-adv-x="506" 
d="M98 -207q57 0 98.5 31t68.5 96l175 425q18 43 36 84t32 69h-119q1 -27 -8.5 -63.5t-24.5 -75.5l-89 -227l-91 227q-16 39 -25.5 75.5t-8.5 63.5h-144q14 -28 31.5 -69t35.5 -84l143 -339l-23 -54q-17 -40 -39 -58t-55 -18q-19 0 -34.5 5t-31.5 12l9 -86q13 -6 29.5 -10
t34.5 -4zM179 577q29 0 47 19.5t18 44.5t-18 44.5t-47 19.5q-28 0 -46.5 -19.5t-18.5 -44.5t18.5 -44.5t46.5 -19.5zM363 577q28 0 46.5 19.5t18.5 44.5t-18.5 44.5t-46.5 19.5q-29 0 -47 -19.5t-18 -44.5t18 -44.5t47 -19.5z" />
    <glyph glyph-name="Amacron" unicode="&#x100;" horiz-adv-x="653" 
d="M495 0h162q-4 7 -9 17t-11 21t-12 24t-12.5 26t-13 27t-13 27.5t-12.5 26.5t-11 25l-236 524l-237 -524q-5 -12 -11 -25t-12.5 -26.5t-13 -27.5t-13 -27t-12.5 -26t-12 -24t-11 -21t-9 -17h138q0 7 0.5 16t2.5 19t4.5 21t5.5 22.5t7 23.5l8 24t8 23.5t8 21.5h271
q4 -10 8.5 -21.5t8.5 -23.5l8 -24t7.5 -23.5t6 -22.5t4.5 -21t2.5 -19t0.5 -16zM211 249l103 241l102 -241h-205zM183 793h280v68h-280v-68z" />
    <glyph glyph-name="amacron" unicode="&#x101;" horiz-adv-x="510" 
d="M174 -10q50 0 92.5 29.5t68.5 70.5q1 -26 3.5 -53.5t6.5 -42.5l119 13q-10 21 -15.5 61t-5.5 69v193q0 85 -49 131.5t-142 46.5q-45 0 -90.5 -11t-85.5 -31l-13 -86q49 28 89 40.5t77 12.5q49 0 77 -25t28 -78v-37l-137 -24q-82 -14 -123.5 -51.5t-41.5 -95.5t39.5 -95
t102.5 -37zM139 129q0 29 19.5 49.5t63.5 29.5l112 23v-97q-21 -28 -53.5 -49t-66.5 -21q-35 0 -55 18t-20 47zM103 598h280v68h-280v-68z" />
    <glyph glyph-name="Abreve" unicode="&#x102;" horiz-adv-x="653" 
d="M495 0h162q-4 7 -9 17t-11 21t-12 24t-12.5 26t-13 27t-13 27.5t-12.5 26.5t-11 25l-236 524l-237 -524q-5 -12 -11 -25t-12.5 -26.5t-13 -27.5t-13 -27t-12.5 -26t-12 -24t-11 -21t-9 -17h138q0 7 0.5 16t2.5 19t4.5 21t5.5 22.5t7 23.5l8 24t8 23.5t8 21.5h271
q4 -10 8.5 -21.5t8.5 -23.5l8 -24t7.5 -23.5t6 -22.5t4.5 -21t2.5 -19t0.5 -16zM211 249l103 241l102 -241h-205zM323 757q64 0 105.5 38t46.5 105h-15q-16 -34 -51 -52.5t-86 -18.5t-86 18.5t-51 52.5h-15q5 -67 46.5 -105t105.5 -38z" />
    <glyph glyph-name="abreve" unicode="&#x103;" horiz-adv-x="510" 
d="M174 -10q50 0 92.5 29.5t68.5 70.5q1 -26 3.5 -53.5t6.5 -42.5l119 13q-10 21 -15.5 61t-5.5 69v193q0 85 -49 131.5t-142 46.5q-45 0 -90.5 -11t-85.5 -31l-13 -86q49 28 89 40.5t77 12.5q49 0 77 -25t28 -78v-37l-137 -24q-82 -14 -123.5 -51.5t-41.5 -95.5t39.5 -95
t102.5 -37zM139 129q0 29 19.5 49.5t63.5 29.5l112 23v-97q-21 -28 -53.5 -49t-66.5 -21q-35 0 -55 18t-20 47zM243 556q63 0 103.5 42t46.5 119h-16q-18 -40 -51 -65t-83 -25t-83 25t-51 65h-16q6 -77 46.5 -119t103.5 -42z" />
    <glyph glyph-name="Aogonek" unicode="&#x104;" horiz-adv-x="653" 
d="M588 -208q16 0 33 3.5t30 7.5l14 61q-10 -4 -23 -7t-24 -3q-22 0 -35 11t-13 30q0 22 22.5 49t63.5 56h1q-4 7 -9 17t-11 21t-12 24t-12.5 26t-13 27t-13 27.5t-12.5 26.5t-11 25l-236 524l-237 -524q-5 -12 -11 -25t-12.5 -26.5t-13 -27.5t-13 -27t-12.5 -26t-12 -24
t-11 -21t-9 -17h138q0 7 0.5 16t2.5 19t4.5 21t5.5 22.5t7 23.5l8 24t8 23.5t8 21.5h271q4 -10 8.5 -21.5t8.5 -23.5l8 -24t7.5 -23.5t6 -22.5t4.5 -21t2.5 -19t0.5 -16h124q-67 -32 -97.5 -64t-30.5 -67q0 -34 27 -55.5t70 -21.5zM211 249l103 241l102 -241h-205z" />
    <glyph glyph-name="aogonek" unicode="&#x105;" horiz-adv-x="510" 
d="M174 -10q50 0 92.5 29.5t68.5 70.5q1 -26 3.5 -53.5t6.5 -42.5l71 8q-61 -31 -89 -61.5t-28 -64.5t27 -55.5t70 -21.5q16 0 33 3.5t30 7.5l14 61q-10 -4 -23 -7t-24 -3q-22 0 -35 11t-13 30q0 22 22.5 49t63.5 56q-10 21 -15.5 61t-5.5 69v193q0 85 -49 131.5t-142 46.5
q-45 0 -90.5 -11t-85.5 -31l-13 -86q49 28 89 40.5t77 12.5q49 0 77 -25t28 -78v-37l-137 -24q-82 -14 -123.5 -51.5t-41.5 -95.5t39.5 -95t102.5 -37zM139 129q0 29 19.5 49.5t63.5 29.5l112 23v-97q-21 -28 -53.5 -49t-66.5 -21q-35 0 -55 18t-20 47z" />
    <glyph glyph-name="Cacute" unicode="&#x106;" horiz-adv-x="644" 
d="M35 344q0 -31 4.5 -60t13 -56t20.5 -51.5t28 -46t35 -40.5t41 -35t46.5 -28t51.5 -20.5t55.5 -13t59.5 -4.5q60 0 118 16.5t100 46.5l10 97q-43 -32 -96.5 -54.5t-113.5 -22.5q-26 0 -50.5 5t-47 14.5t-42.5 23.5t-36.5 32t-30 40t-22.5 47.5t-14 54t-5 59.5t4.5 59
t13.5 53.5t21.5 47.5t28.5 40.5t35 33t41 24.5t46.5 15t51.5 5q63 0 117 -26.5t97 -67.5l-21 141q-10 1 -20 2.5t-21 4.5t-22.5 6.5t-24 7t-26.5 6.5t-29 5.5t-32 4t-36 1.5q-29 0 -57 -4.5t-54.5 -13.5t-50.5 -22t-45.5 -29t-40.5 -36t-34.5 -42.5t-28 -48t-21 -53
t-13 -57.5t-4.5 -61zM327 759h60l148 147h-125z" />
    <glyph glyph-name="cacute" unicode="&#x107;" horiz-adv-x="457" 
d="M278 -10q41 0 80 12t67 31l10 84q-28 -23 -62.5 -38t-71.5 -15q-69 0 -113.5 49t-44.5 132t42.5 135t108.5 52q39 0 74 -17.5t63 -45.5l-17 118q-30 -1 -61.5 9.5t-80.5 10.5q-22 0 -43 -4t-41 -11.5t-38 -18.5t-33.5 -25.5t-29 -31.5t-24 -36.5t-18 -41t-11.5 -45.5
t-4 -49q0 -28 4.5 -53.5t13.5 -48.5t21.5 -43t28.5 -37t36 -30.5t42.5 -22.5t48 -14t53.5 -5zM206 557h59l152 167h-126z" />
    <glyph glyph-name="Ccircumflex" unicode="&#x108;" horiz-adv-x="644" 
d="M35 344q0 -31 4.5 -60t13 -56t20.5 -51.5t28 -46t35 -40.5t41 -35t46.5 -28t51.5 -20.5t55.5 -13t59.5 -4.5q60 0 118 16.5t100 46.5l10 97q-43 -32 -96.5 -54.5t-113.5 -22.5q-26 0 -50.5 5t-47 14.5t-42.5 23.5t-36.5 32t-30 40t-22.5 47.5t-14 54t-5 59.5t4.5 59
t13.5 53.5t21.5 47.5t28.5 40.5t35 33t41 24.5t46.5 15t51.5 5q63 0 117 -26.5t97 -67.5l-21 141q-10 1 -20 2.5t-21 4.5t-22.5 6.5t-24 7t-26.5 6.5t-29 5.5t-32 4t-36 1.5q-29 0 -57 -4.5t-54.5 -13.5t-50.5 -22t-45.5 -29t-40.5 -36t-34.5 -42.5t-28 -48t-21 -53
t-13 -57.5t-4.5 -61zM216 759h54l109 85l108 -85h55l-115 147h-96z" />
    <glyph glyph-name="ccircumflex" unicode="&#x109;" horiz-adv-x="457" 
d="M278 -10q41 0 80 12t67 31l10 84q-28 -23 -62.5 -38t-71.5 -15q-69 0 -113.5 49t-44.5 132t42.5 135t108.5 52q39 0 74 -17.5t63 -45.5l-17 118q-30 -1 -61.5 9.5t-80.5 10.5q-22 0 -43 -4t-41 -11.5t-38 -18.5t-33.5 -25.5t-29 -31.5t-24 -36.5t-18 -41t-11.5 -45.5
t-4 -49q0 -28 4.5 -53.5t13.5 -48.5t21.5 -43t28.5 -37t36 -30.5t42.5 -22.5t48 -14t53.5 -5zM95 557h54l109 102l108 -102h55l-115 167h-96z" />
    <glyph glyph-name="Cdotaccent" unicode="&#x10a;" horiz-adv-x="644" 
d="M35 344q0 -31 4.5 -60t13 -56t20.5 -51.5t28 -46t35 -40.5t41 -35t46.5 -28t51.5 -20.5t55.5 -13t59.5 -4.5q60 0 118 16.5t100 46.5l10 97q-43 -32 -96.5 -54.5t-113.5 -22.5q-26 0 -50.5 5t-47 14.5t-42.5 23.5t-36.5 32t-30 40t-22.5 47.5t-14 54t-5 59.5t4.5 59
t13.5 53.5t21.5 47.5t28.5 40.5t35 33t41 24.5t46.5 15t51.5 5q63 0 117 -26.5t97 -67.5l-21 141q-10 1 -20 2.5t-21 4.5t-22.5 6.5t-24 7t-26.5 6.5t-29 5.5t-32 4t-36 1.5q-29 0 -57 -4.5t-54.5 -13.5t-50.5 -22t-45.5 -29t-40.5 -36t-34.5 -42.5t-28 -48t-21 -53
t-13 -57.5t-4.5 -61zM379 771q29 0 48 19.5t19 45.5q0 27 -19 46.5t-48 19.5t-48 -19.5t-19 -46.5q0 -26 19 -45.5t48 -19.5z" />
    <glyph glyph-name="cdotaccent" unicode="&#x10b;" horiz-adv-x="457" 
d="M278 -10q41 0 80 12t67 31l10 84q-28 -23 -62.5 -38t-71.5 -15q-69 0 -113.5 49t-44.5 132t42.5 135t108.5 52q39 0 74 -17.5t63 -45.5l-17 118q-30 -1 -61.5 9.5t-80.5 10.5q-22 0 -43 -4t-41 -11.5t-38 -18.5t-33.5 -25.5t-29 -31.5t-24 -36.5t-18 -41t-11.5 -45.5
t-4 -49q0 -28 4.5 -53.5t13.5 -48.5t21.5 -43t28.5 -37t36 -30.5t42.5 -22.5t48 -14t53.5 -5zM258 576q29 0 48 19.5t19 45.5q0 27 -19 46.5t-48 19.5t-48 -19.5t-19 -46.5q0 -26 19 -45.5t48 -19.5z" />
    <glyph glyph-name="Ccaron" unicode="&#x10c;" horiz-adv-x="644" 
d="M35 344q0 -31 4.5 -60t13 -56t20.5 -51.5t28 -46t35 -40.5t41 -35t46.5 -28t51.5 -20.5t55.5 -13t59.5 -4.5q60 0 118 16.5t100 46.5l10 97q-43 -32 -96.5 -54.5t-113.5 -22.5q-26 0 -50.5 5t-47 14.5t-42.5 23.5t-36.5 32t-30 40t-22.5 47.5t-14 54t-5 59.5t4.5 59
t13.5 53.5t21.5 47.5t28.5 40.5t35 33t41 24.5t46.5 15t51.5 5q63 0 117 -26.5t97 -67.5l-21 141q-10 1 -20 2.5t-21 4.5t-22.5 6.5t-24 7t-26.5 6.5t-29 5.5t-32 4t-36 1.5q-29 0 -57 -4.5t-54.5 -13.5t-50.5 -22t-45.5 -29t-40.5 -36t-34.5 -42.5t-28 -48t-21 -53
t-13 -57.5t-4.5 -61zM331 759h96l115 147h-54l-108 -85l-109 85h-55z" />
    <glyph glyph-name="ccaron" unicode="&#x10d;" horiz-adv-x="457" 
d="M278 -10q41 0 80 12t67 31l10 84q-28 -23 -62.5 -38t-71.5 -15q-69 0 -113.5 49t-44.5 132t42.5 135t108.5 52q39 0 74 -17.5t63 -45.5l-17 118q-30 -1 -61.5 9.5t-80.5 10.5q-22 0 -43 -4t-41 -11.5t-38 -18.5t-33.5 -25.5t-29 -31.5t-24 -36.5t-18 -41t-11.5 -45.5
t-4 -49q0 -28 4.5 -53.5t13.5 -48.5t21.5 -43t28.5 -37t36 -30.5t42.5 -22.5t48 -14t53.5 -5zM210 557h96l115 167h-54l-108 -100l-109 100h-55z" />
    <glyph glyph-name="Dcaron" unicode="&#x10e;" horiz-adv-x="711" 
d="M61 0h239q36 0 69.5 5t64.5 15.5t59 25t52.5 33.5t44.5 41.5t36 49t27 56t17 62t6 67.5q0 33 -5.5 64t-16 59.5t-26 54t-35.5 48t-44.5 41t-52 33t-59 24.5t-66 15.5t-71.5 5.5h-240q3 -7 6 -16.5t5 -20.5t4 -24t3 -26.5l2 -27t1.5 -27t1 -26t0.5 -23.5v-318v-21
t-0.5 -23t-1.5 -24l-2 -24t-2.5 -24t-3 -23t-3.5 -20.5t-4 -17.5t-5 -14zM295 617q29 0 55 -5t49.5 -14.5t43.5 -23.5t37.5 -31.5t30.5 -39t22 -45.5t14 -51.5t5 -56.5q0 -30 -5 -57.5t-14 -52.5t-22 -46t-30.5 -39t-37.5 -31.5t-43.5 -23t-49.5 -14.5t-55 -5h-93v536h93z
M303 759h96l115 147h-54l-108 -85l-109 85h-55z" />
    <glyph glyph-name="dcaron" unicode="&#x10f;" horiz-adv-x="655" 
d="M229 -10q46 0 87 24t66 66v-85l131 13q-3 6 -5.5 14.5t-4.5 18t-3.5 20.5t-2.5 22t-2 22.5t-1.5 22.5t-0.5 21v19v557l-132 -21q3 -6 5.5 -14.5t5 -18t4 -20t2.5 -21.5l2 -22t1.5 -22t0.5 -21.5v-19.5v-99q-25 31 -59.5 46.5t-72.5 15.5q-23 0 -44.5 -5t-41.5 -14.5
t-37.5 -23t-32.5 -30.5t-26.5 -38t-20 -45t-13 -51t-4.5 -56t4 -55.5t11.5 -50t18 -43.5t24 -36.5t29.5 -29.5t34 -22t37.5 -13.5t40.5 -4.5zM143 247q0 84 37.5 134.5t96.5 50.5q30 0 57 -13.5t48 -38.5v-251q-25 -31 -53 -47t-59 -16q-55 0 -91 49t-36 132zM552 508h47
l72 209h-108z" />
    <glyph glyph-name="Dcroat" unicode="&#x110;" horiz-adv-x="719" 
d="M68 0h239q36 0 69.5 5t64.5 15.5t59 25t52.5 33.5t44.5 41.5t36 49t27 56t17 62t6 67.5q0 33 -5.5 64t-16 59.5t-26 54t-35.5 48t-44.5 41t-52 33t-59 24.5t-66 15.5t-71.5 5.5h-240q3 -7 6 -16.5t5 -20.5t4 -24t3 -26.5l2 -27t1.5 -27t1 -26t0.5 -23.5v-122h-79l-15 -72
h94v-124v-21t-0.5 -23t-1.5 -24l-2 -24t-2.5 -24t-3 -23t-3.5 -20.5t-4 -17.5t-5 -14zM344 315l15 72h-150v230h93q29 0 55 -5t49.5 -14.5t43.5 -23.5t37.5 -31.5t30.5 -39t22 -45.5t14 -51.5t5 -56.5q0 -30 -5 -57.5t-14 -52.5t-22 -46t-30.5 -39t-37.5 -31.5t-43.5 -23
t-49.5 -14.5t-55 -5h-93v234h135z" />
    <glyph glyph-name="dcroat" unicode="&#x111;" horiz-adv-x="562" 
d="M229 -10q46 0 87 24t66 66v-85l131 13q-3 6 -5.5 14.5t-4.5 18t-3.5 20.5t-2.5 22t-2 22.5t-1.5 22.5t-0.5 21v19v396h66l12 58h-78v103l-131 -21q7 -14 11 -36t6 -46h-116l-13 -58h132v-118q-25 31 -59.5 46.5t-72.5 15.5q-23 0 -44.5 -5t-41.5 -14.5t-37.5 -23
t-32.5 -30.5t-26.5 -38t-20 -45t-13 -51t-4.5 -56t4 -55.5t11.5 -50t18 -43.5t24 -36.5t29.5 -29.5t34 -22t37.5 -13.5t40.5 -4.5zM143 247q0 84 37.5 134.5t96.5 50.5q30 0 57 -13.5t48 -38.5v-251q-25 -31 -53 -47t-59 -16q-55 0 -91 49t-36 132z" />
    <glyph glyph-name="Emacron" unicode="&#x112;" horiz-adv-x="556" 
d="M61 0h457l17 111q-8 -3 -18.5 -6t-22.5 -5.5t-25 -5t-27 -4.5t-28 -3.5l-28 -3t-27.5 -2.5t-26 -1.5t-23.5 -1t-20 -0.5h-88v244h41q49 0 91.5 -4t81.5 -13l-22 111q-32 -7 -71 -11.5t-81 -4.5h-40v218h82q13 0 27 -0.5t29.5 -1t31.5 -2t32 -3.5t31.5 -4t30 -5t27.5 -6.5
t24 -7.5l-19 112h-437q3 -7 6 -16.5t5 -20.5t4 -24t3 -26.5l2 -27t1.5 -27t1 -26t0.5 -23.5v-318v-21t-0.5 -23t-1.5 -24l-2 -24t-2.5 -24t-3 -23t-3.5 -20.5t-4 -17.5t-5 -14zM164 793h280v68h-280v-68z" />
    <glyph glyph-name="emacron" unicode="&#x113;" horiz-adv-x="514" 
d="M287 -10q44 0 88.5 12.5t73.5 32.5l11 82q-35 -25 -75 -39t-80 -14q-70 0 -114 45t-49 126h342q2 124 -59.5 199t-162.5 75q-23 0 -44.5 -4t-40.5 -12t-36.5 -19t-32 -25.5t-27 -31.5t-22 -36t-16 -40.5t-10 -44.5t-3.5 -47q0 -29 4.5 -55t14 -50t22.5 -44.5t30 -37.5
t37.5 -30.5t44 -22.5t49.5 -14t55 -5zM262 434q44 0 76 -32.5t41 -97.5h-235q9 60 40 95t78 35zM119 598h280v68h-280v-68z" />
    <glyph glyph-name="Ebreve" unicode="&#x114;" horiz-adv-x="556" 
d="M61 0h457l17 111q-8 -3 -18.5 -6t-22.5 -5.5t-25 -5t-27 -4.5t-28 -3.5l-28 -3t-27.5 -2.5t-26 -1.5t-23.5 -1t-20 -0.5h-88v244h41q49 0 91.5 -4t81.5 -13l-22 111q-32 -7 -71 -11.5t-81 -4.5h-40v218h82q13 0 27 -0.5t29.5 -1t31.5 -2t32 -3.5t31.5 -4t30 -5t27.5 -6.5
t24 -7.5l-19 112h-437q3 -7 6 -16.5t5 -20.5t4 -24t3 -26.5l2 -27t1.5 -27t1 -26t0.5 -23.5v-318v-21t-0.5 -23t-1.5 -24l-2 -24t-2.5 -24t-3 -23t-3.5 -20.5t-4 -17.5t-5 -14zM304 757q64 0 105.5 38t46.5 105h-15q-16 -34 -51 -52.5t-86 -18.5t-86 18.5t-51 52.5h-15
q5 -67 46.5 -105t105.5 -38z" />
    <glyph glyph-name="ebreve" unicode="&#x115;" horiz-adv-x="514" 
d="M287 -10q44 0 88.5 12.5t73.5 32.5l11 82q-35 -25 -75 -39t-80 -14q-70 0 -114 45t-49 126h342q2 124 -59.5 199t-162.5 75q-23 0 -44.5 -4t-40.5 -12t-36.5 -19t-32 -25.5t-27 -31.5t-22 -36t-16 -40.5t-10 -44.5t-3.5 -47q0 -29 4.5 -55t14 -50t22.5 -44.5t30 -37.5
t37.5 -30.5t44 -22.5t49.5 -14t55 -5zM262 434q44 0 76 -32.5t41 -97.5h-235q9 60 40 95t78 35zM259 556q63 0 103.5 42t46.5 119h-16q-18 -40 -51 -65t-83 -25t-83 25t-51 65h-16q6 -77 46.5 -119t103.5 -42z" />
    <glyph glyph-name="Edotaccent" unicode="&#x116;" horiz-adv-x="556" 
d="M61 0h457l17 111q-8 -3 -18.5 -6t-22.5 -5.5t-25 -5t-27 -4.5t-28 -3.5l-28 -3t-27.5 -2.5t-26 -1.5t-23.5 -1t-20 -0.5h-88v244h41q49 0 91.5 -4t81.5 -13l-22 111q-32 -7 -71 -11.5t-81 -4.5h-40v218h82q13 0 27 -0.5t29.5 -1t31.5 -2t32 -3.5t31.5 -4t30 -5t27.5 -6.5
t24 -7.5l-19 112h-437q3 -7 6 -16.5t5 -20.5t4 -24t3 -26.5l2 -27t1.5 -27t1 -26t0.5 -23.5v-318v-21t-0.5 -23t-1.5 -24l-2 -24t-2.5 -24t-3 -23t-3.5 -20.5t-4 -17.5t-5 -14zM304 771q29 0 48 19.5t19 45.5q0 27 -19 46.5t-48 19.5t-48 -19.5t-19 -46.5q0 -26 19 -45.5
t48 -19.5z" />
    <glyph glyph-name="edotaccent" unicode="&#x117;" horiz-adv-x="514" 
d="M287 -10q44 0 88.5 12.5t73.5 32.5l11 82q-35 -25 -75 -39t-80 -14q-70 0 -114 45t-49 126h342q2 124 -59.5 199t-162.5 75q-23 0 -44.5 -4t-40.5 -12t-36.5 -19t-32 -25.5t-27 -31.5t-22 -36t-16 -40.5t-10 -44.5t-3.5 -47q0 -29 4.5 -55t14 -50t22.5 -44.5t30 -37.5
t37.5 -30.5t44 -22.5t49.5 -14t55 -5zM262 434q44 0 76 -32.5t41 -97.5h-235q9 60 40 95t78 35zM259 576q29 0 48 19.5t19 45.5q0 27 -19 46.5t-48 19.5t-48 -19.5t-19 -46.5q0 -26 19 -45.5t48 -19.5z" />
    <glyph glyph-name="Eogonek" unicode="&#x118;" horiz-adv-x="556" 
d="M61 0h417q-67 -32 -97.5 -64t-30.5 -67q0 -34 27 -55.5t70 -21.5q16 0 33 3.5t30 7.5l14 61q-10 -4 -23 -7t-24 -3q-22 0 -35 11t-13 30q0 22 22.5 49t63.5 56h3l17 111q-8 -3 -18.5 -6t-22.5 -5.5t-25 -5t-27 -4.5t-28 -3.5l-28 -3t-27.5 -2.5t-26 -1.5t-23.5 -1
t-20 -0.5h-88v244h41q49 0 91.5 -4t81.5 -13l-22 111q-32 -7 -71 -11.5t-81 -4.5h-40v218h82q13 0 27 -0.5t29.5 -1t31.5 -2t32 -3.5t31.5 -4t30 -5t27.5 -6.5t24 -7.5l-19 112h-437q3 -7 6 -16.5t5 -20.5t4 -24t3 -26.5l2 -27t1.5 -27t1 -26t0.5 -23.5v-318v-21t-0.5 -23
t-1.5 -24l-2 -24t-2.5 -24t-3 -23t-3.5 -20.5t-4 -17.5t-5 -14z" />
    <glyph glyph-name="eogonek" unicode="&#x119;" horiz-adv-x="514" 
d="M287 -10q15 0 31 1.5t31 4.5q-56 -31 -81.5 -61.5t-25.5 -64.5t27.5 -55.5t70.5 -21.5q16 0 33.5 3.5t30.5 7.5l14 61q-11 -4 -24.5 -7t-24.5 -3q-22 0 -35 11t-13 30q0 25 20 53.5t63 62.5q13 4 24 10t21 13l11 82q-35 -25 -75 -39t-80 -14q-70 0 -114 45t-49 126h342
q2 124 -59.5 199t-162.5 75q-23 0 -44.5 -4t-40.5 -12t-36.5 -19t-32 -25.5t-27 -31.5t-22 -36t-16 -40.5t-10 -44.5t-3.5 -47q0 -29 4.5 -55t14 -50t22.5 -44.5t30 -37.5t37.5 -30.5t44 -22.5t49.5 -14t55 -5zM262 434q44 0 76 -32.5t41 -97.5h-235q9 60 40 95t78 35z" />
    <glyph glyph-name="Ecaron" unicode="&#x11a;" horiz-adv-x="556" 
d="M61 0h457l17 111q-8 -3 -18.5 -6t-22.5 -5.5t-25 -5t-27 -4.5t-28 -3.5l-28 -3t-27.5 -2.5t-26 -1.5t-23.5 -1t-20 -0.5h-88v244h41q49 0 91.5 -4t81.5 -13l-22 111q-32 -7 -71 -11.5t-81 -4.5h-40v218h82q13 0 27 -0.5t29.5 -1t31.5 -2t32 -3.5t31.5 -4t30 -5t27.5 -6.5
t24 -7.5l-19 112h-437q3 -7 6 -16.5t5 -20.5t4 -24t3 -26.5l2 -27t1.5 -27t1 -26t0.5 -23.5v-318v-21t-0.5 -23t-1.5 -24l-2 -24t-2.5 -24t-3 -23t-3.5 -20.5t-4 -17.5t-5 -14zM256 759h96l115 147h-54l-108 -85l-109 85h-55z" />
    <glyph glyph-name="ecaron" unicode="&#x11b;" horiz-adv-x="514" 
d="M287 -10q44 0 88.5 12.5t73.5 32.5l11 82q-35 -25 -75 -39t-80 -14q-70 0 -114 45t-49 126h342q2 124 -59.5 199t-162.5 75q-23 0 -44.5 -4t-40.5 -12t-36.5 -19t-32 -25.5t-27 -31.5t-22 -36t-16 -40.5t-10 -44.5t-3.5 -47q0 -29 4.5 -55t14 -50t22.5 -44.5t30 -37.5
t37.5 -30.5t44 -22.5t49.5 -14t55 -5zM262 434q44 0 76 -32.5t41 -97.5h-235q9 60 40 95t78 35zM211 557h96l115 167h-54l-108 -100l-109 100h-55z" />
    <glyph glyph-name="Gcircumflex" unicode="&#x11c;" horiz-adv-x="722" 
d="M404 -11q68 0 139.5 19t128.5 50q-4 25 -6.5 56.5t-2.5 62.5v32q0 39 3.5 72t13.5 58h-144q10 -24 13.5 -55.5t3.5 -73.5v-112q-32 -13 -67 -19.5t-71 -6.5q-28 0 -53.5 5t-49 15t-43.5 24t-37 32t-30.5 39.5t-22.5 46.5t-14 53t-5 59q0 33 5 62t14 55t22 48t29.5 40
t36 32t41.5 23.5t46.5 14.5t50.5 5q65 0 122.5 -25t103.5 -69l-21 142q-10 1 -20.5 2.5t-21.5 4.5t-23 6t-25 6.5t-27 6.5t-29.5 5.5t-32.5 4t-36 1.5q-32 0 -61.5 -4.5t-57 -13.5t-52.5 -22t-47 -29.5t-41 -36.5t-35 -42.5t-28 -47.5t-20.5 -52.5t-13 -57t-4.5 -60.5
q0 -35 5.5 -67.5t16 -62t25.5 -56t35 -49.5t43.5 -42t51 -33.5t58 -24.5t64.5 -15.5t70 -5.5zM224 759h54l109 85l108 -85h55l-115 147h-96z" />
    <glyph glyph-name="gcircumflex" unicode="&#x11d;" horiz-adv-x="517" 
d="M249 147q23 0 44 3.5t40.5 10.5t36.5 16.5t31 21.5t25 26.5t19 31t12 34.5t4 37q0 34 -12 63.5t-34 52.5q25 6 53 7.5t54 -2.5l-10 99q-39 -1 -73 -23.5t-50 -58.5q-27 20 -63 31t-77 11q-91 0 -151 -52t-60 -130q0 -53 30 -95t80 -64q-48 -12 -73 -39t-25 -61
q0 -28 18 -51t52 -35q-60 -11 -89 -35.5t-29 -55.5q0 -43 55 -72t157 -29q34 0 65 3.5t57.5 10.5t49.5 17t41.5 21.5t33 25.5t24 29t14.5 31.5t5 32.5q0 43 -30 67.5t-91 28.5l-174 12q-35 2 -51.5 13t-16.5 29q0 14 12 25.5t35 18.5q14 -4 29.5 -5.5t31.5 -1.5zM249 207
q-43 0 -72 33t-29 88q0 54 28.5 87t72.5 33t72.5 -33t28.5 -88q0 -54 -28 -87t-73 -33zM102 -95q0 19 16 36t49 29q4 -1 8 -1.5t8 -0.5l169 -13q24 -2 35 -10t11 -22q0 -31 -50.5 -54t-123.5 -23q-60 0 -91 16.5t-31 42.5zM89 557h54l109 102l108 -102h55l-115 167h-96z" />
    <glyph glyph-name="Gbreve" unicode="&#x11e;" horiz-adv-x="722" 
d="M404 -11q68 0 139.5 19t128.5 50q-4 25 -6.5 56.5t-2.5 62.5v32q0 39 3.5 72t13.5 58h-144q10 -24 13.5 -55.5t3.5 -73.5v-112q-32 -13 -67 -19.5t-71 -6.5q-28 0 -53.5 5t-49 15t-43.5 24t-37 32t-30.5 39.5t-22.5 46.5t-14 53t-5 59q0 33 5 62t14 55t22 48t29.5 40
t36 32t41.5 23.5t46.5 14.5t50.5 5q65 0 122.5 -25t103.5 -69l-21 142q-10 1 -20.5 2.5t-21.5 4.5t-23 6t-25 6.5t-27 6.5t-29.5 5.5t-32.5 4t-36 1.5q-32 0 -61.5 -4.5t-57 -13.5t-52.5 -22t-47 -29.5t-41 -36.5t-35 -42.5t-28 -47.5t-20.5 -52.5t-13 -57t-4.5 -60.5
q0 -35 5.5 -67.5t16 -62t25.5 -56t35 -49.5t43.5 -42t51 -33.5t58 -24.5t64.5 -15.5t70 -5.5zM387 758q64 0 105.5 37.5t46.5 104.5h-15q-15 -34 -50.5 -52.5t-86.5 -18.5t-86.5 18.5t-50.5 52.5h-15q5 -67 46.5 -104.5t105.5 -37.5z" />
    <glyph glyph-name="gbreve" unicode="&#x11f;" horiz-adv-x="517" 
d="M249 147q23 0 44 3.5t40.5 10.5t36.5 16.5t31 21.5t25 26.5t19 31t12 34.5t4 37q0 34 -12 63.5t-34 52.5q25 6 53 7.5t54 -2.5l-10 99q-39 -1 -73 -23.5t-50 -58.5q-27 20 -63 31t-77 11q-91 0 -151 -52t-60 -130q0 -53 30 -95t80 -64q-48 -12 -73 -39t-25 -61
q0 -28 18 -51t52 -35q-60 -11 -89 -35.5t-29 -55.5q0 -43 55 -72t157 -29q34 0 65 3.5t57.5 10.5t49.5 17t41.5 21.5t33 25.5t24 29t14.5 31.5t5 32.5q0 43 -30 67.5t-91 28.5l-174 12q-35 2 -51.5 13t-16.5 29q0 14 12 25.5t35 18.5q14 -4 29.5 -5.5t31.5 -1.5zM249 207
q-43 0 -72 33t-29 88q0 54 28.5 87t72.5 33t72.5 -33t28.5 -88q0 -54 -28 -87t-73 -33zM102 -95q0 19 16 36t49 29q4 -1 8 -1.5t8 -0.5l169 -13q24 -2 35 -10t11 -22q0 -31 -50.5 -54t-123.5 -23q-60 0 -91 16.5t-31 42.5zM252 555q63 0 103.5 42.5t46.5 119.5h-16
q-18 -40 -51 -65t-83 -25t-83 25t-51 65h-16q6 -77 46.5 -119.5t103.5 -42.5z" />
    <glyph glyph-name="Gdotaccent" unicode="&#x120;" horiz-adv-x="722" 
d="M404 -11q68 0 139.5 19t128.5 50q-4 25 -6.5 56.5t-2.5 62.5v32q0 39 3.5 72t13.5 58h-144q10 -24 13.5 -55.5t3.5 -73.5v-112q-32 -13 -67 -19.5t-71 -6.5q-28 0 -53.5 5t-49 15t-43.5 24t-37 32t-30.5 39.5t-22.5 46.5t-14 53t-5 59q0 33 5 62t14 55t22 48t29.5 40
t36 32t41.5 23.5t46.5 14.5t50.5 5q65 0 122.5 -25t103.5 -69l-21 142q-10 1 -20.5 2.5t-21.5 4.5t-23 6t-25 6.5t-27 6.5t-29.5 5.5t-32.5 4t-36 1.5q-32 0 -61.5 -4.5t-57 -13.5t-52.5 -22t-47 -29.5t-41 -36.5t-35 -42.5t-28 -47.5t-20.5 -52.5t-13 -57t-4.5 -60.5
q0 -35 5.5 -67.5t16 -62t25.5 -56t35 -49.5t43.5 -42t51 -33.5t58 -24.5t64.5 -15.5t70 -5.5zM387 771q29 0 48 19.5t19 45.5q0 27 -19 46.5t-48 19.5t-48 -19.5t-19 -46.5q0 -26 19 -45.5t48 -19.5z" />
    <glyph glyph-name="gdotaccent" unicode="&#x121;" horiz-adv-x="517" 
d="M249 147q23 0 44 3.5t40.5 10.5t36.5 16.5t31 21.5t25 26.5t19 31t12 34.5t4 37q0 34 -12 63.5t-34 52.5q25 6 53 7.5t54 -2.5l-10 99q-39 -1 -73 -23.5t-50 -58.5q-27 20 -63 31t-77 11q-91 0 -151 -52t-60 -130q0 -53 30 -95t80 -64q-48 -12 -73 -39t-25 -61
q0 -28 18 -51t52 -35q-60 -11 -89 -35.5t-29 -55.5q0 -43 55 -72t157 -29q34 0 65 3.5t57.5 10.5t49.5 17t41.5 21.5t33 25.5t24 29t14.5 31.5t5 32.5q0 43 -30 67.5t-91 28.5l-174 12q-35 2 -51.5 13t-16.5 29q0 14 12 25.5t35 18.5q14 -4 29.5 -5.5t31.5 -1.5zM249 207
q-43 0 -72 33t-29 88q0 54 28.5 87t72.5 33t72.5 -33t28.5 -88q0 -54 -28 -87t-73 -33zM102 -95q0 19 16 36t49 29q4 -1 8 -1.5t8 -0.5l169 -13q24 -2 35 -10t11 -22q0 -31 -50.5 -54t-123.5 -23q-60 0 -91 16.5t-31 42.5zM252 576q29 0 48 19.5t19 45.5q0 27 -19 46.5
t-48 19.5t-48 -19.5t-19 -46.5q0 -26 19 -45.5t48 -19.5z" />
    <glyph glyph-name="uni0122" unicode="&#x122;" horiz-adv-x="722" 
d="M404 -11q68 0 139.5 19t128.5 50q-4 25 -6.5 56.5t-2.5 62.5v32q0 39 3.5 72t13.5 58h-144q10 -24 13.5 -55.5t3.5 -73.5v-112q-32 -13 -67 -19.5t-71 -6.5q-28 0 -53.5 5t-49 15t-43.5 24t-37 32t-30.5 39.5t-22.5 46.5t-14 53t-5 59q0 33 5 62t14 55t22 48t29.5 40
t36 32t41.5 23.5t46.5 14.5t50.5 5q65 0 122.5 -25t103.5 -69l-21 142q-10 1 -20.5 2.5t-21.5 4.5t-23 6t-25 6.5t-27 6.5t-29.5 5.5t-32.5 4t-36 1.5q-32 0 -61.5 -4.5t-57 -13.5t-52.5 -22t-47 -29.5t-41 -36.5t-35 -42.5t-28 -47.5t-20.5 -52.5t-13 -57t-4.5 -60.5
q0 -35 5.5 -67.5t16 -62t25.5 -56t35 -49.5t43.5 -42t51 -33.5t58 -24.5t64.5 -15.5t70 -5.5zM357 -292q51 25 78.5 63t27.5 82q0 35 -19.5 56t-46.5 21q-25 0 -41 -16t-16 -38q0 -8 1.5 -14t4.5 -11t6.5 -9.5t7.5 -8l8 -7t8 -6.5t7.5 -7t6.5 -8t4.5 -8.5t1.5 -10.5
q0 -16 -12 -35t-32 -37z" />
    <glyph glyph-name="uni0123" unicode="&#x123;" horiz-adv-x="517" 
d="M295 797q-51 -25 -78.5 -63t-27.5 -82q0 -35 19.5 -56t46.5 -21q25 0 41 16t16 38q0 8 -1.5 14t-4.5 11t-6.5 9.5t-7.5 8l-8 7t-8 6.5t-7.5 7t-6.5 8t-4.5 8.5t-1.5 10.5q0 16 12 35t32 37zM249 147q23 0 44 3.5t40.5 10.5t36.5 16.5t31 21.5t25 26.5t19 31t12 34.5t4 37
q0 34 -12 63.5t-34 52.5q25 6 53 7.5t54 -2.5l-10 99q-39 -1 -73 -23.5t-50 -58.5q-27 20 -63 31t-77 11q-91 0 -151 -52t-60 -130q0 -53 30 -95t80 -64q-48 -12 -73 -39t-25 -61q0 -28 18 -51t52 -35q-60 -11 -89 -35.5t-29 -55.5q0 -43 55 -72t157 -29q34 0 65 3.5
t57.5 10.5t49.5 17t41.5 21.5t33 25.5t24 29t14.5 31.5t5 32.5q0 43 -30 67.5t-91 28.5l-174 12q-35 2 -51.5 13t-16.5 29q0 14 12 25.5t35 18.5q14 -4 29.5 -5.5t31.5 -1.5zM249 207q-43 0 -72 33t-29 88q0 54 28.5 87t72.5 33t72.5 -33t28.5 -88q0 -54 -28 -87t-73 -33z
M102 -95q0 19 16 36t49 29q4 -1 8 -1.5t8 -0.5l169 -13q24 -2 35 -10t11 -22q0 -31 -50.5 -54t-123.5 -23q-60 0 -91 16.5t-31 42.5z" />
    <glyph glyph-name="Hcircumflex" unicode="&#x124;" horiz-adv-x="708" 
d="M63 0h158q-2 6 -4.5 14t-4 17.5t-3 20.5t-2.5 22.5t-2 24t-1.5 24.5t-1 23.5t-0.5 22.5v21v126h304v-126v-21t-0.5 -22.5t-1 -23.5t-1.5 -24.5t-2.5 -24t-3 -22.5t-3 -20.5t-3.5 -17.5t-5 -14h159q-2 6 -4.5 14t-4 17.5t-3 20.5t-3 22.5t-2.5 24t-1.5 24.5t-1 23.5
t-0.5 22.5v21v320v21t0.5 22.5t1 23.5t1.5 24.5t2.5 24t3 22.5t3 20.5t4 17.5t4.5 14h-159q3 -6 5 -14t3.5 -17.5t3 -20.5t3 -22.5t2.5 -24t1.5 -24.5t1 -23.5t0.5 -22.5v-21v-110h-304v110v21t0.5 22.5t1 23.5t1.5 24.5t2 24t2.5 22.5t3 20.5t4 17.5t4.5 14h-158
q3 -6 5 -14t3.5 -17.5t3 -20.5t3 -22.5t2.5 -24t1.5 -24.5t1 -23.5t0.5 -22.5v-21v-320v-21t-0.5 -22.5t-1 -23.5t-1.5 -24.5t-2.5 -24t-3 -22.5t-3 -20.5t-4 -17.5t-4.5 -14zM191 759h54l109 85l108 -85h55l-115 147h-96z" />
    <glyph glyph-name="hcircumflex" unicode="&#x125;" horiz-adv-x="558" 
d="M52 0h145q-2 6 -4 14.5t-4 18t-3 20.5l-2 22t-2 23t-1.5 23t-0.5 21.5v20.5v204q25 28 52 44.5t58 16.5q40 0 65.5 -26t25.5 -75v-164v-20t-0.5 -22t-1.5 -22.5l-2 -23t-2 -22.5t-3 -20.5t-4 -18t-4 -14.5h145q-2 6 -4 14.5t-4 18.5t-3 21t-2 22.5l-2 23t-1.5 23
t-0.5 22.5v21v177q0 77 -42.5 121.5t-111.5 44.5q-49 0 -90 -26t-68 -68v310l-131 -21q3 -6 5.5 -14.5t4.5 -18t3.5 -20t2.5 -21.5l2 -22t1.5 -22t0.5 -21.5v-19.5v-379v-21t-0.5 -22.5t-1.5 -23l-2 -23t-2 -22.5t-3 -21t-4 -18t-4 -15zM-37 777h54l109 102l108 -102h55
l-115 167h-96z" />
    <glyph glyph-name="Hbar" unicode="&#x126;" horiz-adv-x="715" 
d="M66 0h159q-2 6 -4.5 14t-4 17.5t-3 20.5t-3 22.5t-2.5 24t-1.5 24.5t-1 23.5t-0.5 22.5v21v126h305v-126v-21t-0.5 -22.5t-1 -23.5t-1.5 -24.5t-2.5 -24t-3 -22.5t-3 -20.5t-3.5 -17.5t-5 -14h158q-2 6 -4.5 14t-4 17.5t-3 20.5t-2.5 22.5t-2 24t-1.5 24.5t-1 23.5
t-0.5 22.5v21v317h76l14 68h-89q2 37 6.5 72t11.5 53h-158q7 -18 12 -53t6 -72h-301q1 37 6 72t12 53h-159q7 -18 12 -53t6 -72h-74l-14 -68h90v-317v-21t-0.5 -22.5t-1 -23.5t-1.5 -24.5t-2.5 -24t-3 -22.5t-3 -20.5t-4 -17.5t-4.5 -14zM205 400v107h305v-107h-305z" />
    <glyph glyph-name="hbar" unicode="&#x127;" horiz-adv-x="558" 
d="M52 0h145q-2 6 -4 14.5t-4 18t-3 20.5l-2 22t-2 23t-1.5 23t-0.5 21.5v20.5v204q25 28 52 44.5t58 16.5q40 0 65.5 -26t25.5 -75v-164v-20.5t-0.5 -21.5t-1.5 -23t-2 -23l-2 -22t-3 -20.5t-4 -18t-4 -14.5h145q-2 7 -4 15t-4 18t-3 21t-2 22.5l-2 23t-1.5 23t-0.5 22.5
v21v177q0 77 -42.5 121.5t-111.5 44.5q-49 0 -90 -26t-68 -68v149h120l13 58h-133v103l-131 -21q7 -14 11 -36t6 -46h-62l-13 -58h78v-398v-21t-0.5 -22.5t-1.5 -23l-2 -23t-2 -22.5t-3 -21t-4 -18t-4 -15z" />
    <glyph glyph-name="Itilde" unicode="&#x128;" horiz-adv-x="284" 
d="M63 0h158q-2 6 -4.5 14t-4 17.5t-3 20.5t-2.5 22.5t-2 24t-1.5 24.5t-1 23.5t-0.5 22.5v21v320v21t0.5 22.5t1 23.5t1.5 24.5t2 24t2.5 22.5t3 20.5t4 17.5t4.5 14h-158q3 -6 5 -14t3.5 -17.5t3 -20.5t3 -22.5t2.5 -24t1.5 -24.5t1 -23.5t0.5 -22.5v-21v-320v-21
t-0.5 -22.5t-1 -23.5t-1.5 -24.5t-2.5 -24t-3 -22.5t-3 -20.5t-4 -17.5t-4.5 -14zM-17 771h25q11 29 25.5 43t33.5 14q7 0 13.5 -2t14 -5t15.5 -7.5l16 -9t16.5 -9.5t17 -9.5t17.5 -7.5t18 -5t18 -2q34 0 60.5 30.5t40.5 96.5h-25q-12 -28 -26 -42t-33 -14q-7 0 -14 2
t-14.5 5t-15 7.5t-15.5 9t-16.5 9l-17 9t-17.5 7.5t-18 5t-18 2q-34 0 -60.5 -30.5t-40.5 -96.5z" />
    <glyph glyph-name="itilde" unicode="&#x129;" horiz-adv-x="250" 
d="M52 0h146q-2 7 -4.5 15t-4 18t-3 21t-2.5 22.5l-2 23t-1.5 23t-0.5 22.5v21v337l-131 -22q3 -6 5.5 -14.5t4.5 -18t3.5 -20t2.5 -22t2 -22.5t1.5 -22.5t0.5 -22v-19.5v-154v-21t-0.5 -22.5t-1.5 -23l-2 -23t-2 -22.5t-3 -21t-4 -18t-4 -15zM-34 569h25q13 34 27 50.5
t33 16.5q7 0 13.5 -2.5t14 -6t15 -8.5t15.5 -10.5t16.5 -11.5t17 -11t17 -8.5t18 -6t18.5 -2.5q34 0 59.5 33.5t41.5 105.5h-25q-13 -34 -27 -51t-33 -17q-6 0 -12.5 2t-13 5t-13 7.5t-14 9.5t-14.5 10t-14.5 10t-15.5 9.5t-16 7.5t-16 5t-16 2q-34 0 -60 -33.5t-41 -105.5z
" />
    <glyph glyph-name="Imacron" unicode="&#x12a;" horiz-adv-x="284" 
d="M63 0h158q-2 6 -4.5 14t-4 17.5t-3 20.5t-2.5 22.5t-2 24t-1.5 24.5t-1 23.5t-0.5 22.5v21v320v21t0.5 22.5t1 23.5t1.5 24.5t2 24t2.5 22.5t3 20.5t4 17.5t4.5 14h-158q3 -6 5 -14t3.5 -17.5t3 -20.5t3 -22.5t2.5 -24t1.5 -24.5t1 -23.5t0.5 -22.5v-21v-320v-21
t-0.5 -22.5t-1 -23.5t-1.5 -24.5t-2.5 -24t-3 -22.5t-3 -20.5t-4 -17.5t-4.5 -14zM2 793h280v68h-280v-68z" />
    <glyph glyph-name="imacron" unicode="&#x12b;" horiz-adv-x="250" 
d="M52 0h146q-2 7 -4.5 15t-4 18t-3 21t-2.5 22.5l-2 23t-1.5 23t-0.5 22.5v21v337l-131 -22q3 -6 5.5 -14.5t4.5 -18t3.5 -20t2.5 -22t2 -22.5t1.5 -22.5t0.5 -22v-19.5v-154v-21t-0.5 -22.5t-1.5 -23l-2 -23t-2 -22.5t-3 -21t-4 -18t-4 -15zM-15 598h280v68h-280v-68z" />
    <glyph glyph-name="Ibreve" unicode="&#x12c;" horiz-adv-x="284" 
d="M63 0h158q-2 6 -4.5 14t-4 17.5t-3 20.5t-2.5 22.5t-2 24t-1.5 24.5t-1 23.5t-0.5 22.5v21v320v21t0.5 22.5t1 23.5t1.5 24.5t2 24t2.5 22.5t3 20.5t4 17.5t4.5 14h-158q3 -6 5 -14t3.5 -17.5t3 -20.5t3 -22.5t2.5 -24t1.5 -24.5t1 -23.5t0.5 -22.5v-21v-320v-21
t-0.5 -22.5t-1 -23.5t-1.5 -24.5t-2.5 -24t-3 -22.5t-3 -20.5t-4 -17.5t-4.5 -14zM142 757q64 0 105.5 38t46.5 105h-15q-16 -34 -51 -52.5t-86 -18.5t-86 18.5t-51 52.5h-15q5 -67 46.5 -105t105.5 -38z" />
    <glyph glyph-name="ibreve" unicode="&#x12d;" horiz-adv-x="250" 
d="M52 0h146q-2 7 -4.5 15t-4 18t-3 21t-2.5 22.5l-2 23t-1.5 23t-0.5 22.5v21v337l-131 -22q3 -6 5.5 -14.5t4.5 -18t3.5 -20t2.5 -22t2 -22.5t1.5 -22.5t0.5 -22v-19.5v-154v-21t-0.5 -22.5t-1.5 -23l-2 -23t-2 -22.5t-3 -21t-4 -18t-4 -15zM125 555q63 0 103.5 42.5
t46.5 119.5h-16q-18 -40 -51 -65t-83 -25t-83 25t-51 65h-16q6 -77 46.5 -119.5t103.5 -42.5z" />
    <glyph glyph-name="Iogonek" unicode="&#x12e;" horiz-adv-x="284" 
d="M63 0h121q-67 -32 -97.5 -64t-30.5 -67q0 -34 27 -55.5t70 -21.5q16 0 33 3.5t30 7.5l14 61q-10 -4 -23 -7t-24 -3q-22 0 -35 11t-13 30q0 22 22.5 49t63.5 56q-2 6 -4.5 14t-4 17.5t-3 20.5t-2.5 22.5t-2 24t-1.5 24.5t-1 23.5t-0.5 22.5v21v320v21t0.5 22.5t1 23.5
t1.5 24.5t2 24t2.5 22.5t3 20.5t4 17.5t4.5 14h-158q3 -6 5 -14t3.5 -17.5t3 -20.5t3 -22.5t2.5 -24t1.5 -24.5t1 -23.5t0.5 -22.5v-21v-320v-21t-0.5 -22.5t-1 -23.5t-1.5 -24.5t-2.5 -24t-3 -22.5t-3 -20.5t-4 -17.5t-4.5 -14z" />
    <glyph glyph-name="iogonek" unicode="&#x12f;" horiz-adv-x="250" 
d="M123 573q30 0 50 20t20 49q0 28 -20 48t-50 20t-49.5 -20t-19.5 -48q0 -29 19.5 -49t49.5 -20zM52 0h95q-67 -32 -97.5 -64t-30.5 -67q0 -34 27 -55.5t70 -21.5q16 0 33 3.5t30 7.5l14 61q-10 -4 -23 -7t-24 -3q-22 0 -35 11t-13 30q0 22 22.5 49t63.5 56h14
q-2 7 -4.5 15t-4 18t-3 21t-2.5 22.5l-2 23t-1.5 23t-0.5 22.5v21v337l-131 -22q3 -6 5.5 -14.5t4.5 -18t3.5 -20t2.5 -21.5l2 -22t1.5 -22t0.5 -21.5v-19.5v-156v-21t-0.5 -22.5t-1.5 -23l-2 -23t-2 -22.5t-3 -21t-4 -18t-4 -15z" />
    <glyph glyph-name="Idotaccent" unicode="&#x130;" horiz-adv-x="284" 
d="M63 0h158q-2 6 -4.5 14t-4 17.5t-3 20.5t-2.5 22.5t-2 24t-1.5 24.5t-1 23.5t-0.5 22.5v21v320v21t0.5 22.5t1 23.5t1.5 24.5t2 24t2.5 22.5t3 20.5t4 17.5t4.5 14h-158q3 -6 5 -14t3.5 -17.5t3 -20.5t3 -22.5t2.5 -24t1.5 -24.5t1 -23.5t0.5 -22.5v-21v-320v-21
t-0.5 -22.5t-1 -23.5t-1.5 -24.5t-2.5 -24t-3 -22.5t-3 -20.5t-4 -17.5t-4.5 -14zM142 771q29 0 48 19.5t19 45.5q0 27 -19 46.5t-48 19.5t-48 -19.5t-19 -46.5q0 -26 19 -45.5t48 -19.5z" />
    <glyph glyph-name="dotlessi" unicode="&#x131;" horiz-adv-x="250" 
d="M52 0h146q-2 7 -4.5 15t-4 18t-3 21t-2.5 22.5l-2 23t-1.5 23t-0.5 22.5v21v337l-131 -22q3 -6 5.5 -14.5t4.5 -18t3.5 -20t2.5 -22t2 -22.5t1.5 -22.5t0.5 -22v-19.5v-154v-21t-0.5 -22.5t-1.5 -23l-2 -23t-2 -22.5t-3 -21t-4 -18t-4 -15z" />
    <glyph glyph-name="IJ" unicode="&#x132;" horiz-adv-x="560" 
d="M63 0h158q-2 6 -4.5 14t-4 17.5t-3 20.5t-2.5 22.5t-2 24t-1.5 24.5t-1 23.5t-0.5 22.5v21v320v21t0.5 22.5t1 23.5t1.5 24.5t2 24t2.5 22.5t3 20.5t4 17.5t4.5 14h-158q3 -6 5 -14t3.5 -17.5t3 -20.5t3 -22.5t2.5 -24t1.5 -24.5t1 -23.5t0.5 -22.5v-21v-320v-21
t-0.5 -22.5t-1 -23.5t-1.5 -24.5t-2.5 -24t-3 -22.5t-3 -20.5t-4 -17.5t-4.5 -14zM309 -204q78 0 125.5 47t47.5 127v540v21t0.5 22.5t1 23.5t1.5 24.5t2 24t2.5 22.5t3.5 20.5t4 17.5t4 14h-159q3 -6 5 -14t4 -17.5t3.5 -20.5t2.5 -22.5t2 -24t2 -24.5t1.5 -23.5t0.5 -22.5
v-21v-546q0 -45 -20 -67t-54 -22q-19 0 -37.5 5.5t-37.5 16.5l10 -83q17 -9 39 -13.5t46 -4.5z" />
    <glyph glyph-name="ij" unicode="&#x133;" horiz-adv-x="494" 
d="M123 573q30 0 50 20t20 49q0 28 -20 48t-50 20t-49.5 -20t-19.5 -48q0 -29 19.5 -49t49.5 -20zM52 0h146q-2 7 -4.5 15t-4 18t-3 21t-2.5 22.5l-2 23t-1.5 23t-0.5 22.5v21v337l-131 -22q3 -6 5.5 -14.5t4.5 -18t3.5 -20t2.5 -21.5l2 -22t1.5 -22t0.5 -21.5v-19.5v-156
v-21t-0.5 -22.5t-1.5 -23l-2 -23t-2 -22.5t-3 -21t-4 -18t-4 -15zM372 573q30 0 50 20t20 49q0 28 -20 48t-50 20q-29 0 -49 -20t-20 -48q0 -29 20 -49t49 -20zM287 -207q67 0 104.5 35.5t37.5 104.5v570l-131 -22q3 -6 5.5 -14.5t4.5 -18t3.5 -20t2.5 -21.5l2 -22t1.5 -22
t0.5 -21.5v-19.5v-393q0 -29 -13.5 -44t-39.5 -15q-15 0 -32 3.5t-32 9.5l8 -76q16 -6 37 -10t41 -4z" />
    <glyph glyph-name="Jcircumflex" unicode="&#x134;" horiz-adv-x="276" 
d="M25 -204q78 0 125.5 47t47.5 127v540v21t0.5 22.5t1 23.5t1.5 24.5t2 24t2.5 22.5t3.5 20.5t4 17.5t4 14h-159q3 -6 5 -14t4 -17.5t3.5 -20.5t2.5 -22.5t2 -24t2 -24.5t1.5 -23.5t0.5 -22.5v-21v-546q0 -45 -20 -67t-54 -22q-19 0 -37.5 5.5t-37.5 16.5l10 -83
q17 -9 39 -13.5t46 -4.5zM-25 759h54l109 85l108 -85h55l-115 147h-96z" />
    <glyph glyph-name="jcircumflex" unicode="&#x135;" horiz-adv-x="245" 
d="M37 -207q67 0 104.5 35.5t37.5 104.5v570l-131 -22q3 -6 5.5 -14.5t4.5 -18t3.5 -20t2.5 -21.5l2 -22t1.5 -22t0.5 -21.5v-19.5v-393q0 -29 -13.5 -44t-39.5 -15q-15 0 -32 3.5t-32 9.5l8 -76q16 -6 37 -10t41 -4zM-39 557h54l109 102l108 -102h55l-115 167h-96z" />
    <glyph glyph-name="uni0136" unicode="&#x136;" horiz-adv-x="634" 
d="M63 0h158q-2 6 -4.5 14t-4 17.5t-3 20.5t-3 22.5t-2.5 24t-1.5 24.5t-1 23.5t-0.5 22.5v21v320v21t0.5 22.5t1 23.5t1.5 24.5t2.5 24t3 22.5t3 20.5t4 17.5t4.5 14h-158q3 -6 5 -14t3.5 -17.5t3 -20.5t3 -22.5t2.5 -24t1.5 -24.5t1 -23.5t0.5 -22.5v-21v-320v-21
t-0.5 -22.5t-1 -23.5t-1.5 -24.5t-2.5 -24t-3 -22.5t-3 -20.5t-4 -17.5t-4.5 -14zM473 0h171q-23 25 -58.5 67t-68.5 83l-169 215l155 188q36 43 68.5 82.5t57.5 64.5h-148q-1 -24 -20 -57t-48 -71l-186 -229l165 -207q31 -40 54 -76t27 -60zM301 -292q51 25 78.5 63
t27.5 82q0 35 -19.5 56t-46.5 21q-25 0 -41 -16t-16 -38q0 -7 1.5 -13.5t4.5 -11.5t6.5 -9t7.5 -8t8 -7.5t8 -6.5t7.5 -6.5t6.5 -8t4.5 -9t1.5 -10.5q0 -16 -12 -35t-32 -37z" />
    <glyph glyph-name="uni0137" unicode="&#x137;" horiz-adv-x="511" 
d="M52 0h145q-2 6 -4 14.5t-4 18t-3 20.5l-2 22t-2 23t-1.5 23t-0.5 21.5v20.5v562l-131 -21q3 -6 5.5 -14.5t4.5 -18t3.5 -20t2.5 -21.5l2 -22t1.5 -22t0.5 -21.5v-19.5v-379v-21t-0.5 -22.5t-1.5 -23l-2 -23t-2 -22.5t-3 -21t-4 -18t-4 -15zM369 0h152q-22 25 -50.5 60.5
t-58.5 75.5l-100 131l89 107q28 34 57.5 67.5t51.5 56.5h-131q-4 -23 -20.5 -51.5t-40.5 -58.5l-115 -140l105 -139q25 -33 40.5 -60t20.5 -49zM240 -292q51 25 78.5 63t27.5 82q0 35 -19.5 56t-46.5 21q-25 0 -41 -16t-16 -38q0 -7 1.5 -13.5t4.5 -11.5t6.5 -9t7.5 -8
t8 -7.5t8 -6.5t7.5 -6.5t6.5 -8t4.5 -9t1.5 -10.5q0 -16 -12 -35t-32 -37z" />
    <glyph glyph-name="kgreenlandic" unicode="&#x138;" horiz-adv-x="511" 
d="M52 0h145q-2 6 -4 14.5t-4 18t-3 20.5t-2 22.5l-2 23t-1.5 22.5t-0.5 22v20v340l-131 -22q3 -6 5.5 -14t4.5 -18t3.5 -20.5t2.5 -21.5t2 -22.5t1.5 -22.5t0.5 -21v-19v-156v-21t-0.5 -22.5t-1.5 -23l-2 -23t-2 -22.5t-3 -21t-4 -18.5t-4 -14.5zM369 0h152
q-22 25 -50.5 60.5t-58.5 75.5l-100 131l89 107q28 34 57.5 67.5t51.5 56.5h-131q-4 -23 -20.5 -51.5t-40.5 -58.5l-115 -140l105 -139q25 -33 40.5 -60t20.5 -49z" />
    <glyph glyph-name="Lacute" unicode="&#x139;" horiz-adv-x="548" 
d="M61 0h456l17 111q-8 -3 -18.5 -6t-22.5 -5.5t-25 -4.5t-27 -4t-28 -3.5l-28 -3t-27.5 -2.5t-26 -1.5t-24 -1t-20.5 -0.5h-85v431v21t0.5 22.5t1 23.5t1.5 24.5t2.5 24t3 22.5t3 20.5t4 17.5t4.5 14h-159q3 -6 5 -14t3.5 -17.5t3 -20.5t3 -22.5t2.5 -24t1.5 -24.5t1 -23.5
t0.5 -22.5v-21v-319v-21t-0.5 -23t-1.5 -24t-2 -24.5t-2.5 -24t-3 -22.5t-3.5 -20.5t-4 -17.5t-5 -14zM90 759h60l148 147h-125z" />
    <glyph glyph-name="lacute" unicode="&#x13a;" horiz-adv-x="250" 
d="M52 0h146q-2 7 -4.5 15t-4 18t-3 21t-2.5 22.5l-2 23t-1.5 23t-0.5 22.5v21v559l-131 -21q3 -6 5.5 -14.5t4.5 -18t3.5 -20t2.5 -21.5l2 -22t1.5 -22t0.5 -21.5v-19.5v-379v-21t-0.5 -22.5t-1.5 -23l-2 -23t-2 -22.5t-3 -21t-4 -18t-4 -15zM73 777h59l152 167h-126z" />
    <glyph glyph-name="uni013B" unicode="&#x13b;" horiz-adv-x="548" 
d="M61 0h456l17 111q-8 -3 -18.5 -6t-22.5 -5.5t-25 -4.5t-27 -4t-28 -3.5l-28 -3t-27.5 -2.5t-26 -1.5t-24 -1t-20.5 -0.5h-85v431v21t0.5 22.5t1 23.5t1.5 24.5t2.5 24t3 22.5t3 20.5t4 17.5t4.5 14h-159q3 -6 5 -14t3.5 -17.5t3 -20.5t3 -22.5t2.5 -24t1.5 -24.5t1 -23.5
t0.5 -22.5v-21v-319v-21t-0.5 -23t-1.5 -24t-2 -24.5t-2.5 -24t-3 -22.5t-3.5 -20.5t-4 -17.5t-5 -14zM275 -292q51 25 78.5 63t27.5 82q0 35 -19.5 56t-46.5 21q-25 0 -41 -16t-16 -38q0 -7 1.5 -13.5t4.5 -11.5t6.5 -9t7.5 -8t8 -7.5t8 -6.5t7.5 -6.5t6.5 -8t4.5 -9
t1.5 -10.5q0 -16 -12 -35t-32 -37z" />
    <glyph glyph-name="uni013C" unicode="&#x13c;" horiz-adv-x="250" 
d="M52 0h146q-2 7 -4.5 15t-4 18t-3 21t-2.5 22.5l-2 23t-1.5 23t-0.5 22.5v21v559l-131 -21q3 -6 5.5 -14.5t4.5 -18t3.5 -20t2.5 -21.5l2 -22t1.5 -22t0.5 -21.5v-19.5v-379v-21t-0.5 -22.5t-1.5 -23l-2 -23t-2 -22.5t-3 -21t-4 -18t-4 -15zM82 -292q51 25 78.5 63
t27.5 82q0 35 -19.5 56t-46.5 21q-25 0 -41 -16t-16 -38q0 -7 1.5 -13.5t4.5 -11.5t6.5 -9t7.5 -8t8 -7.5t8 -6.5t7.5 -6.5t6.5 -8t4.5 -9t1.5 -10.5q0 -16 -12 -35t-32 -37z" />
    <glyph glyph-name="Lcaron" unicode="&#x13d;" horiz-adv-x="548" 
d="M61 0h456l17 111q-8 -3 -18.5 -6t-22.5 -5.5t-25 -4.5t-27 -4t-28 -3.5l-28 -3t-27.5 -2.5t-26 -1.5t-24 -1t-20.5 -0.5h-85v431v21t0.5 22.5t1 23.5t1.5 24.5t2.5 24t3 22.5t3 20.5t4 17.5t4.5 14h-159q3 -6 5 -14t3.5 -17.5t3 -20.5t3 -22.5t2.5 -24t1.5 -24.5t1 -23.5
t0.5 -22.5v-21v-319v-21t-0.5 -23t-1.5 -24t-2 -24.5t-2.5 -24t-3 -22.5t-3.5 -20.5t-4 -17.5t-5 -14zM287 491h47l72 209h-108z" />
    <glyph glyph-name="lcaron" unicode="&#x13e;" horiz-adv-x="340" 
d="M52 0h146q-2 7 -4.5 15t-4 18t-3 21t-2.5 22.5l-2 23t-1.5 23t-0.5 22.5v21v559l-131 -21q3 -6 5.5 -14.5t4.5 -18t3.5 -20t2.5 -21.5l2 -22t1.5 -22t0.5 -21.5v-19.5v-379v-21t-0.5 -22.5t-1.5 -23l-2 -23t-2 -22.5t-3 -21t-4 -18t-4 -15zM241 508h47l72 209h-108z" />
    <glyph glyph-name="Ldot" unicode="&#x13f;" horiz-adv-x="548" 
d="M416 319q30 0 48.5 19.5t18.5 45.5q0 27 -18.5 46.5t-48.5 19.5q-29 0 -47.5 -19.5t-18.5 -46.5q0 -26 18.5 -45.5t47.5 -19.5zM61 0h456l17 111q-8 -3 -18.5 -6t-22.5 -5.5t-25 -4.5t-27 -4t-28 -3.5l-28 -3t-27.5 -2.5t-26 -1.5t-24 -1t-20.5 -0.5h-85v431v21t0.5 22.5
t1 23.5t1.5 24.5t2.5 24t3 22.5t3 20.5t4 17.5t4.5 14h-159q3 -6 5 -14t3.5 -17.5t3 -20.5t3 -22.5t2.5 -24t1.5 -24.5t1 -23.5t0.5 -22.5v-21v-319v-21t-0.5 -23t-1.5 -24t-2 -24.5t-2.5 -24t-3 -22.5t-3.5 -20.5t-4 -17.5t-5 -14z" />
    <glyph glyph-name="ldot" unicode="&#x140;" horiz-adv-x="373" 
d="M244 342q0 -27 19 -46.5t48 -19.5t48 19.5t19 46.5q0 26 -19 45.5t-48 19.5t-48 -19.5t-19 -45.5zM52 0h146q-2 7 -4.5 15t-4 18t-3 21t-2.5 22.5l-2 23t-1.5 23t-0.5 22.5v21v559l-131 -21q3 -6 5.5 -14.5t4.5 -18t3.5 -20t2.5 -21.5l2 -22t1.5 -22t0.5 -21.5v-19.5
v-379v-21t-0.5 -22.5t-1.5 -23l-2 -23t-2 -22.5t-3 -21t-4 -18t-4 -15z" />
    <glyph glyph-name="Lslash" unicode="&#x141;" horiz-adv-x="555" 
d="M68 0h456l17 111q-8 -3 -18.5 -6t-22.5 -5.5t-25 -4.5t-27 -4t-28 -3.5l-28 -3t-27.5 -2.5t-26 -1.5t-24 -1t-20.5 -0.5h-85v218l155 98v83l-155 -98v130v21t0.5 22.5t1 23.5t1.5 24.5t2.5 24t3 22.5t3 20.5t4 17.5t4.5 14h-159q3 -6 5 -14t3.5 -17.5t3 -20.5t3 -22.5
t2.5 -24t1.5 -24.5t1 -23.5t0.5 -22.5v-21v-206l-81 -51v-83l81 51v-30v-21t-0.5 -23t-1.5 -24t-2 -24.5t-2.5 -24t-3 -22.5t-3.5 -20.5t-4 -17.5t-5 -14z" />
    <glyph glyph-name="lslash" unicode="&#x142;" horiz-adv-x="250" 
d="M52 0h146q-2 7 -4.5 15t-4 18t-3 21t-2.5 22.5l-2 23t-1.5 23t-0.5 22.5v21v169l86 61v78l-86 -60v311l-131 -21q3 -6 5.5 -14.5t4.5 -18t3.5 -20t2.5 -21.5l2 -22t1.5 -22t0.5 -21.5v-19.5v-197l-85 -60v-78l85 59v-103v-21t-0.5 -22.5t-1.5 -23l-2 -23t-2 -22.5t-3 -21
t-4 -18t-4 -15z" />
    <glyph glyph-name="Nacute" unicode="&#x143;" horiz-adv-x="724" 
d="M644 511v20.5t0.5 22.5t1.5 24t1.5 24t2 24t3 22.5t3.5 20t4 17.5t5 14h-136q3 -7 5.5 -16t4.5 -20t3.5 -23.5t3 -25.5t2.5 -26.5t1.5 -26.5t1 -25t0.5 -23l2 -277v-4l-32 33l-440 449v-526v-20.5t-0.5 -22.5t-1.5 -24l-2 -24t-2.5 -24t-3 -22.5t-3.5 -20t-4 -17.5
t-5 -14h137q-3 6 -5.5 14.5t-4.5 19t-4 22t-3 24l-2 25t-1.5 24.5l-1 24t-0.5 22l-2 287v3l31 -33l441 -447v526zM315 759h60l148 147h-125z" />
    <glyph glyph-name="nacute" unicode="&#x144;" horiz-adv-x="558" 
d="M52 0h145q-2 6 -4 14.5t-4 18t-3 20.5t-2 22.5l-2 23t-1.5 22.5t-0.5 22v20v204q25 28 52 44.5t58 16.5q40 0 65.5 -26t25.5 -75v-164v-20t-0.5 -22t-1.5 -22.5t-1.5 -23t-2 -22.5t-3 -20.5t-3.5 -18t-4 -14.5h145q-3 6 -5 14.5t-3.5 18.5t-3 21t-2.5 22.5l-2 23t-1.5 23
t-0.5 22.5v21v177q0 77 -42.5 121.5t-111.5 44.5q-49 0 -90 -26t-68 -68v88l-131 -22q3 -6 5.5 -14t4.5 -18t3.5 -20.5t2.5 -21.5t2 -22.5t1.5 -22.5t0.5 -21v-19v-156v-21t-0.5 -22.5t-1.5 -23l-2 -23t-2 -22.5t-3 -21t-4 -18.5t-4 -14.5zM229 557h59l152 167h-126z" />
    <glyph glyph-name="uni0145" unicode="&#x145;" horiz-adv-x="724" 
d="M644 511v20.5t0.5 22.5t1.5 24t1.5 24t2 24t3 22.5t3.5 20t4 17.5t5 14h-136q3 -7 5.5 -16t4.5 -20t3.5 -23.5t3 -25.5t2.5 -26.5t1.5 -26.5t1 -25t0.5 -23l2 -277v-4l-32 33l-440 449v-526v-20.5t-0.5 -22.5t-1.5 -24l-2 -24t-2.5 -24t-3 -22.5t-3.5 -20t-4 -17.5
t-5 -14h137q-3 6 -5.5 14.5t-4.5 19t-4 22t-3 24l-2 25t-1.5 24.5l-1 24t-0.5 22l-2 287v3l31 -33l441 -447v526zM336 -292q51 25 78.5 63t27.5 82q0 35 -19.5 56t-46.5 21q-25 0 -41 -16t-16 -38q0 -7 1.5 -13.5t4.5 -11.5t6.5 -9t7.5 -8t8 -7.5t8 -6.5t7.5 -6.5t6.5 -8
t4.5 -9t1.5 -10.5q0 -16 -12 -35t-32 -37z" />
    <glyph glyph-name="uni0146" unicode="&#x146;" horiz-adv-x="558" 
d="M52 0h145q-2 6 -4 14.5t-4 18t-3 20.5t-2 22.5l-2 23t-1.5 22.5t-0.5 22v20v204q25 28 52 44.5t58 16.5q40 0 65.5 -26t25.5 -75v-164v-20t-0.5 -22t-1.5 -22.5t-1.5 -23t-2 -22.5t-3 -20.5t-3.5 -18t-4 -14.5h145q-3 6 -5 14.5t-3.5 18.5t-3 21t-2.5 22.5l-2 23t-1.5 23
t-0.5 22.5v21v177q0 77 -42.5 121.5t-111.5 44.5q-49 0 -90 -26t-68 -68v88l-131 -22q3 -6 5.5 -14t4.5 -18t3.5 -20.5t2.5 -21.5t2 -22.5t1.5 -22.5t0.5 -21v-19v-156v-21t-0.5 -22.5t-1.5 -23l-2 -23t-2 -22.5t-3 -21t-4 -18.5t-4 -14.5zM246 -292q51 25 78.5 63t27.5 82
q0 35 -19.5 56t-46.5 21q-25 0 -41 -16t-16 -38q0 -7 1.5 -13.5t4.5 -11.5t6.5 -9t7.5 -8t8 -7.5t8 -6.5t7.5 -6.5t6.5 -8t4.5 -9t1.5 -10.5q0 -16 -12 -35t-32 -37z" />
    <glyph glyph-name="Ncaron" unicode="&#x147;" horiz-adv-x="724" 
d="M644 511v20.5t0.5 22.5t1.5 24t1.5 24t2 24t3 22.5t3.5 20t4 17.5t5 14h-136q3 -7 5.5 -16t4.5 -20t3.5 -23.5t3 -25.5t2.5 -26.5t1.5 -26.5t1 -25t0.5 -23l2 -277v-4l-32 33l-440 449v-526v-20.5t-0.5 -22.5t-1.5 -24l-2 -24t-2.5 -24t-3 -22.5t-3.5 -20t-4 -17.5
t-5 -14h137q-3 6 -5.5 14.5t-4.5 19t-4 22t-3 24l-2 25t-1.5 24.5l-1 24t-0.5 22l-2 287v3l31 -33l441 -447v526zM319 759h96l115 147h-54l-108 -85l-109 85h-55z" />
    <glyph glyph-name="ncaron" unicode="&#x148;" horiz-adv-x="558" 
d="M52 0h145q-2 6 -4 14.5t-4 18t-3 20.5t-2 22.5l-2 23t-1.5 22.5t-0.5 22v20v204q25 28 52 44.5t58 16.5q40 0 65.5 -26t25.5 -75v-164v-20t-0.5 -22t-1.5 -22.5t-1.5 -23t-2 -22.5t-3 -20.5t-3.5 -18t-4 -14.5h145q-3 6 -5 14.5t-3.5 18.5t-3 21t-2.5 22.5l-2 23t-1.5 23
t-0.5 22.5v21v177q0 77 -42.5 121.5t-111.5 44.5q-49 0 -90 -26t-68 -68v88l-131 -22q3 -6 5.5 -14t4.5 -18t3.5 -20.5t2.5 -21.5t2 -22.5t1.5 -22.5t0.5 -21v-19v-156v-21t-0.5 -22.5t-1.5 -23l-2 -23t-2 -22.5t-3 -21t-4 -18.5t-4 -14.5zM233 557h96l115 167h-54
l-108 -101l-109 101h-55z" />
    <glyph glyph-name="Eng" unicode="&#x14a;" horiz-adv-x="724" 
d="M59 0h137q-3 6 -5.5 14.5t-4.5 19t-4 22t-3 24l-2 25t-1.5 24.5l-1 24t-0.5 22l-3 294l49 -48l325 -337v-131q0 -38 -20 -58.5t-53 -20.5q-21 0 -41.5 5.5t-39.5 13.5l2 -81q20 -9 47 -14t53 -5q68 0 109.5 40.5t41.5 116.5v561v20.5t0.5 22.5t1.5 24t1.5 24t2 24t3 22.5
t3.5 20t4 17.5t5 14h-137q3 -7 5.5 -16t4.5 -20t3.5 -23.5t3 -25.5t2 -26.5t1.5 -26.5t1 -25v-23l2 -281l-470 482v-526v-20.5t-0.5 -22.5t-1.5 -24l-2 -24t-2.5 -24t-3 -22.5t-3.5 -20t-4 -17.5t-5 -14z" />
    <glyph glyph-name="eng" unicode="&#x14b;" horiz-adv-x="556" 
d="M52 0h145q-2 6 -4 14.5t-4 18t-3 20.5t-2 22.5l-2 23t-1.5 22.5t-0.5 22v20v204q25 28 52 44.5t58 16.5q40 0 65.5 -26t25.5 -75v-398q0 -29 -14 -44t-40 -15q-15 0 -31.5 3.5t-31.5 9.5l7 -76q16 -6 37 -10t42 -4q66 0 104 35.5t38 104.5v410q0 77 -42.5 121.5
t-111.5 44.5q-49 0 -90 -26t-68 -68v88l-131 -22q3 -6 5.5 -14t4.5 -18t3.5 -20.5t2.5 -21.5t2 -22.5t1.5 -22.5t0.5 -21v-19v-156v-21t-0.5 -22.5t-1.5 -23l-2 -23t-2 -22.5t-3 -21t-4 -18.5t-4 -14.5z" />
    <glyph glyph-name="Omacron" unicode="&#x14c;" horiz-adv-x="771" 
d="M736 350q0 32 -4.5 62t-13 58t-21 53t-28.5 47.5t-35 41.5t-40.5 35t-46 28t-50.5 20.5t-53.5 13t-56.5 4.5t-57.5 -4.5t-54.5 -13t-50.5 -21t-46 -28.5t-41 -35.5t-35.5 -42t-28.5 -47.5t-21 -52.5t-13 -57.5t-4.5 -61q0 -32 4.5 -62t13 -58t21 -53t28.5 -47.5t35 -41.5
t40.5 -35t46 -28t50.5 -20.5t53.5 -13t56.5 -4.5t57.5 4.5t54.5 13t50.5 21t46 28.5t41 35.5t35.5 42t28.5 47.5t21 52.5t13 57.5t4.5 61zM161 349q0 32 4.5 61t13 55t20.5 47.5t27 40t33 32t38.5 23t43 14.5t46.5 5t46 -5t42 -14.5t38 -23.5t33 -32t27 -40t20 -47.5
t12.5 -54.5t4.5 -61t-4.5 -61t-13 -54.5t-20 -47.5t-27 -40t-33.5 -31.5t-38.5 -23t-43 -14.5t-46.5 -5q-23 0 -45 5t-42.5 14.5t-38 23.5t-32.5 32t-27 40t-20.5 47t-13 54t-4.5 61zM247 793h280v68h-280v-68z" />
    <glyph glyph-name="omacron" unicode="&#x14d;" horiz-adv-x="549" 
d="M275 -10q26 0 50.5 5t46.5 14.5t41.5 23t36 31t29.5 38t22 44t13.5 50t4.5 54.5t-4.5 54t-13.5 49.5t-22 44t-29.5 38t-36 31t-41.5 23t-46.5 14.5t-50.5 5q-23 0 -45 -4t-42.5 -11.5t-38.5 -18.5t-34 -25t-29 -31t-23.5 -36.5t-17.5 -41t-11 -45t-4 -48.5q0 -28 4.5 -54
t13.5 -49.5t22 -44t29.5 -37.5t36 -30.5t41.5 -23t47 -14.5t51 -5zM275 64q-58 0 -94.5 49t-36.5 135t36.5 135.5t93.5 49.5q58 0 94.5 -49.5t36.5 -135.5t-36 -135t-94 -49zM134 598h280v68h-280v-68z" />
    <glyph glyph-name="Obreve" unicode="&#x14e;" horiz-adv-x="771" 
d="M736 350q0 32 -4.5 62t-13 58t-21 53t-28.5 47.5t-35 41.5t-40.5 35t-46 28t-50.5 20.5t-53.5 13t-56.5 4.5t-57.5 -4.5t-54.5 -13t-50.5 -21t-46 -28.5t-41 -35.5t-35.5 -42t-28.5 -47.5t-21 -52.5t-13 -57.5t-4.5 -61q0 -32 4.5 -62t13 -58t21 -53t28.5 -47.5t35 -41.5
t40.5 -35t46 -28t50.5 -20.5t53.5 -13t56.5 -4.5t57.5 4.5t54.5 13t50.5 21t46 28.5t41 35.5t35.5 42t28.5 47.5t21 52.5t13 57.5t4.5 61zM161 349q0 32 4.5 61t13 55t20.5 47.5t27 40t33 32t38.5 23t43 14.5t46.5 5t46 -5t42 -14.5t38 -23.5t33 -32t27 -40t20 -47.5
t12.5 -54.5t4.5 -61t-4.5 -61t-13 -54.5t-20 -47.5t-27 -40t-33.5 -31.5t-38.5 -23t-43 -14.5t-46.5 -5q-23 0 -45 5t-42.5 14.5t-38 23.5t-32.5 32t-27 40t-20.5 47t-13 54t-4.5 61zM387 758q64 0 105.5 37.5t46.5 104.5h-15q-15 -34 -50.5 -52.5t-86.5 -18.5t-86.5 18.5
t-50.5 52.5h-15q5 -67 46.5 -104.5t105.5 -37.5z" />
    <glyph glyph-name="obreve" unicode="&#x14f;" horiz-adv-x="549" 
d="M275 -10q26 0 50.5 5t46.5 14.5t41.5 23t36 31t29.5 38t22 44t13.5 50t4.5 54.5t-4.5 54t-13.5 49.5t-22 44t-29.5 38t-36 31t-41.5 23t-46.5 14.5t-50.5 5q-23 0 -45 -4t-42.5 -11.5t-38.5 -18.5t-34 -25t-29 -31t-23.5 -36.5t-17.5 -41t-11 -45t-4 -48.5q0 -28 4.5 -54
t13.5 -49.5t22 -44t29.5 -37.5t36 -30.5t41.5 -23t47 -14.5t51 -5zM275 64q-58 0 -94.5 49t-36.5 135t36.5 135.5t93.5 49.5q58 0 94.5 -49.5t36.5 -135.5t-36 -135t-94 -49zM274 556q63 0 103.5 42t46.5 119h-16q-18 -40 -51 -65t-83 -25t-83 25t-51 65h-16
q6 -77 46.5 -119t103.5 -42z" />
    <glyph glyph-name="Ohungarumlaut" unicode="&#x150;" horiz-adv-x="771" 
d="M736 350q0 32 -4.5 62t-13 58t-21 53t-28.5 47.5t-35 41.5t-40.5 35t-46 28t-50.5 20.5t-53.5 13t-56.5 4.5t-57.5 -4.5t-54.5 -13t-50.5 -21t-46 -28.5t-41 -35.5t-35.5 -42t-28.5 -47.5t-21 -52.5t-13 -57.5t-4.5 -61q0 -32 4.5 -62t13 -58t21 -53t28.5 -47.5t35 -41.5
t40.5 -35t46 -28t50.5 -20.5t53.5 -13t56.5 -4.5t57.5 4.5t54.5 13t50.5 21t46 28.5t41 35.5t35.5 42t28.5 47.5t21 52.5t13 57.5t4.5 61zM161 349q0 32 4.5 61t13 55t20.5 47.5t27 40t33 32t38.5 23t43 14.5t46.5 5t46 -5t42 -14.5t38 -23.5t33 -32t27 -40t20 -47.5
t12.5 -54.5t4.5 -61t-4.5 -61t-13 -54.5t-20 -47.5t-27 -40t-33.5 -31.5t-38.5 -23t-43 -14.5t-46.5 -5q-23 0 -45 5t-42.5 14.5t-38 23.5t-32.5 32t-27 40t-20.5 47t-13 54t-4.5 61zM256 759h61l137 147h-113zM426 759h61l138 147h-114z" />
    <glyph glyph-name="ohungarumlaut" unicode="&#x151;" horiz-adv-x="549" 
d="M275 -10q26 0 50.5 5t46.5 14.5t41.5 23t36 31t29.5 38t22 44t13.5 50t4.5 54.5t-4.5 54t-13.5 49.5t-22 44t-29.5 38t-36 31t-41.5 23t-46.5 14.5t-50.5 5q-23 0 -45 -4t-42.5 -11.5t-38.5 -18.5t-34 -25t-29 -31t-23.5 -36.5t-17.5 -41t-11 -45t-4 -48.5q0 -28 4.5 -54
t13.5 -49.5t22 -44t29.5 -37.5t36 -30.5t41.5 -23t47 -14.5t51 -5zM275 64q-58 0 -94.5 49t-36.5 135t36.5 135.5t93.5 49.5q58 0 94.5 -49.5t36.5 -135.5t-36 -135t-94 -49zM143 557h61l141 167h-114zM313 557h61l142 167h-115z" />
    <glyph glyph-name="OE" unicode="&#x152;" horiz-adv-x="983" 
d="M411 0h535l17 111q-8 -3 -18.5 -6t-22.5 -5.5t-25 -5t-27 -4.5t-28 -3.5l-28 -3t-27.5 -2.5t-26 -1.5t-24 -1t-20.5 -0.5h-88v244h42q49 0 91.5 -4t81.5 -13l-22 111q-32 -7 -71.5 -11.5t-80.5 -4.5h-41v218h83q13 0 27 -0.5t29.5 -1t31.5 -2t32 -3.5t31.5 -4t30 -5
t27.5 -6.5t24 -7.5l-19 112h-514q-36 0 -69.5 -5t-64.5 -15.5t-59 -25t-52.5 -33.5t-44.5 -41.5t-36 -49t-27 -56t-17 -61.5t-6 -67q0 -33 5.5 -64.5t16 -60t26 -54t35.5 -48t44.5 -41t52 -33t59 -24.5t66 -15.5t71.5 -5.5zM418 79q-28 0 -54.5 5t-50 14.5t-44 23.5
t-38 31.5t-31 39t-22.5 46t-14 52t-5 57.5t5 57.5t14 52t22.5 46t31 39.5t38 32t44 23.5t50 14.5t54.5 5h92v-539h-92z" />
    <glyph glyph-name="oe" unicode="&#x153;" horiz-adv-x="892" 
d="M275 -10q59 0 108 27t80 73q32 -47 84.5 -73.5t117.5 -26.5q44 0 88.5 12.5t73.5 32.5l10 82q-35 -25 -75 -39t-80 -14q-69 0 -113 45t-49 126h342q1 124 -60 199t-163 75q-57 0 -102.5 -26.5t-74.5 -71.5q-31 46 -80 72t-107 26q-23 0 -45 -4t-42.5 -11.5t-38.5 -18.5
t-34 -25t-29 -31t-23.5 -36.5t-17.5 -41t-11 -45t-4 -48.5q0 -28 4.5 -54t13.5 -49.5t22 -44t29.5 -37.5t36 -30.5t41.5 -23t47 -14.5t51 -5zM640 434q44 0 75.5 -32.5t40.5 -97.5h-234q8 60 39 95t79 35zM275 64q-58 0 -94.5 49t-36.5 135t36.5 135.5t93.5 49.5
q58 0 94.5 -49.5t36.5 -135.5t-36 -135t-94 -49z" />
    <glyph glyph-name="Racute" unicode="&#x154;" horiz-adv-x="622" 
d="M63 0h157q-2 6 -4.5 14t-4 17.5t-3 20.5t-3 22.5t-2.5 24t-1.5 24.5t-1 23.5t-0.5 22.5v21v105h104l179 -295h140q-19 24 -49 68t-52 80l-104 167q63 22 101 71.5t38 115.5q0 90 -66 144t-181 54h-250q3 -6 5 -14t4 -17.5t4 -20.5t3.5 -23t2.5 -24t1.5 -24l1 -24t1 -23
t0.5 -21v-319v-21t-0.5 -22.5t-1 -23.5t-1.5 -24.5t-2.5 -24t-3 -22.5t-3 -20.5t-4 -17.5t-4.5 -14zM297 618q66 0 105 -31.5t39 -88.5q0 -59 -40 -91.5t-106 -32.5h-95v244h97zM256 759h60l148 147h-125z" />
    <glyph glyph-name="racute" unicode="&#x155;" horiz-adv-x="374" 
d="M52 0h147q-3 7 -5 15t-4 18t-3.5 21t-2.5 22.5t-1.5 23t-1.5 23t-1 22.5v21v160q23 40 52.5 63.5t69.5 23.5q16 0 32.5 -2.5t27.5 -6.5l-7 99q-6 2 -17 4t-23 2q-39 0 -76 -31.5t-59 -98.5v124l-131 -22q3 -6 5.5 -14.5t4.5 -18t3.5 -20t2.5 -21.5l2 -22t1.5 -22
t0.5 -21.5v-19.5v-156v-21t-0.5 -22.5t-1.5 -23l-2 -23t-2 -22.5t-3 -21t-4 -18t-4 -15zM171 557h59l152 167h-126z" />
    <glyph glyph-name="uni0156" unicode="&#x156;" horiz-adv-x="622" 
d="M63 0h157q-2 6 -4.5 14t-4 17.5t-3 20.5t-3 22.5t-2.5 24t-1.5 24.5t-1 23.5t-0.5 22.5v21v105h104l179 -295h140q-19 24 -49 68t-52 80l-104 167q63 22 101 71.5t38 115.5q0 90 -66 144t-181 54h-250q3 -6 5 -14t4 -17.5t4 -20.5t3.5 -23t2.5 -24t1.5 -24l1 -24t1 -23
t0.5 -21v-319v-21t-0.5 -22.5t-1 -23.5t-1.5 -24.5t-2.5 -24t-3 -22.5t-3 -20.5t-4 -17.5t-4.5 -14zM297 618q66 0 105 -31.5t39 -88.5q0 -59 -40 -91.5t-106 -32.5h-95v244h97zM310 -292q51 25 78.5 63t27.5 82q0 35 -19.5 56t-46.5 21q-25 0 -41 -16t-16 -38
q0 -7 1.5 -13.5t4.5 -11.5t6.5 -9t7.5 -8t8 -7.5t8 -6.5t7.5 -6.5t6.5 -8t4.5 -9t1.5 -10.5q0 -16 -12 -35t-32 -37z" />
    <glyph glyph-name="uni0157" unicode="&#x157;" horiz-adv-x="374" 
d="M52 0h147q-3 7 -5 15t-4 18t-3.5 21t-2.5 22.5t-1.5 23t-1.5 23t-1 22.5v21v160q23 40 52.5 63.5t69.5 23.5q16 0 32.5 -2.5t27.5 -6.5l-7 99q-6 2 -17 4t-23 2q-39 0 -76 -31.5t-59 -98.5v124l-131 -22q3 -6 5.5 -14.5t4.5 -18t3.5 -20t2.5 -21.5l2 -22t1.5 -22
t0.5 -21.5v-19.5v-156v-21t-0.5 -22.5t-1.5 -23l-2 -23t-2 -22.5t-3 -21t-4 -18t-4 -15zM82 -292q51 25 78.5 63t27.5 82q0 35 -19.5 56t-46.5 21q-25 0 -41 -16t-16 -38q0 -7 1.5 -13.5t4.5 -11.5t6.5 -9t7.5 -8t8 -7.5t8 -6.5t7.5 -6.5t6.5 -8t4.5 -9t1.5 -10.5
q0 -16 -12 -35t-32 -37z" />
    <glyph glyph-name="Rcaron" unicode="&#x158;" horiz-adv-x="622" 
d="M63 0h157q-2 6 -4.5 14t-4 17.5t-3 20.5t-3 22.5t-2.5 24t-1.5 24.5t-1 23.5t-0.5 22.5v21v105h104l179 -295h140q-19 24 -49 68t-52 80l-104 167q63 22 101 71.5t38 115.5q0 90 -66 144t-181 54h-250q3 -6 5 -14t4 -17.5t4 -20.5t3.5 -23t2.5 -24t1.5 -24l1 -24t1 -23
t0.5 -21v-319v-21t-0.5 -22.5t-1 -23.5t-1.5 -24.5t-2.5 -24t-3 -22.5t-3 -20.5t-4 -17.5t-4.5 -14zM297 618q66 0 105 -31.5t39 -88.5q0 -59 -40 -91.5t-106 -32.5h-95v244h97zM260 759h96l115 147h-54l-108 -85l-109 85h-55z" />
    <glyph glyph-name="rcaron" unicode="&#x159;" horiz-adv-x="374" 
d="M52 0h147q-3 7 -5 15t-4 18t-3.5 21t-2.5 22.5t-1.5 23t-1.5 23t-1 22.5v21v160q23 40 52.5 63.5t69.5 23.5q16 0 32.5 -2.5t27.5 -6.5l-7 99q-6 2 -17 4t-23 2q-39 0 -76 -31.5t-59 -98.5v124l-131 -22q3 -6 5.5 -14.5t4.5 -18t3.5 -20t2.5 -21.5l2 -22t1.5 -22
t0.5 -21.5v-19.5v-156v-21t-0.5 -22.5t-1.5 -23l-2 -23t-2 -22.5t-3 -21t-4 -18t-4 -15zM175 557h96l115 167h-54l-108 -101l-109 101h-55z" />
    <glyph glyph-name="Sacute" unicode="&#x15a;" horiz-adv-x="510" 
d="M259 -9q23 0 45 3.5t42.5 10.5t38 17.5t32.5 23.5t27 29t20.5 34t13 38.5t4.5 42.5q0 20 -3.5 37t-10 32t-15 28t-19.5 24.5t-23 21.5t-25.5 18.5t-28 16.5t-29 15.5t-29 14.5t-29 13.5t-28 13.5t-25.5 14.5t-22.5 15.5t-19.5 17t-15 19t-9.5 22t-3.5 25q0 40 28 66.5
t75 26.5q45 0 97.5 -23t103.5 -63l-23 133q-37 1 -83 16t-103 15q-23 0 -44.5 -3.5t-40.5 -11t-35.5 -17.5t-30 -22.5t-24 -27.5t-17.5 -32t-10.5 -35.5t-3.5 -38.5t3.5 -37.5t9.5 -33t14.5 -29t19.5 -25t23 -21.5t25.5 -19.5t27.5 -17.5t29 -15.5t29.5 -14.5t28.5 -14
t27.5 -14t25.5 -14t23 -15t19.5 -17t14.5 -19t9.5 -21.5t3.5 -24.5q1 -47 -32.5 -75t-80.5 -28q-53 0 -112.5 25.5t-121.5 74.5l26 -139q11 0 21.5 -1.5t22 -4t23.5 -6t25 -6.5t27 -6.5t28.5 -6t30.5 -4t33 -1.5zM193 759h60l148 147h-125z" />
    <glyph glyph-name="sacute" unicode="&#x15b;" horiz-adv-x="420" 
d="M212 -9q75 0 125.5 42t50.5 110q0 17 -3 31t-9 26t-14 22t-17.5 18.5t-20.5 15.5t-23 13.5t-24 12t-24.5 10.5t-24.5 9.5t-23 9.5t-20.5 10.5t-17.5 11.5t-14 13t-9 15t-3 18q0 26 19 42.5t53 16.5q37 0 77.5 -17.5t77.5 -50.5l-19 116q-29 -1 -64.5 10.5t-81.5 11.5
q-72 0 -117.5 -39.5t-45.5 -102.5q0 -17 3 -31t9 -26.5t13.5 -22.5t17.5 -19t20.5 -16t22.5 -13.5t24.5 -12t24.5 -10.5l24 -10t22.5 -10t20.5 -10.5t17.5 -12t13.5 -13.5t9 -15.5t3 -18.5q0 -29 -22.5 -47.5t-59.5 -18.5q-45 0 -91 20t-86 57l22 -119q32 1 70.5 -12.5
t93.5 -13.5zM162 557h59l152 167h-126z" />
    <glyph glyph-name="Scircumflex" unicode="&#x15c;" horiz-adv-x="510" 
d="M259 -9q23 0 45 3.5t42.5 10.5t38 17.5t32.5 23.5t27 29t20.5 34t13 38.5t4.5 42.5q0 20 -3.5 37t-10 32t-15 28t-19.5 24.5t-23 21.5t-25.5 18.5t-28 16.5t-29 15.5t-29 14.5t-29 13.5t-28 13.5t-25.5 14.5t-22.5 15.5t-19.5 17t-15 19t-9.5 22t-3.5 25q0 40 28 66.5
t75 26.5q45 0 97.5 -23t103.5 -63l-23 133q-37 1 -83 16t-103 15q-23 0 -44.5 -3.5t-40.5 -11t-35.5 -17.5t-30 -22.5t-24 -27.5t-17.5 -32t-10.5 -35.5t-3.5 -38.5t3.5 -37.5t9.5 -33t14.5 -29t19.5 -25t23 -21.5t25.5 -19.5t27.5 -17.5t29 -15.5t29.5 -14.5t28.5 -14
t27.5 -14t25.5 -14t23 -15t19.5 -17t14.5 -19t9.5 -21.5t3.5 -24.5q1 -47 -32.5 -75t-80.5 -28q-53 0 -112.5 25.5t-121.5 74.5l26 -139q11 0 21.5 -1.5t22 -4t23.5 -6t25 -6.5t27 -6.5t28.5 -6t30.5 -4t33 -1.5zM82 759h54l109 85l108 -85h55l-115 147h-96z" />
    <glyph glyph-name="scircumflex" unicode="&#x15d;" horiz-adv-x="420" 
d="M212 -9q75 0 125.5 42t50.5 110q0 17 -3 31t-9 26t-14 22t-17.5 18.5t-20.5 15.5t-23 13.5t-24 12t-24.5 10.5t-24.5 9.5t-23 9.5t-20.5 10.5t-17.5 11.5t-14 13t-9 15t-3 18q0 26 19 42.5t53 16.5q37 0 77.5 -17.5t77.5 -50.5l-19 116q-29 -1 -64.5 10.5t-81.5 11.5
q-72 0 -117.5 -39.5t-45.5 -102.5q0 -17 3 -31t9 -26.5t13.5 -22.5t17.5 -19t20.5 -16t22.5 -13.5t24.5 -12t24.5 -10.5l24 -10t22.5 -10t20.5 -10.5t17.5 -12t13.5 -13.5t9 -15.5t3 -18.5q0 -29 -22.5 -47.5t-59.5 -18.5q-45 0 -91 20t-86 57l22 -119q32 1 70.5 -12.5
t93.5 -13.5zM51 557h54l109 102l108 -102h55l-115 167h-96z" />
    <glyph glyph-name="uni015E" unicode="&#x15e;" horiz-adv-x="510" 
d="M253 -213q51 0 83 24.5t32 64.5q0 33 -26.5 54t-66.5 21h-6t-6 -1l23 42q84 8 140 62t56 136q0 20 -3.5 37t-10 32t-15 28t-19.5 24.5t-23 21.5t-25.5 18.5t-28 16.5t-29 15.5t-29 14.5t-29 13.5t-28 13.5t-25.5 14.5t-22.5 15.5t-19.5 17t-15 19t-9.5 22t-3.5 25
q0 40 28 66.5t75 26.5q45 0 97.5 -23t103.5 -63l-23 133q-37 1 -83 16t-103 15q-23 0 -44.5 -3.5t-40.5 -11t-35.5 -17.5t-30 -22.5t-24 -27.5t-17.5 -32t-10.5 -35.5t-3.5 -38.5t3.5 -37.5t9.5 -33t14.5 -29t19.5 -25t23 -21.5t25.5 -19.5t27.5 -17.5t29 -15.5t29.5 -14.5
t28.5 -14t27.5 -14t25.5 -14t23 -15t19.5 -17t14.5 -19t9.5 -21.5t3.5 -24.5q1 -47 -32.5 -75t-80.5 -28q-53 0 -112.5 25.5t-121.5 74.5l26 -139q38 0 83.5 -15.5t104.5 -19.5l-46 -87l5 -4q10 3 23 4.5t26 1.5q22 0 36.5 -8.5t14.5 -22.5q0 -15 -15 -24t-41 -9
q-23 0 -46 6t-42 16l6 -60q17 -7 43.5 -12.5t52.5 -5.5z" />
    <glyph glyph-name="uni015F" unicode="&#x15f;" horiz-adv-x="420" 
d="M197 -213q51 0 83 24.5t32 64.5q0 33 -26.5 54t-66.5 21h-6t-6 -1l22 42q69 4 114 45.5t45 105.5q0 17 -3 31t-9 26t-14 22t-17.5 18.5t-20.5 15.5t-23 13.5t-24 12t-24.5 10.5t-24.5 9.5t-23 9.5t-20.5 10.5t-17.5 11.5t-14 13t-9 15t-3 18q0 26 19 42.5t53 16.5
q37 0 77.5 -17.5t77.5 -50.5l-19 116q-29 -1 -64.5 10.5t-81.5 11.5q-72 0 -117.5 -39.5t-45.5 -102.5q0 -17 3 -31t9 -26.5t13.5 -22.5t17.5 -19t20.5 -16t22.5 -13.5t24.5 -12t24.5 -10.5l24 -10t22.5 -10t20.5 -10.5t17.5 -12t13.5 -13.5t9 -15.5t3 -18.5
q0 -29 -22.5 -47.5t-59.5 -18.5q-45 0 -91 20t-86 57l22 -119q28 1 59 -9.5t74 -14.5l-47 -88l5 -4q10 3 23 4.5t26 1.5q22 0 36.5 -8.5t14.5 -22.5q0 -15 -15 -24t-41 -9q-23 0 -46 6t-42 16l6 -60q17 -7 43.5 -12.5t52.5 -5.5z" />
    <glyph glyph-name="Scaron" unicode="&#x160;" horiz-adv-x="510" 
d="M259 -9q23 0 45 3.5t42.5 10.5t38 17.5t32.5 23.5t27 29t20.5 34t13 38.5t4.5 42.5q0 20 -3.5 37t-10 32t-15 28t-19.5 24.5t-23 21.5t-25.5 18.5t-28 16.5t-29 15.5t-29 14.5t-29 13.5t-28 13.5t-25.5 14.5t-22.5 15.5t-19.5 17t-15 19t-9.5 22t-3.5 25q0 40 28 66.5
t75 26.5q45 0 97.5 -23t103.5 -63l-23 133q-37 1 -83 16t-103 15q-23 0 -44.5 -3.5t-40.5 -11t-35.5 -17.5t-30 -22.5t-24 -27.5t-17.5 -32t-10.5 -35.5t-3.5 -38.5t3.5 -37.5t9.5 -33t14.5 -29t19.5 -25t23 -21.5t25.5 -19.5t27.5 -17.5t29 -15.5t29.5 -14.5t28.5 -14
t27.5 -14t25.5 -14t23 -15t19.5 -17t14.5 -19t9.5 -21.5t3.5 -24.5q1 -47 -32.5 -75t-80.5 -28q-53 0 -112.5 25.5t-121.5 74.5l26 -139q11 0 21.5 -1.5t22 -4t23.5 -6t25 -6.5t27 -6.5t28.5 -6t30.5 -4t33 -1.5zM197 759h96l115 147h-54l-108 -85l-109 85h-55z" />
    <glyph glyph-name="scaron" unicode="&#x161;" horiz-adv-x="420" 
d="M212 -9q75 0 125.5 42t50.5 110q0 17 -3 31t-9 26t-14 22t-17.5 18.5t-20.5 15.5t-23 13.5t-24 12t-24.5 10.5t-24.5 9.5t-23 9.5t-20.5 10.5t-17.5 11.5t-14 13t-9 15t-3 18q0 26 19 42.5t53 16.5q37 0 77.5 -17.5t77.5 -50.5l-19 116q-29 -1 -64.5 10.5t-81.5 11.5
q-72 0 -117.5 -39.5t-45.5 -102.5q0 -17 3 -31t9 -26.5t13.5 -22.5t17.5 -19t20.5 -16t22.5 -13.5t24.5 -12t24.5 -10.5l24 -10t22.5 -10t20.5 -10.5t17.5 -12t13.5 -13.5t9 -15.5t3 -18.5q0 -29 -22.5 -47.5t-59.5 -18.5q-45 0 -91 20t-86 57l22 -119q32 1 70.5 -12.5
t93.5 -13.5zM166 557h96l115 167h-54l-108 -100l-109 100h-55z" />
    <glyph glyph-name="uni0162" unicode="&#x162;" horiz-adv-x="605" 
d="M222 0h55l-50 -95l5 -4q10 3 23 4.5t26 1.5q22 0 36.5 -8.5t14.5 -22.5q0 -15 -15 -24t-41 -9q-23 0 -46 6t-42 16l6 -60q17 -7 43.5 -12.5t52.5 -5.5q51 0 83 24.5t32 64.5q0 33 -26.5 54.5t-66.5 21.5h-5.5t-5.5 -1l26 49h56q-3 6 -5 14t-4 17.5t-3.5 20.5t-3 22.5
t-2 24t-1.5 24.5t-1.5 23.5t-0.5 22.5v21v428h39q50 0 104.5 -6t97.5 -24l-19 112h-563l-19 -112q43 18 97.5 24t104.5 6h39v-428v-21t-0.5 -22.5t-1.5 -23.5t-1.5 -24.5t-2 -24t-3 -22.5t-3.5 -20.5t-4 -17.5t-5 -14z" />
    <glyph glyph-name="uni0163" unicode="&#x163;" horiz-adv-x="349" 
d="M211 -213q51 0 83 24.5t32 64.5q0 33 -26.5 54t-66.5 21h-6t-6 -1l22 40q25 1 48.5 7.5t39.5 14.5l6 70q-12 -6 -28.5 -11.5t-33.5 -5.5q-28 0 -43.5 15t-15.5 46v302h121v70h-121v129l-111 -25v-104h-89l-16 -70h105v-314q0 -50 23 -81t67 -39l-47 -89l5 -4q10 3 23 4.5
t26 1.5q22 0 36.5 -8.5t14.5 -22.5q0 -15 -15 -24t-41 -9q-23 0 -46 6t-42 16l6 -60q17 -7 43.5 -12.5t52.5 -5.5z" />
    <glyph glyph-name="Tcaron" unicode="&#x164;" horiz-adv-x="605" 
d="M222 0h161q-3 6 -5 14t-4 17.5t-3.5 20.5t-3 22.5t-2 24t-1.5 24.5t-1.5 23.5t-0.5 22.5v21v428h39q50 0 104.5 -6t97.5 -24l-19 112h-563l-19 -112q43 18 97.5 24t104.5 6h39v-428v-21t-0.5 -22.5t-1.5 -23.5t-1.5 -24.5t-2 -24t-3 -22.5t-3.5 -20.5t-4 -17.5t-5 -14z
M254 759h96l115 147h-54l-108 -85l-109 85h-55z" />
    <glyph glyph-name="tcaron" unicode="&#x165;" horiz-adv-x="349" 
d="M283 740l-11 -189h51l69 189h-109zM233 -10q28 0 54 6.5t44 15.5l6 70q-12 -6 -28.5 -11.5t-33.5 -5.5q-28 0 -43.5 15t-15.5 46v302h121v70h-121v129l-111 -25v-104h-89l-16 -70h105v-314q0 -60 33 -92t95 -32z" />
    <glyph glyph-name="Tbar" unicode="&#x166;" horiz-adv-x="605" 
d="M222 0h161q-3 6 -5 14t-4 17.5t-3.5 20.5t-3 22.5t-2 24t-1.5 24.5t-1.5 23.5t-0.5 22.5v21v122h124l15 72h-139v234h39q50 0 104.5 -6t97.5 -24l-19 112h-563l-19 -112q43 18 97.5 24t104.5 6h39v-234h-124l-15 -72h139v-122v-21t-0.5 -22.5t-1.5 -23.5t-1.5 -24.5
t-2 -24t-3 -22.5t-3.5 -20.5t-4 -17.5t-5 -14z" />
    <glyph glyph-name="tbar" unicode="&#x167;" horiz-adv-x="349" 
d="M233 -10q28 0 54 6.5t44 15.5l6 70q-12 -6 -28.5 -11.5t-33.5 -5.5q-28 0 -43.5 15t-15.5 46v135h120v62h-120v105h121v70h-121v129l-111 -25v-104h-89l-16 -70h105v-105h-90l-14 -62h104v-147q0 -60 33 -92t95 -32z" />
    <glyph glyph-name="Utilde" unicode="&#x168;" horiz-adv-x="700" 
d="M351 -12q31 0 59 4.5t53 14t47 23t40.5 31.5t33 39.5t24.5 47.5t15 55t5 62v245v21t0.5 22.5t1.5 23.5t1.5 24.5t2 24t3 22.5t3.5 20.5t4 17.5t5 14h-137q3 -6 5 -14t4 -17.5t3.5 -20.5t2.5 -22.5t2 -24t2 -24.5t1.5 -23.5t0.5 -22.5v-21v-247q0 -91 -49 -138.5
t-121 -47.5t-121.5 47t-49.5 139v247v21t0.5 22.5t1 23.5t1.5 24.5t2.5 24t3 22.5t3 20.5t4 17.5t4.5 14h-158q3 -6 5 -14t3.5 -17.5t3 -20.5t2.5 -22.5t2 -24t1.5 -24.5t1 -23.5t0.5 -22.5v-21v-253q0 -32 5 -60.5t15.5 -53.5t24.5 -46t32.5 -38.5t41 -30.5t47.5 -22
t53 -13.5t59 -4.5zM203 771h25q11 29 25.5 43t33.5 14q7 0 13.5 -2t14 -5t15.5 -7.5l16 -9t16.5 -9.5t17 -9.5t17.5 -7.5t18 -5t18 -2q34 0 60.5 30.5t40.5 96.5h-25q-12 -28 -26 -42t-33 -14q-7 0 -14 2t-14.5 5t-15 7.5t-15.5 9t-16.5 9l-17 9t-17.5 7.5t-18 5t-18 2
q-34 0 -60.5 -30.5t-40.5 -96.5z" />
    <glyph glyph-name="utilde" unicode="&#x169;" horiz-adv-x="558" 
d="M219 -11q50 0 91 26t68 67v-87l131 13q-3 6 -5.5 14.5t-4.5 18t-3.5 20t-2.5 21.5t-2 22.5t-1.5 22.5t-0.5 21v19v336l-132 -22q3 -6 5.5 -14.5t5 -18t4 -20t2.5 -21.5l2 -22t1.5 -22t0.5 -21.5v-19.5v-191q-23 -28 -50.5 -45t-59.5 -17q-39 0 -64.5 26t-25.5 75v333
l-132 -22q3 -6 5.5 -14.5t4.5 -18t3.5 -20t2.5 -21.5l2 -22t1.5 -22t0.5 -21.5v-19.5v-167q0 -78 42.5 -122t110.5 -44zM119 569h25q13 34 27 50.5t33 16.5q7 0 13.5 -2.5t14 -6t15 -8.5t15.5 -10.5t16.5 -11.5t17 -11t17 -8.5t18 -6t18.5 -2.5q34 0 59.5 33.5t41.5 105.5
h-25q-13 -34 -27 -51t-33 -17q-6 0 -12.5 2t-13 5t-13 7.5t-14 9.5t-14.5 10t-14.5 10t-15.5 9.5t-16 7.5t-16 5t-16 2q-34 0 -60 -33.5t-41 -105.5z" />
    <glyph glyph-name="Umacron" unicode="&#x16a;" horiz-adv-x="700" 
d="M351 -12q31 0 59 4.5t53 14t47 23t40.5 31.5t33 39.5t24.5 47.5t15 55t5 62v245v21t0.5 22.5t1.5 23.5t1.5 24.5t2 24t3 22.5t3.5 20.5t4 17.5t5 14h-137q3 -6 5 -14t4 -17.5t3.5 -20.5t2.5 -22.5t2 -24t2 -24.5t1.5 -23.5t0.5 -22.5v-21v-247q0 -91 -49 -138.5
t-121 -47.5t-121.5 47t-49.5 139v247v21t0.5 22.5t1 23.5t1.5 24.5t2.5 24t3 22.5t3 20.5t4 17.5t4.5 14h-158q3 -6 5 -14t3.5 -17.5t3 -20.5t2.5 -22.5t2 -24t1.5 -24.5t1 -23.5t0.5 -22.5v-21v-253q0 -32 5 -60.5t15.5 -53.5t24.5 -46t32.5 -38.5t41 -30.5t47.5 -22
t53 -13.5t59 -4.5zM222 793h280v68h-280v-68z" />
    <glyph glyph-name="umacron" unicode="&#x16b;" horiz-adv-x="558" 
d="M219 -11q50 0 91 26t68 67v-87l131 13q-3 6 -5.5 14.5t-4.5 18t-3.5 20t-2.5 21.5t-2 22.5t-1.5 22.5t-0.5 21v19v336l-132 -22q3 -6 5.5 -14.5t5 -18t4 -20t2.5 -21.5l2 -22t1.5 -22t0.5 -21.5v-19.5v-191q-23 -28 -50.5 -45t-59.5 -17q-39 0 -64.5 26t-25.5 75v333
l-132 -22q3 -6 5.5 -14.5t4.5 -18t3.5 -20t2.5 -21.5l2 -22t1.5 -22t0.5 -21.5v-19.5v-167q0 -78 42.5 -122t110.5 -44zM138 598h280v68h-280v-68z" />
    <glyph glyph-name="Ubreve" unicode="&#x16c;" horiz-adv-x="700" 
d="M351 -12q31 0 59 4.5t53 14t47 23t40.5 31.5t33 39.5t24.5 47.5t15 55t5 62v245v21t0.5 22.5t1.5 23.5t1.5 24.5t2 24t3 22.5t3.5 20.5t4 17.5t5 14h-137q3 -6 5 -14t4 -17.5t3.5 -20.5t2.5 -22.5t2 -24t2 -24.5t1.5 -23.5t0.5 -22.5v-21v-247q0 -91 -49 -138.5
t-121 -47.5t-121.5 47t-49.5 139v247v21t0.5 22.5t1 23.5t1.5 24.5t2.5 24t3 22.5t3 20.5t4 17.5t4.5 14h-158q3 -6 5 -14t3.5 -17.5t3 -20.5t2.5 -22.5t2 -24t1.5 -24.5t1 -23.5t0.5 -22.5v-21v-253q0 -32 5 -60.5t15.5 -53.5t24.5 -46t32.5 -38.5t41 -30.5t47.5 -22
t53 -13.5t59 -4.5zM362 757q64 0 105.5 38t46.5 105h-15q-16 -34 -51 -52.5t-86 -18.5t-86 18.5t-51 52.5h-15q5 -67 46.5 -105t105.5 -38z" />
    <glyph glyph-name="ubreve" unicode="&#x16d;" horiz-adv-x="558" 
d="M219 -11q50 0 91 26t68 67v-87l131 13q-3 6 -5.5 14.5t-4.5 18t-3.5 20t-2.5 21.5t-2 22.5t-1.5 22.5t-0.5 21v19v336l-132 -22q3 -6 5.5 -14.5t5 -18t4 -20t2.5 -21.5l2 -22t1.5 -22t0.5 -21.5v-19.5v-191q-23 -28 -50.5 -45t-59.5 -17q-39 0 -64.5 26t-25.5 75v333
l-132 -22q3 -6 5.5 -14.5t4.5 -18t3.5 -20t2.5 -21.5l2 -22t1.5 -22t0.5 -21.5v-19.5v-167q0 -78 42.5 -122t110.5 -44zM278 555q63 0 103.5 42.5t46.5 119.5h-16q-18 -40 -51 -65t-83 -25t-83 25t-51 65h-16q6 -77 46.5 -119.5t103.5 -42.5z" />
    <glyph glyph-name="Uring" unicode="&#x16e;" horiz-adv-x="700" 
d="M351 -12q31 0 59 4.5t53 14t47 23t40.5 31.5t33 39.5t24.5 47.5t15 55t5 62v245v21t0.5 22.5t1.5 23.5t1.5 24.5t2 24t3 22.5t3.5 20.5t4 17.5t5 14h-137q3 -6 5 -14t4 -17.5t3.5 -20.5t2.5 -22.5t2 -24t2 -24.5t1.5 -23.5t0.5 -22.5v-21v-247q0 -91 -49 -138.5
t-121 -47.5t-121.5 47t-49.5 139v247v21t0.5 22.5t1 23.5t1.5 24.5t2.5 24t3 22.5t3 20.5t4 17.5t4.5 14h-158q3 -6 5 -14t3.5 -17.5t3 -20.5t2.5 -22.5t2 -24t1.5 -24.5t1 -23.5t0.5 -22.5v-21v-253q0 -32 5 -60.5t15.5 -53.5t24.5 -46t32.5 -38.5t41 -30.5t47.5 -22
t53 -13.5t59 -4.5zM362 756q49 0 79.5 30.5t30.5 73.5t-30.5 73t-79.5 30t-79.5 -30t-30.5 -73t30.5 -73.5t79.5 -30.5zM362 803q-25 0 -41.5 16.5t-16.5 40.5t16.5 40.5t41.5 16.5t41.5 -16.5t16.5 -40.5t-16.5 -40.5t-41.5 -16.5z" />
    <glyph glyph-name="uring" unicode="&#x16f;" horiz-adv-x="558" 
d="M219 -11q50 0 91 26t68 67v-87l131 13q-3 6 -5.5 14.5t-4.5 18t-3.5 20t-2.5 21.5t-2 22.5t-1.5 22.5t-0.5 21v19v336l-132 -22q3 -6 5.5 -14.5t5 -18t4 -20t2.5 -21.5l2 -22t1.5 -22t0.5 -21.5v-19.5v-191q-23 -28 -50.5 -45t-59.5 -17q-39 0 -64.5 26t-25.5 75v333
l-132 -22q3 -6 5.5 -14.5t4.5 -18t3.5 -20t2.5 -21.5l2 -22t1.5 -22t0.5 -21.5v-19.5v-167q0 -78 42.5 -122t110.5 -44zM278 564q49 0 79.5 30t30.5 73t-30.5 73.5t-79.5 30.5t-79.5 -30.5t-30.5 -73.5t30.5 -73t79.5 -30zM278 611q-25 0 -41.5 16.5t-16.5 39.5
q0 24 16.5 40.5t41.5 16.5t41.5 -16.5t16.5 -40.5q0 -23 -16.5 -39.5t-41.5 -16.5z" />
    <glyph glyph-name="Uhungarumlaut" unicode="&#x170;" horiz-adv-x="700" 
d="M351 -12q31 0 59 4.5t53 14t47 23t40.5 31.5t33 39.5t24.5 47.5t15 55t5 62v245v21t0.5 22.5t1.5 23.5t1.5 24.5t2 24t3 22.5t3.5 20.5t4 17.5t5 14h-137q3 -6 5 -14t4 -17.5t3.5 -20.5t2.5 -22.5t2 -24t2 -24.5t1.5 -23.5t0.5 -22.5v-21v-247q0 -91 -49 -138.5
t-121 -47.5t-121.5 47t-49.5 139v247v21t0.5 22.5t1 23.5t1.5 24.5t2.5 24t3 22.5t3 20.5t4 17.5t4.5 14h-158q3 -6 5 -14t3.5 -17.5t3 -20.5t2.5 -22.5t2 -24t1.5 -24.5t1 -23.5t0.5 -22.5v-21v-253q0 -32 5 -60.5t15.5 -53.5t24.5 -46t32.5 -38.5t41 -30.5t47.5 -22
t53 -13.5t59 -4.5zM231 759h61l137 147h-113zM401 759h61l138 147h-114z" />
    <glyph glyph-name="uhungarumlaut" unicode="&#x171;" horiz-adv-x="558" 
d="M219 -11q50 0 91 26t68 67v-87l131 13q-3 6 -5.5 14.5t-4.5 18t-3.5 20t-2.5 21.5t-2 22.5t-1.5 22.5t-0.5 21v19v336l-132 -22q3 -6 5.5 -14.5t5 -18t4 -20t2.5 -21.5l2 -22t1.5 -22t0.5 -21.5v-19.5v-191q-23 -28 -50.5 -45t-59.5 -17q-39 0 -64.5 26t-25.5 75v333
l-132 -22q3 -6 5.5 -14.5t4.5 -18t3.5 -20t2.5 -21.5l2 -22t1.5 -22t0.5 -21.5v-19.5v-167q0 -78 42.5 -122t110.5 -44zM147 557h61l141 167h-114zM317 557h61l142 167h-115z" />
    <glyph glyph-name="Uogonek" unicode="&#x172;" horiz-adv-x="700" 
d="M351 -12q17 0 33 1.5t32 4.5q-55 -31 -80 -61t-25 -64t27.5 -55.5t70.5 -21.5q16 0 33.5 3.5t30.5 7.5l14 61q-11 -4 -24.5 -7t-24.5 -3q-22 0 -35 11t-13 30q0 25 20 53t62 62q72 29 114 94.5t42 160.5v245v21t0.5 22.5t1.5 23.5t1.5 24.5t2 24t3 22.5t3.5 20.5t4 17.5
t5 14h-137q3 -6 5 -14t4 -17.5t3.5 -20.5t2.5 -22.5t2 -24t2 -24.5t1.5 -23.5t0.5 -22.5v-21v-247q0 -91 -49 -138.5t-121 -47.5t-121.5 47t-49.5 139v247v21t0.5 22.5t1 23.5t1.5 24.5t2.5 24t3 22.5t3 20.5t4 17.5t4.5 14h-158q3 -6 5 -14t3.5 -17.5t3 -20.5t2.5 -22.5
t2 -24t1.5 -24.5t1 -23.5t0.5 -22.5v-21v-253q0 -32 5 -60.5t15.5 -53.5t24.5 -46t32.5 -38.5t41 -30.5t47.5 -22t53 -13.5t59 -4.5z" />
    <glyph glyph-name="uogonek" unicode="&#x173;" horiz-adv-x="558" 
d="M219 -11q50 0 91 26t68 67v-87l79 8q-64 -31 -93 -62.5t-29 -65.5t27 -55.5t70 -21.5q16 0 33 3.5t30 7.5l14 61q-10 -4 -23 -7t-24 -3q-22 0 -35 11t-13 30q0 22 22.5 49t63.5 56l-3 1l12 1q-3 6 -5.5 14.5t-4.5 18t-3.5 20t-2.5 21.5t-2 22.5t-1.5 22.5t-0.5 21v19v336
l-132 -22q3 -6 5.5 -14.5t5 -18t4 -20t2.5 -21.5l2 -22t1.5 -22t0.5 -21.5v-19.5v-191q-23 -28 -50.5 -45t-59.5 -17q-39 0 -64.5 26t-25.5 75v333l-132 -22q3 -6 5.5 -14.5t4.5 -18t3.5 -20t2.5 -21.5l2 -22t1.5 -22t0.5 -21.5v-19.5v-167q0 -78 42.5 -122t110.5 -44z" />
    <glyph glyph-name="Wcircumflex" unicode="&#x174;" horiz-adv-x="910" 
d="M192 537q-13 43 -22.5 88.5t-5.5 74.5h-155q13 -30 32 -81t36 -100l179 -540l195 489l203 -489l179 540q17 49 36 100t33 81h-131q5 -29 -4 -74.5t-22 -88.5l-88 -291l-192 474l-184 -473zM304 759h54l109 85l108 -85h55l-115 147h-96z" />
    <glyph glyph-name="wcircumflex" unicode="&#x175;" horiz-adv-x="700" 
d="M637 350q16 43 31.5 81.5t27.5 66.5h-113q3 -25 -4 -60.5t-20 -73.5l-56 -168l-144 322l-136 -321l-57 167q-13 38 -19.5 73.5t-3.5 60.5h-139q12 -28 27 -66.5t31 -81.5l139 -372l145 330l153 -330zM198 557h54l109 102l108 -102h55l-115 167h-96z" />
    <glyph glyph-name="Ycircumflex" unicode="&#x176;" horiz-adv-x="644" 
d="M241 0h161q-3 6 -5 15t-4 19.5t-3.5 22t-3 24.5t-2 26t-1.5 26.5t-1.5 26t-0.5 24.5v22v63l172 281q25 42 50.5 83t43.5 67h-139q1 -25 -12.5 -61t-35.5 -73l-123 -208l-124 208q-22 37 -36.5 73t-13.5 61h-167q19 -26 44.5 -67t50.5 -83l171 -281v-63v-22t-0.5 -24.5
t-1.5 -26t-2 -26.5l-2 -26t-2.5 -24.5t-3.5 -22t-4 -19.5t-5 -15zM173 759h54l109 85l108 -85h55l-115 147h-96z" />
    <glyph glyph-name="ycircumflex" unicode="&#x177;" horiz-adv-x="506" 
d="M98 -207q57 0 98.5 31t68.5 96l175 425q18 43 36 84t32 69h-119q1 -27 -8.5 -63.5t-24.5 -75.5l-89 -227l-91 227q-16 39 -25.5 75.5t-8.5 63.5h-144q14 -28 31.5 -69t35.5 -84l143 -339l-23 -54q-17 -40 -39 -58t-55 -18q-19 0 -34.5 5t-31.5 12l9 -86q13 -6 29.5 -10
t34.5 -4zM108 557h54l109 102l108 -102h55l-115 167h-96z" />
    <glyph glyph-name="Ydieresis" unicode="&#x178;" horiz-adv-x="644" 
d="M241 0h161q-3 6 -5 15t-4 19.5t-3.5 22t-3 24.5t-2 26t-1.5 26.5t-1.5 26t-0.5 24.5v22v63l172 281q25 42 50.5 83t43.5 67h-139q1 -25 -12.5 -61t-35.5 -73l-123 -208l-124 208q-22 37 -36.5 73t-13.5 61h-167q19 -26 44.5 -67t50.5 -83l171 -281v-63v-22t-0.5 -24.5
t-1.5 -26t-2 -26.5l-2 -26t-2.5 -24.5t-3.5 -22t-4 -19.5t-5 -15zM244 772q29 0 47 19.5t18 44.5q0 26 -18 45t-47 19q-28 0 -46.5 -19t-18.5 -45q0 -25 18.5 -44.5t46.5 -19.5zM428 772q28 0 46.5 19.5t18.5 44.5q0 26 -18.5 45t-46.5 19q-29 0 -47 -19t-18 -45
q0 -25 18 -44.5t47 -19.5z" />
    <glyph glyph-name="Zacute" unicode="&#x179;" horiz-adv-x="555" 
d="M527 0l17 111q-9 -3 -21 -6t-25 -6t-27 -5.5t-28.5 -4.5t-29.5 -3.5t-29.5 -2.5t-28 -2t-25.5 -1.5t-22 -0.5h-132l371 621h-499l-19 -111q11 4 23.5 7.5t26 6.5t28.5 5t30 3.5l30 3t29.5 2t28 1t26.5 0.5h122l-370 -618h524zM236 759h60l148 147h-125z" />
    <glyph glyph-name="zacute" unicode="&#x17a;" horiz-adv-x="426" 
d="M2 0h390l16 97q-32 -13 -81.5 -21t-89.5 -8h-77l257 430h-378l-21 -98q33 13 81 20.5t89 7.5h70zM167 557h59l152 167h-126z" />
    <glyph glyph-name="Zdotaccent" unicode="&#x17b;" horiz-adv-x="555" 
d="M527 0l17 111q-9 -3 -21 -6t-25 -6t-27 -5.5t-28.5 -4.5t-29.5 -3.5t-29.5 -2.5t-28 -2t-25.5 -1.5t-22 -0.5h-132l371 621h-499l-19 -111q11 4 23.5 7.5t26 6.5t28.5 5t30 3.5l30 3t29.5 2t28 1t26.5 0.5h122l-370 -618h524zM288 771q29 0 48 19.5t19 45.5
q0 27 -19 46.5t-48 19.5t-48 -19.5t-19 -46.5q0 -26 19 -45.5t48 -19.5z" />
    <glyph glyph-name="zdotaccent" unicode="&#x17c;" horiz-adv-x="426" 
d="M2 0h390l16 97q-32 -13 -81.5 -21t-89.5 -8h-77l257 430h-378l-21 -98q33 13 81 20.5t89 7.5h70zM219 576q29 0 48 19.5t19 45.5q0 27 -19 46.5t-48 19.5t-48 -19.5t-19 -46.5q0 -26 19 -45.5t48 -19.5z" />
    <glyph glyph-name="Zcaron" unicode="&#x17d;" horiz-adv-x="555" 
d="M527 0l17 111q-9 -3 -21 -6t-25 -6t-27 -5.5t-28.5 -4.5t-29.5 -3.5t-29.5 -2.5t-28 -2t-25.5 -1.5t-22 -0.5h-132l371 621h-499l-19 -111q11 4 23.5 7.5t26 6.5t28.5 5t30 3.5l30 3t29.5 2t28 1t26.5 0.5h122l-370 -618h524zM240 759h96l115 147h-54l-108 -85l-109 85
h-55z" />
    <glyph glyph-name="zcaron" unicode="&#x17e;" horiz-adv-x="426" 
d="M2 0h390l16 97q-32 -13 -81.5 -21t-89.5 -8h-77l257 430h-378l-21 -98q33 13 81 20.5t89 7.5h70zM171 557h96l115 167h-54l-108 -101l-109 101h-55z" />
    <glyph glyph-name="uni0218" unicode="&#x218;" horiz-adv-x="510" 
d="M259 -9q23 0 45 3.5t42.5 10.5t38 17.5t32.5 23.5t27 29t20.5 34t13 38.5t4.5 42.5q0 20 -3.5 37t-10 32t-15 28t-19.5 24.5t-23 21.5t-25.5 18.5t-28 16.5t-29 15.5t-29 14.5t-29 13.5t-28 13.5t-25.5 14.5t-22.5 15.5t-19.5 17t-15 19t-9.5 22t-3.5 25q0 40 28 66.5
t75 26.5q45 0 97.5 -23t103.5 -63l-23 133q-37 1 -83 16t-103 15q-23 0 -44.5 -3.5t-40.5 -11t-35.5 -17.5t-30 -22.5t-24 -27.5t-17.5 -32t-10.5 -35.5t-3.5 -38.5t3.5 -37.5t9.5 -33t14.5 -29t19.5 -25t23 -21.5t25.5 -19.5t27.5 -17.5t29 -15.5t29.5 -14.5t28.5 -14
t27.5 -14t25.5 -14t23 -15t19.5 -17t14.5 -19t9.5 -21.5t3.5 -24.5q1 -47 -32.5 -75t-80.5 -28q-53 0 -112.5 25.5t-121.5 74.5l26 -139q11 0 21.5 -1.5t22 -4t23.5 -6t25 -6.5t27 -6.5t28.5 -6t30.5 -4t33 -1.5zM222 -292q51 25 78.5 63t27.5 82q0 35 -19.5 56t-46.5 21
q-25 0 -41 -16t-16 -38q0 -8 1.5 -14t4.5 -11t6.5 -9.5t7.5 -8l8 -7t8 -6.5t7.5 -7t6.5 -8t4.5 -8.5t1.5 -10.5q0 -16 -12 -35t-32 -37z" />
    <glyph glyph-name="uni0219" unicode="&#x219;" horiz-adv-x="420" 
d="M212 -9q75 0 125.5 42t50.5 110q0 17 -3 31t-9 26t-14 22t-17.5 18.5t-20.5 15.5t-23 13.5t-24 12t-24.5 10.5t-24.5 9.5t-23 9.5t-20.5 10.5t-17.5 11.5t-14 13t-9 15t-3 18q0 26 19 42.5t53 16.5q37 0 77.5 -17.5t77.5 -50.5l-19 116q-29 -1 -64.5 10.5t-81.5 11.5
q-72 0 -117.5 -39.5t-45.5 -102.5q0 -17 3 -31t9 -26.5t13.5 -22.5t17.5 -19t20.5 -16t22.5 -13.5t24.5 -12t24.5 -10.5l24 -10t22.5 -10t20.5 -10.5t17.5 -12t13.5 -13.5t9 -15.5t3 -18.5q0 -29 -22.5 -47.5t-59.5 -18.5q-45 0 -91 20t-86 57l22 -119q32 1 70.5 -12.5
t93.5 -13.5zM166 -292q51 25 78.5 63t27.5 82q0 35 -19.5 56t-46.5 21q-25 0 -41 -16t-16 -38q0 -8 1.5 -14t4.5 -11t6.5 -9.5t7.5 -8l8 -7t8 -6.5t7.5 -7t6.5 -8t4.5 -8.5t1.5 -10.5q0 -16 -12 -35t-32 -37z" />
    <glyph glyph-name="uni021A" unicode="&#x21a;" horiz-adv-x="605" 
d="M222 0h161q-3 6 -5 14t-4 17.5t-3.5 20.5t-3 22.5t-2 24t-1.5 24.5t-1.5 23.5t-0.5 22.5v21v428h39q50 0 104.5 -6t97.5 -24l-19 112h-563l-19 -112q43 18 97.5 24t104.5 6h39v-428v-21t-0.5 -22.5t-1.5 -23.5t-1.5 -24.5t-2 -24t-3 -22.5t-3.5 -20.5t-4 -17.5t-5 -14z
M259 -292q51 25 78.5 63t27.5 82q0 35 -19.5 56t-46.5 21q-25 0 -41 -16t-16 -38q0 -7 1.5 -13.5t4.5 -11.5t6.5 -9t7.5 -8t8 -7.5t8 -6.5t7.5 -6.5t6.5 -8t4.5 -9t1.5 -10.5q0 -16 -12 -35t-32 -37z" />
    <glyph glyph-name="uni021B" unicode="&#x21b;" horiz-adv-x="349" 
d="M233 -10q28 0 54 6.5t44 15.5l6 70q-12 -6 -28.5 -11.5t-33.5 -5.5q-28 0 -43.5 15t-15.5 46v302h121v70h-121v129l-111 -25v-104h-89l-16 -70h105v-314q0 -60 33 -92t95 -32zM180 -292q51 25 78.5 63t27.5 82q0 35 -19.5 56t-46.5 21q-25 0 -41 -16t-16 -38
q0 -8 1.5 -14t4.5 -11t6.5 -9.5t7.5 -8l8 -7t8 -6.5t7.5 -7t6.5 -8t4.5 -8.5t1.5 -10.5q0 -16 -12 -35t-32 -37z" />
    <glyph glyph-name="uni0237" unicode="&#x237;" horiz-adv-x="245" 
d="M37 -207q67 0 104.5 35.5t37.5 104.5v570l-131 -22q3 -6 5.5 -14.5t4.5 -18t3.5 -20t2.5 -21.5l2 -22t1.5 -22t0.5 -21.5v-19.5v-393q0 -29 -13.5 -44t-39.5 -15q-15 0 -32 3.5t-32 9.5l8 -76q16 -6 37 -10t41 -4z" />
    <glyph glyph-name="circumflex" unicode="&#x2c6;" 
d="M87 556h54l109 102l108 -102h55l-115 167h-96z" />
    <glyph glyph-name="caron" unicode="&#x2c7;" 
d="M202 556h96l115 167h-54l-108 -101l-109 101h-55z" />
    <glyph glyph-name="breve" unicode="&#x2d8;" 
d="M250 554q63 0 103.5 42.5t46.5 119.5h-16q-18 -40 -51 -65t-83 -25t-83 25t-51 65h-16q6 -77 46.5 -119.5t103.5 -42.5z" />
    <glyph glyph-name="dotaccent" unicode="&#x2d9;" 
d="M250 575q29 0 48 19.5t19 45.5q0 27 -19 46.5t-48 19.5t-48 -19.5t-19 -46.5q0 -26 19 -45.5t48 -19.5z" />
    <glyph glyph-name="ring" unicode="&#x2da;" 
d="M250 563q49 0 79.5 30t30.5 73t-30.5 73.5t-79.5 30.5t-79.5 -30.5t-30.5 -73.5t30.5 -73t79.5 -30zM250 610q-25 0 -41.5 16.5t-16.5 39.5q0 24 16.5 40.5t41.5 16.5t41.5 -16.5t16.5 -40.5q0 -23 -16.5 -39.5t-41.5 -16.5z" />
    <glyph glyph-name="ogonek" unicode="&#x2db;" 
d="M255 -208q16 0 33 3.5t30 7.5l14 61q-10 -4 -23 -7t-24 -3q-22 0 -35 11t-13 30q0 22 22.5 49t63.5 56l-24 6q-74 -34 -107.5 -67t-33.5 -70q0 -34 27 -55.5t70 -21.5z" />
    <glyph glyph-name="tilde" unicode="&#x2dc;" 
d="M91 568h25q13 34 27 50.5t33 16.5q7 0 13.5 -2.5t14 -6t15 -8.5t15.5 -10.5t16.5 -11.5t17 -11t17 -8.5t18 -6t18.5 -2.5q34 0 59.5 33.5t41.5 105.5h-25q-13 -34 -27 -51t-33 -17q-6 0 -12.5 2t-13 5t-13 7.5t-14 9.5t-14.5 10t-14.5 10t-15.5 9.5t-16 7.5t-16 5t-16 2
q-34 0 -60 -33.5t-41 -105.5z" />
    <glyph glyph-name="hungarumlaut" unicode="&#x2dd;" 
d="M119 556h61l141 167h-114zM289 556h61l142 167h-115z" />
    <glyph glyph-name="Wgrave" unicode="&#x1e80;" horiz-adv-x="910" 
d="M192 537q-13 43 -22.5 88.5t-5.5 74.5h-155q13 -30 32 -81t36 -100l179 -540l195 489l203 -489l179 540q17 49 36 100t33 81h-131q5 -29 -4 -74.5t-22 -88.5l-88 -291l-192 474l-184 -473zM458 759h61l-83 147h-125z" />
    <glyph glyph-name="wgrave" unicode="&#x1e81;" horiz-adv-x="700" 
d="M637 350q16 43 31.5 81.5t27.5 66.5h-113q3 -25 -4 -60.5t-20 -73.5l-56 -168l-144 322l-136 -321l-57 167q-13 38 -19.5 73.5t-3.5 60.5h-139q12 -28 27 -66.5t31 -81.5l139 -372l145 330l153 -330zM353 557h60l-85 167h-127z" />
    <glyph glyph-name="Wacute" unicode="&#x1e82;" horiz-adv-x="910" 
d="M192 537q-13 43 -22.5 88.5t-5.5 74.5h-155q13 -30 32 -81t36 -100l179 -540l195 489l203 -489l179 540q17 49 36 100t33 81h-131q5 -29 -4 -74.5t-22 -88.5l-88 -291l-192 474l-184 -473zM415 759h60l148 147h-125z" />
    <glyph glyph-name="wacute" unicode="&#x1e83;" horiz-adv-x="700" 
d="M637 350q16 43 31.5 81.5t27.5 66.5h-113q3 -25 -4 -60.5t-20 -73.5l-56 -168l-144 322l-136 -321l-57 167q-13 38 -19.5 73.5t-3.5 60.5h-139q12 -28 27 -66.5t31 -81.5l139 -372l145 330l153 -330zM309 557h59l152 167h-126z" />
    <glyph glyph-name="Wdieresis" unicode="&#x1e84;" horiz-adv-x="910" 
d="M192 537q-13 43 -22.5 88.5t-5.5 74.5h-155q13 -30 32 -81t36 -100l179 -540l195 489l203 -489l179 540q17 49 36 100t33 81h-131q5 -29 -4 -74.5t-22 -88.5l-88 -291l-192 474l-184 -473zM375 772q29 0 47 19.5t18 44.5q0 26 -18 45t-47 19q-28 0 -46.5 -19t-18.5 -45
q0 -25 18.5 -44.5t46.5 -19.5zM559 772q28 0 46.5 19.5t18.5 44.5q0 26 -18.5 45t-46.5 19q-29 0 -47 -19t-18 -45q0 -25 18 -44.5t47 -19.5z" />
    <glyph glyph-name="wdieresis" unicode="&#x1e85;" horiz-adv-x="700" 
d="M637 350q16 43 31.5 81.5t27.5 66.5h-113q3 -25 -4 -60.5t-20 -73.5l-56 -168l-144 322l-136 -321l-57 167q-13 38 -19.5 73.5t-3.5 60.5h-139q12 -28 27 -66.5t31 -81.5l139 -372l145 330l153 -330zM269 577q29 0 47 19.5t18 44.5t-18 44.5t-47 19.5q-28 0 -46.5 -19.5
t-18.5 -44.5t18.5 -44.5t46.5 -19.5zM453 577q28 0 46.5 19.5t18.5 44.5t-18.5 44.5t-46.5 19.5q-29 0 -47 -19.5t-18 -44.5t18 -44.5t47 -19.5z" />
    <glyph glyph-name="Ygrave" unicode="&#x1ef2;" horiz-adv-x="644" 
d="M241 0h161q-3 6 -5 15t-4 19.5t-3.5 22t-3 24.5t-2 26t-1.5 26.5t-1.5 26t-0.5 24.5v22v63l172 281q25 42 50.5 83t43.5 67h-139q1 -25 -12.5 -61t-35.5 -73l-123 -208l-124 208q-22 37 -36.5 73t-13.5 61h-167q19 -26 44.5 -67t50.5 -83l171 -281v-63v-22t-0.5 -24.5
t-1.5 -26t-2 -26.5l-2 -26t-2.5 -24.5t-3.5 -22t-4 -19.5t-5 -15zM327 759h61l-83 147h-125z" />
    <glyph glyph-name="ygrave" unicode="&#x1ef3;" horiz-adv-x="506" 
d="M98 -207q57 0 98.5 31t68.5 96l175 425q18 43 36 84t32 69h-119q1 -27 -8.5 -63.5t-24.5 -75.5l-89 -227l-91 227q-16 39 -25.5 75.5t-8.5 63.5h-144q14 -28 31.5 -69t35.5 -84l143 -339l-23 -54q-17 -40 -39 -58t-55 -18q-19 0 -34.5 5t-31.5 12l9 -86q13 -6 29.5 -10
t34.5 -4zM263 557h60l-85 167h-127z" />
    <glyph glyph-name="uni2002" unicode="&#x2002;" horiz-adv-x="514" 
 />
    <glyph glyph-name="uni2003" unicode="&#x2003;" horiz-adv-x="737" 
 />
    <glyph glyph-name="uni2009" unicode="&#x2009;" horiz-adv-x="162" 
 />
    <glyph glyph-name="uni200A" unicode="&#x200a;" horiz-adv-x="121" 
 />
    <glyph glyph-name="uni200B" unicode="&#x200b;" horiz-adv-x="0" 
 />
    <glyph glyph-name="endash" unicode="&#x2013;" horiz-adv-x="514" 
d="M27 307h450l10 76h-450z" />
    <glyph glyph-name="emdash" unicode="&#x2014;" horiz-adv-x="737" 
d="M27 307h672l11 76h-673z" />
    <glyph glyph-name="uni2015" unicode="&#x2015;" horiz-adv-x="1071" 
d="M27 307h1006l10 76h-1006z" />
    <glyph glyph-name="quoteleft" unicode="&#x2018;" horiz-adv-x="205" 
d="M164 715q-60 -34 -98 -88t-38 -113q0 -43 21.5 -67t51.5 -24q28 0 46.5 19.5t18.5 46.5q0 8 -1.5 15t-4 13t-6 11.5t-7 10t-8 9t-8 9.5t-7 9.5t-6 10t-4 12t-1.5 14.5q0 25 17.5 49.5t45.5 46.5z" />
    <glyph glyph-name="quoteright" unicode="&#x2019;" horiz-adv-x="205" 
d="M41 420q60 34 98 88t38 113q0 43 -21.5 67t-51.5 24q-28 0 -46.5 -19.5t-18.5 -46.5q0 -8 1.5 -15t4 -13t6 -11.5t7 -10t8 -9t8 -9.5t7 -9.5t6 -10t4 -12t1.5 -14.5q0 -25 -17.5 -49.5t-45.5 -46.5z" />
    <glyph glyph-name="quotesinglbase" unicode="&#x201a;" horiz-adv-x="205" 
d="M41 -155q60 34 98 88t38 113q0 43 -21.5 67t-51.5 24q-28 0 -46.5 -19.5t-18.5 -46.5q0 -8 1.5 -15t4 -13t6 -11.5t7 -10t8 -9t8 -9.5t7 -9.5t6 -10t4 -12t1.5 -14.5q0 -25 -17.5 -49.5t-45.5 -46.5z" />
    <glyph glyph-name="uni201B" unicode="&#x201b;" horiz-adv-x="205" 
d="M164 420l12 16q-28 22 -45.5 46.5t-17.5 49.5q0 8 1.5 14.5t4 12t6 10t7 9.5t8 9.5t8 9t7 10t6 11.5t4 13t1.5 15q0 27 -18.5 46.5t-46.5 19.5q-30 0 -51.5 -24t-21.5 -67q0 -59 38 -113t98 -88z" />
    <glyph glyph-name="quotedblleft" unicode="&#x201c;" horiz-adv-x="387" 
d="M164 715q-60 -34 -98 -88t-38 -113q0 -43 21.5 -67t51.5 -24q28 0 46.5 19.5t18.5 46.5q0 8 -1.5 15t-4 13t-6 11.5t-7 10t-8 9t-8 9.5t-7 9.5t-6 10t-4 12t-1.5 14.5q0 25 17.5 49.5t45.5 46.5zM345 715q-60 -34 -98 -88t-38 -113q0 -43 21.5 -67t51.5 -24
q28 0 46.5 19.5t18.5 46.5q0 8 -1.5 15t-4 13t-6 11.5t-7 10t-8 9t-8 9.5t-7 9.5t-6 10t-4 12t-1.5 14.5q0 25 17.5 49.5t45.5 46.5z" />
    <glyph glyph-name="quotedblright" unicode="&#x201d;" horiz-adv-x="386" 
d="M42 420q60 34 98 88t38 113q0 43 -21.5 67t-51.5 24q-28 0 -46.5 -19.5t-18.5 -46.5q0 -8 1.5 -15t4 -13t6 -11.5t7 -10t8 -9t8 -9.5t7 -9.5t6 -10t4 -12t1.5 -14.5q0 -25 -17.5 -49.5t-45.5 -46.5zM223 420q60 34 98 88t38 113q0 43 -21.5 67t-51.5 24
q-28 0 -46.5 -19.5t-18.5 -46.5q0 -8 1.5 -15t4 -13t6 -11.5t7 -10t8 -9t8 -9.5t7 -9.5t6 -10t4 -12t1.5 -14.5q0 -25 -17.5 -49.5t-45.5 -46.5z" />
    <glyph glyph-name="quotedblbase" unicode="&#x201e;" horiz-adv-x="390" 
d="M42 -155q60 34 98 88t38 113q0 43 -21.5 67t-51.5 24q-28 0 -46.5 -19.5t-18.5 -46.5q0 -8 1.5 -15t4 -13t6 -11.5t7 -10t8 -9t8 -9.5t7 -9.5t6 -10t4 -12t1.5 -14.5q0 -25 -17.5 -49.5t-45.5 -46.5zM223 -155q60 34 98 88t38 113q0 43 -21.5 67t-51.5 24
q-28 0 -46.5 -19.5t-18.5 -46.5q0 -8 1.5 -15t4 -13t6 -11.5t7 -10t8 -9t8 -9.5t7 -9.5t6 -10t4 -12t1.5 -14.5q0 -25 -17.5 -49.5t-45.5 -46.5z" />
    <glyph glyph-name="uni201F" unicode="&#x201f;" horiz-adv-x="390" 
d="M348 420l12 16q-28 22 -45.5 46.5t-17.5 49.5q0 8 1.5 14.5t4 12t6 10t7 9.5t8 9.5t8 9t7 10t6 11.5t4 13t1.5 15q0 27 -18.5 46.5t-46.5 19.5q-30 0 -51.5 -24t-21.5 -67q0 -59 38 -113t98 -88zM167 420l12 16q-28 22 -45.5 46.5t-17.5 49.5q0 8 1.5 14.5t4 12t6 10
t7 9.5t8 9.5t8 9t7 10t6 11.5t4 13t1.5 15q0 27 -18.5 46.5t-46.5 19.5q-30 0 -51.5 -24t-21.5 -67q0 -59 38 -113t98 -88z" />
    <glyph glyph-name="dagger" unicode="&#x2020;" horiz-adv-x="471" 
d="M229 -113h13q3 32 6.5 64.5t7 65.5l7 66t7.5 65.5t7.5 64.5t7.5 62t8 58q-9 31 -17 64.5t-15 67.5q69 -7 107.5 -13.5t71.5 -13.5v102q-33 -7 -72 -13.5t-108 -13.5q11 72 20.5 112.5t20.5 74.5h-131q11 -34 20.5 -74.5t19.5 -112.5q-69 7 -107.5 13.5t-70.5 13.5v-102
q32 7 70.5 13.5t106.5 13.5q-6 -34 -14 -67.5t-17 -64.5q4 -28 8 -58t8 -62t7.5 -64.5t7.5 -65.5t7.5 -66t6.5 -65.5t6 -64.5z" />
    <glyph glyph-name="daggerdbl" unicode="&#x2021;" horiz-adv-x="471" 
d="M32 141v-102q32 7 70.5 13t107.5 13q-10 -72 -19.5 -112t-20.5 -75h131q-11 35 -20.5 75t-19.5 112q69 -7 107.5 -13t71.5 -13v102q-33 -7 -71.5 -14t-107.5 -14q6 41 14 85t18 92q-10 46 -18 90t-14 85q69 -7 107.5 -13.5t71.5 -13.5v102q-33 -7 -72 -13.5t-108 -13.5
q11 72 20.5 112.5t20.5 74.5h-131q11 -34 20.5 -74.5t19.5 -112.5q-69 7 -107.5 13.5t-70.5 13.5v-102q32 7 70.5 13.5t107.5 13.5q-6 -41 -14 -85t-18 -90q10 -48 18 -92t14 -85q-69 7 -107.5 14t-70.5 14z" />
    <glyph glyph-name="bullet" unicode="&#x2022;" horiz-adv-x="426" 
d="M213 208q60 0 103 43t43 103t-43 103t-103 43q-61 0 -103.5 -43t-42.5 -103t42.5 -103t103.5 -43z" />
    <glyph glyph-name="ellipsis" unicode="&#x2026;" horiz-adv-x="646" 
d="M107 -8q29 0 49.5 21t20.5 51q0 29 -20.5 50t-49.5 21q-30 0 -51 -21t-21 -50q0 -30 21 -51t51 -21zM323 -8q29 0 49.5 21t20.5 51q0 29 -20.5 50t-49.5 21q-30 0 -51 -21t-21 -50q0 -30 21 -51t51 -21zM540 -8q29 0 49.5 21t20.5 51q0 29 -20.5 50t-49.5 21
q-30 0 -51 -21t-21 -50q0 -30 21 -51t51 -21z" />
    <glyph glyph-name="perthousand" unicode="&#x2030;" horiz-adv-x="1008" 
d="M178 0l403 700h-73l-404 -700h74zM162 365q59 0 101 47.5t42 124.5q0 76 -41.5 123.5t-101.5 47.5q-58 0 -100 -47.5t-42 -123.5q0 -77 42 -124.5t100 -47.5zM162 414q-25 0 -42 31t-17 90q0 60 17 90.5t42 30.5q26 0 42.5 -30.5t16.5 -90.5q0 -59 -16.5 -90t-42.5 -31z
M521 -7q59 0 101 47.5t42 124.5q0 76 -41.5 123.5t-101.5 47.5q-58 0 -100 -47.5t-42 -123.5q0 -77 42 -124.5t100 -47.5zM521 42q-25 0 -42 31t-17 90q0 60 17 90.5t42 30.5q26 0 42.5 -30.5t16.5 -90.5q0 -59 -16.5 -90t-42.5 -31zM845 -7q59 0 101 47.5t42 124.5
q0 76 -41.5 123.5t-101.5 47.5q-58 0 -100 -47.5t-42 -123.5q0 -77 42 -124.5t100 -47.5zM845 42q-25 0 -42 31t-17 90q0 60 17 90.5t42 30.5q26 0 42.5 -30.5t16.5 -90.5q0 -59 -16.5 -90t-42.5 -31z" />
    <glyph glyph-name="guilsinglleft" unicode="&#x2039;" horiz-adv-x="304" 
d="M262 -5h27l-148 254l148 253h-27l-250 -253z" />
    <glyph glyph-name="guilsinglright" unicode="&#x203a;" horiz-adv-x="304" 
d="M42 -5h-27l148 254l-148 253h27l250 -253z" />
    <glyph glyph-name="fraction" unicode="&#x2044;" horiz-adv-x="477" 
d="M74 0l403 700h-73l-404 -700h74z" />
    <glyph glyph-name="uni2070" unicode="&#x2070;" horiz-adv-x="325" 
d="M162 365q59 0 101 47.5t42 124.5q0 76 -41.5 123.5t-101.5 47.5q-58 0 -100 -47.5t-42 -123.5q0 -77 42 -124.5t100 -47.5zM162 414q-25 0 -42 31t-17 90q0 60 17 90.5t42 30.5q26 0 42.5 -30.5t16.5 -90.5q0 -59 -16.5 -90t-42.5 -31z" />
    <glyph glyph-name="uni2074" unicode="&#x2074;" horiz-adv-x="311" 
d="M4 446h170q-1 -20 -3.5 -41.5t-6.5 -32.5h95q-4 11 -5.5 32.5t-2.5 41.5h45l9 63q-11 -3 -25 -5.5t-29 -3.5v87l-77 -18v-70h-89l53 95q13 23 31.5 55t32.5 52h-81q-5 -15 -15.5 -39t-19.5 -41z" />
    <glyph glyph-name="uni2075" unicode="&#x2075;" horiz-adv-x="267" 
d="M119 366q58 0 96 31.5t38 81.5q0 43 -30 69.5t-76 26.5q-15 0 -29.5 -3t-27.5 -8l9 80h132l12 64q-16 -4 -41.5 -5.5t-47.5 -1.5h-110l-23 -176l47 -17q10 7 23.5 12t27.5 5q25 0 40 -13.5t15 -37.5t-18 -40t-46 -16q-24 0 -47 8t-43 18l5 -58q19 -9 43.5 -14.5
t50.5 -5.5z" />
    <glyph glyph-name="uni2076" unicode="&#x2076;" horiz-adv-x="298" 
d="M158 365q54 0 88 33.5t34 83.5q0 44 -28 71t-68 27q-26 0 -48.5 -14.5t-35.5 -40.5q0 57 21 92.5t64 35.5q18 0 37.5 -6t35.5 -17l-7 61q-16 7 -36 11.5t-41 4.5q-72 0 -113.5 -52t-41.5 -128q0 -72 38 -117t101 -45zM154 534q21 0 35 -15t14 -44q0 -27 -13.5 -43.5
t-33.5 -16.5q-23 0 -37 20.5t-18 60.5q7 16 22 27t31 11z" />
    <glyph glyph-name="uni2077" unicode="&#x2077;" horiz-adv-x="261" 
d="M61 372h93q-1 75 18 140.5t56 131.5l31 57h-238l-13 -68q19 7 44.5 9t48.5 2h88l-11 -13q-46 -56 -77.5 -120.5t-39.5 -138.5z" />
    <glyph glyph-name="uni2078" unicode="&#x2078;" horiz-adv-x="287" 
d="M140 365q60 0 95.5 29t35.5 70q0 37 -24.5 57t-55.5 34q29 9 47.5 28t18.5 44q0 34 -30.5 57.5t-82.5 23.5q-55 0 -86.5 -28.5t-31.5 -65.5q0 -34 18.5 -54.5t43.5 -33.5q-34 -10 -53 -29t-19 -47q0 -36 33 -60.5t91 -24.5zM102 622q0 17 12.5 28t31.5 11t32 -11.5
t13 -30.5q0 -14 -8 -27t-24 -23q-24 10 -40.5 22t-16.5 31zM87 458q0 16 8.5 29.5t25.5 23.5q28 -12 49.5 -24t21.5 -34q0 -18 -14.5 -29.5t-36.5 -11.5q-25 0 -39.5 13t-14.5 33z" />
    <glyph glyph-name="uni2079" unicode="&#x2079;" horiz-adv-x="298" 
d="M140 707q-54 0 -88 -33.5t-34 -83.5q0 -44 28 -71t68 -27q26 0 48.5 14.5t35.5 40.5q0 -57 -21 -92.5t-64 -35.5q-18 0 -37.5 6t-35.5 17l7 -61q16 -7 36 -11.5t41 -4.5q72 0 113.5 52t41.5 128q0 72 -38 117t-101 45zM144 538q-21 0 -35 15t-14 44q0 27 13.5 43.5
t33.5 16.5q23 0 37 -20.5t18 -60.5q-7 -16 -22 -27t-31 -11z" />
    <glyph glyph-name="uni2080" unicode="&#x2080;" horiz-adv-x="325" 
d="M162 -7q59 0 101 47.5t42 124.5q0 76 -41.5 123.5t-101.5 47.5q-58 0 -100 -47.5t-42 -123.5q0 -77 42 -124.5t100 -47.5zM162 42q-25 0 -42 31t-17 90q0 60 17 90.5t42 30.5q26 0 42.5 -30.5t16.5 -90.5q0 -59 -16.5 -90t-42.5 -31z" />
    <glyph glyph-name="uni2081" unicode="&#x2081;" horiz-adv-x="149" 
d="M25 0h101q-6 15 -8 44.5t-2 52.5v238l-97 -30q9 -13 13 -35t4 -47v-126q0 -23 -2.5 -52.5t-8.5 -44.5z" />
    <glyph glyph-name="uni2082" unicode="&#x2082;" horiz-adv-x="256" 
d="M4 0h228l11 70q-20 -7 -52 -11t-55 -4h-38l47 46q50 47 71 77t21 63q0 41 -31.5 67.5t-85.5 26.5q-28 0 -54.5 -9t-45.5 -22l-10 -60q21 16 44.5 26t46.5 10q24 0 39 -14t15 -37q0 -22 -12.5 -45.5t-46.5 -66.5z" />
    <glyph glyph-name="uni2083" unicode="&#x2083;" horiz-adv-x="266" 
d="M120 -6q60 0 95.5 27t35.5 69q0 31 -20 52.5t-59 28.5q33 10 51 30.5t18 48.5q0 37 -30.5 61t-82.5 24q-30 0 -56 -7.5t-45 -17.5l-9 -60q22 13 45 21.5t45 8.5q25 0 38.5 -11t13.5 -30q0 -21 -16 -34.5t-44 -13.5h-24l-15 -49h38q34 0 52 -12.5t18 -34.5t-16.5 -35
t-44.5 -13q-22 0 -46.5 7t-46.5 19l4 -57q19 -10 46 -16t55 -6z" />
    <glyph glyph-name="uni2084" unicode="&#x2084;" horiz-adv-x="311" 
d="M4 74h170q-1 -20 -3.5 -41.5t-6.5 -32.5h95q-4 11 -5.5 32.5t-2.5 41.5h45l9 63q-11 -3 -25 -5.5t-29 -3.5v87l-77 -18v-70h-89l53 95q13 23 31.5 55t32.5 52h-81q-5 -15 -15.5 -39t-19.5 -41z" />
    <glyph glyph-name="uni2085" unicode="&#x2085;" horiz-adv-x="267" 
d="M119 -6q58 0 96 31.5t38 81.5q0 43 -30 69.5t-76 26.5q-15 0 -29.5 -3t-27.5 -8l9 80h132l12 64q-16 -4 -41.5 -5.5t-47.5 -1.5h-110l-23 -176l47 -17q10 7 23.5 12t27.5 5q25 0 40 -13.5t15 -37.5t-18 -40t-46 -16q-24 0 -47 8t-43 18l5 -58q19 -9 43.5 -14.5t50.5 -5.5
z" />
    <glyph glyph-name="uni2086" unicode="&#x2086;" horiz-adv-x="298" 
d="M158 -7q54 0 88 33.5t34 83.5q0 44 -28 71t-68 27q-26 0 -48.5 -14.5t-35.5 -40.5q0 57 21 92.5t64 35.5q18 0 37.5 -6t35.5 -17l-7 61q-16 7 -36 11.5t-41 4.5q-72 0 -113.5 -52t-41.5 -128q0 -72 38 -117t101 -45zM154 162q21 0 35 -15t14 -44q0 -27 -13.5 -43.5
t-33.5 -16.5q-23 0 -37 20.5t-18 60.5q7 16 22 27t31 11z" />
    <glyph glyph-name="uni2087" unicode="&#x2087;" horiz-adv-x="261" 
d="M61 0h93q-1 75 18 140.5t56 131.5l31 57h-238l-13 -68q19 7 44.5 9t48.5 2h88l-11 -13q-46 -56 -77.5 -120.5t-39.5 -138.5z" />
    <glyph glyph-name="uni2088" unicode="&#x2088;" horiz-adv-x="287" 
d="M140 -7q60 0 95.5 29t35.5 70q0 37 -24.5 57t-55.5 34q29 9 47.5 28t18.5 44q0 34 -30.5 57.5t-82.5 23.5q-55 0 -86.5 -28.5t-31.5 -65.5q0 -34 18.5 -54.5t43.5 -33.5q-34 -10 -53 -29t-19 -47q0 -36 33 -60.5t91 -24.5zM102 250q0 17 12.5 28t31.5 11t32 -11.5
t13 -30.5q0 -14 -8 -27t-24 -23q-24 10 -40.5 22t-16.5 31zM87 86q0 16 8.5 29.5t25.5 23.5q28 -12 49.5 -24t21.5 -34q0 -18 -14.5 -29.5t-36.5 -11.5q-25 0 -39.5 13t-14.5 33z" />
    <glyph glyph-name="uni2089" unicode="&#x2089;" horiz-adv-x="298" 
d="M140 335q-54 0 -88 -33.5t-34 -83.5q0 -44 28 -71t68 -27q26 0 48.5 14.5t35.5 40.5q0 -57 -21 -92.5t-64 -35.5q-18 0 -37.5 6t-35.5 17l7 -61q16 -7 36 -11.5t41 -4.5q72 0 113.5 52t41.5 128q0 72 -38 117t-101 45zM144 166q-21 0 -35 15t-14 44q0 27 13.5 43.5
t33.5 16.5q23 0 37 -20.5t18 -60.5q-7 -16 -22 -27t-31 -11z" />
    <glyph glyph-name="Euro" unicode="&#x20ac;" horiz-adv-x="642" 
d="M6 253h96q7 -31 17.5 -58.5t25 -51.5t32.5 -45t39.5 -38t45.5 -30.5t50.5 -22.5t55 -13.5t59.5 -4.5q49 0 94 11t79 30l16 86q-37 -22 -81 -34.5t-86 -12.5q-86 0 -147.5 49.5t-83.5 134.5h186l31 55h-226q-1 10 -1.5 19.5t-0.5 19.5v12.5t1 12.5h259l31 55h-283
q20 90 81.5 145t145.5 55q44 0 88 -13t81 -35l-12 94q-37 19 -82 29t-93 9q-27 0 -52.5 -4.5t-49.5 -12.5t-46.5 -20t-42.5 -27t-37.5 -33.5t-33 -39.5t-27.5 -44.5t-21 -49t-14 -53.5h-94v-55h87q-1 -6 -1 -12v-12q0 -10 0.5 -20t1.5 -20h-88v-55z" />
    <glyph glyph-name="trademark" unicode="&#x2122;" horiz-adv-x="731" 
d="M124 366h90q-1 3 -2 8.5t-2 11.5t-1.5 13.5l-1 15t-0.5 15.5t-0.5 15.5t-0.5 14v11.5v175h26q22 0 44.5 -2.5t41.5 -9.5l-12 66h-273l-12 -66q19 7 41 9.5t44 2.5h27v-175v-11.5t-0.5 -14t-1 -15.5t-1 -15.5l-1 -15t-1.5 -13.5t-2 -11.5t-2 -8.5zM350 366h74q-1 4 -2 10
t-2 13.5t-1.5 15.5t-1 17t-1 17.5t-0.5 16v13.5v137l99 -185l100 187v-139v-11.5t-0.5 -14t-0.5 -15t-0.5 -15t-1 -14.5t-1.5 -13.5t-2 -11.5t-2 -8h87q-1 3 -2 8t-2 11.5t-1.5 13.5t-1 14.5l-1 15t-0.5 15v14v11.5v128v11.5t0.5 14t0.5 15t0.5 15t1 14.5t1.5 13.5t2 11.5
t2 8h-89l-82 -158l-82 158h-91q2 -4 3 -10t1.5 -13.5t1.5 -15.5t1 -17t0.5 -17.5t0.5 -16v-13.5v-128v-13.5t-0.5 -16t-0.5 -17.5t-1 -17t-1.5 -15.5t-2 -13.5z" />
    <glyph glyph-name="uni2153" unicode="&#x2153;" horiz-adv-x="565" 
d="M419 -6q60 0 95.5 27t35.5 69q0 31 -20 52.5t-59 28.5q33 10 51 30.5t18 48.5q0 37 -30.5 61t-82.5 24q-30 0 -56 -7.5t-45 -17.5l-9 -60q22 13 45 21.5t45 8.5q25 0 38.5 -11t13.5 -30q0 -21 -16 -34.5t-44 -13.5h-24l-15 -49h38q34 0 52 -12.5t18 -34.5t-16.5 -35
t-44.5 -13q-22 0 -46.5 7t-46.5 19l4 -57q19 -10 46 -16t55 -6zM45 372h101q-6 15 -8 44.5t-2 52.5v238l-97 -30q9 -13 13 -35t4 -47v-126q0 -23 -2.5 -52.5t-8.5 -44.5zM75 0l403 700h-73l-404 -700h74z" />
    <glyph glyph-name="uni2154" unicode="&#x2154;" horiz-adv-x="655" 
d="M4 372h228l11 70q-20 -7 -52 -11t-55 -4h-38l47 46q50 47 71 77t21 63q0 41 -31.5 67.5t-85.5 26.5q-28 0 -54.5 -9t-45.5 -22l-10 -60q21 16 44.5 26t46.5 10q24 0 39 -14t15 -37q0 -22 -12.5 -45.5t-46.5 -66.5zM509 -6q60 0 95.5 27t35.5 69q0 31 -20 52.5t-59 28.5
q33 10 51 30.5t18 48.5q0 37 -30.5 61t-82.5 24q-30 0 -56 -7.5t-45 -17.5l-9 -60q22 13 45 21.5t45 8.5q25 0 38.5 -11t13.5 -30q0 -21 -16 -34.5t-44 -13.5h-24l-15 -49h38q34 0 52 -12.5t18 -34.5t-16.5 -35t-44.5 -13q-22 0 -46.5 7t-46.5 19l4 -57q19 -10 46 -16t55 -6
zM167 0l403 700h-73l-404 -700h74z" />
    <glyph glyph-name="uni2155" unicode="&#x2155;" horiz-adv-x="567" 
d="M419 -6q58 0 96 31.5t38 81.5q0 43 -30 69.5t-76 26.5q-15 0 -29.5 -3t-27.5 -8l9 80h132l12 64q-16 -4 -41.5 -5.5t-47.5 -1.5h-110l-23 -176l47 -17q10 7 23.5 12t27.5 5q25 0 40 -13.5t15 -37.5t-18 -40t-46 -16q-24 0 -47 8t-43 18l5 -58q19 -9 43.5 -14.5t50.5 -5.5
zM45 372h101q-6 15 -8 44.5t-2 52.5v238l-97 -30q9 -13 13 -35t4 -47v-126q0 -23 -2.5 -52.5t-8.5 -44.5zM75 0l403 700h-73l-404 -700h74z" />
    <glyph glyph-name="uni2156" unicode="&#x2156;" horiz-adv-x="658" 
d="M4 372h228l11 70q-20 -7 -52 -11t-55 -4h-38l47 46q50 47 71 77t21 63q0 41 -31.5 67.5t-85.5 26.5q-28 0 -54.5 -9t-45.5 -22l-10 -60q21 16 44.5 26t46.5 10q24 0 39 -14t15 -37q0 -22 -12.5 -45.5t-46.5 -66.5zM510 -6q58 0 96 31.5t38 81.5q0 43 -30 69.5t-76 26.5
q-15 0 -29.5 -3t-27.5 -8l9 80h132l12 64q-16 -4 -41.5 -5.5t-47.5 -1.5h-110l-23 -176l47 -17q10 7 23.5 12t27.5 5q25 0 40 -13.5t15 -37.5t-18 -40t-46 -16q-24 0 -47 8t-43 18l5 -58q19 -9 43.5 -14.5t50.5 -5.5zM167 0l403 700h-73l-404 -700h74z" />
    <glyph glyph-name="uni2157" unicode="&#x2157;" horiz-adv-x="645" 
d="M120 366q60 0 95.5 27t35.5 69q0 31 -20 52.5t-59 28.5q33 10 51 30.5t18 48.5q0 37 -30.5 61t-82.5 24q-30 0 -56 -7.5t-45 -17.5l-9 -60q22 13 45 21.5t45 8.5q25 0 38.5 -11t13.5 -30q0 -21 -16 -34.5t-44 -13.5h-24l-15 -49h38q34 0 52 -12.5t18 -34.5t-16.5 -35
t-44.5 -13q-22 0 -46.5 7t-46.5 19l4 -57q19 -10 46 -16t55 -6zM497 -6q58 0 96 31.5t38 81.5q0 43 -30 69.5t-76 26.5q-15 0 -29.5 -3t-27.5 -8l9 80h132l12 64q-16 -4 -41.5 -5.5t-47.5 -1.5h-110l-23 -176l47 -17q10 7 23.5 12t27.5 5q25 0 40 -13.5t15 -37.5t-18 -40
t-46 -16q-24 0 -47 8t-43 18l5 -58q19 -9 43.5 -14.5t50.5 -5.5zM154 0l403 700h-73l-404 -700h74z" />
    <glyph glyph-name="uni2158" unicode="&#x2158;" horiz-adv-x="696" 
d="M4 446h170q-1 -20 -3.5 -41.5t-6.5 -32.5h95q-4 11 -5.5 32.5t-2.5 41.5h45l9 63q-11 -3 -25 -5.5t-29 -3.5v87l-77 -18v-70h-89l53 95q13 23 31.5 55t32.5 52h-81q-5 -15 -15.5 -39t-19.5 -41zM548 -6q58 0 96 31.5t38 81.5q0 43 -30 69.5t-76 26.5q-15 0 -29.5 -3
t-27.5 -8l9 80h132l12 64q-16 -4 -41.5 -5.5t-47.5 -1.5h-110l-23 -176l47 -17q10 7 23.5 12t27.5 5q25 0 40 -13.5t15 -37.5t-18 -40t-46 -16q-24 0 -47 8t-43 18l5 -58q19 -9 43.5 -14.5t50.5 -5.5zM206 0l403 700h-73l-404 -700h74z" />
    <glyph glyph-name="uni2159" unicode="&#x2159;" horiz-adv-x="554" 
d="M415 -7q54 0 88 33.5t34 83.5q0 44 -28 71t-68 27q-26 0 -48.5 -14.5t-35.5 -40.5q0 57 21 92.5t64 35.5q18 0 37.5 -6t35.5 -17l-7 61q-16 7 -36 11.5t-41 4.5q-72 0 -113.5 -52t-41.5 -128q0 -72 38 -117t101 -45zM411 162q21 0 35 -15t14 -44q0 -27 -13.5 -43.5
t-33.5 -16.5q-23 0 -37 20.5t-18 60.5q7 16 22 27t31 11zM45 372h101q-6 15 -8 44.5t-2 52.5v238l-97 -30q9 -13 13 -35t4 -47v-126q0 -23 -2.5 -52.5t-8.5 -44.5zM74 0l403 700h-73l-404 -700h74z" />
    <glyph glyph-name="uni215A" unicode="&#x215a;" horiz-adv-x="626" 
d="M119 366q58 0 96 31.5t38 81.5q0 43 -30 69.5t-76 26.5q-15 0 -29.5 -3t-27.5 -8l9 80h132l12 64q-16 -4 -41.5 -5.5t-47.5 -1.5h-110l-23 -176l47 -17q10 7 23.5 12t27.5 5q25 0 40 -13.5t15 -37.5t-18 -40t-46 -16q-24 0 -47 8t-43 18l5 -58q19 -9 43.5 -14.5
t50.5 -5.5zM486 -7q54 0 88 33.5t34 83.5q0 44 -28 71t-68 27q-26 0 -48.5 -14.5t-35.5 -40.5q0 57 21 92.5t64 35.5q18 0 37.5 -6t35.5 -17l-7 61q-16 7 -36 11.5t-41 4.5q-72 0 -113.5 -52t-41.5 -128q0 -72 38 -117t101 -45zM482 162q21 0 35 -15t14 -44
q0 -27 -13.5 -43.5t-33.5 -16.5q-23 0 -37 20.5t-18 60.5q7 16 22 27t31 11zM144 0l403 700h-73l-404 -700h74z" />
    <glyph glyph-name="uni215B" unicode="&#x215b;" horiz-adv-x="566" 
d="M419 -7q60 0 95.5 29t35.5 70q0 37 -24.5 57t-55.5 34q29 9 47.5 28t18.5 44q0 34 -30.5 57.5t-82.5 23.5q-55 0 -86.5 -28.5t-31.5 -65.5q0 -34 18.5 -54.5t43.5 -33.5q-34 -10 -53 -29t-19 -47q0 -36 33 -60.5t91 -24.5zM381 250q0 17 12.5 28t31.5 11t32 -11.5
t13 -30.5q0 -14 -8 -27t-24 -23q-24 10 -40.5 22t-16.5 31zM366 86q0 16 8.5 29.5t25.5 23.5q28 -12 49.5 -24t21.5 -34q0 -18 -14.5 -29.5t-36.5 -11.5q-25 0 -39.5 13t-14.5 33zM45 372h101q-6 15 -8 44.5t-2 52.5v238l-97 -30q9 -13 13 -35t4 -47v-126q0 -23 -2.5 -52.5
t-8.5 -44.5zM75 0l403 700h-73l-404 -700h74z" />
    <glyph glyph-name="uni215C" unicode="&#x215c;" horiz-adv-x="652" 
d="M120 366q60 0 95.5 27t35.5 69q0 31 -20 52.5t-59 28.5q33 10 51 30.5t18 48.5q0 37 -30.5 61t-82.5 24q-30 0 -56 -7.5t-45 -17.5l-9 -60q22 13 45 21.5t45 8.5q25 0 38.5 -11t13.5 -30q0 -21 -16 -34.5t-44 -13.5h-24l-15 -49h38q34 0 52 -12.5t18 -34.5t-16.5 -35
t-44.5 -13q-22 0 -46.5 7t-46.5 19l4 -57q19 -10 46 -16t55 -6zM505 -7q60 0 95.5 29t35.5 70q0 37 -24.5 57t-55.5 34q29 9 47.5 28t18.5 44q0 34 -30.5 57.5t-82.5 23.5q-55 0 -86.5 -28.5t-31.5 -65.5q0 -34 18.5 -54.5t43.5 -33.5q-34 -10 -53 -29t-19 -47
q0 -36 33 -60.5t91 -24.5zM467 250q0 17 12.5 28t31.5 11t32 -11.5t13 -30.5q0 -14 -8 -27t-24 -23q-24 10 -40.5 22t-16.5 31zM452 86q0 16 8.5 29.5t25.5 23.5q28 -12 49.5 -24t21.5 -34q0 -18 -14.5 -29.5t-36.5 -11.5q-25 0 -39.5 13t-14.5 33zM159 0l403 700h-73
l-404 -700h74z" />
    <glyph glyph-name="uni215D" unicode="&#x215d;" horiz-adv-x="637" 
d="M119 366q58 0 96 31.5t38 81.5q0 43 -30 69.5t-76 26.5q-15 0 -29.5 -3t-27.5 -8l9 80h132l12 64q-16 -4 -41.5 -5.5t-47.5 -1.5h-110l-23 -176l47 -17q10 7 23.5 12t27.5 5q25 0 40 -13.5t15 -37.5t-18 -40t-46 -16q-24 0 -47 8t-43 18l5 -58q19 -9 43.5 -14.5
t50.5 -5.5zM490 -7q60 0 95.5 29t35.5 70q0 37 -24.5 57t-55.5 34q29 9 47.5 28t18.5 44q0 34 -30.5 57.5t-82.5 23.5q-55 0 -86.5 -28.5t-31.5 -65.5q0 -34 18.5 -54.5t43.5 -33.5q-34 -10 -53 -29t-19 -47q0 -36 33 -60.5t91 -24.5zM452 250q0 17 12.5 28t31.5 11
t32 -11.5t13 -30.5q0 -14 -8 -27t-24 -23q-24 10 -40.5 22t-16.5 31zM437 86q0 16 8.5 29.5t25.5 23.5q28 -12 49.5 -24t21.5 -34q0 -18 -14.5 -29.5t-36.5 -11.5q-25 0 -39.5 13t-14.5 33zM144 0l403 700h-73l-404 -700h74z" />
    <glyph glyph-name="uni215E" unicode="&#x215e;" horiz-adv-x="597" 
d="M62 372h93q-1 75 18 140.5t56 131.5l31 57h-238l-13 -68q19 7 44.5 9t48.5 2h88l-11 -13q-46 -56 -77.5 -120.5t-39.5 -138.5zM449 -7q60 0 95.5 29t35.5 70q0 37 -24.5 57t-55.5 34q29 9 47.5 28t18.5 44q0 34 -30.5 57.5t-82.5 23.5q-55 0 -86.5 -28.5t-31.5 -65.5
q0 -34 18.5 -54.5t43.5 -33.5q-34 -10 -53 -29t-19 -47q0 -36 33 -60.5t91 -24.5zM411 250q0 17 12.5 28t31.5 11t32 -11.5t13 -30.5q0 -14 -8 -27t-24 -23q-24 10 -40.5 22t-16.5 31zM396 86q0 16 8.5 29.5t25.5 23.5q28 -12 49.5 -24t21.5 -34q0 -18 -14.5 -29.5
t-36.5 -11.5q-25 0 -39.5 13t-14.5 33zM104 0l403 700h-73l-404 -700h74z" />
    <glyph glyph-name="uni215F" unicode="&#x215f;" horiz-adv-x="479" 
d="M45 372h101q-6 15 -8 44.5t-2 52.5v238l-97 -30q9 -13 13 -35t4 -47v-126q0 -23 -2.5 -52.5t-8.5 -44.5zM75 0l403 700h-73l-404 -700h74z" />
    <glyph glyph-name="uni2190" unicode="&#x2190;" horiz-adv-x="734" 
d="M267 97h107q-52 54 -105.5 109t-105.5 109q132 -2 265.5 -4.5t264.5 -5.5v91q-131 -2 -264 -4.5t-264 -4.5q52 53 105 107.5t104 108.5h-107q-52 -55 -116.5 -122.5t-124.5 -130.5q60 -63 120.5 -126.5t120.5 -126.5z" />
    <glyph glyph-name="arrowup" unicode="&#x2191;" horiz-adv-x="734" 
d="M114 468v-107q54 52 109 105.5t109 105.5q-2 -132 -4.5 -265.5t-5.5 -264.5h91q-2 131 -4.5 264t-4.5 264q53 -52 107.5 -105t108.5 -104v107q-55 52 -122.5 116.5t-130.5 124.5q-63 -60 -126.5 -120.5t-126.5 -120.5z" />
    <glyph glyph-name="uni2192" unicode="&#x2192;" horiz-adv-x="734" 
d="M467 97h-107q52 54 105.5 109t105.5 109q-132 -2 -265.5 -4.5t-264.5 -5.5v91q131 -2 264 -4.5t264 -4.5q-52 53 -105 107.5t-104 108.5h107q52 -55 116.5 -122.5t124.5 -130.5q-60 -63 -120.5 -126.5t-120.5 -126.5z" />
    <glyph glyph-name="arrowdown" unicode="&#x2193;" horiz-adv-x="734" 
d="M620 245v107q-54 -52 -109 -105.5t-109 -105.5q2 132 4.5 265.5t5.5 264.5h-91q2 -131 4.5 -264t4.5 -264q-53 52 -107.5 105t-108.5 104v-107q55 -52 122.5 -116.5t130.5 -124.5q63 60 126.5 120.5t126.5 120.5z" />
    <glyph glyph-name="uni2196" unicode="&#x2196;" horiz-adv-x="734" 
d="M110 258l76 -76q2 76 3 152.5t2 150.5q92 -95 184.5 -190.5t183.5 -190.5l64 64q-94 91 -189.5 183.5t-190.5 183.5q75 1 150.5 2t150.5 3l-76 76q-76 -3 -169.5 -5t-179.5 -4q-2 -86 -4.5 -174t-4.5 -175z" />
    <glyph glyph-name="uni2197" unicode="&#x2197;" horiz-adv-x="734" 
d="M266 617l-76 -76q76 -2 152.5 -3t150.5 -2q-95 -92 -190.5 -184.5t-190.5 -183.5l64 -64q91 94 183.5 189.5t183.5 190.5q1 -75 2 -150.5t3 -150.5l76 76q-3 76 -5 169.5t-4 179.5q-86 2 -174 4.5t-175 4.5z" />
    <glyph glyph-name="uni2198" unicode="&#x2198;" horiz-adv-x="734" 
d="M625 442l-76 76q-2 -76 -3 -152.5t-2 -150.5q-92 95 -184.5 190.5t-183.5 190.5l-64 -64q94 -91 189.5 -183.5t190.5 -183.5q-75 -1 -150.5 -2t-150.5 -3l76 -76q76 3 169.5 5t179.5 4q2 86 4.5 174t4.5 175z" />
    <glyph glyph-name="uni2199" unicode="&#x2199;" horiz-adv-x="734" 
d="M468 84l76 76q-76 2 -152.5 3t-150.5 2q95 92 190.5 184.5t190.5 183.5l-64 64q-91 -94 -183.5 -189.5t-183.5 -190.5q-1 75 -2 150.5t-3 150.5l-76 -76q3 -76 5 -169.5t4 -179.5q86 -2 174 -4.5t175 -4.5z" />
    <glyph glyph-name="minus" unicode="&#x2212;" horiz-adv-x="602" 
d="M74 320h454v60h-454v-60z" />
    <glyph glyph-name="approxequal" unicode="&#x2248;" horiz-adv-x="602" 
d="M419 354q25 0 56 11.5t53 33.5v62q-22 -22 -51 -34.5t-58 -12.5q-13 0 -26 2t-25.5 6t-25.5 8.5t-26 10t-26.5 11t-26.5 10t-26 8.5t-26.5 6t-26.5 2q-29 0 -58.5 -12t-51.5 -32v-62q22 22 51.5 34t58.5 12q13 0 26 -2t25.5 -6t25.5 -8.5t26 -10l26 -11t26 -10t26.5 -8.5
t26.5 -6t27 -2zM419 190q25 0 56 12t53 32v62q-22 -22 -51 -34t-58 -12q-13 0 -26 2t-25.5 6t-25.5 8.5t-26 10t-26.5 11t-26.5 10t-26 8.5t-26.5 6t-26.5 2q-29 0 -58.5 -11.5t-51.5 -33.5v-62q22 22 51.5 34.5t58.5 12.5q13 0 26 -2t25.5 -6t25.5 -8.5t26 -10l26 -11
t26 -10t26.5 -8.5t26.5 -6t27 -2z" />
    <glyph glyph-name="notequal" unicode="&#x2260;" horiz-adv-x="602" 
d="M94 97h61l98 141h275v57h-235l77 110h158v57h-118l98 141h-56l-100 -141h-278v-57h238l-78 -110h-160v-57h120z" />
    <glyph glyph-name="lessequal" unicode="&#x2264;" horiz-adv-x="602" 
d="M74 -2h454v60h-454v-60zM507 141v68l-304 172l304 172v66l-418 -239z" />
    <glyph glyph-name="greaterequal" unicode="&#x2265;" horiz-adv-x="602" 
d="M74 -2h454v60h-454v-60zM111 619v-68l304 -172l-304 -172v-66l418 239z" />
    <glyph glyph-name="uni25A0" unicode="&#x25a0;" horiz-adv-x="897" 
d="M799 700h-700v-700h700v700z" />
    <glyph glyph-name="uni25A1" unicode="&#x25a1;" horiz-adv-x="897" 
d="M799 700h-700v-700h700v700zM714 615v-530h-530v530h530z" />
    <glyph glyph-name="uni25AA" unicode="&#x25aa;" horiz-adv-x="721" 
d="M94 0h534v534h-534v-534z" />
    <glyph glyph-name="uni25AB" unicode="&#x25ab;" horiz-adv-x="721" 
d="M94 0h534v534h-534v-534zM165 463h392v-392h-392v392z" />
    <glyph glyph-name="triagup" unicode="&#x25b2;" horiz-adv-x="752" 
d="M725 0l-349 606l-350 -606h699z" />
    <glyph glyph-name="triagrt" unicode="&#x25ba;" horiz-adv-x="752" 
d="M90 0l605 350l-605 349v-699z" />
    <glyph glyph-name="triagdn" unicode="&#x25bc;" horiz-adv-x="752" 
d="M26 700l350 -606l349 606h-699z" />
    <glyph glyph-name="triaglf" unicode="&#x25c4;" horiz-adv-x="752" 
d="M662 699l-605 -349l605 -350v699z" />
    <glyph glyph-name="uni25CB" unicode="&#x25cb;" horiz-adv-x="841" 
d="M421 -9q30 0 58 4.5t55 13.5t51.5 22t47 29.5t42 36t36 42t29.5 47.5t22 51.5t13.5 55t4.5 58.5t-4.5 58t-13.5 55t-22 51.5t-29.5 47t-36 42t-42 36t-47 29.5t-51.5 22t-55 13.5t-58 4.5t-58.5 -4.5t-55 -13.5t-51.5 -22t-47.5 -29.5t-42 -36t-36 -42t-29.5 -47
t-22 -51.5t-13.5 -55t-4.5 -58t4.5 -58.5t13.5 -55t22 -51.5t29.5 -47.5t36 -42t42 -36t47.5 -29.5t51.5 -22t55 -13.5t58.5 -4.5zM421 71q-23 0 -45 3.5t-42.5 10.5t-40 17.5t-37 23t-32.5 28t-28 33t-23 36.5t-17.5 40t-11 43t-3.5 45t3.5 45t11 42.5t17.5 39.5t23 36.5
t28 33t32.5 28t37 23t40 17.5t42.5 10.5t45 3.5t45 -3.5t42.5 -11t39.5 -17.5t36 -23t32.5 -28t28 -33t22.5 -37t17 -40t10.5 -43t3.5 -45t-3.5 -45t-10.5 -42.5t-17 -39.5t-22.5 -36.5t-28 -32.5t-32.5 -28t-36 -23t-39.5 -17t-42.5 -10.5t-45 -3.5z" />
    <glyph glyph-name="uni25CF" unicode="&#x25cf;" horiz-adv-x="841" 
d="M421 -9q30 0 58 4.5t55 13.5t51.5 22t47 29.5t42 36t36 42t29.5 47.5t22 51.5t13.5 55t4.5 58.5t-4.5 58t-13.5 55t-22 51.5t-29.5 47t-36 42t-42 36t-47 29.5t-51.5 22t-55 13.5t-58 4.5t-58.5 -4.5t-55 -13.5t-51.5 -22t-47.5 -29.5t-42 -36t-36 -42t-29.5 -47
t-22 -51.5t-13.5 -55t-4.5 -58t4.5 -58.5t13.5 -55t22 -51.5t29.5 -47.5t36 -42t42 -36t47.5 -29.5t51.5 -22t55 -13.5t58.5 -4.5z" />
    <glyph glyph-name="uni25E2" unicode="&#x25e2;" horiz-adv-x="702" 
d="M13 181l676 -181l-181 676z" />
    <glyph glyph-name="uni25E3" unicode="&#x25e3;" horiz-adv-x="702" 
d="M194 676l-181 -676l676 181z" />
    <glyph glyph-name="uni25E4" unicode="&#x25e4;" horiz-adv-x="702" 
d="M689 520l-676 181l181 -676z" />
    <glyph glyph-name="uni25E5" unicode="&#x25e5;" horiz-adv-x="702" 
d="M508 25l181 676l-676 -181z" />
    <glyph glyph-name="caronSlovak" unicode="&#xe413;" 
d="M239 508h47l72 209h-108z" />
    <glyph glyph-name="uni00200326" unicode="&#xe414;" 
d="M207 -292q51 25 78.5 63t27.5 82q0 35 -19.5 56t-46.5 21q-25 0 -41 -16t-16 -38q0 -7 1.5 -13.5t4.5 -11.5t6.5 -9t7.5 -8t8 -7.5t8 -6.5t7.5 -6.5t6.5 -8t4.5 -9t1.5 -10.5q0 -16 -12 -35t-32 -37z" />
    <glyph glyph-name="fi" unicode="&#xfb01;" horiz-adv-x="598" 
d="M89 0h148q-3 7 -5 15t-4 18t-3.5 21t-2.5 22.5t-1.5 23t-1.5 23t-1 22.5v21v262h118v70h-119q-1 21 -1.5 42t-0.5 40q0 37 16.5 56t48.5 19q16 0 33.5 -5t33.5 -12l-11 82q-16 6 -37 9.5t-40 3.5q-71 0 -111.5 -42.5t-40.5 -120.5v-72h-91l-16 -70h107v-262v-21
t-0.5 -22.5t-1.5 -23l-2 -23t-2.5 -22.5t-3 -21t-4 -18t-4.5 -15zM472 573q30 0 50 20t20 49q0 28 -20 48t-50 20t-49.5 -20t-19.5 -48q0 -29 19.5 -49t49.5 -20zM401 0h146q-2 7 -4.5 15t-4 18t-3 21t-2.5 22.5l-2 23t-1.5 23t-0.5 22.5v21v337l-131 -22q3 -6 5.5 -14.5
t4.5 -18t3.5 -20t2.5 -21.5l2 -22t1.5 -22t0.5 -21.5v-19.5v-156v-21t-0.5 -22.5t-1.5 -23l-2 -23t-2 -22.5t-3 -21t-4 -18t-4 -15z" />
    <glyph glyph-name="fl" unicode="&#xfb02;" horiz-adv-x="598" 
d="M89 0h148q-3 7 -5 15t-4 18t-3.5 21t-2.5 22.5t-1.5 23t-1.5 23t-1 22.5v21v262h118v70h-119q-1 21 -1.5 42t-0.5 40q0 37 16.5 56t48.5 19q16 0 33.5 -5t33.5 -12l-11 82q-16 6 -37 9.5t-40 3.5q-71 0 -111.5 -42.5t-40.5 -120.5v-72h-91l-16 -70h107v-262v-21
t-0.5 -22.5t-1.5 -23l-2 -23t-2.5 -22.5t-3 -21t-4 -18t-4.5 -15zM401 0h146q-2 7 -4.5 15t-4 18t-3 21t-2.5 22.5l-2 23t-1.5 23t-0.5 22.5v21v559l-131 -21q3 -6 5.5 -14.5t4.5 -18t3.5 -20t2.5 -21.5l2 -22t1.5 -22t0.5 -21.5v-19.5v-379v-21t-0.5 -22.5t-1.5 -23l-2 -23
t-2 -22.5t-3 -21t-4 -18t-4 -15z" />
    <glyph glyph-name="A.flat" horiz-adv-x="662" 
d="M-1 0h141q-1 8 -0.5 17t1.5 19.5t3 22t5 23.5t6.5 24.5t7 24.5t7.5 23.5t8 22.5l4 12h273l4 -12q4 -10 8 -22t7.5 -24l7 -24t7 -24.5t5.5 -24t3.5 -22t2.5 -19.5t0 -17h163q-4 7 -8.5 16t-9.5 20t-10 22.5t-11 24.5t-11.5 26t-10.5 26t-10 25.5t-10 24.5l-203 517h-96
l-203 -517q-4 -12 -9.5 -24.5t-10.5 -25.5t-10.5 -26t-11.5 -25.5t-11 -24.5t-10 -23t-9.5 -20t-8.5 -16zM211 267l108 288l107 -288h-215z" />
    <glyph glyph-name="J.alt" horiz-adv-x="451" 
d="M171 -10q91 0 146.5 47.5t55.5 130.5v342v21t0.5 22.5t1 23.5t1.5 24.5t2 24t2.5 22.5t3 20.5t4 17.5t4.5 14h-159q3 -6 5 -14t4 -17.5t3.5 -20.5t2.5 -22.5t2 -24t2 -24.5t1.5 -23.5t0.5 -22.5v-21v-336q0 -53 -28.5 -79t-76.5 -26q-34 0 -69.5 11.5t-68.5 31.5l8 -86
q31 -16 70.5 -26t81.5 -10z" />
    <glyph glyph-name="M.flat" horiz-adv-x="831" 
d="M61 0h136q-2 6 -4.5 14t-4 17.5t-3 20.5t-3 22.5t-2.5 24t-1.5 24.5t-1 23.5t-1 22.5t-0.5 21l-2 343v17l8 -16l221 -417l225 417l7 14v-15l-2 -343v-21t-0.5 -22.5t-1 -23.5t-1.5 -24.5t-2.5 -24t-3 -22.5t-3 -20.5t-3.5 -17.5t-5 -14h155q-2 6 -4.5 14t-4 17.5t-3 20.5
t-3 22.5t-2.5 24t-1.5 24.5t-1 23.5t-0.5 22.5v21v319q0 11 0.5 23.5t1 26t2 27l3 27t3.5 26.5t4 24t5 20.5t6 16.5h-153l-202 -387l-203 387h-158q3 -7 6 -16.5t5.5 -20.5t4.5 -24t3.5 -26.5t2.5 -27t1.5 -27t1 -26t0.5 -23.5v-319v-21t-0.5 -22.5t-1.5 -23.5t-1.5 -24.5
t-2 -24t-3 -22.5t-3.5 -20.5t-4 -17.5t-5 -14z" />
    <glyph glyph-name="N.flat" horiz-adv-x="727" 
d="M557 0h90v510v21t0.5 22.5t1 23.5t1.5 24.5t2.5 24t3 22.5t3 20.5t4 17.5t4.5 14h-135q3 -6 5 -14t4 -17.5t3.5 -20.5t3 -22.5t2.5 -24t1.5 -24.5t1 -23.5t1 -22.5t0.5 -21l4 -313l-357 503h-145q3 -6 5.5 -14.5t5 -18.5t4.5 -21t3.5 -23t2.5 -24.5l2 -25t1.5 -24.5
t1 -23.5t0.5 -21.5v-314v-21t-0.5 -22.5t-1.5 -23.5t-1.5 -24.5t-2 -24t-3 -22.5t-3.5 -20.5t-4 -17.5t-5 -14h136q-3 6 -5 14t-4 17.5t-3.5 20.5t-3 22.5t-2.5 24t-2 24.5t-1.5 23.5t-0.5 22.5v21l-4 346v8z" />
    <glyph glyph-name="Q.alt" horiz-adv-x="771" 
d="M690 -192q21 0 43.5 3t42.5 8q-90 25 -162.5 70t-119.5 115q26 9 50.5 21.5t46.5 28.5t41.5 35t35.5 41.5t28.5 48t21.5 53t13.5 57t4.5 61.5t-4.5 62t-13 58t-21 53t-28.5 47.5t-35 41.5t-40.5 35t-46 28t-50.5 20.5t-53.5 13t-56.5 4.5t-57.5 -4.5t-54.5 -13t-50.5 -21
t-46 -28.5t-41 -35.5t-35.5 -42t-28.5 -47.5t-21 -52.5t-13 -57.5t-4.5 -61q0 -34 5 -66.5t15 -61.5t24.5 -55.5t32.5 -49.5t39.5 -42.5t46 -35t51.5 -26.5t56 -17.5t60 -7.5q16 -24 34.5 -45.5t40 -39.5t45 -33t48.5 -26.5t51 -19.5t52.5 -12t53.5 -4zM161 349q0 32 4.5 61
t13 55t20.5 47.5t27 40t33 32t38.5 23t43 14.5t46.5 5t46 -5t42 -14.5t38 -23.5t33 -32t27 -40t20 -47.5t12.5 -54.5t4.5 -61t-4.5 -61t-13 -54.5t-20 -47.5t-27 -40t-33.5 -31.5t-38.5 -23t-43 -14.5t-46.5 -5q-23 0 -45 5t-42.5 14.5t-38 23.5t-32.5 32t-27 40t-20.5 47
t-13 54t-4.5 61z" />
    <glyph glyph-name="R.alt" horiz-adv-x="623" 
d="M63 0h157q-2 6 -4.5 14t-4 17.5t-3 20.5t-3 22.5t-2.5 24t-1.5 24.5t-1 23.5t-0.5 22.5v21v105h107q15 -33 32.5 -63.5t38 -58t43.5 -51.5t48.5 -44.5t53.5 -36.5t58 -26.5t61 -16.5l1 2q-74 73 -130.5 154.5t-87.5 162.5q60 24 96 72.5t36 112.5q0 90 -66.5 144
t-181.5 54h-249q3 -6 5 -14t4 -17.5t4 -20.5t3.5 -23t2.5 -24t1.5 -24l1 -24t1 -23t0.5 -21v-319v-21t-0.5 -22.5t-1 -23.5t-1.5 -24.5t-2.5 -24t-3 -22.5t-3 -20.5t-4 -17.5t-4.5 -14zM297 618q66 0 105 -31.5t39 -88.5q0 -59 -40 -91.5t-106 -32.5h-95v244h97z" />
    <glyph glyph-name="V.flat" horiz-adv-x="661" 
d="M662 700h-139q1 -7 0.5 -16.5t-1.5 -20t-3 -22t-5 -23.5t-6.5 -24.5t-7 -24.5t-7.5 -23.5t-8 -22.5l-142 -378l-143 378q-4 11 -8 22.5t-7.5 23.5l-7 24t-6.5 24.5t-5.5 24t-4 22t-2 20t0.5 16.5h-161q4 -7 8.5 -16t9.5 -20t10 -22.5t10.5 -24.5l11 -26l11 -26
t10.5 -25.5t10 -24.5l203 -517h96l203 517q5 12 9.5 24.5t10 25.5l11 26t11 25.5t11 24.5t10 23t9 20t8.5 16z" />
    <glyph glyph-name="W.flat" horiz-adv-x="917" 
d="M209 -2h94l132 450l23 79l22 -79l134 -450h94l136 510q13 51 29 106t29 86h-127q6 -28 -1.5 -77t-17.5 -94l-72 -295l-15 -61l-17 61l-136 467h-88l-138 -470l-17 -62l-15 62l-73 298q-3 11 -5.5 23l-5 24t-4.5 24l-4 24t-3 22.5t-1.5 20.5t0 18.5t1.5 14.5h-148
q13 -31 28.5 -86t29.5 -106z" />
    <glyph glyph-name="Agrave.flat" horiz-adv-x="662" 
d="M-1 0h141q-1 8 -0.5 17t1.5 19.5t3 22t5 23.5t6.5 24.5t7 24.5t7.5 23.5t8 22.5l4 12h273l4 -12q4 -10 8 -22t7.5 -24l7 -24t7 -24.5t5.5 -24t3.5 -22t2.5 -19.5t0 -17h163q-4 7 -8.5 16t-9.5 20t-10 22.5t-11 24.5t-11.5 26t-10.5 26t-10 25.5t-10 24.5l-203 517h-96
l-203 -517q-4 -12 -9.5 -24.5t-10.5 -25.5t-10.5 -26t-11.5 -25.5t-11 -24.5t-10 -23t-9.5 -20t-8.5 -16zM211 267l108 288l107 -288h-215zM321 759h61l-83 147h-125z" />
    <glyph glyph-name="Aacute.flat" horiz-adv-x="662" 
d="M-1 0h141q-1 8 -0.5 17t1.5 19.5t3 22t5 23.5t6.5 24.5t7 24.5t7.5 23.5t8 22.5l4 12h273l4 -12q4 -10 8 -22t7.5 -24l7 -24t7 -24.5t5.5 -24t3.5 -22t2.5 -19.5t0 -17h163q-4 7 -8.5 16t-9.5 20t-10 22.5t-11 24.5t-11.5 26t-10.5 26t-10 25.5t-10 24.5l-203 517h-96
l-203 -517q-4 -12 -9.5 -24.5t-10.5 -25.5t-10.5 -26t-11.5 -25.5t-11 -24.5t-10 -23t-9.5 -20t-8.5 -16zM211 267l108 288l107 -288h-215zM278 759h60l148 147h-125z" />
    <glyph glyph-name="Acircumflex.flat" horiz-adv-x="662" 
d="M-1 0h141q-1 8 -0.5 17t1.5 19.5t3 22t5 23.5t6.5 24.5t7 24.5t7.5 23.5t8 22.5l4 12h273l4 -12q4 -10 8 -22t7.5 -24l7 -24t7 -24.5t5.5 -24t3.5 -22t2.5 -19.5t0 -17h163q-4 7 -8.5 16t-9.5 20t-10 22.5t-11 24.5t-11.5 26t-10.5 26t-10 25.5t-10 24.5l-203 517h-96
l-203 -517q-4 -12 -9.5 -24.5t-10.5 -25.5t-10.5 -26t-11.5 -25.5t-11 -24.5t-10 -23t-9.5 -20t-8.5 -16zM211 267l108 288l107 -288h-215zM167 759h54l109 85l108 -85h55l-115 147h-96z" />
    <glyph glyph-name="Atilde.flat" horiz-adv-x="662" 
d="M-1 0h141q-1 8 -0.5 17t1.5 19.5t3 22t5 23.5t6.5 24.5t7 24.5t7.5 23.5t8 22.5l4 12h273l4 -12q4 -10 8 -22t7.5 -24l7 -24t7 -24.5t5.5 -24t3.5 -22t2.5 -19.5t0 -17h163q-4 7 -8.5 16t-9.5 20t-10 22.5t-11 24.5t-11.5 26t-10.5 26t-10 25.5t-10 24.5l-203 517h-96
l-203 -517q-4 -12 -9.5 -24.5t-10.5 -25.5t-10.5 -26t-11.5 -25.5t-11 -24.5t-10 -23t-9.5 -20t-8.5 -16zM211 267l108 288l107 -288h-215zM171 771h25q11 29 25.5 43t33.5 14q7 0 13.5 -2t14 -5t15.5 -7.5l16 -9t16.5 -9.5t17 -9.5t17.5 -7.5t18 -5t18 -2q34 0 60.5 30.5
t40.5 96.5h-25q-12 -28 -26 -42t-33 -14q-7 0 -14 2t-14.5 5t-15 7.5t-15.5 9t-16.5 9l-17 9t-17.5 7.5t-18 5t-18 2q-34 0 -60.5 -30.5t-40.5 -96.5z" />
    <glyph glyph-name="Adieresis.flat" horiz-adv-x="662" 
d="M-1 0h141q-1 8 -0.5 17t1.5 19.5t3 22t5 23.5t6.5 24.5t7 24.5t7.5 23.5t8 22.5l4 12h273l4 -12q4 -10 8 -22t7.5 -24l7 -24t7 -24.5t5.5 -24t3.5 -22t2.5 -19.5t0 -17h163q-4 7 -8.5 16t-9.5 20t-10 22.5t-11 24.5t-11.5 26t-10.5 26t-10 25.5t-10 24.5l-203 517h-96
l-203 -517q-4 -12 -9.5 -24.5t-10.5 -25.5t-10.5 -26t-11.5 -25.5t-11 -24.5t-10 -23t-9.5 -20t-8.5 -16zM211 267l108 288l107 -288h-215zM238 772q29 0 47 19.5t18 44.5q0 26 -18 45t-47 19q-28 0 -46.5 -19t-18.5 -45q0 -25 18.5 -44.5t46.5 -19.5zM422 772
q28 0 46.5 19.5t18.5 44.5q0 26 -18.5 45t-46.5 19q-29 0 -47 -19t-18 -45q0 -25 18 -44.5t47 -19.5z" />
    <glyph glyph-name="Amacron.flat" horiz-adv-x="662" 
d="M-1 0h141q-1 8 -0.5 17t1.5 19.5t3 22t5 23.5t6.5 24.5t7 24.5t7.5 23.5t8 22.5l4 12h273l4 -12q4 -10 8 -22t7.5 -24l7 -24t7 -24.5t5.5 -24t3.5 -22t2.5 -19.5t0 -17h163q-4 7 -8.5 16t-9.5 20t-10 22.5t-11 24.5t-11.5 26t-10.5 26t-10 25.5t-10 24.5l-203 517h-96
l-203 -517q-4 -12 -9.5 -24.5t-10.5 -25.5t-10.5 -26t-11.5 -25.5t-11 -24.5t-10 -23t-9.5 -20t-8.5 -16zM211 267l108 288l107 -288h-215zM190 793h280v68h-280v-68z" />
    <glyph glyph-name="Aogonek.flat" horiz-adv-x="662" 
d="M-1 0h141q-1 8 -0.5 17t1.5 19.5t3 22t5 23.5t6.5 24.5t7 24.5t7.5 23.5t8 22.5l4 12h273l4 -12q4 -10 8 -22t7.5 -24l7 -24t7 -24.5t5.5 -24t3.5 -22t2.5 -19.5t0 -17h123q-67 -32 -97.5 -64t-30.5 -67q0 -34 27 -55.5t70 -21.5q16 0 33 3.5t30 7.5l14 61q-10 -4 -23 -7
t-24 -3q-22 0 -35 11t-13 30q0 22 22.5 49t63.5 56h3q-4 7 -8.5 16t-9.5 20t-10 22.5t-11 24.5t-11.5 26t-10.5 26t-10 25.5t-10 24.5l-203 517h-96l-203 -517q-4 -12 -9.5 -24.5t-10.5 -25.5t-10.5 -26t-11.5 -25.5t-11 -24.5t-10 -23t-9.5 -20t-8.5 -16zM211 267l108 288
l107 -288h-215z" />
    </font>
</defs>
</svg>
