<?xml version="1.0" standalone="no"?>
<!DOCTYPE svg PUBLIC "-//W3C//DTD SVG 1.1//EN" "http://www.w3.org/Graphics/SVG/1.1/DTD/svg11.dtd" >
<svg xmlns="http://www.w3.org/2000/svg" xmlns:xlink="http://www.w3.org/1999/xlink" version="1.1">
<metadata>
Created by FontForge 20201107 at Sat Apr 20 02:34:54 2024
 By www-data
Copyright 2023 MCKL Inc.
</metadata>
<defs>
<font id="Trust2A-Light" horiz-adv-x="500" >
  <font-face 
    font-family="Trust 2A Light"
    font-weight="300"
    font-stretch="normal"
    units-per-em="1000"
    panose-1="2 1 3 3 2 1 1 6 1 1"
    ascent="800"
    descent="-200"
    x-height="488"
    cap-height="700"
    bbox="-75 -272 974 945"
    underline-thickness="50"
    underline-position="-125"
    unicode-range="U+000D-FB02"
  />
<missing-glyph horiz-adv-x="474" 
d="M40 -200h394v900h-394v-900z" />
    <glyph glyph-name=".notdef" horiz-adv-x="474" 
d="M40 -200h394v900h-394v-900z" />
    <glyph glyph-name=".null" horiz-adv-x="0" 
 />
    <glyph glyph-name="uni000D" unicode="&#xd;" horiz-adv-x="189" 
 />
    <glyph glyph-name="NULL" horiz-adv-x="0" 
 />
    <glyph glyph-name="NULL" horiz-adv-x="0" 
 />
    <glyph glyph-name="space" unicode=" " horiz-adv-x="189" 
 />
    <glyph glyph-name="exclam" unicode="!" horiz-adv-x="192" 
d="M82 172h28l23 528h-74zM96 -7q19 0 33 13.5t14 32.5t-14 33t-33 14t-33 -14t-14 -33t14 -32.5t33 -13.5z" />
    <glyph glyph-name="quotedbl" unicode="&#x22;" horiz-adv-x="295" 
d="M64 460h26l22 240h-70zM205 460h26l22 240h-70z" />
    <glyph glyph-name="numbersign" unicode="#" horiz-adv-x="617" 
d="M81 0h48l53 202h174l-53 -202h48l53 202h123l12 42h-124l57 212h122l11 42h-122l53 202h-48l-53 -202h-174l53 202h-48l-53 -202h-124l-11 -42h124l-57 -212h-122l-11 -42h122zM193 244l57 212h174l-57 -212h-174z" />
    <glyph glyph-name="dollar" unicode="$" horiz-adv-x="465" 
d="M174 -109l40 7l9 105h5q22 0 42.5 3.5t39 9.5t35 15.5t30 21.5t24.5 26.5t19 31.5t12 36t4 40q0 19 -3 35t-9 30t-14.5 26t-19 22.5t-22.5 19.5t-25.5 17t-27.5 15.5t-28.5 14.5t-29.5 13l22 267q30 -8 59.5 -24t58.5 -40l-8 63q-23 15 -50.5 27t-55.5 18l10 115l-40 -7
l-9 -102h-11q-84 0 -136 -48t-52 -120q0 -18 3 -33.5t8.5 -29.5t13.5 -25.5t18 -22t21 -19.5t23.5 -17t26 -15t27.5 -14t28 -13l-24 -289q-41 7 -80.5 27t-74.5 46l11 -68q28 -15 64.5 -29t75.5 -20zM97 535q0 49 36 83.5t95 34.5h11l-22 -255q-49 23 -84.5 54t-35.5 83z
M378 180q0 -57 -43 -95t-104 -38h-4l23 276q51 -24 89.5 -55.5t38.5 -87.5z" />
    <glyph glyph-name="percent" unicode="%" horiz-adv-x="638" 
d="M141 0l402 700h-45l-403 -700h46zM151 366q53 0 90 46.5t37 124.5q0 77 -36.5 123.5t-90.5 46.5q-53 0 -90 -46.5t-37 -123.5q0 -78 37 -124.5t90 -46.5zM151 400q-34 0 -56.5 36.5t-22.5 99.5t22.5 100t56.5 37t56 -37t22 -100t-22 -99.5t-56 -36.5zM487 -6
q53 0 90 46.5t37 124.5q0 77 -36.5 123.5t-90.5 46.5q-53 0 -90 -46.5t-37 -123.5q0 -78 37 -124.5t90 -46.5zM487 28q-34 0 -56.5 36.5t-22.5 99.5t22.5 100t56.5 37t56 -37t22 -100t-22 -99.5t-56 -36.5z" />
    <glyph glyph-name="ampersand" unicode="&#x26;" horiz-adv-x="609" 
d="M229 -9q61 0 111 24t88 64q1 -2 3 -4l4 -4q37 -39 68.5 -57t67.5 -18q12 0 23.5 2t21.5 7l9 46q-9 -4 -18.5 -5.5t-19.5 -1.5q-26 0 -51.5 14t-56.5 46q-4 4 -8.5 9t-8.5 9q37 52 58 117t26 130h-60q1 -60 -13.5 -115t-41.5 -98q-48 53 -92 107.5t-84 111.5
q14 10 28 19.5t27 20.5t25 22t22 23.5t18 25.5t14 27.5t9 30.5t3 34q0 57 -38 94.5t-100 37.5q-66 0 -106 -46t-40 -113q0 -47 18.5 -87.5t47.5 -82.5q1 -1 1.5 -2.5t1.5 -2.5q-14 -9 -28.5 -19t-28 -20.5t-26 -22t-23 -24.5t-19.5 -27t-15.5 -29.5t-10 -33t-3.5 -37.5
q0 -77 55.5 -124.5t141.5 -47.5zM229 411q-29 41 -43.5 74t-14.5 70q0 46 22.5 79.5t68.5 33.5q41 0 64 -27.5t23 -66.5q0 -55 -34.5 -95t-81.5 -74q-1 1 -2 3t-2 3zM90 169q0 61 35.5 102t82.5 75q43 -60 90.5 -119t99.5 -116q-33 -36 -74 -56.5t-85 -20.5
q-66 0 -107.5 37.5t-41.5 97.5z" />
    <glyph glyph-name="quotesingle" unicode="'" horiz-adv-x="154" 
d="M64 460h26l22 240h-70z" />
    <glyph glyph-name="parenleft" unicode="(" horiz-adv-x="334" 
d="M320 -174l9 13q-23 18 -44.5 38.5t-41 44t-37 49.5t-32.5 54.5t-26.5 60.5t-20 67t-13 73t-4.5 79t4.5 79t13 73t20 67t26.5 60.5t32.5 54.5t37 49.5t41 44t44.5 38.5l-9 13q-24 -12 -47 -28t-44.5 -35.5t-42 -42t-38.5 -48.5t-33.5 -54.5t-27.5 -60t-21 -65.5
t-13.5 -70.5t-4.5 -74.5t4.5 -74.5t13.5 -70.5t21 -65.5t27.5 -60t33.5 -54.5t38.5 -48.5t42 -42t44.5 -35.5t47 -28z" />
    <glyph glyph-name="parenright" unicode=")" horiz-adv-x="334" 
d="M14 784l-9 -13q23 -18 44.5 -38.5t41 -44t37 -49.5t32.5 -54.5t26.5 -60.5t20 -67t13 -73t4.5 -79t-4.5 -79t-13 -73t-20 -67t-26.5 -60.5t-32.5 -54.5t-37 -49.5t-41 -44t-44.5 -38.5l9 -13q24 12 47 28t44.5 35.5t42 42t38.5 48.5t33.5 54.5t27.5 60t21 65.5t13.5 70.5
t4.5 74.5q0 39 -4.5 75t-13.5 70t-21 65.5t-27.5 60t-33.5 54.5t-38.5 48.5t-42 42t-44.5 35.5t-47 28z" />
    <glyph glyph-name="asterisk" unicode="*" horiz-adv-x="404" 
d="M133 364q7 19 22 50t47 93q32 -63 47 -93.5t22 -49.5l63 47q-16 13 -43 37t-76 75q71 11 107 15.5t56 5.5l-25 74q-16 -10 -47.5 -28.5t-94.5 -49.5q11 69 18 104t12 56h-78q4 -21 11.5 -56t18.5 -104q-63 31 -95 49.5t-48 28.5l-25 -74q21 -1 56.5 -5.5t107.5 -15.5
q-49 -51 -76 -75t-43 -37z" />
    <glyph glyph-name="plus" unicode="+" horiz-adv-x="581" 
d="M272 134h38v198h197v36h-197v198h-38v-198h-198v-36h198v-198z" />
    <glyph glyph-name="comma" unicode="," horiz-adv-x="171" 
d="M42 -143q43 30 66.5 71t23.5 91q0 31 -14 49t-35 18q-17 0 -29 -12.5t-12 -31.5q0 -7 1.5 -12.5t4 -10t5.5 -8.5t6 -7.5t6.5 -7.5t6.5 -8t5.5 -8.5t4 -10t1.5 -12.5q0 -22 -13 -44.5t-38 -44.5z" />
    <glyph glyph-name="hyphen" unicode="-" horiz-adv-x="333" 
d="M30 321h268l5 42h-268z" />
    <glyph glyph-name="period" unicode="." horiz-adv-x="171" 
d="M86 -7q19 0 32.5 13.5t13.5 32.5t-13.5 33t-32.5 14t-33 -14t-14 -33t14 -32.5t33 -13.5z" />
    <glyph glyph-name="slash" unicode="/" horiz-adv-x="501" 
d="M-75 -200h57l533 969h-57z" />
    <glyph glyph-name="zero" unicode="0" horiz-adv-x="597" 
d="M298 -12q27 0 52 6.5t47.5 19t42.5 30.5t37 41.5t30.5 52.5t22.5 62t14 70.5t5 79.5t-5 79.5t-14 70.5t-22.5 62t-30.5 52.5t-37 41.5t-42.5 30.5t-47.5 19t-52 6.5t-51.5 -6.5t-47.5 -19t-42.5 -30.5t-36.5 -41.5t-30.5 -52.5t-22.5 -62t-14 -70.5t-5 -79.5t5 -79.5
t14 -70.5t22.5 -62t30.5 -52.5t36.5 -41.5t42.5 -30.5t47.5 -19t51.5 -6.5zM298 34q-21 0 -40 5.5t-36.5 16.5t-32.5 27t-28 36.5t-23 45.5t-17 54t-10.5 62t-3.5 69t3.5 69t10.5 62t17 54t23 45.5t28 36.5t32.5 27t36.5 16.5t40 5.5t40.5 -5.5t37 -16.5t32.5 -27t28 -36.5
t23 -45.5t17 -54t10.5 -62t3.5 -69t-3.5 -69t-10.5 -62t-17 -54t-23 -45.5t-28 -36.5t-32.5 -27t-37 -16.5t-40.5 -5.5z" />
    <glyph glyph-name="one" unicode="1" horiz-adv-x="227" 
d="M70 0h87q-2 5 -3.5 12.5t-3 16.5t-2.5 19t-2 20.5t-1.5 21.5l-1 22t-0.5 21.5v19.5v557l-82 -32q13 -20 18.5 -52.5t5.5 -78.5v-394v-19.5t-0.5 -21.5l-1 -22t-1.5 -21.5t-2.5 -20.5t-2.5 -19t-3 -16.5t-4 -12.5z" />
    <glyph glyph-name="two" unicode="2" horiz-adv-x="444" 
d="M9 0h399l12 67q-6 -2 -14.5 -3.5t-19 -3t-22.5 -3t-24.5 -2.5t-26 -2l-27 -2t-26 -1.5t-24.5 -1t-22.5 -0.5h-19.5h-98l167 215q66 81 100.5 141.5t34.5 126.5q0 76 -51.5 127.5t-141.5 51.5q-49 0 -96.5 -17.5t-80.5 -42.5l-10 -62q42 34 89 54.5t91 20.5
q60 0 100 -37.5t40 -99.5q0 -56 -27.5 -107.5t-85.5 -129.5z" />
    <glyph glyph-name="three" unicode="3" horiz-adv-x="463" 
d="M200 -10q105 0 166.5 56.5t61.5 140.5q0 69 -43 116.5t-120 62.5q66 17 104 62.5t38 111.5q0 72 -53 121t-141 49q-49 0 -94.5 -15.5t-78.5 -37.5l-11 -60q40 29 86 47.5t94 18.5q67 0 103 -36.5t36 -91.5q0 -66 -47 -107t-132 -41h-46l-11 -46h52q96 0 150 -41.5
t54 -108.5q0 -66 -43 -110t-128 -44q-42 0 -87 13t-84 37l7 -57q31 -17 75 -28.5t92 -11.5z" />
    <glyph glyph-name="four" unicode="4" horiz-adv-x="521" 
d="M3 191h352v-40v-18.5t-0.5 -20.5l-1 -22t-1.5 -21.5t-2.5 -21t-2.5 -19t-3 -16t-4 -12.5h86q-2 5 -3.5 12t-3 16t-2.5 19t-2 21t-1.5 22t-1 21.5t-0.5 20.5v19v40h85l12 63q-16 -5 -42.5 -8.5t-54.5 -5.5v214l-57 -17v-199h-275l154 279q5 10 11.5 21t13 22.5t13.5 24
t14.5 25t14.5 24.5t14 23.5t13 22.5t12 20h-71q-13 -30 -38 -78t-45 -86z" />
    <glyph glyph-name="five" unicode="5" horiz-adv-x="474" 
d="M215 -10q24 0 47 4t43.5 12t39 19.5t34 26t27.5 32t20.5 37.5t13 42.5t4.5 47.5q0 23 -4 44.5t-12 40.5t-19 35.5t-25.5 30t-31.5 24t-36.5 17.5t-40.5 11t-44 4q-33 0 -65.5 -8t-61.5 -26l27 268h279l11 59q-6 -1 -14 -2t-17.5 -2t-20 -2t-22 -1.5l-23 -1l-23 -1t-22 -1
t-20 -0.5h-17.5h-158l-37 -355l43 -14q27 21 62 31.5t70 10.5q69 0 116 -44.5t47 -119.5q0 -76 -49 -124.5t-121 -48.5q-48 0 -91.5 15.5t-79.5 37.5l5 -56q31 -19 74 -31t92 -12z" />
    <glyph glyph-name="six" unicode="6" horiz-adv-x="538" 
d="M289 -12q23 0 44.5 4.5t40.5 13t36 21t31 27.5t25 33.5t18.5 38.5t11.5 42.5t4 46.5q0 94 -57.5 153.5t-143.5 59.5q-61 0 -113 -38.5t-80 -98.5q-1 8 -1 17v18q0 27 2 53t5.5 51t9.5 48t14 44t18 39.5t22.5 34.5t27.5 28t32.5 21t38 13.5t43.5 4.5q37 0 76.5 -13
t69.5 -36l-9 61q-28 17 -65.5 26t-74.5 9q-27 0 -51.5 -5t-46 -15t-40.5 -24t-35 -31.5t-29.5 -38.5t-24 -45t-18.5 -50.5t-13.5 -55t-8 -58.5t-2.5 -61q0 -32 3.5 -62t9.5 -57.5t16 -53t22 -47.5t27.5 -40t33.5 -32.5t38.5 -24.5t44 -15.5t48.5 -5.5zM285 383
q64 0 110.5 -43t46.5 -130q0 -77 -43.5 -127t-109.5 -50q-22 0 -41.5 5.5t-36 15.5t-30.5 24t-25.5 32t-20 39t-14.5 45t-10 50q28 69 77.5 104t96.5 35z" />
    <glyph glyph-name="seven" unicode="7" horiz-adv-x="457" 
d="M131 0h64q11 152 56 296t127 283l72 121h-424l-12 -65q8 3 18 5t21.5 3.5t24 3t25.5 2.5t26 1.5t25 1t23 0.5h200l-46 -73q-81 -130 -133 -276t-67 -303z" />
    <glyph glyph-name="eight" unicode="8" horiz-adv-x="499" 
d="M246 -12q23 0 45 3.5t41.5 10t36.5 16t32 21.5t26.5 26.5t19.5 31.5t12 35.5t4 39.5q0 17 -3 32t-8.5 28.5t-13.5 26t-18 23.5t-21.5 21t-24.5 19t-26.5 18t-27.5 17l-28 16q70 31 106.5 78t36.5 102q0 66 -52.5 112.5t-133.5 46.5q-80 0 -132.5 -47.5t-52.5 -119.5
q0 -66 40 -108t94 -73q-81 -36 -122 -85t-41 -113q0 -20 4 -38t12 -34.5t19 -30.5t25.5 -25.5t31 -21t36 -15.5t40.5 -9.5t43 -3.5zM120 548q0 56 36 88.5t93 32.5t95 -34t38 -85q0 -48 -32.5 -88.5t-92.5 -69.5q-54 31 -95.5 66.5t-41.5 89.5zM89 169q0 54 34.5 96
t108.5 79q15 -8 29 -15.5t28 -15.5t27 -16.5t24.5 -17t21.5 -18.5t18 -20.5t14 -22t9 -24.5t3 -28q0 -60 -44.5 -97t-113.5 -37t-114 38.5t-45 98.5z" />
    <glyph glyph-name="nine" unicode="9" horiz-adv-x="538" 
d="M247 710q-23 0 -44.5 -4.5t-40.5 -13t-36 -21t-31 -27.5t-25 -33.5t-18.5 -38.5t-11.5 -42.5t-4 -46.5q0 -94 57.5 -153.5t143.5 -59.5q61 0 113 38.5t80 98.5q1 -8 1 -17v-18q0 -27 -2 -53t-5.5 -51t-9.5 -48t-14 -44t-18 -39.5t-22.5 -34.5t-27.5 -28t-32.5 -21
t-38 -13.5t-43.5 -4.5q-37 0 -76.5 13t-69.5 36l9 -61q28 -17 65.5 -26t74.5 -9q27 0 51.5 5t46 15t40.5 24t35 31.5t29.5 38.5t24 45t18.5 50.5t13.5 55t8 58.5t2.5 61q0 32 -3.5 62t-9.5 57.5t-16 53t-22 47.5t-27.5 40t-33.5 32.5t-38.5 24.5t-43.5 15.5t-49 5.5z
M251 315q-64 0 -110.5 43t-46.5 130q0 77 43.5 127t109.5 50q22 0 41.5 -5.5t36 -15.5t30.5 -24t25.5 -32t20 -39t14.5 -45t10 -50q-28 -69 -77.5 -104t-96.5 -35z" />
    <glyph glyph-name="colon" unicode=":" horiz-adv-x="171" 
d="M86 353q19 0 32.5 13.5t13.5 32.5t-13.5 33t-32.5 14t-33 -14t-14 -33t14 -32.5t33 -13.5zM86 -7q19 0 32.5 13.5t13.5 32.5t-13.5 33t-32.5 14t-33 -14t-14 -33t14 -32.5t33 -13.5z" />
    <glyph glyph-name="semicolon" unicode=";" horiz-adv-x="171" 
d="M86 353q19 0 32.5 13.5t13.5 32.5t-13.5 33t-32.5 14t-33 -14t-14 -33t14 -32.5t33 -13.5zM42 -143q43 30 66.5 71t23.5 91q0 31 -14 49t-35 18q-17 0 -29 -12.5t-12 -31.5q0 -7 1.5 -12.5t4 -10t5.5 -8.5t6 -7.5t6.5 -7.5t6.5 -8t5.5 -8.5t4 -10t1.5 -12.5
q0 -22 -13 -44.5t-38 -44.5z" />
    <glyph glyph-name="less" unicode="&#x3c;" horiz-adv-x="481" 
d="M427 123v43l-327 185l327 185v41l-398 -227z" />
    <glyph glyph-name="equal" unicode="=" horiz-adv-x="581" 
d="M74 404h433v37h-433v-37zM74 259h433v37h-433v-37z" />
    <glyph glyph-name="greater" unicode="&#x3e;" horiz-adv-x="481" 
d="M54 577v-43l327 -185l-327 -185v-41l398 227z" />
    <glyph glyph-name="question" unicode="?" horiz-adv-x="389" 
d="M196 181l6 10q-14 7 -21 21t-7 28q0 10 3 20t8 19.5t12 19t15.5 18.5t18 18t20 18.5t20.5 19.5l20.5 20.5t20 21.5t18 23t15.5 24.5t12 26.5t8 29t3 32q0 69 -48.5 114t-130.5 45q-44 0 -86.5 -13.5t-72.5 -33.5l-7 -59q28 23 71 42.5t86 19.5q56 0 91.5 -33t35.5 -87
q0 -15 -3 -29t-8 -26.5t-12 -24t-15 -22.5t-17.5 -21.5t-19 -20.5t-19.5 -19.5t-19.5 -19t-17.5 -19.5t-15 -20t-12 -21t-8 -22.5t-3 -23.5q0 -28 16.5 -48t41.5 -27zM177 -7q19 0 33 13.5t14 32.5t-14 33t-33 14t-33 -14t-14 -33t14 -32.5t33 -13.5z" />
    <glyph glyph-name="at" unicode="@" horiz-adv-x="733" 
d="M279 57q26 0 55.5 18t62.5 63q-2 -36 19 -58t59 -22q16 0 32 3t32 9.5t31 15t29.5 20.5t27.5 26t24 30.5t20 35.5t15 39.5t9.5 43.5t3.5 47q0 29 -5 55t-14 49.5t-22 44.5t-29 38.5t-35.5 31.5t-41 25t-45.5 18.5t-49.5 11.5t-51.5 4q-27 0 -53 -4.5t-51 -12.5t-49 -20
t-46 -27.5t-41.5 -34t-37 -40t-32.5 -45.5t-26.5 -50.5t-19.5 -54.5t-12 -58t-4 -61q0 -34 5 -65t14.5 -58t22.5 -50.5t30 -43t37.5 -35.5t43 -28t47.5 -20t52 -12t55 -4q15 0 32 1.5t34 4.5t34.5 7t34.5 9.5t33 12.5t31 15t27 17l11 42q-59 -40 -120 -57.5t-115 -17.5
q-28 0 -54.5 4.5t-51 13.5t-46.5 22.5t-40.5 31.5t-33 40t-25 48.5t-16 57t-5.5 65.5q0 31 4.5 60.5t13 57.5t20.5 54t27.5 49t34 43t39.5 37t43.5 30.5t47.5 22.5t51 14t53 5q23 0 45 -3t43 -9.5t40 -16t35.5 -22t31 -28t26 -33.5t19.5 -39t12 -45t4 -50q0 -23 -3.5 -44
t-9.5 -40.5t-14.5 -36.5t-19 -32t-22.5 -27t-25 -21.5t-26.5 -16t-27.5 -10t-27 -3.5q-24 0 -34 17t0 49l83 266l-46 -12q-16 12 -38.5 18t-45.5 6q-17 0 -33.5 -4t-32 -11.5t-30.5 -18t-28.5 -23.5t-25 -28t-21.5 -31.5t-18 -34.5t-13.5 -37t-8.5 -38t-3 -38
q0 -51 24 -84.5t64 -33.5zM240 179q0 15 2.5 30.5t7 31t11 30.5t14.5 29t17.5 27t20 24t22 20t23.5 15.5t24.5 10t24.5 3.5q16 0 33 -5t30 -14l-64 -205q-37 -45 -61.5 -62t-46.5 -17q-24 0 -41 21t-17 61z" />
    <glyph glyph-name="A" unicode="A" horiz-adv-x="603" 
d="M131 170l19 47h294l19 -47q4 -10 8.5 -21.5t8.5 -23t8 -23.5t7.5 -24t6.5 -23t5 -21t3.5 -18.5t1.5 -15.5h89q-4 7 -8 16t-9 19.5t-10.5 22.5t-11 24.5t-11 25.5t-11 25.5t-10.5 24.5t-9 22l-219 533l-220 -533q-4 -10 -9 -22t-10.5 -24.5l-11 -25t-11 -25.5t-10.5 -25
t-10 -22.5t-9.5 -19.5t-7.5 -16h81q0 7 1 15.5t3 18.5t5 21t6.5 23l7 24t7.5 23.5t8.5 23t8.5 21.5zM167 261l130 326l130 -326h-260z" />
    <glyph glyph-name="B" unicode="B" horiz-adv-x="563" 
d="M75 0h221q108 0 170 54t62 136q0 69 -41.5 116t-118.5 61q57 19 88.5 62t31.5 97q0 77 -58.5 125.5t-161.5 48.5h-193q2 -5 4.5 -12.5t4 -16.5t3 -19.5t3 -21.5t2 -22.5t1 -22.5t1 -21.5t0.5 -20.5v-386q0 -10 -0.5 -20.5t-1 -21.5t-1 -22.5t-2 -22.5t-3 -21.5t-3 -19.5
t-4 -16.5t-4.5 -12.5zM263 656q78 0 122 -37t44 -97q0 -63 -44 -101t-122 -38h-110v273h110zM288 340q84 0 131.5 -39.5t47.5 -108.5q0 -67 -45.5 -108t-129.5 -41h-139v297h135z" />
    <glyph glyph-name="C" unicode="C" horiz-adv-x="618" 
d="M41 348q0 -34 5 -66.5t15 -62t24 -56t32 -49.5t39.5 -42.5t46.5 -34.5t52.5 -25.5t57.5 -16t62 -5.5q58 0 113 15.5t92 43.5l8 59q-43 -31 -96 -51t-112 -20q-27 0 -52 5t-48 14t-43.5 22t-38.5 30t-33 37t-26.5 43.5t-20 49t-12.5 54t-4 58.5t4 58.5t12.5 54t20 49
t26.5 43.5t32.5 37t37.5 30t42.5 22t46.5 14t50 5q58 0 113.5 -22t96.5 -61l-13 89q-8 0 -16.5 2t-18.5 5t-21 6.5t-23 7.5t-26 7.5t-29 6.5t-32 4.5t-35 1.5q-27 0 -53.5 -4.5t-51 -13t-47 -21.5t-43 -29t-38.5 -35.5t-33 -42t-26.5 -47.5t-19.5 -52t-12.5 -56.5
t-4.5 -60.5z" />
    <glyph glyph-name="D" unicode="D" horiz-adv-x="677" 
d="M75 0h210q30 0 59 4.5t55.5 13t51 20.5t46 28t40.5 35t34.5 40.5t27.5 46t20.5 51t13 55t4.5 58.5q0 33 -5.5 64t-15.5 59.5t-24.5 54.5t-33.5 48.5t-42 41.5t-49 34t-55 25t-61 15.5t-66 5.5h-210q2 -5 4.5 -12.5t4 -16.5t3 -19.5t3 -21.5t2 -22.5t1 -22.5t1 -21.5
t0.5 -20.5v-386q0 -10 -0.5 -20.5t-1 -21.5t-1 -22.5t-2 -22.5t-3 -21.5t-3 -19.5t-4 -16.5t-4.5 -12.5zM281 655q29 0 55.5 -4.5t51 -13.5t46 -22t40.5 -29.5t34.5 -36.5t27.5 -42.5t20.5 -48t13 -53t4.5 -56.5t-4.5 -56.5t-12.5 -52.5t-20 -48t-27.5 -42.5t-34.5 -36
t-40.5 -29t-46 -21.5t-51.5 -13.5t-56 -4.5h-127v610h127z" />
    <glyph glyph-name="E" unicode="E" horiz-adv-x="510" 
d="M75 0h407l12 66q-7 -2 -16 -4t-20 -3.5t-23 -3t-25.5 -3t-27 -2.5l-27 -2t-26.5 -2t-25.5 -1.5t-23 -0.5h-19.5h-107v303h52q47 0 90 -2.5t73 -9.5l-15 67q-27 -5 -67 -9t-78 -4h-55v266h94h23t25.5 -0.5t27.5 -1.5l28 -2l28 -2t27 -2.5t24.5 -3.5t21.5 -4t18 -4l-12 65
h-384q2 -5 4.5 -12.5t4 -16.5t3 -19.5t3 -21.5t2 -22.5t1 -22.5t1 -21.5t0.5 -20.5v-386q0 -10 -0.5 -20.5t-1 -21.5t-1 -22.5t-2 -22.5t-3 -21.5t-3 -19.5t-4 -16.5t-4.5 -12.5z" />
    <glyph glyph-name="F" unicode="F" horiz-adv-x="489" 
d="M80 0h88q-2 5 -3.5 12.5t-3 16.5t-2.5 19t-2 21t-1.5 22l-1 22t-0.5 21v19v194h52q48 0 91.5 -2.5t73.5 -9.5l-15 66q-27 -5 -67.5 -8.5t-78.5 -3.5h-56v266h94h23.5t25.5 -0.5t27 -1.5t28.5 -2t28 -2t26.5 -2.5t24.5 -3.5t21.5 -4t18 -4l-12 65h-384q2 -5 4.5 -12.5
t4 -16.5t3 -19.5t3 -22t2 -22.5t1 -22.5t1 -22t0.5 -20.5v-389v-19t-0.5 -21l-1 -22t-1.5 -22t-2 -21t-2.5 -19t-3 -16.5t-3.5 -12.5z" />
    <glyph glyph-name="G" unicode="G" horiz-adv-x="697" 
d="M392 -10q61 0 127 18t119 49q-3 26 -4.5 57t-1.5 63v39q0 33 3.5 64.5t10.5 50.5h-84q7 -19 10.5 -50t3.5 -65v-137q-40 -20 -86.5 -31.5t-92.5 -11.5q-30 0 -57 5t-52 14t-46.5 22.5t-40.5 30.5t-34.5 37.5t-27.5 43.5t-20.5 48.5t-12.5 53.5t-4 57q0 32 4.5 61t12.5 55
t20 49.5t27 43.5t33 36.5t38.5 29.5t43.5 22t48 13.5t51 4.5q61 0 120 -21t102 -63l-13 90q-8 1 -17.5 3t-20 5t-22 6.5t-24.5 7t-27.5 7t-30.5 6.5t-33.5 4.5t-36.5 1.5q-28 0 -55 -4.5t-52.5 -13t-48.5 -21t-44 -28.5t-39 -35.5t-33 -42t-27 -47.5t-20 -52.5t-12.5 -57.5
t-4.5 -61q0 -34 5 -66t15 -61t24 -55.5t32.5 -50t41 -42.5t48.5 -34.5t55.5 -26t62 -16t67.5 -5.5z" />
    <glyph glyph-name="H" unicode="H" horiz-adv-x="678" 
d="M80 0h88q-2 5 -3.5 12.5t-3 16.5t-2.5 19t-2 21t-1.5 22l-1 22t-0.5 21v19v183h370v-183v-19t-0.5 -21l-1 -22t-1.5 -22t-2 -21t-2.5 -19t-3 -16.5t-3.5 -12.5h88q-2 5 -3.5 12.5t-3 16.5t-2.5 19t-2 21t-1.5 22l-1 22t-0.5 21v19v394v19t0.5 21l1 22t1.5 22t2 21t2.5 19
t3 16.5t3.5 12.5h-88q2 -5 3.5 -12.5t3 -16.5t2.5 -19t2 -21t1.5 -22l1 -22t0.5 -21v-19v-166h-370v166v19t0.5 21l1 22t1.5 22t2 21t2.5 19t3 16.5t3.5 12.5h-88q2 -5 3.5 -12.5t3 -16.5t2.5 -19t2 -21t1.5 -22l1 -22t0.5 -21v-19v-394v-19t-0.5 -21l-1 -22t-1.5 -22
t-2 -21t-2.5 -19t-3 -16.5t-3.5 -12.5z" />
    <glyph glyph-name="I" unicode="I" horiz-adv-x="248" 
d="M80 0h88q-2 5 -3.5 12.5t-3 16.5t-2.5 19t-2 21t-1.5 22l-1 22t-0.5 21v19v394v19t0.5 21l1 22t1.5 22t2 21t2.5 19t3 16.5t3.5 12.5h-88q2 -5 3.5 -12.5t3 -16.5t2.5 -19t2 -21t1.5 -22l1 -22t0.5 -21v-19v-394v-19t-0.5 -21l-1 -22t-1.5 -22t-2 -21t-2.5 -19t-3 -16.5
t-3.5 -12.5z" />
    <glyph glyph-name="J" unicode="J" horiz-adv-x="240" 
d="M15 -204q60 0 97.5 36.5t37.5 105.5v609v19t0.5 21l1 22t1.5 22t2 21t2.5 19t3 16.5t3.5 12.5h-89q2 -5 4 -12.5t3 -16.5t2.5 -19t2.5 -21t1.5 -22l1 -22t0.5 -21v-19v-611q0 -47 -22 -71t-58 -24q-19 0 -38 6t-38 18l5 -52q15 -8 35.5 -12.5t40.5 -4.5z" />
    <glyph glyph-name="K" unicode="K" horiz-adv-x="562" 
d="M80 0h88q-2 5 -3.5 12.5t-3 16.5t-2.5 19t-2 21t-1.5 22l-1 22t-0.5 21v19v394v19t0.5 21l1 22t1.5 22t2 21t2.5 19t3 16.5t3.5 12.5h-88q2 -5 3.5 -12.5t3 -16.5t2.5 -19t2 -21t1.5 -22l1 -22t0.5 -21v-19v-394v-19t-0.5 -21l-1 -22t-1.5 -22t-2 -21t-2.5 -19t-3 -16.5
t-3.5 -12.5zM480 0h98q-25 25 -61.5 64t-72.5 79l-191 217l181 203q36 40 67.5 76t56.5 61h-88q-7 -22 -28 -52t-52 -65l-205 -230l203 -228q33 -36 57.5 -69.5t34.5 -55.5z" />
    <glyph glyph-name="L" unicode="L" horiz-adv-x="503" 
d="M75 0h405l12 66q-7 -2 -16 -4t-20 -3.5t-23 -3t-25.5 -3t-27 -2.5l-27 -2t-26.5 -2t-25.5 -1.5t-23 -0.5h-19.5h-105v503v19t0.5 21l1 22t1.5 22t2 21t2.5 19t3 16.5t3.5 12.5h-88q2 -5 3.5 -12.5t3 -16.5t2.5 -19t2 -21t1.5 -22l1 -22t0.5 -21v-19v-390
q0 -10 -0.5 -20.5t-1 -22t-1 -22.5t-2 -22.5t-3 -21.5t-3 -19t-4 -16.5t-4.5 -12.5z" />
    <glyph glyph-name="M" unicode="M" horiz-adv-x="794" 
d="M76 0h82q-2 5 -4 12.5t-3.5 16.5t-2.5 19t-2 21l-2 22t-1.5 22t-0.5 21v19l-1 302l-1 87l48 -86l205 -338l205 338l48 86l-2 -86v-303q0 -9 -0.5 -19t-1 -21l-1 -22t-1.5 -22t-2.5 -21t-3 -19t-3 -16.5t-3.5 -12.5h89q-2 5 -3.5 12.5t-3 16.5t-2.5 19t-2 21l-2 22
t-1.5 22t-0.5 21v19v562l-280 -462l-23 -41l-23 41l-284 462v-562v-19t-0.5 -21t-1.5 -22l-2 -22t-2 -21t-2.5 -19t-3.5 -16.5t-4 -12.5z" />
    <glyph glyph-name="N" unicode="N" horiz-adv-x="699" 
d="M607 547v19t0.5 21t1.5 22l2 22t2 21t2.5 19t3.5 16.5t4 12.5h-82q2 -5 4 -12.5t3.5 -16.5t2.5 -19t2 -21l2 -22t1.5 -21.5t0.5 -20.5v-19v-346l1 -70l-51 65l-415 517v-561v-19t-0.5 -21t-1.5 -22l-2 -22t-2 -21t-2.5 -19t-3.5 -16.5t-4 -12.5h82q-2 5 -4 12t-3.5 16
t-2.5 19t-2 20.5t-2 21.5t-1.5 22t-0.5 20.5v18.5v349l-1 68l56 -71l410 -510v561z" />
    <glyph glyph-name="O" unicode="O" horiz-adv-x="745" 
d="M704 350q0 31 -4 60.5t-12.5 57t-20 52.5t-26.5 47.5t-33 41.5t-38.5 35.5t-43.5 29t-47.5 21t-51 13t-54.5 4.5t-55 -4.5t-52 -13.5t-48 -21.5t-43.5 -28.5t-38.5 -35.5t-32.5 -42t-26.5 -47.5t-20 -52.5t-12 -56.5t-4 -60t4 -60.5t12.5 -57t20 -52.5t26.5 -47.5
t33 -41.5t38.5 -35.5t43.5 -29t47.5 -21t51 -13t54.5 -4.5t55 4.5t52 13.5t48 21.5t43.5 28.5t38.5 35.5t32.5 42t26.5 47.5t20 52.5t12 56.5t4 60zM103 350q0 31 4 59.5t12 55t19 49.5t25.5 43.5t32 37t37.5 30t42.5 22.5t47 13.5t50.5 4.5q25 0 49 -4.5t46 -14t42 -22.5
t37.5 -30t32 -37t26 -43.5t20 -49.5t12.5 -54.5t4 -59.5t-4 -59.5t-12 -55t-19 -49.5t-25.5 -43.5t-32 -37t-37.5 -30t-42.5 -22.5t-47 -13.5t-50.5 -4.5q-25 0 -49 4.5t-46 13.5t-42 22.5t-37.5 30t-32 37t-26 43.5t-20 49.5t-12.5 55t-4 59.5z" />
    <glyph glyph-name="P" unicode="P" horiz-adv-x="539" 
d="M80 0h88q-2 5 -3.5 12.5t-3 16.5t-2.5 19t-2 21t-1.5 22l-1 22t-0.5 21v19v151h113q109 0 172.5 56.5t63.5 144.5q0 87 -63 141t-172 54h-193q2 -5 4 -12.5t4 -16.5t3.5 -19t2.5 -21.5t2 -22.5t1.5 -22.5t1 -22t0.5 -20.5v-390v-19t-0.5 -21l-1 -22t-1.5 -22t-2 -21
t-2.5 -19t-3 -16.5t-3.5 -12.5zM263 655q84 0 132 -42t48 -111t-47.5 -111.5t-131.5 -42.5h-110v307h109z" />
    <glyph glyph-name="Q" unicode="Q" horiz-adv-x="745" 
d="M594 -166q28 0 57 4.5t51 12.5l11 51q-27 -10 -55 -15t-54 -5q-66 0 -122.5 27.5t-75.5 81.5q29 3 55.5 10.5t51 19t46.5 27.5t41.5 35.5t35.5 42.5t28.5 48.5t21.5 54t13.5 59t4.5 62.5q0 31 -4.5 60.5t-12.5 57t-19.5 52.5t-27 47.5t-33 41.5t-38.5 35.5t-43.5 29
t-47.5 21t-51 13t-54 4.5t-55 -4.5t-52 -13.5t-48 -21.5t-43.5 -28.5t-38 -35.5t-32.5 -42t-26.5 -47.5t-20 -52.5t-12.5 -56.5t-4 -60q0 -33 4.5 -63.5t13.5 -59t22 -54.5t29.5 -49t36 -42.5t41.5 -35.5t47 -27.5t51.5 -19t54.5 -10.5q7 -21 18.5 -40t26.5 -34.5t33 -28.5
t38 -22.5t42.5 -16t46 -10t48.5 -3.5zM103 350q0 31 4 59.5t12 55t19 49.5t25.5 43.5t32 37t37.5 30t42.5 22.5t47 13.5t50.5 4.5q25 0 49 -4.5t46 -14t42 -22.5t37.5 -30t32 -37t26 -43.5t20 -49.5t12.5 -54.5t4 -59.5t-4 -59.5t-12 -55t-19 -49.5t-25.5 -43.5t-32 -37
t-37.5 -30t-42.5 -22.5t-47 -13.5t-50.5 -4.5q-25 0 -49 4.5t-46 13.5t-42 22.5t-37.5 30t-32 37t-26 43.5t-20 49.5t-12.5 55t-4 59.5z" />
    <glyph glyph-name="R" unicode="R" horiz-adv-x="573" 
d="M80 0h88q-2 5 -4 12.5t-3 16.5t-2.5 19t-2.5 21t-1.5 22l-1 22t-0.5 21v19v166h140l200 -319h79q-21 24 -48 63t-51 76l-120 189q69 17 110 66t41 119q0 87 -62 137t-163 50h-204q2 -5 4 -12.5t4 -16.5t3.5 -19t2.5 -21.5t2 -22.5t1.5 -22.5t1 -22t0.5 -20.5v-390v-19
t-0.5 -21l-1 -22t-1.5 -22t-2 -21t-2.5 -19t-3 -16.5t-3.5 -12.5zM272 655q81 0 126.5 -37.5t45.5 -106.5q0 -70 -46 -109.5t-126 -39.5h-119v293h119z" />
    <glyph glyph-name="S" unicode="S" horiz-adv-x="468" 
d="M240 -8q19 0 37 3t35 9t33 15t29.5 21t25 26.5t19 31t12 36t4.5 41.5q0 18 -3.5 34t-9.5 30.5t-14.5 27t-18.5 24t-22 22t-25.5 20t-27.5 18l-28 17t-28.5 16.5t-28.5 16.5t-27.5 17t-25.5 17.5t-22 18.5t-18.5 20t-14.5 22.5t-9.5 25t-3.5 28q0 49 33 82.5t90 33.5
q43 0 90 -22t87 -60l-15 90q-31 3 -70.5 19t-93.5 16q-78 0 -128 -48.5t-50 -117.5q0 -18 3.5 -34.5t9.5 -30.5t14.5 -27t18.5 -24.5t22 -21.5t25 -19.5t27 -18.5t28.5 -17t28.5 -16.5t28 -16.5t27 -16.5t25 -17t22.5 -18.5t19 -20.5t14.5 -22.5t9 -25t3 -28q1 -62 -40 -98
t-98 -36q-54 0 -108 25.5t-100 66.5l19 -93q8 -1 17.5 -3t19 -5t20 -6.5t22.5 -7t24.5 -7t26.5 -6.5t29 -4.5t32 -1.5z" />
    <glyph glyph-name="T" unicode="T" horiz-adv-x="547" 
d="M229 0h89q-2 5 -3.5 12.5t-3 16.5t-2.5 19t-2 21t-1.5 22l-1 22t-0.5 21v19v503h53q49 0 103.5 -5.5t88.5 -15.5l-12 65h-526l-12 -65q34 10 88.5 15.5t102.5 5.5h54v-503v-19t-0.5 -21l-1 -22t-1.5 -22t-2.5 -21t-2.5 -19t-3 -16.5t-4 -12.5z" />
    <glyph glyph-name="U" unicode="U" horiz-adv-x="669" 
d="M336 -10q27 0 52 4.5t47.5 13t42.5 21.5t37 30t30 37.5t22 44.5t14 52t5 59v295v19t0.5 21t1.5 22l2 22t2 21t2.5 19t3.5 16.5t4 12.5h-83q2 -5 4 -12.5t3.5 -16.5t2.5 -19t2 -21l2 -22t1.5 -22t0.5 -21v-19v-289q0 -107 -55.5 -163t-139.5 -56q-24 0 -45.5 4.5
t-41.5 13.5t-37 22t-30.5 31t-23 40.5t-14.5 49.5t-5 58v289v19t0.5 21l1 22t1.5 22t2.5 21t2.5 19t3 16.5t4 12.5h-89q2 -5 3.5 -12.5t3 -16.5t2.5 -19t2 -21t1.5 -22l1 -22t0.5 -21v-19v-296q0 -31 5 -59t14 -52t22.5 -44.5t30.5 -37.5t37 -29.5t43 -21t48.5 -13
t52.5 -4.5z" />
    <glyph glyph-name="V" unicode="V" horiz-adv-x="603" 
d="M521 520q4 10 9 22t10.5 24.5l11 25t11 25.5t11 25t10.5 22.5t9 19.5t8 16h-81q0 -7 -1.5 -15.5t-3.5 -18.5t-5 -21t-6.5 -23l-7 -24t-7.5 -23.5t-8.5 -23t-8.5 -21.5l-166 -417l-166 417q-4 10 -8.5 21.5t-8.5 23t-7.5 23.5l-7 24t-6.5 23t-5 21t-3.5 18.5t-1.5 15.5
h-89q3 -7 7.5 -16t9.5 -19.5t10 -22.5t10.5 -24.5t11 -25.5t11 -25.5t10.5 -24t9 -22.5l220 -533z" />
    <glyph glyph-name="W" unicode="W" horiz-adv-x="850" 
d="M786 542q13 42 26.5 87t23.5 71h-78q4 -24 -2.5 -65.5t-16.5 -79.5l-97 -351l-17 -67l-21 67l-175 513l-174 -513l-21 -68l-17 68l-97 351q-10 38 -16.5 79.5t-3.5 65.5h-86q10 -26 23.5 -71t26.5 -87l161 -560l179 519l21 67l20 -67l180 -519z" />
    <glyph glyph-name="X" unicode="X" horiz-adv-x="556" 
d="M-3 0h83q6 26 27 65.5t48 79.5l117 174l118 -175q27 -40 48 -79t27 -65h94q-21 28 -51 72t-58 86l-139 206l122 178q28 42 58 86t52 72h-83q-6 -26 -27 -65.5t-47 -79.5l-102 -151l-104 152q-27 40 -48 79t-27 65h-94q21 -28 51.5 -71.5t58.5 -85.5l124 -184l-138 -201
q-28 -42 -58 -86t-52 -72z" />
    <glyph glyph-name="Y" unicode="Y" horiz-adv-x="580" 
d="M245 0h89q-2 5 -3.5 12.5t-3 16.5t-2.5 19t-2 21t-1.5 22l-1 22t-0.5 21.5v20.5v123l171 277q25 40 49.5 80t41.5 65h-83q-2 -23 -17.5 -58t-37.5 -72l-148 -244l-151 244q-23 37 -38 72t-17 58h-92q17 -25 41.5 -65t49.5 -80l171 -277v-123v-20.5t-0.5 -21.5l-1 -22
t-1.5 -22t-2.5 -21t-2.5 -19t-3 -16.5t-4 -12.5z" />
    <glyph glyph-name="Z" unicode="Z" horiz-adv-x="504" 
d="M480 0l12 66q-7 -2 -16 -4t-20 -3.5t-23 -3t-25 -3t-26.5 -2.5l-27 -2t-26.5 -2t-25.5 -1.5t-23 -0.5h-19.5h-160l389 656h-440l-12 -65q8 2 17.5 4t21 4t24.5 3.5t26.5 3t28 2.5t28.5 1.5t27 1t25.5 1t23.5 0.5h140l-389 -656h470z" />
    <glyph glyph-name="bracketleft" unicode="[" horiz-adv-x="341" 
d="M88 -160h231v36h-177v858h177v36h-231v-930z" />
    <glyph glyph-name="backslash" unicode="\" horiz-adv-x="501" 
d="M519 -200h57l-533 969h-57z" />
    <glyph glyph-name="bracketright" unicode="]" horiz-adv-x="341" 
d="M253 -160h-231v36h177v858h-177v36h231v-930z" />
    <glyph glyph-name="asciicircum" unicode="^" horiz-adv-x="423" 
d="M23 378h50l137 261l137 -261h53l-189 352z" />
    <glyph glyph-name="underscore" unicode="_" horiz-adv-x="414" 
d="M-5 -110h419l5 41h-418z" />
    <glyph glyph-name="grave" unicode="`" 
d="M248 551h37l-93 154h-81z" />
    <glyph glyph-name="a" unicode="a" horiz-adv-x="470" 
d="M174 -9q50 0 93 29t70 70q1 -26 3.5 -52.5t5.5 -41.5l65 9q-2 5 -4.5 12t-4 15t-3 17l-3 18t-2 18.5t-1 18.5t-1 17.5t-0.5 15.5v207q0 75 -42 114.5t-117 39.5q-41 0 -82 -11.5t-79 -30.5l-10 -53q41 24 83 37.5t80 13.5q51 0 81 -28t30 -84v-58l-143 -27
q-72 -13 -114.5 -48t-42.5 -94q0 -56 38 -90t100 -34zM92 117q0 39 27.5 64t90.5 38l126 25v-121q-27 -39 -66.5 -64t-80.5 -25q-44 0 -70.5 22t-26.5 61z" />
    <glyph glyph-name="b" unicode="b" horiz-adv-x="521" 
d="M249 -9q24 0 47 4.5t44.5 13.5t40 22t34.5 30t29 37.5t22 44.5t13.5 51t4.5 57q0 27 -4 52.5t-11.5 47.5t-18.5 42t-24.5 36t-30 28.5t-35 21.5t-39 13.5t-42.5 4.5q-41 0 -79.5 -19.5t-67.5 -54.5v299l-75 -17q3 -5 5 -11.5t3.5 -14.5t3 -17t2.5 -18.5t2 -19.5t1.5 -19
t0.5 -17.5v-16.5v-572l49 22q26 -13 58.5 -21.5t66.5 -8.5zM268 453q69 0 113.5 -57.5t44.5 -147.5q0 -99 -50.5 -157.5t-131.5 -58.5q-31 0 -59 8t-53 22v321q30 33 64.5 51.5t71.5 18.5z" />
    <glyph glyph-name="c" unicode="c" horiz-adv-x="431" 
d="M266 -10q40 0 78 13t63 32l9 54q-31 -25 -67.5 -40t-76.5 -15q-81 0 -129 59t-48 150q0 92 49.5 151.5t122.5 59.5q40 0 77 -17t64 -44l-12 80q-25 0 -55 12t-79 12q-21 0 -40.5 -4t-38 -11.5t-35.5 -18t-31.5 -24.5t-27 -30.5t-22 -35.5t-16.5 -40t-10.5 -44t-3.5 -47
q0 -27 4 -52t12 -47.5t19.5 -43t26.5 -37.5t33 -30t39 -22.5t45 -14.5t50 -5z" />
    <glyph glyph-name="d" unicode="d" horiz-adv-x="529" 
d="M237 -9q43 0 84.5 23t70.5 65v-83l75 10q-3 5 -5 12t-3.5 15.5t-3 18t-2.5 20l-2 21t-1.5 20.5t-0.5 19v16v574l-75 -17q3 -5 5 -11.5t3.5 -14.5t3 -17t2.5 -18.5t2 -19.5t1.5 -19t0.5 -17.5v-16.5v-138q-27 31 -64 47.5t-78 16.5q-22 0 -42.5 -4.5t-39.5 -14t-36 -22.5
t-32 -30t-26.5 -37.5t-19.5 -44t-12.5 -49.5t-4.5 -55q0 -28 4 -53.5t11.5 -48t18 -42.5t24.5 -36t29.5 -29t34 -22t38 -13.5t40.5 -4.5zM95 242q0 93 45 152t118 59q37 0 71.5 -16.5t62.5 -48.5v-273q-31 -38 -67 -59t-76 -21q-67 0 -110.5 57.5t-43.5 149.5z" />
    <glyph glyph-name="e" unicode="e" horiz-adv-x="489" 
d="M272 -10q40 0 81 12t69 32l8 53q-34 -26 -74 -40t-79 -14q-81 0 -132 58.5t-51 154.5v8h359q0 26 -3.5 50t-10.5 46t-17 41.5t-23 36t-28.5 29.5t-34 22t-40 14t-44.5 5q-20 0 -39.5 -4t-37 -11.5t-33.5 -18t-30 -24.5t-25.5 -30.5t-21 -35.5t-15.5 -39.5t-9.5 -43.5
t-3.5 -47q0 -29 4.5 -55t13.5 -49t21 -43.5t28 -37t34.5 -29.5t40 -22t45 -13.5t48.5 -4.5zM251 455q55 0 95.5 -41t49.5 -119h-298q11 72 52 116t101 44z" />
    <glyph glyph-name="f" unicode="f" horiz-adv-x="297" 
d="M94 0h84q-2 6 -3.5 13t-3 16t-2.5 18.5t-2 19.5t-1.5 20l-1 20t-0.5 19.5v17.5v303h123v41h-123q0 27 -0.5 54.5t-0.5 52.5q0 43 18 64t52 21q16 0 33.5 -6t30.5 -13l-7 49q-13 7 -30 10.5t-33 3.5q-55 0 -87 -34t-32 -100v-102h-93l-9 -41h102v-303v-17.5t-0.5 -19.5
l-1 -20t-1.5 -20t-2 -19.5t-2.5 -18.5t-3 -16t-3.5 -13z" />
    <glyph glyph-name="g" unicode="g" horiz-adv-x="473" 
d="M231 142q80 0 134 51.5t54 125.5q0 32 -11 61t-30 51q23 10 47.5 15.5t49.5 2.5l-7 60q-31 1 -60 -16.5t-45 -45.5q-25 23 -59 36.5t-73 13.5q-79 0 -132.5 -51.5t-53.5 -126.5q0 -52 27.5 -94t72.5 -64q-43 -11 -64 -35t-21 -50q0 -25 18 -45t52 -29q-54 -14 -84 -42.5
t-30 -62.5q0 -46 50.5 -74.5t140.5 -28.5q30 0 57 3.5t50.5 10.5t43 16t35.5 20t28 23.5t20.5 25.5t12.5 27t4 27q0 37 -26 58t-79 26l-167 16q-39 4 -57 16t-18 32q0 17 16 32t48 23q13 -4 27 -6t29 -2zM231 179q-57 0 -93.5 40t-36.5 100q0 61 37 100.5t93 39.5
q57 0 94 -40t37 -100q0 -61 -37 -100.5t-94 -39.5zM69 -94q0 23 24 48t80 41l167 -15q33 -4 47.5 -14.5t14.5 -30.5q0 -11 -4 -21t-11 -19.5t-17.5 -18t-23.5 -15.5t-28.5 -13t-33 -10t-36.5 -6t-40 -2q-67 0 -103 21t-36 55z" />
    <glyph glyph-name="h" unicode="h" horiz-adv-x="524" 
d="M67 0h83q-2 6 -3.5 13t-2.5 16t-2 18.5t-2 19.5t-1.5 20l-1 20t-0.5 19v17v233q34 39 67 57.5t72 18.5q51 0 82.5 -32.5t31.5 -93.5v-183v-16t-0.5 -19t-1 -20.5t-1.5 -21t-2 -20t-2 -18.5t-2.5 -16t-3.5 -12h83q-2 5 -3.5 12t-3 16t-2.5 18.5t-1.5 20l-1 21t-1 20.5
t-0.5 19.5v16.5v192q0 75 -43 118.5t-110 43.5q-46 0 -87.5 -25t-69.5 -63v312l-75 -17q3 -5 5 -11.5t3.5 -14.5t3 -17t2.5 -18.5t2 -19.5t1.5 -19t0.5 -17.5v-16.5v-427v-17.5t-0.5 -19.5l-1 -20l-1 -20t-1.5 -19.5t-2.5 -18.5t-3 -16t-3.5 -13z" />
    <glyph glyph-name="i" unicode="i" horiz-adv-x="218" 
d="M107 584q19 0 32 13.5t13 31.5q0 19 -13 32.5t-32 13.5t-32.5 -13.5t-13.5 -32.5q0 -18 13.5 -31.5t32.5 -13.5zM67 0h84q-2 6 -3.5 13t-3 16t-2.5 18.5t-2 19.5t-1.5 20l-1 20t-0.5 19.5v17.5v349l-75 -17q3 -5 5 -11.5t3.5 -14.5t3 -17t2.5 -18.5t2 -19.5t1.5 -19
t0.5 -17.5v-16.5v-198v-17.5t-0.5 -19.5l-1 -20l-1 -20t-1.5 -19.5t-2.5 -18.5t-3 -16t-3.5 -13z" />
    <glyph glyph-name="j" unicode="j" horiz-adv-x="211" 
d="M104 584q19 0 32.5 13.5t13.5 31.5q0 19 -13.5 32.5t-32.5 13.5t-32 -13.5t-13 -32.5q0 -18 13 -31.5t32 -13.5zM33 -206q47 0 74 28t27 82v589l-75 -17q3 -5 5 -11.5t4 -14.5t3.5 -17t2.5 -18.5t1.5 -19.5t1.5 -19t1 -17.5v-16.5v-440q0 -30 -14.5 -46.5t-39.5 -16.5
q-13 0 -28 3.5t-27 8.5l3 -46q13 -5 29 -8t32 -3z" />
    <glyph glyph-name="k" unicode="k" horiz-adv-x="444" 
d="M67 0h83q-2 6 -3.5 13t-2.5 16t-2 18.5t-2 19.5t-1.5 20l-1 20t-0.5 19v17v579l-75 -17q3 -5 5 -11.5t3.5 -14.5t3 -17t2.5 -18.5t2 -19.5t1.5 -19t0.5 -17.5v-16.5v-427v-17.5t-0.5 -19.5l-1 -20l-1 -20t-1.5 -19.5t-2.5 -18.5t-3 -16t-3.5 -13zM363 0h90
q-23 24 -54 57.5t-63 70.5l-111 126l106 117q31 34 60 64.5t51 52.5h-81q-7 -19 -24.5 -44t-42.5 -53l-131 -144l130 -147q26 -30 44 -55.5t26 -44.5z" />
    <glyph glyph-name="l" unicode="l" horiz-adv-x="218" 
d="M67 0h84q-2 6 -3.5 13t-3 16t-2.5 18.5t-2 19.5t-1.5 20l-1 20t-0.5 19.5v17.5v578l-75 -17q3 -5 5 -11.5t3.5 -14.5t3 -17t2.5 -18.5t2 -19.5t1.5 -19t0.5 -17.5v-16.5v-427v-17.5t-0.5 -19.5l-1 -20l-1 -20t-1.5 -19.5t-2.5 -18.5t-3 -16t-3.5 -13z" />
    <glyph glyph-name="m" unicode="m" horiz-adv-x="818" 
d="M67 0h83q-2 6 -3.5 13t-2.5 16t-2 18.5t-2 19.5t-1.5 20l-1 20t-0.5 19v17v235q31 34 63 54t72 20q49 0 79.5 -32t30.5 -92v-185v-17t-0.5 -19l-1 -20l-1 -20t-1.5 -19.5t-2.5 -18.5t-3 -16t-3.5 -13h83q-2 6 -3.5 13t-2.5 16t-2 18.5t-2 19.5t-1.5 20l-1 20t-0.5 19.5
v17.5v195q0 11 -1 22t-3 21q28 34 62.5 52t72.5 18q52 0 83 -32.5t31 -92.5v-184v-17t-0.5 -19l-1 -20l-1 -20t-1.5 -19.5t-2.5 -18.5t-3 -16t-3.5 -13h83q-2 6 -3.5 13t-3 16t-2.5 18.5t-1.5 19.5l-1 20l-1 20t-0.5 19.5v17.5v194q0 74 -43 117t-110 43q-52 0 -93 -25.5
t-69 -63.5q-16 42 -52 65.5t-84 23.5q-47 0 -86.5 -25t-66.5 -62v82l-75 -17q3 -5 5 -11.5t3.5 -14.5t3 -17t2.5 -18.5t2 -19.5t1.5 -19t0.5 -17.5v-16.5v-198v-17.5t-0.5 -19.5l-1 -20l-1 -20t-1.5 -19.5t-2.5 -18.5t-3 -16t-3.5 -13z" />
    <glyph glyph-name="n" unicode="n" horiz-adv-x="524" 
d="M67 0h83q-2 5 -3.5 12t-2.5 16t-2 18.5t-2 20t-1.5 21t-1 20.5t-0.5 19v16v233q34 39 67 57.5t72 18.5q51 0 82.5 -32.5t31.5 -93.5v-183v-16t-0.5 -19t-1 -20.5l-1 -21t-1.5 -20t-2.5 -18.5t-3 -16t-3.5 -12h83q-2 5 -3.5 12t-3 16t-2.5 18.5t-1.5 20l-1 21t-1 20.5
t-0.5 19.5v16.5v192q0 75 -43 118.5t-110 43.5q-46 0 -87.5 -25t-69.5 -63v83l-75 -17q3 -4 5 -11t3.5 -15t3 -17.5t2.5 -19t2 -19.5t1.5 -19.5t0.5 -17.5v-15v-198v-16.5t-0.5 -19.5t-1 -20.5l-1 -21t-1.5 -20t-2.5 -18.5t-3 -16t-3.5 -12z" />
    <glyph glyph-name="o" unicode="o" horiz-adv-x="519" 
d="M260 -9q24 0 46 5t42 14t38 22.5t33 30.5t26.5 37t19.5 43t12.5 48.5t4.5 52.5t-4.5 52.5t-12.5 48.5t-19.5 43.5t-26.5 37.5t-33 30.5t-38 22.5t-42 14t-46 5t-46.5 -5t-42.5 -14.5t-38 -22.5t-32.5 -30t-26.5 -37.5t-20 -43.5t-12.5 -48.5t-4.5 -53.5q0 -27 4.5 -52.5
t12.5 -48t20 -43t26.5 -37t32.5 -30t38 -22.5t42.5 -14t46.5 -5zM259 33q-72 0 -118 59t-46 152t46 152t118 59t118.5 -59t46.5 -152t-46 -152t-119 -59z" />
    <glyph glyph-name="p" unicode="p" horiz-adv-x="529" 
d="M67 -200h84q-2 6 -3.5 13t-3 16t-2.5 18.5t-2 19.5t-1.5 20l-1 20t-0.5 19.5v17.5v111q27 -31 64 -47.5t78 -16.5q22 0 42.5 4.5t39.5 14t36 22.5t32 30t26.5 37.5t19.5 44t12.5 49.5t4.5 55q0 28 -4 53.5t-11.5 48t-18 42.5t-24 36t-29.5 29t-34 22t-38 13.5t-41 4.5
q-43 0 -84.5 -22.5t-70.5 -64.5v83l-75 -17q3 -5 5 -11.5t3.5 -14.5t3 -17t2.5 -18.5t2 -19.5t1.5 -19t0.5 -17.5v-16.5v-398v-17.5t-0.5 -19.5l-1 -20l-1 -20t-1.5 -19.5t-2.5 -18.5t-3 -16t-3.5 -13zM280 453q67 0 110.5 -57.5t43.5 -149.5q0 -93 -45 -152t-117 -59
q-37 0 -72 16.5t-63 48.5v275q32 38 68 58t75 20z" />
    <glyph glyph-name="q" unicode="q" horiz-adv-x="520" 
d="M375 -200h83q-2 6 -3.5 13t-3 16t-2.5 18.5t-1.5 19.5l-1 20l-1 20t-0.5 19.5v17.5v545l-57 -17q-25 11 -53.5 18t-58.5 7q-25 0 -48.5 -4.5t-45 -14t-40.5 -22.5t-35.5 -30t-29 -38t-21.5 -45.5t-14 -52t-5 -57.5q0 -27 4 -52t11.5 -47t18.5 -41t24.5 -35t30 -28.5
t35 -21t39 -13t42.5 -4.5q41 0 79.5 19.5t66.5 54.5v-121v-17.5t-0.5 -19.5l-1 -20l-1 -20t-1.5 -19.5t-2.5 -18.5t-3 -16t-3.5 -13zM95 235q0 101 52 161t136 60q27 0 53.5 -7.5t51.5 -20.5v-324q-31 -34 -64.5 -51.5t-70.5 -17.5q-69 0 -113.5 55.5t-44.5 144.5z" />
    <glyph glyph-name="r" unicode="r" horiz-adv-x="314" 
d="M67 0h84q-2 6 -3.5 13t-3 16t-2.5 18.5t-2 19.5t-1.5 20l-1 20t-0.5 19.5v17.5v208q22 43 51 68t69 25q13 0 25.5 -2.5t21.5 -6.5l-4 57q-6 2 -15 3.5t-19 1.5q-34 0 -69.5 -25.5t-59.5 -81.5v102l-75 -17q3 -5 5 -11.5t3.5 -14.5t3 -17t2.5 -18.5t2 -19.5t1.5 -19
t0.5 -17.5v-16.5v-198v-17.5t-0.5 -19.5l-1 -20l-1 -20t-1.5 -19.5t-2.5 -18.5t-3 -16t-3.5 -13z" />
    <glyph glyph-name="s" unicode="s" horiz-adv-x="380" 
d="M191 -10q64 0 108 38t44 98q0 16 -3 29t-9 24.5t-13.5 21.5t-17.5 19t-20.5 16.5t-22.5 14l-24 13t-24.5 12.5t-24.5 12t-22.5 12t-20.5 13t-17.5 14.5t-13.5 16t-9 18.5t-3 21q0 32 22 53t63 21q37 0 74 -18t69 -48l-15 81q-27 1 -57 13.5t-73 12.5q-58 0 -96.5 -34
t-38.5 -88q0 -15 3 -28t9 -24t13.5 -20.5t17 -18t20.5 -16t23 -14l24 -13t24 -12.5l24 -12t23 -12.5t20.5 -13.5t17 -14.5t13.5 -16.5t9 -19.5t3 -22.5q0 -37 -26 -62.5t-75 -25.5q-43 0 -83.5 19.5t-76.5 51.5l15 -81q28 -1 62 -16t85 -15z" />
    <glyph glyph-name="t" unicode="t" horiz-adv-x="299" 
d="M205 -10q22 0 43 6t35 13l5 44q-13 -7 -30.5 -13.5t-36.5 -6.5q-28 0 -42.5 15t-14.5 45v354h125v41h-125v114l-57 -16v-98h-92l-10 -41h102v-359q0 -46 25 -72t73 -26z" />
    <glyph glyph-name="u" unicode="u" horiz-adv-x="524" 
d="M228 -10q48 0 90 25.5t69 62.5v-82l75 10q-3 5 -5 12t-4 15.5t-3.5 18t-2.5 20t-1.5 21t-1.5 20.5t-1 19v16v345l-75 -17q3 -5 5 -11.5t4 -14.5t3.5 -17t2.5 -18.5t1.5 -19.5t1.5 -19t1 -17.5v-16.5v-230q-31 -36 -65.5 -56t-74.5 -20q-49 0 -81 32.5t-32 92.5v332
l-75 -17q2 -5 4.5 -11.5t4 -14.5t3 -17t2.5 -18.5t2 -19.5t1.5 -19t0.5 -17.5v-16.5v-190q0 -75 42.5 -118.5t108.5 -43.5z" />
    <glyph glyph-name="v" unicode="v" horiz-adv-x="450" 
d="M386 348q18 40 34 76t30 64h-72q-1 -25 -11 -57t-26 -71l-76 -177l-36 -88l-35 87l-76 178q-16 39 -25.5 71t-10.5 57h-82q13 -28 29.5 -64t34.5 -76l161 -363z" />
    <glyph glyph-name="w" unicode="w" horiz-adv-x="648" 
d="M587 349q13 40 26 75.5t23 63.5h-70q2 -25 -3 -56.5t-18 -69.5l-60 -192l-16 -59l-20 59l-122 334l-120 -334l-19 -59l-17 59l-60 193q-13 38 -18 69t-3 56h-79q11 -28 23.5 -63.5t25.5 -75.5l121 -367l123 336l19 58l19 -58l125 -336z" />
    <glyph glyph-name="x" unicode="x" horiz-adv-x="420" 
d="M0 0h73q4 22 22.5 53t41.5 63l67 95l70 -97q22 -31 40.5 -61.5t22.5 -52.5h84q-19 23 -44.5 58.5t-53.5 75.5l-83 117l73 104q25 35 51 71.5t47 61.5h-74q-4 -22 -22.5 -53t-41.5 -63l-60 -87l-63 89q-22 31 -41 61.5t-23 52.5h-83q18 -23 43.5 -58.5t54.5 -75.5l77 -107
l-81 -114q-25 -36 -51 -72.5t-46 -60.5z" />
    <glyph glyph-name="y" unicode="y" horiz-adv-x="445" 
d="M74 -205q45 0 76.5 26t53.5 81l180 445q16 40 31.5 76.5t28.5 64.5h-71q-1 -25 -10 -57.5t-24 -70.5l-110 -278l-113 278q-16 38 -24.5 70.5t-9.5 57.5h-81q13 -28 29 -64t32 -77l137 -332l-39 -96q-17 -41 -38 -58t-52 -17q-16 0 -31 4.5t-29 11.5l6 -52
q11 -6 26.5 -9.5t31.5 -3.5z" />
    <glyph glyph-name="z" unicode="z" horiz-adv-x="388" 
d="M8 0h347l12 62q-6 -3 -15 -5t-19 -4t-21.5 -4t-23.5 -3.5t-24.5 -2.5t-24 -1.5t-22.5 -1t-20 -0.5h-104l275 448h-331l-12 -61q7 2 15.5 4.5t19 4t22 3.5t24 3l25 2t24.5 1.5t23 1t21 0.5h83z" />
    <glyph glyph-name="braceleft" unicode="{" horiz-adv-x="337" 
d="M266 -160v21q-74 1 -106 28t-32 67q0 12 2.5 22.5t6.5 20.5t9.5 20t12 19t13.5 18.5t14.5 18.5t14.5 18.5t13.5 18.5t12 19t9.5 20.5t6.5 21.5t2.5 23q0 39 -29.5 70t-86.5 39q57 8 86.5 39t29.5 70q0 12 -2.5 23t-6.5 21.5t-9.5 20.5t-12 19t-13.5 18.5t-14.5 18.5
t-14.5 18.5t-13.5 18.5t-12 19t-9.5 20t-6.5 21t-2.5 22q0 40 32 67t106 28v21q-25 2 -47 1t-40.5 -5.5t-33.5 -11.5t-26.5 -16t-20 -20t-14.5 -23t-8.5 -25t-2.5 -26t2.5 -25t6.5 -23t9.5 -21t12 -20t13.5 -19t14.5 -18t14.5 -18t13.5 -18t12 -17.5t9.5 -18t6.5 -19
t2.5 -19.5q0 -42 -38 -64t-119 -19v-40q81 3 119 -19t38 -64q0 -10 -2.5 -19.5t-6.5 -19t-9.5 -18t-12 -17.5t-13.5 -18t-14.5 -18t-14.5 -18t-13.5 -19t-12 -20t-9.5 -21t-6.5 -23t-2.5 -25t2.5 -26t8.5 -25t14.5 -23t20 -20t26.5 -16t33.5 -11.5t40.5 -5.5t47 1z" />
    <glyph glyph-name="bar" unicode="|" horiz-adv-x="419" 
d="M184 -200h51v970h-51v-970z" />
    <glyph glyph-name="braceright" unicode="}" horiz-adv-x="337" 
d="M71 770v-21q74 -1 106 -28t32 -67q0 -11 -2.5 -22t-6.5 -21t-9.5 -20t-12 -19t-13.5 -18.5t-14.5 -18.5t-14.5 -18.5t-13.5 -18.5t-12 -19t-9.5 -20.5t-6.5 -21.5t-2.5 -23q0 -39 29.5 -70t86.5 -39q-57 -8 -86.5 -39t-29.5 -70q0 -12 2.5 -23t6.5 -21.5t9.5 -20.5
t12 -19t13.5 -18.5t14.5 -18.5t14.5 -18.5t13.5 -18.5t12 -19t9.5 -20t6.5 -20.5t2.5 -22.5q0 -40 -32 -67t-106 -28v-21q26 -2 47.5 -1t40 5.5t33.5 11.5t26.5 16t20 20t14.5 23t8.5 25t2.5 26t-2.5 25t-6.5 23t-9.5 21t-12 20t-13.5 19t-14.5 18t-14.5 18t-13.5 18
t-12 17.5t-9.5 18t-6.5 19t-2.5 19.5q0 42 38 64t119 19v40q-81 -3 -119 19t-38 64q0 10 2.5 19.5t6.5 19t9.5 18t12 17.5t13.5 18t14.5 18t14.5 18t13.5 19t12 20t9.5 21t6.5 23t2.5 25t-2.5 26t-8.5 25t-14.5 23t-20 20t-26.5 16t-33.5 11.5t-40 5.5t-47.5 -1z" />
    <glyph glyph-name="asciitilde" unicode="~" horiz-adv-x="421" 
d="M289 266q32 0 60.5 34.5t43.5 115.5h-25q-15 -57 -31.5 -79t-40.5 -22q-7 0 -13.5 2.5t-13.5 6.5t-13.5 9t-14 11.5t-14.5 13.5t-14.5 13.5t-15.5 13t-15.5 11.5t-16 9t-16.5 6.5t-17 2.5q-32 0 -60.5 -34.5t-43.5 -115.5h26q14 57 30.5 79t40.5 22q7 0 13.5 -2.5
t13.5 -6.5t13.5 -9t14 -11.5t14.5 -13t14.5 -13.5t15.5 -13.5t15.5 -11.5t16 -9t16.5 -6.5t17 -2.5z" />
    <glyph glyph-name="uni00A0" unicode="&#xa0;" horiz-adv-x="189" 
 />
    <glyph glyph-name="exclamdown" unicode="&#xa1;" horiz-adv-x="191" 
d="M109 316h-28l-23 -528h74zM95 495q-19 0 -33 -13.5t-14 -32.5t14 -33t33 -14t33 14t14 33t-14 32.5t-33 13.5z" />
    <glyph glyph-name="cent" unicode="&#xa2;" horiz-adv-x="433" 
d="M203 -112l39 7l8 99h11q40 0 78 13t62 32l9 54q-31 -24 -67.5 -39t-75.5 -15h-13l35 407q34 -4 62.5 -18.5t53.5 -35.5l-8 59q-20 15 -46.5 25t-57.5 14l9 106l-39 -7l-8 -98q-24 -1 -46.5 -6.5t-42.5 -15t-38 -23t-33.5 -30t-27.5 -36t-20 -41.5t-12.5 -46.5t-4.5 -50.5
q0 -93 50 -160t132 -83zM86 242q0 84 47 141t118 63l-35 -400q-60 16 -95 69.5t-35 126.5z" />
    <glyph glyph-name="sterling" unicode="&#xa3;" horiz-adv-x="527" 
d="M127 -12q34 0 63 19.5t47 52.5q39 -24 79.5 -48t87.5 -24q19 0 44.5 5t43.5 18l9 54q-21 -16 -46.5 -23t-47.5 -7q-37 0 -75.5 22t-78.5 44q4 12 5.5 25.5t1.5 26.5q0 34 -9.5 69t-22.5 70h148v38h-163q-17 43 -31 87t-14 88q0 71 41.5 115t108.5 44q41 0 79.5 -14
t72.5 -42l-11 63q-28 19 -66.5 29t-78.5 10q-23 0 -44 -4t-39.5 -12t-34.5 -19t-29.5 -25t-24 -30.5t-18 -35t-11 -39t-3.5 -42.5q0 -42 14 -86t32 -87h-92v-38h108q16 -39 28.5 -75.5t12.5 -67.5q0 -7 -0.5 -13.5t-1.5 -12.5q-19 8 -39.5 13.5t-42.5 5.5q-48 0 -71 -25.5
t-23 -56.5q0 -32 25.5 -52t66.5 -20zM79 59q0 16 13 28.5t38 12.5q18 0 36 -5.5t35 -14.5q-10 -25 -28 -42t-44 -17q-24 0 -37 11t-13 27z" />
    <glyph glyph-name="yen" unicode="&#xa5;" horiz-adv-x="564" 
d="M98 169h155q0 -11 -0.5 -22.5t-1 -24t-1 -24.5t-1.5 -24t-2 -23t-2.5 -20.5t-3 -17.5t-3.5 -13h88q-2 5 -3.5 13t-3 17.5t-2.5 20.5t-2 23t-1.5 24t-1 24.5t-1 24t-0.5 22.5h155v38h-155v66h155v37h-142l148 245l50 80t42 65h-83q-2 -22 -17.5 -57t-37.5 -72l-140 -234
l-140 234q-22 37 -37.5 72t-17.5 57h-91q17 -25 42 -65l50 -80l148 -245h-142v-37h155v-66h-155v-38z" />
    <glyph glyph-name="section" unicode="&#xa7;" horiz-adv-x="556" 
d="M276 -206q78 0 124.5 44t46.5 107q0 34 -14.5 60t-38.5 46q63 25 97 68t34 98q0 19 -3.5 35.5t-10 31t-16 27t-21 24t-25 21.5t-28 19t-30 17t-31 15.5t-31.5 15t-31.5 14.5t-30 14.5t-28 15t-25 16t-21 17.5t-16 19.5t-10 22t-3.5 24.5q0 43 32.5 71.5t85.5 28.5
q40 0 83 -16t84 -46l-9 59q-34 22 -75.5 34.5t-84.5 12.5q-78 0 -124.5 -44t-46.5 -107q0 -34 14.5 -60t38.5 -46q-63 -25 -97 -68t-34 -98q0 -19 3.5 -35.5t10 -31t16 -27t21 -24t25 -21.5t28 -19t30 -17t31.5 -15.5t31.5 -15t31 -14.5t30 -14.5t28 -15t25 -16t21 -17.5
t16 -19.5t10 -22t3.5 -24.5q0 -42 -32.5 -71t-85.5 -29q-43 0 -91 18.5t-91 50.5l8 -60q34 -24 81 -38.5t95 -14.5zM84 297q0 41 27 76.5t79 59.5q13 -9 27.5 -17t30 -15.5t31.5 -14.5t31.5 -14.5t30.5 -15t29.5 -15t27.5 -16.5t24.5 -18.5t20.5 -20t15.5 -23t10 -26
t3.5 -29.5q0 -42 -27 -77.5t-79 -59.5q-13 9 -28 17t-30 15.5t-31 14.5t-31.5 14.5l-31 15t-29.5 15.5t-27 16.5t-24.5 18t-20.5 20.5t-15.5 23t-10 26t-3.5 30z" />
    <glyph glyph-name="dieresis" unicode="&#xa8;" 
d="M172 585q19 0 32 13t13 31t-13 31t-32 13t-31.5 -13t-12.5 -31t12.5 -31t31.5 -13zM328 585q19 0 31.5 13t12.5 31t-12.5 31t-31.5 13t-32 -13t-13 -31t13 -31t32 -13z" />
    <glyph glyph-name="copyright" unicode="&#xa9;" horiz-adv-x="780" 
d="M390 -28q30 0 59 5t55.5 14.5t51.5 23t47 30.5t41 37.5t35 44t28.5 49.5t21 54.5t13 58.5t4.5 61t-4.5 61t-13 58t-21 54t-28.5 49.5t-35 44t-41 37.5t-47 30.5t-51.5 23t-55.5 14.5t-59 5t-59 -5t-55.5 -14.5t-51.5 -23t-47 -30.5t-41 -37.5t-35 -44t-28.5 -49.5
t-21 -54t-13 -58t-4.5 -61t4.5 -61t13 -58.5t21 -54.5t28.5 -49.5t35 -44t41 -37.5t47 -30.5t51.5 -23t55.5 -14.5t59 -5zM390 8q-27 0 -53 4.5t-50 13t-46 21t-41.5 28t-36.5 34.5t-31.5 40t-25.5 44.5t-18.5 49t-11.5 52.5t-4 55t4 55t11.5 52.5t18.5 49t25.5 44.5
t31.5 40t36.5 34.5t41.5 28t46 21t50 13t53 4.5t53 -4.5t49.5 -13t45.5 -21t41.5 -28t36.5 -34.5t31.5 -40t25.5 -44.5t18.5 -49t11.5 -52.5t4 -55t-4 -55t-11.5 -52.5t-18.5 -49t-25.5 -44.5t-31.5 -40t-36.5 -34.5t-41.5 -28t-45.5 -21t-49.5 -13t-53 -4.5zM399 131
q37 0 71 11t58 30l7 53q-30 -24 -62 -38t-69 -14q-70 0 -111.5 50.5t-41.5 127.5q0 78 45 128t109 50q39 0 72 -16.5t58 -44.5l-10 75q-23 3 -51.5 15t-72.5 12q-18 0 -36 -3.5t-34.5 -10t-31.5 -16t-28.5 -21t-25 -26t-20.5 -30.5t-15 -34t-9.5 -37.5t-3.5 -40.5
q0 -24 3.5 -46t11 -42t17.5 -37.5t23.5 -32t29.5 -26t34.5 -20t39 -12.5t43.5 -4z" />
    <glyph glyph-name="ordfeminine" unicode="&#xaa;" horiz-adv-x="321" 
d="M116 370q34 0 63 19.5t46 47.5q1 -18 2.5 -36t3.5 -28l53 7q-7 13 -10 41t-3 48v136q0 51 -29.5 79t-82.5 28q-28 0 -56.5 -7.5t-53.5 -20.5l-7 -41q28 16 56 25t54 9q34 0 53.5 -18t19.5 -55v-37l-95 -17q-51 -9 -79 -32.5t-28 -63.5q0 -38 26 -61t67 -23zM69 456
q0 25 17 41.5t57 23.5l82 17v-77q-17 -25 -42.5 -41t-51.5 -16q-29 0 -45.5 14t-16.5 38z" />
    <glyph glyph-name="guillemotleft" unicode="&#xab;" horiz-adv-x="449" 
d="M228 -5h24l-159 249l159 249h-24l-215 -249zM410 -5h24l-159 249l159 249h-24l-215 -249z" />
    <glyph glyph-name="registered" unicode="&#xae;" horiz-adv-x="465" 
d="M232 311q21 0 40.5 4t38 11.5t34.5 18.5t29.5 25t24.5 30.5t19 35.5t12 40t4 43q0 23 -4 44t-12 39.5t-19 35.5t-24.5 30.5t-29.5 24.5t-34.5 18.5t-38 11.5t-40.5 4t-40.5 -4t-37.5 -11.5t-34 -18.5t-29.5 -24.5t-24.5 -30.5t-19 -35.5t-12 -39.5t-4 -44q0 -22 4 -43
t12 -40t19 -35.5t24.5 -30.5t29.5 -25t34 -18.5t37.5 -11.5t40.5 -4zM232 339q-18 0 -34.5 3.5t-32 10t-29.5 16t-25.5 21.5t-21 26.5t-16 31t-10 34.5t-3.5 37q0 20 3.5 38t10 34.5t16 30.5t21 26.5t25.5 22t29.5 16t32 10t34.5 3.5q72 0 122.5 -51.5t50.5 -129.5
q0 -77 -50.5 -128.5t-122.5 -51.5zM155 406h48q-4 10 -5.5 31.5t-1.5 37.5v27h36l60 -96h44q-8 8 -17.5 21.5t-24.5 36.5l-27 42q22 7 35.5 24.5t13.5 41.5q0 30 -21.5 48.5t-56.5 18.5h-84q4 -10 6 -31.5t2 -37.5v-95q0 -16 -1.5 -37.5t-5.5 -31.5zM234 613q21 0 34 -12
t13 -31t-13 -31t-34 -12h-38v86h38z" />
    <glyph glyph-name="macron" unicode="&#xaf;" 
d="M127 600h246v40h-246v-40z" />
    <glyph glyph-name="degree" unicode="&#xb0;" horiz-adv-x="339" 
d="M169 439q58 0 97.5 39.5t39.5 96.5q0 58 -39.5 97.5t-97.5 39.5q-57 0 -97 -39.5t-40 -97.5q0 -57 40 -96.5t97 -39.5zM169 474q-42 0 -70.5 29t-28.5 72t28.5 72t70.5 29q43 0 71 -29t28 -72t-28 -72t-71 -29z" />
    <glyph glyph-name="plusminus" unicode="&#xb1;" horiz-adv-x="581" 
d="M272 140h38v198h197v36h-197v198h-38v-198h-198v-36h198v-198zM74 0h433v36h-433v-36z" />
    <glyph glyph-name="twosuperior" unicode="&#xb2;" horiz-adv-x="231" 
d="M6 372h203l7 48q-5 -1 -11.5 -2.5t-14.5 -3t-16.5 -2.5t-17 -1.5l-17 -1t-16 -1t-13.5 -0.5h-42l65 76q39 44 57 73t18 61q0 37 -27 62.5t-74 25.5q-25 0 -49 -8t-40 -21l-7 -42q20 16 42.5 25.5t44.5 9.5q27 0 44 -15.5t17 -42.5q0 -25 -13 -48.5t-44 -65.5z" />
    <glyph glyph-name="threesuperior" unicode="&#xb3;" horiz-adv-x="240" 
d="M106 367q53 0 84.5 26.5t31.5 67.5q0 31 -20 53.5t-57 29.5q31 8 49 29t18 51q0 36 -27 59t-73 23q-25 0 -48 -7t-39 -17l-7 -42q19 13 41.5 22t44.5 9q29 0 44.5 -15t15.5 -38q0 -26 -19.5 -43t-54.5 -17h-23l-9 -33h30q40 0 63 -16.5t23 -44.5q0 -27 -19 -44.5
t-54 -17.5q-21 0 -43.5 6.5t-41.5 17.5l3 -39q16 -8 39 -14t48 -6z" />
    <glyph glyph-name="acute" unicode="&#xb4;" 
d="M215 551h35l137 154h-79z" />
    <glyph glyph-name="paragraph" unicode="&#xb6;" horiz-adv-x="614" 
d="M286 250h84v-230v-18.5t-0.5 -22.5t-1 -25t-1 -26.5t-1 -26.5t-1.5 -25.5t-2 -24t-2 -21.5t-2.5 -17.5t-3.5 -12.5h63v900h-132q-113 0 -181.5 -62t-68.5 -163t68.5 -163t181.5 -62zM475 -200h64q-2 5 -3.5 12.5t-2.5 17.5t-2 21.5t-2 24t-1.5 25.5t-1 26.5t-1 26.5
t-1 25t-0.5 22.5v18.5v460v18.5t0.5 22.5t1 25t1 26.5t1 26.5t1.5 25.5t2 24t2 21.5t2.5 17.5t3.5 12.5h-64v-900z" />
    <glyph glyph-name="periodcentered" unicode="&#xb7;" horiz-adv-x="171" 
d="M86 296q19 0 32.5 13.5t13.5 32.5t-13.5 33t-32.5 14t-33 -14t-14 -33t14 -32.5t33 -13.5z" />
    <glyph glyph-name="cedilla" unicode="&#xb8;" 
d="M237 -206q44 0 70.5 21.5t26.5 57.5q0 30 -24 49.5t-60 19.5h-7t-7 -1l33 63l-27 10l-54 -104l4 -4q9 3 19.5 4.5t20.5 1.5q25 0 42 -10.5t17 -28.5q0 -20 -16 -31.5t-42 -11.5q-23 0 -45 6.5t-41 17.5l5 -41q14 -7 38 -13t47 -6z" />
    <glyph glyph-name="onesuperior" unicode="&#xb9;" horiz-adv-x="127" 
d="M32 372h64q-5 12 -7 37.5t-2 46.5v250l-60 -22q7 -11 10.5 -29.5t3.5 -40.5v-158q0 -21 -2 -46.5t-7 -37.5z" />
    <glyph glyph-name="ordmasculine" unicode="&#xba;" horiz-adv-x="352" 
d="M176 370q65 0 108.5 48.5t43.5 121.5q0 75 -43 123.5t-109 48.5q-65 0 -108.5 -49t-43.5 -123q0 -73 43.5 -121.5t108.5 -48.5zM176 403q-46 0 -75.5 38t-29.5 100q0 61 29.5 99t75.5 38t75.5 -38t29.5 -99q0 -62 -29.5 -100t-75.5 -38z" />
    <glyph glyph-name="guillemotright" unicode="&#xbb;" horiz-adv-x="449" 
d="M221 -5h-24l159 249l-159 249h24l215 -249zM39 -5h-24l159 249l-159 249h24l215 -249z" />
    <glyph glyph-name="onequarter" unicode="&#xbc;" horiz-adv-x="505" 
d="M235 83h166v-2q0 -19 -2 -44.5t-7 -36.5h62q-4 11 -5.5 36.5t-1.5 44.5v2h43l6 44q-9 -3 -22 -5t-27 -3v94l-46 -12v-83h-112l67 120q10 19 25.5 46t26.5 45h-51q-5 -13 -15.5 -34.5t-18.5 -37.5zM61 372h64q-5 12 -7 37.5t-2 46.5v250l-60 -22q7 -11 10.5 -29.5
t3.5 -40.5v-158q0 -21 -2 -46.5t-7 -37.5zM46 0l402 700h-45l-403 -700h46z" />
    <glyph glyph-name="onehalf" unicode="&#xbd;" horiz-adv-x="526" 
d="M302 0h203l7 48q-5 -1 -11.5 -2.5t-14.5 -3t-16.5 -2.5t-17 -1.5l-17 -1t-16 -1t-13.5 -0.5h-42l65 76q39 44 57 73t18 61q0 37 -27 62.5t-74 25.5q-25 0 -49 -8t-40 -21l-7 -42q20 16 42.5 25.5t44.5 9.5q27 0 44 -15.5t17 -42.5q0 -25 -13 -48.5t-44 -65.5zM61 372h64
q-5 12 -7 37.5t-2 46.5v250l-60 -22q7 -11 10.5 -29.5t3.5 -40.5v-158q0 -21 -2 -46.5t-7 -37.5zM46 0l402 700h-45l-403 -700h46z" />
    <glyph glyph-name="threequarters" unicode="&#xbe;" horiz-adv-x="575" 
d="M107 367q53 0 84.5 26.5t31.5 67.5q0 31 -20 53.5t-57 29.5q31 8 49 29t18 51q0 36 -27 59t-73 23q-25 0 -48 -7t-39 -17l-7 -42q19 13 41.5 22t44.5 9q29 0 44.5 -15t15.5 -38q0 -26 -19.5 -43t-54.5 -17h-23l-9 -33h30q40 0 63 -16.5t23 -44.5q0 -27 -19 -44.5
t-54 -17.5q-21 0 -43.5 6.5t-41.5 17.5l3 -39q16 -8 39 -14t48 -6zM305 83h166v-2q0 -19 -2 -44.5t-7 -36.5h62q-4 11 -5.5 36.5t-1.5 44.5v2h43l6 44q-9 -3 -22 -5t-27 -3v94l-46 -12v-83h-112l67 120q10 19 25.5 46t26.5 45h-51q-5 -13 -15.5 -34.5t-18.5 -37.5zM116 0
l402 700h-45l-403 -700h46z" />
    <glyph glyph-name="questiondown" unicode="&#xbf;" horiz-adv-x="369" 
d="M193 307l-6 -10q14 -7 21 -21t7 -28q0 -10 -3 -20t-8 -19.5t-12 -19t-15.5 -18.5t-18 -18t-20 -18.5t-20.5 -19.5l-20.5 -20.5t-20 -21.5t-18 -23t-15.5 -24.5t-12 -26.5t-8 -29t-3 -32q0 -69 48.5 -114t130.5 -45q44 0 86.5 13.5t72.5 33.5l7 59q-28 -23 -71 -42.5
t-86 -19.5q-56 0 -91.5 33t-35.5 87q0 15 3 29t8 26.5t12 24t15 22.5t17.5 21.5t19.5 20.5l19.5 19.5l19 19t17.5 19.5t15 20t12 21t8 22.5t3 23.5q0 28 -16.5 48t-41.5 27zM212 495q-19 0 -33 -13.5t-14 -32.5t14 -33t33 -14t33 14t14 33t-14 32.5t-33 13.5z" />
    <glyph glyph-name="Agrave" unicode="&#xc0;" horiz-adv-x="603" 
d="M131 170l19 47h294l19 -47q4 -10 8.5 -21.5t8.5 -23t8 -23.5t7.5 -24t6.5 -23t5 -21t3.5 -18.5t1.5 -15.5h89q-4 7 -8 16t-9 19.5t-10.5 22.5t-11 24.5t-11 25.5t-11 25.5t-10.5 24.5t-9 22l-219 533l-220 -533q-4 -10 -9 -22t-10.5 -24.5l-11 -25t-11 -25.5t-10.5 -25
t-10 -22.5t-9.5 -19.5t-7.5 -16h81q0 7 1 15.5t3 18.5t5 21t6.5 23l7 24t7.5 23.5t8.5 23t8.5 21.5zM167 261l130 326l130 -326h-260zM296 763h38l-85 134h-77z" />
    <glyph glyph-name="Aacute" unicode="&#xc1;" horiz-adv-x="603" 
d="M131 170l19 47h294l19 -47q4 -10 8.5 -21.5t8.5 -23t8 -23.5t7.5 -24t6.5 -23t5 -21t3.5 -18.5t1.5 -15.5h89q-4 7 -8 16t-9 19.5t-10.5 22.5t-11 24.5t-11 25.5t-11 25.5t-10.5 24.5t-9 22l-219 533l-220 -533q-4 -10 -9 -22t-10.5 -24.5l-11 -25t-11 -25.5t-10.5 -25
t-10 -22.5t-9.5 -19.5t-7.5 -16h81q0 7 1 15.5t3 18.5t5 21t6.5 23l7 24t7.5 23.5t8.5 23t8.5 21.5zM167 261l130 326l130 -326h-260zM264 763h36l124 134h-75z" />
    <glyph glyph-name="Acircumflex" unicode="&#xc2;" horiz-adv-x="603" 
d="M131 170l19 47h294l19 -47q4 -10 8.5 -21.5t8.5 -23t8 -23.5t7.5 -24t6.5 -23t5 -21t3.5 -18.5t1.5 -15.5h89q-4 7 -8 16t-9 19.5t-10.5 22.5t-11 24.5t-11 25.5t-11 25.5t-10.5 24.5t-9 22l-219 533l-220 -533q-4 -10 -9 -22t-10.5 -24.5l-11 -25t-11 -25.5t-10.5 -25
t-10 -22.5t-9.5 -19.5t-7.5 -16h81q0 7 1 15.5t3 18.5t5 21t6.5 23l7 24t7.5 23.5t8.5 23t8.5 21.5zM167 261l130 326l130 -326h-260zM161 763h33l105 90l105 -90h33l-111 134h-54z" />
    <glyph glyph-name="Atilde" unicode="&#xc3;" horiz-adv-x="603" 
d="M131 170l19 47h294l19 -47q4 -10 8.5 -21.5t8.5 -23t8 -23.5t7.5 -24t6.5 -23t5 -21t3.5 -18.5t1.5 -15.5h89q-4 7 -8 16t-9 19.5t-10.5 22.5t-11 24.5t-11 25.5t-11 25.5t-10.5 24.5t-9 22l-219 533l-220 -533q-4 -10 -9 -22t-10.5 -24.5l-11 -25t-11 -25.5t-10.5 -25
t-10 -22.5t-9.5 -19.5t-7.5 -16h81q0 7 1 15.5t3 18.5t5 21t6.5 23l7 24t7.5 23.5t8.5 23t8.5 21.5zM167 261l130 326l130 -326h-260zM157 777h21q10 30 21.5 44.5t30.5 14.5q6 0 13 -2t14 -5.5t14.5 -7.5t15.5 -9l16 -10t16 -9t16.5 -7.5t17 -5.5t16.5 -2q28 0 49 26.5
t32 78.5h-21q-10 -29 -21.5 -44t-30.5 -15q-6 0 -13 2t-14 5.5t-14.5 7.5t-15.5 9l-16 10t-16 9t-16.5 7.5t-16.5 5.5t-17 2q-28 0 -49 -26t-32 -79z" />
    <glyph glyph-name="Adieresis" unicode="&#xc4;" horiz-adv-x="603" 
d="M131 170l19 47h294l19 -47q4 -10 8.5 -21.5t8.5 -23t8 -23.5t7.5 -24t6.5 -23t5 -21t3.5 -18.5t1.5 -15.5h89q-4 7 -8 16t-9 19.5t-10.5 22.5t-11 24.5t-11 25.5t-11 25.5t-10.5 24.5t-9 22l-219 533l-220 -533q-4 -10 -9 -22t-10.5 -24.5l-11 -25t-11 -25.5t-10.5 -25
t-10 -22.5t-9.5 -19.5t-7.5 -16h81q0 7 1 15.5t3 18.5t5 21t6.5 23l7 24t7.5 23.5t8.5 23t8.5 21.5zM167 261l130 326l130 -326h-260zM221 787q19 0 32 13.5t13 31.5q0 17 -13 30.5t-32 13.5t-31.5 -13.5t-12.5 -30.5q0 -18 12.5 -31.5t31.5 -13.5zM377 787q19 0 31.5 13.5
t12.5 31.5q0 17 -12.5 30.5t-31.5 13.5t-32 -13.5t-13 -30.5q0 -18 13 -31.5t32 -13.5z" />
    <glyph glyph-name="Aring" unicode="&#xc5;" horiz-adv-x="603" 
d="M131 170l19 47h294l19 -47q4 -10 8.5 -21.5t8.5 -23t8 -23.5t7.5 -24t6.5 -23t5 -21t3.5 -18.5t1.5 -15.5h89q-4 7 -8 16t-9 19.5t-10.5 22.5t-11 24.5t-11 25.5t-11 25.5t-10.5 24.5t-9 22l-219 533l-220 -533q-4 -10 -9 -22t-10.5 -24.5l-11 -25t-11 -25.5t-10.5 -25
t-10 -22.5t-9.5 -19.5t-7.5 -16h81q0 7 1 15.5t3 18.5t5 21t6.5 23l7 24t7.5 23.5t8.5 23t8.5 21.5zM167 261l130 326l130 -326h-260zM299 758q42 0 69 27.5t27 66.5q0 38 -27 65.5t-69 27.5t-69 -27.5t-27 -65.5q0 -39 27 -66.5t69 -27.5zM299 791q-25 0 -42 18t-17 43
t17 42.5t42 17.5t42 -17.5t17 -42.5t-17 -43t-42 -18z" />
    <glyph glyph-name="AE" unicode="&#xc6;" horiz-adv-x="889" 
d="M-2 0h84q4 25 26 68t46 81l45 72h274v-64q0 -10 -0.5 -20.5t-1 -22t-1 -22.5t-2 -22.5t-2.5 -21.5t-3 -19t-4 -16.5t-4 -12.5h406l12 66q-7 -2 -16 -4t-20 -3.5t-23 -3t-25.5 -3t-27 -2.5l-27 -2t-26.5 -2t-25.5 -1.5t-23 -0.5h-19.5h-107v303h52q47 0 90 -2.5t73 -9.5
l-15 67q-27 -5 -67 -8.5t-78 -3.5h-55v265h94h23t25.5 -0.5t27.5 -1.5l28 -2l28 -2t27 -2.5t24.5 -3.5t21.5 -4t18 -4l-12 65h-411q-1 -5 -3 -12.5t-5.5 -16t-8.5 -18.5t-10 -20.5t-11 -21t-12 -20.5t-11.5 -19.5t-10.5 -17.5l-251 -396q-6 -9 -12.5 -19.5t-14 -21.5
t-15 -22.5t-14.5 -22.5t-14 -21.5t-13.5 -19.5t-12 -17t-10.5 -14zM227 265l246 389v-389h-246z" />
    <glyph glyph-name="Ccedilla" unicode="&#xc7;" horiz-adv-x="618" 
d="M41 348q0 -33 4.5 -63.5t13.5 -59t22 -54t29.5 -48.5t36.5 -42t42.5 -34.5t48 -27t53 -19t57.5 -9.5l-42 -81l4 -4q9 3 19.5 4.5t20.5 1.5q25 0 42 -10.5t17 -28.5q0 -20 -16 -31.5t-42 -11.5q-23 0 -45 6.5t-41 17.5l5 -41q14 -7 38 -13t47 -6q44 0 70.5 21.5t26.5 57.5
q0 30 -24 49.5t-60 19.5h-7t-7 -1l26 49q54 0 108.5 15.5t91.5 43.5l8 59q-43 -31 -96 -51t-112 -20q-27 0 -52 5t-48 14t-43.5 22t-38.5 30t-33 37t-26.5 43.5t-20 49t-12.5 54t-4 58.5t4 58.5t12.5 54t20 49t26.5 43.5t32.5 37t37.5 30t42.5 22t46.5 14t50 5
q58 0 113.5 -22t96.5 -61l-13 89q-8 0 -16.5 2t-18.5 5t-21 6.5t-23 7.5t-26 7.5t-29 6.5t-32 4.5t-35 1.5q-27 0 -53.5 -4.5t-51 -13t-47 -21.5t-43 -29t-38.5 -35.5t-33 -42t-26.5 -47.5t-19.5 -52t-12.5 -56.5t-4.5 -60.5z" />
    <glyph glyph-name="Egrave" unicode="&#xc8;" horiz-adv-x="510" 
d="M75 0h407l12 66q-7 -2 -16 -4t-20 -3.5t-23 -3t-25.5 -3t-27 -2.5l-27 -2t-26.5 -2t-25.5 -1.5t-23 -0.5h-19.5h-107v303h52q47 0 90 -2.5t73 -9.5l-15 67q-27 -5 -67 -9t-78 -4h-55v266h94h23t25.5 -0.5t27.5 -1.5l28 -2l28 -2t27 -2.5t24.5 -3.5t21.5 -4t18 -4l-12 65
h-384q2 -5 4.5 -12.5t4 -16.5t3 -19.5t3 -21.5t2 -22.5t1 -22.5t1 -21.5t0.5 -20.5v-386q0 -10 -0.5 -20.5t-1 -21.5t-1 -22.5t-2 -22.5t-3 -21.5t-3 -19.5t-4 -16.5t-4.5 -12.5zM285 763h38l-85 134h-77z" />
    <glyph glyph-name="Eacute" unicode="&#xc9;" horiz-adv-x="510" 
d="M75 0h407l12 66q-7 -2 -16 -4t-20 -3.5t-23 -3t-25.5 -3t-27 -2.5l-27 -2t-26.5 -2t-25.5 -1.5t-23 -0.5h-19.5h-107v303h52q47 0 90 -2.5t73 -9.5l-15 67q-27 -5 -67 -9t-78 -4h-55v266h94h23t25.5 -0.5t27.5 -1.5l28 -2l28 -2t27 -2.5t24.5 -3.5t21.5 -4t18 -4l-12 65
h-384q2 -5 4.5 -12.5t4 -16.5t3 -19.5t3 -21.5t2 -22.5t1 -22.5t1 -21.5t0.5 -20.5v-386q0 -10 -0.5 -20.5t-1 -21.5t-1 -22.5t-2 -22.5t-3 -21.5t-3 -19.5t-4 -16.5t-4.5 -12.5zM253 763h36l124 134h-75z" />
    <glyph glyph-name="Ecircumflex" unicode="&#xca;" horiz-adv-x="510" 
d="M75 0h407l12 66q-7 -2 -16 -4t-20 -3.5t-23 -3t-25.5 -3t-27 -2.5l-27 -2t-26.5 -2t-25.5 -1.5t-23 -0.5h-19.5h-107v303h52q47 0 90 -2.5t73 -9.5l-15 67q-27 -5 -67 -9t-78 -4h-55v266h94h23t25.5 -0.5t27.5 -1.5l28 -2l28 -2t27 -2.5t24.5 -3.5t21.5 -4t18 -4l-12 65
h-384q2 -5 4.5 -12.5t4 -16.5t3 -19.5t3 -21.5t2 -22.5t1 -22.5t1 -21.5t0.5 -20.5v-386q0 -10 -0.5 -20.5t-1 -21.5t-1 -22.5t-2 -22.5t-3 -21.5t-3 -19.5t-4 -16.5t-4.5 -12.5zM150 763h33l105 90l105 -90h33l-111 134h-54z" />
    <glyph glyph-name="Edieresis" unicode="&#xcb;" horiz-adv-x="510" 
d="M75 0h407l12 66q-7 -2 -16 -4t-20 -3.5t-23 -3t-25.5 -3t-27 -2.5l-27 -2t-26.5 -2t-25.5 -1.5t-23 -0.5h-19.5h-107v303h52q47 0 90 -2.5t73 -9.5l-15 67q-27 -5 -67 -9t-78 -4h-55v266h94h23t25.5 -0.5t27.5 -1.5l28 -2l28 -2t27 -2.5t24.5 -3.5t21.5 -4t18 -4l-12 65
h-384q2 -5 4.5 -12.5t4 -16.5t3 -19.5t3 -21.5t2 -22.5t1 -22.5t1 -21.5t0.5 -20.5v-386q0 -10 -0.5 -20.5t-1 -21.5t-1 -22.5t-2 -22.5t-3 -21.5t-3 -19.5t-4 -16.5t-4.5 -12.5zM210 787q19 0 32 13.5t13 31.5q0 17 -13 30.5t-32 13.5t-31.5 -13.5t-12.5 -30.5
q0 -18 12.5 -31.5t31.5 -13.5zM366 787q19 0 31.5 13.5t12.5 31.5q0 17 -12.5 30.5t-31.5 13.5t-32 -13.5t-13 -30.5q0 -18 13 -31.5t32 -13.5z" />
    <glyph glyph-name="Igrave" unicode="&#xcc;" horiz-adv-x="248" 
d="M80 0h88q-2 5 -3.5 12.5t-3 16.5t-2.5 19t-2 21t-1.5 22l-1 22t-0.5 21v19v394v19t0.5 21l1 22t1.5 22t2 21t2.5 19t3 16.5t3.5 12.5h-88q2 -5 3.5 -12.5t3 -16.5t2.5 -19t2 -21t1.5 -22l1 -22t0.5 -21v-19v-394v-19t-0.5 -21l-1 -22t-1.5 -22t-2 -21t-2.5 -19t-3 -16.5
t-3.5 -12.5zM121 763h38l-85 134h-77z" />
    <glyph glyph-name="Iacute" unicode="&#xcd;" horiz-adv-x="248" 
d="M80 0h88q-2 5 -3.5 12.5t-3 16.5t-2.5 19t-2 21t-1.5 22l-1 22t-0.5 21v19v394v19t0.5 21l1 22t1.5 22t2 21t2.5 19t3 16.5t3.5 12.5h-88q2 -5 3.5 -12.5t3 -16.5t2.5 -19t2 -21t1.5 -22l1 -22t0.5 -21v-19v-394v-19t-0.5 -21l-1 -22t-1.5 -22t-2 -21t-2.5 -19t-3 -16.5
t-3.5 -12.5zM89 763h36l124 134h-75z" />
    <glyph glyph-name="Icircumflex" unicode="&#xce;" horiz-adv-x="248" 
d="M80 0h88q-2 5 -3.5 12.5t-3 16.5t-2.5 19t-2 21t-1.5 22l-1 22t-0.5 21v19v394v19t0.5 21l1 22t1.5 22t2 21t2.5 19t3 16.5t3.5 12.5h-88q2 -5 3.5 -12.5t3 -16.5t2.5 -19t2 -21t1.5 -22l1 -22t0.5 -21v-19v-394v-19t-0.5 -21l-1 -22t-1.5 -22t-2 -21t-2.5 -19t-3 -16.5
t-3.5 -12.5zM-14 763h33l105 90l105 -90h33l-111 134h-54z" />
    <glyph glyph-name="Idieresis" unicode="&#xcf;" horiz-adv-x="248" 
d="M80 0h88q-2 5 -3.5 12.5t-3 16.5t-2.5 19t-2 21t-1.5 22l-1 22t-0.5 21v19v394v19t0.5 21l1 22t1.5 22t2 21t2.5 19t3 16.5t3.5 12.5h-88q2 -5 3.5 -12.5t3 -16.5t2.5 -19t2 -21t1.5 -22l1 -22t0.5 -21v-19v-394v-19t-0.5 -21l-1 -22t-1.5 -22t-2 -21t-2.5 -19t-3 -16.5
t-3.5 -12.5zM46 787q19 0 32 13.5t13 31.5q0 17 -13 30.5t-32 13.5t-31.5 -13.5t-12.5 -30.5q0 -18 12.5 -31.5t31.5 -13.5zM202 787q19 0 31.5 13.5t12.5 31.5q0 17 -12.5 30.5t-31.5 13.5t-32 -13.5t-13 -30.5q0 -18 13 -31.5t32 -13.5z" />
    <glyph glyph-name="Eth" unicode="&#xd0;" horiz-adv-x="679" 
d="M77 0h210q30 0 59 4.5t55.5 13t51 20.5t46 28t40.5 35t34.5 40.5t27.5 46t20.5 51t13 55t4.5 58.5q0 33 -5.5 64t-15.5 59.5t-24.5 54.5t-33.5 48.5t-42 41.5t-49 34t-55 25t-61 15.5t-66 5.5h-210q2 -5 4.5 -12.5t4 -16.5t3 -19.5t3 -21.5t2 -22.5t1 -22.5t1 -21.5
t0.5 -20.5v-168h-80l-11 -42h91v-176q0 -10 -0.5 -20.5t-1 -21.5t-1 -22.5t-2 -22.5t-3 -21.5t-3 -19.5t-4 -16.5t-4.5 -12.5zM311 333l10 42h-165v280h127q29 0 55.5 -4.5t51 -13.5t46 -22t40.5 -29.5t34.5 -36.5t27.5 -42.5t20.5 -48t13 -53t4.5 -56.5t-4.5 -56.5
t-12.5 -52.5t-20 -48t-27.5 -42.5t-34.5 -36t-40.5 -29t-46 -21.5t-51.5 -13.5t-56 -4.5h-127v288h155z" />
    <glyph glyph-name="Ntilde" unicode="&#xd1;" horiz-adv-x="699" 
d="M607 547v19t0.5 21t1.5 22l2 22t2 21t2.5 19t3.5 16.5t4 12.5h-82q2 -5 4 -12.5t3.5 -16.5t2.5 -19t2 -21l2 -22t1.5 -21.5t0.5 -20.5v-19v-346l1 -70l-51 65l-415 517v-561v-19t-0.5 -21t-1.5 -22l-2 -22t-2 -21t-2.5 -19t-3.5 -16.5t-4 -12.5h82q-2 5 -4 12t-3.5 16
t-2.5 19t-2 20.5t-2 21.5t-1.5 22t-0.5 20.5v18.5v349l-1 68l56 -71l410 -510v561zM215 777h21q10 30 21.5 44.5t30.5 14.5q6 0 13 -2t14 -5.5t14.5 -7.5t15.5 -9l16 -10t16 -9t16.5 -7.5t17 -5.5t16.5 -2q28 0 49 26.5t32 78.5h-21q-10 -29 -21.5 -44t-30.5 -15q-6 0 -13 2
t-14 5.5t-14.5 7.5t-15.5 9l-16 10t-16 9t-16.5 7.5t-16.5 5.5t-17 2q-28 0 -49 -26t-32 -79z" />
    <glyph glyph-name="Ograve" unicode="&#xd2;" horiz-adv-x="745" 
d="M704 350q0 31 -4 60.5t-12.5 57t-20 52.5t-26.5 47.5t-33 41.5t-38.5 35.5t-43.5 29t-47.5 21t-51 13t-54.5 4.5t-55 -4.5t-52 -13.5t-48 -21.5t-43.5 -28.5t-38.5 -35.5t-32.5 -42t-26.5 -47.5t-20 -52.5t-12 -56.5t-4 -60t4 -60.5t12.5 -57t20 -52.5t26.5 -47.5
t33 -41.5t38.5 -35.5t43.5 -29t47.5 -21t51 -13t54.5 -4.5t55 4.5t52 13.5t48 21.5t43.5 28.5t38.5 35.5t32.5 42t26.5 47.5t20 52.5t12 56.5t4 60zM103 350q0 31 4 59.5t12 55t19 49.5t25.5 43.5t32 37t37.5 30t42.5 22.5t47 13.5t50.5 4.5q25 0 49 -4.5t46 -14t42 -22.5
t37.5 -30t32 -37t26 -43.5t20 -49.5t12.5 -54.5t4 -59.5t-4 -59.5t-12 -55t-19 -49.5t-25.5 -43.5t-32 -37t-37.5 -30t-42.5 -22.5t-47 -13.5t-50.5 -4.5q-25 0 -49 4.5t-46 13.5t-42 22.5t-37.5 30t-32 37t-26 43.5t-20 49.5t-12.5 55t-4 59.5zM370 763h38l-85 134h-77z
" />
    <glyph glyph-name="Oacute" unicode="&#xd3;" horiz-adv-x="745" 
d="M704 350q0 31 -4 60.5t-12.5 57t-20 52.5t-26.5 47.5t-33 41.5t-38.5 35.5t-43.5 29t-47.5 21t-51 13t-54.5 4.5t-55 -4.5t-52 -13.5t-48 -21.5t-43.5 -28.5t-38.5 -35.5t-32.5 -42t-26.5 -47.5t-20 -52.5t-12 -56.5t-4 -60t4 -60.5t12.5 -57t20 -52.5t26.5 -47.5
t33 -41.5t38.5 -35.5t43.5 -29t47.5 -21t51 -13t54.5 -4.5t55 4.5t52 13.5t48 21.5t43.5 28.5t38.5 35.5t32.5 42t26.5 47.5t20 52.5t12 56.5t4 60zM103 350q0 31 4 59.5t12 55t19 49.5t25.5 43.5t32 37t37.5 30t42.5 22.5t47 13.5t50.5 4.5q25 0 49 -4.5t46 -14t42 -22.5
t37.5 -30t32 -37t26 -43.5t20 -49.5t12.5 -54.5t4 -59.5t-4 -59.5t-12 -55t-19 -49.5t-25.5 -43.5t-32 -37t-37.5 -30t-42.5 -22.5t-47 -13.5t-50.5 -4.5q-25 0 -49 4.5t-46 13.5t-42 22.5t-37.5 30t-32 37t-26 43.5t-20 49.5t-12.5 55t-4 59.5zM338 763h36l124 134h-75z
" />
    <glyph glyph-name="Ocircumflex" unicode="&#xd4;" horiz-adv-x="745" 
d="M704 350q0 31 -4 60.5t-12.5 57t-20 52.5t-26.5 47.5t-33 41.5t-38.5 35.5t-43.5 29t-47.5 21t-51 13t-54.5 4.5t-55 -4.5t-52 -13.5t-48 -21.5t-43.5 -28.5t-38.5 -35.5t-32.5 -42t-26.5 -47.5t-20 -52.5t-12 -56.5t-4 -60t4 -60.5t12.5 -57t20 -52.5t26.5 -47.5
t33 -41.5t38.5 -35.5t43.5 -29t47.5 -21t51 -13t54.5 -4.5t55 4.5t52 13.5t48 21.5t43.5 28.5t38.5 35.5t32.5 42t26.5 47.5t20 52.5t12 56.5t4 60zM103 350q0 31 4 59.5t12 55t19 49.5t25.5 43.5t32 37t37.5 30t42.5 22.5t47 13.5t50.5 4.5q25 0 49 -4.5t46 -14t42 -22.5
t37.5 -30t32 -37t26 -43.5t20 -49.5t12.5 -54.5t4 -59.5t-4 -59.5t-12 -55t-19 -49.5t-25.5 -43.5t-32 -37t-37.5 -30t-42.5 -22.5t-47 -13.5t-50.5 -4.5q-25 0 -49 4.5t-46 13.5t-42 22.5t-37.5 30t-32 37t-26 43.5t-20 49.5t-12.5 55t-4 59.5zM235 763h33l105 90l105 -90
h33l-111 134h-54z" />
    <glyph glyph-name="Otilde" unicode="&#xd5;" horiz-adv-x="745" 
d="M704 350q0 31 -4 60.5t-12.5 57t-20 52.5t-26.5 47.5t-33 41.5t-38.5 35.5t-43.5 29t-47.5 21t-51 13t-54.5 4.5t-55 -4.5t-52 -13.5t-48 -21.5t-43.5 -28.5t-38.5 -35.5t-32.5 -42t-26.5 -47.5t-20 -52.5t-12 -56.5t-4 -60t4 -60.5t12.5 -57t20 -52.5t26.5 -47.5
t33 -41.5t38.5 -35.5t43.5 -29t47.5 -21t51 -13t54.5 -4.5t55 4.5t52 13.5t48 21.5t43.5 28.5t38.5 35.5t32.5 42t26.5 47.5t20 52.5t12 56.5t4 60zM103 350q0 31 4 59.5t12 55t19 49.5t25.5 43.5t32 37t37.5 30t42.5 22.5t47 13.5t50.5 4.5q25 0 49 -4.5t46 -14t42 -22.5
t37.5 -30t32 -37t26 -43.5t20 -49.5t12.5 -54.5t4 -59.5t-4 -59.5t-12 -55t-19 -49.5t-25.5 -43.5t-32 -37t-37.5 -30t-42.5 -22.5t-47 -13.5t-50.5 -4.5q-25 0 -49 4.5t-46 13.5t-42 22.5t-37.5 30t-32 37t-26 43.5t-20 49.5t-12.5 55t-4 59.5zM231 777h21q10 30 21.5 44.5
t30.5 14.5q6 0 13 -2t14 -5.5t14.5 -7.5t15.5 -9l16 -10t16 -9t16.5 -7.5t17 -5.5t16.5 -2q28 0 49 26.5t32 78.5h-21q-10 -29 -21.5 -44t-30.5 -15q-6 0 -13 2t-14 5.5t-14.5 7.5t-15.5 9l-16 10t-16 9t-16.5 7.5t-16.5 5.5t-17 2q-28 0 -49 -26t-32 -79z" />
    <glyph glyph-name="Odieresis" unicode="&#xd6;" horiz-adv-x="745" 
d="M704 350q0 31 -4 60.5t-12.5 57t-20 52.5t-26.5 47.5t-33 41.5t-38.5 35.5t-43.5 29t-47.5 21t-51 13t-54.5 4.5t-55 -4.5t-52 -13.5t-48 -21.5t-43.5 -28.5t-38.5 -35.5t-32.5 -42t-26.5 -47.5t-20 -52.5t-12 -56.5t-4 -60t4 -60.5t12.5 -57t20 -52.5t26.5 -47.5
t33 -41.5t38.5 -35.5t43.5 -29t47.5 -21t51 -13t54.5 -4.5t55 4.5t52 13.5t48 21.5t43.5 28.5t38.5 35.5t32.5 42t26.5 47.5t20 52.5t12 56.5t4 60zM103 350q0 31 4 59.5t12 55t19 49.5t25.5 43.5t32 37t37.5 30t42.5 22.5t47 13.5t50.5 4.5q25 0 49 -4.5t46 -14t42 -22.5
t37.5 -30t32 -37t26 -43.5t20 -49.5t12.5 -54.5t4 -59.5t-4 -59.5t-12 -55t-19 -49.5t-25.5 -43.5t-32 -37t-37.5 -30t-42.5 -22.5t-47 -13.5t-50.5 -4.5q-25 0 -49 4.5t-46 13.5t-42 22.5t-37.5 30t-32 37t-26 43.5t-20 49.5t-12.5 55t-4 59.5zM295 787q19 0 32 13.5
t13 31.5q0 17 -13 30.5t-32 13.5t-31.5 -13.5t-12.5 -30.5q0 -18 12.5 -31.5t31.5 -13.5zM451 787q19 0 31.5 13.5t12.5 31.5q0 17 -12.5 30.5t-31.5 13.5t-32 -13.5t-13 -30.5q0 -18 13 -31.5t32 -13.5z" />
    <glyph glyph-name="multiply" unicode="&#xd7;" horiz-adv-x="581" 
d="M139 173l151 151l151 -151l27 27l-151 151l151 151l-25 25l-151 -151l-151 151l-27 -27l151 -151l-151 -151z" />
    <glyph glyph-name="Oslash" unicode="&#xd8;" horiz-adv-x="745" 
d="M41 0h56l61 70q43 -39 98 -60.5t116 -21.5q28 0 55 4.5t52 13.5t48 21.5t43.5 28.5t38.5 35.5t32.5 42t26.5 47.5t20 52.5t12 56.5t4 60q0 74 -23.5 137.5t-63.5 111.5l87 101h-56l-61 -70q-43 39 -98 60.5t-116 21.5q-28 0 -55 -4.5t-52 -13.5t-48 -21.5t-43.5 -28.5
t-38.5 -35.5t-32.5 -42t-26.5 -47.5t-20 -52.5t-12 -56.5t-4 -60q0 -74 23.5 -137.5t63.5 -111.5zM103 350q0 31 4 59.5t12 55t19 49.5t25.5 43.5t32 37t37.5 30t42.5 22.5t47 13.5t50.5 4.5q51 0 97.5 -20t81.5 -56l-387 -446q-29 40 -45.5 93t-16.5 114zM642 350
q0 -31 -4 -59.5t-12 -55t-19 -49.5t-25.5 -43.5t-32 -37t-37.5 -30t-42.5 -22.5t-47 -13.5t-50.5 -4.5q-52 0 -98 20t-81 55l387 447q29 -40 45.5 -93t16.5 -114z" />
    <glyph glyph-name="Ugrave" unicode="&#xd9;" horiz-adv-x="669" 
d="M336 -10q27 0 52 4.5t47.5 13t42.5 21.5t37 30t30 37.5t22 44.5t14 52t5 59v295v19t0.5 21t1.5 22l2 22t2 21t2.5 19t3.5 16.5t4 12.5h-83q2 -5 4 -12.5t3.5 -16.5t2.5 -19t2 -21l2 -22t1.5 -22t0.5 -21v-19v-289q0 -107 -55.5 -163t-139.5 -56q-24 0 -45.5 4.5
t-41.5 13.5t-37 22t-30.5 31t-23 40.5t-14.5 49.5t-5 58v289v19t0.5 21l1 22t1.5 22t2.5 21t2.5 19t3 16.5t4 12.5h-89q2 -5 3.5 -12.5t3 -16.5t2.5 -19t2 -21t1.5 -22l1 -22t0.5 -21v-19v-296q0 -31 5 -59t14 -52t22.5 -44.5t30.5 -37.5t37 -29.5t43 -21t48.5 -13
t52.5 -4.5zM336 763h38l-85 134h-77z" />
    <glyph glyph-name="Uacute" unicode="&#xda;" horiz-adv-x="669" 
d="M336 -10q27 0 52 4.5t47.5 13t42.5 21.5t37 30t30 37.5t22 44.5t14 52t5 59v295v19t0.5 21t1.5 22l2 22t2 21t2.5 19t3.5 16.5t4 12.5h-83q2 -5 4 -12.5t3.5 -16.5t2.5 -19t2 -21l2 -22t1.5 -22t0.5 -21v-19v-289q0 -107 -55.5 -163t-139.5 -56q-24 0 -45.5 4.5
t-41.5 13.5t-37 22t-30.5 31t-23 40.5t-14.5 49.5t-5 58v289v19t0.5 21l1 22t1.5 22t2.5 21t2.5 19t3 16.5t4 12.5h-89q2 -5 3.5 -12.5t3 -16.5t2.5 -19t2 -21t1.5 -22l1 -22t0.5 -21v-19v-296q0 -31 5 -59t14 -52t22.5 -44.5t30.5 -37.5t37 -29.5t43 -21t48.5 -13
t52.5 -4.5zM304 763h36l124 134h-75z" />
    <glyph glyph-name="Ucircumflex" unicode="&#xdb;" horiz-adv-x="669" 
d="M336 -10q27 0 52 4.5t47.5 13t42.5 21.5t37 30t30 37.5t22 44.5t14 52t5 59v295v19t0.5 21t1.5 22l2 22t2 21t2.5 19t3.5 16.5t4 12.5h-83q2 -5 4 -12.5t3.5 -16.5t2.5 -19t2 -21l2 -22t1.5 -22t0.5 -21v-19v-289q0 -107 -55.5 -163t-139.5 -56q-24 0 -45.5 4.5
t-41.5 13.5t-37 22t-30.5 31t-23 40.5t-14.5 49.5t-5 58v289v19t0.5 21l1 22t1.5 22t2.5 21t2.5 19t3 16.5t4 12.5h-89q2 -5 3.5 -12.5t3 -16.5t2.5 -19t2 -21t1.5 -22l1 -22t0.5 -21v-19v-296q0 -31 5 -59t14 -52t22.5 -44.5t30.5 -37.5t37 -29.5t43 -21t48.5 -13
t52.5 -4.5zM201 763h33l105 90l105 -90h33l-111 134h-54z" />
    <glyph glyph-name="Udieresis" unicode="&#xdc;" horiz-adv-x="669" 
d="M336 -10q27 0 52 4.5t47.5 13t42.5 21.5t37 30t30 37.5t22 44.5t14 52t5 59v295v19t0.5 21t1.5 22l2 22t2 21t2.5 19t3.5 16.5t4 12.5h-83q2 -5 4 -12.5t3.5 -16.5t2.5 -19t2 -21l2 -22t1.5 -22t0.5 -21v-19v-289q0 -107 -55.5 -163t-139.5 -56q-24 0 -45.5 4.5
t-41.5 13.5t-37 22t-30.5 31t-23 40.5t-14.5 49.5t-5 58v289v19t0.5 21l1 22t1.5 22t2.5 21t2.5 19t3 16.5t4 12.5h-89q2 -5 3.5 -12.5t3 -16.5t2.5 -19t2 -21t1.5 -22l1 -22t0.5 -21v-19v-296q0 -31 5 -59t14 -52t22.5 -44.5t30.5 -37.5t37 -29.5t43 -21t48.5 -13
t52.5 -4.5zM261 787q19 0 32 13.5t13 31.5q0 17 -13 30.5t-32 13.5t-31.5 -13.5t-12.5 -30.5q0 -18 12.5 -31.5t31.5 -13.5zM417 787q19 0 31.5 13.5t12.5 31.5q0 17 -12.5 30.5t-31.5 13.5t-32 -13.5t-13 -30.5q0 -18 13 -31.5t32 -13.5z" />
    <glyph glyph-name="Yacute" unicode="&#xdd;" horiz-adv-x="580" 
d="M245 0h89q-2 5 -3.5 12.5t-3 16.5t-2.5 19t-2 21t-1.5 22l-1 22t-0.5 21.5v20.5v123l171 277q25 40 49.5 80t41.5 65h-83q-2 -23 -17.5 -58t-37.5 -72l-148 -244l-151 244q-23 37 -38 72t-17 58h-92q17 -25 41.5 -65t49.5 -80l171 -277v-123v-20.5t-0.5 -21.5l-1 -22
t-1.5 -22t-2.5 -21t-2.5 -19t-3 -16.5t-4 -12.5zM261 763h36l124 134h-75z" />
    <glyph glyph-name="Thorn" unicode="&#xde;" horiz-adv-x="539" 
d="M80 0h88q-2 5 -3.5 12t-3 15.5t-2.5 18.5t-2 20.5t-1.5 21t-1 21.5t-0.5 21v19h113q109 0 172.5 57.5t63.5 146.5t-63 143.5t-172 54.5h-114v17.5t0.5 20t1 21.5t1.5 21.5t2 20.5t2.5 19t3 16.5t3.5 12.5h-88q2 -5 3.5 -12.5t3 -16.5t2.5 -19t2 -21t1.5 -22l1 -22
t0.5 -21v-19v-394v-19t-0.5 -21l-1 -22t-1.5 -22t-2 -21t-2.5 -19t-3 -16.5t-3.5 -12.5zM263 506q84 0 132 -42.5t48 -112.5q0 -72 -47.5 -114.5t-131.5 -42.5h-110v312h109z" />
    <glyph glyph-name="germandbls" unicode="&#xdf;" horiz-adv-x="583" 
d="M362 -10q83 0 133.5 47t50.5 122q0 60 -36 108.5t-115 93.5l-31 18q59 51 87 96t28 92q0 67 -51 112t-129 45q-84 0 -138 -57t-54 -155v-24h-92l-9 -42h101v-302v-17.5t-0.5 -19.5l-1 -20l-1 -20t-1.5 -19.5t-2.5 -18.5t-3 -16t-3.5 -13h81q-1 6 -2.5 13t-2.5 16t-2 18.5
t-1.5 19.5t-1 20.5t-1 20.5t-0.5 19v17v374q0 72 36 117.5t99 45.5q55 0 91 -33t36 -83q0 -45 -30 -90t-105 -111l73 -44q66 -40 97 -77.5t31 -83.5q0 -57 -36 -91.5t-99 -34.5q-33 0 -66.5 12t-61.5 36l11 -60q27 -15 58 -23t64 -8z" />
    <glyph glyph-name="agrave" unicode="&#xe0;" horiz-adv-x="470" 
d="M174 -9q50 0 93 29t70 70q1 -26 3.5 -52.5t5.5 -41.5l65 9q-2 5 -4.5 12t-4 15t-3 17l-3 18t-2 18.5t-1 18.5t-1 17.5t-0.5 15.5v207q0 75 -42 114.5t-117 39.5q-41 0 -82 -11.5t-79 -30.5l-10 -53q41 24 83 37.5t80 13.5q51 0 81 -28t30 -84v-58l-143 -27
q-72 -13 -114.5 -48t-42.5 -94q0 -56 38 -90t100 -34zM92 117q0 39 27.5 64t90.5 38l126 25v-121q-27 -39 -66.5 -64t-80.5 -25q-44 0 -70.5 22t-26.5 61zM226 551h37l-93 154h-81z" />
    <glyph glyph-name="aacute" unicode="&#xe1;" horiz-adv-x="470" 
d="M174 -9q50 0 93 29t70 70q1 -26 3.5 -52.5t5.5 -41.5l65 9q-2 5 -4.5 12t-4 15t-3 17l-3 18t-2 18.5t-1 18.5t-1 17.5t-0.5 15.5v207q0 75 -42 114.5t-117 39.5q-41 0 -82 -11.5t-79 -30.5l-10 -53q41 24 83 37.5t80 13.5q51 0 81 -28t30 -84v-58l-143 -27
q-72 -13 -114.5 -48t-42.5 -94q0 -56 38 -90t100 -34zM92 117q0 39 27.5 64t90.5 38l126 25v-121q-27 -39 -66.5 -64t-80.5 -25q-44 0 -70.5 22t-26.5 61zM193 551h35l137 154h-79z" />
    <glyph glyph-name="acircumflex" unicode="&#xe2;" horiz-adv-x="470" 
d="M174 -9q50 0 93 29t70 70q1 -26 3.5 -52.5t5.5 -41.5l65 9q-2 5 -4.5 12t-4 15t-3 17l-3 18t-2 18.5t-1 18.5t-1 17.5t-0.5 15.5v207q0 75 -42 114.5t-117 39.5q-41 0 -82 -11.5t-79 -30.5l-10 -53q41 24 83 37.5t80 13.5q51 0 81 -28t30 -84v-58l-143 -27
q-72 -13 -114.5 -48t-42.5 -94q0 -56 38 -90t100 -34zM92 117q0 39 27.5 64t90.5 38l126 25v-121q-27 -39 -66.5 -64t-80.5 -25q-44 0 -70.5 22t-26.5 61zM90 551h33l105 107l105 -107h33l-111 154h-54z" />
    <glyph glyph-name="atilde" unicode="&#xe3;" horiz-adv-x="470" 
d="M174 -9q50 0 93 29t70 70q1 -26 3.5 -52.5t5.5 -41.5l65 9q-2 5 -4.5 12t-4 15t-3 17l-3 18t-2 18.5t-1 18.5t-1 17.5t-0.5 15.5v207q0 75 -42 114.5t-117 39.5q-41 0 -82 -11.5t-79 -30.5l-10 -53q41 24 83 37.5t80 13.5q51 0 81 -28t30 -84v-58l-143 -27
q-72 -13 -114.5 -48t-42.5 -94q0 -56 38 -90t100 -34zM92 117q0 39 27.5 64t90.5 38l126 25v-121q-27 -39 -66.5 -64t-80.5 -25q-44 0 -70.5 22t-26.5 61zM85 565h22q11 37 22 55t30 18q6 0 12 -2t12.5 -5.5t13 -8t13.5 -10t14 -10.5t14 -10.5t14.5 -10t15 -8t15 -5.5
t15.5 -2q28 0 49 30t33 90h-22q-11 -37 -22 -55.5t-30 -18.5q-6 0 -12 2t-12.5 5.5t-13 8t-13.5 10t-14 10.5t-14 10.5t-14.5 10t-15 8t-15 5.5t-15.5 2q-28 0 -49 -29.5t-33 -89.5z" />
    <glyph glyph-name="adieresis" unicode="&#xe4;" horiz-adv-x="470" 
d="M174 -9q50 0 93 29t70 70q1 -26 3.5 -52.5t5.5 -41.5l65 9q-2 5 -4.5 12t-4 15t-3 17l-3 18t-2 18.5t-1 18.5t-1 17.5t-0.5 15.5v207q0 75 -42 114.5t-117 39.5q-41 0 -82 -11.5t-79 -30.5l-10 -53q41 24 83 37.5t80 13.5q51 0 81 -28t30 -84v-58l-143 -27
q-72 -13 -114.5 -48t-42.5 -94q0 -56 38 -90t100 -34zM92 117q0 39 27.5 64t90.5 38l126 25v-121q-27 -39 -66.5 -64t-80.5 -25q-44 0 -70.5 22t-26.5 61zM150 585q19 0 32 13t13 31t-13 31t-32 13t-31.5 -13t-12.5 -31t12.5 -31t31.5 -13zM306 585q19 0 31.5 13t12.5 31
t-12.5 31t-31.5 13t-32 -13t-13 -31t13 -31t32 -13z" />
    <glyph glyph-name="aring" unicode="&#xe5;" horiz-adv-x="470" 
d="M174 -9q50 0 93 29t70 70q1 -26 3.5 -52.5t5.5 -41.5l65 9q-2 5 -4.5 12t-4 15t-3 17l-3 18t-2 18.5t-1 18.5t-1 17.5t-0.5 15.5v207q0 75 -42 114.5t-117 39.5q-41 0 -82 -11.5t-79 -30.5l-10 -53q41 24 83 37.5t80 13.5q51 0 81 -28t30 -84v-58l-143 -27
q-72 -13 -114.5 -48t-42.5 -94q0 -56 38 -90t100 -34zM92 117q0 39 27.5 64t90.5 38l126 25v-121q-27 -39 -66.5 -64t-80.5 -25q-44 0 -70.5 22t-26.5 61zM228 564q42 0 69 27.5t27 65.5q0 39 -27 66.5t-69 27.5t-69 -27.5t-27 -66.5q0 -38 27 -65.5t69 -27.5zM228 597
q-25 0 -42 17.5t-17 42.5t17 43t42 18t42 -18t17 -43t-17 -42.5t-42 -17.5z" />
    <glyph glyph-name="ae" unicode="&#xe6;" horiz-adv-x="788" 
d="M175 -9q58 0 109.5 30.5t85.5 81.5q31 -53 83 -83t117 -30q41 0 82 12t68 32l9 53q-34 -26 -74 -40t-80 -14q-81 0 -131.5 58.5t-50.5 154.5v8h359q0 26 -3.5 50t-10.5 46t-17 41.5t-23 36t-29 29.5t-34.5 22t-40 14t-44.5 5q-54 0 -97.5 -27.5t-70.5 -73.5
q-11 49 -49.5 75t-99.5 26q-41 0 -82 -11.5t-79 -30.5l-10 -54q41 25 83 38.5t80 13.5q51 0 81 -28t30 -84v-55l-143 -25q-73 -13 -115 -49.5t-42 -96.5q0 -57 38 -91t101 -34zM549 455q56 0 96.5 -41t50.5 -119h-299q10 72 51 116t101 44zM92 119q0 40 27 66.5t90 38.5
l127 24v-4q0 -29 4.5 -56t13.5 -50q-31 -49 -76 -76.5t-89 -27.5q-45 0 -71 22.5t-26 62.5z" />
    <glyph glyph-name="ccedilla" unicode="&#xe7;" horiz-adv-x="431" 
d="M242 -206q44 0 70.5 21.5t26.5 57.5q0 30 -24 49.5t-60 19.5h-7t-7 -1l26 49q40 0 77.5 13t62.5 32l9 54q-31 -25 -67.5 -40t-76.5 -15q-81 0 -129 59t-48 150q0 92 49.5 151.5t122.5 59.5q40 0 77 -17t64 -44l-12 80q-25 0 -55 12t-79 12q-21 0 -40.5 -4t-38 -11.5
t-35.5 -18t-31.5 -24.5t-27 -30.5t-22 -35.5t-16.5 -40t-10.5 -44t-3.5 -47q0 -25 3.5 -48t10.5 -44.5t16.5 -41t22.5 -36t28.5 -30t34 -24t39 -17t43.5 -9.5l-42 -82l4 -4q9 3 19.5 4.5t20.5 1.5q25 0 42 -10.5t17 -28.5q0 -20 -16 -31.5t-42 -11.5q-23 0 -45 6.5t-41 17.5
l5 -41q14 -7 38 -13t47 -6z" />
    <glyph glyph-name="egrave" unicode="&#xe8;" horiz-adv-x="489" 
d="M272 -10q40 0 81 12t69 32l8 53q-34 -26 -74 -40t-79 -14q-81 0 -132 58.5t-51 154.5v8h359q0 26 -3.5 50t-10.5 46t-17 41.5t-23 36t-28.5 29.5t-34 22t-40 14t-44.5 5q-20 0 -39.5 -4t-37 -11.5t-33.5 -18t-30 -24.5t-25.5 -30.5t-21 -35.5t-15.5 -39.5t-9.5 -43.5
t-3.5 -47q0 -29 4.5 -55t13.5 -49t21 -43.5t28 -37t34.5 -29.5t40 -22t45 -13.5t48.5 -4.5zM251 455q55 0 95.5 -41t49.5 -119h-298q11 72 52 116t101 44zM248 551h37l-93 154h-81z" />
    <glyph glyph-name="eacute" unicode="&#xe9;" horiz-adv-x="489" 
d="M272 -10q40 0 81 12t69 32l8 53q-34 -26 -74 -40t-79 -14q-81 0 -132 58.5t-51 154.5v8h359q0 26 -3.5 50t-10.5 46t-17 41.5t-23 36t-28.5 29.5t-34 22t-40 14t-44.5 5q-20 0 -39.5 -4t-37 -11.5t-33.5 -18t-30 -24.5t-25.5 -30.5t-21 -35.5t-15.5 -39.5t-9.5 -43.5
t-3.5 -47q0 -29 4.5 -55t13.5 -49t21 -43.5t28 -37t34.5 -29.5t40 -22t45 -13.5t48.5 -4.5zM251 455q55 0 95.5 -41t49.5 -119h-298q11 72 52 116t101 44zM215 551h35l137 154h-79z" />
    <glyph glyph-name="ecircumflex" unicode="&#xea;" horiz-adv-x="489" 
d="M272 -10q40 0 81 12t69 32l8 53q-34 -26 -74 -40t-79 -14q-81 0 -132 58.5t-51 154.5v8h359q0 26 -3.5 50t-10.5 46t-17 41.5t-23 36t-28.5 29.5t-34 22t-40 14t-44.5 5q-20 0 -39.5 -4t-37 -11.5t-33.5 -18t-30 -24.5t-25.5 -30.5t-21 -35.5t-15.5 -39.5t-9.5 -43.5
t-3.5 -47q0 -29 4.5 -55t13.5 -49t21 -43.5t28 -37t34.5 -29.5t40 -22t45 -13.5t48.5 -4.5zM251 455q55 0 95.5 -41t49.5 -119h-298q11 72 52 116t101 44zM112 551h33l105 107l105 -107h33l-111 154h-54z" />
    <glyph glyph-name="edieresis" unicode="&#xeb;" horiz-adv-x="489" 
d="M272 -10q40 0 81 12t69 32l8 53q-34 -26 -74 -40t-79 -14q-81 0 -132 58.5t-51 154.5v8h359q0 26 -3.5 50t-10.5 46t-17 41.5t-23 36t-28.5 29.5t-34 22t-40 14t-44.5 5q-20 0 -39.5 -4t-37 -11.5t-33.5 -18t-30 -24.5t-25.5 -30.5t-21 -35.5t-15.5 -39.5t-9.5 -43.5
t-3.5 -47q0 -29 4.5 -55t13.5 -49t21 -43.5t28 -37t34.5 -29.5t40 -22t45 -13.5t48.5 -4.5zM251 455q55 0 95.5 -41t49.5 -119h-298q11 72 52 116t101 44zM172 585q19 0 32 13t13 31t-13 31t-32 13t-31.5 -13t-12.5 -31t12.5 -31t31.5 -13zM328 585q19 0 31.5 13t12.5 31
t-12.5 31t-31.5 13t-32 -13t-13 -31t13 -31t32 -13z" />
    <glyph glyph-name="igrave" unicode="&#xec;" horiz-adv-x="218" 
d="M67 0h84q-2 6 -3.5 13t-3 16t-2.5 18.5t-2 19.5t-1.5 20l-1 20t-0.5 19.5v17.5v349l-75 -17q3 -5 5 -11.5t3.5 -15t3 -17.5t2.5 -18.5l2 -19t1.5 -19t0.5 -18v-16.5v-197v-17.5t-0.5 -19.5l-1 -20l-1 -20t-1.5 -19.5t-2.5 -18.5t-3 -16t-3.5 -13zM107 551h37l-93 154h-81
z" />
    <glyph glyph-name="iacute" unicode="&#xed;" horiz-adv-x="218" 
d="M67 0h84q-2 6 -3.5 13t-3 16t-2.5 18.5t-2 19.5t-1.5 20l-1 20t-0.5 19.5v17.5v349l-75 -17q3 -5 5 -11.5t3.5 -15t3 -17.5t2.5 -18.5l2 -19t1.5 -19t0.5 -18v-16.5v-197v-17.5t-0.5 -19.5l-1 -20l-1 -20t-1.5 -19.5t-2.5 -18.5t-3 -16t-3.5 -13zM74 551h35l137 154h-79z
" />
    <glyph glyph-name="icircumflex" unicode="&#xee;" horiz-adv-x="218" 
d="M67 0h84q-2 6 -3.5 13t-3 16t-2.5 18.5t-2 19.5t-1.5 20l-1 20t-0.5 19.5v17.5v349l-75 -17q3 -5 5 -11.5t3.5 -15t3 -17.5t2.5 -18.5l2 -19t1.5 -19t0.5 -18v-16.5v-197v-17.5t-0.5 -19.5l-1 -20l-1 -20t-1.5 -19.5t-2.5 -18.5t-3 -16t-3.5 -13zM-29 551h33l105 107
l105 -107h33l-111 154h-54z" />
    <glyph glyph-name="idieresis" unicode="&#xef;" horiz-adv-x="218" 
d="M67 0h84q-2 6 -3.5 13t-3 16t-2.5 18.5t-2 19.5t-1.5 20l-1 20t-0.5 19.5v17.5v349l-75 -17q3 -5 5 -11.5t3.5 -15t3 -17.5t2.5 -18.5l2 -19t1.5 -19t0.5 -18v-16.5v-197v-17.5t-0.5 -19.5l-1 -20l-1 -20t-1.5 -19.5t-2.5 -18.5t-3 -16t-3.5 -13zM31 585q19 0 32 13
t13 31t-13 31t-32 13t-31.5 -13t-12.5 -31t12.5 -31t31.5 -13zM187 585q19 0 31.5 13t12.5 31t-12.5 31t-31.5 13t-32 -13t-13 -31t13 -31t32 -13z" />
    <glyph glyph-name="eth" unicode="&#xf0;" horiz-adv-x="519" 
d="M259 -9q24 0 46.5 5t42.5 14.5t38 23.5t32.5 32.5t26.5 41.5t20 49.5t12.5 57.5t4.5 65q0 23 -3 47t-8.5 48.5t-14 49.5t-20 49.5t-26 48t-32 46t-37.5 42.5l87 35v38l-116 -46q-30 26 -66 47.5t-78 35.5l-31 -15q38 -16 72 -37.5t62 -47.5l-79 -31v-38l107 42
q38 -41 65.5 -90t42.5 -101q-30 43 -70.5 68t-88.5 25q-23 0 -44.5 -5t-40.5 -14t-36 -22.5t-31 -30.5t-25 -37t-18.5 -43t-11.5 -48.5t-4 -52.5t4.5 -52.5t12.5 -48t19.5 -43t26.5 -37t33 -30t38 -22.5t42 -14t46 -5zM95 244q0 93 43 151.5t115 58.5q54 0 96 -29t70 -77
q3 -18 4.5 -35.5t1.5 -35.5q0 -123 -46.5 -183t-120.5 -60q-72 0 -117.5 58.5t-45.5 151.5z" />
    <glyph glyph-name="ntilde" unicode="&#xf1;" horiz-adv-x="524" 
d="M67 0h83q-2 5 -3.5 12t-2.5 16t-2 18.5t-2 20t-1.5 21t-1 20.5t-0.5 19v16v233q34 39 67 57.5t72 18.5q51 0 82.5 -32.5t31.5 -93.5v-183v-16t-0.5 -19t-1 -20.5l-1 -21t-1.5 -20t-2.5 -18.5t-3 -16t-3.5 -12h83q-2 5 -3.5 12t-3 16t-2.5 18.5t-1.5 20l-1 21t-1 20.5
t-0.5 19.5v16.5v192q0 75 -43 118.5t-110 43.5q-46 0 -87.5 -25t-69.5 -63v83l-75 -17q3 -4 5 -11t3.5 -15t3 -17.5t2.5 -19t2 -19.5t1.5 -19.5t0.5 -17.5v-15v-198v-16.5t-0.5 -19.5t-1 -20.5l-1 -21t-1.5 -20t-2.5 -18.5t-3 -16t-3.5 -12zM120 565h22q11 37 22 55t30 18
q6 0 12 -2t12.5 -5.5t13 -8t13.5 -10t14 -10.5t14 -10.5t14.5 -10t15 -8t15 -5.5t15.5 -2q28 0 49 30t33 90h-22q-11 -37 -22 -55.5t-30 -18.5q-6 0 -12 2t-12.5 5.5t-13 8t-13.5 10t-14 10.5t-14 10.5t-14.5 10t-15 8t-15 5.5t-15.5 2q-28 0 -49 -29.5t-33 -89.5z" />
    <glyph glyph-name="ograve" unicode="&#xf2;" horiz-adv-x="519" 
d="M260 -9q24 0 46 5t42 14t38 22.5t33 30.5t26.5 37t19.5 43t12.5 48.5t4.5 52.5t-4.5 52.5t-12.5 48.5t-19.5 43.5t-26.5 37.5t-33 30.5t-38 22.5t-42 14t-46 5t-46.5 -5t-42.5 -14.5t-38 -22.5t-32.5 -30t-26.5 -37.5t-20 -43.5t-12.5 -48.5t-4.5 -53.5q0 -27 4.5 -52.5
t12.5 -48t20 -43t26.5 -37t32.5 -30t38 -22.5t42.5 -14t46.5 -5zM259 33q-72 0 -118 59t-46 152t46 152t118 59t118.5 -59t46.5 -152t-46 -152t-119 -59zM257 551h37l-93 154h-81z" />
    <glyph glyph-name="oacute" unicode="&#xf3;" horiz-adv-x="519" 
d="M260 -9q24 0 46 5t42 14t38 22.5t33 30.5t26.5 37t19.5 43t12.5 48.5t4.5 52.5t-4.5 52.5t-12.5 48.5t-19.5 43.5t-26.5 37.5t-33 30.5t-38 22.5t-42 14t-46 5t-46.5 -5t-42.5 -14.5t-38 -22.5t-32.5 -30t-26.5 -37.5t-20 -43.5t-12.5 -48.5t-4.5 -53.5q0 -27 4.5 -52.5
t12.5 -48t20 -43t26.5 -37t32.5 -30t38 -22.5t42.5 -14t46.5 -5zM259 33q-72 0 -118 59t-46 152t46 152t118 59t118.5 -59t46.5 -152t-46 -152t-119 -59zM224 551h35l137 154h-79z" />
    <glyph glyph-name="ocircumflex" unicode="&#xf4;" horiz-adv-x="519" 
d="M260 -9q24 0 46 5t42 14t38 22.5t33 30.5t26.5 37t19.5 43t12.5 48.5t4.5 52.5t-4.5 52.5t-12.5 48.5t-19.5 43.5t-26.5 37.5t-33 30.5t-38 22.5t-42 14t-46 5t-46.5 -5t-42.5 -14.5t-38 -22.5t-32.5 -30t-26.5 -37.5t-20 -43.5t-12.5 -48.5t-4.5 -53.5q0 -27 4.5 -52.5
t12.5 -48t20 -43t26.5 -37t32.5 -30t38 -22.5t42.5 -14t46.5 -5zM259 33q-72 0 -118 59t-46 152t46 152t118 59t118.5 -59t46.5 -152t-46 -152t-119 -59zM121 551h33l105 107l105 -107h33l-111 154h-54z" />
    <glyph glyph-name="otilde" unicode="&#xf5;" horiz-adv-x="519" 
d="M260 -9q24 0 46 5t42 14t38 22.5t33 30.5t26.5 37t19.5 43t12.5 48.5t4.5 52.5t-4.5 52.5t-12.5 48.5t-19.5 43.5t-26.5 37.5t-33 30.5t-38 22.5t-42 14t-46 5t-46.5 -5t-42.5 -14.5t-38 -22.5t-32.5 -30t-26.5 -37.5t-20 -43.5t-12.5 -48.5t-4.5 -53.5q0 -27 4.5 -52.5
t12.5 -48t20 -43t26.5 -37t32.5 -30t38 -22.5t42.5 -14t46.5 -5zM259 33q-72 0 -118 59t-46 152t46 152t118 59t118.5 -59t46.5 -152t-46 -152t-119 -59zM116 565h22q11 37 22 55t30 18q6 0 12 -2t12.5 -5.5t13 -8t13.5 -10t14 -10.5t14 -10.5t14.5 -10t15 -8t15 -5.5
t15.5 -2q28 0 49 30t33 90h-22q-11 -37 -22 -55.5t-30 -18.5q-6 0 -12 2t-12.5 5.5t-13 8t-13.5 10t-14 10.5t-14 10.5t-14.5 10t-15 8t-15 5.5t-15.5 2q-28 0 -49 -29.5t-33 -89.5z" />
    <glyph glyph-name="odieresis" unicode="&#xf6;" horiz-adv-x="519" 
d="M260 -9q24 0 46 5t42 14t38 22.5t33 30.5t26.5 37t19.5 43t12.5 48.5t4.5 52.5t-4.5 52.5t-12.5 48.5t-19.5 43.5t-26.5 37.5t-33 30.5t-38 22.5t-42 14t-46 5t-46.5 -5t-42.5 -14.5t-38 -22.5t-32.5 -30t-26.5 -37.5t-20 -43.5t-12.5 -48.5t-4.5 -53.5q0 -27 4.5 -52.5
t12.5 -48t20 -43t26.5 -37t32.5 -30t38 -22.5t42.5 -14t46.5 -5zM259 33q-72 0 -118 59t-46 152t46 152t118 59t118.5 -59t46.5 -152t-46 -152t-119 -59zM181 585q19 0 32 13t13 31t-13 31t-32 13t-31.5 -13t-12.5 -31t12.5 -31t31.5 -13zM337 585q19 0 31.5 13t12.5 31
t-12.5 31t-31.5 13t-32 -13t-13 -31t13 -31t32 -13z" />
    <glyph glyph-name="divide" unicode="&#xf7;" horiz-adv-x="581" 
d="M291 473q18 0 31 13t13 31t-13 31t-31 13t-31 -13t-13 -31t13 -31t31 -13zM74 332h433v36h-433v-36zM291 139q18 0 31 13t13 31t-13 31t-31 13t-31 -13t-13 -31t13 -31t31 -13z" />
    <glyph glyph-name="oslash" unicode="&#xf8;" horiz-adv-x="519" 
d="M29 0h52l37 45q28 -25 64.5 -39.5t77.5 -14.5q24 0 46 5t42 14t38 22.5t33 30.5t26.5 37t19.5 43t12.5 48.5t4.5 52.5q0 50 -14.5 93.5t-39.5 76.5l62 74h-51l-38 -45q-28 26 -64 40.5t-77 14.5q-24 0 -46.5 -5t-42.5 -14.5t-38 -22.5t-32.5 -30t-26.5 -37.5t-20 -43.5
t-12.5 -48.5t-4.5 -53.5q0 -49 14.5 -92.5t39.5 -75.5zM95 244q0 93 46 152t118 59q33 0 61 -13t49 -35l-243 -293q-15 26 -23 59t-8 71zM259 33q-32 0 -60 13t-49 35l243 292q15 -25 23 -58t8 -71q0 -93 -46 -152t-119 -59z" />
    <glyph glyph-name="ugrave" unicode="&#xf9;" horiz-adv-x="524" 
d="M228 -10q48 0 90 25.5t69 62.5v-82l75 10q-3 5 -5 12t-4 15.5t-3.5 18t-2.5 20t-1.5 21t-1.5 20.5t-1 19v16v345l-75 -17q3 -5 5 -11.5t4 -14.5t3.5 -17t2.5 -18.5t1.5 -19.5t1.5 -19t1 -17.5v-16.5v-230q-31 -36 -65.5 -56t-74.5 -20q-49 0 -81 32.5t-32 92.5v332
l-75 -17q2 -5 4.5 -11.5t4 -14.5t3 -17t2.5 -18.5t2 -19.5t1.5 -19t0.5 -17.5v-16.5v-190q0 -75 42.5 -118.5t108.5 -43.5zM259 551h37l-93 154h-81z" />
    <glyph glyph-name="uacute" unicode="&#xfa;" horiz-adv-x="524" 
d="M228 -10q48 0 90 25.5t69 62.5v-82l75 10q-3 5 -5 12t-4 15.5t-3.5 18t-2.5 20t-1.5 21t-1.5 20.5t-1 19v16v345l-75 -17q3 -5 5 -11.5t4 -14.5t3.5 -17t2.5 -18.5t1.5 -19.5t1.5 -19t1 -17.5v-16.5v-230q-31 -36 -65.5 -56t-74.5 -20q-49 0 -81 32.5t-32 92.5v332
l-75 -17q2 -5 4.5 -11.5t4 -14.5t3 -17t2.5 -18.5t2 -19.5t1.5 -19t0.5 -17.5v-16.5v-190q0 -75 42.5 -118.5t108.5 -43.5zM226 551h35l137 154h-79z" />
    <glyph glyph-name="ucircumflex" unicode="&#xfb;" horiz-adv-x="524" 
d="M228 -10q48 0 90 25.5t69 62.5v-82l75 10q-3 5 -5 12t-4 15.5t-3.5 18t-2.5 20t-1.5 21t-1.5 20.5t-1 19v16v345l-75 -17q3 -5 5 -11.5t4 -14.5t3.5 -17t2.5 -18.5t1.5 -19.5t1.5 -19t1 -17.5v-16.5v-230q-31 -36 -65.5 -56t-74.5 -20q-49 0 -81 32.5t-32 92.5v332
l-75 -17q2 -5 4.5 -11.5t4 -14.5t3 -17t2.5 -18.5t2 -19.5t1.5 -19t0.5 -17.5v-16.5v-190q0 -75 42.5 -118.5t108.5 -43.5zM123 551h33l105 107l105 -107h33l-111 154h-54z" />
    <glyph glyph-name="udieresis" unicode="&#xfc;" horiz-adv-x="524" 
d="M228 -10q48 0 90 25.5t69 62.5v-82l75 10q-3 5 -5 12t-4 15.5t-3.5 18t-2.5 20t-1.5 21t-1.5 20.5t-1 19v16v345l-75 -17q3 -5 5 -11.5t4 -14.5t3.5 -17t2.5 -18.5t1.5 -19.5t1.5 -19t1 -17.5v-16.5v-230q-31 -36 -65.5 -56t-74.5 -20q-49 0 -81 32.5t-32 92.5v332
l-75 -17q2 -5 4.5 -11.5t4 -14.5t3 -17t2.5 -18.5t2 -19.5t1.5 -19t0.5 -17.5v-16.5v-190q0 -75 42.5 -118.5t108.5 -43.5zM183 585q19 0 32 13t13 31t-13 31t-32 13t-31.5 -13t-12.5 -31t12.5 -31t31.5 -13zM339 585q19 0 31.5 13t12.5 31t-12.5 31t-31.5 13t-32 -13
t-13 -31t13 -31t32 -13z" />
    <glyph glyph-name="yacute" unicode="&#xfd;" horiz-adv-x="445" 
d="M74 -205q45 0 76.5 26t53.5 81l180 445q16 40 31.5 76.5t28.5 64.5h-71q-1 -25 -10 -57.5t-24 -70.5l-110 -278l-113 278q-16 38 -24.5 70.5t-9.5 57.5h-81q13 -28 29 -64t32 -77l137 -332l-39 -96q-17 -41 -38 -58t-52 -17q-16 0 -31 4.5t-29 11.5l6 -52
q11 -6 26.5 -9.5t31.5 -3.5zM195 551h35l137 154h-79z" />
    <glyph glyph-name="thorn" unicode="&#xfe;" horiz-adv-x="525" 
d="M62 -200h84q-2 6 -3.5 13t-3 16t-2.5 18.5t-2 19.5t-1.5 20l-1 20t-0.5 19.5v17.5v112q28 -31 64.5 -48t78.5 -17q22 0 42.5 4.5t39.5 14t36 22.5t31.5 30t26 37.5t19.5 44t12.5 49.5t4.5 55q0 28 -4 53.5t-11.5 48t-18 42.5t-24 36t-29.5 29t-34 22t-37.5 13.5
t-40.5 4.5q-44 0 -85.5 -22.5t-70.5 -64.5v312l-75 -17q3 -5 5 -11.5t4 -14.5t3 -17t2 -18.5t2 -19.5t1.5 -19t1 -17.5t0.5 -16.5v-627v-17.5t-0.5 -19.5l-1 -20t-1.5 -20t-2 -19.5t-2.5 -18.5t-3 -16t-3.5 -13zM275 453q67 0 111 -57.5t44 -149.5q0 -93 -45.5 -152
t-117.5 -59q-37 0 -72 16.5t-63 48.5v274q30 37 66.5 58t76.5 21z" />
    <glyph glyph-name="ydieresis" unicode="&#xff;" horiz-adv-x="445" 
d="M74 -205q45 0 76.5 26t53.5 81l180 445q16 40 31.5 76.5t28.5 64.5h-71q-1 -25 -10 -57.5t-24 -70.5l-110 -278l-113 278q-16 38 -24.5 70.5t-9.5 57.5h-81q13 -28 29 -64t32 -77l137 -332l-39 -96q-17 -41 -38 -58t-52 -17q-16 0 -31 4.5t-29 11.5l6 -52
q11 -6 26.5 -9.5t31.5 -3.5zM152 585q19 0 32 13t13 31t-13 31t-32 13t-31.5 -13t-12.5 -31t12.5 -31t31.5 -13zM308 585q19 0 31.5 13t12.5 31t-12.5 31t-31.5 13t-32 -13t-13 -31t13 -31t32 -13z" />
    <glyph glyph-name="Amacron" unicode="&#x100;" horiz-adv-x="603" 
d="M131 170l19 47h294l19 -47q4 -10 8.5 -21.5t8.5 -23t8 -23.5t7.5 -24t6.5 -23t5 -21t3.5 -18.5t1.5 -15.5h89q-4 7 -8 16t-9 19.5t-10.5 22.5t-11 24.5t-11 25.5t-11 25.5t-10.5 24.5t-9 22l-219 533l-220 -533q-4 -10 -9 -22t-10.5 -24.5l-11 -25t-11 -25.5t-10.5 -25
t-10 -22.5t-9.5 -19.5t-7.5 -16h81q0 7 1 15.5t3 18.5t5 21t6.5 23l7 24t7.5 23.5t8.5 23t8.5 21.5zM167 261l130 326l130 -326h-260zM176 803h246v39h-246v-39z" />
    <glyph glyph-name="amacron" unicode="&#x101;" horiz-adv-x="470" 
d="M174 -9q50 0 93 29t70 70q1 -26 3.5 -52.5t5.5 -41.5l65 9q-2 5 -4.5 12t-4 15t-3 17l-3 18t-2 18.5t-1 18.5t-1 17.5t-0.5 15.5v207q0 75 -42 114.5t-117 39.5q-41 0 -82 -11.5t-79 -30.5l-10 -53q41 24 83 37.5t80 13.5q51 0 81 -28t30 -84v-58l-143 -27
q-72 -13 -114.5 -48t-42.5 -94q0 -56 38 -90t100 -34zM92 117q0 39 27.5 64t90.5 38l126 25v-121q-27 -39 -66.5 -64t-80.5 -25q-44 0 -70.5 22t-26.5 61zM105 600h246v40h-246v-40z" />
    <glyph glyph-name="Abreve" unicode="&#x102;" horiz-adv-x="603" 
d="M131 170l19 47h294l19 -47q4 -10 8.5 -21.5t8.5 -23t8 -23.5t7.5 -24t6.5 -23t5 -21t3.5 -18.5t1.5 -15.5h89q-4 7 -8 16t-9 19.5t-10.5 22.5t-11 24.5t-11 25.5t-11 25.5t-10.5 24.5t-9 22l-219 533l-220 -533q-4 -10 -9 -22t-10.5 -24.5l-11 -25t-11 -25.5t-10.5 -25
t-10 -22.5t-9.5 -19.5t-7.5 -16h81q0 7 1 15.5t3 18.5t5 21t6.5 23l7 24t7.5 23.5t8.5 23t8.5 21.5zM167 261l130 326l130 -326h-260zM299 763q56 0 92.5 34.5t40.5 94.5h-11q-13 -37 -44.5 -59t-77.5 -22t-77.5 22t-44.5 59h-11q4 -60 40.5 -94.5t92.5 -34.5z" />
    <glyph glyph-name="abreve" unicode="&#x103;" horiz-adv-x="470" 
d="M174 -9q50 0 93 29t70 70q1 -26 3.5 -52.5t5.5 -41.5l65 9q-2 5 -4.5 12t-4 15t-3 17l-3 18t-2 18.5t-1 18.5t-1 17.5t-0.5 15.5v207q0 75 -42 114.5t-117 39.5q-41 0 -82 -11.5t-79 -30.5l-10 -53q41 24 83 37.5t80 13.5q51 0 81 -28t30 -84v-58l-143 -27
q-72 -13 -114.5 -48t-42.5 -94q0 -56 38 -90t100 -34zM92 117q0 39 27.5 64t90.5 38l126 25v-121q-27 -39 -66.5 -64t-80.5 -25q-44 0 -70.5 22t-26.5 61zM228 551q56 0 92 39t41 105h-12q-15 -43 -45 -69.5t-76 -26.5t-76 26.5t-45 69.5h-12q5 -66 41 -105t92 -39z" />
    <glyph glyph-name="Aogonek" unicode="&#x104;" horiz-adv-x="603" 
d="M555 -205q11 0 24.5 2.5t23.5 6.5l9 42q-10 -4 -22 -7t-23 -3q-22 0 -36.5 12t-14.5 31q0 26 21 56.5t64 64.5q-4 7 -8 16t-9 19.5t-10.5 22.5t-11 24.5t-11 25.5t-11 25.5t-10.5 24.5t-9 22l-219 533l-220 -533q-4 -10 -9 -22t-10.5 -24.5l-11 -25t-11 -25.5t-10.5 -25
t-10 -22.5t-9.5 -19.5t-7.5 -16h81q0 7 1 15.5t3 18.5t5 21t6.5 23l7 24t7.5 23.5t8.5 23t8.5 21.5l19 47h294l19 -47q4 -10 8.5 -21.5t8.5 -23t8 -23.5t7.5 -24t6.5 -23t5 -21t3.5 -18.5t1.5 -15.5h60q-52 -37 -75.5 -69.5t-23.5 -64.5t23 -51.5t59 -19.5zM167 261l130 326
l130 -326h-260z" />
    <glyph glyph-name="aogonek" unicode="&#x105;" horiz-adv-x="470" 
d="M174 -9q50 0 93 29t70 70q1 -26 3.5 -52.5t5.5 -41.5l29 4q-49 -35 -70.5 -66.5t-21.5 -62.5q0 -32 23 -51.5t59 -19.5q11 0 24.5 2.5t23.5 6.5l9 42q-10 -4 -22 -7t-23 -3q-22 0 -36.5 12t-14.5 31q0 26 21 56.5t64 64.5q-2 5 -4.5 12t-4 15t-3 17l-3 18t-2 18.5
t-1 18.5t-1 17.5t-0.5 15.5v207q0 75 -42 114.5t-117 39.5q-41 0 -82 -11.5t-79 -30.5l-10 -53q41 24 83 37.5t80 13.5q51 0 81 -28t30 -84v-58l-143 -27q-72 -13 -114.5 -48t-42.5 -94q0 -56 38 -90t100 -34zM92 117q0 39 27.5 64t90.5 38l126 25v-121q-27 -39 -66.5 -64
t-80.5 -25q-44 0 -70.5 22t-26.5 61z" />
    <glyph glyph-name="Cacute" unicode="&#x106;" horiz-adv-x="618" 
d="M41 348q0 -34 5 -66.5t15 -62t24 -56t32 -49.5t39.5 -42.5t46.5 -34.5t52.5 -25.5t57.5 -16t62 -5.5q58 0 113 15.5t92 43.5l8 59q-43 -31 -96 -51t-112 -20q-27 0 -52 5t-48 14t-43.5 22t-38.5 30t-33 37t-26.5 43.5t-20 49t-12.5 54t-4 58.5t4 58.5t12.5 54t20 49
t26.5 43.5t32.5 37t37.5 30t42.5 22t46.5 14t50 5q58 0 113.5 -22t96.5 -61l-13 89q-8 0 -16.5 2t-18.5 5t-21 6.5t-23 7.5t-26 7.5t-29 6.5t-32 4.5t-35 1.5q-27 0 -53.5 -4.5t-51 -13t-47 -21.5t-43 -29t-38.5 -35.5t-33 -42t-26.5 -47.5t-19.5 -52t-12.5 -56.5
t-4.5 -60.5zM334 763h36l124 134h-75z" />
    <glyph glyph-name="cacute" unicode="&#x107;" horiz-adv-x="431" 
d="M266 -10q40 0 78 13t63 32l9 54q-31 -25 -67.5 -40t-76.5 -15q-81 0 -129 59t-48 150q0 92 49.5 151.5t122.5 59.5q40 0 77 -17t64 -44l-12 80q-25 0 -55 12t-79 12q-21 0 -40.5 -4t-38 -11.5t-35.5 -18t-31.5 -24.5t-27 -30.5t-22 -35.5t-16.5 -40t-10.5 -44t-3.5 -47
q0 -27 4 -52t12 -47.5t19.5 -43t26.5 -37.5t33 -30t39 -22.5t45 -14.5t50 -5zM217 551h35l137 154h-79z" />
    <glyph glyph-name="Ccircumflex" unicode="&#x108;" horiz-adv-x="618" 
d="M41 348q0 -34 5 -66.5t15 -62t24 -56t32 -49.5t39.5 -42.5t46.5 -34.5t52.5 -25.5t57.5 -16t62 -5.5q58 0 113 15.5t92 43.5l8 59q-43 -31 -96 -51t-112 -20q-27 0 -52 5t-48 14t-43.5 22t-38.5 30t-33 37t-26.5 43.5t-20 49t-12.5 54t-4 58.5t4 58.5t12.5 54t20 49
t26.5 43.5t32.5 37t37.5 30t42.5 22t46.5 14t50 5q58 0 113.5 -22t96.5 -61l-13 89q-8 0 -16.5 2t-18.5 5t-21 6.5t-23 7.5t-26 7.5t-29 6.5t-32 4.5t-35 1.5q-27 0 -53.5 -4.5t-51 -13t-47 -21.5t-43 -29t-38.5 -35.5t-33 -42t-26.5 -47.5t-19.5 -52t-12.5 -56.5
t-4.5 -60.5zM231 763h33l105 90l105 -90h33l-111 134h-54z" />
    <glyph glyph-name="ccircumflex" unicode="&#x109;" horiz-adv-x="431" 
d="M266 -10q40 0 78 13t63 32l9 54q-31 -25 -67.5 -40t-76.5 -15q-81 0 -129 59t-48 150q0 92 49.5 151.5t122.5 59.5q40 0 77 -17t64 -44l-12 80q-25 0 -55 12t-79 12q-21 0 -40.5 -4t-38 -11.5t-35.5 -18t-31.5 -24.5t-27 -30.5t-22 -35.5t-16.5 -40t-10.5 -44t-3.5 -47
q0 -27 4 -52t12 -47.5t19.5 -43t26.5 -37.5t33 -30t39 -22.5t45 -14.5t50 -5zM114 551h33l105 107l105 -107h33l-111 154h-54z" />
    <glyph glyph-name="Cdotaccent" unicode="&#x10a;" horiz-adv-x="618" 
d="M41 348q0 -34 5 -66.5t15 -62t24 -56t32 -49.5t39.5 -42.5t46.5 -34.5t52.5 -25.5t57.5 -16t62 -5.5q58 0 113 15.5t92 43.5l8 59q-43 -31 -96 -51t-112 -20q-27 0 -52 5t-48 14t-43.5 22t-38.5 30t-33 37t-26.5 43.5t-20 49t-12.5 54t-4 58.5t4 58.5t12.5 54t20 49
t26.5 43.5t32.5 37t37.5 30t42.5 22t46.5 14t50 5q58 0 113.5 -22t96.5 -61l-13 89q-8 0 -16.5 2t-18.5 5t-21 6.5t-23 7.5t-26 7.5t-29 6.5t-32 4.5t-35 1.5q-27 0 -53.5 -4.5t-51 -13t-47 -21.5t-43 -29t-38.5 -35.5t-33 -42t-26.5 -47.5t-19.5 -52t-12.5 -56.5
t-4.5 -60.5zM369 787q19 0 32 13.5t13 31.5t-13 31t-32 13t-32 -13t-13 -31t13 -31.5t32 -13.5z" />
    <glyph glyph-name="cdotaccent" unicode="&#x10b;" horiz-adv-x="431" 
d="M266 -10q40 0 78 13t63 32l9 54q-31 -25 -67.5 -40t-76.5 -15q-81 0 -129 59t-48 150q0 92 49.5 151.5t122.5 59.5q40 0 77 -17t64 -44l-12 80q-25 0 -55 12t-79 12q-21 0 -40.5 -4t-38 -11.5t-35.5 -18t-31.5 -24.5t-27 -30.5t-22 -35.5t-16.5 -40t-10.5 -44t-3.5 -47
q0 -27 4 -52t12 -47.5t19.5 -43t26.5 -37.5t33 -30t39 -22.5t45 -14.5t50 -5zM252 584q19 0 32 13.5t13 31.5t-13 31.5t-32 13.5t-32 -13.5t-13 -31.5t13 -31.5t32 -13.5z" />
    <glyph glyph-name="Ccaron" unicode="&#x10c;" horiz-adv-x="618" 
d="M41 348q0 -34 5 -66.5t15 -62t24 -56t32 -49.5t39.5 -42.5t46.5 -34.5t52.5 -25.5t57.5 -16t62 -5.5q58 0 113 15.5t92 43.5l8 59q-43 -31 -96 -51t-112 -20q-27 0 -52 5t-48 14t-43.5 22t-38.5 30t-33 37t-26.5 43.5t-20 49t-12.5 54t-4 58.5t4 58.5t12.5 54t20 49
t26.5 43.5t32.5 37t37.5 30t42.5 22t46.5 14t50 5q58 0 113.5 -22t96.5 -61l-13 89q-8 0 -16.5 2t-18.5 5t-21 6.5t-23 7.5t-26 7.5t-29 6.5t-32 4.5t-35 1.5q-27 0 -53.5 -4.5t-51 -13t-47 -21.5t-43 -29t-38.5 -35.5t-33 -42t-26.5 -47.5t-19.5 -52t-12.5 -56.5
t-4.5 -60.5zM342 763h54l111 134h-33l-105 -90l-105 90h-33z" />
    <glyph glyph-name="ccaron" unicode="&#x10d;" horiz-adv-x="431" 
d="M266 -10q40 0 78 13t63 32l9 54q-31 -25 -67.5 -40t-76.5 -15q-81 0 -129 59t-48 150q0 92 49.5 151.5t122.5 59.5q40 0 77 -17t64 -44l-12 80q-25 0 -55 12t-79 12q-21 0 -40.5 -4t-38 -11.5t-35.5 -18t-31.5 -24.5t-27 -30.5t-22 -35.5t-16.5 -40t-10.5 -44t-3.5 -47
q0 -27 4 -52t12 -47.5t19.5 -43t26.5 -37.5t33 -30t39 -22.5t45 -14.5t50 -5zM225 551h54l111 154h-33l-105 -107l-105 107h-33z" />
    <glyph glyph-name="Dcaron" unicode="&#x10e;" horiz-adv-x="677" 
d="M75 0h210q30 0 59 4.5t55.5 13t51 20.5t46 28t40.5 35t34.5 40.5t27.5 46t20.5 51t13 55t4.5 58.5q0 33 -5.5 64t-15.5 59.5t-24.5 54.5t-33.5 48.5t-42 41.5t-49 34t-55 25t-61 15.5t-66 5.5h-210q2 -5 4.5 -12.5t4 -16.5t3 -19.5t3 -21.5t2 -22.5t1 -22.5t1 -21.5
t0.5 -20.5v-386q0 -10 -0.5 -20.5t-1 -21.5t-1 -22.5t-2 -22.5t-3 -21.5t-3 -19.5t-4 -16.5t-4.5 -12.5zM281 655q29 0 55.5 -4.5t51 -13.5t46 -22t40.5 -29.5t34.5 -36.5t27.5 -42.5t20.5 -48t13 -53t4.5 -56.5t-4.5 -56.5t-12.5 -52.5t-20 -48t-27.5 -42.5t-34.5 -36
t-40.5 -29t-46 -21.5t-51.5 -13.5t-56 -4.5h-127v610h127zM309 763h54l111 134h-33l-105 -90l-105 90h-33z" />
    <glyph glyph-name="dcaron" unicode="&#x10f;" horiz-adv-x="579" 
d="M237 -9q43 0 84.5 23t70.5 65v-83l75 10q-3 5 -5 12t-3.5 15.5t-3 18t-2.5 20l-2 21t-1.5 20.5t-0.5 19v16v574l-75 -17q3 -5 5 -11.5t3.5 -14.5t3 -17t2.5 -18.5t2 -19.5t1.5 -19t0.5 -17.5v-16.5v-138q-27 31 -64 47.5t-78 16.5q-22 0 -42.5 -4.5t-39.5 -14t-36 -22.5
t-32 -30t-26.5 -37.5t-19.5 -44t-12.5 -49.5t-4.5 -55q0 -28 4 -53.5t11.5 -48t18 -42.5t24.5 -36t29.5 -29t34 -22t38 -13.5t40.5 -4.5zM95 242q0 93 45 152t118 59q37 0 71.5 -16.5t62.5 -48.5v-273q-31 -38 -67 -59t-76 -21q-67 0 -110.5 57.5t-43.5 149.5zM512 525h25
l50 191h-65z" />
    <glyph glyph-name="Dcroat" unicode="&#x110;" horiz-adv-x="679" 
d="M77 0h210q30 0 59 4.5t55.5 13t51 20.5t46 28t40.5 35t34.5 40.5t27.5 46t20.5 51t13 55t4.5 58.5q0 33 -5.5 64t-15.5 59.5t-24.5 54.5t-33.5 48.5t-42 41.5t-49 34t-55 25t-61 15.5t-66 5.5h-210q2 -5 4.5 -12.5t4 -16.5t3 -19.5t3 -21.5t2 -22.5t1 -22.5t1 -21.5
t0.5 -20.5v-168h-80l-11 -42h91v-176q0 -10 -0.5 -20.5t-1 -21.5t-1 -22.5t-2 -22.5t-3 -21.5t-3 -19.5t-4 -16.5t-4.5 -12.5zM311 333l10 42h-165v280h127q29 0 55.5 -4.5t51 -13.5t46 -22t40.5 -29.5t34.5 -36.5t27.5 -42.5t20.5 -48t13 -53t4.5 -56.5t-4.5 -56.5
t-12.5 -52.5t-20 -48t-27.5 -42.5t-34.5 -36t-40.5 -29t-46 -21.5t-51.5 -13.5t-56 -4.5h-127v288h155z" />
    <glyph glyph-name="dcroat" unicode="&#x111;" horiz-adv-x="529" 
d="M237 -9q43 0 84.5 23t70.5 65v-83l75 10q-3 5 -5 12t-3.5 15.5t-3 18t-2.5 20l-2 21t-1.5 20.5t-0.5 19v16v423h70l9 38h-79v113l-75 -17q7 -14 11.5 -41.5t5.5 -54.5h-126l-10 -38h137v-138q-27 31 -64 47.5t-78 16.5q-22 0 -42.5 -4.5t-39.5 -14t-36 -22.5t-32 -30
t-26.5 -37.5t-19.5 -44t-12.5 -49.5t-4.5 -55q0 -28 4 -53.5t11.5 -48t18 -42.5t24.5 -36t29.5 -29t34 -22t38 -13.5t40.5 -4.5zM95 242q0 93 45 152t118 59q37 0 71.5 -16.5t62.5 -48.5v-273q-31 -38 -67 -59t-76 -21q-67 0 -110.5 57.5t-43.5 149.5z" />
    <glyph glyph-name="Emacron" unicode="&#x112;" horiz-adv-x="510" 
d="M75 0h407l12 66q-7 -2 -16 -4t-20 -3.5t-23 -3t-25.5 -3t-27 -2.5l-27 -2t-26.5 -2t-25.5 -1.5t-23 -0.5h-19.5h-107v303h52q47 0 90 -2.5t73 -9.5l-15 67q-27 -5 -67 -9t-78 -4h-55v266h94h23t25.5 -0.5t27.5 -1.5l28 -2l28 -2t27 -2.5t24.5 -3.5t21.5 -4t18 -4l-12 65
h-384q2 -5 4.5 -12.5t4 -16.5t3 -19.5t3 -21.5t2 -22.5t1 -22.5t1 -21.5t0.5 -20.5v-386q0 -10 -0.5 -20.5t-1 -21.5t-1 -22.5t-2 -22.5t-3 -21.5t-3 -19.5t-4 -16.5t-4.5 -12.5zM165 803h246v39h-246v-39z" />
    <glyph glyph-name="emacron" unicode="&#x113;" horiz-adv-x="489" 
d="M272 -10q40 0 81 12t69 32l8 53q-34 -26 -74 -40t-79 -14q-81 0 -132 58.5t-51 154.5v8h359q0 26 -3.5 50t-10.5 46t-17 41.5t-23 36t-28.5 29.5t-34 22t-40 14t-44.5 5q-20 0 -39.5 -4t-37 -11.5t-33.5 -18t-30 -24.5t-25.5 -30.5t-21 -35.5t-15.5 -39.5t-9.5 -43.5
t-3.5 -47q0 -29 4.5 -55t13.5 -49t21 -43.5t28 -37t34.5 -29.5t40 -22t45 -13.5t48.5 -4.5zM251 455q55 0 95.5 -41t49.5 -119h-298q11 72 52 116t101 44zM127 600h246v40h-246v-40z" />
    <glyph glyph-name="Ebreve" unicode="&#x114;" horiz-adv-x="510" 
d="M75 0h407l12 66q-7 -2 -16 -4t-20 -3.5t-23 -3t-25.5 -3t-27 -2.5l-27 -2t-26.5 -2t-25.5 -1.5t-23 -0.5h-19.5h-107v303h52q47 0 90 -2.5t73 -9.5l-15 67q-27 -5 -67 -9t-78 -4h-55v266h94h23t25.5 -0.5t27.5 -1.5l28 -2l28 -2t27 -2.5t24.5 -3.5t21.5 -4t18 -4l-12 65
h-384q2 -5 4.5 -12.5t4 -16.5t3 -19.5t3 -21.5t2 -22.5t1 -22.5t1 -21.5t0.5 -20.5v-386q0 -10 -0.5 -20.5t-1 -21.5t-1 -22.5t-2 -22.5t-3 -21.5t-3 -19.5t-4 -16.5t-4.5 -12.5zM288 763q56 0 92.5 34.5t40.5 94.5h-11q-13 -37 -44.5 -59t-77.5 -22t-77.5 22t-44.5 59h-11
q4 -60 40.5 -94.5t92.5 -34.5z" />
    <glyph glyph-name="ebreve" unicode="&#x115;" horiz-adv-x="489" 
d="M272 -10q40 0 81 12t69 32l8 53q-34 -26 -74 -40t-79 -14q-81 0 -132 58.5t-51 154.5v8h359q0 26 -3.5 50t-10.5 46t-17 41.5t-23 36t-28.5 29.5t-34 22t-40 14t-44.5 5q-20 0 -39.5 -4t-37 -11.5t-33.5 -18t-30 -24.5t-25.5 -30.5t-21 -35.5t-15.5 -39.5t-9.5 -43.5
t-3.5 -47q0 -29 4.5 -55t13.5 -49t21 -43.5t28 -37t34.5 -29.5t40 -22t45 -13.5t48.5 -4.5zM251 455q55 0 95.5 -41t49.5 -119h-298q11 72 52 116t101 44zM250 551q56 0 92 39t41 105h-12q-15 -43 -45 -69.5t-76 -26.5t-76 26.5t-45 69.5h-12q5 -66 41 -105t92 -39z" />
    <glyph glyph-name="Edotaccent" unicode="&#x116;" horiz-adv-x="510" 
d="M75 0h407l12 66q-7 -2 -16 -4t-20 -3.5t-23 -3t-25.5 -3t-27 -2.5l-27 -2t-26.5 -2t-25.5 -1.5t-23 -0.5h-19.5h-107v303h52q47 0 90 -2.5t73 -9.5l-15 67q-27 -5 -67 -9t-78 -4h-55v266h94h23t25.5 -0.5t27.5 -1.5l28 -2l28 -2t27 -2.5t24.5 -3.5t21.5 -4t18 -4l-12 65
h-384q2 -5 4.5 -12.5t4 -16.5t3 -19.5t3 -21.5t2 -22.5t1 -22.5t1 -21.5t0.5 -20.5v-386q0 -10 -0.5 -20.5t-1 -21.5t-1 -22.5t-2 -22.5t-3 -21.5t-3 -19.5t-4 -16.5t-4.5 -12.5zM288 787q19 0 32 13.5t13 31.5t-13 31t-32 13t-32 -13t-13 -31t13 -31.5t32 -13.5z" />
    <glyph glyph-name="edotaccent" unicode="&#x117;" horiz-adv-x="489" 
d="M272 -10q40 0 81 12t69 32l8 53q-34 -26 -74 -40t-79 -14q-81 0 -132 58.5t-51 154.5v8h359q0 26 -3.5 50t-10.5 46t-17 41.5t-23 36t-28.5 29.5t-34 22t-40 14t-44.5 5q-20 0 -39.5 -4t-37 -11.5t-33.5 -18t-30 -24.5t-25.5 -30.5t-21 -35.5t-15.5 -39.5t-9.5 -43.5
t-3.5 -47q0 -29 4.5 -55t13.5 -49t21 -43.5t28 -37t34.5 -29.5t40 -22t45 -13.5t48.5 -4.5zM251 455q55 0 95.5 -41t49.5 -119h-298q11 72 52 116t101 44zM250 584q19 0 32 13.5t13 31.5t-13 31.5t-32 13.5t-32 -13.5t-13 -31.5t13 -31.5t32 -13.5z" />
    <glyph glyph-name="Eogonek" unicode="&#x118;" horiz-adv-x="510" 
d="M75 0h371q-52 -37 -75.5 -69.5t-23.5 -64.5t23 -51.5t59 -19.5q11 0 24.5 2.5t23.5 6.5l9 42q-10 -4 -22 -7t-23 -3q-22 0 -36.5 12t-14.5 31q0 26 21 56.5t64 64.5h7l12 66q-7 -2 -16 -4t-20 -3.5t-23 -3t-25.5 -3t-27 -2.5l-27 -2t-26.5 -2t-25.5 -1.5t-23 -0.5h-19.5
h-107v303h52q47 0 90 -2.5t73 -9.5l-15 67q-27 -5 -67 -9t-78 -4h-55v266h94h23t25.5 -0.5t27.5 -1.5l28 -2l28 -2t27 -2.5t24.5 -3.5t21.5 -4t18 -4l-12 65h-384q2 -5 4.5 -12.5t4 -16.5t3 -19.5t3 -21.5t2 -22.5t1 -22.5t1 -21.5t0.5 -20.5v-386q0 -10 -0.5 -20.5
t-1 -21.5t-1 -22.5t-2 -22.5t-3 -21.5t-3 -19.5t-4 -16.5t-4.5 -12.5z" />
    <glyph glyph-name="eogonek" unicode="&#x119;" horiz-adv-x="489" 
d="M272 -10q14 0 29 1.5t29 4.5q-43 -34 -62.5 -63.5t-19.5 -59.5q0 -32 23 -51.5t59 -19.5q11 0 24.5 2.5t23.5 6.5l9 42q-10 -4 -22.5 -7t-23.5 -3q-22 0 -36 12t-14 31q0 27 20.5 58t63.5 65q13 5 25 11.5t22 13.5l8 53q-34 -26 -74 -40t-79 -14q-81 0 -132 58.5
t-51 154.5v8h359q0 26 -3.5 50t-10.5 46t-17 41.5t-23 36t-28.5 29.5t-34 22t-40 14t-44.5 5q-20 0 -39.5 -4t-37 -11.5t-33.5 -18t-30 -24.5t-25.5 -30.5t-21 -35.5t-15.5 -39.5t-9.5 -43.5t-3.5 -47q0 -29 4.5 -55t13.5 -49t21 -43.5t28 -37t34.5 -29.5t40 -22t45 -13.5
t48.5 -4.5zM251 455q55 0 95.5 -41t49.5 -119h-298q11 72 52 116t101 44z" />
    <glyph glyph-name="Ecaron" unicode="&#x11a;" horiz-adv-x="510" 
d="M75 0h407l12 66q-7 -2 -16 -4t-20 -3.5t-23 -3t-25.5 -3t-27 -2.5l-27 -2t-26.5 -2t-25.5 -1.5t-23 -0.5h-19.5h-107v303h52q47 0 90 -2.5t73 -9.5l-15 67q-27 -5 -67 -9t-78 -4h-55v266h94h23t25.5 -0.5t27.5 -1.5l28 -2l28 -2t27 -2.5t24.5 -3.5t21.5 -4t18 -4l-12 65
h-384q2 -5 4.5 -12.5t4 -16.5t3 -19.5t3 -21.5t2 -22.5t1 -22.5t1 -21.5t0.5 -20.5v-386q0 -10 -0.5 -20.5t-1 -21.5t-1 -22.5t-2 -22.5t-3 -21.5t-3 -19.5t-4 -16.5t-4.5 -12.5zM261 763h54l111 134h-33l-105 -90l-105 90h-33z" />
    <glyph glyph-name="ecaron" unicode="&#x11b;" horiz-adv-x="489" 
d="M272 -10q40 0 81 12t69 32l8 53q-34 -26 -74 -40t-79 -14q-81 0 -132 58.5t-51 154.5v8h359q0 26 -3.5 50t-10.5 46t-17 41.5t-23 36t-28.5 29.5t-34 22t-40 14t-44.5 5q-20 0 -39.5 -4t-37 -11.5t-33.5 -18t-30 -24.5t-25.5 -30.5t-21 -35.5t-15.5 -39.5t-9.5 -43.5
t-3.5 -47q0 -29 4.5 -55t13.5 -49t21 -43.5t28 -37t34.5 -29.5t40 -22t45 -13.5t48.5 -4.5zM251 455q55 0 95.5 -41t49.5 -119h-298q11 72 52 116t101 44zM223 551h54l111 154h-33l-105 -107l-105 107h-33z" />
    <glyph glyph-name="Gcircumflex" unicode="&#x11c;" horiz-adv-x="697" 
d="M392 -10q61 0 127 18t119 49q-3 26 -4.5 57t-1.5 63v39q0 33 3.5 64.5t10.5 50.5h-84q7 -19 10.5 -50t3.5 -65v-137q-40 -20 -86.5 -31.5t-92.5 -11.5q-30 0 -57 5t-52 14t-46.5 22.5t-40.5 30.5t-34.5 37.5t-27.5 43.5t-20.5 48.5t-12.5 53.5t-4 57q0 32 4.5 61t12.5 55
t20 49.5t27 43.5t33 36.5t38.5 29.5t43.5 22t48 13.5t51 4.5q61 0 120 -21t102 -63l-13 90q-8 1 -17.5 3t-20 5t-22 6.5t-24.5 7t-27.5 7t-30.5 6.5t-33.5 4.5t-36.5 1.5q-28 0 -55 -4.5t-52.5 -13t-48.5 -21t-44 -28.5t-39 -35.5t-33 -42t-27 -47.5t-20 -52.5t-12.5 -57.5
t-4.5 -61q0 -34 5 -66t15 -61t24 -55.5t32.5 -50t41 -42.5t48.5 -34.5t55.5 -26t62 -16t67.5 -5.5zM235 763h33l105 90l105 -90h33l-111 134h-54z" />
    <glyph glyph-name="gcircumflex" unicode="&#x11d;" horiz-adv-x="473" 
d="M231 142q80 0 134 51.5t54 125.5q0 32 -11 61t-30 51q23 10 47.5 15.5t49.5 2.5l-7 60q-31 1 -60 -16.5t-45 -45.5q-25 23 -59 36.5t-73 13.5q-79 0 -132.5 -51.5t-53.5 -126.5q0 -52 27.5 -94t72.5 -64q-43 -11 -64 -35t-21 -50q0 -25 18 -45t52 -29q-54 -14 -84 -42.5
t-30 -62.5q0 -46 50.5 -74.5t140.5 -28.5q30 0 57 3.5t50.5 10.5t43 16t35.5 20t28 23.5t20.5 25.5t12.5 27t4 27q0 37 -26 58t-79 26l-167 16q-39 4 -57 16t-18 32q0 17 16 32t48 23q13 -4 27 -6t29 -2zM231 179q-57 0 -93.5 40t-36.5 100q0 61 37 100.5t93 39.5
q57 0 94 -40t37 -100q0 -61 -37 -100.5t-94 -39.5zM69 -94q0 23 24 48t80 41l167 -15q33 -4 47.5 -14.5t14.5 -30.5q0 -11 -4 -21t-11 -19.5t-17.5 -18t-23.5 -15.5t-28.5 -13t-33 -10t-36.5 -6t-40 -2q-67 0 -103 21t-36 55zM94 551h33l105 107l105 -107h33l-111 154h-54z
" />
    <glyph glyph-name="Gbreve" unicode="&#x11e;" horiz-adv-x="697" 
d="M392 -10q61 0 127 18t119 49q-3 26 -4.5 57t-1.5 63v39q0 33 3.5 64.5t10.5 50.5h-84q7 -19 10.5 -50t3.5 -65v-137q-40 -20 -86.5 -31.5t-92.5 -11.5q-30 0 -57 5t-52 14t-46.5 22.5t-40.5 30.5t-34.5 37.5t-27.5 43.5t-20.5 48.5t-12.5 53.5t-4 57q0 32 4.5 61t12.5 55
t20 49.5t27 43.5t33 36.5t38.5 29.5t43.5 22t48 13.5t51 4.5q61 0 120 -21t102 -63l-13 90q-8 1 -17.5 3t-20 5t-22 6.5t-24.5 7t-27.5 7t-30.5 6.5t-33.5 4.5t-36.5 1.5q-28 0 -55 -4.5t-52.5 -13t-48.5 -21t-44 -28.5t-39 -35.5t-33 -42t-27 -47.5t-20 -52.5t-12.5 -57.5
t-4.5 -61q0 -34 5 -66t15 -61t24 -55.5t32.5 -50t41 -42.5t48.5 -34.5t55.5 -26t62 -16t67.5 -5.5zM373 763q56 0 92.5 34.5t40.5 94.5h-11q-13 -37 -44.5 -59t-77.5 -22t-77.5 22t-44.5 59h-11q4 -60 40.5 -94.5t92.5 -34.5z" />
    <glyph glyph-name="gbreve" unicode="&#x11f;" horiz-adv-x="473" 
d="M231 142q80 0 134 51.5t54 125.5q0 32 -11 61t-30 51q23 10 47.5 15.5t49.5 2.5l-7 60q-31 1 -60 -16.5t-45 -45.5q-25 23 -59 36.5t-73 13.5q-79 0 -132.5 -51.5t-53.5 -126.5q0 -52 27.5 -94t72.5 -64q-43 -11 -64 -35t-21 -50q0 -25 18 -45t52 -29q-54 -14 -84 -42.5
t-30 -62.5q0 -46 50.5 -74.5t140.5 -28.5q30 0 57 3.5t50.5 10.5t43 16t35.5 20t28 23.5t20.5 25.5t12.5 27t4 27q0 37 -26 58t-79 26l-167 16q-39 4 -57 16t-18 32q0 17 16 32t48 23q13 -4 27 -6t29 -2zM231 179q-57 0 -93.5 40t-36.5 100q0 61 37 100.5t93 39.5
q57 0 94 -40t37 -100q0 -61 -37 -100.5t-94 -39.5zM69 -94q0 23 24 48t80 41l167 -15q33 -4 47.5 -14.5t14.5 -30.5q0 -11 -4 -21t-11 -19.5t-17.5 -18t-23.5 -15.5t-28.5 -13t-33 -10t-36.5 -6t-40 -2q-67 0 -103 21t-36 55zM232 551q56 0 92 39t41 105h-12
q-15 -43 -45 -69.5t-76 -26.5t-76 26.5t-45 69.5h-12q5 -66 41 -105t92 -39z" />
    <glyph glyph-name="Gdotaccent" unicode="&#x120;" horiz-adv-x="697" 
d="M392 -10q61 0 127 18t119 49q-3 26 -4.5 57t-1.5 63v39q0 33 3.5 64.5t10.5 50.5h-84q7 -19 10.5 -50t3.5 -65v-137q-40 -20 -86.5 -31.5t-92.5 -11.5q-30 0 -57 5t-52 14t-46.5 22.5t-40.5 30.5t-34.5 37.5t-27.5 43.5t-20.5 48.5t-12.5 53.5t-4 57q0 32 4.5 61t12.5 55
t20 49.5t27 43.5t33 36.5t38.5 29.5t43.5 22t48 13.5t51 4.5q61 0 120 -21t102 -63l-13 90q-8 1 -17.5 3t-20 5t-22 6.5t-24.5 7t-27.5 7t-30.5 6.5t-33.5 4.5t-36.5 1.5q-28 0 -55 -4.5t-52.5 -13t-48.5 -21t-44 -28.5t-39 -35.5t-33 -42t-27 -47.5t-20 -52.5t-12.5 -57.5
t-4.5 -61q0 -34 5 -66t15 -61t24 -55.5t32.5 -50t41 -42.5t48.5 -34.5t55.5 -26t62 -16t67.5 -5.5zM373 787q19 0 32 13.5t13 31.5t-13 31t-32 13t-32 -13t-13 -31t13 -31.5t32 -13.5z" />
    <glyph glyph-name="gdotaccent" unicode="&#x121;" horiz-adv-x="473" 
d="M231 142q80 0 134 51.5t54 125.5q0 32 -11 61t-30 51q23 10 47.5 15.5t49.5 2.5l-7 60q-31 1 -60 -16.5t-45 -45.5q-25 23 -59 36.5t-73 13.5q-79 0 -132.5 -51.5t-53.5 -126.5q0 -52 27.5 -94t72.5 -64q-43 -11 -64 -35t-21 -50q0 -25 18 -45t52 -29q-54 -14 -84 -42.5
t-30 -62.5q0 -46 50.5 -74.5t140.5 -28.5q30 0 57 3.5t50.5 10.5t43 16t35.5 20t28 23.5t20.5 25.5t12.5 27t4 27q0 37 -26 58t-79 26l-167 16q-39 4 -57 16t-18 32q0 17 16 32t48 23q13 -4 27 -6t29 -2zM231 179q-57 0 -93.5 40t-36.5 100q0 61 37 100.5t93 39.5
q57 0 94 -40t37 -100q0 -61 -37 -100.5t-94 -39.5zM69 -94q0 23 24 48t80 41l167 -15q33 -4 47.5 -14.5t14.5 -30.5q0 -11 -4 -21t-11 -19.5t-17.5 -18t-23.5 -15.5t-28.5 -13t-33 -10t-36.5 -6t-40 -2q-67 0 -103 21t-36 55zM232 584q19 0 32 13.5t13 31.5t-13 31.5
t-32 13.5t-32 -13.5t-13 -31.5t13 -31.5t32 -13.5z" />
    <glyph glyph-name="uni0122" unicode="&#x122;" horiz-adv-x="697" 
d="M392 -10q61 0 127 18t119 49q-3 26 -4.5 57t-1.5 63v39q0 33 3.5 64.5t10.5 50.5h-84q7 -19 10.5 -50t3.5 -65v-137q-40 -20 -86.5 -31.5t-92.5 -11.5q-30 0 -57 5t-52 14t-46.5 22.5t-40.5 30.5t-34.5 37.5t-27.5 43.5t-20.5 48.5t-12.5 53.5t-4 57q0 32 4.5 61t12.5 55
t20 49.5t27 43.5t33 36.5t38.5 29.5t43.5 22t48 13.5t51 4.5q61 0 120 -21t102 -63l-13 90q-8 1 -17.5 3t-20 5t-22 6.5t-24.5 7t-27.5 7t-30.5 6.5t-33.5 4.5t-36.5 1.5q-28 0 -55 -4.5t-52.5 -13t-48.5 -21t-44 -28.5t-39 -35.5t-33 -42t-27 -47.5t-20 -52.5t-12.5 -57.5
t-4.5 -61q0 -34 5 -66t15 -61t24 -55.5t32.5 -50t41 -42.5t48.5 -34.5t55.5 -26t62 -16t67.5 -5.5zM355 -272q37 23 55.5 55t18.5 69q0 29 -13.5 45t-32.5 16q-16 0 -26.5 -10.5t-10.5 -24.5q0 -7 1.5 -12t4 -9.5t6 -8t7 -6.5t7 -6.5t7 -6.5t6 -7t4 -8.5t1.5 -10.5
q0 -15 -11.5 -33t-30.5 -35z" />
    <glyph glyph-name="uni0123" unicode="&#x123;" horiz-adv-x="473" 
d="M261 769q-37 -23 -55.5 -55t-18.5 -69q0 -29 13.5 -45t32.5 -16q16 0 26.5 10.5t10.5 24.5q0 7 -1.5 12t-4 9.5t-6 8t-7 6.5t-7 6.5t-7 6.5t-6 7t-4 8.5t-1.5 10.5q0 15 11.5 33t30.5 35zM231 142q80 0 134 51.5t54 125.5q0 32 -11 61t-30 51q23 10 47.5 15.5t49.5 2.5
l-7 60q-31 1 -60 -16.5t-45 -45.5q-25 23 -59 36.5t-73 13.5q-79 0 -132.5 -51.5t-53.5 -126.5q0 -52 27.5 -94t72.5 -64q-43 -11 -64 -35t-21 -50q0 -25 18 -45t52 -29q-54 -14 -84 -42.5t-30 -62.5q0 -46 50.5 -74.5t140.5 -28.5q30 0 57 3.5t50.5 10.5t43 16t35.5 20
t28 23.5t20.5 25.5t12.5 27t4 27q0 37 -26 58t-79 26l-167 16q-39 4 -57 16t-18 32q0 17 16 32t48 23q13 -4 27 -6t29 -2zM231 179q-57 0 -93.5 40t-36.5 100q0 61 37 100.5t93 39.5q57 0 94 -40t37 -100q0 -61 -37 -100.5t-94 -39.5zM69 -94q0 23 24 48t80 41l167 -15
q33 -4 47.5 -14.5t14.5 -30.5q0 -11 -4 -21t-11 -19.5t-17.5 -18t-23.5 -15.5t-28.5 -13t-33 -10t-36.5 -6t-40 -2q-67 0 -103 21t-36 55z" />
    <glyph glyph-name="Hcircumflex" unicode="&#x124;" horiz-adv-x="678" 
d="M80 0h88q-2 5 -3.5 12.5t-3 16.5t-2.5 19t-2 21t-1.5 22l-1 22t-0.5 21v19v183h370v-183v-19t-0.5 -21l-1 -22t-1.5 -22t-2 -21t-2.5 -19t-3 -16.5t-3.5 -12.5h88q-2 5 -3.5 12.5t-3 16.5t-2.5 19t-2 21t-1.5 22l-1 22t-0.5 21v19v394v19t0.5 21l1 22t1.5 22t2 21t2.5 19
t3 16.5t3.5 12.5h-88q2 -5 3.5 -12.5t3 -16.5t2.5 -19t2 -21t1.5 -22l1 -22t0.5 -21v-19v-166h-370v166v19t0.5 21l1 22t1.5 22t2 21t2.5 19t3 16.5t3.5 12.5h-88q2 -5 3.5 -12.5t3 -16.5t2.5 -19t2 -21t1.5 -22l1 -22t0.5 -21v-19v-394v-19t-0.5 -21l-1 -22t-1.5 -22
t-2 -21t-2.5 -19t-3 -16.5t-3.5 -12.5zM201 763h33l105 90l105 -90h33l-111 134h-54z" />
    <glyph glyph-name="hcircumflex" unicode="&#x125;" horiz-adv-x="524" 
d="M67 0h83q-2 6 -3.5 13t-2.5 16t-2 18.5t-2 19.5t-1.5 20l-1 20t-0.5 19v17v233q34 39 67 57.5t72 18.5q51 0 82.5 -32.5t31.5 -93.5v-183v-16t-0.5 -19t-1 -20.5t-1.5 -21t-2 -20t-2 -18.5t-2.5 -16t-3.5 -12h83q-2 5 -3.5 12t-3 16t-2.5 18.5t-1.5 20l-1 21t-1 20.5
t-0.5 19.5v16.5v192q0 75 -43 118.5t-110 43.5q-46 0 -87.5 -25t-69.5 -63v312l-75 -17q3 -5 5 -11.5t3.5 -14.5t3 -17t2.5 -18.5t2 -19.5t1.5 -19t0.5 -17.5v-16.5v-427v-17.5t-0.5 -19.5l-1 -20l-1 -20t-1.5 -19.5t-2.5 -18.5t-3 -16t-3.5 -13zM-27 780h33l105 107
l105 -107h33l-111 154h-54z" />
    <glyph glyph-name="Hbar" unicode="&#x126;" horiz-adv-x="679" 
d="M80 0h89q-2 5 -3.5 12.5t-3 16.5t-2.5 19t-2 21t-1.5 22l-1 22t-0.5 21v19v183h370v-183v-19t-0.5 -21l-1 -22t-1.5 -22t-2.5 -21t-2.5 -19t-3 -16.5t-4 -12.5h89q-2 5 -3.5 12.5t-3 16.5t-2.5 19t-2 21t-1.5 22l-1 22t-0.5 21v19v361h80l10 40h-90v19t0.5 20.5l1 21
t1.5 21t2 20t2.5 17.5t3 15t3.5 12h-89q2 -5 3.5 -12t3 -15t2.5 -17.5t2 -20l2 -21t1.5 -21t0.5 -20.5v-19h-370v19t0.5 20.5l1 21t1.5 21t2 20t2.5 17.5t3 15t3.5 12h-89q2 -5 3.5 -12t3 -15t2.5 -17.5t2 -20l2 -21t1.5 -21t0.5 -20.5v-19h-80l-10 -40h90v-361v-19
t-0.5 -21l-1 -22t-1.5 -22t-2.5 -21t-2.5 -19t-3 -16.5t-4 -12.5zM155 381v133h370v-133h-370z" />
    <glyph glyph-name="hbar" unicode="&#x127;" horiz-adv-x="524" 
d="M67 0h83q-2 6 -3.5 13t-2.5 16t-2 18.5t-2 19.5t-1.5 20l-1 20t-0.5 19v17v233q34 39 67 57.5t72 18.5q51 0 82.5 -32.5t31.5 -93.5v-183v-17t-0.5 -19l-1 -20t-1.5 -20t-2 -19.5t-2 -18.5t-2.5 -16t-3.5 -13h83q-2 6 -3.5 13t-3 16t-2.5 18.5t-1.5 19.5l-1 20l-1 20
t-0.5 19.5v17.5v192q0 75 -43 118.5t-110 43.5q-46 0 -87.5 -25t-69.5 -63v161h128l10 38h-138v113l-75 -17q7 -14 11.5 -41.5t5.5 -54.5h-68l-10 -38h79v-427v-17.5t-0.5 -19.5l-1 -20l-1 -20t-1.5 -19.5t-2.5 -18.5t-3 -16t-3.5 -13z" />
    <glyph glyph-name="Itilde" unicode="&#x128;" horiz-adv-x="248" 
d="M80 0h88q-2 5 -3.5 12.5t-3 16.5t-2.5 19t-2 21t-1.5 22l-1 22t-0.5 21v19v394v19t0.5 21l1 22t1.5 22t2 21t2.5 19t3 16.5t3.5 12.5h-88q2 -5 3.5 -12.5t3 -16.5t2.5 -19t2 -21t1.5 -22l1 -22t0.5 -21v-19v-394v-19t-0.5 -21l-1 -22t-1.5 -22t-2 -21t-2.5 -19t-3 -16.5
t-3.5 -12.5zM-18 777h21q10 30 21.5 44.5t30.5 14.5q6 0 13 -2t14 -5.5t14.5 -7.5t15.5 -9l16 -10t16 -9t16.5 -7.5t17 -5.5t16.5 -2q28 0 49 26.5t32 78.5h-21q-10 -29 -21.5 -44t-30.5 -15q-6 0 -13 2t-14 5.5t-14.5 7.5t-15.5 9l-16 10t-16 9t-16.5 7.5t-16.5 5.5t-17 2
q-28 0 -49 -26t-32 -79z" />
    <glyph glyph-name="itilde" unicode="&#x129;" horiz-adv-x="218" 
d="M67 0h84q-2 6 -3.5 13t-3 16t-2.5 18.5t-2 19.5t-1.5 20l-1 20t-0.5 19.5v17.5v349l-75 -17q3 -5 5 -11.5t3.5 -15t3 -17.5t2.5 -18.5l2 -19t1.5 -19t0.5 -18v-16.5v-197v-17.5t-0.5 -19.5l-1 -20l-1 -20t-1.5 -19.5t-2.5 -18.5t-3 -16t-3.5 -13zM-34 565h22q11 37 22 55
t30 18q6 0 12 -2t12.5 -5.5t13 -8t13.5 -10t14 -10.5t14 -10.5t14.5 -10t15 -8t15 -5.5t15.5 -2q28 0 49 30t33 90h-22q-11 -37 -22 -55.5t-30 -18.5q-6 0 -12 2t-12.5 5.5t-13 8t-13.5 10t-14 10.5t-14 10.5t-14.5 10t-15 8t-15 5.5t-15.5 2q-28 0 -49 -29.5t-33 -89.5z
" />
    <glyph glyph-name="Imacron" unicode="&#x12a;" horiz-adv-x="248" 
d="M80 0h88q-2 5 -3.5 12.5t-3 16.5t-2.5 19t-2 21t-1.5 22l-1 22t-0.5 21v19v394v19t0.5 21l1 22t1.5 22t2 21t2.5 19t3 16.5t3.5 12.5h-88q2 -5 3.5 -12.5t3 -16.5t2.5 -19t2 -21t1.5 -22l1 -22t0.5 -21v-19v-394v-19t-0.5 -21l-1 -22t-1.5 -22t-2 -21t-2.5 -19t-3 -16.5
t-3.5 -12.5zM1 803h246v39h-246v-39z" />
    <glyph glyph-name="imacron" unicode="&#x12b;" horiz-adv-x="218" 
d="M67 0h84q-2 6 -3.5 13t-3 16t-2.5 18.5t-2 19.5t-1.5 20l-1 20t-0.5 19.5v17.5v349l-75 -17q3 -5 5 -11.5t3.5 -15t3 -17.5t2.5 -18.5l2 -19t1.5 -19t0.5 -18v-16.5v-197v-17.5t-0.5 -19.5l-1 -20l-1 -20t-1.5 -19.5t-2.5 -18.5t-3 -16t-3.5 -13zM-14 600h246v40h-246
v-40z" />
    <glyph glyph-name="Ibreve" unicode="&#x12c;" horiz-adv-x="248" 
d="M80 0h88q-2 5 -3.5 12.5t-3 16.5t-2.5 19t-2 21t-1.5 22l-1 22t-0.5 21v19v394v19t0.5 21l1 22t1.5 22t2 21t2.5 19t3 16.5t3.5 12.5h-88q2 -5 3.5 -12.5t3 -16.5t2.5 -19t2 -21t1.5 -22l1 -22t0.5 -21v-19v-394v-19t-0.5 -21l-1 -22t-1.5 -22t-2 -21t-2.5 -19t-3 -16.5
t-3.5 -12.5zM124 763q56 0 92.5 34.5t40.5 94.5h-11q-13 -37 -44.5 -59t-77.5 -22t-77.5 22t-44.5 59h-11q4 -60 40.5 -94.5t92.5 -34.5z" />
    <glyph glyph-name="ibreve" unicode="&#x12d;" horiz-adv-x="218" 
d="M67 0h84q-2 6 -3.5 13t-3 16t-2.5 18.5t-2 19.5t-1.5 20l-1 20t-0.5 19.5v17.5v349l-75 -17q3 -5 5 -11.5t3.5 -15t3 -17.5t2.5 -18.5l2 -19t1.5 -19t0.5 -18v-16.5v-197v-17.5t-0.5 -19.5l-1 -20l-1 -20t-1.5 -19.5t-2.5 -18.5t-3 -16t-3.5 -13zM109 551q56 0 92 39
t41 105h-12q-15 -43 -45 -69.5t-76 -26.5t-76 26.5t-45 69.5h-12q5 -66 41 -105t92 -39z" />
    <glyph glyph-name="Iogonek" unicode="&#x12e;" horiz-adv-x="248" 
d="M80 0h59q-52 -37 -75.5 -69.5t-23.5 -64.5t23 -51.5t59 -19.5q11 0 24.5 2.5t23.5 6.5l9 42q-10 -4 -22 -7t-23 -3q-22 0 -36.5 12t-14.5 31q0 26 21 56.5t64 64.5q-2 5 -3.5 12.5t-3 16.5t-2.5 19t-2 21t-1.5 22l-1 22t-0.5 21v19v394v19t0.5 21l1 22t1.5 22t2 21
t2.5 19t3 16.5t3.5 12.5h-88q2 -5 3.5 -12.5t3 -16.5t2.5 -19t2 -21t1.5 -22l1 -22t0.5 -21v-19v-394v-19t-0.5 -21l-1 -22t-1.5 -22t-2 -21t-2.5 -19t-3 -16.5t-3.5 -12.5z" />
    <glyph glyph-name="iogonek" unicode="&#x12f;" horiz-adv-x="218" 
d="M107 584q19 0 32 13.5t13 31.5q0 19 -13 32.5t-32 13.5t-32.5 -13.5t-13.5 -32.5q0 -18 13.5 -31.5t32.5 -13.5zM67 0h52q-52 -37 -75.5 -69.5t-23.5 -64.5t23 -51.5t59 -19.5q11 0 24.5 2.5t23.5 6.5l9 42q-10 -4 -22 -7t-23 -3q-22 0 -36.5 12t-14.5 31q0 26 21 56.5
t64 64.5h3q-2 6 -3.5 13t-3 16t-2.5 18.5t-2 19.5t-1.5 20l-1 20t-0.5 19.5v17.5v349l-75 -17q3 -5 5 -11.5t3.5 -14.5t3 -17t2.5 -18.5t2 -19.5t1.5 -19t0.5 -17.5v-16.5v-198v-17.5t-0.5 -19.5l-1 -20l-1 -20t-1.5 -19.5t-2.5 -18.5t-3 -16t-3.5 -13z" />
    <glyph glyph-name="Idotaccent" unicode="&#x130;" horiz-adv-x="248" 
d="M80 0h88q-2 5 -3.5 12.5t-3 16.5t-2.5 19t-2 21t-1.5 22l-1 22t-0.5 21v19v394v19t0.5 21l1 22t1.5 22t2 21t2.5 19t3 16.5t3.5 12.5h-88q2 -5 3.5 -12.5t3 -16.5t2.5 -19t2 -21t1.5 -22l1 -22t0.5 -21v-19v-394v-19t-0.5 -21l-1 -22t-1.5 -22t-2 -21t-2.5 -19t-3 -16.5
t-3.5 -12.5zM124 787q19 0 32 13.5t13 31.5t-13 31t-32 13t-32 -13t-13 -31t13 -31.5t32 -13.5z" />
    <glyph glyph-name="dotlessi" unicode="&#x131;" horiz-adv-x="218" 
d="M67 0h84q-2 6 -3.5 13t-3 16t-2.5 18.5t-2 19.5t-1.5 20l-1 20t-0.5 19.5v17.5v349l-75 -17q3 -5 5 -11.5t3.5 -15t3 -17.5t2.5 -18.5l2 -19t1.5 -19t0.5 -18v-16.5v-197v-17.5t-0.5 -19.5l-1 -20l-1 -20t-1.5 -19.5t-2.5 -18.5t-3 -16t-3.5 -13z" />
    <glyph glyph-name="IJ" unicode="&#x132;" horiz-adv-x="487" 
d="M80 0h88q-2 5 -3.5 12.5t-3 16.5t-2.5 19t-2 21t-1.5 22l-1 22t-0.5 21v19v394v19t0.5 21l1 22t1.5 22t2 21t2.5 19t3 16.5t3.5 12.5h-88q2 -5 3.5 -12.5t3 -16.5t2.5 -19t2 -21t1.5 -22l1 -22t0.5 -21v-19v-394v-19t-0.5 -21l-1 -22t-1.5 -22t-2 -21t-2.5 -19t-3 -16.5
t-3.5 -12.5zM263 -204q60 0 97.5 36.5t37.5 105.5v609v19t0.5 21l1 22t1.5 22t2 21t2.5 19t3 16.5t3.5 12.5h-89q2 -5 4 -12.5t3 -16.5t2.5 -19t2.5 -21t1.5 -22l1 -22t0.5 -21v-19v-611q0 -47 -22 -71t-58 -24q-19 0 -38 6t-38 18l5 -52q15 -8 35.5 -12.5t40.5 -4.5z" />
    <glyph glyph-name="ij" unicode="&#x133;" horiz-adv-x="428" 
d="M107 584q19 0 32 13.5t13 31.5q0 19 -13 32.5t-32 13.5t-32.5 -13.5t-13.5 -32.5q0 -18 13.5 -31.5t32.5 -13.5zM67 0h84q-2 6 -3.5 13t-3 16t-2.5 18.5t-2 19.5t-1.5 20l-1 20t-0.5 19.5v17.5v349l-75 -17q3 -5 5 -11.5t3.5 -14.5t3 -17t2.5 -18.5t2 -19.5t1.5 -19
t0.5 -17.5v-16.5v-198v-17.5t-0.5 -19.5l-1 -20l-1 -20t-1.5 -19.5t-2.5 -18.5t-3 -16t-3.5 -13zM322 584q19 0 32.5 13.5t13.5 31.5q0 19 -13.5 32.5t-32.5 13.5t-32 -13.5t-13 -32.5q0 -18 13 -31.5t32 -13.5zM251 -206q47 0 74 28t27 82v589l-75 -17q3 -5 5 -11.5
t4 -14.5t3.5 -17t2.5 -18.5t1.5 -19.5t1.5 -19t1 -17.5v-16.5v-440q0 -30 -14.5 -46.5t-39.5 -16.5q-13 0 -28 3.5t-27 8.5l3 -46q13 -5 29 -8t32 -3z" />
    <glyph glyph-name="Jcircumflex" unicode="&#x134;" horiz-adv-x="240" 
d="M15 -204q60 0 97.5 36.5t37.5 105.5v609v19t0.5 21l1 22t1.5 22t2 21t2.5 19t3 16.5t3.5 12.5h-89q2 -5 4 -12.5t3 -16.5t2.5 -19t2.5 -21t1.5 -22l1 -22t0.5 -21v-19v-611q0 -47 -22 -71t-58 -24q-19 0 -38 6t-38 18l5 -52q15 -8 35.5 -12.5t40.5 -4.5zM-18 763h33
l105 90l105 -90h33l-111 134h-54z" />
    <glyph glyph-name="jcircumflex" unicode="&#x135;" horiz-adv-x="211" 
d="M33 -206q47 0 74 28t27 82v589l-75 -17q3 -5 5 -11.5t4 -14.5t3.5 -17t2.5 -18.5t1.5 -19.5t1.5 -19t1 -17.5v-16.5v-440q0 -30 -14.5 -46.5t-39.5 -16.5q-13 0 -28 3.5t-27 8.5l3 -46q13 -5 29 -8t32 -3zM-32 551h33l105 107l105 -107h33l-111 154h-54z" />
    <glyph glyph-name="uni0136" unicode="&#x136;" horiz-adv-x="562" 
d="M80 0h88q-2 5 -3.5 12.5t-3 16.5t-2.5 19t-2 21t-1.5 22l-1 22t-0.5 21v19v394v19t0.5 21l1 22t1.5 22t2 21t2.5 19t3 16.5t3.5 12.5h-88q2 -5 3.5 -12.5t3 -16.5t2.5 -19t2 -21t1.5 -22l1 -22t0.5 -21v-19v-394v-19t-0.5 -21l-1 -22t-1.5 -22t-2 -21t-2.5 -19t-3 -16.5
t-3.5 -12.5zM480 0h98q-25 25 -61.5 64t-72.5 79l-191 217l181 203q36 40 67.5 76t56.5 61h-88q-7 -22 -28 -52t-52 -65l-205 -230l203 -228q33 -36 57.5 -69.5t34.5 -55.5zM290 -272q37 23 55.5 55t18.5 69q0 29 -13.5 45t-32.5 16q-16 0 -26.5 -10.5t-10.5 -24.5
q0 -6 1.5 -11.5t4 -9.5t6 -8t7 -7l7 -6t7 -6.5t6 -7.5t4 -8.5t1.5 -10.5q0 -15 -11.5 -33t-30.5 -35z" />
    <glyph glyph-name="uni0137" unicode="&#x137;" horiz-adv-x="444" 
d="M67 0h83q-2 6 -3.5 13t-2.5 16t-2 18.5t-2 19.5t-1.5 20l-1 20t-0.5 19v17v579l-75 -17q3 -5 5 -11.5t3.5 -14.5t3 -17t2.5 -18.5t2 -19.5t1.5 -19t0.5 -17.5v-16.5v-427v-17.5t-0.5 -19.5l-1 -20l-1 -20t-1.5 -19.5t-2.5 -18.5t-3 -16t-3.5 -13zM363 0h90
q-23 24 -54 57.5t-63 70.5l-111 126l106 117q31 34 60 64.5t51 52.5h-81q-7 -19 -24.5 -44t-42.5 -53l-131 -144l130 -147q26 -30 44 -55.5t26 -44.5zM228 -272q37 23 55.5 55t18.5 69q0 29 -13.5 45t-32.5 16q-16 0 -26.5 -10.5t-10.5 -24.5q0 -6 1.5 -11.5t4 -9.5t6 -8
t7 -7l7 -6t7 -6.5t6 -7.5t4 -8.5t1.5 -10.5q0 -15 -11.5 -33t-30.5 -35z" />
    <glyph glyph-name="kgreenlandic" unicode="&#x138;" horiz-adv-x="444" 
d="M67 0h83q-2 5 -3.5 12t-2.5 16t-2 18.5t-2 20t-1.5 21t-1 20.5t-0.5 19v16v350l-75 -17q3 -4 5 -11t3.5 -15t3 -17.5t2.5 -19t2 -19.5t1.5 -19.5t0.5 -17.5v-15v-198v-16.5t-0.5 -19.5t-1 -20.5l-1 -21t-1.5 -20t-2.5 -18.5t-3 -16t-3.5 -12zM363 0h90q-23 24 -54 57.5
t-63 70.5l-111 126l106 117q31 34 60 64.5t51 52.5h-81q-7 -19 -24.5 -44t-42.5 -53l-131 -144l130 -147q26 -30 44 -55.5t26 -44.5z" />
    <glyph glyph-name="Lacute" unicode="&#x139;" horiz-adv-x="503" 
d="M75 0h405l12 66q-7 -2 -16 -4t-20 -3.5t-23 -3t-25.5 -3t-27 -2.5l-27 -2t-26.5 -2t-25.5 -1.5t-23 -0.5h-19.5h-105v503v19t0.5 21l1 22t1.5 22t2 21t2.5 19t3 16.5t3.5 12.5h-88q2 -5 3.5 -12.5t3 -16.5t2.5 -19t2 -21t1.5 -22l1 -22t0.5 -21v-19v-390
q0 -10 -0.5 -20.5t-1 -22t-1 -22.5t-2 -22.5t-3 -21.5t-3 -19t-4 -16.5t-4.5 -12.5zM89 763h36l124 134h-75z" />
    <glyph glyph-name="lacute" unicode="&#x13a;" horiz-adv-x="218" 
d="M67 0h84q-2 6 -3.5 13t-3 16t-2.5 18.5t-2 19.5t-1.5 20l-1 20t-0.5 19.5v17.5v578l-75 -17q3 -5 5 -11.5t3.5 -14.5t3 -17t2.5 -18.5t2 -19.5t1.5 -19t0.5 -17.5v-16.5v-427v-17.5t-0.5 -19.5l-1 -20l-1 -20t-1.5 -19.5t-2.5 -18.5t-3 -16t-3.5 -13zM74 780h35l137 154
h-79z" />
    <glyph glyph-name="uni013B" unicode="&#x13b;" horiz-adv-x="503" 
d="M75 0h405l12 66q-7 -2 -16 -4t-20 -3.5t-23 -3t-25.5 -3t-27 -2.5l-27 -2t-26.5 -2t-25.5 -1.5t-23 -0.5h-19.5h-105v503v19t0.5 21l1 22t1.5 22t2 21t2.5 19t3 16.5t3.5 12.5h-88q2 -5 3.5 -12.5t3 -16.5t2.5 -19t2 -21t1.5 -22l1 -22t0.5 -21v-19v-390
q0 -10 -0.5 -20.5t-1 -22t-1 -22.5t-2 -22.5t-3 -21.5t-3 -19t-4 -16.5t-4.5 -12.5zM271 -272q37 23 55.5 55t18.5 69q0 29 -13.5 45t-32.5 16q-16 0 -26.5 -10.5t-10.5 -24.5q0 -6 1.5 -11.5t4 -9.5t6 -8t7 -7l7 -6t7 -6.5t6 -7.5t4 -8.5t1.5 -10.5q0 -15 -11.5 -33
t-30.5 -35z" />
    <glyph glyph-name="uni013C" unicode="&#x13c;" horiz-adv-x="218" 
d="M67 0h84q-2 6 -3.5 13t-3 16t-2.5 18.5t-2 19.5t-1.5 20l-1 20t-0.5 19.5v17.5v578l-75 -17q3 -5 5 -11.5t3.5 -14.5t3 -17t2.5 -18.5t2 -19.5t1.5 -19t0.5 -17.5v-16.5v-427v-17.5t-0.5 -19.5l-1 -20l-1 -20t-1.5 -19.5t-2.5 -18.5t-3 -16t-3.5 -13zM79 -272
q37 23 55.5 55t18.5 69q0 29 -13.5 45t-32.5 16q-16 0 -26.5 -10.5t-10.5 -24.5q0 -6 1.5 -11.5t4 -9.5t6 -8t7 -7l7 -6t7 -6.5t6 -7.5t4 -8.5t1.5 -10.5q0 -15 -11.5 -33t-30.5 -35z" />
    <glyph glyph-name="Lcaron" unicode="&#x13d;" horiz-adv-x="503" 
d="M75 0h405l12 66q-7 -2 -16 -4t-20 -3.5t-23 -3t-25.5 -3t-27 -2.5l-27 -2t-26.5 -2t-25.5 -1.5t-23 -0.5h-19.5h-105v503v19t0.5 21l1 22t1.5 22t2 21t2.5 19t3 16.5t3.5 12.5h-88q2 -5 3.5 -12.5t3 -16.5t2.5 -19t2 -21t1.5 -22l1 -22t0.5 -21v-19v-390
q0 -10 -0.5 -20.5t-1 -22t-1 -22.5t-2 -22.5t-3 -21.5t-3 -19t-4 -16.5t-4.5 -12.5zM248 509h25l50 191h-65z" />
    <glyph glyph-name="lcaron" unicode="&#x13e;" horiz-adv-x="257" 
d="M67 0h84q-2 6 -3.5 13t-3 16t-2.5 18.5t-2 19.5t-1.5 20l-1 20t-0.5 19.5v17.5v578l-75 -17q3 -5 5 -11.5t3.5 -14.5t3 -17t2.5 -18.5t2 -19.5t1.5 -19t0.5 -17.5v-16.5v-427v-17.5t-0.5 -19.5l-1 -20l-1 -20t-1.5 -19.5t-2.5 -18.5t-3 -16t-3.5 -13zM202 525h25l50 191
h-65z" />
    <glyph glyph-name="Ldot" unicode="&#x13f;" horiz-adv-x="503" 
d="M375 335q19 0 32 13t13 31t-13 31.5t-32 13.5t-31.5 -13.5t-12.5 -31.5t12.5 -31t31.5 -13zM75 0h405l12 66q-7 -2 -16 -4t-20 -3.5t-23 -3t-25.5 -3t-27 -2.5l-27 -2t-26.5 -2t-25.5 -1.5t-23 -0.5h-19.5h-105v503v19t0.5 21l1 22t1.5 22t2 21t2.5 19t3 16.5t3.5 12.5
h-88q2 -5 3.5 -12.5t3 -16.5t2.5 -19t2 -21t1.5 -22l1 -22t0.5 -21v-19v-390q0 -10 -0.5 -20.5t-1 -22t-1 -22.5t-2 -22.5t-3 -21.5t-3 -19t-4 -16.5t-4.5 -12.5z" />
    <glyph glyph-name="ldot" unicode="&#x140;" horiz-adv-x="294" 
d="M211 341q0 -18 13 -31t32 -13t32 13t13 31t-13 31.5t-32 13.5t-32 -13.5t-13 -31.5zM67 0h84q-2 6 -3.5 13t-3 16t-2.5 18.5t-2 19.5t-1.5 20l-1 20t-0.5 19.5v17.5v578l-75 -17q3 -5 5 -11.5t3.5 -14.5t3 -17t2.5 -18.5t2 -19.5t1.5 -19t0.5 -17.5v-16.5v-427v-17.5
t-0.5 -19.5l-1 -20l-1 -20t-1.5 -19.5t-2.5 -18.5t-3 -16t-3.5 -13z" />
    <glyph glyph-name="Lslash" unicode="&#x141;" horiz-adv-x="504" 
d="M77 0h405l12 66q-7 -2 -16 -4t-20 -3.5t-23 -3t-25.5 -3t-27 -2.5l-27 -2t-26.5 -2t-25.5 -1.5t-23 -0.5h-19.5h-105v254l162 110v49l-162 -110v200v19t0.5 21l1 22t1.5 22t2 21t2.5 19t3 16.5t3.5 12.5h-88q2 -5 3.5 -12.5t3 -16.5t2.5 -19t2 -21t1.5 -22l1 -22t0.5 -21
v-19v-241l-86 -58v-49l86 58v-100q0 -10 -0.5 -20.5t-1 -22t-1 -22.5t-2 -22.5t-3 -21.5t-3 -19t-4 -16.5t-4.5 -12.5z" />
    <glyph glyph-name="lslash" unicode="&#x142;" horiz-adv-x="218" 
d="M67 0h84q-2 6 -3.5 13t-3 16t-2.5 18.5t-2 19.5t-1.5 20l-1 20t-0.5 19.5v17.5v200l89 71v50l-89 -70v327l-75 -17q3 -5 5 -11.5t3.5 -14.5t3 -17t2.5 -18.5t2 -19.5t1.5 -19t0.5 -17.5v-16.5v-215l-89 -71v-50l89 71v-162v-17.5t-0.5 -19.5l-1 -20l-1 -20t-1.5 -19.5
t-2.5 -18.5t-3 -16t-3.5 -13z" />
    <glyph glyph-name="Nacute" unicode="&#x143;" horiz-adv-x="699" 
d="M607 547v19t0.5 21t1.5 22l2 22t2 21t2.5 19t3.5 16.5t4 12.5h-82q2 -5 4 -12.5t3.5 -16.5t2.5 -19t2 -21l2 -22t1.5 -21.5t0.5 -20.5v-19v-346l1 -70l-51 65l-415 517v-561v-19t-0.5 -21t-1.5 -22l-2 -22t-2 -21t-2.5 -19t-3.5 -16.5t-4 -12.5h82q-2 5 -4 12t-3.5 16
t-2.5 19t-2 20.5t-2 21.5t-1.5 22t-0.5 20.5v18.5v349l-1 68l56 -71l410 -510v561zM322 763h36l124 134h-75z" />
    <glyph glyph-name="nacute" unicode="&#x144;" horiz-adv-x="524" 
d="M67 0h83q-2 5 -3.5 12t-2.5 16t-2 18.5t-2 20t-1.5 21t-1 20.5t-0.5 19v16v233q34 39 67 57.5t72 18.5q51 0 82.5 -32.5t31.5 -93.5v-183v-16t-0.5 -19t-1 -20.5l-1 -21t-1.5 -20t-2.5 -18.5t-3 -16t-3.5 -12h83q-2 5 -3.5 12t-3 16t-2.5 18.5t-1.5 20l-1 21t-1 20.5
t-0.5 19.5v16.5v192q0 75 -43 118.5t-110 43.5q-46 0 -87.5 -25t-69.5 -63v83l-75 -17q3 -4 5 -11t3.5 -15t3 -17.5t2.5 -19t2 -19.5t1.5 -19.5t0.5 -17.5v-15v-198v-16.5t-0.5 -19.5t-1 -20.5l-1 -21t-1.5 -20t-2.5 -18.5t-3 -16t-3.5 -12zM228 551h35l137 154h-79z" />
    <glyph glyph-name="uni0145" unicode="&#x145;" horiz-adv-x="699" 
d="M607 547v19t0.5 21t1.5 22l2 22t2 21t2.5 19t3.5 16.5t4 12.5h-82q2 -5 4 -12.5t3.5 -16.5t2.5 -19t2 -21l2 -22t1.5 -21.5t0.5 -20.5v-19v-346l1 -70l-51 65l-415 517v-561v-19t-0.5 -21t-1.5 -22l-2 -22t-2 -21t-2.5 -19t-3.5 -16.5t-4 -12.5h82q-2 5 -4 12t-3.5 16
t-2.5 19t-2 20.5t-2 21.5t-1.5 22t-0.5 20.5v18.5v349l-1 68l56 -71l410 -510v561zM330 -272q37 23 55.5 55t18.5 69q0 29 -13.5 45t-32.5 16q-16 0 -26.5 -10.5t-10.5 -24.5q0 -6 1.5 -11.5t4 -9.5t6 -8t7 -7l7 -6t7 -6.5t6 -7.5t4 -8.5t1.5 -10.5q0 -15 -11.5 -33
t-30.5 -35z" />
    <glyph glyph-name="uni0146" unicode="&#x146;" horiz-adv-x="524" 
d="M67 0h83q-2 5 -3.5 12t-2.5 16t-2 18.5t-2 20t-1.5 21t-1 20.5t-0.5 19v16v233q34 39 67 57.5t72 18.5q51 0 82.5 -32.5t31.5 -93.5v-183v-16t-0.5 -19t-1 -20.5l-1 -21t-1.5 -20t-2.5 -18.5t-3 -16t-3.5 -12h83q-2 5 -3.5 12t-3 16t-2.5 18.5t-1.5 20l-1 21t-1 20.5
t-0.5 19.5v16.5v192q0 75 -43 118.5t-110 43.5q-46 0 -87.5 -25t-69.5 -63v83l-75 -17q3 -4 5 -11t3.5 -15t3 -17.5t2.5 -19t2 -19.5t1.5 -19.5t0.5 -17.5v-15v-198v-16.5t-0.5 -19.5t-1 -20.5l-1 -21t-1.5 -20t-2.5 -18.5t-3 -16t-3.5 -12zM242 -272q37 23 55.5 55t18.5 69
q0 29 -13.5 45t-32.5 16q-16 0 -26.5 -10.5t-10.5 -24.5q0 -6 1.5 -11.5t4 -9.5t6 -8t7 -7l7 -6t7 -6.5t6 -7.5t4 -8.5t1.5 -10.5q0 -15 -11.5 -33t-30.5 -35z" />
    <glyph glyph-name="Ncaron" unicode="&#x147;" horiz-adv-x="699" 
d="M607 547v19t0.5 21t1.5 22l2 22t2 21t2.5 19t3.5 16.5t4 12.5h-82q2 -5 4 -12.5t3.5 -16.5t2.5 -19t2 -21l2 -22t1.5 -21.5t0.5 -20.5v-19v-346l1 -70l-51 65l-415 517v-561v-19t-0.5 -21t-1.5 -22l-2 -22t-2 -21t-2.5 -19t-3.5 -16.5t-4 -12.5h82q-2 5 -4 12t-3.5 16
t-2.5 19t-2 20.5t-2 21.5t-1.5 22t-0.5 20.5v18.5v349l-1 68l56 -71l410 -510v561zM330 763h54l111 134h-33l-105 -90l-105 90h-33z" />
    <glyph glyph-name="ncaron" unicode="&#x148;" horiz-adv-x="524" 
d="M67 0h83q-2 5 -3.5 12t-2.5 16t-2 18.5t-2 20t-1.5 21t-1 20.5t-0.5 19v16v233q34 39 67 57.5t72 18.5q51 0 82.5 -32.5t31.5 -93.5v-183v-16t-0.5 -19t-1 -20.5l-1 -21t-1.5 -20t-2.5 -18.5t-3 -16t-3.5 -12h83q-2 5 -3.5 12t-3 16t-2.5 18.5t-1.5 20l-1 21t-1 20.5
t-0.5 19.5v16.5v192q0 75 -43 118.5t-110 43.5q-46 0 -87.5 -25t-69.5 -63v83l-75 -17q3 -4 5 -11t3.5 -15t3 -17.5t2.5 -19t2 -19.5t1.5 -19.5t0.5 -17.5v-15v-198v-16.5t-0.5 -19.5t-1 -20.5l-1 -21t-1.5 -20t-2.5 -18.5t-3 -16t-3.5 -12zM236 551h54l111 154h-33
l-105 -107l-105 107h-33z" />
    <glyph glyph-name="Eng" unicode="&#x14a;" horiz-adv-x="698" 
d="M76 0h82q-2 5 -4 12t-3.5 16t-2.5 19t-2 20.5t-2 21.5t-1.5 22t-0.5 20.5v18.5l-2 392v29l30 -36l386 -488v-121q0 -41 -21.5 -63.5t-53.5 -22.5q-19 0 -37.5 5t-36.5 14l2 -49q16 -7 36.5 -11.5t42.5 -4.5q52 0 85 33.5t33 96.5v623v19t0.5 21t1.5 22l2 22t2 21t2.5 19
t3.5 16.5t4 12.5h-82q2 -5 4 -12.5t3.5 -16.5t2.5 -19t2 -21l2 -22t1.5 -21.5t0.5 -20.5v-19l1 -416l-465 582v-561v-19t-0.5 -21t-1.5 -22l-2 -22t-2 -21t-2.5 -19t-3.5 -16.5t-4 -12.5z" />
    <glyph glyph-name="eng" unicode="&#x14b;" horiz-adv-x="522" 
d="M67 0h83q-2 5 -3.5 12t-2.5 16t-2 18.5t-2 20t-1.5 21t-1 20.5t-0.5 19v16v233q34 39 67 57.5t72 18.5q51 0 82.5 -32.5t31.5 -93.5v-424q0 -30 -14.5 -46.5t-39.5 -16.5q-13 0 -28 3.5t-27 8.5l3 -46q13 -5 29 -8t32 -3q47 0 74.5 28t27.5 82v432q0 75 -43 118.5
t-110 43.5q-46 0 -87.5 -25t-69.5 -63v83l-75 -17q3 -4 5 -11t3.5 -15t3 -17.5t2.5 -19t2 -19.5t1.5 -19.5t0.5 -17.5v-15v-198v-16.5t-0.5 -19.5t-1 -20.5l-1 -21t-1.5 -20t-2.5 -18.5t-3 -16t-3.5 -12z" />
    <glyph glyph-name="Omacron" unicode="&#x14c;" horiz-adv-x="745" 
d="M704 350q0 31 -4 60.5t-12.5 57t-20 52.5t-26.5 47.5t-33 41.5t-38.5 35.5t-43.5 29t-47.5 21t-51 13t-54.5 4.5t-55 -4.5t-52 -13.5t-48 -21.5t-43.5 -28.5t-38.5 -35.5t-32.5 -42t-26.5 -47.5t-20 -52.5t-12 -56.5t-4 -60t4 -60.5t12.5 -57t20 -52.5t26.5 -47.5
t33 -41.5t38.5 -35.5t43.5 -29t47.5 -21t51 -13t54.5 -4.5t55 4.5t52 13.5t48 21.5t43.5 28.5t38.5 35.5t32.5 42t26.5 47.5t20 52.5t12 56.5t4 60zM103 350q0 31 4 59.5t12 55t19 49.5t25.5 43.5t32 37t37.5 30t42.5 22.5t47 13.5t50.5 4.5q25 0 49 -4.5t46 -14t42 -22.5
t37.5 -30t32 -37t26 -43.5t20 -49.5t12.5 -54.5t4 -59.5t-4 -59.5t-12 -55t-19 -49.5t-25.5 -43.5t-32 -37t-37.5 -30t-42.5 -22.5t-47 -13.5t-50.5 -4.5q-25 0 -49 4.5t-46 13.5t-42 22.5t-37.5 30t-32 37t-26 43.5t-20 49.5t-12.5 55t-4 59.5zM250 803h246v39h-246v-39z
" />
    <glyph glyph-name="omacron" unicode="&#x14d;" horiz-adv-x="519" 
d="M260 -9q24 0 46 5t42 14t38 22.5t33 30.5t26.5 37t19.5 43t12.5 48.5t4.5 52.5t-4.5 52.5t-12.5 48.5t-19.5 43.5t-26.5 37.5t-33 30.5t-38 22.5t-42 14t-46 5t-46.5 -5t-42.5 -14.5t-38 -22.5t-32.5 -30t-26.5 -37.5t-20 -43.5t-12.5 -48.5t-4.5 -53.5q0 -27 4.5 -52.5
t12.5 -48t20 -43t26.5 -37t32.5 -30t38 -22.5t42.5 -14t46.5 -5zM259 33q-72 0 -118 59t-46 152t46 152t118 59t118.5 -59t46.5 -152t-46 -152t-119 -59zM136 600h246v40h-246v-40z" />
    <glyph glyph-name="Obreve" unicode="&#x14e;" horiz-adv-x="745" 
d="M704 350q0 31 -4 60.5t-12.5 57t-20 52.5t-26.5 47.5t-33 41.5t-38.5 35.5t-43.5 29t-47.5 21t-51 13t-54.5 4.5t-55 -4.5t-52 -13.5t-48 -21.5t-43.5 -28.5t-38.5 -35.5t-32.5 -42t-26.5 -47.5t-20 -52.5t-12 -56.5t-4 -60t4 -60.5t12.5 -57t20 -52.5t26.5 -47.5
t33 -41.5t38.5 -35.5t43.5 -29t47.5 -21t51 -13t54.5 -4.5t55 4.5t52 13.5t48 21.5t43.5 28.5t38.5 35.5t32.5 42t26.5 47.5t20 52.5t12 56.5t4 60zM103 350q0 31 4 59.5t12 55t19 49.5t25.5 43.5t32 37t37.5 30t42.5 22.5t47 13.5t50.5 4.5q25 0 49 -4.5t46 -14t42 -22.5
t37.5 -30t32 -37t26 -43.5t20 -49.5t12.5 -54.5t4 -59.5t-4 -59.5t-12 -55t-19 -49.5t-25.5 -43.5t-32 -37t-37.5 -30t-42.5 -22.5t-47 -13.5t-50.5 -4.5q-25 0 -49 4.5t-46 13.5t-42 22.5t-37.5 30t-32 37t-26 43.5t-20 49.5t-12.5 55t-4 59.5zM373 763q56 0 92.5 34.5
t40.5 94.5h-11q-13 -37 -44.5 -59t-77.5 -22t-77.5 22t-44.5 59h-11q4 -60 40.5 -94.5t92.5 -34.5z" />
    <glyph glyph-name="obreve" unicode="&#x14f;" horiz-adv-x="519" 
d="M260 -9q24 0 46 5t42 14t38 22.5t33 30.5t26.5 37t19.5 43t12.5 48.5t4.5 52.5t-4.5 52.5t-12.5 48.5t-19.5 43.5t-26.5 37.5t-33 30.5t-38 22.5t-42 14t-46 5t-46.5 -5t-42.5 -14.5t-38 -22.5t-32.5 -30t-26.5 -37.5t-20 -43.5t-12.5 -48.5t-4.5 -53.5q0 -27 4.5 -52.5
t12.5 -48t20 -43t26.5 -37t32.5 -30t38 -22.5t42.5 -14t46.5 -5zM259 33q-72 0 -118 59t-46 152t46 152t118 59t118.5 -59t46.5 -152t-46 -152t-119 -59zM259 551q56 0 92 39t41 105h-12q-15 -43 -45 -69.5t-76 -26.5t-76 26.5t-45 69.5h-12q5 -66 41 -105t92 -39z" />
    <glyph glyph-name="Ohungarumlaut" unicode="&#x150;" horiz-adv-x="745" 
d="M704 350q0 31 -4 60.5t-12.5 57t-20 52.5t-26.5 47.5t-33 41.5t-38.5 35.5t-43.5 29t-47.5 21t-51 13t-54.5 4.5t-55 -4.5t-52 -13.5t-48 -21.5t-43.5 -28.5t-38.5 -35.5t-32.5 -42t-26.5 -47.5t-20 -52.5t-12 -56.5t-4 -60t4 -60.5t12.5 -57t20 -52.5t26.5 -47.5
t33 -41.5t38.5 -35.5t43.5 -29t47.5 -21t51 -13t54.5 -4.5t55 4.5t52 13.5t48 21.5t43.5 28.5t38.5 35.5t32.5 42t26.5 47.5t20 52.5t12 56.5t4 60zM103 350q0 31 4 59.5t12 55t19 49.5t25.5 43.5t32 37t37.5 30t42.5 22.5t47 13.5t50.5 4.5q25 0 49 -4.5t46 -14t42 -22.5
t37.5 -30t32 -37t26 -43.5t20 -49.5t12.5 -54.5t4 -59.5t-4 -59.5t-12 -55t-19 -49.5t-25.5 -43.5t-32 -37t-37.5 -30t-42.5 -22.5t-47 -13.5t-50.5 -4.5q-25 0 -49 4.5t-46 13.5t-42 22.5t-37.5 30t-32 37t-26 43.5t-20 49.5t-12.5 55t-4 59.5zM263 763h36l122 134h-73z
M414 763h36l122 134h-73z" />
    <glyph glyph-name="ohungarumlaut" unicode="&#x151;" horiz-adv-x="519" 
d="M260 -9q24 0 46 5t42 14t38 22.5t33 30.5t26.5 37t19.5 43t12.5 48.5t4.5 52.5t-4.5 52.5t-12.5 48.5t-19.5 43.5t-26.5 37.5t-33 30.5t-38 22.5t-42 14t-46 5t-46.5 -5t-42.5 -14.5t-38 -22.5t-32.5 -30t-26.5 -37.5t-20 -43.5t-12.5 -48.5t-4.5 -53.5q0 -27 4.5 -52.5
t12.5 -48t20 -43t26.5 -37t32.5 -30t38 -22.5t42.5 -14t46.5 -5zM259 33q-72 0 -118 59t-46 152t46 152t118 59t118.5 -59t46.5 -152t-46 -152t-119 -59zM149 551h35l135 154h-76zM300 551h35l135 154h-76z" />
    <glyph glyph-name="OE" unicode="&#x152;" horiz-adv-x="940" 
d="M392 0h520l11 66q-7 -2 -16 -4t-19.5 -3.5t-23 -3t-25.5 -3t-26.5 -2.5l-27 -2l-27 -2t-25.5 -1.5t-23 -0.5h-20h-107v303h52q47 0 90.5 -2.5t72.5 -9.5l-15 67q-26 -5 -66.5 -8.5t-77.5 -3.5h-56v265h94h23.5t26 -0.5t27.5 -1.5l28 -2l28 -2t27 -2.5t24.5 -3.5t21.5 -4
t17 -4l-12 65h-496q-30 0 -59 -4.5t-55.5 -13t-51 -20.5t-46 -27.5t-40.5 -34.5t-34.5 -40.5t-27.5 -46t-20.5 -51t-13 -55t-4.5 -58.5t4.5 -58t12.5 -54.5t20 -50.5t27.5 -45.5t34.5 -40.5t40.5 -34.5t46 -27.5t51 -20.5t55.5 -13t60 -4.5zM397 44q-29 0 -56 4.5
t-51.5 13.5t-46 22t-40.5 29.5t-34.5 36t-28 42.5t-20.5 48t-12.5 53t-4.5 57t4.5 56.5t12.5 53t20.5 48t28 42t34.5 36t40.5 29.5t46 22t51.5 13.5t56 4.5h126v-611h-126z" />
    <glyph glyph-name="oe" unicode="&#x153;" horiz-adv-x="876" 
d="M260 -9q65 0 116.5 37t76.5 98q28 -63 83.5 -99.5t124.5 -36.5q40 0 81 12t68 32l8 53q-34 -26 -74 -40t-79 -14q-81 0 -132 58.5t-51 154.5v8h359q0 26 -3.5 50t-10.5 46t-17 41.5t-23 36t-28.5 29.5t-34 22t-40 14t-44.5 5q-62 0 -112 -37t-75 -98q-26 61 -77 98
t-116 37q-24 0 -46.5 -5t-42.5 -14.5t-38 -22.5t-32.5 -30t-26.5 -37.5t-20 -43.5t-12.5 -48.5t-4.5 -53.5q0 -27 4.5 -52.5t12.5 -48t20 -43t26.5 -37t32.5 -30t38 -22.5t42.5 -14t46.5 -5zM259 33q-72 0 -118 59t-46 152t46 152t118 59t118.5 -59t46.5 -152t-46 -152
t-119 -59zM639 455q55 0 95.5 -41t49.5 -119h-298q11 72 52 116t101 44z" />
    <glyph glyph-name="Racute" unicode="&#x154;" horiz-adv-x="573" 
d="M80 0h88q-2 5 -4 12.5t-3 16.5t-2.5 19t-2.5 21t-1.5 22l-1 22t-0.5 21v19v166h140l200 -319h79q-21 24 -48 63t-51 76l-120 189q69 17 110 66t41 119q0 87 -62 137t-163 50h-204q2 -5 4 -12.5t4 -16.5t3.5 -19t2.5 -21.5t2 -22.5t1.5 -22.5t1 -22t0.5 -20.5v-390v-19
t-0.5 -21l-1 -22t-1.5 -22t-2 -21t-2.5 -19t-3 -16.5t-3.5 -12.5zM272 655q81 0 126.5 -37.5t45.5 -106.5q0 -70 -46 -109.5t-126 -39.5h-119v293h119zM249 763h36l124 134h-75z" />
    <glyph glyph-name="racute" unicode="&#x155;" horiz-adv-x="314" 
d="M67 0h84q-2 6 -3.5 13t-3 16t-2.5 18.5t-2 19.5t-1.5 20l-1 20t-0.5 19.5v17.5v208q22 43 51 68t69 25q13 0 25.5 -2.5t21.5 -6.5l-4 57q-6 2 -15 3.5t-19 1.5q-34 0 -69.5 -25.5t-59.5 -81.5v102l-75 -17q3 -5 5 -11.5t3.5 -14.5t3 -17t2.5 -18.5t2 -19.5t1.5 -19
t0.5 -17.5v-16.5v-198v-17.5t-0.5 -19.5l-1 -20l-1 -20t-1.5 -19.5t-2.5 -18.5t-3 -16t-3.5 -13zM165 551h35l137 154h-79z" />
    <glyph glyph-name="uni0156" unicode="&#x156;" horiz-adv-x="573" 
d="M80 0h88q-2 5 -4 12.5t-3 16.5t-2.5 19t-2.5 21t-1.5 22l-1 22t-0.5 21v19v166h140l200 -319h79q-21 24 -48 63t-51 76l-120 189q69 17 110 66t41 119q0 87 -62 137t-163 50h-204q2 -5 4 -12.5t4 -16.5t3.5 -19t2.5 -21.5t2 -22.5t1.5 -22.5t1 -22t0.5 -20.5v-390v-19
t-0.5 -21l-1 -22t-1.5 -22t-2 -21t-2.5 -19t-3 -16.5t-3.5 -12.5zM272 655q81 0 126.5 -37.5t45.5 -106.5q0 -70 -46 -109.5t-126 -39.5h-119v293h119zM300 -272q37 23 55.5 55t18.5 69q0 29 -13.5 45t-32.5 16q-16 0 -26.5 -10.5t-10.5 -24.5q0 -6 1.5 -11.5t4 -9.5t6 -8
t7 -7l7 -6t7 -6.5t6 -7.5t4 -8.5t1.5 -10.5q0 -15 -11.5 -33t-30.5 -35z" />
    <glyph glyph-name="uni0157" unicode="&#x157;" horiz-adv-x="314" 
d="M67 0h84q-2 6 -3.5 13t-3 16t-2.5 18.5t-2 19.5t-1.5 20l-1 20t-0.5 19.5v17.5v208q22 43 51 68t69 25q13 0 25.5 -2.5t21.5 -6.5l-4 57q-6 2 -15 3.5t-19 1.5q-34 0 -69.5 -25.5t-59.5 -81.5v102l-75 -17q3 -5 5 -11.5t3.5 -14.5t3 -17t2.5 -18.5t2 -19.5t1.5 -19
t0.5 -17.5v-16.5v-198v-17.5t-0.5 -19.5l-1 -20l-1 -20t-1.5 -19.5t-2.5 -18.5t-3 -16t-3.5 -13zM79 -272q37 23 55.5 55t18.5 69q0 29 -13.5 45t-32.5 16q-16 0 -26.5 -10.5t-10.5 -24.5q0 -6 1.5 -11.5t4 -9.5t6 -8t7 -7l7 -6t7 -6.5t6 -7.5t4 -8.5t1.5 -10.5
q0 -15 -11.5 -33t-30.5 -35z" />
    <glyph glyph-name="Rcaron" unicode="&#x158;" horiz-adv-x="573" 
d="M80 0h88q-2 5 -4 12.5t-3 16.5t-2.5 19t-2.5 21t-1.5 22l-1 22t-0.5 21v19v166h140l200 -319h79q-21 24 -48 63t-51 76l-120 189q69 17 110 66t41 119q0 87 -62 137t-163 50h-204q2 -5 4 -12.5t4 -16.5t3.5 -19t2.5 -21.5t2 -22.5t1.5 -22.5t1 -22t0.5 -20.5v-390v-19
t-0.5 -21l-1 -22t-1.5 -22t-2 -21t-2.5 -19t-3 -16.5t-3.5 -12.5zM272 655q81 0 126.5 -37.5t45.5 -106.5q0 -70 -46 -109.5t-126 -39.5h-119v293h119zM257 763h54l111 134h-33l-105 -90l-105 90h-33z" />
    <glyph glyph-name="rcaron" unicode="&#x159;" horiz-adv-x="314" 
d="M67 0h84q-2 6 -3.5 13t-3 16t-2.5 18.5t-2 19.5t-1.5 20l-1 20t-0.5 19.5v17.5v208q22 43 51 68t69 25q13 0 25.5 -2.5t21.5 -6.5l-4 57q-6 2 -15 3.5t-19 1.5q-34 0 -69.5 -25.5t-59.5 -81.5v102l-75 -17q3 -5 5 -11.5t3.5 -14.5t3 -17t2.5 -18.5t2 -19.5t1.5 -19
t0.5 -17.5v-16.5v-198v-17.5t-0.5 -19.5l-1 -20l-1 -20t-1.5 -19.5t-2.5 -18.5t-3 -16t-3.5 -13zM173 551h54l111 154h-33l-105 -107l-105 107h-33z" />
    <glyph glyph-name="Sacute" unicode="&#x15a;" horiz-adv-x="468" 
d="M240 -8q19 0 37 3t35 9t33 15t29.5 21t25 26.5t19 31t12 36t4.5 41.5q0 18 -3.5 34t-9.5 30.5t-14.5 27t-18.5 24t-22 22t-25.5 20t-27.5 18l-28 17t-28.5 16.5t-28.5 16.5t-27.5 17t-25.5 17.5t-22 18.5t-18.5 20t-14.5 22.5t-9.5 25t-3.5 28q0 49 33 82.5t90 33.5
q43 0 90 -22t87 -60l-15 90q-31 3 -70.5 19t-93.5 16q-78 0 -128 -48.5t-50 -117.5q0 -18 3.5 -34.5t9.5 -30.5t14.5 -27t18.5 -24.5t22 -21.5t25 -19.5t27 -18.5t28.5 -17t28.5 -16.5t28 -16.5t27 -16.5t25 -17t22.5 -18.5t19 -20.5t14.5 -22.5t9 -25t3 -28q1 -62 -40 -98
t-98 -36q-54 0 -108 25.5t-100 66.5l19 -93q8 -1 17.5 -3t19 -5t20 -6.5t22.5 -7t24.5 -7t26.5 -6.5t29 -4.5t32 -1.5zM194 763h36l124 134h-75z" />
    <glyph glyph-name="sacute" unicode="&#x15b;" horiz-adv-x="380" 
d="M191 -10q64 0 108 38t44 98q0 16 -3 29t-9 24.5t-13.5 21.5t-17.5 19t-20.5 16.5t-22.5 14l-24 13t-24.5 12.5t-24.5 12t-22.5 12t-20.5 13t-17.5 14.5t-13.5 16t-9 18.5t-3 21q0 32 22 53t63 21q37 0 74 -18t69 -48l-15 81q-27 1 -57 13.5t-73 12.5q-58 0 -96.5 -34
t-38.5 -88q0 -15 3 -28t9 -24t13.5 -20.5t17 -18t20.5 -16t23 -14l24 -13t24 -12.5l24 -12t23 -12.5t20.5 -13.5t17 -14.5t13.5 -16.5t9 -19.5t3 -22.5q0 -37 -26 -62.5t-75 -25.5q-43 0 -83.5 19.5t-76.5 51.5l15 -81q28 -1 62 -16t85 -15zM153 551h35l137 154h-79z" />
    <glyph glyph-name="Scircumflex" unicode="&#x15c;" horiz-adv-x="468" 
d="M240 -8q19 0 37 3t35 9t33 15t29.5 21t25 26.5t19 31t12 36t4.5 41.5q0 18 -3.5 34t-9.5 30.5t-14.5 27t-18.5 24t-22 22t-25.5 20t-27.5 18l-28 17t-28.5 16.5t-28.5 16.5t-27.5 17t-25.5 17.5t-22 18.5t-18.5 20t-14.5 22.5t-9.5 25t-3.5 28q0 49 33 82.5t90 33.5
q43 0 90 -22t87 -60l-15 90q-31 3 -70.5 19t-93.5 16q-78 0 -128 -48.5t-50 -117.5q0 -18 3.5 -34.5t9.5 -30.5t14.5 -27t18.5 -24.5t22 -21.5t25 -19.5t27 -18.5t28.5 -17t28.5 -16.5t28 -16.5t27 -16.5t25 -17t22.5 -18.5t19 -20.5t14.5 -22.5t9 -25t3 -28q1 -62 -40 -98
t-98 -36q-54 0 -108 25.5t-100 66.5l19 -93q8 -1 17.5 -3t19 -5t20 -6.5t22.5 -7t24.5 -7t26.5 -6.5t29 -4.5t32 -1.5zM91 763h33l105 90l105 -90h33l-111 134h-54z" />
    <glyph glyph-name="scircumflex" unicode="&#x15d;" horiz-adv-x="380" 
d="M191 -10q64 0 108 38t44 98q0 16 -3 29t-9 24.5t-13.5 21.5t-17.5 19t-20.5 16.5t-22.5 14l-24 13t-24.5 12.5t-24.5 12t-22.5 12t-20.5 13t-17.5 14.5t-13.5 16t-9 18.5t-3 21q0 32 22 53t63 21q37 0 74 -18t69 -48l-15 81q-27 1 -57 13.5t-73 12.5q-58 0 -96.5 -34
t-38.5 -88q0 -15 3 -28t9 -24t13.5 -20.5t17 -18t20.5 -16t23 -14l24 -13t24 -12.5l24 -12t23 -12.5t20.5 -13.5t17 -14.5t13.5 -16.5t9 -19.5t3 -22.5q0 -37 -26 -62.5t-75 -25.5q-43 0 -83.5 19.5t-76.5 51.5l15 -81q28 -1 62 -16t85 -15zM50 551h33l105 107l105 -107h33
l-111 154h-54z" />
    <glyph glyph-name="uni015E" unicode="&#x15e;" horiz-adv-x="468" 
d="M230 -206q44 0 70.5 21.5t26.5 57.5q0 30 -24 49.5t-60 19.5h-7t-7 -1l27 52q17 1 34 5t33 10.5t30.5 15.5t27 21t22.5 26t17 30t11 34.5t4 39.5q0 18 -3.5 34t-9.5 30.5t-14.5 27t-18.5 24t-22 22t-25.5 20t-27.5 18l-28 17t-28.5 16.5t-28.5 16.5t-27.5 17t-25.5 17.5
t-22 18.5t-18.5 20t-14.5 22.5t-9.5 25t-3.5 28q0 49 33 82.5t90 33.5q43 0 90 -22t87 -60l-15 90q-31 3 -70.5 19t-93.5 16q-78 0 -128 -48.5t-50 -117.5q0 -18 3.5 -34.5t9.5 -30.5t14.5 -27t18.5 -24.5t22 -21.5t25 -19.5t27 -18.5t28.5 -17t28.5 -16.5t28 -16.5
t27 -16.5t25 -17t22.5 -18.5t19 -20.5t14.5 -22.5t9 -25t3 -28q1 -62 -40 -98t-98 -36q-54 0 -108 25.5t-100 66.5l19 -93q31 -2 73 -19.5t102 -21.5l-43 -82l4 -4q9 3 19.5 4.5t20.5 1.5q25 0 42 -10.5t17 -28.5q0 -20 -16 -31.5t-42 -11.5q-23 0 -45 6.5t-41 17.5l5 -41
q14 -7 38 -13t47 -6z" />
    <glyph glyph-name="uni015F" unicode="&#x15f;" horiz-adv-x="380" 
d="M179 -206q44 0 70.5 21.5t26.5 57.5q0 30 -24 49.5t-60 19.5h-7t-7 -1l26 49q60 4 99.5 41.5t39.5 94.5q0 16 -3 29t-9 24.5t-13.5 21.5t-17.5 19t-20.5 16.5t-22.5 14l-24 13t-24.5 12.5t-24.5 12t-22.5 12t-20.5 13t-17.5 14.5t-13.5 16t-9 18.5t-3 21q0 32 22 53
t63 21q37 0 74 -18t69 -48l-15 81q-27 1 -57 13.5t-73 12.5q-58 0 -96.5 -34t-38.5 -88q0 -15 3 -28t9 -24t13.5 -20.5t17 -18t20.5 -16t23 -14l24 -13t24 -12.5l24 -12t23 -12.5t20.5 -13.5t17 -14.5t13.5 -16.5t9 -19.5t3 -22.5q0 -37 -26 -62.5t-75 -25.5
q-43 0 -83.5 19.5t-76.5 51.5l15 -81q25 -1 55 -13.5t73 -16.5l-42 -81l4 -4q9 3 19.5 4.5t20.5 1.5q25 0 42 -10.5t17 -28.5q0 -20 -16 -31.5t-42 -11.5q-23 0 -45 6.5t-41 17.5l5 -41q14 -7 38 -13t47 -6z" />
    <glyph glyph-name="Scaron" unicode="&#x160;" horiz-adv-x="468" 
d="M240 -8q19 0 37 3t35 9t33 15t29.5 21t25 26.5t19 31t12 36t4.5 41.5q0 18 -3.5 34t-9.5 30.5t-14.5 27t-18.5 24t-22 22t-25.5 20t-27.5 18l-28 17t-28.5 16.5t-28.5 16.5t-27.5 17t-25.5 17.5t-22 18.5t-18.5 20t-14.5 22.5t-9.5 25t-3.5 28q0 49 33 82.5t90 33.5
q43 0 90 -22t87 -60l-15 90q-31 3 -70.5 19t-93.5 16q-78 0 -128 -48.5t-50 -117.5q0 -18 3.5 -34.5t9.5 -30.5t14.5 -27t18.5 -24.5t22 -21.5t25 -19.5t27 -18.5t28.5 -17t28.5 -16.5t28 -16.5t27 -16.5t25 -17t22.5 -18.5t19 -20.5t14.5 -22.5t9 -25t3 -28q1 -62 -40 -98
t-98 -36q-54 0 -108 25.5t-100 66.5l19 -93q8 -1 17.5 -3t19 -5t20 -6.5t22.5 -7t24.5 -7t26.5 -6.5t29 -4.5t32 -1.5zM202 763h54l111 134h-33l-105 -90l-105 90h-33z" />
    <glyph glyph-name="scaron" unicode="&#x161;" horiz-adv-x="380" 
d="M191 -10q64 0 108 38t44 98q0 16 -3 29t-9 24.5t-13.5 21.5t-17.5 19t-20.5 16.5t-22.5 14l-24 13t-24.5 12.5t-24.5 12t-22.5 12t-20.5 13t-17.5 14.5t-13.5 16t-9 18.5t-3 21q0 32 22 53t63 21q37 0 74 -18t69 -48l-15 81q-27 1 -57 13.5t-73 12.5q-58 0 -96.5 -34
t-38.5 -88q0 -15 3 -28t9 -24t13.5 -20.5t17 -18t20.5 -16t23 -14l24 -13t24 -12.5l24 -12t23 -12.5t20.5 -13.5t17 -14.5t13.5 -16.5t9 -19.5t3 -22.5q0 -37 -26 -62.5t-75 -25.5q-43 0 -83.5 19.5t-76.5 51.5l15 -81q28 -1 62 -16t85 -15zM161 551h54l111 154h-33
l-105 -107l-105 107h-33z" />
    <glyph glyph-name="uni0162" unicode="&#x162;" horiz-adv-x="547" 
d="M229 0h30l-47 -90l4 -4q9 3 19.5 4.5t20.5 1.5q25 0 42 -10.5t17 -28.5q0 -20 -16 -31.5t-42 -11.5q-23 0 -45 6.5t-41 17.5l5 -41q14 -7 38 -13t47 -6q44 0 70.5 21.5t26.5 57.5q0 30 -24 49.5t-60 19.5h-7t-7 -1l31 59h27q-2 5 -3.5 12.5t-3 16.5t-2.5 19t-2 21
t-1.5 22l-1 22t-0.5 21v19v503h53q49 0 103.5 -5.5t88.5 -15.5l-12 65h-526l-12 -65q34 10 88.5 15.5t102.5 5.5h54v-503v-19t-0.5 -21l-1 -22t-1.5 -22t-2.5 -21t-2.5 -19t-3 -16.5t-4 -12.5z" />
    <glyph glyph-name="uni0163" unicode="&#x163;" horiz-adv-x="299" 
d="M186 -206q44 0 70.5 21.5t26.5 57.5q0 30 -24 49.5t-60 19.5h-7t-7 -1l26 49q18 0 38 6t34 13l5 44q-13 -7 -30.5 -13.5t-36.5 -6.5q-28 0 -42.5 15t-14.5 45v354h125v41h-125v114l-57 -16v-98h-92l-10 -41h102v-359q0 -40 18.5 -64.5t54.5 -31.5l-43 -82l4 -4
q9 3 19.5 4.5t20.5 1.5q25 0 42 -10.5t17 -28.5q0 -20 -16 -31.5t-42 -11.5q-23 0 -45 6.5t-41 17.5l5 -41q14 -7 38 -13t47 -6z" />
    <glyph glyph-name="Tcaron" unicode="&#x164;" horiz-adv-x="547" 
d="M229 0h89q-2 5 -3.5 12.5t-3 16.5t-2.5 19t-2 21t-1.5 22l-1 22t-0.5 21v19v503h53q49 0 103.5 -5.5t88.5 -15.5l-12 65h-526l-12 -65q34 10 88.5 15.5t102.5 5.5h54v-503v-19t-0.5 -21l-1 -22t-1.5 -22t-2.5 -21t-2.5 -19t-3 -16.5t-4 -12.5zM247 763h54l111 134h-33
l-105 -90l-105 90h-33z" />
    <glyph glyph-name="tcaron" unicode="&#x165;" horiz-adv-x="299" 
d="M234 721l-11 -187h27l50 187h-66zM205 -10q22 0 43 6t35 13l5 44q-13 -7 -30.5 -13.5t-36.5 -6.5q-28 0 -42.5 15t-14.5 45v354h125v41h-125v114l-57 -16v-98h-92l-10 -41h102v-359q0 -46 25 -72t73 -26z" />
    <glyph glyph-name="Tbar" unicode="&#x166;" horiz-adv-x="547" 
d="M229 0h89q-2 5 -3.5 12.5t-3 16.5t-2.5 19t-2 21t-1.5 22l-1 22t-0.5 21v19v181h134l10 42h-144v280h53q49 0 103.5 -5.5t88.5 -15.5l-12 65h-526l-12 -65q34 10 88.5 15.5t102.5 5.5h54v-280h-134l-11 -42h145v-181v-19t-0.5 -21l-1 -22t-1.5 -22t-2.5 -21t-2.5 -19
t-3 -16.5t-4 -12.5z" />
    <glyph glyph-name="tbar" unicode="&#x167;" horiz-adv-x="299" 
d="M205 -10q22 0 43 6t35 13l5 44q-13 -7 -30.5 -13.5t-36.5 -6.5q-28 0 -42.5 15t-14.5 45v186h123v39h-123v129h125v41h-125v114l-57 -16v-98h-92l-10 -41h102v-129h-92l-9 -39h101v-191q0 -46 25 -72t73 -26z" />
    <glyph glyph-name="Utilde" unicode="&#x168;" horiz-adv-x="669" 
d="M336 -10q27 0 52 4.5t47.5 13t42.5 21.5t37 30t30 37.5t22 44.5t14 52t5 59v295v19t0.5 21t1.5 22l2 22t2 21t2.5 19t3.5 16.5t4 12.5h-83q2 -5 4 -12.5t3.5 -16.5t2.5 -19t2 -21l2 -22t1.5 -22t0.5 -21v-19v-289q0 -107 -55.5 -163t-139.5 -56q-24 0 -45.5 4.5
t-41.5 13.5t-37 22t-30.5 31t-23 40.5t-14.5 49.5t-5 58v289v19t0.5 21l1 22t1.5 22t2.5 21t2.5 19t3 16.5t4 12.5h-89q2 -5 3.5 -12.5t3 -16.5t2.5 -19t2 -21t1.5 -22l1 -22t0.5 -21v-19v-296q0 -31 5 -59t14 -52t22.5 -44.5t30.5 -37.5t37 -29.5t43 -21t48.5 -13
t52.5 -4.5zM197 777h21q10 30 21.5 44.5t30.5 14.5q6 0 13 -2t14 -5.5t14.5 -7.5t15.5 -9l16 -10t16 -9t16.5 -7.5t17 -5.5t16.5 -2q28 0 49 26.5t32 78.5h-21q-10 -29 -21.5 -44t-30.5 -15q-6 0 -13 2t-14 5.5t-14.5 7.5t-15.5 9l-16 10t-16 9t-16.5 7.5t-16.5 5.5t-17 2
q-28 0 -49 -26t-32 -79z" />
    <glyph glyph-name="utilde" unicode="&#x169;" horiz-adv-x="524" 
d="M228 -10q48 0 90 25.5t69 62.5v-82l75 10q-3 5 -5 12t-4 15.5t-3.5 18t-2.5 20t-1.5 21t-1.5 20.5t-1 19v16v345l-75 -17q3 -5 5 -11.5t4 -14.5t3.5 -17t2.5 -18.5t1.5 -19.5t1.5 -19t1 -17.5v-16.5v-230q-31 -36 -65.5 -56t-74.5 -20q-49 0 -81 32.5t-32 92.5v332
l-75 -17q2 -5 4.5 -11.5t4 -14.5t3 -17t2.5 -18.5t2 -19.5t1.5 -19t0.5 -17.5v-16.5v-190q0 -75 42.5 -118.5t108.5 -43.5zM118 565h22q11 37 22 55t30 18q6 0 12 -2t12.5 -5.5t13 -8t13.5 -10t14 -10.5t14 -10.5t14.5 -10t15 -8t15 -5.5t15.5 -2q28 0 49 30t33 90h-22
q-11 -37 -22 -55.5t-30 -18.5q-6 0 -12 2t-12.5 5.5t-13 8t-13.5 10t-14 10.5t-14 10.5t-14.5 10t-15 8t-15 5.5t-15.5 2q-28 0 -49 -29.5t-33 -89.5z" />
    <glyph glyph-name="Umacron" unicode="&#x16a;" horiz-adv-x="669" 
d="M336 -10q27 0 52 4.5t47.5 13t42.5 21.5t37 30t30 37.5t22 44.5t14 52t5 59v295v19t0.5 21t1.5 22l2 22t2 21t2.5 19t3.5 16.5t4 12.5h-83q2 -5 4 -12.5t3.5 -16.5t2.5 -19t2 -21l2 -22t1.5 -22t0.5 -21v-19v-289q0 -107 -55.5 -163t-139.5 -56q-24 0 -45.5 4.5
t-41.5 13.5t-37 22t-30.5 31t-23 40.5t-14.5 49.5t-5 58v289v19t0.5 21l1 22t1.5 22t2.5 21t2.5 19t3 16.5t4 12.5h-89q2 -5 3.5 -12.5t3 -16.5t2.5 -19t2 -21t1.5 -22l1 -22t0.5 -21v-19v-296q0 -31 5 -59t14 -52t22.5 -44.5t30.5 -37.5t37 -29.5t43 -21t48.5 -13
t52.5 -4.5zM216 803h246v39h-246v-39z" />
    <glyph glyph-name="umacron" unicode="&#x16b;" horiz-adv-x="524" 
d="M228 -10q48 0 90 25.5t69 62.5v-82l75 10q-3 5 -5 12t-4 15.5t-3.5 18t-2.5 20t-1.5 21t-1.5 20.5t-1 19v16v345l-75 -17q3 -5 5 -11.5t4 -14.5t3.5 -17t2.5 -18.5t1.5 -19.5t1.5 -19t1 -17.5v-16.5v-230q-31 -36 -65.5 -56t-74.5 -20q-49 0 -81 32.5t-32 92.5v332
l-75 -17q2 -5 4.5 -11.5t4 -14.5t3 -17t2.5 -18.5t2 -19.5t1.5 -19t0.5 -17.5v-16.5v-190q0 -75 42.5 -118.5t108.5 -43.5zM138 600h246v40h-246v-40z" />
    <glyph glyph-name="Ubreve" unicode="&#x16c;" horiz-adv-x="669" 
d="M336 -10q27 0 52 4.5t47.5 13t42.5 21.5t37 30t30 37.5t22 44.5t14 52t5 59v295v19t0.5 21t1.5 22l2 22t2 21t2.5 19t3.5 16.5t4 12.5h-83q2 -5 4 -12.5t3.5 -16.5t2.5 -19t2 -21l2 -22t1.5 -22t0.5 -21v-19v-289q0 -107 -55.5 -163t-139.5 -56q-24 0 -45.5 4.5
t-41.5 13.5t-37 22t-30.5 31t-23 40.5t-14.5 49.5t-5 58v289v19t0.5 21l1 22t1.5 22t2.5 21t2.5 19t3 16.5t4 12.5h-89q2 -5 3.5 -12.5t3 -16.5t2.5 -19t2 -21t1.5 -22l1 -22t0.5 -21v-19v-296q0 -31 5 -59t14 -52t22.5 -44.5t30.5 -37.5t37 -29.5t43 -21t48.5 -13
t52.5 -4.5zM339 763q56 0 92.5 34.5t40.5 94.5h-11q-13 -37 -44.5 -59t-77.5 -22t-77.5 22t-44.5 59h-11q4 -60 40.5 -94.5t92.5 -34.5z" />
    <glyph glyph-name="ubreve" unicode="&#x16d;" horiz-adv-x="524" 
d="M228 -10q48 0 90 25.5t69 62.5v-82l75 10q-3 5 -5 12t-4 15.5t-3.5 18t-2.5 20t-1.5 21t-1.5 20.5t-1 19v16v345l-75 -17q3 -5 5 -11.5t4 -14.5t3.5 -17t2.5 -18.5t1.5 -19.5t1.5 -19t1 -17.5v-16.5v-230q-31 -36 -65.5 -56t-74.5 -20q-49 0 -81 32.5t-32 92.5v332
l-75 -17q2 -5 4.5 -11.5t4 -14.5t3 -17t2.5 -18.5t2 -19.5t1.5 -19t0.5 -17.5v-16.5v-190q0 -75 42.5 -118.5t108.5 -43.5zM261 551q56 0 92 39t41 105h-12q-15 -43 -45 -69.5t-76 -26.5t-76 26.5t-45 69.5h-12q5 -66 41 -105t92 -39z" />
    <glyph glyph-name="Uring" unicode="&#x16e;" horiz-adv-x="669" 
d="M336 -10q27 0 52 4.5t47.5 13t42.5 21.5t37 30t30 37.5t22 44.5t14 52t5 59v295v19t0.5 21t1.5 22l2 22t2 21t2.5 19t3.5 16.5t4 12.5h-83q2 -5 4 -12.5t3.5 -16.5t2.5 -19t2 -21l2 -22t1.5 -22t0.5 -21v-19v-289q0 -107 -55.5 -163t-139.5 -56q-24 0 -45.5 4.5
t-41.5 13.5t-37 22t-30.5 31t-23 40.5t-14.5 49.5t-5 58v289v19t0.5 21l1 22t1.5 22t2.5 21t2.5 19t3 16.5t4 12.5h-89q2 -5 3.5 -12.5t3 -16.5t2.5 -19t2 -21t1.5 -22l1 -22t0.5 -21v-19v-296q0 -31 5 -59t14 -52t22.5 -44.5t30.5 -37.5t37 -29.5t43 -21t48.5 -13
t52.5 -4.5zM339 758q42 0 69 27.5t27 66.5q0 38 -27 65.5t-69 27.5t-69 -27.5t-27 -65.5q0 -39 27 -66.5t69 -27.5zM339 791q-25 0 -42 18t-17 43t17 42.5t42 17.5t42 -17.5t17 -42.5t-17 -43t-42 -18z" />
    <glyph glyph-name="uring" unicode="&#x16f;" horiz-adv-x="524" 
d="M228 -10q48 0 90 25.5t69 62.5v-82l75 10q-3 5 -5 12t-4 15.5t-3.5 18t-2.5 20t-1.5 21t-1.5 20.5t-1 19v16v345l-75 -17q3 -5 5 -11.5t4 -14.5t3.5 -17t2.5 -18.5t1.5 -19.5t1.5 -19t1 -17.5v-16.5v-230q-31 -36 -65.5 -56t-74.5 -20q-49 0 -81 32.5t-32 92.5v332
l-75 -17q2 -5 4.5 -11.5t4 -14.5t3 -17t2.5 -18.5t2 -19.5t1.5 -19t0.5 -17.5v-16.5v-190q0 -75 42.5 -118.5t108.5 -43.5zM261 564q42 0 69 27.5t27 65.5q0 39 -27 66.5t-69 27.5t-69 -27.5t-27 -66.5q0 -38 27 -65.5t69 -27.5zM261 597q-25 0 -42 17.5t-17 42.5t17 43
t42 18t42 -18t17 -43t-17 -42.5t-42 -17.5z" />
    <glyph glyph-name="Uhungarumlaut" unicode="&#x170;" horiz-adv-x="669" 
d="M336 -10q27 0 52 4.5t47.5 13t42.5 21.5t37 30t30 37.5t22 44.5t14 52t5 59v295v19t0.5 21t1.5 22l2 22t2 21t2.5 19t3.5 16.5t4 12.5h-83q2 -5 4 -12.5t3.5 -16.5t2.5 -19t2 -21l2 -22t1.5 -22t0.5 -21v-19v-289q0 -107 -55.5 -163t-139.5 -56q-24 0 -45.5 4.5
t-41.5 13.5t-37 22t-30.5 31t-23 40.5t-14.5 49.5t-5 58v289v19t0.5 21l1 22t1.5 22t2.5 21t2.5 19t3 16.5t4 12.5h-89q2 -5 3.5 -12.5t3 -16.5t2.5 -19t2 -21t1.5 -22l1 -22t0.5 -21v-19v-296q0 -31 5 -59t14 -52t22.5 -44.5t30.5 -37.5t37 -29.5t43 -21t48.5 -13
t52.5 -4.5zM229 763h36l122 134h-73zM380 763h36l122 134h-73z" />
    <glyph glyph-name="uhungarumlaut" unicode="&#x171;" horiz-adv-x="524" 
d="M228 -10q48 0 90 25.5t69 62.5v-82l75 10q-3 5 -5 12t-4 15.5t-3.5 18t-2.5 20t-1.5 21t-1.5 20.5t-1 19v16v345l-75 -17q3 -5 5 -11.5t4 -14.5t3.5 -17t2.5 -18.5t1.5 -19.5t1.5 -19t1 -17.5v-16.5v-230q-31 -36 -65.5 -56t-74.5 -20q-49 0 -81 32.5t-32 92.5v332
l-75 -17q2 -5 4.5 -11.5t4 -14.5t3 -17t2.5 -18.5t2 -19.5t1.5 -19t0.5 -17.5v-16.5v-190q0 -75 42.5 -118.5t108.5 -43.5zM151 551h35l135 154h-76zM302 551h35l135 154h-76z" />
    <glyph glyph-name="Uogonek" unicode="&#x172;" horiz-adv-x="669" 
d="M336 -10q13 0 26 1.5t26 2.5q-45 -34 -64.5 -64t-19.5 -60q0 -32 23 -51.5t59 -19.5q11 0 24.5 2.5t23.5 6.5l9 42q-10 -4 -22.5 -7t-23.5 -3q-22 0 -36 12t-14 31q0 27 20.5 58t63.5 65q69 25 112 88t43 158v295v19t0.5 21t1.5 22l2 22t2 21t2.5 19t3.5 16.5t4 12.5h-83
q2 -5 4 -12.5t3.5 -16.5t2.5 -19t2 -21l2 -22t1.5 -22t0.5 -21v-19v-289q0 -107 -55.5 -163t-139.5 -56q-24 0 -45.5 4.5t-41.5 13.5t-37 22t-30.5 31t-23 40.5t-14.5 49.5t-5 58v289v19t0.5 21l1 22t1.5 22t2.5 21t2.5 19t3 16.5t4 12.5h-89q2 -5 3.5 -12.5t3 -16.5
t2.5 -19t2 -21t1.5 -22l1 -22t0.5 -21v-19v-296q0 -31 5 -59t14 -52t22.5 -44.5t30.5 -37.5t37 -29.5t43 -21t48.5 -13t52.5 -4.5z" />
    <glyph glyph-name="uogonek" unicode="&#x173;" horiz-adv-x="524" 
d="M228 -10q48 0 90 25.5t69 62.5v-82l35 5q-49 -36 -71 -67.5t-22 -62.5q0 -32 23 -51.5t59 -19.5q11 0 24.5 2.5t23.5 6.5l9 42q-10 -4 -22 -7t-23 -3q-22 0 -36.5 12t-14.5 31q0 26 21 56.5t64 64.5h-1l6 1q-3 5 -5 12t-4 15.5t-3.5 18t-2.5 20t-1.5 21t-1.5 20.5t-1 19
v16v345l-75 -17q3 -5 5 -11.5t4 -14.5t3.5 -17t2.5 -18.5t1.5 -19.5t1.5 -19t1 -17.5v-16.5v-230q-31 -36 -65.5 -56t-74.5 -20q-49 0 -81 32.5t-32 92.5v332l-75 -17q2 -5 4.5 -11.5t4 -14.5t3 -17t2.5 -18.5t2 -19.5t1.5 -19t0.5 -17.5v-16.5v-190q0 -75 42.5 -118.5
t108.5 -43.5z" />
    <glyph glyph-name="Wcircumflex" unicode="&#x174;" horiz-adv-x="850" 
d="M786 542q13 42 26.5 87t23.5 71h-78q4 -24 -2.5 -65.5t-16.5 -79.5l-97 -351l-17 -67l-21 67l-175 513l-174 -513l-21 -68l-17 68l-97 351q-10 38 -16.5 79.5t-3.5 65.5h-86q10 -26 23.5 -71t26.5 -87l161 -560l179 519l21 67l20 -67l180 -519zM291 763h33l105 90
l105 -90h33l-111 134h-54z" />
    <glyph glyph-name="wcircumflex" unicode="&#x175;" horiz-adv-x="648" 
d="M587 349q13 40 26 75.5t23 63.5h-70q2 -25 -3 -56.5t-18 -69.5l-60 -192l-16 -59l-20 59l-122 334l-120 -334l-19 -59l-17 59l-60 193q-13 38 -18 69t-3 56h-79q11 -28 23.5 -63.5t25.5 -75.5l121 -367l123 336l19 58l19 -58l125 -336zM189 551h33l105 107l105 -107h33
l-111 154h-54z" />
    <glyph glyph-name="Ycircumflex" unicode="&#x176;" horiz-adv-x="580" 
d="M245 0h89q-2 5 -3.5 12.5t-3 16.5t-2.5 19t-2 21t-1.5 22l-1 22t-0.5 21.5v20.5v123l171 277q25 40 49.5 80t41.5 65h-83q-2 -23 -17.5 -58t-37.5 -72l-148 -244l-151 244q-23 37 -38 72t-17 58h-92q17 -25 41.5 -65t49.5 -80l171 -277v-123v-20.5t-0.5 -21.5l-1 -22
t-1.5 -22t-2.5 -21t-2.5 -19t-3 -16.5t-4 -12.5zM158 763h33l105 90l105 -90h33l-111 134h-54z" />
    <glyph glyph-name="ycircumflex" unicode="&#x177;" horiz-adv-x="445" 
d="M74 -205q45 0 76.5 26t53.5 81l180 445q16 40 31.5 76.5t28.5 64.5h-71q-1 -25 -10 -57.5t-24 -70.5l-110 -278l-113 278q-16 38 -24.5 70.5t-9.5 57.5h-81q13 -28 29 -64t32 -77l137 -332l-39 -96q-17 -41 -38 -58t-52 -17q-16 0 -31 4.5t-29 11.5l6 -52
q11 -6 26.5 -9.5t31.5 -3.5zM92 551h33l105 107l105 -107h33l-111 154h-54z" />
    <glyph glyph-name="Ydieresis" unicode="&#x178;" horiz-adv-x="580" 
d="M245 0h89q-2 5 -3.5 12.5t-3 16.5t-2.5 19t-2 21t-1.5 22l-1 22t-0.5 21.5v20.5v123l171 277q25 40 49.5 80t41.5 65h-83q-2 -23 -17.5 -58t-37.5 -72l-148 -244l-151 244q-23 37 -38 72t-17 58h-92q17 -25 41.5 -65t49.5 -80l171 -277v-123v-20.5t-0.5 -21.5l-1 -22
t-1.5 -22t-2.5 -21t-2.5 -19t-3 -16.5t-4 -12.5zM218 787q19 0 32 13.5t13 31.5q0 17 -13 30.5t-32 13.5t-31.5 -13.5t-12.5 -30.5q0 -18 12.5 -31.5t31.5 -13.5zM374 787q19 0 31.5 13.5t12.5 31.5q0 17 -12.5 30.5t-31.5 13.5t-32 -13.5t-13 -30.5q0 -18 13 -31.5
t32 -13.5z" />
    <glyph glyph-name="Zacute" unicode="&#x179;" horiz-adv-x="504" 
d="M480 0l12 66q-7 -2 -16 -4t-20 -3.5t-23 -3t-25 -3t-26.5 -2.5l-27 -2t-26.5 -2t-25.5 -1.5t-23 -0.5h-19.5h-160l389 656h-440l-12 -65q8 2 17.5 4t21 4t24.5 3.5t26.5 3t28 2.5t28.5 1.5t27 1t25.5 1t23.5 0.5h140l-389 -656h470zM228 763h36l124 134h-75z" />
    <glyph glyph-name="zacute" unicode="&#x17a;" horiz-adv-x="388" 
d="M8 0h347l12 62q-6 -3 -15 -5t-19 -4t-21.5 -4t-23.5 -3.5t-24.5 -2.5t-24 -1.5t-22.5 -1t-20 -0.5h-104l275 448h-331l-12 -61q7 2 15.5 4.5t19 4t22 3.5t24 3l25 2t24.5 1.5t23 1t21 0.5h83zM161 551h35l137 154h-79z" />
    <glyph glyph-name="Zdotaccent" unicode="&#x17b;" horiz-adv-x="504" 
d="M480 0l12 66q-7 -2 -16 -4t-20 -3.5t-23 -3t-25 -3t-26.5 -2.5l-27 -2t-26.5 -2t-25.5 -1.5t-23 -0.5h-19.5h-160l389 656h-440l-12 -65q8 2 17.5 4t21 4t24.5 3.5t26.5 3t28 2.5t28.5 1.5t27 1t25.5 1t23.5 0.5h140l-389 -656h470zM263 787q19 0 32 13.5t13 31.5t-13 31
t-32 13t-32 -13t-13 -31t13 -31.5t32 -13.5z" />
    <glyph glyph-name="zdotaccent" unicode="&#x17c;" horiz-adv-x="388" 
d="M8 0h347l12 62q-6 -3 -15 -5t-19 -4t-21.5 -4t-23.5 -3.5t-24.5 -2.5t-24 -1.5t-22.5 -1t-20 -0.5h-104l275 448h-331l-12 -61q7 2 15.5 4.5t19 4t22 3.5t24 3l25 2t24.5 1.5t23 1t21 0.5h83zM196 584q19 0 32 13.5t13 31.5t-13 31.5t-32 13.5t-32 -13.5t-13 -31.5
t13 -31.5t32 -13.5z" />
    <glyph glyph-name="Zcaron" unicode="&#x17d;" horiz-adv-x="504" 
d="M480 0l12 66q-7 -2 -16 -4t-20 -3.5t-23 -3t-25 -3t-26.5 -2.5l-27 -2t-26.5 -2t-25.5 -1.5t-23 -0.5h-19.5h-160l389 656h-440l-12 -65q8 2 17.5 4t21 4t24.5 3.5t26.5 3t28 2.5t28.5 1.5t27 1t25.5 1t23.5 0.5h140l-389 -656h470zM236 763h54l111 134h-33l-105 -90
l-105 90h-33z" />
    <glyph glyph-name="zcaron" unicode="&#x17e;" horiz-adv-x="388" 
d="M8 0h347l12 62q-6 -3 -15 -5t-19 -4t-21.5 -4t-23.5 -3.5t-24.5 -2.5t-24 -1.5t-22.5 -1t-20 -0.5h-104l275 448h-331l-12 -61q7 2 15.5 4.5t19 4t22 3.5t24 3l25 2t24.5 1.5t23 1t21 0.5h83zM169 551h54l111 154h-33l-105 -107l-105 107h-33z" />
    <glyph glyph-name="uni0218" unicode="&#x218;" horiz-adv-x="468" 
d="M240 -8q19 0 37 3t35 9t33 15t29.5 21t25 26.5t19 31t12 36t4.5 41.5q0 18 -3.5 34t-9.5 30.5t-14.5 27t-18.5 24t-22 22t-25.5 20t-27.5 18l-28 17t-28.5 16.5t-28.5 16.5t-27.5 17t-25.5 17.5t-22 18.5t-18.5 20t-14.5 22.5t-9.5 25t-3.5 28q0 49 33 82.5t90 33.5
q43 0 90 -22t87 -60l-15 90q-31 3 -70.5 19t-93.5 16q-78 0 -128 -48.5t-50 -117.5q0 -18 3.5 -34.5t9.5 -30.5t14.5 -27t18.5 -24.5t22 -21.5t25 -19.5t27 -18.5t28.5 -17t28.5 -16.5t28 -16.5t27 -16.5t25 -17t22.5 -18.5t19 -20.5t14.5 -22.5t9 -25t3 -28q1 -62 -40 -98
t-98 -36q-54 0 -108 25.5t-100 66.5l19 -93q8 -1 17.5 -3t19 -5t20 -6.5t22.5 -7t24.5 -7t26.5 -6.5t29 -4.5t32 -1.5zM213 -272q37 23 55.5 55t18.5 69q0 29 -13.5 45t-32.5 16q-16 0 -26.5 -10.5t-10.5 -24.5q0 -7 1.5 -12t4 -9.5t6 -8t7 -6.5t7 -6.5t7 -6.5t6 -7t4 -8.5
t1.5 -10.5q0 -15 -11.5 -33t-30.5 -35z" />
    <glyph glyph-name="uni0219" unicode="&#x219;" horiz-adv-x="380" 
d="M191 -10q64 0 108 38t44 98q0 16 -3 29t-9 24.5t-13.5 21.5t-17.5 19t-20.5 16.5t-22.5 14l-24 13t-24.5 12.5t-24.5 12t-22.5 12t-20.5 13t-17.5 14.5t-13.5 16t-9 18.5t-3 21q0 32 22 53t63 21q37 0 74 -18t69 -48l-15 81q-27 1 -57 13.5t-73 12.5q-58 0 -96.5 -34
t-38.5 -88q0 -15 3 -28t9 -24t13.5 -20.5t17 -18t20.5 -16t23 -14l24 -13t24 -12.5l24 -12t23 -12.5t20.5 -13.5t17 -14.5t13.5 -16.5t9 -19.5t3 -22.5q0 -37 -26 -62.5t-75 -25.5q-43 0 -83.5 19.5t-76.5 51.5l15 -81q28 -1 62 -16t85 -15zM162 -272q37 23 55.5 55t18.5 69
q0 29 -13.5 45t-32.5 16q-16 0 -26.5 -10.5t-10.5 -24.5q0 -7 1.5 -12t4 -9.5t6 -8t7 -6.5t7 -6.5t7 -6.5t6 -7t4 -8.5t1.5 -10.5q0 -15 -11.5 -33t-30.5 -35z" />
    <glyph glyph-name="uni021A" unicode="&#x21a;" horiz-adv-x="547" 
d="M229 0h89q-2 5 -3.5 12.5t-3 16.5t-2.5 19t-2 21t-1.5 22l-1 22t-0.5 21v19v503h53q49 0 103.5 -5.5t88.5 -15.5l-12 65h-526l-12 -65q34 10 88.5 15.5t102.5 5.5h54v-503v-19t-0.5 -21l-1 -22t-1.5 -22t-2.5 -21t-2.5 -19t-3 -16.5t-4 -12.5zM244 -272q37 23 55.5 55
t18.5 69q0 29 -13.5 45t-32.5 16q-16 0 -26.5 -10.5t-10.5 -24.5q0 -6 1.5 -11.5t4 -9.5t6 -8t7 -7l7 -6t7 -6.5t6 -7.5t4 -8.5t1.5 -10.5q0 -15 -11.5 -33t-30.5 -35z" />
    <glyph glyph-name="uni021B" unicode="&#x21b;" horiz-adv-x="299" 
d="M205 -10q22 0 43 6t35 13l5 44q-13 -7 -30.5 -13.5t-36.5 -6.5q-28 0 -42.5 15t-14.5 45v354h125v41h-125v114l-57 -16v-98h-92l-10 -41h102v-359q0 -46 25 -72t73 -26zM169 -272q37 23 55.5 55t18.5 69q0 29 -13.5 45t-32.5 16q-16 0 -26.5 -10.5t-10.5 -24.5
q0 -7 1.5 -12t4 -9.5t6 -8t7 -6.5t7 -6.5t7 -6.5t6 -7t4 -8.5t1.5 -10.5q0 -15 -11.5 -33t-30.5 -35z" />
    <glyph glyph-name="uni0237" unicode="&#x237;" horiz-adv-x="211" 
d="M33 -206q47 0 74 28t27 82v589l-75 -17q3 -5 5 -11.5t4 -14.5t3.5 -17t2.5 -18.5t1.5 -19.5t1.5 -19t1 -17.5v-16.5v-440q0 -30 -14.5 -46.5t-39.5 -16.5q-13 0 -28 3.5t-27 8.5l3 -46q13 -5 29 -8t32 -3z" />
    <glyph glyph-name="circumflex" unicode="&#x2c6;" 
d="M112 551h33l105 107l105 -107h33l-111 154h-54z" />
    <glyph glyph-name="caron" unicode="&#x2c7;" 
d="M223 551h54l111 154h-33l-105 -107l-105 107h-33z" />
    <glyph glyph-name="breve" unicode="&#x2d8;" 
d="M250 551q56 0 92 39t41 105h-12q-15 -43 -45 -69.5t-76 -26.5t-76 26.5t-45 69.5h-12q5 -66 41 -105t92 -39z" />
    <glyph glyph-name="dotaccent" unicode="&#x2d9;" 
d="M250 584q19 0 32 13.5t13 31.5t-13 31.5t-32 13.5t-32 -13.5t-13 -31.5t13 -31.5t32 -13.5z" />
    <glyph glyph-name="ring" unicode="&#x2da;" 
d="M250 564q42 0 69 27.5t27 65.5q0 39 -27 66.5t-69 27.5t-69 -27.5t-27 -66.5q0 -38 27 -65.5t69 -27.5zM250 597q-25 0 -42 17.5t-17 42.5t17 43t42 18t42 -18t17 -43t-17 -42.5t-42 -17.5z" />
    <glyph glyph-name="ogonek" unicode="&#x2db;" 
d="M256 -205q11 0 24.5 2.5t23.5 6.5l9 42q-10 -4 -22 -7t-23 -3q-22 0 -36.5 12t-14.5 31q0 26 21 56.5t64 64.5l-20 6q-57 -39 -82.5 -72.5t-25.5 -67.5q0 -32 23 -51.5t59 -19.5z" />
    <glyph glyph-name="tilde" unicode="&#x2dc;" 
d="M107 565h22q11 37 22 55t30 18q6 0 12 -2t12.5 -5.5t13 -8t13.5 -10t14 -10.5t14 -10.5t14.5 -10t15 -8t15 -5.5t15.5 -2q28 0 49 30t33 90h-22q-11 -37 -22 -55.5t-30 -18.5q-6 0 -12 2t-12.5 5.5t-13 8t-13.5 10t-14 10.5t-14 10.5t-14.5 10t-15 8t-15 5.5t-15.5 2
q-28 0 -49 -29.5t-33 -89.5z" />
    <glyph glyph-name="hungarumlaut" unicode="&#x2dd;" 
d="M140 551h35l135 154h-76zM291 551h35l135 154h-76z" />
    <glyph glyph-name="Wgrave" unicode="&#x1e80;" horiz-adv-x="850" 
d="M786 542q13 42 26.5 87t23.5 71h-78q4 -24 -2.5 -65.5t-16.5 -79.5l-97 -351l-17 -67l-21 67l-175 513l-174 -513l-21 -68l-17 68l-97 351q-10 38 -16.5 79.5t-3.5 65.5h-86q10 -26 23.5 -71t26.5 -87l161 -560l179 519l21 67l20 -67l180 -519zM426 763h38l-85 134h-77z
" />
    <glyph glyph-name="wgrave" unicode="&#x1e81;" horiz-adv-x="648" 
d="M587 349q13 40 26 75.5t23 63.5h-70q2 -25 -3 -56.5t-18 -69.5l-60 -192l-16 -59l-20 59l-122 334l-120 -334l-19 -59l-17 59l-60 193q-13 38 -18 69t-3 56h-79q11 -28 23.5 -63.5t25.5 -75.5l121 -367l123 336l19 58l19 -58l125 -336zM325 551h37l-93 154h-81z" />
    <glyph glyph-name="Wacute" unicode="&#x1e82;" horiz-adv-x="850" 
d="M786 542q13 42 26.5 87t23.5 71h-78q4 -24 -2.5 -65.5t-16.5 -79.5l-97 -351l-17 -67l-21 67l-175 513l-174 -513l-21 -68l-17 68l-97 351q-10 38 -16.5 79.5t-3.5 65.5h-86q10 -26 23.5 -71t26.5 -87l161 -560l179 519l21 67l20 -67l180 -519zM394 763h36l124 134h-75z
" />
    <glyph glyph-name="wacute" unicode="&#x1e83;" horiz-adv-x="648" 
d="M587 349q13 40 26 75.5t23 63.5h-70q2 -25 -3 -56.5t-18 -69.5l-60 -192l-16 -59l-20 59l-122 334l-120 -334l-19 -59l-17 59l-60 193q-13 38 -18 69t-3 56h-79q11 -28 23.5 -63.5t25.5 -75.5l121 -367l123 336l19 58l19 -58l125 -336zM292 551h35l137 154h-79z" />
    <glyph glyph-name="Wdieresis" unicode="&#x1e84;" horiz-adv-x="850" 
d="M786 542q13 42 26.5 87t23.5 71h-78q4 -24 -2.5 -65.5t-16.5 -79.5l-97 -351l-17 -67l-21 67l-175 513l-174 -513l-21 -68l-17 68l-97 351q-10 38 -16.5 79.5t-3.5 65.5h-86q10 -26 23.5 -71t26.5 -87l161 -560l179 519l21 67l20 -67l180 -519zM351 787q19 0 32 13.5
t13 31.5q0 17 -13 30.5t-32 13.5t-31.5 -13.5t-12.5 -30.5q0 -18 12.5 -31.5t31.5 -13.5zM507 787q19 0 31.5 13.5t12.5 31.5q0 17 -12.5 30.5t-31.5 13.5t-32 -13.5t-13 -30.5q0 -18 13 -31.5t32 -13.5z" />
    <glyph glyph-name="wdieresis" unicode="&#x1e85;" horiz-adv-x="648" 
d="M587 349q13 40 26 75.5t23 63.5h-70q2 -25 -3 -56.5t-18 -69.5l-60 -192l-16 -59l-20 59l-122 334l-120 -334l-19 -59l-17 59l-60 193q-13 38 -18 69t-3 56h-79q11 -28 23.5 -63.5t25.5 -75.5l121 -367l123 336l19 58l19 -58l125 -336zM249 585q19 0 32 13t13 31t-13 31
t-32 13t-31.5 -13t-12.5 -31t12.5 -31t31.5 -13zM405 585q19 0 31.5 13t12.5 31t-12.5 31t-31.5 13t-32 -13t-13 -31t13 -31t32 -13z" />
    <glyph glyph-name="Ygrave" unicode="&#x1ef2;" horiz-adv-x="580" 
d="M245 0h89q-2 5 -3.5 12.5t-3 16.5t-2.5 19t-2 21t-1.5 22l-1 22t-0.5 21.5v20.5v123l171 277q25 40 49.5 80t41.5 65h-83q-2 -23 -17.5 -58t-37.5 -72l-148 -244l-151 244q-23 37 -38 72t-17 58h-92q17 -25 41.5 -65t49.5 -80l171 -277v-123v-20.5t-0.5 -21.5l-1 -22
t-1.5 -22t-2.5 -21t-2.5 -19t-3 -16.5t-4 -12.5zM293 763h38l-85 134h-77z" />
    <glyph glyph-name="ygrave" unicode="&#x1ef3;" horiz-adv-x="445" 
d="M74 -205q45 0 76.5 26t53.5 81l180 445q16 40 31.5 76.5t28.5 64.5h-71q-1 -25 -10 -57.5t-24 -70.5l-110 -278l-113 278q-16 38 -24.5 70.5t-9.5 57.5h-81q13 -28 29 -64t32 -77l137 -332l-39 -96q-17 -41 -38 -58t-52 -17q-16 0 -31 4.5t-29 11.5l6 -52
q11 -6 26.5 -9.5t31.5 -3.5zM228 551h37l-93 154h-81z" />
    <glyph glyph-name="uni2002" unicode="&#x2002;" horiz-adv-x="484" 
 />
    <glyph glyph-name="uni2003" unicode="&#x2003;" horiz-adv-x="692" 
 />
    <glyph glyph-name="uni2009" unicode="&#x2009;" horiz-adv-x="152" 
 />
    <glyph glyph-name="uni200A" unicode="&#x200a;" horiz-adv-x="113" 
 />
    <glyph glyph-name="uni200B" unicode="&#x200b;" horiz-adv-x="0" 
 />
    <glyph glyph-name="endash" unicode="&#x2013;" horiz-adv-x="484" 
d="M30 321h419l5 42h-419z" />
    <glyph glyph-name="emdash" unicode="&#x2014;" horiz-adv-x="692" 
d="M30 321h626l6 42h-627z" />
    <glyph glyph-name="uni2015" unicode="&#x2015;" horiz-adv-x="1004" 
d="M30 321h938l6 42h-939z" />
    <glyph glyph-name="quoteleft" unicode="&#x2018;" horiz-adv-x="170" 
d="M124 717q-44 -31 -67.5 -72t-23.5 -91q0 -31 14.5 -49t35.5 -18q17 0 29 12.5t12 31.5q0 7 -1.5 12.5t-4 10t-5.5 8.5l-6 8t-6.5 7.5t-6.5 7.5t-5.5 8.5t-4 10t-1.5 12.5q0 23 13 45t38 44z" />
    <glyph glyph-name="quoteright" unicode="&#x2019;" horiz-adv-x="170" 
d="M46 479q44 31 67.5 72t23.5 91q0 31 -14.5 49t-35.5 18q-17 0 -29 -12.5t-12 -31.5q0 -7 1.5 -12.5t4 -10t5.5 -8.5t6.5 -7.5t6.5 -7.5l6 -8t5.5 -8.5t4 -10t1.5 -12.5q0 -23 -13 -45t-38 -44z" />
    <glyph glyph-name="quotesinglbase" unicode="&#x201a;" horiz-adv-x="170" 
d="M46 -143q44 31 67.5 72t23.5 91q0 31 -14.5 49t-35.5 18q-17 0 -29 -12.5t-12 -31.5q0 -7 1.5 -12.5t4 -10t5.5 -8.5t6.5 -7.5t6.5 -7.5l6 -8t5.5 -8.5t4 -10t1.5 -12.5q0 -23 -13 -45t-38 -44z" />
    <glyph glyph-name="uni201B" unicode="&#x201b;" horiz-adv-x="170" 
d="M123 479l10 12q-25 22 -38 44t-13 45q0 7 1.5 12.5t4 10t5.5 8.5t6.5 8t6.5 7.5t6 7.5t5.5 8.5t4 10t1.5 12.5q0 19 -12 31.5t-29 12.5q-20 0 -34.5 -18t-14.5 -49q0 -50 23.5 -91t66.5 -72z" />
    <glyph glyph-name="quotedblleft" unicode="&#x201c;" horiz-adv-x="304" 
d="M124 717q-44 -31 -67.5 -72t-23.5 -91q0 -31 14.5 -49t35.5 -18q17 0 29 12.5t12 31.5q0 7 -1.5 12.5t-4 10t-5.5 8.5l-6 8t-6.5 7.5t-6.5 7.5t-5.5 8.5t-4 10t-1.5 12.5q0 23 13 45t38 44zM258 717q-44 -31 -67.5 -72t-23.5 -91q0 -31 14.5 -49t35.5 -18q17 0 29 12.5
t12 31.5q0 7 -1.5 12.5t-4 10t-5.5 8.5l-6 8t-6.5 7.5t-6.5 7.5t-5.5 8.5t-4 10t-1.5 12.5q0 23 13 45t38 44z" />
    <glyph glyph-name="quotedblright" unicode="&#x201d;" horiz-adv-x="304" 
d="M46 479q44 31 67.5 72t23.5 91q0 31 -14.5 49t-35.5 18q-17 0 -29 -12.5t-12 -31.5q0 -7 1.5 -12.5t4 -10t5.5 -8.5t6.5 -7.5t6.5 -7.5l6 -8t5.5 -8.5t4 -10t1.5 -12.5q0 -23 -13 -45t-38 -44zM181 479q44 31 67.5 72t23.5 91q0 31 -14.5 49t-35.5 18q-17 0 -29 -12.5
t-12 -31.5q0 -7 1.5 -12.5t4 -10t5.5 -8.5t6.5 -7.5t6.5 -7.5l6 -8t5.5 -8.5t4 -10t1.5 -12.5q0 -23 -13 -45t-38 -44z" />
    <glyph glyph-name="quotedblbase" unicode="&#x201e;" horiz-adv-x="316" 
d="M46 -143q44 31 67.5 72t23.5 91q0 31 -14.5 49t-35.5 18q-17 0 -29 -12.5t-12 -31.5q0 -7 1.5 -12.5t4 -10t5.5 -8.5t6.5 -7.5t6.5 -7.5l6 -8t5.5 -8.5t4 -10t1.5 -12.5q0 -23 -13 -45t-38 -44zM181 -143q44 31 67.5 72t23.5 91q0 31 -14.5 49t-35.5 18q-17 0 -29 -12.5
t-12 -31.5q0 -7 1.5 -12.5t4 -10t5.5 -8.5t6.5 -7.5t6.5 -7.5l6 -8t5.5 -8.5t4 -10t1.5 -12.5q0 -23 -13 -45t-38 -44z" />
    <glyph glyph-name="uni201F" unicode="&#x201f;" horiz-adv-x="316" 
d="M269 479l11 12q-25 22 -38.5 44t-13.5 45q0 7 1.5 12.5t4 10t5.5 8.5t6.5 8t7 7.5t6.5 7.5t5.5 8.5t4 10t1.5 12.5q0 19 -12.5 31.5t-29.5 12.5q-20 0 -34.5 -18t-14.5 -49q0 -50 23.5 -91t66.5 -72zM135 479l10 12q-25 22 -38 44t-13 45q0 7 1.5 12.5t4 10t5.5 8.5
t6.5 8t6.5 7.5t6 7.5t5.5 8.5t4 10t1.5 12.5q0 19 -12 31.5t-29 12.5q-21 0 -35.5 -18t-14.5 -49q0 -50 24 -91t67 -72z" />
    <glyph glyph-name="dagger" unicode="&#x2020;" horiz-adv-x="446" 
d="M218 -113h11q2 27 3.5 55.5t3.5 58t3.5 60t4 61t4.5 60.5t4 59.5t4.5 57t4.5 53.5q-6 28 -12.5 61t-11.5 64q69 -6 107.5 -11.5t69.5 -10.5v74q-31 -6 -69.5 -11.5t-107.5 -11.5q9 79 16.5 119.5t14.5 74.5h-90q7 -34 14.5 -74.5t16.5 -119.5q-70 6 -108 11.5t-69 11.5
v-74q31 5 69 10.5t108 11.5q-4 -31 -10.5 -64t-12.5 -61q2 -26 4.5 -53.5t4.5 -57t4 -59.5t4.5 -60.5t4 -61t3.5 -60t4 -58t3 -55.5z" />
    <glyph glyph-name="daggerdbl" unicode="&#x2021;" horiz-adv-x="446" 
d="M32 131v-74q31 6 69 11t108 11q-9 -79 -16.5 -119.5t-14.5 -74.5h90q-7 34 -14.5 74.5t-16.5 119.5q69 -6 107.5 -11t69.5 -11v74q-31 -6 -69.5 -11.5t-107.5 -11.5q4 35 10 81.5t14 103.5q-8 57 -14 103t-10 81q69 -6 107.5 -11.5t69.5 -10.5v74q-31 -6 -69.5 -11.5
t-107.5 -11.5q9 79 16.5 119.5t14.5 74.5h-90q7 -34 14.5 -74.5t16.5 -119.5q-70 6 -108 11.5t-69 11.5v-74q31 5 69 10.5t108 11.5q-4 -35 -10 -81t-13 -103q7 -57 13 -103.5t10 -81.5q-70 6 -108 11.5t-69 11.5z" />
    <glyph glyph-name="bullet" unicode="&#x2022;" horiz-adv-x="409" 
d="M204 221q54 0 92 37.5t38 91.5t-38 91.5t-92 37.5t-91.5 -37.5t-37.5 -91.5t37.5 -91.5t91.5 -37.5z" />
    <glyph glyph-name="ellipsis" unicode="&#x2026;" horiz-adv-x="537" 
d="M86 -7q19 0 32.5 13.5t13.5 32.5t-13.5 33t-32.5 14t-33 -14t-14 -33t14 -32.5t33 -13.5zM269 -7q19 0 32.5 13.5t13.5 32.5t-13.5 33t-32.5 14t-33 -14t-14 -33t14 -32.5t33 -13.5zM452 -7q19 0 32.5 13.5t13.5 32.5t-13.5 33t-32.5 14t-33 -14t-14 -33t14 -32.5
t33 -13.5z" />
    <glyph glyph-name="perthousand" unicode="&#x2030;" horiz-adv-x="940" 
d="M141 0l402 700h-45l-403 -700h46zM151 366q53 0 90 46.5t37 124.5q0 77 -36.5 123.5t-90.5 46.5q-53 0 -90 -46.5t-37 -123.5q0 -78 37 -124.5t90 -46.5zM151 400q-34 0 -56.5 36.5t-22.5 99.5t22.5 100t56.5 37t56 -37t22 -100t-22 -99.5t-56 -36.5zM487 -6
q53 0 90 46.5t37 124.5q0 77 -36.5 123.5t-90.5 46.5q-53 0 -90 -46.5t-37 -123.5q0 -78 37 -124.5t90 -46.5zM487 28q-34 0 -56.5 36.5t-22.5 99.5t22.5 100t56.5 37t56 -37t22 -100t-22 -99.5t-56 -36.5zM789 -6q53 0 90 46.5t37 124.5q0 77 -36.5 123.5t-90.5 46.5
q-53 0 -90 -46.5t-37 -123.5q0 -78 37 -124.5t90 -46.5zM789 28q-34 0 -56.5 36.5t-22.5 99.5t22.5 100t56.5 37t56 -37t22 -100t-22 -99.5t-56 -36.5z" />
    <glyph glyph-name="guilsinglleft" unicode="&#x2039;" horiz-adv-x="267" 
d="M228 -5h24l-159 249l159 249h-24l-215 -249z" />
    <glyph glyph-name="guilsinglright" unicode="&#x203a;" horiz-adv-x="267" 
d="M39 -5h-24l159 249l-159 249h24l215 -249z" />
    <glyph glyph-name="fraction" unicode="&#x2044;" horiz-adv-x="448" 
d="M46 0l402 700h-45l-403 -700h46z" />
    <glyph glyph-name="uni2070" unicode="&#x2070;" horiz-adv-x="302" 
d="M151 366q53 0 90 46.5t37 124.5q0 77 -36.5 123.5t-90.5 46.5q-53 0 -90 -46.5t-37 -123.5q0 -78 37 -124.5t90 -46.5zM151 400q-34 0 -56.5 36.5t-22.5 99.5t22.5 100t56.5 37t56 -37t22 -100t-22 -99.5t-56 -36.5z" />
    <glyph glyph-name="uni2074" unicode="&#x2074;" horiz-adv-x="274" 
d="M5 455h166v-2q0 -19 -2 -44.5t-7 -36.5h62q-4 11 -5.5 36.5t-1.5 44.5v2h43l6 44q-9 -3 -22 -5t-27 -3v94l-46 -12v-83h-112l67 120q10 19 25.5 46t26.5 45h-51q-5 -13 -15.5 -34.5t-18.5 -37.5z" />
    <glyph glyph-name="uni2075" unicode="&#x2075;" horiz-adv-x="244" 
d="M110 367q50 0 83.5 29.5t33.5 78.5q0 43 -29 69.5t-73 26.5q-15 0 -30 -3t-28 -10l11 106h131l8 44q-14 -4 -41 -5.5t-45 -1.5h-88l-19 -170l30 -12q12 9 27 14t31 5q29 0 48.5 -17.5t19.5 -48.5t-21 -51t-53 -20q-22 0 -43.5 7.5t-39.5 17.5l3 -39q16 -9 38 -14.5
t46 -5.5z" />
    <glyph glyph-name="uni2076" unicode="&#x2076;" horiz-adv-x="274" 
d="M147 366q47 0 77 32t30 79q0 44 -27.5 71.5t-68.5 27.5q-28 0 -51.5 -16.5t-36.5 -44.5v10q0 60 22.5 102.5t72.5 42.5q18 0 36.5 -6t33.5 -17l-5 43q-15 7 -33 11.5t-36 4.5q-19 0 -36 -4.5t-31 -13.5t-25 -21.5t-20 -28t-14.5 -33.5t-8.5 -38t-3 -41q0 -69 33.5 -114.5
t90.5 -45.5zM144 544q27 0 45.5 -17.5t18.5 -53.5q0 -32 -17.5 -52.5t-44.5 -20.5q-31 0 -50 24.5t-24 65.5q10 25 31 39.5t41 14.5z" />
    <glyph glyph-name="uni2077" unicode="&#x2077;" horiz-adv-x="237" 
d="M64 372h53q4 72 24 139t57 131l34 59h-214l-8 -47q16 6 40 8t44 2h89l-19 -27q-40 -58 -66.5 -125t-33.5 -140z" />
    <glyph glyph-name="uni2078" unicode="&#x2078;" horiz-adv-x="259" 
d="M127 366q50 0 81.5 26t31.5 66q0 35 -24.5 55.5t-54.5 36.5q31 12 48.5 33t17.5 46q0 33 -27.5 55.5t-70.5 22.5q-45 0 -71.5 -25.5t-26.5 -59.5q0 -32 18.5 -52t43.5 -34q-36 -13 -55 -34.5t-19 -51.5q0 -37 30 -60.5t78 -23.5zM76 626q0 22 15 35.5t39 13.5t39.5 -14
t15.5 -36q0 -19 -11.5 -35.5t-34.5 -28.5q-25 13 -44 28t-19 37zM62 454q0 22 12.5 39.5t40.5 31.5q29 -15 53.5 -30.5t24.5 -43.5q0 -23 -18.5 -38t-46.5 -15q-29 0 -47.5 15.5t-18.5 40.5z" />
    <glyph glyph-name="uni2079" unicode="&#x2079;" horiz-adv-x="274" 
d="M128 706q-47 0 -77 -32t-30 -79q0 -44 27.5 -71.5t68.5 -27.5q28 0 51.5 16.5t36.5 44.5v-10q0 -60 -22.5 -102.5t-72.5 -42.5q-18 0 -36.5 6t-33.5 17l5 -43q15 -7 33 -11.5t36 -4.5q19 0 36 4.5t31 13.5t25 21.5t20 28t14.5 33.5t8.5 38t3 41q0 69 -33.5 114.5
t-90.5 45.5zM131 528q-27 0 -45.5 17.5t-18.5 53.5q0 32 17.5 52.5t44.5 20.5q31 0 50 -24.5t24 -65.5q-10 -25 -31 -39.5t-41 -14.5z" />
    <glyph glyph-name="uni2080" unicode="&#x2080;" horiz-adv-x="302" 
d="M151 -6q53 0 90 46.5t37 124.5q0 77 -36.5 123.5t-90.5 46.5q-53 0 -90 -46.5t-37 -123.5q0 -78 37 -124.5t90 -46.5zM151 28q-34 0 -56.5 36.5t-22.5 99.5t22.5 100t56.5 37t56 -37t22 -100t-22 -99.5t-56 -36.5z" />
    <glyph glyph-name="uni2081" unicode="&#x2081;" horiz-adv-x="127" 
d="M32 0h64q-5 12 -7 37.5t-2 46.5v250l-60 -22q7 -11 10.5 -29.5t3.5 -40.5v-158q0 -21 -2 -46.5t-7 -37.5z" />
    <glyph glyph-name="uni2082" unicode="&#x2082;" horiz-adv-x="231" 
d="M6 0h203l7 48q-5 -1 -11.5 -2.5t-14.5 -3t-16.5 -2.5t-17 -1.5l-17 -1t-16 -1t-13.5 -0.5h-42l65 76q39 44 57 73t18 61q0 37 -27 62.5t-74 25.5q-25 0 -49 -8t-40 -21l-7 -42q20 16 42.5 25.5t44.5 9.5q27 0 44 -15.5t17 -42.5q0 -25 -13 -48.5t-44 -65.5z" />
    <glyph glyph-name="uni2083" unicode="&#x2083;" horiz-adv-x="240" 
d="M106 -5q53 0 84.5 26.5t31.5 67.5q0 31 -20 53.5t-57 29.5q31 8 49 29t18 51q0 36 -27 59t-73 23q-25 0 -48 -7t-39 -17l-7 -42q19 13 41.5 22t44.5 9q29 0 44.5 -15t15.5 -38q0 -26 -19.5 -43t-54.5 -17h-23l-9 -33h30q40 0 63 -16.5t23 -44.5q0 -27 -19 -44.5
t-54 -17.5q-21 0 -43.5 6.5t-41.5 17.5l3 -39q16 -8 39 -14t48 -6z" />
    <glyph glyph-name="uni2084" unicode="&#x2084;" horiz-adv-x="274" 
d="M5 83h166v-2q0 -19 -2 -44.5t-7 -36.5h62q-4 11 -5.5 36.5t-1.5 44.5v2h43l6 44q-9 -3 -22 -5t-27 -3v94l-46 -12v-83h-112l67 120q10 19 25.5 46t26.5 45h-51q-5 -13 -15.5 -34.5t-18.5 -37.5z" />
    <glyph glyph-name="uni2085" unicode="&#x2085;" horiz-adv-x="244" 
d="M110 -5q50 0 83.5 29.5t33.5 78.5q0 43 -29 69.5t-73 26.5q-15 0 -30 -3t-28 -10l11 106h131l8 44q-14 -4 -41 -5.5t-45 -1.5h-88l-19 -170l30 -12q12 9 27 14t31 5q29 0 48.5 -17.5t19.5 -48.5t-21 -51t-53 -20q-22 0 -43.5 7.5t-39.5 17.5l3 -39q16 -9 38 -14.5
t46 -5.5z" />
    <glyph glyph-name="uni2086" unicode="&#x2086;" horiz-adv-x="274" 
d="M147 -6q47 0 77 32t30 79q0 44 -27.5 71.5t-68.5 27.5q-28 0 -51.5 -16.5t-36.5 -44.5v10q0 60 22.5 102.5t72.5 42.5q18 0 36.5 -6t33.5 -17l-5 43q-15 7 -33 11.5t-36 4.5q-19 0 -36 -4.5t-31 -13.5t-25 -21.5t-20 -28t-14.5 -33.5t-8.5 -38t-3 -41q0 -69 33.5 -114.5
t90.5 -45.5zM144 172q27 0 45.5 -17.5t18.5 -53.5q0 -32 -17.5 -52.5t-44.5 -20.5q-31 0 -50 24.5t-24 65.5q10 25 31 39.5t41 14.5z" />
    <glyph glyph-name="uni2087" unicode="&#x2087;" horiz-adv-x="237" 
d="M64 0h53q4 72 24 139t57 131l34 59h-214l-8 -47q16 6 40 8t44 2h89l-19 -27q-40 -58 -66.5 -125t-33.5 -140z" />
    <glyph glyph-name="uni2088" unicode="&#x2088;" horiz-adv-x="259" 
d="M127 -6q50 0 81.5 26t31.5 66q0 35 -24.5 55.5t-54.5 36.5q31 12 48.5 33t17.5 46q0 33 -27.5 55.5t-70.5 22.5q-45 0 -71.5 -25.5t-26.5 -59.5q0 -32 18.5 -52t43.5 -34q-36 -13 -55 -34.5t-19 -51.5q0 -37 30 -60.5t78 -23.5zM76 254q0 22 15 35.5t39 13.5t39.5 -14
t15.5 -36q0 -19 -11.5 -35.5t-34.5 -28.5q-25 13 -44 28t-19 37zM62 82q0 22 12.5 39.5t40.5 31.5q29 -15 53.5 -30.5t24.5 -43.5q0 -23 -18.5 -38t-46.5 -15q-29 0 -47.5 15.5t-18.5 40.5z" />
    <glyph glyph-name="uni2089" unicode="&#x2089;" horiz-adv-x="274" 
d="M128 334q-47 0 -77 -32t-30 -79q0 -44 27.5 -71.5t68.5 -27.5q28 0 51.5 16.5t36.5 44.5v-10q0 -60 -22.5 -102.5t-72.5 -42.5q-18 0 -36.5 6t-33.5 17l5 -43q15 -7 33 -11.5t36 -4.5q19 0 36 4.5t31 13.5t25 21.5t20 28t14.5 33.5t8.5 38t3 41q0 69 -33.5 114.5
t-90.5 45.5zM131 156q-27 0 -45.5 17.5t-18.5 53.5q0 32 17.5 52.5t44.5 20.5q31 0 50 -24.5t24 -65.5q-10 -25 -31 -39.5t-41 -14.5z" />
    <glyph glyph-name="Euro" unicode="&#x20ac;" horiz-adv-x="620" 
d="M9 268h94q6 -32 15.5 -61t23 -54.5t31 -47.5t37.5 -40t43 -32t48.5 -23.5t53.5 -14.5t57 -5q47 0 91 11.5t78 30.5l9 54q-40 -24 -84 -37.5t-88 -13.5q-97 0 -166.5 63.5t-89.5 169.5h219l21 38h-245q-1 10 -1.5 21t-0.5 22v14t1 14h282l22 37h-300q16 111 85.5 181
t167.5 70q46 0 89.5 -14t83.5 -37l-9 56q-34 19 -78 30t-90 10q-26 0 -51 -4.5t-48 -13t-44.5 -21t-41 -28.5t-36.5 -35.5t-31 -41.5t-25 -46.5t-19 -51t-12 -54.5h-92v-37h88q-1 -7 -1 -13.5v-13.5q0 -11 0.5 -22.5t1.5 -21.5h-89v-38z" />
    <glyph glyph-name="trademark" unicode="&#x2122;" horiz-adv-x="656" 
d="M122 388h57q-1 2 -2 6.5t-1.5 10.5t-1 13l-1 14t-0.5 14t-0.5 13.5t-0.5 12v9.5v185h32q21 0 42 -2.5t35 -6.5l-8 43h-245l-8 -43q14 4 35 6.5t42 2.5h32v-185v-9.5t-0.5 -12t-0.5 -13.5t-0.5 -14l-1 -14t-1 -13t-1.5 -10.5t-2 -6.5zM318 388h49q-1 2 -2 6.5t-1.5 9.5
t-1 11.5l-1 13t-0.5 13t-0.5 13t-0.5 12v9.5v171l101 -201l101 201v-171v-9v-11.5t-0.5 -13t-0.5 -13t-0.5 -13t-1.5 -12t-1.5 -10t-1.5 -6.5h55q-1 2 -1.5 6.5t-1.5 10t-1.5 12t-0.5 13t-0.5 13t-0.5 13v11.5v9v136v9t0.5 11.5t0.5 13t0.5 13l1 13t1 12t1.5 9.5t2 7h-59
l-87 -175l-87 175h-61q1 -3 2 -8t1.5 -11.5t1 -14l1 -15t0.5 -14.5v-13.5v-11.5v-136v-9.5v-12t-0.5 -13t-0.5 -13t-0.5 -13t-1.5 -11.5t-1.5 -9.5t-1.5 -6.5z" />
    <glyph glyph-name="uni2153" unicode="&#x2153;" horiz-adv-x="530" 
d="M396 -5q53 0 84.5 26.5t31.5 67.5q0 31 -20 53.5t-57 29.5q31 8 49 29t18 51q0 36 -27 59t-73 23q-25 0 -48 -7t-39 -17l-7 -42q19 13 41.5 22t44.5 9q29 0 44.5 -15t15.5 -38q0 -26 -19.5 -43t-54.5 -17h-23l-9 -33h30q40 0 63 -16.5t23 -44.5q0 -27 -19 -44.5
t-54 -17.5q-21 0 -43.5 6.5t-41.5 17.5l3 -39q16 -8 39 -14t48 -6zM61 372h64q-5 12 -7 37.5t-2 46.5v250l-60 -22q7 -11 10.5 -29.5t3.5 -40.5v-158q0 -21 -2 -46.5t-7 -37.5zM46 0l402 700h-45l-403 -700h46z" />
    <glyph glyph-name="uni2154" unicode="&#x2154;" horiz-adv-x="616" 
d="M6 372h203l7 48q-5 -1 -11.5 -2.5t-14.5 -3t-16.5 -2.5t-17 -1.5l-17 -1t-16 -1t-13.5 -0.5h-42l65 76q39 44 57 73t18 61q0 37 -27 62.5t-74 25.5q-25 0 -49 -8t-40 -21l-7 -42q20 16 42.5 25.5t44.5 9.5q27 0 44 -15.5t17 -42.5q0 -25 -13 -48.5t-44 -65.5zM482 -5
q53 0 84.5 26.5t31.5 67.5q0 31 -20 53.5t-57 29.5q31 8 49 29t18 51q0 36 -27 59t-73 23q-25 0 -48 -7t-39 -17l-7 -42q19 13 41.5 22t44.5 9q29 0 44.5 -15t15.5 -38q0 -26 -19.5 -43t-54.5 -17h-23l-9 -33h30q40 0 63 -16.5t23 -44.5q0 -27 -19 -44.5t-54 -17.5
q-21 0 -43.5 6.5t-41.5 17.5l3 -39q16 -8 39 -14t48 -6zM132 0l402 700h-45l-403 -700h46z" />
    <glyph glyph-name="uni2155" unicode="&#x2155;" horiz-adv-x="526" 
d="M392 -5q50 0 83.5 29.5t33.5 78.5q0 43 -29 69.5t-73 26.5q-15 0 -30 -3t-28 -10l11 106h131l8 44q-14 -4 -41 -5.5t-45 -1.5h-88l-19 -170l30 -12q12 9 27 14t31 5q29 0 48.5 -17.5t19.5 -48.5t-21 -51t-53 -20q-22 0 -43.5 7.5t-39.5 17.5l3 -39q16 -9 38 -14.5
t46 -5.5zM61 372h64q-5 12 -7 37.5t-2 46.5v250l-60 -22q7 -11 10.5 -29.5t3.5 -40.5v-158q0 -21 -2 -46.5t-7 -37.5zM46 0l402 700h-45l-403 -700h46z" />
    <glyph glyph-name="uni2156" unicode="&#x2156;" horiz-adv-x="612" 
d="M6 372h203l7 48q-5 -1 -11.5 -2.5t-14.5 -3t-16.5 -2.5t-17 -1.5l-17 -1t-16 -1t-13.5 -0.5h-42l65 76q39 44 57 73t18 61q0 37 -27 62.5t-74 25.5q-25 0 -49 -8t-40 -21l-7 -42q20 16 42.5 25.5t44.5 9.5q27 0 44 -15.5t17 -42.5q0 -25 -13 -48.5t-44 -65.5zM478 -5
q50 0 83.5 29.5t33.5 78.5q0 43 -29 69.5t-73 26.5q-15 0 -30 -3t-28 -10l11 106h131l8 44q-14 -4 -41 -5.5t-45 -1.5h-88l-19 -170l30 -12q12 9 27 14t31 5q29 0 48.5 -17.5t19.5 -48.5t-21 -51t-53 -20q-22 0 -43.5 7.5t-39.5 17.5l3 -39q16 -9 38 -14.5t46 -5.5zM132 0
l402 700h-45l-403 -700h46z" />
    <glyph glyph-name="uni2157" unicode="&#x2157;" horiz-adv-x="595" 
d="M107 367q53 0 84.5 26.5t31.5 67.5q0 31 -20 53.5t-57 29.5q31 8 49 29t18 51q0 36 -27 59t-73 23q-25 0 -48 -7t-39 -17l-7 -42q19 13 41.5 22t44.5 9q29 0 44.5 -15t15.5 -38q0 -26 -19.5 -43t-54.5 -17h-23l-9 -33h30q40 0 63 -16.5t23 -44.5q0 -27 -19 -44.5
t-54 -17.5q-21 0 -43.5 6.5t-41.5 17.5l3 -39q16 -8 39 -14t48 -6zM461 -5q50 0 83.5 29.5t33.5 78.5q0 43 -29 69.5t-73 26.5q-15 0 -30 -3t-28 -10l11 106h131l8 44q-14 -4 -41 -5.5t-45 -1.5h-88l-19 -170l30 -12q12 9 27 14t31 5q29 0 48.5 -17.5t19.5 -48.5t-21 -51
t-53 -20q-22 0 -43.5 7.5t-39.5 17.5l3 -39q16 -9 38 -14.5t46 -5.5zM115 0l402 700h-45l-403 -700h46z" />
    <glyph glyph-name="uni2158" unicode="&#x2158;" horiz-adv-x="638" 
d="M6 455h166v-2q0 -19 -2 -44.5t-7 -36.5h62q-4 11 -5.5 36.5t-1.5 44.5v2h43l6 44q-9 -3 -22 -5t-27 -3v94l-46 -12v-83h-112l67 120q10 19 25.5 46t26.5 45h-51q-5 -13 -15.5 -34.5t-18.5 -37.5zM504 -5q50 0 83.5 29.5t33.5 78.5q0 43 -29 69.5t-73 26.5q-15 0 -30 -3
t-28 -10l11 106h131l8 44q-14 -4 -41 -5.5t-45 -1.5h-88l-19 -170l30 -12q12 9 27 14t31 5q29 0 48.5 -17.5t19.5 -48.5t-21 -51t-53 -20q-22 0 -43.5 7.5t-39.5 17.5l3 -39q16 -9 38 -14.5t46 -5.5zM158 0l402 700h-45l-403 -700h46z" />
    <glyph glyph-name="uni2159" unicode="&#x2159;" horiz-adv-x="517" 
d="M390 -6q47 0 77 32t30 79q0 44 -27.5 71.5t-68.5 27.5q-28 0 -51.5 -16.5t-36.5 -44.5v10q0 60 22.5 102.5t72.5 42.5q18 0 36.5 -6t33.5 -17l-5 43q-15 7 -33 11.5t-36 4.5q-19 0 -36 -4.5t-31 -13.5t-25 -21.5t-20 -28t-14.5 -33.5t-8.5 -38t-3 -41q0 -69 33.5 -114.5
t90.5 -45.5zM387 172q27 0 45.5 -17.5t18.5 -53.5q0 -32 -17.5 -52.5t-44.5 -20.5q-31 0 -50 24.5t-24 65.5q10 25 31 39.5t41 14.5zM61 372h64q-5 12 -7 37.5t-2 46.5v250l-60 -22q7 -11 10.5 -29.5t3.5 -40.5v-158q0 -21 -2 -46.5t-7 -37.5zM46 0l402 700h-45l-403 -700
h46z" />
    <glyph glyph-name="uni215A" unicode="&#x215a;" horiz-adv-x="576" 
d="M109 367q50 0 83.5 29.5t33.5 78.5q0 43 -29 69.5t-73 26.5q-15 0 -30 -3t-28 -10l11 106h131l8 44q-14 -4 -41 -5.5t-45 -1.5h-88l-19 -170l30 -12q12 9 27 14t31 5q29 0 48.5 -17.5t19.5 -48.5t-21 -51t-53 -20q-22 0 -43.5 7.5t-39.5 17.5l3 -39q16 -9 38 -14.5
t46 -5.5zM448 -6q47 0 77 32t30 79q0 44 -27.5 71.5t-68.5 27.5q-28 0 -51.5 -16.5t-36.5 -44.5v10q0 60 22.5 102.5t72.5 42.5q18 0 36.5 -6t33.5 -17l-5 43q-15 7 -33 11.5t-36 4.5q-19 0 -36 -4.5t-31 -13.5t-25 -21.5t-20 -28t-14.5 -33.5t-8.5 -38t-3 -41
q0 -69 33.5 -114.5t90.5 -45.5zM445 172q27 0 45.5 -17.5t18.5 -53.5q0 -32 -17.5 -52.5t-44.5 -20.5q-31 0 -50 24.5t-24 65.5q10 25 31 39.5t41 14.5zM104 0l402 700h-45l-403 -700h46z" />
    <glyph glyph-name="uni215B" unicode="&#x215b;" horiz-adv-x="522" 
d="M389 -6q50 0 81.5 26t31.5 66q0 35 -24.5 55.5t-54.5 36.5q31 12 48.5 33t17.5 46q0 33 -27.5 55.5t-70.5 22.5q-45 0 -71.5 -25.5t-26.5 -59.5q0 -32 18.5 -52t43.5 -34q-36 -13 -55 -34.5t-19 -51.5q0 -37 30 -60.5t78 -23.5zM338 254q0 22 15 35.5t39 13.5t39.5 -14
t15.5 -36q0 -19 -11.5 -35.5t-34.5 -28.5q-25 13 -44 28t-19 37zM324 82q0 22 12.5 39.5t40.5 31.5q29 -15 53.5 -30.5t24.5 -43.5q0 -23 -18.5 -38t-46.5 -15q-29 0 -47.5 15.5t-18.5 40.5zM61 372h64q-5 12 -7 37.5t-2 46.5v250l-60 -22q7 -11 10.5 -29.5t3.5 -40.5v-158
q0 -21 -2 -46.5t-7 -37.5zM46 0l402 700h-45l-403 -700h46z" />
    <glyph glyph-name="uni215C" unicode="&#x215c;" horiz-adv-x="601" 
d="M107 367q53 0 84.5 26.5t31.5 67.5q0 31 -20 53.5t-57 29.5q31 8 49 29t18 51q0 36 -27 59t-73 23q-25 0 -48 -7t-39 -17l-7 -42q19 13 41.5 22t44.5 9q29 0 44.5 -15t15.5 -38q0 -26 -19.5 -43t-54.5 -17h-23l-9 -33h30q40 0 63 -16.5t23 -44.5q0 -27 -19 -44.5
t-54 -17.5q-21 0 -43.5 6.5t-41.5 17.5l3 -39q16 -8 39 -14t48 -6zM469 -6q50 0 81.5 26t31.5 66q0 35 -24.5 55.5t-54.5 36.5q31 12 48.5 33t17.5 46q0 33 -27.5 55.5t-70.5 22.5q-45 0 -71.5 -25.5t-26.5 -59.5q0 -32 18.5 -52t43.5 -34q-36 -13 -55 -34.5t-19 -51.5
q0 -37 30 -60.5t78 -23.5zM418 254q0 22 15 35.5t39 13.5t39.5 -14t15.5 -36q0 -19 -11.5 -35.5t-34.5 -28.5q-25 13 -44 28t-19 37zM404 82q0 22 12.5 39.5t40.5 31.5q29 -15 53.5 -30.5t24.5 -43.5q0 -23 -18.5 -38t-46.5 -15q-29 0 -47.5 15.5t-18.5 40.5zM126 0l402 700
h-45l-403 -700h46z" />
    <glyph glyph-name="uni215D" unicode="&#x215d;" horiz-adv-x="580" 
d="M109 367q50 0 83.5 29.5t33.5 78.5q0 43 -29 69.5t-73 26.5q-15 0 -30 -3t-28 -10l11 106h131l8 44q-14 -4 -41 -5.5t-45 -1.5h-88l-19 -170l30 -12q12 9 27 14t31 5q29 0 48.5 -17.5t19.5 -48.5t-21 -51t-53 -20q-22 0 -43.5 7.5t-39.5 17.5l3 -39q16 -9 38 -14.5
t46 -5.5zM448 -6q50 0 81.5 26t31.5 66q0 35 -24.5 55.5t-54.5 36.5q31 12 48.5 33t17.5 46q0 33 -27.5 55.5t-70.5 22.5q-45 0 -71.5 -25.5t-26.5 -59.5q0 -32 18.5 -52t43.5 -34q-36 -13 -55 -34.5t-19 -51.5q0 -37 30 -60.5t78 -23.5zM397 254q0 22 15 35.5t39 13.5
t39.5 -14t15.5 -36q0 -19 -11.5 -35.5t-34.5 -28.5q-25 13 -44 28t-19 37zM383 82q0 22 12.5 39.5t40.5 31.5q29 -15 53.5 -30.5t24.5 -43.5q0 -23 -18.5 -38t-46.5 -15q-29 0 -47.5 15.5t-18.5 40.5zM104 0l402 700h-45l-403 -700h46z" />
    <glyph glyph-name="uni215E" unicode="&#x215e;" horiz-adv-x="536" 
d="M67 372h53q4 72 24 139t57 131l34 59h-214l-8 -47q16 6 40 8t44 2h89l-19 -27q-40 -58 -66.5 -125t-33.5 -140zM404 -6q50 0 81.5 26t31.5 66q0 35 -24.5 55.5t-54.5 36.5q31 12 48.5 33t17.5 46q0 33 -27.5 55.5t-70.5 22.5q-45 0 -71.5 -25.5t-26.5 -59.5
q0 -32 18.5 -52t43.5 -34q-36 -13 -55 -34.5t-19 -51.5q0 -37 30 -60.5t78 -23.5zM353 254q0 22 15 35.5t39 13.5t39.5 -14t15.5 -36q0 -19 -11.5 -35.5t-34.5 -28.5q-25 13 -44 28t-19 37zM339 82q0 22 12.5 39.5t40.5 31.5q29 -15 53.5 -30.5t24.5 -43.5q0 -23 -18.5 -38
t-46.5 -15q-29 0 -47.5 15.5t-18.5 40.5zM60 0l402 700h-45l-403 -700h46z" />
    <glyph glyph-name="uni215F" unicode="&#x215f;" horiz-adv-x="448" 
d="M61 372h64q-5 12 -7 37.5t-2 46.5v250l-60 -22q7 -11 10.5 -29.5t3.5 -40.5v-158q0 -21 -2 -46.5t-7 -37.5zM46 0l402 700h-45l-403 -700h46z" />
    <glyph glyph-name="uni2190" unicode="&#x2190;" horiz-adv-x="734" 
d="M275 114h60q-56 54 -114.5 110t-113.5 108q35 0 73 -0.5t78 -1t81.5 -1t84.5 -1t87 -1t88.5 -1t89.5 -0.5v48q-144 -1 -290.5 -3t-291.5 -3q57 54 114 109t114 109h-60q-54 -51 -119.5 -114.5t-126.5 -121.5q61 -58 123 -117.5t123 -118.5z" />
    <glyph glyph-name="arrowup" unicode="&#x2191;" horiz-adv-x="734" 
d="M131 460v-60q54 56 110 114.5t108 113.5q0 -35 -0.5 -73t-1 -78t-1 -81.5t-1 -84.5t-1 -87t-1 -88.5t-0.5 -89.5h48q-1 144 -3 290.5t-3 291.5q54 -57 109 -114t109 -114v60q-51 54 -114.5 119.5t-121.5 126.5q-58 -61 -117.5 -123t-118.5 -123z" />
    <glyph glyph-name="uni2192" unicode="&#x2192;" horiz-adv-x="734" 
d="M459 114h-60q56 54 114.5 110t113.5 108q-35 0 -73 -0.5t-78 -1t-81.5 -1t-84.5 -1t-87 -1t-88.5 -1t-89.5 -0.5v48q144 -1 290.5 -3t291.5 -3q-57 54 -114 109t-114 109h60q54 -51 119.5 -114.5t126.5 -121.5q-61 -58 -123 -117.5t-123 -118.5z" />
    <glyph glyph-name="arrowdown" unicode="&#x2193;" horiz-adv-x="734" 
d="M603 253v60q-54 -56 -110 -114.5t-108 -113.5q0 35 0.5 73t1 78t1 81.5t1 84.5t1 87t1 88.5t0.5 89.5h-48q1 -144 3 -290.5t3 -291.5q-54 57 -109 114t-109 114v-60q51 -54 114.5 -119.5t121.5 -126.5q58 61 117.5 123t118.5 123z" />
    <glyph glyph-name="uni2196" unicode="&#x2196;" horiz-adv-x="734" 
d="M129 261l42 -42q-1 78 -2.5 158.5t-4.5 156.5q86 -87 192.5 -196t215.5 -220l34 34q-103 101 -208 203.5t-208 204.5q78 -3 157.5 -4.5t157.5 -3.5l-42 43q-75 1 -166 3t-175 4q2 -84 3.5 -170t3.5 -171z" />
    <glyph glyph-name="uni2197" unicode="&#x2197;" horiz-adv-x="734" 
d="M271 595l-42 -42q78 1 158.5 2.5t156.5 4.5q-87 -86 -196 -192.5t-220 -215.5l34 -34q101 103 203.5 208t204.5 208q-3 -78 -4.5 -157.5t-3.5 -157.5l43 42q1 75 3 166t4 175q-84 -2 -170 -3.5t-171 -3.5z" />
    <glyph glyph-name="uni2198" unicode="&#x2198;" horiz-adv-x="735" 
d="M606 439l-42 42q1 -78 2.5 -158.5t4.5 -156.5q-86 87 -192.5 196t-215.5 220l-34 -34q103 -101 208 -203.5t208 -204.5q-78 3 -157.5 4.5t-157.5 3.5l42 -43q75 -1 166 -3t175 -4q-2 84 -3.5 170t-3.5 171z" />
    <glyph glyph-name="uni2199" unicode="&#x2199;" horiz-adv-x="735" 
d="M463 105l42 42q-78 -1 -158.5 -2.5t-156.5 -4.5q87 86 196 192.5t220 215.5l-34 34q-101 -103 -203.5 -208t-204.5 -208q3 78 4.5 157.5t3.5 157.5l-43 -42q-1 -75 -3 -166t-4 -175q84 2 170 3.5t171 3.5z" />
    <glyph glyph-name="minus" unicode="&#x2212;" horiz-adv-x="581" 
d="M74 332h433v36h-433v-36z" />
    <glyph glyph-name="approxequal" unicode="&#x2248;" horiz-adv-x="581" 
d="M403 356q25 0 53.5 12t50.5 32v38q-22 -21 -49 -33t-55 -12q-12 0 -24.5 2t-24.5 6t-25 8.5t-25.5 10l-25 11t-25.5 10t-25 8.5t-24.5 6t-24.5 2q-29 0 -56 -12t-49 -32v-38q22 21 49 33t56 12q12 0 24 -2t24.5 -6t25 -8.5t25.5 -10t25.5 -11t25 -10t25 -8.5t25 -6
t24.5 -2zM403 211q25 0 53.5 12t50.5 32v38q-22 -21 -49 -33t-55 -12q-12 0 -24.5 2t-24.5 6t-25 8.5t-25.5 10l-25 11t-25.5 10t-25 8.5t-24.5 6t-24.5 2q-29 0 -56 -12t-49 -32v-38q22 21 49 33t56 12q12 0 24 -2t24.5 -6t25 -8.5t25.5 -10t25.5 -11t25 -10t25 -8.5t25 -6
t24.5 -2z" />
    <glyph glyph-name="notequal" unicode="&#x2260;" horiz-adv-x="581" 
d="M94 113h42l108 146h263v36h-236l81 110h155v36h-128l108 146h-40l-109 -146h-264v-36h237l-81 -110h-156v-36h129z" />
    <glyph glyph-name="lessequal" unicode="&#x2264;" horiz-adv-x="581" 
d="M74 0h433v36h-433v-36zM489 129v43l-327 185l327 185v41l-398 -227z" />
    <glyph glyph-name="greaterequal" unicode="&#x2265;" horiz-adv-x="581" 
d="M74 0h433v36h-433v-36zM114 583v-43l327 -185l-327 -185v-41l398 227z" />
    <glyph glyph-name="uni25A0" unicode="&#x25a0;" horiz-adv-x="899" 
d="M800 700h-700v-700h700v700z" />
    <glyph glyph-name="uni25A1" unicode="&#x25a1;" horiz-adv-x="899" 
d="M800 700h-700v-700h700v700zM750 650v-600h-600v600h600z" />
    <glyph glyph-name="uni25AA" unicode="&#x25aa;" horiz-adv-x="723" 
d="M95 0h534v534h-534v-534z" />
    <glyph glyph-name="uni25AB" unicode="&#x25ab;" horiz-adv-x="723" 
d="M95 0h534v534h-534v-534zM139 490h446v-446h-446v446z" />
    <glyph glyph-name="triagup" unicode="&#x25b2;" horiz-adv-x="754" 
d="M726 0l-349 606l-350 -606h699z" />
    <glyph glyph-name="triagrt" unicode="&#x25ba;" horiz-adv-x="754" 
d="M91 0l605 350l-605 349v-699z" />
    <glyph glyph-name="triagdn" unicode="&#x25bc;" horiz-adv-x="754" 
d="M27 700l350 -606l349 606h-699z" />
    <glyph glyph-name="triaglf" unicode="&#x25c4;" horiz-adv-x="754" 
d="M663 699l-605 -349l605 -350v699z" />
    <glyph glyph-name="uni25CB" unicode="&#x25cb;" horiz-adv-x="843" 
d="M422 -9q30 0 58 4.5t55 13.5t51.5 22t47 29.5t42 36t36 42t29.5 47.5t22 51.5t13.5 55t4.5 58.5t-4.5 58t-13.5 55t-22 51.5t-29.5 47t-36 42t-42 36t-47 29.5t-51.5 22t-55 13.5t-58 4.5t-58.5 -4.5t-55 -13.5t-51.5 -22t-47.5 -29.5t-42 -36t-36 -42t-29.5 -47
t-22 -51.5t-13.5 -55t-4.5 -58t4.5 -58.5t13.5 -55t22 -51.5t29.5 -47.5t36 -42t42 -36t47.5 -29.5t51.5 -22t55 -13.5t58.5 -4.5zM422 40q-25 0 -49.5 4t-47.5 12t-44.5 19t-41 25.5t-36.5 31.5t-31.5 36t-25.5 40.5t-19 45t-12 47.5t-4 50q0 25 4 49.5t12 47.5t19 44.5
t25.5 40.5t31.5 36t36.5 31.5t41 25.5t44.5 19t47.5 12t49.5 4t49.5 -4t47.5 -12t44 -19.5t40.5 -25.5t36 -31t30.5 -36.5t25 -41t19 -44.5t12 -48t4 -50t-4 -49.5t-12 -47.5t-19 -44.5t-25 -40.5t-30.5 -36t-36 -31t-40.5 -25t-44 -19t-47.5 -12t-49.5 -4z" />
    <glyph glyph-name="uni25CF" unicode="&#x25cf;" horiz-adv-x="843" 
d="M422 -9q30 0 58 4.5t55 13.5t51.5 22t47 29.5t42 36t36 42t29.5 47.5t22 51.5t13.5 55t4.5 58.5t-4.5 58t-13.5 55t-22 51.5t-29.5 47t-36 42t-42 36t-47 29.5t-51.5 22t-55 13.5t-58 4.5t-58.5 -4.5t-55 -13.5t-51.5 -22t-47.5 -29.5t-42 -36t-36 -42t-29.5 -47
t-22 -51.5t-13.5 -55t-4.5 -58t4.5 -58.5t13.5 -55t22 -51.5t29.5 -47.5t36 -42t42 -36t47.5 -29.5t51.5 -22t55 -13.5t58.5 -4.5z" />
    <glyph glyph-name="uni25E2" unicode="&#x25e2;" horiz-adv-x="704" 
d="M14 181l676 -181l-181 676z" />
    <glyph glyph-name="uni25E3" unicode="&#x25e3;" horiz-adv-x="704" 
d="M195 676l-181 -676l676 181z" />
    <glyph glyph-name="uni25E4" unicode="&#x25e4;" horiz-adv-x="704" 
d="M690 520l-676 181l181 -676z" />
    <glyph glyph-name="uni25E5" unicode="&#x25e5;" horiz-adv-x="704" 
d="M509 25l181 676l-676 -181z" />
    <glyph glyph-name="caronSlovak" unicode="&#xe413;" 
d="M240 525h25l50 191h-65z" />
    <glyph glyph-name="uni00200326" unicode="&#xe414;" 
d="M220 -272q37 23 55.5 55t18.5 69q0 29 -13.5 45t-32.5 16q-16 0 -26.5 -10.5t-10.5 -24.5q0 -6 1.5 -11.5t4 -9.5t6 -8t7 -7l7 -6t7 -6.5t6 -7.5t4 -8.5t1.5 -10.5q0 -15 -11.5 -33t-30.5 -35z" />
    <glyph glyph-name="fi" unicode="&#xfb01;" horiz-adv-x="515" 
d="M94 0h84q-2 6 -3.5 13t-3 16t-2.5 18.5t-2 19.5t-1.5 20l-1 20t-0.5 19.5v17.5v303h123v41h-123q0 27 -0.5 54.5t-0.5 52.5q0 43 18 64t52 21q16 0 33.5 -6t30.5 -13l-7 49q-13 7 -30 10.5t-33 3.5q-55 0 -87 -34t-32 -100v-102h-93l-9 -41h102v-303v-17.5t-0.5 -19.5
l-1 -20t-1.5 -20t-2 -19.5t-2.5 -18.5t-3 -16t-3.5 -13zM404 584q19 0 32 13.5t13 31.5q0 19 -13 32.5t-32 13.5t-32.5 -13.5t-13.5 -32.5q0 -18 13.5 -31.5t32.5 -13.5zM364 0h84q-2 6 -3.5 13t-3 16t-2.5 18.5t-2 19.5t-1.5 20l-1 20t-0.5 19.5v17.5v349l-75 -17
q3 -5 5 -11.5t3.5 -14.5t3 -17t2.5 -18.5t2 -19.5t1.5 -19t0.5 -17.5v-16.5v-198v-17.5t-0.5 -19.5l-1 -20l-1 -20t-1.5 -19.5t-2.5 -18.5t-3 -16t-3.5 -13z" />
    <glyph glyph-name="fl" unicode="&#xfb02;" horiz-adv-x="515" 
d="M94 0h84q-2 6 -3.5 13t-3 16t-2.5 18.5t-2 19.5t-1.5 20l-1 20t-0.5 19.5v17.5v303h123v41h-123q0 27 -0.5 54.5t-0.5 52.5q0 43 18 64t52 21q16 0 33.5 -6t30.5 -13l-7 49q-13 7 -30 10.5t-33 3.5q-55 0 -87 -34t-32 -100v-102h-93l-9 -41h102v-303v-17.5t-0.5 -19.5
l-1 -20t-1.5 -20t-2 -19.5t-2.5 -18.5t-3 -16t-3.5 -13zM364 0h84q-2 6 -3.5 13t-3 16t-2.5 18.5t-2 19.5t-1.5 20l-1 20t-0.5 19.5v17.5v578l-75 -17q3 -5 5 -11.5t3.5 -14.5t3 -17t2.5 -18.5t2 -19.5t1.5 -19t0.5 -17.5v-16.5v-427v-17.5t-0.5 -19.5l-1 -20l-1 -20
t-1.5 -19.5t-2.5 -18.5t-3 -16t-3.5 -13z" />
    <glyph glyph-name="A.flat" horiz-adv-x="604" 
d="M3 0h81q-1 23 11.5 67.5t25.5 81.5l27 72h299l27 -71q4 -10 8 -22t7.5 -24l7 -24t6 -23.5t4.5 -22t3 -19t1 -15.5h89q-3 6 -6.5 14t-8 17t-9 19.5t-9 21.5t-9 22.5t-9 22.5t-8.5 21.5t-8 20.5l-210 543h-42l-210 -544q-4 -9 -8 -19.5t-8.5 -21.5t-9.5 -22.5t-9.5 -22.5
t-9 -21.5t-9 -19.5t-8 -17t-6.5 -14zM165 265l132 351l133 -351h-265z" />
    <glyph glyph-name="J.alt" horiz-adv-x="394" 
d="M140 -10q73 0 118.5 41t45.5 120v396v19t0.5 21l1 22t1.5 22t2 21t2.5 19t3 16.5t3.5 12.5h-89q2 -5 4 -12.5t3 -16.5t2.5 -19t2.5 -21t1.5 -22l1 -22t0.5 -21v-19v-396q0 -57 -30 -86t-79 -29q-33 0 -67.5 10.5t-65.5 30.5l5 -55q25 -14 60.5 -23t72.5 -9z" />
    <glyph glyph-name="M.flat" horiz-adv-x="798" 
d="M78 0h83q-2 5 -4 12.5t-3.5 16.5t-2.5 19t-2 21l-2 22t-1.5 22t-0.5 21v19l-1 340l-2 129l63 -127l190 -375l192 376l61 124l-2 -127l-1 -340v-19t-0.5 -21l-1 -22t-1.5 -22t-2.5 -21t-2.5 -19t-3 -16.5t-4 -12.5h88q-2 5 -3.5 12.5t-3 16.5t-2.5 19t-2 21t-1.5 22l-1 22
t-0.5 21v19v390q0 10 0.5 20.5t1 21.5t1.5 22.5t2 22.5t2.5 21.5t3.5 19.5t4 16.5t5 12.5h-88l-236 -471l-236 471h-90q2 -5 4.5 -12.5t4 -16.5t3.5 -19.5t3 -21.5t2 -22.5t1.5 -22.5t1 -21.5t0.5 -20.5v-390v-19t-0.5 -21t-1.5 -22l-2 -22t-2 -21t-2.5 -19t-3.5 -16.5
t-4 -12.5z" />
    <glyph glyph-name="N.flat" horiz-adv-x="701" 
d="M570 0h39v547v19t0.5 21t1.5 22l2 22t2 21t2.5 19t3 16.5t3.5 12.5h-81q2 -5 4 -12.5t3.5 -16.5t2.5 -19t2 -21l2 -22t1.5 -22t0.5 -21v-19l1 -353l2 -82l-412 588h-78q3 -5 5 -13t4 -17t4 -20t3.5 -22t2.5 -23t1.5 -23.5t1 -22.5t0.5 -21v-385v-19t-0.5 -21t-1.5 -22
l-2 -22t-2 -21t-2.5 -19t-3.5 -16.5t-4 -12.5h82q-2 5 -4 12.5t-3.5 16.5t-2.5 19t-2 21l-2 22t-1.5 22t-0.5 21v19l-1 342l-2 116z" />
    <glyph glyph-name="Q.alt" horiz-adv-x="745" 
d="M678 -193q17 0 33 2t31 5q-91 19 -169 58t-135 123q26 5 50 14.5t46 22t42 29t37 36t31 41.5t25.5 46.5t19 51.5t11.5 55.5t4 58.5q0 31 -4 60.5t-12.5 57t-20 52.5t-26.5 47.5t-33 41.5t-38.5 35.5t-43.5 29t-47.5 21t-51 13t-54.5 4.5t-55 -4.5t-52 -13.5t-48 -21.5
t-43.5 -28.5t-38.5 -35.5t-32.5 -42t-26.5 -47.5t-20 -52.5t-12 -56.5t-4 -60t4 -60t12 -56.5t19.5 -52t26.5 -47t32.5 -41.5t37.5 -35.5t42.5 -29t47 -21.5t50.5 -14t53 -5q14 -22 30 -41t34.5 -36t38 -31t40.5 -25.5t42 -20.5t42.5 -15t43 -9t41.5 -3zM103 350
q0 31 4 59.5t12 55t19 49.5t25.5 43.5t32 37t37.5 30t42.5 22.5t47 13.5t50.5 4.5q25 0 49 -4.5t46 -14t42 -22.5t37.5 -30t32 -37t26 -43.5t20 -49.5t12.5 -54.5t4 -59.5t-4 -59.5t-12 -55t-19 -49.5t-25.5 -43.5t-32 -37t-37.5 -30t-42.5 -22.5t-47 -13.5t-50.5 -4.5
q-25 0 -49 4.5t-46 13.5t-42 22.5t-37.5 30t-32 37t-26 43.5t-20 49.5t-12.5 55t-4 59.5z" />
    <glyph glyph-name="R.alt" horiz-adv-x="575" 
d="M80 0h88q-2 5 -4 12.5t-3 16.5t-2.5 19t-2.5 21t-1.5 22l-1 22t-0.5 21v19v166h125h11t11 1q10 -23 21.5 -46.5t25 -46.5t28.5 -44.5t31.5 -42t34.5 -39.5t36.5 -35.5t38 -30t40 -24.5t40.5 -18l2 4q-78 69 -139.5 156t-96.5 177q64 19 103 67t39 116q0 87 -62 137
t-163 50h-204q2 -5 4 -12.5t4 -16.5t3.5 -19t2.5 -21.5t2 -22.5t1.5 -22.5t1 -22t0.5 -20.5v-390v-19t-0.5 -21l-1 -22t-1.5 -22t-2 -21t-2.5 -19t-3 -16.5t-3.5 -12.5zM272 655q81 0 126.5 -37.5t45.5 -106.5q0 -70 -46 -109.5t-126 -39.5h-119v293h119z" />
    <glyph glyph-name="V.flat" horiz-adv-x="603" 
d="M600 700h-81q1 -23 -11 -67.5t-25 -81.5l-177 -468l-177 467q-4 11 -8 22.5t-7.5 23.5l-7 24t-6 23.5t-4.5 22t-3 19t-1 15.5h-89q3 -6 6.5 -14t8 -17t9 -19.5t9 -21.5t9.5 -22.5t9.5 -22.5t8.5 -21.5t8 -20.5l210 -543h42l210 544q4 9 8 19.5t8.5 21.5t9 22.5t9 22.5
t9 21.5t9 19.5t8 17t6.5 14z" />
    <glyph glyph-name="W.flat" horiz-adv-x="854" 
d="M205 -2h46l149 510l27 100l26 -100l150 -510h46l141 538q11 43 24 90t23 74h-76q3 -25 -3 -68t-16 -83l-94 -373l-20 -84l-23 84l-151 524h-46l-152 -524l-22 -83l-20 83l-94 373q-10 39 -16.5 82.5t-3.5 68.5h-83q10 -28 23 -74.5t24 -89.5z" />
    <glyph glyph-name="Agrave.flat" horiz-adv-x="604" 
d="M3 0h81q-1 23 11.5 67.5t25.5 81.5l27 72h299l27 -71q4 -10 8 -22t7.5 -24l7 -24t6 -23.5t4.5 -22t3 -19t1 -15.5h89q-3 6 -6.5 14t-8 17t-9 19.5t-9 21.5t-9 22.5t-9 22.5t-8.5 21.5t-8 20.5l-210 543h-42l-210 -544q-4 -9 -8 -19.5t-8.5 -21.5t-9.5 -22.5t-9.5 -22.5
t-9 -21.5t-9 -19.5t-8 -17t-6.5 -14zM165 265l132 351l133 -351h-265zM298 763h38l-85 134h-77z" />
    <glyph glyph-name="Aacute.flat" horiz-adv-x="604" 
d="M3 0h81q-1 23 11.5 67.5t25.5 81.5l27 72h299l27 -71q4 -10 8 -22t7.5 -24l7 -24t6 -23.5t4.5 -22t3 -19t1 -15.5h89q-3 6 -6.5 14t-8 17t-9 19.5t-9 21.5t-9 22.5t-9 22.5t-8.5 21.5t-8 20.5l-210 543h-42l-210 -544q-4 -9 -8 -19.5t-8.5 -21.5t-9.5 -22.5t-9.5 -22.5
t-9 -21.5t-9 -19.5t-8 -17t-6.5 -14zM165 265l132 351l133 -351h-265zM266 763h36l124 134h-75z" />
    <glyph glyph-name="Acircumflex.flat" horiz-adv-x="604" 
d="M3 0h81q-1 23 11.5 67.5t25.5 81.5l27 72h299l27 -71q4 -10 8 -22t7.5 -24l7 -24t6 -23.5t4.5 -22t3 -19t1 -15.5h89q-3 6 -6.5 14t-8 17t-9 19.5t-9 21.5t-9 22.5t-9 22.5t-8.5 21.5t-8 20.5l-210 543h-42l-210 -544q-4 -9 -8 -19.5t-8.5 -21.5t-9.5 -22.5t-9.5 -22.5
t-9 -21.5t-9 -19.5t-8 -17t-6.5 -14zM165 265l132 351l133 -351h-265zM163 763h33l105 90l105 -90h33l-111 134h-54z" />
    <glyph glyph-name="Atilde.flat" horiz-adv-x="604" 
d="M3 0h81q-1 23 11.5 67.5t25.5 81.5l27 72h299l27 -71q4 -10 8 -22t7.5 -24l7 -24t6 -23.5t4.5 -22t3 -19t1 -15.5h89q-3 6 -6.5 14t-8 17t-9 19.5t-9 21.5t-9 22.5t-9 22.5t-8.5 21.5t-8 20.5l-210 543h-42l-210 -544q-4 -9 -8 -19.5t-8.5 -21.5t-9.5 -22.5t-9.5 -22.5
t-9 -21.5t-9 -19.5t-8 -17t-6.5 -14zM165 265l132 351l133 -351h-265zM159 777h21q10 30 21.5 44.5t30.5 14.5q6 0 13 -2t14 -5.5t14.5 -7.5t15.5 -9l16 -10t16 -9t16.5 -7.5t17 -5.5t16.5 -2q28 0 49 26.5t32 78.5h-21q-10 -29 -21.5 -44t-30.5 -15q-6 0 -13 2t-14 5.5
t-14.5 7.5t-15.5 9l-16 10t-16 9t-16.5 7.5t-16.5 5.5t-17 2q-28 0 -49 -26t-32 -79z" />
    <glyph glyph-name="Adieresis.flat" horiz-adv-x="604" 
d="M3 0h81q-1 23 11.5 67.5t25.5 81.5l27 72h299l27 -71q4 -10 8 -22t7.5 -24l7 -24t6 -23.5t4.5 -22t3 -19t1 -15.5h89q-3 6 -6.5 14t-8 17t-9 19.5t-9 21.5t-9 22.5t-9 22.5t-8.5 21.5t-8 20.5l-210 543h-42l-210 -544q-4 -9 -8 -19.5t-8.5 -21.5t-9.5 -22.5t-9.5 -22.5
t-9 -21.5t-9 -19.5t-8 -17t-6.5 -14zM165 265l132 351l133 -351h-265zM223 787q19 0 32 13.5t13 31.5q0 17 -13 30.5t-32 13.5t-31.5 -13.5t-12.5 -30.5q0 -18 12.5 -31.5t31.5 -13.5zM379 787q19 0 31.5 13.5t12.5 31.5q0 17 -12.5 30.5t-31.5 13.5t-32 -13.5t-13 -30.5
q0 -18 13 -31.5t32 -13.5z" />
    <glyph glyph-name="Amacron.flat" horiz-adv-x="604" 
d="M3 0h81q-1 23 11.5 67.5t25.5 81.5l27 72h299l27 -71q4 -10 8 -22t7.5 -24l7 -24t6 -23.5t4.5 -22t3 -19t1 -15.5h89q-3 6 -6.5 14t-8 17t-9 19.5t-9 21.5t-9 22.5t-9 22.5t-8.5 21.5t-8 20.5l-210 543h-42l-210 -544q-4 -9 -8 -19.5t-8.5 -21.5t-9.5 -22.5t-9.5 -22.5
t-9 -21.5t-9 -19.5t-8 -17t-6.5 -14zM165 265l132 351l133 -351h-265zM178 803h246v39h-246v-39z" />
    <glyph glyph-name="Aogonek.flat" horiz-adv-x="604" 
d="M3 0h81q-1 23 11.5 67.5t25.5 81.5l27 72h299l27 -71q4 -10 8 -22t7.5 -24l7 -24t6 -23.5t4.5 -22t3 -19t1 -15.5h60q-52 -37 -75.5 -69.5t-23.5 -64.5t23 -51.5t59 -19.5q11 0 24.5 2.5t23.5 6.5l9 42q-10 -4 -22 -7t-23 -3q-22 0 -36.5 12t-14.5 31q0 26 21 56.5
t64 64.5q-3 6 -6.5 14t-8 17t-9 19.5t-9 21.5t-9 22.5t-9 22.5t-8.5 21.5t-8 20.5l-210 543h-42l-210 -544q-4 -9 -8 -19.5t-8.5 -21.5t-9.5 -22.5t-9.5 -22.5t-9 -21.5t-9 -19.5t-8 -17t-6.5 -14zM165 265l132 351l133 -351h-265z" />
    </font>
</defs>
</svg>
