<?xml version="1.0" standalone="no"?>
<!DOCTYPE svg PUBLIC "-//W3C//DTD SVG 1.1//EN" "http://www.w3.org/Graphics/SVG/1.1/DTD/svg11.dtd" >
<svg xmlns="http://www.w3.org/2000/svg" xmlns:xlink="http://www.w3.org/1999/xlink" version="1.1">
<metadata>
Created by FontForge 20201107 at Sat Apr 20 02:34:58 2024
 By www-data
Copyright 2023 MCKL Inc.
</metadata>
<defs>
<font id="Trust2B-Bold" horiz-adv-x="500" >
  <font-face 
    font-family="Trust 2B"
    font-weight="700"
    font-stretch="normal"
    units-per-em="1000"
    panose-1="2 1 8 3 2 1 1 6 1 1"
    ascent="800"
    descent="-200"
    x-height="503"
    cap-height="700"
    bbox="-80 -300 1074 972"
    underline-thickness="50"
    underline-position="-125"
    unicode-range="U+000D-FB02"
  />
<missing-glyph horiz-adv-x="474" 
d="M40 -200h394v900h-394v-900z" />
    <glyph glyph-name=".notdef" horiz-adv-x="474" 
d="M40 -200h394v900h-394v-900z" />
    <glyph glyph-name=".null" horiz-adv-x="0" 
 />
    <glyph glyph-name="uni000D" unicode="&#xd;" horiz-adv-x="202" 
 />
    <glyph glyph-name="NULL" horiz-adv-x="0" 
 />
    <glyph glyph-name="NULL" horiz-adv-x="0" 
 />
    <glyph glyph-name="space" unicode=" " horiz-adv-x="201" 
 />
    <glyph glyph-name="exclam" unicode="!" horiz-adv-x="246" 
d="M103 221h39l65 479h-169zM122 -8q36 0 60 24.5t24 58.5t-24 58.5t-60 24.5q-34 0 -58.5 -24.5t-24.5 -58.5t24.5 -58.5t58.5 -24.5z" />
    <glyph glyph-name="quotedbl" unicode="&#x22;" horiz-adv-x="425" 
d="M91 413h39l56 287h-151zM295 413h39l56 287h-151z" />
    <glyph glyph-name="numbersign" unicode="#" horiz-adv-x="675" 
d="M92 0h65l52 197h178l-51 -197h65l52 197h125l15 56h-126l51 195h126l15 56h-126l51 196h-66l-51 -196h-178l51 196h-65l-51 -196h-127l-15 -56h127l-51 -195h-127l-15 -56h128zM223 253l51 195h178l-50 -195h-179z" />
    <glyph glyph-name="dollar" unicode="$" horiz-adv-x="540" 
d="M208 -116l48 7l10 109q27 0 52 4t47.5 11.5t42 18.5t35.5 25t29 31t22 36t13.5 40.5t4.5 44.5q0 19 -3 36t-9 31.5t-14.5 27t-19 23.5t-22.5 20.5t-25 17.5t-27.5 15.5t-29 14t-29.5 12.5l-30 12l19 210q36 -7 73.5 -27t75.5 -52l-11 94q-28 18 -62 31t-70 19l10 111
l-48 -8l-9 -99h-5q-27 0 -51 -4t-45.5 -11.5t-40 -18.5t-34 -24.5t-27 -29t-20 -33.5t-12.5 -37.5t-4 -39.5q0 -19 3 -35.5t9 -31t14 -27t18 -23.5t21.5 -20t24.5 -17.5t27 -15.5t28 -13.5t29 -12.5t29 -12l-21 -227q-46 7 -94 31.5t-92 61.5l15 -98q31 -20 74.5 -36.5
t91.5 -22.5zM156 544q0 37 31.5 64.5t86.5 27.5h1l-17 -197q-43 19 -72.5 42.5t-29.5 62.5zM396 167q0 -43 -35 -73t-90 -31l19 212q45 -19 75.5 -43.5t30.5 -64.5z" />
    <glyph glyph-name="percent" unicode="%" horiz-adv-x="694" 
d="M170 0l417 700h-62l-417 -700h62zM168 365q61 0 106 47.5t45 124.5q0 76 -44.5 123.5t-106.5 47.5q-61 0 -105.5 -47.5t-44.5 -123.5q0 -77 44.5 -124.5t105.5 -47.5zM168 404q-21 0 -35 30t-14 102t14 101.5t35 29.5q22 0 36 -29.5t14 -101.5t-14 -102t-36 -30zM525 -7
q61 0 106 47.5t45 124.5q0 76 -44.5 123.5t-106.5 47.5q-61 0 -105.5 -47.5t-44.5 -123.5q0 -77 44.5 -124.5t105.5 -47.5zM525 32q-21 0 -35 30t-14 102t14 101.5t35 29.5q22 0 36 -29.5t14 -101.5t-14 -102t-36 -30z" />
    <glyph glyph-name="ampersand" unicode="&#x26;" horiz-adv-x="686" 
d="M246 -11q57 0 106.5 17t91.5 46q35 -32 73 -45.5t77 -13.5q19 0 38.5 3.5t37.5 13.5l12 101q-10 -4 -22.5 -7t-25.5 -3q-20 0 -44 11t-49 34l-1 1q41 55 67.5 121.5t36.5 134.5h-116q0 -55 -11.5 -106.5t-33.5 -94.5q-43 42 -82 86t-74 90q68 28 114 74.5t46 109.5
q0 69 -52 109.5t-127 40.5q-22 0 -42 -3.5t-38 -10.5t-33.5 -17t-28.5 -22.5t-23 -27t-17 -31t-10.5 -34.5t-3.5 -37q0 -42 13 -77.5t40 -76.5q5 -7 10.5 -15t10.5 -15q-15 -5 -30 -12t-29.5 -15t-28 -17.5t-25 -20.5t-21.5 -23.5t-16.5 -27t-10.5 -30.5t-4 -34
q0 -83 63 -129.5t162 -46.5zM278 448q-22 37 -31 62.5t-9 54.5q0 35 17.5 61.5t50.5 26.5q31 0 50.5 -26.5t19.5 -68.5q0 -45 -19.5 -82t-53.5 -64q-7 9 -13 18zM153 184q0 43 16.5 72.5t42.5 51.5q42 -54 88.5 -106.5t96.5 -103.5q-25 -18 -54 -28t-60 -10
q-63 0 -96.5 37.5t-33.5 86.5z" />
    <glyph glyph-name="quotesingle" unicode="'" horiz-adv-x="221" 
d="M91 413h39l56 287h-151z" />
    <glyph glyph-name="parenleft" unicode="(" horiz-adv-x="394" 
d="M381 -170l7 10q-24 20 -45.5 43.5t-41 51t-36 59t-29.5 66.5t-22.5 74t-14.5 82t-5 89t5 89t14.5 82t22.5 74t29.5 66.5t36 59t41 51.5t45.5 43l-7 10q-32 -12 -62.5 -28t-58 -35.5t-52.5 -42t-47 -48t-40 -54t-32.5 -59.5t-24.5 -64.5t-15 -69.5t-5 -74t5 -74t15 -69.5
t24.5 -64.5t32.5 -59.5t40 -54t47 -48t52.5 -42t58 -35.5t62.5 -28z" />
    <glyph glyph-name="parenright" unicode=")" horiz-adv-x="395" 
d="M14 780l-7 -10q24 -20 45.5 -43.5t41 -51t36 -59t29.5 -66.5t22.5 -74t14.5 -81.5t5 -89.5q0 -46 -5 -89t-14.5 -82t-22.5 -74t-29.5 -66.5t-36 -59t-41 -51t-45.5 -43.5l7 -10q32 12 62.5 28t58 35.5t52.5 42t47 48t40 54t32.5 59.5t24.5 64.5t15 69.5t5 74t-5 74
t-15 69.5t-24.5 64.5t-32.5 59.5t-40 54t-47 48t-52.5 42t-58 35.5t-62.5 28z" />
    <glyph glyph-name="asterisk" unicode="*" horiz-adv-x="452" 
d="M165 311q7 25 21.5 68t39.5 103q25 -59 39.5 -102.5t21.5 -68.5l104 76q-22 14 -58 41t-87 71q64 4 111 5t73 0l-40 122q-19 -15 -58 -42.5t-93 -61.5q17 70 29.5 111.5t21.5 66.5h-128q9 -25 21.5 -66.5t30.5 -111.5q-55 34 -94 61t-58 43l-40 -122q26 1 71.5 0.5
t112.5 -5.5q-49 -43 -86 -70.5t-59 -41.5z" />
    <glyph glyph-name="plus" unicode="+" horiz-adv-x="612" 
d="M280 114h52v211h206v50h-206v211h-52v-211h-206v-50h206v-211z" />
    <glyph glyph-name="comma" unicode="," horiz-adv-x="233" 
d="M36 -160q70 37 115 94.5t45 121.5q0 49 -25 75.5t-59 26.5t-56.5 -22t-22.5 -53q0 -10 1.5 -18t5 -14.5t7.5 -12.5t8.5 -11.5t9 -10.5l9 -10t8.5 -10.5t7.5 -11.5t5 -13t1.5 -15q0 -27 -19 -53.5t-50 -50.5z" />
    <glyph glyph-name="hyphen" unicode="-" horiz-adv-x="374" 
d="M26 323h312l8 67h-311z" />
    <glyph glyph-name="period" unicode="." horiz-adv-x="233" 
d="M117 -8q34 0 58.5 24.5t24.5 59.5q0 34 -24.5 58.5t-58.5 24.5q-35 0 -59.5 -24.5t-24.5 -58.5q0 -35 24.5 -59.5t59.5 -24.5z" />
    <glyph glyph-name="slash" unicode="/" horiz-adv-x="518" 
d="M-80 -200h82l530 966h-81z" />
    <glyph glyph-name="zero" unicode="0" horiz-adv-x="654" 
d="M327 -13q27 0 52.5 5t49 15.5t45 25t40.5 33.5t35 42.5t28.5 50t21.5 57t13.5 64t4.5 70.5t-4.5 70.5t-13.5 64t-21.5 57t-28.5 50t-35 42.5t-40.5 33.5t-45 25t-49 15.5t-52.5 5t-52 -5t-49 -15.5t-45.5 -25t-40.5 -33.5t-35 -42.5t-28.5 -50t-21.5 -57t-13.5 -64
t-4.5 -70.5q0 -36 4.5 -70t13.5 -64.5t21.5 -57t28.5 -50t35 -42.5t40.5 -33.5t45.5 -25t49 -15.5t52 -5zM327 48q-62 0 -102.5 74.5t-40.5 227.5q0 151 40.5 225.5t102.5 74.5q63 0 103 -74.5t40 -225.5q0 -153 -40 -227.5t-103 -74.5z" />
    <glyph glyph-name="one" unicode="1" horiz-adv-x="278" 
d="M46 0h188q-3 8 -6 18t-5 21.5t-4 24.5t-3 26.5t-2 28t-1.5 28.5t-1 27.5t-0.5 25.5v512l-177 -59q20 -27 27.5 -70.5t7.5 -94.5v-288q0 -12 -0.5 -25.5t-1 -27.5t-1 -28.5t-2 -28t-3.5 -26.5t-4 -24.5t-5 -21.5t-6 -18z" />
    <glyph glyph-name="two" unicode="2" horiz-adv-x="504" 
d="M7 0h455l22 144q-10 -4 -21.5 -8t-24 -7.5t-26.5 -6l-28 -5t-28.5 -4t-28.5 -3t-27.5 -2t-25.5 -1t-22 -0.5h-92l103 107q25 26 47.5 49t41.5 43.5t35 39.5t29 37t23 35t16.5 34t10 34.5t3.5 35.5q0 82 -64.5 135.5t-176.5 53.5q-55 0 -108 -18t-92 -45l-11 -77
q43 30 85.5 49t88.5 19q57 0 94 -36t37 -103q0 -57 -30 -121t-115 -168z" />
    <glyph glyph-name="three" unicode="3" horiz-adv-x="523" 
d="M226 -11q120 0 194 57t74 146q0 67 -48 113.5t-133 58.5q70 18 115.5 64t45.5 111q0 75 -64.5 124t-169.5 49q-57 0 -107.5 -15.5t-88.5 -38.5l-13 -79q40 26 85 44t91 18q59 0 91.5 -31.5t32.5 -85.5q0 -60 -38.5 -97t-104.5 -37h-50l-18 -63h63q82 0 124.5 -36.5
t42.5 -96.5q0 -63 -38.5 -100.5t-107.5 -37.5q-45 0 -91.5 14.5t-90.5 40.5l6 -75q37 -20 87 -33.5t111 -13.5z" />
    <glyph glyph-name="four" unicode="4" horiz-adv-x="617" 
d="M6 160h350q-1 -43 -7 -89.5t-17 -70.5h182q-10 24 -15 70.5t-6 89.5h90l20 127q-22 -7 -51 -12t-59 -8v183l-137 -30v-156h-226l97 168q8 13 16.5 27.5t18 30t19.5 31.5t20 32.5t20.5 32.5t20.5 31.5t19.5 30.5t18.5 28t17 24h-123q-4 -10 -9 -22t-11 -25.5t-13 -27.5
t-14 -29l-14 -30t-14.5 -29.5t-14.5 -28.5t-14 -27t-13 -25z" />
    <glyph glyph-name="five" unicode="5" horiz-adv-x="525" 
d="M230 -12q29 0 56.5 4.5t52 13t46 20.5t40 27.5t32.5 34t24 40t15.5 45.5t5.5 50q0 23 -4.5 43.5t-12.5 39.5t-20 35t-27 29.5t-33 24.5t-38.5 18t-43 11t-47.5 4q-45 0 -83.5 -11.5t-69.5 -33.5l26 207h307l22 128q-8 -2 -17.5 -4t-21 -3.5t-23.5 -3t-24.5 -2.5t-25.5 -2
t-25.5 -1.5t-24 -1t-22.5 -0.5h-203l-48 -372l56 -21q23 22 55.5 36t65.5 14q63 0 102.5 -39.5t39.5 -105.5q0 -69 -42 -113t-107 -44q-45 0 -90.5 14.5t-85.5 38.5l6 -74q35 -21 84 -33.5t103 -12.5z" />
    <glyph glyph-name="six" unicode="6" horiz-adv-x="596" 
d="M321 -13q27 0 51.5 5t46.5 14t41.5 21.5t35.5 29t28.5 36t21.5 41.5t13.5 46.5t4.5 50.5q0 93 -58.5 151t-145.5 58q-54 0 -103 -31t-77 -84q0 36 3 69t8.5 62t13.5 54.5t19 46t25.5 37t32 27.5t38.5 17t46 6q37 0 77 -13.5t74 -40.5l-10 85q-33 18 -73 27t-80 9
q-33 0 -63 -6t-57 -17.5t-50.5 -27.5t-44 -37t-37 -45.5t-29 -53t-21 -60t-13 -65.5t-4.5 -70q0 -38 5 -73t15 -66.5t24.5 -58.5t33 -49.5t41.5 -40t49 -29.5t55.5 -18.5t62.5 -6.5zM308 369q51 0 84.5 -39t33.5 -112q0 -81 -31 -125t-79 -44q-60 0 -94.5 56t-40.5 167
q23 47 57.5 72t69.5 25z" />
    <glyph glyph-name="seven" unicode="7" horiz-adv-x="517" 
d="M124 0h165q0 171 34 315.5t119 269.5l76 115h-483l-22 -134q38 16 88 20.5t99 4.5h191l-25 -34q-98 -131 -161.5 -267.5t-80.5 -289.5z" />
    <glyph glyph-name="eight" unicode="8" horiz-adv-x="570" 
d="M277 -13q30 0 57.5 4t52 12t45.5 19.5t38 26t30.5 31t22.5 35.5t14 40t5 43q0 20 -3.5 37t-10.5 32t-16.5 28.5t-21.5 25t-25.5 22t-28.5 19.5t-31 17.5t-32 16.5q63 19 100.5 60t37.5 94q0 68 -62.5 115.5t-163.5 47.5q-27 0 -51 -4t-45.5 -12t-40 -19t-34 -25
t-27.5 -30t-20 -33.5t-12.5 -37t-4.5 -39.5q0 -71 40.5 -114t94.5 -71q-75 -22 -115.5 -64t-40.5 -102q0 -75 68.5 -125t179.5 -50zM172 556q0 41 30.5 69t80.5 28t84 -29.5t34 -80.5q0 -37 -17.5 -69.5t-54.5 -57.5l-30 14t-29 14.5t-26.5 15t-23.5 15.5t-20 17t-15 19
t-9.5 21t-3.5 24zM145 170q0 40 19.5 74t63.5 62q15 -7 30.5 -14t30 -13.5t28.5 -13.5t26.5 -14.5t23.5 -15.5t19.5 -17t14.5 -19t9.5 -21t3.5 -24q0 -48 -36.5 -77t-94.5 -29q-60 0 -99 33t-39 89z" />
    <glyph glyph-name="nine" unicode="9" horiz-adv-x="596" 
d="M275 711q-27 0 -51.5 -5t-46.5 -14t-41.5 -21.5t-35.5 -29t-28.5 -36t-21.5 -41.5t-13.5 -46.5t-4.5 -50.5q0 -93 58.5 -151t145.5 -58q54 0 103 31t77 84q0 -36 -3 -69t-8.5 -62t-13.5 -54.5t-19 -46t-25.5 -37t-32 -27.5t-38.5 -17t-46 -6q-37 0 -77 13.5t-74 40.5
l10 -85q33 -18 73 -27t80 -9q33 0 63 6t57 17.5t50.5 27.5t44 37t37 45.5t29 53t21 60t13 65.5t4.5 70q0 38 -5 73t-15 66.5t-24.5 58.5t-33 49.5t-41.5 40t-49 29.5t-55.5 18.5t-62.5 6.5zM288 329q-51 0 -84.5 39t-33.5 112q0 81 31 125t79 44q60 0 94.5 -56t40.5 -167
q-23 -47 -57.5 -72t-69.5 -25z" />
    <glyph glyph-name="colon" unicode=":" horiz-adv-x="233" 
d="M117 317q34 0 58.5 24.5t24.5 58.5t-24.5 58.5t-58.5 24.5q-35 0 -59.5 -24.5t-24.5 -58.5t24.5 -58.5t59.5 -24.5zM117 -8q34 0 58.5 24.5t24.5 58.5t-24.5 58.5t-58.5 24.5q-35 0 -59.5 -24.5t-24.5 -58.5t24.5 -58.5t59.5 -24.5z" />
    <glyph glyph-name="semicolon" unicode=";" horiz-adv-x="233" 
d="M117 317q34 0 58.5 24.5t24.5 58.5t-24.5 58.5t-58.5 24.5q-35 0 -59.5 -24.5t-24.5 -58.5t24.5 -58.5t59.5 -24.5zM36 -160q70 37 115 94.5t45 121.5q0 49 -25 75.5t-59 26.5t-56.5 -22.5t-22.5 -52.5q0 -10 1.5 -18t5 -14.5t7.5 -12.5t8.5 -11.5t9 -10.5l9 -10
t8.5 -10.5t7 -11.5t5 -13t2 -15q0 -27 -19 -53.5t-50 -50.5z" />
    <glyph glyph-name="less" unicode="&#x3c;" horiz-adv-x="512" 
d="M454 105v55l-336 190l336 190v55l-428 -245z" />
    <glyph glyph-name="equal" unicode="=" horiz-adv-x="612" 
d="M74 400h464v50h-464v-50zM74 250h464v50h-464v-50z" />
    <glyph glyph-name="greater" unicode="&#x3e;" horiz-adv-x="512" 
d="M58 595v-55l336 -190l-336 -190v-55l428 245z" />
    <glyph glyph-name="question" unicode="?" horiz-adv-x="468" 
d="M235 211l5 7q-12 8 -18.5 19.5t-6.5 24.5q0 9 3 17t8.5 15.5t13 14.5t16.5 14t19.5 14t21.5 14.5t23 15t23.5 16t22.5 17t21.5 18t19.5 20t16.5 22.5t13 25t8.5 27.5t3 30.5q0 78 -59 123.5t-159 45.5q-52 0 -104 -14t-89 -37l-13 -82q39 28 87 45.5t94 17.5
q47 0 75 -25.5t28 -68.5q0 -12 -2.5 -23.5t-7 -22t-11 -20.5t-14 -19.5t-15.5 -18.5t-17 -18t-18 -17.5t-17 -17.5t-15.5 -18t-14 -18.5t-11 -19t-7 -20.5t-2.5 -22q0 -33 21 -55t58 -27zM210 -8q34 0 59 24.5t25 58.5t-25 58.5t-59 24.5t-59 -24.5t-25 -58.5t25 -58.5
t59 -24.5z" />
    <glyph glyph-name="at" unicode="@" horiz-adv-x="752" 
d="M269 60q30 0 59 19t59 62q3 -37 29.5 -58t72.5 -21q20 0 39 4t38 12t36 19t33 26t29.5 32.5t24 37.5t18.5 43t12 48t4 52q0 28 -4.5 53.5t-13.5 49t-22 44.5t-29.5 39t-36.5 33t-42.5 26.5t-48.5 20t-54 12.5t-58 4q-28 0 -55.5 -4.5t-53.5 -12.5t-50.5 -20t-47 -27.5
t-43 -34t-38.5 -40t-33 -45.5t-26.5 -50.5t-19.5 -55t-12.5 -59t-4.5 -62.5q0 -34 5 -65t15 -58.5t23.5 -51t31 -43.5t38.5 -36.5t44.5 -29t49.5 -20.5t54.5 -12.5t57.5 -4.5q57 0 118.5 16.5t101.5 43.5l11 43q-51 -34 -111.5 -52t-116.5 -18q-30 0 -57.5 4.5t-53 14
t-48.5 23.5t-42 32t-34 41t-26 49.5t-16.5 58t-5.5 66.5q0 32 4.5 62t13 58.5t21 54.5t28.5 49.5t35 43.5t40 37t44.5 30.5t49 22.5t52.5 14t55 5q30 0 58 -4.5t52.5 -13.5t46 -21.5t39.5 -29t32 -36.5t24 -43t15 -48.5t5 -54.5q0 -23 -3 -44t-9 -40t-14.5 -36t-18.5 -31.5
t-21.5 -26.5t-24 -21.5t-25.5 -16t-26 -10t-26 -3.5q-19 0 -28 14t0 42l84 273l-67 -12q-20 13 -45 19.5t-52 6.5q-19 0 -37.5 -3.5t-36 -10.5t-33.5 -17t-30.5 -22.5t-27 -27.5t-23.5 -31.5t-19 -34.5t-14 -37.5t-9 -39.5t-3 -40q0 -57 26.5 -90.5t67.5 -33.5zM276 191
q0 12 2 25.5t5.5 27t8.5 27.5t11.5 27t14 25.5t15.5 23.5t17.5 20t19 15.5t20 10t20.5 3.5q12 0 23 -3t21 -9l-60 -192q-1 -2 -1.5 -5t-1.5 -5q-24 -30 -41.5 -44t-33.5 -14q-18 0 -29 17.5t-11 49.5z" />
    <glyph glyph-name="A" unicode="A" horiz-adv-x="666" 
d="M476 0h198q-4 8 -9.5 18t-12 21.5t-13 24.5l-13.5 27l-14 28t-13.5 28.5t-13 28t-12.5 25.5l-242 519l-239 -519q-6 -13 -12 -26.5t-12.5 -27.5t-13.5 -28l-14 -28l-13.5 -27t-12.5 -24.5t-11.5 -21.5t-10.5 -18h122q-2 31 12 83.5t33 95.5h268q19 -43 35 -95.5t14 -83.5
zM187 242l106 239l106 -239h-212z" />
    <glyph glyph-name="B" unicode="B" horiz-adv-x="640" 
d="M54 0h282q131 0 203.5 55t72.5 143q0 65 -45.5 110t-126.5 58q66 16 103 57.5t37 98.5q0 79 -69 128.5t-193 49.5h-266q3 -7 6 -16t5 -19.5t4 -22.5t3.5 -25t2.5 -26l2 -26t1.5 -26t0.5 -24.5v-22.5v-284v-22t-0.5 -25t-1.5 -26t-2 -26.5t-2 -26t-3 -24.5t-4 -23
t-4.5 -19.5t-5.5 -15.5zM307 637q60 0 94 -33.5t34 -88.5q0 -56 -34 -89.5t-95 -33.5h-83v245h84zM329 330q63 0 100 -36t37 -99q0 -61 -37.5 -98t-101.5 -37h-104v270h106z" />
    <glyph glyph-name="C" unicode="C" horiz-adv-x="659" 
d="M32 342q0 -31 4.5 -59.5t13.5 -55.5t21.5 -51.5t29 -46t36 -40.5t42 -34.5t48 -27.5t53 -20.5t57.5 -13t61 -4.5q60 0 119 17.5t105 49.5l8 80q-45 -34 -97.5 -56t-110.5 -22q-25 0 -48 5t-44 14.5t-39.5 24t-34.5 33.5t-28 41.5t-21 49.5t-13.5 58t-4.5 65q0 33 4 63.5
t12 57.5t19.5 50t26 42.5t32.5 34.5t38 25.5t42.5 16t46.5 5.5q64 0 115.5 -28.5t102.5 -84.5l-20 143q-44 2 -91.5 19t-120.5 17q-30 0 -59.5 -4.5t-56.5 -13.5t-52 -21.5t-47.5 -29t-42.5 -36.5t-36.5 -42.5t-29.5 -48t-22 -53.5t-13.5 -57.5t-4.5 -61.5z" />
    <glyph glyph-name="D" unicode="D" horiz-adv-x="728" 
d="M54 0h243q38 0 74 5t69 15t62.5 24.5t55 33.5t47.5 41.5t38.5 49t28.5 56.5t18 62.5t6 68.5q0 33 -6 64.5t-17 60t-27 54t-37 47.5t-46.5 40.5t-55 33t-63 24.5t-70.5 15t-77 5h-245q3 -7 6 -16t5 -19.5t4 -22.5t3.5 -25t2.5 -26l2 -26t1.5 -26t0.5 -24.5v-22.5v-284v-22
t-0.5 -25t-1.5 -26t-2 -26.5t-2 -26t-3 -24.5t-4 -23t-4.5 -19.5t-5.5 -15.5zM299 634q107 0 174 -77.5t67 -205.5q0 -131 -67 -209t-174 -78h-73v570h73z" />
    <glyph glyph-name="E" unicode="E" horiz-adv-x="574" 
d="M54 0h482l16 111q-12 -6 -26 -11t-29 -9.5t-31 -8t-32.5 -6.5t-33 -5.5t-32 -4t-30 -2.5t-28 -1.5t-24.5 -0.5h-62v261h36q50 0 90 -5.5t86 -18.5l-22 111q-38 -11 -75.5 -18t-82.5 -7h-32v250h59q56 0 125.5 -9t125.5 -38l-18 112h-464q3 -7 6 -16t5 -19.5t4 -22.5
t3.5 -25t2.5 -26l2 -26t1.5 -26t0.5 -24.5v-22.5v-284v-22t-0.5 -25t-1.5 -26t-2 -26.5t-2 -26t-3 -24.5t-4 -23t-4.5 -19.5t-5.5 -15.5z" />
    <glyph glyph-name="F" unicode="F" horiz-adv-x="550" 
d="M54 0h196q-3 7 -5.5 15.5t-5 19.5t-4 22.5t-3 24.5t-2.5 26l-2 26t-1.5 26t-0.5 25v22v113h38q49 0 89.5 -5.5t86.5 -18.5l-22 111q-38 -11 -76 -18t-83 -7h-33v253h58q55 0 124.5 -9t125.5 -38l-18 112h-464q3 -7 6 -16t5 -19.5t4 -22.5t3.5 -25t2.5 -26l2 -26t1.5 -26
t0.5 -24.5v-22.5v-284v-22t-0.5 -25t-1.5 -26.5t-2 -26.5l-2 -26t-3 -25t-4 -22.5t-4.5 -19t-5.5 -15.5z" />
    <glyph glyph-name="G" unicode="G" horiz-adv-x="736" 
d="M414 -11q68 0 142.5 19t134.5 50q-4 25 -7 57t-3 62v28q0 43 4 77t15 62h-175q10 -27 14 -59t4 -79v-134q-28 -10 -57 -15t-60 -5q-26 0 -49.5 5t-45 15.5t-40.5 25t-35 33.5t-28.5 42t-21 50t-13 57.5t-4.5 63.5q0 35 4.5 66.5t13 59.5t20.5 51.5t27.5 43t34 34t39 25
t43.5 15.5t48 5q63 0 117.5 -27.5t108.5 -87.5l-21 144q-11 1 -22.5 2.5t-23 4.5l-23 6t-24.5 6.5t-26.5 6.5t-28.5 5.5t-32 4t-36 1.5q-33 0 -64.5 -4.5t-60 -13.5t-55 -22t-49.5 -30t-42.5 -36.5t-36 -42t-29.5 -48t-21.5 -52.5t-13 -56.5t-4.5 -59.5q0 -36 5.5 -69
t17 -62.5t27 -56t36 -49.5t45.5 -41.5t53 -33t60 -24.5t66.5 -15t71.5 -5z" />
    <glyph glyph-name="H" unicode="H" horiz-adv-x="724" 
d="M54 0h194q-3 7 -5.5 15.5t-4.5 19t-3.5 22.5t-3 25t-2.5 26t-1.5 26.5t-1 26.5t-0.5 25v22v117h272v-117v-22t-0.5 -25t-1.5 -26.5t-2 -26.5l-2 -26t-2.5 -25t-3.5 -22.5t-4.5 -19t-5.5 -15.5h194q-3 7 -5.5 15.5t-4.5 19t-4 22.5t-3 25l-2 26t-2 26.5t-1.5 26.5t-0.5 25
v22v284v22.5t0.5 24.5t1.5 26.5t2 26.5l2 26t3 25t4 22.5t4.5 19.5t5.5 15h-194q3 -6 5.5 -15t4.5 -19.5t3.5 -22.5t2.5 -25l2 -26t2 -26.5t1.5 -26.5t0.5 -25v-22v-101h-272v101v22.5t0.5 24.5t1 26.5t1.5 26.5t2.5 26t3 25t3.5 22.5t4.5 19.5t5.5 15h-194q3 -6 5.5 -15
t4.5 -19.5t4 -22.5t3 -25l2 -26t2 -26.5t1.5 -26.5t0.5 -25v-22v-284v-22t-0.5 -25t-1.5 -26.5t-2 -26.5l-2 -26t-3 -25t-4 -22.5t-4.5 -19t-5.5 -15.5z" />
    <glyph glyph-name="I" unicode="I" horiz-adv-x="302" 
d="M54 0h194q-3 7 -5.5 15.5t-4.5 19t-3.5 22.5t-3 25t-2.5 26t-1.5 26.5t-1 26.5t-0.5 25v22v284v22.5t0.5 24.5t1 26.5t1.5 26.5t2.5 26t3 25t3.5 22.5t4.5 19.5t5.5 15h-194q3 -6 5.5 -15t4.5 -19.5t4 -22.5t3 -25l2 -26t2 -26.5t1.5 -26.5t0.5 -25v-22v-284v-22
t-0.5 -25t-1.5 -26.5t-2 -26.5l-2 -26t-3 -25t-4 -22.5t-4.5 -19t-5.5 -15.5z" />
    <glyph glyph-name="J" unicode="J" horiz-adv-x="297" 
d="M28 -205q88 0 141.5 55t53.5 147v495v22.5t0.5 24.5t1.5 26.5t2 26.5l2 26t2.5 25t3.5 22.5t4.5 19.5t5.5 15h-195q3 -7 5.5 -15.5t4.5 -19.5t4 -23t3.5 -24.5t2.5 -26t2 -26.5t1.5 -26t0.5 -24.5v-22.5v-551q0 -41 -18 -61.5t-50 -20.5q-16 0 -34.5 5.5t-35.5 15.5
l8 -67q17 -8 38.5 -13t45.5 -5z" />
    <glyph glyph-name="K" unicode="K" horiz-adv-x="667" 
d="M54 0h194q-3 7 -5.5 15.5t-4.5 19t-4 22.5t-3 25l-2 26t-2 26.5t-1.5 26.5t-0.5 25v22v284v22.5t0.5 24.5t1.5 26.5t2 26.5l2 26t3 25t4 22.5t4.5 19.5t5.5 15h-194q3 -6 5.5 -15t4.5 -19.5t4 -22.5t3 -25l2 -26t2 -26.5t1.5 -26.5t0.5 -25v-22v-284v-22t-0.5 -25
t-1.5 -26.5t-2 -26.5l-2 -26t-3 -25t-4 -22.5t-4.5 -19t-5.5 -15.5zM470 0h207q-22 27 -56.5 69.5t-65.5 84.5l-173 237l130 155q40 46 76.5 87.5t63.5 66.5h-133q0 -25 -21.5 -60t-52.5 -75l-192 -230l142 -193q31 -42 52 -79.5t23 -62.5z" />
    <glyph glyph-name="L" unicode="L" horiz-adv-x="567" 
d="M54 0h482l16 111q-12 -6 -25.5 -11t-28.5 -9.5t-31 -8t-32.5 -6.5t-33 -5t-32 -3.5t-30.5 -2.5t-28.5 -1.5t-24.5 -0.5h-60v429v22.5t0.5 24.5t1.5 26t2 26.5t2.5 26t3 24.5t4 23t5 19.5t5.5 15.5h-196q3 -6 5.5 -15t4.5 -19.5t4 -22.5t3 -25l2 -26t2 -26.5t1.5 -26.5
t0.5 -25v-22v-284v-22t-0.5 -25t-1.5 -26t-2 -26.5t-2.5 -26t-3 -24.5t-3.5 -23t-4.5 -19.5t-5.5 -15.5z" />
    <glyph glyph-name="M" unicode="M" horiz-adv-x="838" 
d="M51 0h122q-3 7 -5.5 15.5t-5 19.5t-4 22.5t-3 24.5l-3 26t-2 26l-1 26t-1 25t-0.5 22l-2 204l244 -312l229 310l-1 -202v-22t-0.5 -25t-1.5 -26t-2 -26.5t-2.5 -26t-3 -24.5t-3.5 -22.5t-4.5 -19t-5.5 -15.5h191q-3 7 -5.5 15.5t-4.5 19t-4 22.5t-3 24.5t-2 26t-2 26.5
t-1.5 26t-0.5 24.5v22.5v511l-328 -447l-359 447v-511q0 -10 -0.5 -22t-1 -25l-1 -26t-2 -26l-3 -26t-3 -24.5t-4 -22.5t-5 -19.5t-5.5 -15.5z" />
    <glyph glyph-name="N" unicode="N" horiz-adv-x="724" 
d="M648 493q0 11 0.5 22.5t1 24.5l1 26t2 26l3 26t3 24.5t4 22.5t5 19.5t5.5 15.5h-123q3 -7 6 -17.5t5.5 -22.5t4.5 -25.5t3.5 -27.5t2.5 -28.5l2 -29t1.5 -28t0.5 -25.5l1 -243l-8 7l-493 456v-509q0 -10 -0.5 -22t-1 -25l-1 -26t-2 -26l-3 -26t-3 -24.5t-4 -22.5
t-5 -19.5t-5.5 -15.5h123q-3 7 -6 16.5t-5.5 20.5t-4.5 23.5t-3.5 25.5t-3 26.5t-2 26.5t-1 25.5t-0.5 23.5l-1 259l6 -6l495 -457v509z" />
    <glyph glyph-name="O" unicode="O" horiz-adv-x="785" 
d="M752 350q0 32 -4.5 62.5t-13.5 58t-22 53t-29 47.5t-35.5 41.5t-42 35t-47 28t-51 20.5t-55 12.5t-58.5 4.5t-58.5 -4.5t-55.5 -13t-51.5 -21t-47 -28.5t-42.5 -35t-36.5 -41.5t-29.5 -47.5t-22 -52.5t-14 -57t-5 -61.5q0 -33 4.5 -63t13.5 -58t22 -53.5t29.5 -47.5
t36 -41.5t42 -35t47 -28t51 -20.5t55 -12.5t57.5 -4.5q30 0 58.5 4.5t55.5 13t52 21t47.5 28.5t42.5 35t36.5 41.5t29.5 47.5t22 52.5t13.5 57.5t4.5 62zM190 350q0 36 4 68t12 60t18.5 51t24.5 41.5t30.5 33t34.5 23.5t38.5 14t41.5 5q24 0 47 -6.5t43 -19t37 -31
t30.5 -42.5t23.5 -54t15 -66t5 -77q0 -42 -5 -77.5t-15 -66t-24 -55t-31.5 -43t-38 -30.5t-43.5 -18.5t-48 -6.5q-21 0 -40.5 5t-38 14.5t-34 24t-29.5 33t-24.5 42t-18 51t-11.5 59.5t-4 68z" />
    <glyph glyph-name="P" unicode="P" horiz-adv-x="614" 
d="M54 0h196q-3 7 -5.5 15.5t-5 19.5t-4 23t-3 24.5t-2.5 26t-2 26.5t-1.5 26t-0.5 25v22v76h84q125 0 201 58t76 154q0 91 -73 147.5t-200 56.5h-262q3 -7 5.5 -15.5t5 -19.5t4 -23t3 -24.5t3 -26t2 -26.5l1 -26t1 -24.5t0.5 -22.5v-284v-22t-0.5 -25t-1.5 -26.5t-2 -26.5
l-2 -26t-3 -25t-4 -22.5t-4.5 -19t-5.5 -15.5zM302 635q64 0 101 -38t37 -104q0 -68 -37.5 -106.5t-102.5 -38.5h-74v287h76z" />
    <glyph glyph-name="Q" unicode="Q" horiz-adv-x="784" 
d="M600 -176q36 0 70.5 6t60.5 18l13 70q-27 -12 -56 -18t-56 -6q-52 0 -94.5 28t-61.5 79q29 7 56.5 18t52.5 26.5t47 34.5t40.5 41.5t33.5 48.5t25 54.5t15.5 60t5.5 65.5q0 32 -4.5 62.5t-13.5 58t-22 53t-29.5 47.5t-36 41.5t-42 35t-47 28t-51 20.5t-55 12.5t-57.5 4.5
q-30 0 -58.5 -4.5t-55.5 -13t-51.5 -21t-47 -28.5t-42.5 -35t-36.5 -41.5t-29.5 -47.5t-22 -52.5t-14 -57t-5 -61.5t4.5 -62t13.5 -57.5t21 -52.5t28 -47t35 -41t40.5 -35t45.5 -28.5t50 -21t53 -13.5q32 -77 106.5 -123t170.5 -46zM190 350q0 36 4 68t12 60t18.5 51
t24.5 41.5t30.5 33t34.5 23.5t38.5 14t41.5 5q24 0 46.5 -6.5t42.5 -19t37 -31t31 -42.5t23.5 -54t14.5 -66t5 -77q0 -42 -5 -77.5t-15 -66t-24 -55t-31.5 -43t-38 -30.5t-43 -18.5t-47.5 -6.5q-21 0 -40.5 5t-38 14.5t-34 24t-29.5 33t-24.5 42t-18 51t-11.5 59.5t-4 68z
" />
    <glyph glyph-name="R" unicode="R" horiz-adv-x="646" 
d="M54 0h192q-3 7 -5.5 15.5t-4.5 19t-4 22.5t-3 25l-2 26t-2 26.5t-1.5 26.5t-0.5 25v22v101h75l181 -309h171q-5 6 -10.5 14t-12 17t-13.5 19t-14 20.5t-14.5 21t-14 21t-13 20.5t-11.5 19l-106 175q64 22 103.5 68.5t39.5 112.5q0 87 -70.5 139.5t-197.5 52.5h-264
q3 -7 6 -16t5 -20t4 -23t3.5 -25t2.5 -26.5l2 -27t1.5 -27t0.5 -26v-23.5v-278v-22t-0.5 -25t-1.5 -26.5t-2 -26.5l-2 -26t-3 -25t-4 -22.5t-4.5 -19t-5.5 -15.5zM306 635q61 0 97 -34t36 -96t-37 -97.5t-98 -35.5h-81v263h83z" />
    <glyph glyph-name="S" unicode="S" horiz-adv-x="534" 
d="M260 -10q27 0 51.5 4.5t47 12.5t42 19.5t36 26.5t29.5 32.5t22 37.5t13.5 42t4.5 46q0 20 -3.5 37.5t-10 33t-15.5 28.5t-20.5 24.5t-24.5 21t-27 18t-29 16t-30.5 14.5t-31 13.5t-30.5 13t-29.5 13t-27.5 13.5t-24 14.5t-20 16.5t-15.5 19t-10 21.5t-3.5 25.5
q0 40 27.5 66.5t79.5 26.5q50 0 103.5 -26t107.5 -73l-22 130q-40 0 -88.5 15t-105.5 15q-26 0 -49.5 -4t-44 -12t-38.5 -19.5t-33 -25.5t-26.5 -31t-19.5 -35.5t-11.5 -39t-3.5 -41.5q0 -22 3.5 -40.5t10 -34.5t15.5 -30t20 -26t24 -22t27 -19t29 -17t30.5 -15t31 -13.5
t30.5 -13t29 -13t27 -13t24 -14t20 -16t15.5 -18.5t10 -21t3.5 -24q1 -43 -33.5 -71.5t-86.5 -28.5t-111 25.5t-128 86.5l24 -136q12 0 23.5 -1.5t23 -4t23.5 -6t24.5 -6.5t26.5 -6.5t28.5 -6t31 -4t34.5 -1.5z" />
    <glyph glyph-name="T" unicode="T" horiz-adv-x="626" 
d="M215 0h196q-3 7 -5.5 15.5t-4.5 19.5t-4 23t-3.5 24.5t-2.5 26t-2 26.5t-1.5 26t-0.5 25v22v428h18q54 0 110 -10t107 -38l-18 112h-582l-18 -112q51 28 107.5 38t109.5 10h18v-428v-22t-0.5 -25t-1.5 -26t-2 -26.5t-2.5 -26t-3.5 -24.5t-4 -23t-4.5 -19.5t-5.5 -15.5z
" />
    <glyph glyph-name="U" unicode="U" horiz-adv-x="710" 
d="M355 -13q130 0 207 76t77 209v220q0 11 0.5 22.5t1 24.5l1 26t2 26.5t3 26t3 24.5t4 23t5 19.5t5.5 15.5h-124q3 -7 6 -15.5t5 -19.5t4 -23t3.5 -24.5t3 -26t2 -26.5l1 -26t1 -24.5t0.5 -22.5v-220q0 -100 -51 -152t-127 -52q-73 0 -122 48t-49 138v238v22.5t0.5 24.5
t1.5 26.5t2 26.5l2 26t3 25t4 22.5t4.5 19.5t5.5 15h-194q3 -6 5.5 -15t4.5 -19.5t3.5 -22.5t2.5 -25l2 -26t2 -26.5t1.5 -26.5t0.5 -25v-22v-243q0 -125 78 -193.5t209 -68.5z" />
    <glyph glyph-name="V" unicode="V" horiz-adv-x="666" 
d="M574 499q6 13 12 26.5t12.5 27.5t13.5 28l14 28l13.5 27t12.5 24.5t11.5 21.5t10.5 18h-122q0 -8 -0.5 -18t-2.5 -21.5t-5 -24t-6.5 -25.5t-7.5 -26t-9 -25.5t-9.5 -24.5t-9.5 -23l-129 -289l-128 289q-5 11 -10 23t-9.5 25l-9 26t-8.5 25.5t-7 25t-5 24t-3 21.5t-1 18
h-200q5 -8 10 -18t11.5 -21.5t13 -24.5l13.5 -27l14 -28t13.5 -28t13 -27.5t12.5 -26.5l242 -519z" />
    <glyph glyph-name="W" unicode="W" horiz-adv-x="940" 
d="M858 508q19 53 40 106.5t37 85.5h-113q6 -32 -4.5 -79t-25.5 -93l-88 -269l-200 463l-184 -463l-92 269q-15 45 -26 92.5t-6 79.5h-191q16 -32 37 -85.5t40 -106.5l190 -528l192 477l210 -477z" />
    <glyph glyph-name="X" unicode="X" horiz-adv-x="640" 
d="M4 0h123q0 29 19 69t50 84l89 125l81 -123q29 -45 47.5 -86t18.5 -69h212q-23 30 -54.5 76t-62.5 94l-140 211l108 150q34 46 67 92.5t58 76.5h-122q-1 -29 -20 -69t-50 -84l-79 -111l-71 109q-29 44 -48 85.5t-18 69.5h-212q22 -30 54 -76t63 -94l130 -197l-117 -164
q-34 -46 -67.5 -92.5t-58.5 -76.5z" />
    <glyph glyph-name="Y" unicode="Y" horiz-adv-x="661" 
d="M235 0h197q-3 7 -5.5 16.5t-4.5 21.5t-4 25t-3.5 27.5t-2.5 29l-2 29t-1.5 29t-0.5 27.5v24v50l162 269q25 43 51 84t45 68h-120q1 -25 -12 -62.5t-34 -73.5l-126 -215l-127 215q-22 36 -36 73.5t-11 62.5h-206q19 -27 45 -68t52 -84l168 -276v-43v-24t-0.5 -27.5
t-1.5 -29l-2 -29t-2.5 -29t-3.5 -27.5t-4 -25t-4.5 -21.5t-5.5 -16.5z" />
    <glyph glyph-name="Z" unicode="Z" horiz-adv-x="574" 
d="M546 0l17 111q-13 -6 -27.5 -11.5t-30 -10t-32.5 -8.5t-34 -7t-34 -5t-33.5 -3.5t-32 -2.5t-29.5 -1h-118l378 638h-524l-18 -111q50 28 118 37t128 9h103l-377 -635h546z" />
    <glyph glyph-name="bracketleft" unicode="[" horiz-adv-x="398" 
d="M80 -160h298v52h-166v826h166v52h-298v-930z" />
    <glyph glyph-name="backslash" unicode="\" horiz-adv-x="518" 
d="M516 -200h81l-531 966h-81z" />
    <glyph glyph-name="bracketright" unicode="]" horiz-adv-x="398" 
d="M318 -160h-298v52h166v826h-166v52h298v-930z" />
    <glyph glyph-name="asciicircum" unicode="^" horiz-adv-x="492" 
d="M20 334h72l153 275l152 -275h75l-226 396z" />
    <glyph glyph-name="underscore" unicode="_" horiz-adv-x="463" 
d="M-5 -120h467l8 58h-467z" />
    <glyph glyph-name="grave" unicode="`" 
d="M259 554h39l-74 178h-152z" />
    <glyph glyph-name="a" unicode="a" horiz-adv-x="526" 
d="M175 -11q49 0 90 28.5t65 69.5q1 -26 4.5 -53t7.5 -41l145 14q-12 20 -17 59t-5 68v194q0 89 -51.5 137t-152.5 48q-49 0 -97 -12.5t-89 -35.5l-11 -75q47 30 86.5 44t75.5 14q49 0 76 -25t27 -77v-59l-126 -21q-89 -15 -130 -52t-41 -94t40 -94t103 -37zM161 134
q0 31 20.5 55t66.5 32l81 16v-114q-18 -23 -44.5 -41t-54.5 -18q-31 0 -50 19.5t-19 50.5z" />
    <glyph glyph-name="b" unicode="b" horiz-adv-x="573" 
d="M296 -11q23 0 45 4t42.5 11.5t39 19t35 26t30.5 32t25 38t18.5 43.5t11.5 48.5t4 53.5t-4 54t-11.5 48.5t-18.5 42.5t-25 36t-30.5 29t-35 21.5t-39 13t-42.5 4.5q-44 0 -81.5 -22t-61.5 -62v296l-159 -23q3 -7 6 -16t5 -19t3.5 -21t2.5 -23t2 -23.5t1.5 -23t0.5 -22.5
v-21v-539l99 33q28 -19 63 -29t74 -10zM292 438q50 0 82 -49.5t32 -136.5q0 -99 -37 -152.5t-95 -53.5q-19 0 -39 6.5t-37 18.5v313q20 25 43.5 39.5t50.5 14.5z" />
    <glyph glyph-name="c" unicode="c" horiz-adv-x="468" 
d="M286 -10q41 0 81 11.5t69 30.5l8 68q-27 -22 -60 -36t-66 -14q-65 0 -108.5 52t-43.5 146q0 96 39.5 150t100.5 54q39 0 72 -18.5t66 -55.5l-16 114q-34 -1 -67 9.5t-82 10.5q-23 0 -45 -4t-42.5 -11.5t-39 -19t-35.5 -25.5t-31 -31.5t-25 -37t-19 -42t-12 -46.5t-4 -50
q0 -28 5 -54t14.5 -49.5t23 -43.5t31 -37t38.5 -30t44.5 -22.5t49.5 -14t54 -4.5z" />
    <glyph glyph-name="d" unicode="d" horiz-adv-x="579" 
d="M226 -11q46 0 86.5 24t64.5 66v-85l159 14q-3 7 -5.5 16t-4.5 19.5t-3.5 21.5t-2.5 23t-2 23.5t-1.5 23t-0.5 22.5v21v548l-160 -23q3 -7 6 -16t5 -19t3.5 -21t2.5 -23t2 -23.5t1.5 -23t0.5 -22.5v-21v-86q-23 32 -58 49t-73 17q-20 0 -39 -4t-37 -11.5t-34.5 -18.5
t-31 -25t-26.5 -31t-21.5 -37t-16.5 -42t-10.5 -46.5t-3.5 -50.5q0 -30 4 -56.5t11.5 -50.5t18 -44.5t24.5 -37.5t29.5 -30t34 -22t38 -13.5t40.5 -4.5zM167 253q0 88 33.5 138.5t85.5 50.5q26 0 49.5 -12t41.5 -35v-275q-20 -28 -44.5 -42t-51.5 -14q-51 0 -82.5 50
t-31.5 139z" />
    <glyph glyph-name="e" unicode="e" horiz-adv-x="524" 
d="M292 -12q48 0 94 13.5t77 35.5l9 67q-34 -25 -72.5 -38t-76.5 -13q-69 0 -111.5 50.5t-45.5 146.5h333q-1 119 -63 191.5t-169 72.5q-23 0 -45 -4t-42 -12t-38 -19.5t-33.5 -25.5t-28.5 -31t-23 -36.5t-17 -41t-10.5 -44.5t-3.5 -48q0 -29 5 -56t14.5 -51t23 -45
t31 -38.5t39 -31t45.5 -23t51 -14.5t57 -5zM268 456q40 0 67.5 -36t34.5 -114h-203q5 72 32 111t69 39z" />
    <glyph glyph-name="f" unicode="f" horiz-adv-x="361" 
d="M80 0h179q-12 28 -16.5 77.5t-4.5 92.5v277h112v56h-113q-1 24 -3 48.5t-2 48.5q0 33 15 52t45 19q16 0 34 -5.5t34 -15.5l-9 70q-17 9 -40.5 13.5t-44.5 4.5q-78 0 -122 -47t-44 -131v-57h-85l-13 -56h98v-277q0 -43 -4.5 -92.5t-15.5 -77.5z" />
    <glyph glyph-name="g" unicode="g" horiz-adv-x="538" 
d="M257 151q99 0 162 52t63 130q0 34 -12 63.5t-34 52.5q25 5 53 5.5t55 -4.5l-11 118q-40 -1 -73 -28t-48 -71q-28 22 -66.5 33.5t-84.5 11.5q-99 0 -162 -52t-63 -132q0 -56 33.5 -99t90.5 -64q-54 -10 -84 -39t-30 -66q0 -31 20.5 -55t59.5 -37q-66 -9 -97.5 -32
t-31.5 -54q0 -41 57 -69t165 -28q37 0 70 4t62 11t53 17t43.5 23t34.5 27t25.5 30t15.5 33t5 34q0 45 -32.5 70.5t-95.5 29.5l-184 11q-32 1 -47 12t-15 27q0 13 11 24t32 17q14 -3 29 -4.5t31 -1.5zM259 197q-38 0 -62.5 35t-24.5 100q0 66 24 100.5t63 34.5q38 0 62.5 -35
t24.5 -101q0 -65 -24 -99.5t-63 -34.5zM103 -106q0 20 16.5 37.5t49.5 28.5q5 -1 10.5 -1.5t10.5 -0.5l169 -12q25 -1 36.5 -10t11.5 -24q0 -31 -49.5 -55.5t-126.5 -24.5q-62 0 -95 16.5t-33 45.5z" />
    <glyph glyph-name="h" unicode="h" horiz-adv-x="575" 
d="M44 0h176q-3 7 -5 15.5t-3.5 19t-3 21.5t-2.5 23t-2 24.5t-1.5 24t-0.5 23v21.5v206q20 25 44 40t52 15q33 0 55.5 -22t22.5 -65v-174v-21.5t-0.5 -23t-1.5 -24t-2 -24.5t-2.5 -23t-3 -21.5t-3.5 -19t-5 -15.5h176q-3 7 -5.5 16t-4.5 19.5t-3.5 22t-2.5 23.5t-2 24.5
t-1.5 25t-0.5 24v22.5v172q0 78 -42.5 121.5t-111.5 43.5q-51 0 -91.5 -26.5t-66.5 -69.5v308l-159 -23q3 -7 5.5 -16t5 -19t4 -21t2.5 -23t2 -23.5t1.5 -23t0.5 -22.5v-21v-357v-22.5t-0.5 -24t-1.5 -25t-2 -24.5t-2.5 -23.5t-3.5 -22t-4.5 -19.5t-5.5 -16z" />
    <glyph glyph-name="i" unicode="i" horiz-adv-x="266" 
d="M132 567q34 0 57.5 23.5t23.5 57.5q0 33 -23.5 56.5t-57.5 23.5q-36 0 -59 -23.5t-23 -56.5q0 -34 23 -57.5t59 -23.5zM44 0h178q-3 7 -5.5 16t-4.5 19.5t-3.5 22t-2.5 23.5t-2 24.5t-1.5 25t-0.5 24v22.5v331l-159 -24q3 -7 5.5 -16t5 -19t4 -21.5t2.5 -23l2 -23
t1.5 -23.5t0.5 -22.5v-20.5v-138v-22.5t-0.5 -24t-1.5 -25t-2 -24.5t-2.5 -23.5t-3.5 -22t-4.5 -19.5t-5.5 -16z" />
    <glyph glyph-name="j" unicode="j" horiz-adv-x="262" 
d="M132 567q34 0 57.5 23.5t23.5 57.5q0 33 -23.5 56.5t-57.5 23.5q-36 0 -59 -23.5t-23 -56.5q0 -34 23 -57.5t59 -23.5zM38 -206q76 0 120 43t44 121v550l-159 -24q3 -7 5.5 -16t5 -19t4 -21.5t2.5 -23l2 -23t1.5 -23.5t0.5 -22.5v-20.5v-399q0 -28 -13.5 -43.5
t-38.5 -15.5q-14 0 -28.5 3.5t-27.5 8.5l6 -61q16 -7 36 -10.5t40 -3.5z" />
    <glyph glyph-name="k" unicode="k" horiz-adv-x="542" 
d="M44 0h176q-3 7 -5 15.5t-3.5 19t-3 21.5t-2.5 23t-2 24.5t-1.5 24t-0.5 23v21.5v554l-159 -23q3 -7 5.5 -16t5 -19t4 -21t2.5 -23t2 -23.5t1.5 -23t0.5 -22.5v-21v-357v-22.5t-0.5 -24t-1.5 -25t-2 -24.5t-2.5 -23.5t-3.5 -22t-4.5 -19.5t-5.5 -16zM371 0h181
q-21 26 -48.5 63.5t-55.5 77.5l-104 151l72 83q31 34 63 69t57 59h-117q-4 -25 -22 -55t-46 -61l-126 -144l90 -129q23 -34 37.5 -62.5t18.5 -51.5z" />
    <glyph glyph-name="l" unicode="l" horiz-adv-x="266" 
d="M44 0h178q-3 7 -5.5 16t-4.5 19.5t-3.5 22t-2.5 23.5t-2 24.5t-1.5 25t-0.5 24v22.5v549l-159 -23q3 -7 5.5 -16t5 -19t4 -21t2.5 -23t2 -23.5t1.5 -23t0.5 -22.5v-21v-357v-22.5t-0.5 -24t-1.5 -25t-2 -24.5t-2.5 -23.5t-3.5 -22t-4.5 -19.5t-5.5 -16z" />
    <glyph glyph-name="m" unicode="m" horiz-adv-x="876" 
d="M44 0h175q-3 8 -5 18t-4 21.5t-3 24t-2 25.5t-1.5 26.5t-1 26t-0.5 24.5v213q19 23 42 38.5t51 15.5q32 0 53.5 -23t21.5 -68v-176q0 -12 -0.5 -24.5t-1 -26t-1.5 -26.5t-2 -25.5t-3 -24t-4.5 -21.5t-5.5 -18h175q-11 28 -15 77.5t-4 92.5v185v13.5t-1 12.5
q19 23 42 37.5t51 14.5q33 0 54.5 -23t21.5 -68v-176q0 -12 -0.5 -24.5t-1 -26t-1.5 -26.5t-2 -25.5t-3 -24t-4.5 -21.5t-5.5 -18h176q-12 28 -16 77.5t-4 92.5v184q0 75 -41.5 117.5t-108.5 42.5q-54 0 -96.5 -27.5t-67.5 -70.5q-15 47 -51.5 72.5t-87.5 25.5t-92 -26
t-67 -68v88l-159 -24q13 -28 17 -75.5t4 -86.5v-152q0 -43 -4 -92.5t-16 -77.5z" />
    <glyph glyph-name="n" unicode="n" horiz-adv-x="575" 
d="M44 0h176q-3 7 -5 15.5t-3.5 19t-3 21.5t-2.5 23t-2 24.5t-1.5 24t-0.5 23v21.5v206q20 25 44 40t52 15q33 0 55.5 -22t22.5 -65v-174v-21.5t-0.5 -23t-1.5 -24t-2 -24.5t-2.5 -23t-3 -21.5t-3.5 -19t-5 -15.5h176q-3 7 -5.5 16t-4 19.5t-3 22t-3 23.5t-2 24.5t-1.5 25
t-1 24v22.5v172q0 78 -42.5 121.5t-111.5 43.5q-51 0 -91.5 -26.5t-66.5 -69.5v90l-159 -24q3 -7 5.5 -16t5 -19t4 -21.5t2.5 -23l2 -23t1.5 -23.5t0.5 -22.5v-20.5v-138v-22.5t-0.5 -24t-1.5 -25t-2 -24.5t-2.5 -23.5t-3.5 -22t-4.5 -19.5t-5.5 -16z" />
    <glyph glyph-name="o" unicode="o" horiz-adv-x="563" 
d="M282 -11q24 0 47 4t44 11.5t40 19t35.5 25.5t30.5 31t24.5 36.5t18 41.5t11.5 45.5t4 49.5q0 25 -4 48.5t-11.5 45t-18 41t-24.5 36.5t-30.5 31t-35 25t-40 18.5t-44 11.5t-47.5 4q-24 0 -47 -4t-44 -11.5t-40 -18.5t-35.5 -25.5t-30.5 -31.5t-25 -36.5t-18.5 -41
t-11.5 -45.5t-4 -50q0 -25 4 -49t11.5 -45.5t18.5 -41t24.5 -36t30 -30.5t35.5 -25t40.5 -18.5t44.5 -11.5t47 -4zM283 47q-51 0 -83 52t-32 151q0 100 31.5 152t80.5 52q51 0 83 -52t32 -152q0 -99 -31 -151t-81 -52z" />
    <glyph glyph-name="p" unicode="p" horiz-adv-x="579" 
d="M44 -200h178q-3 7 -5.5 16t-4.5 19.5t-3.5 22t-2.5 23.5t-2 24.5t-1.5 25t-0.5 24v22.5v78q23 -32 58 -49t73 -17q20 0 39 4t37 11.5t34.5 18.5t31 25t26.5 31t21.5 37t16.5 42t10.5 47t3.5 51q0 30 -4 56.5t-11.5 50.5t-18 44t-24 37t-29.5 30t-34 22t-38 13.5t-41 4.5
q-46 0 -86.5 -24t-64.5 -66v84l-159 -24q3 -7 5.5 -16t5 -19t4 -21.5t2.5 -23l2 -23t1.5 -23.5t0.5 -22.5v-20.5v-338v-22.5t-0.5 -24t-1.5 -25t-2 -24.5t-2.5 -23.5t-3.5 -22t-4.5 -19.5t-5.5 -16zM298 438q51 0 82.5 -50t31.5 -137q0 -89 -33 -140t-86 -51q-26 0 -49 12.5
t-42 35.5v274q20 28 44.5 42t51.5 14z" />
    <glyph glyph-name="q" unicode="q" horiz-adv-x="571" 
d="M354 -200h178q-3 7 -5 16t-4 19.5t-3.5 22t-2.5 23.5t-2 24.5t-1.5 25t-0.5 24v22.5v531l-118 -22q-25 13 -55.5 20.5t-63.5 7.5q-23 0 -45 -4t-42.5 -11.5t-39 -19t-34.5 -26t-30 -32t-25 -38t-18.5 -43.5t-11.5 -48.5t-4 -53.5t4 -53.5t12 -48.5t19 -42.5t24.5 -36
t30 -29t35 -21.5t39 -13.5t42.5 -4.5q43 0 80.5 22t61.5 60v-94v-22.5t-0.5 -24t-1.5 -25t-2 -24.5t-2.5 -23.5t-3.5 -22t-4.5 -19.5t-5.5 -16zM167 252q0 98 37 151t94 53q19 0 39 -6.5t37 -16.5v-315q-19 -25 -43 -39t-51 -14q-49 0 -81 50t-32 137z" />
    <glyph glyph-name="r" unicode="r" horiz-adv-x="399" 
d="M44 0h179q-12 28 -16.5 77t-4.5 92v164q22 37 50 58.5t64 21.5q19 0 35.5 -4t32.5 -11l-6 111q-6 3 -17 5t-23 2q-40 0 -77 -34t-59 -106v132l-159 -24q13 -28 17 -75.5t4 -86.5v-152q0 -43 -4 -92.5t-16 -77.5z" />
    <glyph glyph-name="s" unicode="s" horiz-adv-x="437" 
d="M218 -10q20 0 39 3t36 9t32.5 15t28.5 20t23.5 24t17.5 28.5t11 32.5t4 35q0 16 -3 30.5t-8.5 26.5t-13 22t-16.5 18.5t-20 16t-22.5 13.5t-23.5 11.5t-24.5 10t-24.5 9t-23.5 9t-22.5 9.5t-20 10t-16.5 10.5t-13 12.5t-8.5 15t-3 17q0 27 20.5 43.5t54.5 16.5
q36 0 77 -18.5t86 -61.5l-19 114q-29 -1 -66.5 10t-83.5 11q-78 0 -129 -46.5t-51 -112.5q0 -17 3 -31.5t8.5 -26.5t13 -22.5t16.5 -19.5t19.5 -16t22 -13.5t24 -12t24.5 -10.5t24.5 -9.5t24 -9t22 -9t19.5 -9.5t16.5 -11t13 -12.5t8.5 -14.5t3 -17q0 -29 -23 -47.5
t-63 -18.5q-45 0 -90.5 21t-93.5 67l21 -118q35 2 74.5 -11t94.5 -13z" />
    <glyph glyph-name="t" unicode="t" horiz-adv-x="361" 
d="M238 -11q29 0 58.5 7.5t48.5 17.5l6 58q-12 -6 -26.5 -10.5t-29.5 -4.5q-28 0 -43 15.5t-15 47.5v327h113v56h-113v130l-138 -31v-99h-83l-14 -56h97v-327q0 -64 35.5 -97.5t103.5 -33.5z" />
    <glyph glyph-name="u" unicode="u" horiz-adv-x="574" 
d="M214 -11q51 0 91.5 26.5t66.5 69.5v-91l160 14q-3 7 -6 16t-5 19.5t-3.5 21.5t-2.5 22.5t-2 23.5t-1.5 23.5t-0.5 22v20.5v331l-160 -24q3 -7 6 -16t5 -19t3.5 -21.5t2.5 -23l2 -23t1.5 -23.5t0.5 -22.5v-20.5v-190q-20 -25 -43.5 -40t-51.5 -15q-33 0 -55 22t-22 65v351
l-160 -24q3 -7 6 -16t5 -19t3.5 -21.5t2.5 -23l2 -23t1.5 -23.5t0.5 -22.5v-20.5v-162q0 -78 42 -121t111 -43z" />
    <glyph glyph-name="v" unicode="v" horiz-adv-x="503" 
d="M435 353q21 43 41 82.5t35 67.5h-101q1 -26 -9.5 -62.5t-28.5 -74.5l-83 -179l-80 178q-17 38 -28 75t-9 63h-180q15 -28 35 -67.5t41 -82.5l184 -375z" />
    <glyph glyph-name="w" unicode="w" horiz-adv-x="719" 
d="M656 353q16 43 32.5 82.5t29.5 67.5h-97q4 -26 -3 -62t-22 -76l-55 -158l-149 317l-139 -316l-57 159q-13 40 -20 75.5t-3 60.5h-171q13 -28 28.5 -67.5t31.5 -82.5l144 -376l147 329l160 -329z" />
    <glyph glyph-name="x" unicode="x" horiz-adv-x="502" 
d="M5 0h106q1 23 17 54t38 62l53 75l49 -72q21 -30 38 -63t18 -56h184q-19 24 -45.5 62t-56.5 81l-90 131l63 86q28 38 57.5 77.5t50.5 65.5h-107q-1 -23 -16.5 -54.5t-37.5 -62.5l-46 -64l-42 61q-21 31 -38 63.5t-18 56.5h-183q19 -24 45 -62.5t57 -81.5l83 -119l-71 -98
q-28 -38 -57.5 -77t-50.5 -65z" />
    <glyph glyph-name="y" unicode="y" horiz-adv-x="518" 
d="M113 -208q56 0 97.5 34t71.5 106l170 415q18 45 36.5 86.5t33.5 69.5h-102q3 -26 -7 -65t-25 -76l-90 -228l-92 227q-16 39 -25 76.5t-7 65.5h-177q14 -28 31.5 -69.5t36.5 -86.5l159 -377q-22 -52 -48.5 -72t-60.5 -20q-22 0 -42 8t-38 19l10 -99q14 -6 31.5 -10
t36.5 -4z" />
    <glyph glyph-name="z" unicode="z" horiz-adv-x="442" 
d="M0 0h409l15 91q-39 -16 -86.5 -26t-90.5 -10h-71l260 448h-398l-20 -92q41 17 88.5 26t96.5 9h55z" />
    <glyph glyph-name="braceleft" unicode="{" horiz-adv-x="394" 
d="M346 -158v23q-72 0 -103 20.5t-31 55.5q0 10 2.5 20.5t7 20.5t10 20t12.5 20.5t14.5 20.5t14.5 20.5t14 21.5t12.5 22t10 22.5t7 23.5t2.5 24q0 44 -37 80.5t-123 47.5q86 11 123 47.5t37 80.5q0 12 -2.5 24t-7 23.5t-10 22.5t-12.5 22t-14.5 21.5t-14.5 20.5t-14 20.5
t-12.5 20.5t-10 20t-7 20.5t-2.5 20.5q0 35 31 55.5t103 20.5v23q-32 5 -60 6t-52 -1.5t-44.5 -7.5t-37 -12t-29.5 -16.5t-22.5 -20.5t-16 -23.5t-9.5 -25.5t-3 -26t2.5 -25.5t7 -24t11 -23t13.5 -22.5t14.5 -22t15 -21t14.5 -20t13.5 -19.5t11 -18.5t7 -18t2.5 -17
q0 -37 -36 -59t-118 -22v-47q82 -1 118 -23t36 -59q0 -8 -2.5 -17t-7 -18t-11 -18.5t-13.5 -19.5t-14.5 -20t-15 -20.5t-14.5 -21.5t-13.5 -22.5t-11 -23.5t-7 -24.5t-2.5 -25.5t3 -26t9.5 -25.5t16 -23.5t22.5 -20t29.5 -16.5t37 -12.5t44.5 -7.5t52 -1.5t60 6z" />
    <glyph glyph-name="bar" unicode="|" horiz-adv-x="332" 
d="M130 -200h72v970h-72v-970z" />
    <glyph glyph-name="braceright" unicode="}" horiz-adv-x="394" 
d="M48 767v-23q72 0 103 -20.5t31 -55.5q0 -10 -2.5 -20.5t-7 -20.5t-10 -20t-12.5 -20.5t-14 -20.5t-14.5 -20.5t-14.5 -21.5t-12.5 -22t-10 -22.5t-7 -23.5t-2.5 -24q0 -44 37 -80.5t123 -47.5q-86 -11 -123 -47.5t-37 -80.5q0 -12 2.5 -24t7 -23.5t10 -22.5t12.5 -22
t14.5 -21.5t14.5 -20.5t14 -20.5t12.5 -20.5t10 -20t7 -20.5t2.5 -20.5q0 -35 -31 -55.5t-103 -20.5v-23q32 -5 60 -6t52 1.5t44.5 7.5t37 12.5t29.5 16.5t22.5 20t16 23.5t9.5 25.5t3 26t-2.5 25.5t-7 24t-11 23t-13.5 22.5t-14.5 22t-15 21t-14.5 20t-13.5 19.5t-11 18.5
t-7 18t-2.5 17q0 37 36 59t118 22v47q-82 1 -118 23t-36 59q0 8 2.5 17t7 18t11 18.5t13.5 19.5t14.5 20t15 20.5t14.5 21.5t13.5 22.5t11 23.5t7 24.5t2.5 25.5t-3 26t-9.5 25.5t-16 23.5t-22.5 20.5t-29.5 16.5t-37 12t-44.5 7.5t-52 1.5t-60 -6z" />
    <glyph glyph-name="asciitilde" unicode="~" horiz-adv-x="494" 
d="M327 248q43 0 75 43t51 147h-23q-16 -52 -34.5 -74.5t-42.5 -22.5q-7 0 -14.5 2t-15 6t-15.5 9.5t-16.5 11.5t-16.5 13t-16.5 13.5t-17.5 12.5t-18 11.5t-18 9.5t-18.5 6t-19.5 2q-43 0 -75 -43.5t-50 -147.5h24q15 54 33 76t42 22q7 0 14.5 -2t15 -6t15.5 -9.5t16 -11.5
t16.5 -12.5t17 -13.5t17.5 -13t18 -11.5t18.5 -9.5t18.5 -6t19 -2z" />
    <glyph glyph-name="uni00A0" unicode="&#xa0;" horiz-adv-x="202" 
 />
    <glyph glyph-name="exclamdown" unicode="&#xa1;" horiz-adv-x="240" 
d="M141 281h-39l-65 -479h169zM122 510q-36 0 -60 -24.5t-24 -58.5t24 -58.5t60 -24.5q34 0 58.5 24.5t24.5 58.5t-24.5 58.5t-58.5 24.5z" />
    <glyph glyph-name="cent" unicode="&#xa2;" horiz-adv-x="477" 
d="M241 -117l47 7l10 101q40 2 78 14.5t66 30.5l9 70q-26 -19 -61 -33.5t-72 -14.5h-7.5t-6.5 1l36 383q31 -4 57.5 -17.5t48.5 -31.5l-9 79q-19 12 -42.5 21t-48.5 13l10 109l-47 -7l-9 -97h-7q-25 0 -48 -4t-45 -12t-41.5 -19.5t-37 -26t-32 -31.5t-26 -36.5t-20 -41.5
t-12.5 -45.5t-4 -48.5q0 -104 62 -173.5t162 -79.5zM161 247q0 84 38 136.5t95 59.5l-35 -373q-43 19 -70.5 65.5t-27.5 111.5z" />
    <glyph glyph-name="sterling" unicode="&#xa3;" horiz-adv-x="574" 
d="M144 -14q39 0 72.5 18.5t56.5 50.5q36 -25 76 -47t91 -22q27 0 53 7t43 20l14 102q-24 -17 -52.5 -26t-54.5 -9q-35 0 -69 14t-69 31q4 13 6 28t2 31q0 27 -5.5 53t-13.5 52h118v48h-135q-14 40 -26 79.5t-12 79.5q0 64 33.5 105t92.5 41q41 0 81.5 -15.5t74.5 -45.5
l-14 89q-33 21 -75.5 32.5t-86.5 11.5q-28 0 -54 -4.5t-48.5 -13t-42 -20.5t-36 -27t-29 -32.5t-21 -37.5t-13 -42t-4.5 -45q0 -40 15.5 -79.5t35.5 -76.5h-80v-48h108q22 -36 39.5 -69.5t20.5 -62.5q-20 7 -41 11.5t-43 4.5q-55 0 -86 -29.5t-31 -70.5q0 -38 30 -62t79 -24
zM91 66q0 17 14 30t41 13q21 0 40.5 -7t38.5 -17q-11 -27 -32 -44t-49 -17q-25 0 -39 11.5t-14 30.5z" />
    <glyph glyph-name="yen" unicode="&#xa5;" horiz-adv-x="649" 
d="M99 166h156q-1 -46 -7 -93.5t-16 -72.5h193q-11 25 -16.5 72.5t-6.5 93.5h156v46h-157v62h157v46h-136l136 227q25 43 51 84.5t45 68.5h-120q2 -25 -11.5 -62.5t-34.5 -74.5l-124 -212l-124 213q-21 36 -35 73.5t-11 62.5h-198q19 -27 45.5 -68.5t52.5 -84.5l137 -227
h-132v-46h157v-62h-157v-46z" />
    <glyph glyph-name="section" unicode="&#xa7;" horiz-adv-x="626" 
d="M288 -206q101 0 161.5 52t60.5 130q0 37 -13.5 65.5t-35.5 49.5q67 22 103 65.5t36 99.5q0 20 -3.5 36.5t-10 31t-16 27t-21 23.5t-24.5 20t-27.5 17t-29.5 15t-31 13.5t-32 12.5t-31 11.5t-29.5 11.5t-27.5 12t-24.5 13t-21 14.5t-16 16.5t-10 19.5t-3.5 22.5
q0 32 24.5 54.5t71.5 22.5q45 0 94.5 -20t88.5 -51l-11 87q-33 19 -78 32.5t-94 13.5q-101 0 -161.5 -52t-60.5 -129q0 -38 13.5 -66t35.5 -49q-67 -22 -103 -65.5t-36 -100.5q0 -19 3.5 -36t10 -31.5t16 -27t21 -23.5t24.5 -20t27.5 -17t29.5 -15t31 -13.5t32 -12.5
t31 -11.5t29.5 -11.5t27.5 -12t24.5 -13t21 -14.5t16 -16.5t10 -19.5t3.5 -22.5q0 -32 -24.5 -54t-71.5 -22q-48 0 -101 21.5t-95 57.5l14 -89q36 -24 82 -38.5t100 -14.5zM143 300q0 26 16 49.5t46 36.5q14 -8 28.5 -15t29.5 -13.5t30.5 -12.5t31 -11.5t30.5 -11.5t29 -12
t26.5 -12.5t23.5 -13.5t20 -15.5t15 -18t9.5 -20.5t3.5 -24q0 -26 -15.5 -49t-45.5 -36q-14 8 -28.5 15t-30 13.5t-31 12.5t-31 11.5t-30.5 11t-29 11.5t-26.5 12.5t-23.5 13.5t-20 15.5t-15 18t-9.5 20.5t-3.5 24z" />
    <glyph glyph-name="dieresis" unicode="&#xa8;" 
d="M151 572q34 0 54.5 22t20.5 51q0 30 -20.5 52t-54.5 22q-33 0 -54 -22t-21 -52q0 -29 21 -51t54 -22zM349 572q33 0 54 22t21 51q0 30 -21 52t-54 22q-34 0 -54.5 -22t-20.5 -52q0 -29 20.5 -51t54.5 -22z" />
    <glyph glyph-name="copyright" unicode="&#xa9;" horiz-adv-x="808" 
d="M405 -38q33 0 63.5 5t59 14.5t54.5 23.5t49 31.5t43 38.5t36.5 45t29.5 50.5t22 55.5t13.5 59.5t4.5 62.5t-4.5 62.5t-13.5 59.5t-22 55.5t-29.5 50.5t-36.5 45t-43 38.5t-49 31.5t-54.5 23.5t-59 14.5t-63.5 5t-63.5 -5t-59 -14.5t-54.5 -23.5t-49 -31.5t-43 -38.5
t-36.5 -45t-29.5 -50.5t-22 -55.5t-13.5 -59.5t-4.5 -62.5t4.5 -62.5t13.5 -59.5t22 -55.5t29.5 -50.5t36.5 -45t43 -38.5t49 -31.5t54.5 -23.5t59 -14.5t63.5 -5zM405 -1q-29 0 -57 4.5t-53 13.5t-48.5 21.5t-44 28.5t-38 35t-32.5 40.5t-26 45.5t-19 50t-12 53.5t-4 56.5
t4 56.5t12 53.5t19 50t26 46t32.5 41t38 35t44 28.5t48.5 21.5t53 13.5t57 4.5t56.5 -4.5t53 -13.5t48.5 -21.5t43.5 -28.5t38 -35t32.5 -41t26 -46t19 -50t12 -53.5t4 -56.5t-4 -56.5t-12 -53.5t-19 -50t-26 -45.5t-32.5 -40.5t-38 -35t-43.5 -28.5t-48.5 -21.5t-53 -13.5
t-56.5 -4.5zM420 123q37 0 72.5 11t63.5 30l7 65q-26 -20 -55.5 -32.5t-60.5 -12.5q-57 0 -94 45.5t-37 117.5q0 75 37 120t89 45q34 0 64.5 -15.5t55.5 -43.5l-12 99q-26 1 -54.5 11t-73.5 10q-21 0 -40.5 -3.5t-38 -10.5t-35 -17t-31 -22t-27 -27t-22 -31.5t-16.5 -35
t-10.5 -38t-3.5 -40.5q0 -100 61.5 -162.5t160.5 -62.5z" />
    <glyph glyph-name="ordfeminine" unicode="&#xaa;" horiz-adv-x="357" 
d="M116 360q33 0 60.5 19t43.5 46q1 -17 2.5 -35t5.5 -27l102 8q-7 14 -10.5 41t-3.5 48v127q0 60 -35.5 93t-104.5 33q-33 0 -65.5 -8.5t-60.5 -24.5l-8 -54q32 19 59 28.5t52 9.5q32 0 49.5 -15.5t17.5 -49.5v-37l-84 -14q-59 -10 -87.5 -36t-28.5 -63q0 -39 26.5 -64
t69.5 -25zM110 459q0 22 14 36.5t45 20.5l51 10v-73q-12 -15 -29 -27t-36 -12q-20 0 -32.5 12.5t-12.5 32.5z" />
    <glyph glyph-name="guillemotleft" unicode="&#xab;" horiz-adv-x="542" 
d="M292 -5h16l-142 257l142 255h-16l-279 -255zM511 -5h16l-142 257l142 255h-16l-279 -255z" />
    <glyph glyph-name="registered" unicode="&#xae;" horiz-adv-x="492" 
d="M246 286q21 0 40 3.5t37.5 10t35 16t31 21.5t26.5 26.5t21.5 31t16.5 35t10.5 39t3.5 41.5q0 24 -4.5 47t-13 43t-20.5 38t-27 33t-32.5 27t-37.5 20t-42 12.5t-45 4.5t-45 -4.5t-42 -12.5t-37.5 -20t-33 -27t-27 -33t-20 -38t-13 -43t-4.5 -47t4.5 -46.5t13 -43t20 -38
t27 -32.5t33 -27t37.5 -20t42 -12.5t45 -4.5zM246 316q-20 0 -39 4t-36 11t-32.5 17.5t-28 23.5t-22.5 28.5t-17.5 33t-11 36.5t-3.5 40q0 84 54.5 139.5t135.5 55.5q80 0 134.5 -55.5t54.5 -139.5q0 -21 -3.5 -40t-11 -36.5t-17.5 -33t-22.5 -28.5t-27.5 -23.5t-32 -17.5
t-36 -11t-39 -4zM147 394h77q-4 11 -6 35t-2 41v22h24l56 -98h70q-7 9 -17.5 25t-21.5 35l-26 45q21 8 33.5 25t12.5 39q0 32 -24 51.5t-63 19.5h-113q5 -12 7 -36t2 -42v-86q0 -17 -2 -41t-7 -35zM244 603q19 0 30.5 -11t11.5 -30t-11.5 -30.5t-30.5 -11.5h-28v83h28z" />
    <glyph glyph-name="macron" unicode="&#xaf;" 
d="M102 598h296v76h-296v-76z" />
    <glyph glyph-name="degree" unicode="&#xb0;" horiz-adv-x="354" 
d="M178 430q59 0 99.5 40t40.5 100t-40.5 101t-99.5 41q-60 0 -101 -41t-41 -101t41 -100t101 -40zM178 478q-39 0 -65.5 26t-26.5 66t26.5 67t65.5 27q38 0 64 -27t26 -67t-26 -66t-64 -26z" />
    <glyph glyph-name="plusminus" unicode="&#xb1;" horiz-adv-x="612" 
d="M280 154h52v211h206v50h-206v211h-52v-211h-206v-50h206v-211zM74 9h464v50h-464v-50z" />
    <glyph glyph-name="twosuperior" unicode="&#xb2;" horiz-adv-x="266" 
d="M6 372h236l12 82q-21 -9 -51.5 -13t-55.5 -4h-46l54 45q49 40 72 69.5t23 63.5q0 41 -34.5 66.5t-91.5 25.5q-29 0 -57 -9t-47 -22l-8 -50q20 14 41 24t43 10q26 0 42.5 -15.5t16.5 -44.5q0 -25 -14.5 -54t-52.5 -75z" />
    <glyph glyph-name="threesuperior" unicode="&#xb3;" horiz-adv-x="277" 
d="M122 366q63 0 102 27.5t39 69.5q0 31 -24 52.5t-67 26.5q36 9 58.5 30t22.5 52q0 37 -32.5 60t-86.5 23q-33 0 -61 -8t-49 -20l-6 -49q21 13 42 21t42 8q25 0 39.5 -13t14.5 -35q0 -23 -15.5 -38t-43.5 -15h-23l-10 -40h33q34 0 50.5 -14t16.5 -39t-17 -39.5t-45 -14.5
q-22 0 -44.5 6.5t-43.5 19.5l3 -48q19 -10 46.5 -16.5t58.5 -6.5z" />
    <glyph glyph-name="acute" unicode="&#xb4;" 
d="M198 554h38l186 178h-150z" />
    <glyph glyph-name="paragraph" unicode="&#xb6;" horiz-adv-x="654" 
d="M302 216h94v-184v-25t-0.5 -27.5t-1.5 -29.5l-2 -30t-2.5 -29.5t-3.5 -28t-4 -25t-4.5 -21t-5.5 -16.5h88v900h-158q-123 0 -198.5 -66t-75.5 -176q0 -109 75.5 -175.5t198.5 -66.5zM513 -200h88q-3 7 -5.5 16.5t-4.5 21t-3.5 25t-3 28t-2.5 29.5l-2 30t-1.5 29.5
t-0.5 27.5v25v436v25t0.5 27.5t1.5 29t2 29.5t2.5 29.5t3 28t3.5 25.5t4.5 21.5t5.5 16.5h-88v-900z" />
    <glyph glyph-name="periodcentered" unicode="&#xb7;" horiz-adv-x="233" 
d="M117 265q34 0 58.5 24.5t24.5 59.5q0 34 -24.5 58.5t-58.5 24.5q-35 0 -59.5 -24.5t-24.5 -58.5q0 -35 24.5 -59.5t59.5 -24.5z" />
    <glyph glyph-name="cedilla" unicode="&#xb8;" 
d="M238 -217q55 0 89.5 25.5t34.5 65.5q0 31 -26.5 52t-71.5 21q-6 0 -12.5 -1t-12.5 -2l43 73h-49l-61 -116l2 -3q11 4 25 6t27 2q24 0 37.5 -10t13.5 -26q0 -18 -15.5 -28.5t-43.5 -10.5q-22 0 -44.5 6t-41.5 13l5 -49q19 -7 45 -12.5t56 -5.5z" />
    <glyph glyph-name="onesuperior" unicode="&#xb9;" horiz-adv-x="161" 
d="M22 372h120q-6 16 -8.5 46.5t-2.5 55.5v234l-116 -34q10 -13 14 -37t4 -49v-114q0 -25 -2 -55.5t-9 -46.5z" />
    <glyph glyph-name="ordmasculine" unicode="&#xba;" horiz-adv-x="382" 
d="M191 360q74 0 124 50t50 127t-49.5 126.5t-124.5 49.5q-74 0 -123.5 -49.5t-49.5 -127.5q0 -76 49.5 -126t123.5 -50zM192 402q-33 0 -54 34t-21 99q0 66 20.5 100t52.5 34q34 0 54 -34t20 -100q0 -65 -20 -99t-52 -34z" />
    <glyph glyph-name="guillemotright" unicode="&#xbb;" horiz-adv-x="542" 
d="M250 -5h-16l142 257l-142 255h16l279 -255zM31 -5h-16l142 257l-142 255h16l279 -255z" />
    <glyph glyph-name="onequarter" unicode="&#xbc;" horiz-adv-x="562" 
d="M241 70h164q-1 -20 -3.5 -39.5t-6.5 -30.5h112q-3 11 -5 30.5t-3 39.5h42l12 72q-12 -3 -26 -5.5t-28 -3.5v84l-93 -19v-67h-90l36 63q19 30 43.5 69t43.5 66h-74q-10 -25 -25.5 -59t-30.5 -62zM37 372h120q-6 16 -8.5 46.5t-2.5 55.5v234l-116 -34q10 -13 14 -37t4 -49
v-114q0 -25 -2 -55.5t-9 -46.5zM63 0l417 700h-62l-417 -700h62z" />
    <glyph glyph-name="onehalf" unicode="&#xbd;" horiz-adv-x="564" 
d="M304 0h236l12 82q-21 -9 -51.5 -13t-55.5 -4h-46l54 45q49 40 72 69.5t23 63.5q0 41 -34.5 66.5t-91.5 25.5q-29 0 -57 -9t-47 -22l-8 -50q20 14 41 24t43 10q26 0 42.5 -15.5t16.5 -44.5q0 -25 -14.5 -54t-52.5 -75zM37 372h120q-6 16 -8.5 46.5t-2.5 55.5v234l-116 -34
q10 -13 14 -37t4 -49v-114q0 -25 -2 -55.5t-9 -46.5zM63 0l417 700h-62l-417 -700h62z" />
    <glyph glyph-name="threequarters" unicode="&#xbe;" horiz-adv-x="650" 
d="M122 366q63 0 102 27.5t39 69.5q0 31 -24 52.5t-67 26.5q36 9 58.5 30t22.5 52q0 37 -32.5 60t-86.5 23q-33 0 -61 -8t-49 -20l-6 -49q21 13 42 21t42 8q25 0 39.5 -13t14.5 -35q0 -23 -15.5 -38t-43.5 -15h-23l-10 -40h33q34 0 50.5 -14t16.5 -39t-17 -39.5t-45 -14.5
q-22 0 -44.5 6.5t-43.5 19.5l3 -48q19 -10 46.5 -16.5t58.5 -6.5zM329 70h164q-1 -20 -3.5 -39.5t-6.5 -30.5h112q-3 11 -5 30.5t-3 39.5h42l12 72q-12 -3 -26 -5.5t-28 -3.5v84l-93 -19v-67h-90l36 63q19 30 43.5 69t43.5 66h-74q-10 -25 -25.5 -59t-30.5 -62zM152 0
l417 700h-62l-417 -700h62z" />
    <glyph glyph-name="questiondown" unicode="&#xbf;" horiz-adv-x="448" 
d="M231 291l-5 -7q12 -8 18.5 -19.5t6.5 -24.5q0 -9 -3 -17t-8.5 -15.5t-13 -14.5t-16.5 -14t-19.5 -14t-21.5 -14.5t-22.5 -15t-23.5 -16t-23 -17t-21.5 -18t-19.5 -20t-16.5 -22.5t-13 -25t-8.5 -27.5t-3 -30.5q0 -78 59 -123.5t159 -45.5q52 0 104 14t89 37l13 82
q-39 -28 -87 -45.5t-94 -17.5q-47 0 -75 25.5t-28 68.5q0 12 2.5 23.5t7 22t11 20.5t14 19.5t15.5 18.5t17 18t18 17.5t17 17.5t15.5 18t14 18.5t11 19t7 20.5t2.5 22q0 33 -21 55t-58 27zM256 510q-34 0 -59 -24.5t-25 -58.5t25 -58.5t59 -24.5t59 24.5t25 58.5t-25 58.5
t-59 24.5z" />
    <glyph glyph-name="Agrave" unicode="&#xc0;" horiz-adv-x="666" 
d="M476 0h198q-4 8 -9.5 18t-12 21.5t-13 24.5l-13.5 27l-14 28t-13.5 28.5t-13 28t-12.5 25.5l-242 519l-239 -519q-6 -13 -12 -26.5t-12.5 -27.5t-13.5 -28l-14 -28l-13.5 -27t-12.5 -24.5t-11.5 -21.5t-10.5 -18h122q-2 31 12 83.5t33 95.5h268q19 -43 35 -95.5t14 -83.5
zM187 242l106 239l106 -239h-212zM340 752h37l-69 158h-151z" />
    <glyph glyph-name="Aacute" unicode="&#xc1;" horiz-adv-x="666" 
d="M476 0h198q-4 8 -9.5 18t-12 21.5t-13 24.5l-13.5 27l-14 28t-13.5 28.5t-13 28t-12.5 25.5l-242 519l-239 -519q-6 -13 -12 -26.5t-12.5 -27.5t-13.5 -28l-14 -28l-13.5 -27t-12.5 -24.5t-11.5 -21.5t-10.5 -18h122q-2 31 12 83.5t33 95.5h268q19 -43 35 -95.5t14 -83.5
zM187 242l106 239l106 -239h-212zM279 752h37l183 158h-151z" />
    <glyph glyph-name="Acircumflex" unicode="&#xc2;" horiz-adv-x="666" 
d="M476 0h198q-4 8 -9.5 18t-12 21.5t-13 24.5l-13.5 27l-14 28t-13.5 28.5t-13 28t-12.5 25.5l-242 519l-239 -519q-6 -13 -12 -26.5t-12.5 -27.5t-13.5 -28l-14 -28l-13.5 -27t-12.5 -24.5t-11.5 -21.5t-10.5 -18h122q-2 31 12 83.5t33 95.5h268q19 -43 35 -95.5t14 -83.5
zM187 242l106 239l106 -239h-212zM159 752h33l135 93l137 -93h33l-111 158h-116z" />
    <glyph glyph-name="Atilde" unicode="&#xc3;" horiz-adv-x="666" 
d="M476 0h198q-4 8 -9.5 18t-12 21.5t-13 24.5l-13.5 27l-14 28t-13.5 28.5t-13 28t-12.5 25.5l-242 519l-239 -519q-6 -13 -12 -26.5t-12.5 -27.5t-13.5 -28l-14 -28l-13.5 -27t-12.5 -24.5t-11.5 -21.5t-10.5 -18h122q-2 31 12 83.5t33 95.5h268q19 -43 35 -95.5t14 -83.5
zM187 242l106 239l106 -239h-212zM160 767h16q12 29 30.5 42t37.5 13q7 0 14 -2t15 -5t16 -7.5t17 -9t17.5 -9t18 -9t19 -7.5t18.5 -5t19 -2q38 0 66.5 32.5t44.5 105.5h-17q-13 -28 -31 -41t-37 -13q-7 0 -14 2t-15 5t-16 7t-16.5 9t-17.5 9.5t-18 8.5t-18.5 7t-19 5
t-19.5 2q-37 0 -66 -32.5t-44 -105.5z" />
    <glyph glyph-name="Adieresis" unicode="&#xc4;" horiz-adv-x="666" 
d="M476 0h198q-4 8 -9.5 18t-12 21.5t-13 24.5l-13.5 27l-14 28t-13.5 28.5t-13 28t-12.5 25.5l-242 519l-239 -519q-6 -13 -12 -26.5t-12.5 -27.5t-13.5 -28l-14 -28l-13.5 -27t-12.5 -24.5t-11.5 -21.5t-10.5 -18h122q-2 31 12 83.5t33 95.5h268q19 -43 35 -95.5t14 -83.5
zM187 242l106 239l106 -239h-212zM229 764q34 0 54.5 22t20.5 52t-20.5 51.5t-54.5 21.5q-33 0 -54 -21.5t-21 -51.5t21 -52t54 -22zM427 764q33 0 54 22t21 52t-21 51.5t-54 21.5q-34 0 -54.5 -21.5t-20.5 -51.5t20.5 -52t54.5 -22z" />
    <glyph glyph-name="Aring" unicode="&#xc5;" horiz-adv-x="666" 
d="M476 0h198q-4 8 -9.5 18t-12 21.5t-13 24.5l-13.5 27l-14 28t-13.5 28.5t-13 28t-12.5 25.5l-242 519l-239 -519q-6 -13 -12 -26.5t-12.5 -27.5t-13.5 -28l-14 -28l-13.5 -27t-12.5 -24.5t-11.5 -21.5t-10.5 -18h122q-2 31 12 83.5t33 95.5h268q19 -43 35 -95.5t14 -83.5
zM187 242l106 239l106 -239h-212zM328 755q51 0 83.5 31.5t32.5 76.5q0 46 -32.5 77.5t-83.5 31.5t-83.5 -31.5t-32.5 -77.5q0 -45 32.5 -76.5t83.5 -31.5zM328 797q-28 0 -47 18.5t-19 47.5t19 48t47 19t47 -19t19 -48t-19 -47.5t-47 -18.5z" />
    <glyph glyph-name="AE" unicode="&#xc6;" horiz-adv-x="970" 
d="M-4 0h126q4 36 27.5 88t51.5 98l7 12h265q0 -11 -0.5 -24t-1 -27l-1 -28t-2 -28t-3 -27t-4 -25t-5 -22t-5.5 -17h482l16 111q-12 -6 -26 -11t-29 -9.5t-31 -8t-32.5 -6.5t-33 -5.5t-32 -4t-30 -2.5t-28 -1.5t-24.5 -0.5h-62v261h36q50 0 89.5 -5t85.5 -18l-21 109
q-38 -10 -76 -17t-83 -7h-31v251h59q55 0 125 -9.5t126 -38.5l-18 112h-509q-1 -8 -3 -17t-5.5 -20t-8.5 -22.5t-10.5 -23.5t-11.5 -24.5t-12.5 -25t-13 -24t-13 -22.5t-12.5 -21l-188 -304q-34 -53 -70 -108t-60 -88zM247 261l226 365v-365h-226z" />
    <glyph glyph-name="Ccedilla" unicode="&#xc7;" horiz-adv-x="659" 
d="M32 342q0 -32 5 -61.5t14 -57t22.5 -52.5t31 -47t38.5 -41t45 -34.5t50.5 -27.5t56 -19.5t60.5 -10.5l-47 -90l2 -3q11 4 25 6t27 2q24 0 37.5 -10t13.5 -26q0 -18 -15.5 -28.5t-43.5 -10.5q-22 0 -44.5 6t-41.5 13l5 -49q19 -7 45 -12.5t56 -5.5q55 0 89.5 25.5
t34.5 65.5q0 31 -26.5 51.5t-71.5 20.5q-7 0 -13 -1t-13 -2l28 46q57 0 115.5 17.5t104.5 49.5l8 80q-45 -34 -97.5 -56t-110.5 -22q-25 0 -48 5t-44 14.5t-39.5 24t-34.5 33.5t-28 41.5t-21 49.5t-13.5 58t-4.5 65q0 33 4 63.5t12 57.5t19.5 50t26 42.5t32.5 34.5t38 25.5
t42.5 16t46.5 5.5q64 0 115.5 -28.5t102.5 -84.5l-20 143q-44 2 -91.5 19t-120.5 17q-30 0 -59.5 -4.5t-56.5 -13.5t-52 -21.5t-47.5 -29t-42.5 -36.5t-36.5 -42.5t-29.5 -48t-22 -53.5t-13.5 -57.5t-4.5 -61.5z" />
    <glyph glyph-name="Egrave" unicode="&#xc8;" horiz-adv-x="574" 
d="M54 0h482l16 111q-12 -6 -26 -11t-29 -9.5t-31 -8t-32.5 -6.5t-33 -5.5t-32 -4t-30 -2.5t-28 -1.5t-24.5 -0.5h-62v261h36q50 0 90 -5.5t86 -18.5l-22 111q-38 -11 -75.5 -18t-82.5 -7h-32v250h59q56 0 125.5 -9t125.5 -38l-18 112h-464q3 -7 6 -16t5 -19.5t4 -22.5
t3.5 -25t2.5 -26l2 -26t1.5 -26t0.5 -24.5v-22.5v-284v-22t-0.5 -25t-1.5 -26t-2 -26.5t-2 -26t-3 -24.5t-4 -23t-4.5 -19.5t-5.5 -15.5zM324 752h37l-69 158h-151z" />
    <glyph glyph-name="Eacute" unicode="&#xc9;" horiz-adv-x="574" 
d="M54 0h482l16 111q-12 -6 -26 -11t-29 -9.5t-31 -8t-32.5 -6.5t-33 -5.5t-32 -4t-30 -2.5t-28 -1.5t-24.5 -0.5h-62v261h36q50 0 90 -5.5t86 -18.5l-22 111q-38 -11 -75.5 -18t-82.5 -7h-32v250h59q56 0 125.5 -9t125.5 -38l-18 112h-464q3 -7 6 -16t5 -19.5t4 -22.5
t3.5 -25t2.5 -26l2 -26t1.5 -26t0.5 -24.5v-22.5v-284v-22t-0.5 -25t-1.5 -26t-2 -26.5t-2 -26t-3 -24.5t-4 -23t-4.5 -19.5t-5.5 -15.5zM263 752h37l183 158h-151z" />
    <glyph glyph-name="Ecircumflex" unicode="&#xca;" horiz-adv-x="574" 
d="M54 0h482l16 111q-12 -6 -26 -11t-29 -9.5t-31 -8t-32.5 -6.5t-33 -5.5t-32 -4t-30 -2.5t-28 -1.5t-24.5 -0.5h-62v261h36q50 0 90 -5.5t86 -18.5l-22 111q-38 -11 -75.5 -18t-82.5 -7h-32v250h59q56 0 125.5 -9t125.5 -38l-18 112h-464q3 -7 6 -16t5 -19.5t4 -22.5
t3.5 -25t2.5 -26l2 -26t1.5 -26t0.5 -24.5v-22.5v-284v-22t-0.5 -25t-1.5 -26t-2 -26.5t-2 -26t-3 -24.5t-4 -23t-4.5 -19.5t-5.5 -15.5zM143 752h33l135 93l137 -93h33l-111 158h-116z" />
    <glyph glyph-name="Edieresis" unicode="&#xcb;" horiz-adv-x="574" 
d="M54 0h482l16 111q-12 -6 -26 -11t-29 -9.5t-31 -8t-32.5 -6.5t-33 -5.5t-32 -4t-30 -2.5t-28 -1.5t-24.5 -0.5h-62v261h36q50 0 90 -5.5t86 -18.5l-22 111q-38 -11 -75.5 -18t-82.5 -7h-32v250h59q56 0 125.5 -9t125.5 -38l-18 112h-464q3 -7 6 -16t5 -19.5t4 -22.5
t3.5 -25t2.5 -26l2 -26t1.5 -26t0.5 -24.5v-22.5v-284v-22t-0.5 -25t-1.5 -26t-2 -26.5t-2 -26t-3 -24.5t-4 -23t-4.5 -19.5t-5.5 -15.5zM213 764q34 0 54.5 22t20.5 52t-20.5 51.5t-54.5 21.5q-33 0 -54 -21.5t-21 -51.5t21 -52t54 -22zM411 764q33 0 54 22t21 52t-21 51.5
t-54 21.5q-34 0 -54.5 -21.5t-20.5 -51.5t20.5 -52t54.5 -22z" />
    <glyph glyph-name="Igrave" unicode="&#xcc;" horiz-adv-x="302" 
d="M54 0h194q-3 7 -5.5 15.5t-4.5 19t-3.5 22.5t-3 25t-2.5 26t-1.5 26.5t-1 26.5t-0.5 25v22v284v22.5t0.5 24.5t1 26.5t1.5 26.5t2.5 26t3 25t3.5 22.5t4.5 19.5t5.5 15h-194q3 -6 5.5 -15t4.5 -19.5t4 -22.5t3 -25l2 -26t2 -26.5t1.5 -26.5t0.5 -25v-22v-284v-22
t-0.5 -25t-1.5 -26.5t-2 -26.5l-2 -26t-3 -25t-4 -22.5t-4.5 -19t-5.5 -15.5zM163 752h37l-69 158h-151z" />
    <glyph glyph-name="Iacute" unicode="&#xcd;" horiz-adv-x="302" 
d="M54 0h194q-3 7 -5.5 15.5t-4.5 19t-3.5 22.5t-3 25t-2.5 26t-1.5 26.5t-1 26.5t-0.5 25v22v284v22.5t0.5 24.5t1 26.5t1.5 26.5t2.5 26t3 25t3.5 22.5t4.5 19.5t5.5 15h-194q3 -6 5.5 -15t4.5 -19.5t4 -22.5t3 -25l2 -26t2 -26.5t1.5 -26.5t0.5 -25v-22v-284v-22
t-0.5 -25t-1.5 -26.5t-2 -26.5l-2 -26t-3 -25t-4 -22.5t-4.5 -19t-5.5 -15.5zM102 752h37l183 158h-151z" />
    <glyph glyph-name="Icircumflex" unicode="&#xce;" horiz-adv-x="302" 
d="M54 0h194q-3 7 -5.5 15.5t-4.5 19t-3.5 22.5t-3 25t-2.5 26t-1.5 26.5t-1 26.5t-0.5 25v22v284v22.5t0.5 24.5t1 26.5t1.5 26.5t2.5 26t3 25t3.5 22.5t4.5 19.5t5.5 15h-194q3 -6 5.5 -15t4.5 -19.5t4 -22.5t3 -25l2 -26t2 -26.5t1.5 -26.5t0.5 -25v-22v-284v-22
t-0.5 -25t-1.5 -26.5t-2 -26.5l-2 -26t-3 -25t-4 -22.5t-4.5 -19t-5.5 -15.5zM-18 752h33l135 93l137 -93h33l-111 158h-116z" />
    <glyph glyph-name="Idieresis" unicode="&#xcf;" horiz-adv-x="302" 
d="M54 0h194q-3 7 -5.5 15.5t-4.5 19t-3.5 22.5t-3 25t-2.5 26t-1.5 26.5t-1 26.5t-0.5 25v22v284v22.5t0.5 24.5t1 26.5t1.5 26.5t2.5 26t3 25t3.5 22.5t4.5 19.5t5.5 15h-194q3 -6 5.5 -15t4.5 -19.5t4 -22.5t3 -25l2 -26t2 -26.5t1.5 -26.5t0.5 -25v-22v-284v-22
t-0.5 -25t-1.5 -26.5t-2 -26.5l-2 -26t-3 -25t-4 -22.5t-4.5 -19t-5.5 -15.5zM52 764q34 0 54.5 22t20.5 52t-20.5 51.5t-54.5 21.5q-33 0 -54 -21.5t-21 -51.5t21 -52t54 -22zM250 764q33 0 54 22t21 52t-21 51.5t-54 21.5q-34 0 -54.5 -21.5t-20.5 -51.5t20.5 -52
t54.5 -22z" />
    <glyph glyph-name="Eth" unicode="&#xd0;" horiz-adv-x="738" 
d="M64 0h243q38 0 74 5t69 15t62.5 24.5t55 33.5t47.5 41.5t38.5 49t28.5 56.5t18 62.5t6 68.5q0 33 -6 64.5t-17 60t-27 54t-37 47.5t-46.5 40.5t-55 33t-63 24.5t-70.5 15t-77 5h-245q3 -7 6 -16t5 -19.5t4 -22.5t3.5 -25t2.5 -26l2 -26t1.5 -26t0.5 -24.5v-22.5v-113h-84
l-11 -58h95v-113v-22t-0.5 -25t-1.5 -26t-2 -26.5t-2 -26t-3 -24.5t-4 -23t-4.5 -19.5t-5.5 -15.5zM353 321l11 58h-128v255h73q107 0 174 -77.5t67 -205.5q0 -131 -67 -209t-174 -78h-73v257h117z" />
    <glyph glyph-name="Ntilde" unicode="&#xd1;" horiz-adv-x="724" 
d="M648 493q0 11 0.5 22.5t1 24.5l1 26t2 26l3 26t3 24.5t4 22.5t5 19.5t5.5 15.5h-123q3 -7 6 -17.5t5.5 -22.5t4.5 -25.5t3.5 -27.5t2.5 -28.5l2 -29t1.5 -28t0.5 -25.5l1 -243l-8 7l-493 456v-509q0 -10 -0.5 -22t-1 -25l-1 -26t-2 -26l-3 -26t-3 -24.5t-4 -22.5
t-5 -19.5t-5.5 -15.5h123q-3 7 -6 16.5t-5.5 20.5t-4.5 23.5t-3.5 25.5t-3 26.5t-2 26.5t-1 25.5t-0.5 23.5l-1 259l6 -6l495 -457v509zM197 767h16q12 29 30.5 42t37.5 13q7 0 14 -2t15 -5t16 -7.5t17 -9t17.5 -9t18 -9t19 -7.5t18.5 -5t19 -2q38 0 66.5 32.5t44.5 105.5
h-17q-13 -28 -31 -41t-37 -13q-7 0 -14 2t-15 5t-16 7t-16.5 9t-17.5 9.5t-18 8.5t-18.5 7t-19 5t-19.5 2q-37 0 -66 -32.5t-44 -105.5z" />
    <glyph glyph-name="Ograve" unicode="&#xd2;" horiz-adv-x="785" 
d="M752 350q0 32 -4.5 62.5t-13.5 58t-22 53t-29 47.5t-35.5 41.5t-42 35t-47 28t-51 20.5t-55 12.5t-58.5 4.5t-58.5 -4.5t-55.5 -13t-51.5 -21t-47 -28.5t-42.5 -35t-36.5 -41.5t-29.5 -47.5t-22 -52.5t-14 -57t-5 -61.5q0 -33 4.5 -63t13.5 -58t22 -53.5t29.5 -47.5
t36 -41.5t42 -35t47 -28t51 -20.5t55 -12.5t57.5 -4.5q30 0 58.5 4.5t55.5 13t52 21t47.5 28.5t42.5 35t36.5 41.5t29.5 47.5t22 52.5t13.5 57.5t4.5 62zM190 350q0 36 4 68t12 60t18.5 51t24.5 41.5t30.5 33t34.5 23.5t38.5 14t41.5 5q24 0 47 -6.5t43 -19t37 -31
t30.5 -42.5t23.5 -54t15 -66t5 -77q0 -42 -5 -77.5t-15 -66t-24 -55t-31.5 -43t-38 -30.5t-43.5 -18.5t-48 -6.5q-21 0 -40.5 5t-38 14.5t-34 24t-29.5 33t-24.5 42t-18 51t-11.5 59.5t-4 68zM406 752h37l-69 158h-151z" />
    <glyph glyph-name="Oacute" unicode="&#xd3;" horiz-adv-x="785" 
d="M752 350q0 32 -4.5 62.5t-13.5 58t-22 53t-29 47.5t-35.5 41.5t-42 35t-47 28t-51 20.5t-55 12.5t-58.5 4.5t-58.5 -4.5t-55.5 -13t-51.5 -21t-47 -28.5t-42.5 -35t-36.5 -41.5t-29.5 -47.5t-22 -52.5t-14 -57t-5 -61.5q0 -33 4.5 -63t13.5 -58t22 -53.5t29.5 -47.5
t36 -41.5t42 -35t47 -28t51 -20.5t55 -12.5t57.5 -4.5q30 0 58.5 4.5t55.5 13t52 21t47.5 28.5t42.5 35t36.5 41.5t29.5 47.5t22 52.5t13.5 57.5t4.5 62zM190 350q0 36 4 68t12 60t18.5 51t24.5 41.5t30.5 33t34.5 23.5t38.5 14t41.5 5q24 0 47 -6.5t43 -19t37 -31
t30.5 -42.5t23.5 -54t15 -66t5 -77q0 -42 -5 -77.5t-15 -66t-24 -55t-31.5 -43t-38 -30.5t-43.5 -18.5t-48 -6.5q-21 0 -40.5 5t-38 14.5t-34 24t-29.5 33t-24.5 42t-18 51t-11.5 59.5t-4 68zM345 752h37l183 158h-151z" />
    <glyph glyph-name="Ocircumflex" unicode="&#xd4;" horiz-adv-x="785" 
d="M752 350q0 32 -4.5 62.5t-13.5 58t-22 53t-29 47.5t-35.5 41.5t-42 35t-47 28t-51 20.5t-55 12.5t-58.5 4.5t-58.5 -4.5t-55.5 -13t-51.5 -21t-47 -28.5t-42.5 -35t-36.5 -41.5t-29.5 -47.5t-22 -52.5t-14 -57t-5 -61.5q0 -33 4.5 -63t13.5 -58t22 -53.5t29.5 -47.5
t36 -41.5t42 -35t47 -28t51 -20.5t55 -12.5t57.5 -4.5q30 0 58.5 4.5t55.5 13t52 21t47.5 28.5t42.5 35t36.5 41.5t29.5 47.5t22 52.5t13.5 57.5t4.5 62zM190 350q0 36 4 68t12 60t18.5 51t24.5 41.5t30.5 33t34.5 23.5t38.5 14t41.5 5q24 0 47 -6.5t43 -19t37 -31
t30.5 -42.5t23.5 -54t15 -66t5 -77q0 -42 -5 -77.5t-15 -66t-24 -55t-31.5 -43t-38 -30.5t-43.5 -18.5t-48 -6.5q-21 0 -40.5 5t-38 14.5t-34 24t-29.5 33t-24.5 42t-18 51t-11.5 59.5t-4 68zM225 752h33l135 93l137 -93h33l-111 158h-116z" />
    <glyph glyph-name="Otilde" unicode="&#xd5;" horiz-adv-x="785" 
d="M752 350q0 32 -4.5 62.5t-13.5 58t-22 53t-29 47.5t-35.5 41.5t-42 35t-47 28t-51 20.5t-55 12.5t-58.5 4.5t-58.5 -4.5t-55.5 -13t-51.5 -21t-47 -28.5t-42.5 -35t-36.5 -41.5t-29.5 -47.5t-22 -52.5t-14 -57t-5 -61.5q0 -33 4.5 -63t13.5 -58t22 -53.5t29.5 -47.5
t36 -41.5t42 -35t47 -28t51 -20.5t55 -12.5t57.5 -4.5q30 0 58.5 4.5t55.5 13t52 21t47.5 28.5t42.5 35t36.5 41.5t29.5 47.5t22 52.5t13.5 57.5t4.5 62zM190 350q0 36 4 68t12 60t18.5 51t24.5 41.5t30.5 33t34.5 23.5t38.5 14t41.5 5q24 0 47 -6.5t43 -19t37 -31
t30.5 -42.5t23.5 -54t15 -66t5 -77q0 -42 -5 -77.5t-15 -66t-24 -55t-31.5 -43t-38 -30.5t-43.5 -18.5t-48 -6.5q-21 0 -40.5 5t-38 14.5t-34 24t-29.5 33t-24.5 42t-18 51t-11.5 59.5t-4 68zM226 767h16q12 29 30.5 42t37.5 13q7 0 14 -2t15 -5t16 -7.5t17 -9t17.5 -9
t18 -9t19 -7.5t18.5 -5t19 -2q38 0 66.5 32.5t44.5 105.5h-17q-13 -28 -31 -41t-37 -13q-7 0 -14 2t-15 5t-16 7t-16.5 9t-17.5 9.5t-18 8.5t-18.5 7t-19 5t-19.5 2q-37 0 -66 -32.5t-44 -105.5z" />
    <glyph glyph-name="Odieresis" unicode="&#xd6;" horiz-adv-x="785" 
d="M752 350q0 32 -4.5 62.5t-13.5 58t-22 53t-29 47.5t-35.5 41.5t-42 35t-47 28t-51 20.5t-55 12.5t-58.5 4.5t-58.5 -4.5t-55.5 -13t-51.5 -21t-47 -28.5t-42.5 -35t-36.5 -41.5t-29.5 -47.5t-22 -52.5t-14 -57t-5 -61.5q0 -33 4.5 -63t13.5 -58t22 -53.5t29.5 -47.5
t36 -41.5t42 -35t47 -28t51 -20.5t55 -12.5t57.5 -4.5q30 0 58.5 4.5t55.5 13t52 21t47.5 28.5t42.5 35t36.5 41.5t29.5 47.5t22 52.5t13.5 57.5t4.5 62zM190 350q0 36 4 68t12 60t18.5 51t24.5 41.5t30.5 33t34.5 23.5t38.5 14t41.5 5q24 0 47 -6.5t43 -19t37 -31
t30.5 -42.5t23.5 -54t15 -66t5 -77q0 -42 -5 -77.5t-15 -66t-24 -55t-31.5 -43t-38 -30.5t-43.5 -18.5t-48 -6.5q-21 0 -40.5 5t-38 14.5t-34 24t-29.5 33t-24.5 42t-18 51t-11.5 59.5t-4 68zM295 764q34 0 54.5 22t20.5 52t-20.5 51.5t-54.5 21.5q-33 0 -54 -21.5
t-21 -51.5t21 -52t54 -22zM493 764q33 0 54 22t21 52t-21 51.5t-54 21.5q-34 0 -54.5 -21.5t-20.5 -51.5t20.5 -52t54.5 -22z" />
    <glyph glyph-name="multiply" unicode="&#xd7;" horiz-adv-x="612" 
d="M146 155l160 160l159 -160l37 37l-159 160l159 159l-34 35l-160 -160l-160 160l-36 -37l159 -160l-159 -159z" />
    <glyph glyph-name="Oslash" unicode="&#xd8;" horiz-adv-x="784" 
d="M30 0h77l58 63q46 -37 104 -56.5t121 -19.5q30 0 58.5 4.5t55.5 13t52 21t47.5 28.5t42.5 35t36.5 41.5t29.5 47.5t22 52.5t13.5 57.5t4.5 62q0 75 -24.5 139t-67.5 111l92 100h-76l-57 -62q-46 36 -104 55.5t-121 19.5q-30 0 -58.5 -4.5t-55.5 -13t-51.5 -21t-47 -28.5
t-42.5 -35t-36.5 -41.5t-29.5 -47.5t-22 -52.5t-14 -57t-5 -61.5q0 -75 24.5 -138.5t67.5 -110.5zM190 350q0 36 4 68t12 60t18.5 51t24.5 41.5t30.5 33t34.5 23.5t38.5 14t41.5 5q46 0 85 -22.5t66 -65.5l-332 -360q-11 31 -17 69.5t-6 82.5zM595 350q0 -42 -5 -77.5
t-15 -66t-24 -55t-31.5 -43t-38 -30.5t-43.5 -18.5t-48 -6.5q-46 0 -85 23t-66 67l332 361q11 -31 17.5 -70t6.5 -84z" />
    <glyph glyph-name="Ugrave" unicode="&#xd9;" horiz-adv-x="710" 
d="M355 -13q130 0 207 76t77 209v220q0 11 0.5 22.5t1 24.5l1 26t2 26.5t3 26t3 24.5t4 23t5 19.5t5.5 15.5h-124q3 -7 6 -15.5t5 -19.5t4 -23t3.5 -24.5t3 -26t2 -26.5l1 -26t1 -24.5t0.5 -22.5v-220q0 -100 -51 -152t-127 -52q-73 0 -122 48t-49 138v238v22.5t0.5 24.5
t1.5 26.5t2 26.5l2 26t3 25t4 22.5t4.5 19.5t5.5 15h-194q3 -6 5.5 -15t4.5 -19.5t3.5 -22.5t2.5 -25l2 -26t2 -26.5t1.5 -26.5t0.5 -25v-22v-243q0 -125 78 -193.5t209 -68.5zM384 752h37l-69 158h-151z" />
    <glyph glyph-name="Uacute" unicode="&#xda;" horiz-adv-x="710" 
d="M355 -13q130 0 207 76t77 209v220q0 11 0.5 22.5t1 24.5l1 26t2 26.5t3 26t3 24.5t4 23t5 19.5t5.5 15.5h-124q3 -7 6 -15.5t5 -19.5t4 -23t3.5 -24.5t3 -26t2 -26.5l1 -26t1 -24.5t0.5 -22.5v-220q0 -100 -51 -152t-127 -52q-73 0 -122 48t-49 138v238v22.5t0.5 24.5
t1.5 26.5t2 26.5l2 26t3 25t4 22.5t4.5 19.5t5.5 15h-194q3 -6 5.5 -15t4.5 -19.5t3.5 -22.5t2.5 -25l2 -26t2 -26.5t1.5 -26.5t0.5 -25v-22v-243q0 -125 78 -193.5t209 -68.5zM323 752h37l183 158h-151z" />
    <glyph glyph-name="Ucircumflex" unicode="&#xdb;" horiz-adv-x="710" 
d="M355 -13q130 0 207 76t77 209v220q0 11 0.5 22.5t1 24.5l1 26t2 26.5t3 26t3 24.5t4 23t5 19.5t5.5 15.5h-124q3 -7 6 -15.5t5 -19.5t4 -23t3.5 -24.5t3 -26t2 -26.5l1 -26t1 -24.5t0.5 -22.5v-220q0 -100 -51 -152t-127 -52q-73 0 -122 48t-49 138v238v22.5t0.5 24.5
t1.5 26.5t2 26.5l2 26t3 25t4 22.5t4.5 19.5t5.5 15h-194q3 -6 5.5 -15t4.5 -19.5t3.5 -22.5t2.5 -25l2 -26t2 -26.5t1.5 -26.5t0.5 -25v-22v-243q0 -125 78 -193.5t209 -68.5zM203 752h33l135 93l137 -93h33l-111 158h-116z" />
    <glyph glyph-name="Udieresis" unicode="&#xdc;" horiz-adv-x="710" 
d="M355 -13q130 0 207 76t77 209v220q0 11 0.5 22.5t1 24.5l1 26t2 26.5t3 26t3 24.5t4 23t5 19.5t5.5 15.5h-124q3 -7 6 -15.5t5 -19.5t4 -23t3.5 -24.5t3 -26t2 -26.5l1 -26t1 -24.5t0.5 -22.5v-220q0 -100 -51 -152t-127 -52q-73 0 -122 48t-49 138v238v22.5t0.5 24.5
t1.5 26.5t2 26.5l2 26t3 25t4 22.5t4.5 19.5t5.5 15h-194q3 -6 5.5 -15t4.5 -19.5t3.5 -22.5t2.5 -25l2 -26t2 -26.5t1.5 -26.5t0.5 -25v-22v-243q0 -125 78 -193.5t209 -68.5zM273 764q34 0 54.5 22t20.5 52t-20.5 51.5t-54.5 21.5q-33 0 -54 -21.5t-21 -51.5t21 -52
t54 -22zM471 764q33 0 54 22t21 52t-21 51.5t-54 21.5q-34 0 -54.5 -21.5t-20.5 -51.5t20.5 -52t54.5 -22z" />
    <glyph glyph-name="Yacute" unicode="&#xdd;" horiz-adv-x="661" 
d="M235 0h197q-3 7 -5.5 16.5t-4.5 21.5t-4 25t-3.5 27.5t-2.5 29l-2 29t-1.5 29t-0.5 27.5v24v50l162 269q25 43 51 84t45 68h-120q1 -25 -12 -62.5t-34 -73.5l-126 -215l-127 215q-22 36 -36 73.5t-11 62.5h-206q19 -27 45 -68t52 -84l168 -276v-43v-24t-0.5 -27.5
t-1.5 -29l-2 -29t-2.5 -29t-3.5 -27.5t-4 -25t-4.5 -21.5t-5.5 -16.5zM307 752h37l183 158h-151z" />
    <glyph glyph-name="Thorn" unicode="&#xde;" horiz-adv-x="614" 
d="M54 0h194q-10 21 -14.5 61.5t-6.5 82.5h85q31 0 59 4t53.5 11t47 17.5t39.5 24.5t32.5 30.5t24 35.5t14.5 41t5 46q0 90 -72.5 146t-197.5 56h-90q2 42 6.5 82.5t14.5 61.5h-194q3 -6 5.5 -15t4.5 -19.5t4 -22.5t3 -25l2 -26t2 -26.5t1.5 -26.5t0.5 -25v-22v-284v-22
t-0.5 -25t-1.5 -26.5t-2 -26.5l-2 -26t-3 -25t-4 -22.5t-4.5 -19t-5.5 -15.5zM303 491q63 0 100 -37.5t37 -102.5q0 -67 -37.5 -105.5t-101.5 -38.5h-75v284h77z" />
    <glyph glyph-name="germandbls" unicode="&#xdf;" horiz-adv-x="670" 
d="M435 -10q23 0 44 3.5t40.5 10.5t36 17t30 22.5t24.5 27t18.5 31t11.5 35t4 37.5q0 62 -40 117t-128 112l-22 14q53 36 84 76.5t31 86.5q0 69 -59 113.5t-164 44.5q-110 0 -177.5 -63t-68.5 -172h-85l-13 -56h98v-277q0 -43 -4.5 -92.5t-15.5 -77.5h158v538q0 66 29.5 104
t78.5 38q44 0 71 -31t27 -80q0 -46 -25.5 -96t-91.5 -107l64 -44q62 -43 91 -83t29 -82q0 -49 -28.5 -77t-74.5 -28q-28 0 -56.5 10.5t-53.5 31.5l12 -78q26 -12 55.5 -19t69.5 -7z" />
    <glyph glyph-name="agrave" unicode="&#xe0;" horiz-adv-x="526" 
d="M175 -11q49 0 90 28.5t65 69.5q1 -26 4.5 -53t7.5 -41l145 14q-12 20 -17 59t-5 68v194q0 89 -51.5 137t-152.5 48q-49 0 -97 -12.5t-89 -35.5l-11 -75q47 30 86.5 44t75.5 14q49 0 76 -25t27 -77v-59l-126 -21q-89 -15 -130 -52t-41 -94t40 -94t103 -37zM161 134
q0 31 20.5 55t66.5 32l81 16v-114q-18 -23 -44.5 -41t-54.5 -18q-31 0 -50 19.5t-19 50.5zM256 555h39l-74 178h-151z" />
    <glyph glyph-name="aacute" unicode="&#xe1;" horiz-adv-x="526" 
d="M175 -11q49 0 90 28.5t65 69.5q1 -26 4.5 -53t7.5 -41l145 14q-12 20 -17 59t-5 68v194q0 89 -51.5 137t-152.5 48q-49 0 -97 -12.5t-89 -35.5l-11 -75q47 30 86.5 44t75.5 14q49 0 76 -25t27 -77v-59l-126 -21q-89 -15 -130 -52t-41 -94t40 -94t103 -37zM161 134
q0 31 20.5 55t66.5 32l81 16v-114q-18 -23 -44.5 -41t-54.5 -18q-31 0 -50 19.5t-19 50.5zM194 555h39l186 178h-151z" />
    <glyph glyph-name="acircumflex" unicode="&#xe2;" horiz-adv-x="526" 
d="M175 -11q49 0 90 28.5t65 69.5q1 -26 4.5 -53t7.5 -41l145 14q-12 20 -17 59t-5 68v194q0 89 -51.5 137t-152.5 48q-49 0 -97 -12.5t-89 -35.5l-11 -75q47 30 86.5 44t75.5 14q49 0 76 -25t27 -77v-59l-126 -21q-89 -15 -130 -52t-41 -94t40 -94t103 -37zM161 134
q0 31 20.5 55t66.5 32l81 16v-114q-18 -23 -44.5 -41t-54.5 -18q-31 0 -50 19.5t-19 50.5zM76 555h34l135 107l137 -107h34l-111 178h-118z" />
    <glyph glyph-name="atilde" unicode="&#xe3;" horiz-adv-x="526" 
d="M175 -11q49 0 90 28.5t65 69.5q1 -26 4.5 -53t7.5 -41l145 14q-12 20 -17 59t-5 68v194q0 89 -51.5 137t-152.5 48q-49 0 -97 -12.5t-89 -35.5l-11 -75q47 30 86.5 44t75.5 14q49 0 76 -25t27 -77v-59l-126 -21q-89 -15 -130 -52t-41 -94t40 -94t103 -37zM161 134
q0 31 20.5 55t66.5 32l81 16v-114q-18 -23 -44.5 -41t-54.5 -18q-31 0 -50 19.5t-19 50.5zM78 570h16q15 33 33 49t37 16q7 0 14 -2t14.5 -6t15.5 -9t16.5 -10t17.5 -10.5t18 -10.5t18 -9t18.5 -6t19.5 -2q37 0 65.5 35.5t45.5 113.5h-17q-13 -32 -31 -48.5t-37 -16.5
q-7 0 -14.5 2t-15.5 6t-16 9t-16.5 10.5t-17.5 11t-18 10.5t-18 9t-18.5 6t-19.5 2q-37 0 -65.5 -36t-44.5 -114z" />
    <glyph glyph-name="adieresis" unicode="&#xe4;" horiz-adv-x="526" 
d="M175 -11q49 0 90 28.5t65 69.5q1 -26 4.5 -53t7.5 -41l145 14q-12 20 -17 59t-5 68v194q0 89 -51.5 137t-152.5 48q-49 0 -97 -12.5t-89 -35.5l-11 -75q47 30 86.5 44t75.5 14q49 0 76 -25t27 -77v-59l-126 -21q-89 -15 -130 -52t-41 -94t40 -94t103 -37zM161 134
q0 31 20.5 55t66.5 32l81 16v-114q-18 -23 -44.5 -41t-54.5 -18q-31 0 -50 19.5t-19 50.5zM147 573q34 0 54.5 22t20.5 51q0 30 -20.5 52t-54.5 22q-33 0 -54 -22t-21 -52q0 -29 21 -51t54 -22zM345 573q33 0 54 22t21 51q0 30 -21 52t-54 22q-34 0 -54.5 -22t-20.5 -52
q0 -29 20.5 -51t54.5 -22z" />
    <glyph glyph-name="aring" unicode="&#xe5;" horiz-adv-x="526" 
d="M175 -11q49 0 90 28.5t65 69.5q1 -26 4.5 -53t7.5 -41l145 14q-12 20 -17 59t-5 68v194q0 89 -51.5 137t-152.5 48q-49 0 -97 -12.5t-89 -35.5l-11 -75q47 30 86.5 44t75.5 14q49 0 76 -25t27 -77v-59l-126 -21q-89 -15 -130 -52t-41 -94t40 -94t103 -37zM161 134
q0 31 20.5 55t66.5 32l81 16v-114q-18 -23 -44.5 -41t-54.5 -18q-31 0 -50 19.5t-19 50.5zM246 564q51 0 83.5 31.5t32.5 76.5q0 46 -32.5 77t-83.5 31t-83.5 -31t-32.5 -77q0 -45 32.5 -76.5t83.5 -31.5zM246 607q-28 0 -47 18.5t-19 46.5q0 29 19 47.5t47 18.5t47 -18.5
t19 -47.5q0 -28 -19 -46.5t-47 -18.5z" />
    <glyph glyph-name="ae" unicode="&#xe6;" horiz-adv-x="828" 
d="M180 -11q58 0 108 28.5t87 76.5q34 -49 91 -77.5t128 -28.5q48 0 94.5 13.5t76.5 35.5l9 67q-34 -25 -72.5 -38t-75.5 -13q-69 0 -112 50.5t-46 146.5h333q0 119 -62.5 191.5t-169.5 72.5q-44 0 -82.5 -16t-67.5 -44q-23 29 -63 44.5t-95 15.5q-49 0 -97 -13t-89 -35
l-11 -76q47 29 86.5 43.5t75.5 14.5q49 0 76 -24.5t27 -77.5v-57l-125 -23q-90 -16 -131 -52.5t-41 -93.5t40.5 -94t107.5 -37zM570 456q40 0 67.5 -36t34.5 -114h-203q6 72 33 111t68 39zM161 134q0 32 21 55.5t67 33.5l80 17q1 -28 7 -55t16 -50q-25 -31 -56.5 -50.5
t-65.5 -19.5q-32 0 -50.5 19t-18.5 50z" />
    <glyph glyph-name="ccedilla" unicode="&#xe7;" horiz-adv-x="468" 
d="M260 -217q55 0 89.5 25.5t34.5 65.5q0 31 -26.5 51.5t-71.5 20.5q-7 0 -13 -1t-13 -2l28 47q40 0 79.5 11.5t68.5 30.5l8 68q-27 -22 -60 -36t-66 -14q-65 0 -108.5 52t-43.5 146q0 96 39.5 150t100.5 54q39 0 72 -18.5t66 -55.5l-16 114q-34 -1 -67 9.5t-82 10.5
q-23 0 -45 -4t-42.5 -11.5t-39 -19t-35.5 -25.5t-31 -31.5t-25 -37t-19 -42t-12 -46.5t-4 -50q0 -101 60.5 -170t155.5 -82l-48 -92l2 -3q11 4 25 6t27 2q24 0 37.5 -10t13.5 -26q0 -18 -15.5 -28.5t-43.5 -10.5q-22 0 -44.5 6t-41.5 13l5 -49q19 -7 45 -12.5t56 -5.5z" />
    <glyph glyph-name="egrave" unicode="&#xe8;" horiz-adv-x="524" 
d="M292 -12q48 0 94 13.5t77 35.5l9 67q-34 -25 -72.5 -38t-76.5 -13q-69 0 -111.5 50.5t-45.5 146.5h333q-1 119 -63 191.5t-169 72.5q-23 0 -45 -4t-42 -12t-38 -19.5t-33.5 -25.5t-28.5 -31t-23 -36.5t-17 -41t-10.5 -44.5t-3.5 -48q0 -29 5 -56t14.5 -51t23 -45
t31 -38.5t39 -31t45.5 -23t51 -14.5t57 -5zM268 456q40 0 67.5 -36t34.5 -114h-203q5 72 32 111t69 39zM273 555h39l-74 178h-151z" />
    <glyph glyph-name="eacute" unicode="&#xe9;" horiz-adv-x="524" 
d="M292 -12q48 0 94 13.5t77 35.5l9 67q-34 -25 -72.5 -38t-76.5 -13q-69 0 -111.5 50.5t-45.5 146.5h333q-1 119 -63 191.5t-169 72.5q-23 0 -45 -4t-42 -12t-38 -19.5t-33.5 -25.5t-28.5 -31t-23 -36.5t-17 -41t-10.5 -44.5t-3.5 -48q0 -29 5 -56t14.5 -51t23 -45
t31 -38.5t39 -31t45.5 -23t51 -14.5t57 -5zM268 456q40 0 67.5 -36t34.5 -114h-203q5 72 32 111t69 39zM211 555h39l186 178h-151z" />
    <glyph glyph-name="ecircumflex" unicode="&#xea;" horiz-adv-x="524" 
d="M292 -12q48 0 94 13.5t77 35.5l9 67q-34 -25 -72.5 -38t-76.5 -13q-69 0 -111.5 50.5t-45.5 146.5h333q-1 119 -63 191.5t-169 72.5q-23 0 -45 -4t-42 -12t-38 -19.5t-33.5 -25.5t-28.5 -31t-23 -36.5t-17 -41t-10.5 -44.5t-3.5 -48q0 -29 5 -56t14.5 -51t23 -45
t31 -38.5t39 -31t45.5 -23t51 -14.5t57 -5zM268 456q40 0 67.5 -36t34.5 -114h-203q5 72 32 111t69 39zM93 555h34l135 107l137 -107h34l-111 178h-118z" />
    <glyph glyph-name="edieresis" unicode="&#xeb;" horiz-adv-x="524" 
d="M292 -12q48 0 94 13.5t77 35.5l9 67q-34 -25 -72.5 -38t-76.5 -13q-69 0 -111.5 50.5t-45.5 146.5h333q-1 119 -63 191.5t-169 72.5q-23 0 -45 -4t-42 -12t-38 -19.5t-33.5 -25.5t-28.5 -31t-23 -36.5t-17 -41t-10.5 -44.5t-3.5 -48q0 -29 5 -56t14.5 -51t23 -45
t31 -38.5t39 -31t45.5 -23t51 -14.5t57 -5zM268 456q40 0 67.5 -36t34.5 -114h-203q5 72 32 111t69 39zM164 573q34 0 54.5 22t20.5 51q0 30 -20.5 52t-54.5 22q-33 0 -54 -22t-21 -52q0 -29 21 -51t54 -22zM362 573q33 0 54 22t21 51q0 30 -21 52t-54 22q-34 0 -54.5 -22
t-20.5 -52q0 -29 20.5 -51t54.5 -22z" />
    <glyph glyph-name="igrave" unicode="&#xec;" horiz-adv-x="266" 
d="M44 0h178q-3 7 -5.5 16t-4.5 19.5t-3.5 22t-2.5 23.5t-2 24.5t-1.5 25t-0.5 24v22.5v331l-159 -24q3 -7 5.5 -16t5 -19.5t4 -21.5t2.5 -23t2 -23.5t1.5 -23t0.5 -22.5v-21v-137v-22.5t-0.5 -24t-1.5 -25t-2 -24.5t-2.5 -23.5t-3.5 -22t-4.5 -19.5t-5.5 -16zM141 555h39
l-74 178h-152z" />
    <glyph glyph-name="iacute" unicode="&#xed;" horiz-adv-x="266" 
d="M44 0h178q-3 7 -5.5 16t-4.5 19.5t-3.5 22t-2.5 23.5t-2 24.5t-1.5 25t-0.5 24v22.5v331l-159 -24q3 -7 5.5 -16t5 -19.5t4 -21.5t2.5 -23t2 -23.5t1.5 -23t0.5 -22.5v-21v-137v-22.5t-0.5 -24t-1.5 -25t-2 -24.5t-2.5 -23.5t-3.5 -22t-4.5 -19.5t-5.5 -16zM80 555h38
l186 178h-150z" />
    <glyph glyph-name="icircumflex" unicode="&#xee;" horiz-adv-x="266" 
d="M44 0h178q-3 7 -5.5 16t-4.5 19.5t-3.5 22t-2.5 23.5t-2 24.5t-1.5 25t-0.5 24v22.5v331l-159 -24q3 -7 5.5 -16t5 -19.5t4 -21.5t2.5 -23t2 -23.5t1.5 -23t0.5 -22.5v-21v-137v-22.5t-0.5 -24t-1.5 -25t-2 -24.5t-2.5 -23.5t-3.5 -22t-4.5 -19.5t-5.5 -16zM-38 555h34
l135 107l137 -107h34l-111 178h-118z" />
    <glyph glyph-name="idieresis" unicode="&#xef;" horiz-adv-x="266" 
d="M44 0h178q-3 7 -5.5 16t-4.5 19.5t-3.5 22t-2.5 23.5t-2 24.5t-1.5 25t-0.5 24v22.5v331l-159 -24q3 -7 5.5 -16t5 -19.5t4 -21.5t2.5 -23t2 -23.5t1.5 -23t0.5 -22.5v-21v-137v-22.5t-0.5 -24t-1.5 -25t-2 -24.5t-2.5 -23.5t-3.5 -22t-4.5 -19.5t-5.5 -16zM33 573
q34 0 54.5 22t20.5 51q0 30 -20.5 52t-54.5 22q-33 0 -54 -22t-21 -52q0 -29 21 -51t54 -22zM231 573q33 0 54 22t21 51q0 30 -21 52t-54 22q-34 0 -54.5 -22t-20.5 -52q0 -29 20.5 -51t54.5 -22z" />
    <glyph glyph-name="eth" unicode="&#xf0;" horiz-adv-x="566" 
d="M282 -11q25 0 49 4.5t45.5 12.5t41 20t36.5 27.5t31 34t25 39.5t18.5 45t11.5 50t4 54q0 94 -42.5 187t-126.5 164l87 33v45l-126 -48q-34 24 -73.5 43.5t-84.5 33.5l-38 -15q36 -21 66.5 -43t55.5 -46l-84 -32v-46l116 44q23 -27 40.5 -57t30.5 -63q-23 16 -50 24t-57 8
q-22 0 -42.5 -4t-40 -11.5t-36.5 -18.5t-32 -25.5t-27.5 -31t-22.5 -35.5t-17 -40.5t-10.5 -44.5t-3.5 -47q0 -25 4 -49t11.5 -45.5t18.5 -41t24.5 -36t30 -30.5t35.5 -25t40.5 -18.5t44.5 -11.5t47 -4zM168 250q0 100 32 152t84 52q37 0 66 -28.5t44 -81.5q2 -19 3 -39.5
t1 -42.5q0 -105 -32 -160t-83 -55t-83 52t-32 151z" />
    <glyph glyph-name="ntilde" unicode="&#xf1;" horiz-adv-x="575" 
d="M44 0h176q-3 7 -5 15.5t-3.5 19t-3 21.5t-2.5 23t-2 24.5t-1.5 24t-0.5 23v21.5v206q20 25 44 40t52 15q33 0 55.5 -22t22.5 -65v-174v-21.5t-0.5 -23t-1.5 -24t-2 -24.5t-2.5 -23t-3 -21.5t-3.5 -19t-5 -15.5h176q-3 7 -5.5 16t-4 19.5t-3 22t-3 23.5t-2 24.5t-1.5 25
t-1 24v22.5v172q0 78 -42.5 121.5t-111.5 43.5q-51 0 -91.5 -26.5t-66.5 -69.5v90l-159 -24q3 -7 5.5 -16t5 -19t4 -21.5t2.5 -23l2 -23t1.5 -23.5t0.5 -22.5v-20.5v-138v-22.5t-0.5 -24t-1.5 -25t-2 -24.5t-2.5 -23.5t-3.5 -22t-4.5 -19.5t-5.5 -16zM121 570h16
q15 33 33 49t37 16q7 0 14 -2t14.5 -6t15.5 -9t16.5 -10t17.5 -10.5t18 -10.5t18 -9t18.5 -6t19.5 -2q37 0 65.5 35.5t45.5 113.5h-17q-13 -32 -31 -48.5t-37 -16.5q-7 0 -14.5 2t-15.5 6t-16 9t-16.5 10.5t-17.5 11t-18 10.5t-18 9t-18.5 6t-19.5 2q-37 0 -65.5 -36
t-44.5 -114z" />
    <glyph glyph-name="ograve" unicode="&#xf2;" horiz-adv-x="563" 
d="M282 -11q24 0 47 4t44 11.5t40 19t35.5 25.5t30.5 31t24.5 36.5t18 41.5t11.5 45.5t4 49.5q0 25 -4 48.5t-11.5 45t-18 41t-24.5 36.5t-30.5 31t-35 25t-40 18.5t-44 11.5t-47.5 4q-24 0 -47 -4t-44 -11.5t-40 -18.5t-35.5 -25.5t-30.5 -31.5t-25 -36.5t-18.5 -41
t-11.5 -45.5t-4 -50q0 -25 4 -49t11.5 -45.5t18.5 -41t24.5 -36t30 -30.5t35.5 -25t40.5 -18.5t44.5 -11.5t47 -4zM283 47q-51 0 -83 52t-32 151q0 100 31.5 152t80.5 52q51 0 83 -52t32 -152q0 -99 -31 -151t-81 -52zM291 555h39l-74 178h-151z" />
    <glyph glyph-name="oacute" unicode="&#xf3;" horiz-adv-x="563" 
d="M282 -11q24 0 47 4t44 11.5t40 19t35.5 25.5t30.5 31t24.5 36.5t18 41.5t11.5 45.5t4 49.5q0 25 -4 48.5t-11.5 45t-18 41t-24.5 36.5t-30.5 31t-35 25t-40 18.5t-44 11.5t-47.5 4q-24 0 -47 -4t-44 -11.5t-40 -18.5t-35.5 -25.5t-30.5 -31.5t-25 -36.5t-18.5 -41
t-11.5 -45.5t-4 -50q0 -25 4 -49t11.5 -45.5t18.5 -41t24.5 -36t30 -30.5t35.5 -25t40.5 -18.5t44.5 -11.5t47 -4zM283 47q-51 0 -83 52t-32 151q0 100 31.5 152t80.5 52q51 0 83 -52t32 -152q0 -99 -31 -151t-81 -52zM229 555h39l186 178h-151z" />
    <glyph glyph-name="ocircumflex" unicode="&#xf4;" horiz-adv-x="563" 
d="M282 -11q24 0 47 4t44 11.5t40 19t35.5 25.5t30.5 31t24.5 36.5t18 41.5t11.5 45.5t4 49.5q0 25 -4 48.5t-11.5 45t-18 41t-24.5 36.5t-30.5 31t-35 25t-40 18.5t-44 11.5t-47.5 4q-24 0 -47 -4t-44 -11.5t-40 -18.5t-35.5 -25.5t-30.5 -31.5t-25 -36.5t-18.5 -41
t-11.5 -45.5t-4 -50q0 -25 4 -49t11.5 -45.5t18.5 -41t24.5 -36t30 -30.5t35.5 -25t40.5 -18.5t44.5 -11.5t47 -4zM283 47q-51 0 -83 52t-32 151q0 100 31.5 152t80.5 52q51 0 83 -52t32 -152q0 -99 -31 -151t-81 -52zM111 555h34l135 107l137 -107h34l-111 178h-118z" />
    <glyph glyph-name="otilde" unicode="&#xf5;" horiz-adv-x="563" 
d="M282 -11q24 0 47 4t44 11.5t40 19t35.5 25.5t30.5 31t24.5 36.5t18 41.5t11.5 45.5t4 49.5q0 25 -4 48.5t-11.5 45t-18 41t-24.5 36.5t-30.5 31t-35 25t-40 18.5t-44 11.5t-47.5 4q-24 0 -47 -4t-44 -11.5t-40 -18.5t-35.5 -25.5t-30.5 -31.5t-25 -36.5t-18.5 -41
t-11.5 -45.5t-4 -50q0 -25 4 -49t11.5 -45.5t18.5 -41t24.5 -36t30 -30.5t35.5 -25t40.5 -18.5t44.5 -11.5t47 -4zM283 47q-51 0 -83 52t-32 151q0 100 31.5 152t80.5 52q51 0 83 -52t32 -152q0 -99 -31 -151t-81 -52zM113 570h16q15 33 33 49t37 16q7 0 14 -2t14.5 -6
t15.5 -9t16.5 -10t17.5 -10.5t18 -10.5t18 -9t18.5 -6t19.5 -2q37 0 65.5 35.5t45.5 113.5h-17q-13 -32 -31 -48.5t-37 -16.5q-7 0 -14.5 2t-15.5 6t-16 9t-16.5 10.5t-17.5 11t-18 10.5t-18 9t-18.5 6t-19.5 2q-37 0 -65.5 -36t-44.5 -114z" />
    <glyph glyph-name="odieresis" unicode="&#xf6;" horiz-adv-x="563" 
d="M282 -11q24 0 47 4t44 11.5t40 19t35.5 25.5t30.5 31t24.5 36.5t18 41.5t11.5 45.5t4 49.5q0 25 -4 48.5t-11.5 45t-18 41t-24.5 36.5t-30.5 31t-35 25t-40 18.5t-44 11.5t-47.5 4q-24 0 -47 -4t-44 -11.5t-40 -18.5t-35.5 -25.5t-30.5 -31.5t-25 -36.5t-18.5 -41
t-11.5 -45.5t-4 -50q0 -25 4 -49t11.5 -45.5t18.5 -41t24.5 -36t30 -30.5t35.5 -25t40.5 -18.5t44.5 -11.5t47 -4zM283 47q-51 0 -83 52t-32 151q0 100 31.5 152t80.5 52q51 0 83 -52t32 -152q0 -99 -31 -151t-81 -52zM182 573q34 0 54.5 22t20.5 51q0 30 -20.5 52t-54.5 22
q-33 0 -54 -22t-21 -52q0 -29 21 -51t54 -22zM380 573q33 0 54 22t21 51q0 30 -21 52t-54 22q-34 0 -54.5 -22t-20.5 -52q0 -29 20.5 -51t54.5 -22z" />
    <glyph glyph-name="divide" unicode="&#xf7;" horiz-adv-x="612" 
d="M306 463q27 0 46.5 19t19.5 46t-19.5 45.5t-46.5 18.5t-45.5 -18.5t-18.5 -45.5t18.5 -46t45.5 -19zM74 325h464v50h-464v-50zM306 108q27 0 46.5 18.5t19.5 45.5t-19.5 46t-46.5 19t-45.5 -19t-18.5 -46t18.5 -45.5t45.5 -18.5z" />
    <glyph glyph-name="oslash" unicode="&#xf8;" horiz-adv-x="563" 
d="M21 0h69l35 40q32 -25 72 -38t85 -13q24 0 47 4t44 11.5t40 19t35.5 25.5t30.5 31t24.5 36.5t18 41.5t11.5 45.5t4 49.5q0 52 -16.5 97t-45.5 79l67 74h-68l-36 -40q-31 25 -71 38t-85 13q-24 0 -47 -4t-44 -11.5t-40 -18.5t-35.5 -25.5t-30.5 -31.5t-25 -36.5t-18.5 -41
t-11.5 -45.5t-4 -50q0 -52 16.5 -97t45.5 -79zM168 250q0 100 31.5 152t80.5 52q28 0 51 -15.5t38 -46.5l-193 -228q-4 19 -6 40.5t-2 45.5zM283 47q-28 0 -51 15.5t-38 46.5l193 228q4 -19 6 -40.5t2 -46.5q0 -99 -31 -151t-81 -52z" />
    <glyph glyph-name="ugrave" unicode="&#xf9;" horiz-adv-x="574" 
d="M214 -11q51 0 91.5 26.5t66.5 69.5v-91l160 14q-3 7 -6 16t-5 19.5t-3.5 21.5t-2.5 22.5t-2 23.5t-1.5 23.5t-0.5 22v20.5v331l-160 -24q3 -7 6 -16t5 -19t3.5 -21.5t2.5 -23l2 -23t1.5 -23.5t0.5 -22.5v-20.5v-190q-20 -25 -43.5 -40t-51.5 -15q-33 0 -55 22t-22 65v351
l-160 -24q3 -7 6 -16t5 -19t3.5 -21.5t2.5 -23l2 -23t1.5 -23.5t0.5 -22.5v-20.5v-162q0 -78 42 -121t111 -43zM294 555h39l-74 178h-152z" />
    <glyph glyph-name="uacute" unicode="&#xfa;" horiz-adv-x="574" 
d="M214 -11q51 0 91.5 26.5t66.5 69.5v-91l160 14q-3 7 -6 16t-5 19.5t-3.5 21.5t-2.5 22.5t-2 23.5t-1.5 23.5t-0.5 22v20.5v331l-160 -24q3 -7 6 -16t5 -19t3.5 -21.5t2.5 -23l2 -23t1.5 -23.5t0.5 -22.5v-20.5v-190q-20 -25 -43.5 -40t-51.5 -15q-33 0 -55 22t-22 65v351
l-160 -24q3 -7 6 -16t5 -19t3.5 -21.5t2.5 -23l2 -23t1.5 -23.5t0.5 -22.5v-20.5v-162q0 -78 42 -121t111 -43zM233 555h38l186 178h-150z" />
    <glyph glyph-name="ucircumflex" unicode="&#xfb;" horiz-adv-x="574" 
d="M214 -11q51 0 91.5 26.5t66.5 69.5v-91l160 14q-3 7 -6 16t-5 19.5t-3.5 21.5t-2.5 22.5t-2 23.5t-1.5 23.5t-0.5 22v20.5v331l-160 -24q3 -7 6 -16t5 -19t3.5 -21.5t2.5 -23l2 -23t1.5 -23.5t0.5 -22.5v-20.5v-190q-20 -25 -43.5 -40t-51.5 -15q-33 0 -55 22t-22 65v351
l-160 -24q3 -7 6 -16t5 -19t3.5 -21.5t2.5 -23l2 -23t1.5 -23.5t0.5 -22.5v-20.5v-162q0 -78 42 -121t111 -43zM115 555h34l135 107l137 -107h34l-111 178h-118z" />
    <glyph glyph-name="udieresis" unicode="&#xfc;" horiz-adv-x="574" 
d="M214 -11q51 0 91.5 26.5t66.5 69.5v-91l160 14q-3 7 -6 16t-5 19.5t-3.5 21.5t-2.5 22.5t-2 23.5t-1.5 23.5t-0.5 22v20.5v331l-160 -24q3 -7 6 -16t5 -19t3.5 -21.5t2.5 -23l2 -23t1.5 -23.5t0.5 -22.5v-20.5v-190q-20 -25 -43.5 -40t-51.5 -15q-33 0 -55 22t-22 65v351
l-160 -24q3 -7 6 -16t5 -19t3.5 -21.5t2.5 -23l2 -23t1.5 -23.5t0.5 -22.5v-20.5v-162q0 -78 42 -121t111 -43zM186 573q34 0 54.5 22t20.5 51q0 30 -20.5 52t-54.5 22q-33 0 -54 -22t-21 -52q0 -29 21 -51t54 -22zM384 573q33 0 54 22t21 51q0 30 -21 52t-54 22
q-34 0 -54.5 -22t-20.5 -52q0 -29 20.5 -51t54.5 -22z" />
    <glyph glyph-name="yacute" unicode="&#xfd;" horiz-adv-x="518" 
d="M113 -208q56 0 97.5 34t71.5 106l170 415q18 45 36.5 86.5t33.5 69.5h-102q3 -26 -7 -65t-25 -76l-90 -228l-92 227q-16 39 -25 76.5t-7 65.5h-177q14 -28 31.5 -69.5t36.5 -86.5l159 -377q-22 -52 -48.5 -72t-60.5 -20q-22 0 -42 8t-38 19l10 -99q14 -6 31.5 -10
t36.5 -4zM237 555h38l186 178h-150z" />
    <glyph glyph-name="thorn" unicode="&#xfe;" horiz-adv-x="580" 
d="M44 -200h178q-3 7 -5.5 16t-4.5 19.5t-3.5 22t-2.5 23.5t-2 24.5t-1.5 25t-0.5 24v22.5v78q23 -32 58 -49t73 -17q20 0 39 4t37 11.5t34.5 18.5t31 25t26.5 31t21.5 37t16.5 42t10.5 47t3.5 51q0 30 -4 56.5t-11.5 50.5t-18 44t-24 37t-29.5 30t-34 22t-38 13.5t-41 4.5
q-46 0 -86.5 -24t-64.5 -66v302l-159 -23q3 -7 5.5 -16t5 -19t4 -21t2.5 -23t2 -23.5t1.5 -23t0.5 -22.5v-21v-557v-22.5t-0.5 -24t-1.5 -25t-2 -24.5t-2.5 -23.5t-3.5 -22t-4.5 -19.5t-5.5 -16zM298 438q51 0 82.5 -50t31.5 -137q0 -89 -33 -140t-86 -51q-26 0 -49 12.5
t-42 35.5v274q20 28 44.5 42t51.5 14z" />
    <glyph glyph-name="ydieresis" unicode="&#xff;" horiz-adv-x="518" 
d="M113 -208q56 0 97.5 34t71.5 106l170 415q18 45 36.5 86.5t33.5 69.5h-102q3 -26 -7 -65t-25 -76l-90 -228l-92 227q-16 39 -25 76.5t-7 65.5h-177q14 -28 31.5 -69.5t36.5 -86.5l159 -377q-22 -52 -48.5 -72t-60.5 -20q-22 0 -42 8t-38 19l10 -99q14 -6 31.5 -10
t36.5 -4zM190 573q34 0 54.5 22t20.5 51q0 30 -20.5 52t-54.5 22q-33 0 -54 -22t-21 -52q0 -29 21 -51t54 -22zM388 573q33 0 54 22t21 51q0 30 -21 52t-54 22q-34 0 -54.5 -22t-20.5 -52q0 -29 20.5 -51t54.5 -22z" />
    <glyph glyph-name="Amacron" unicode="&#x100;" horiz-adv-x="666" 
d="M476 0h198q-4 8 -9.5 18t-12 21.5t-13 24.5l-13.5 27l-14 28t-13.5 28.5t-13 28t-12.5 25.5l-242 519l-239 -519q-6 -13 -12 -26.5t-12.5 -27.5t-13.5 -28l-14 -28l-13.5 -27t-12.5 -24.5t-11.5 -21.5t-10.5 -18h122q-2 31 12 83.5t33 95.5h268q19 -43 35 -95.5t14 -83.5
zM187 242l106 239l106 -239h-212zM180 791h296v76h-296v-76z" />
    <glyph glyph-name="amacron" unicode="&#x101;" horiz-adv-x="526" 
d="M175 -11q49 0 90 28.5t65 69.5q1 -26 4.5 -53t7.5 -41l145 14q-12 20 -17 59t-5 68v194q0 89 -51.5 137t-152.5 48q-49 0 -97 -12.5t-89 -35.5l-11 -75q47 30 86.5 44t75.5 14q49 0 76 -25t27 -77v-59l-126 -21q-89 -15 -130 -52t-41 -94t40 -94t103 -37zM161 134
q0 31 20.5 55t66.5 32l81 16v-114q-18 -23 -44.5 -41t-54.5 -18q-31 0 -50 19.5t-19 50.5zM98 599h296v76h-296v-76z" />
    <glyph glyph-name="Abreve" unicode="&#x102;" horiz-adv-x="666" 
d="M476 0h198q-4 8 -9.5 18t-12 21.5t-13 24.5l-13.5 27l-14 28t-13.5 28.5t-13 28t-12.5 25.5l-242 519l-239 -519q-6 -13 -12 -26.5t-12.5 -27.5t-13.5 -28l-14 -28l-13.5 -27t-12.5 -24.5t-11.5 -21.5t-10.5 -18h122q-2 31 12 83.5t33 95.5h268q19 -43 35 -95.5t14 -83.5
zM187 242l106 239l106 -239h-212zM328 754q68 0 112 39t50 111h-11q-16 -32 -56.5 -49.5t-94.5 -17.5t-94.5 17.5t-56.5 49.5h-11q6 -72 50 -111t112 -39z" />
    <glyph glyph-name="abreve" unicode="&#x103;" horiz-adv-x="526" 
d="M175 -11q49 0 90 28.5t65 69.5q1 -26 4.5 -53t7.5 -41l145 14q-12 20 -17 59t-5 68v194q0 89 -51.5 137t-152.5 48q-49 0 -97 -12.5t-89 -35.5l-11 -75q47 30 86.5 44t75.5 14q49 0 76 -25t27 -77v-59l-126 -21q-89 -15 -130 -52t-41 -94t40 -94t103 -37zM161 134
q0 31 20.5 55t66.5 32l81 16v-114q-18 -23 -44.5 -41t-54.5 -18q-31 0 -50 19.5t-19 50.5zM246 558q66 0 109 44t50 125h-11q-19 -39 -57 -63t-91 -24t-91 24t-57 63h-11q7 -81 50 -125t109 -44z" />
    <glyph glyph-name="Aogonek" unicode="&#x104;" horiz-adv-x="666" 
d="M595 -209q17 0 37 3.5t34 8.5l11 49q-10 -4 -22 -6.5t-22 -2.5q-20 0 -34 12t-14 33q0 26 22.5 54t65.5 58h1q-4 8 -9.5 18t-12 21.5t-13 24.5l-13.5 27l-14 28t-13.5 28.5t-13 28t-12.5 25.5l-242 519l-239 -519q-6 -13 -12 -26.5t-12.5 -27.5t-13.5 -28l-14 -28
l-13.5 -27t-12.5 -24.5t-11.5 -21.5t-10.5 -18h122q-2 31 12 83.5t33 95.5h268q19 -43 35 -95.5t14 -83.5h159q-75 -32 -110 -62.5t-35 -67.5q0 -34 29.5 -56.5t75.5 -22.5zM187 242l106 239l106 -239h-212z" />
    <glyph glyph-name="aogonek" unicode="&#x105;" horiz-adv-x="526" 
d="M175 -11q49 0 90 28.5t65 69.5q1 -26 4.5 -53t7.5 -41l96 9q-71 -31 -104 -60.5t-33 -65.5q0 -34 29.5 -56.5t75.5 -22.5q17 0 37 3.5t34 8.5l11 49q-10 -4 -22 -6.5t-22 -2.5q-20 0 -34 12t-14 33q0 26 22.5 54t65.5 58l-2 1h5q-12 20 -17 59t-5 68v194q0 89 -51.5 137
t-152.5 48q-49 0 -97 -12.5t-89 -35.5l-11 -75q47 30 86.5 44t75.5 14q49 0 76 -25t27 -77v-59l-126 -21q-89 -15 -130 -52t-41 -94t40 -94t103 -37zM161 134q0 31 20.5 55t66.5 32l81 16v-114q-18 -23 -44.5 -41t-54.5 -18q-31 0 -50 19.5t-19 50.5z" />
    <glyph glyph-name="Cacute" unicode="&#x106;" horiz-adv-x="659" 
d="M32 342q0 -31 4.5 -59.5t13.5 -55.5t21.5 -51.5t29 -46t36 -40.5t42 -34.5t48 -27.5t53 -20.5t57.5 -13t61 -4.5q60 0 119 17.5t105 49.5l8 80q-45 -34 -97.5 -56t-110.5 -22q-25 0 -48 5t-44 14.5t-39.5 24t-34.5 33.5t-28 41.5t-21 49.5t-13.5 58t-4.5 65q0 33 4 63.5
t12 57.5t19.5 50t26 42.5t32.5 34.5t38 25.5t42.5 16t46.5 5.5q64 0 115.5 -28.5t102.5 -84.5l-20 143q-44 2 -91.5 19t-120.5 17q-30 0 -59.5 -4.5t-56.5 -13.5t-52 -21.5t-47.5 -29t-42.5 -36.5t-36.5 -42.5t-29.5 -48t-22 -53.5t-13.5 -57.5t-4.5 -61.5zM336 752h37
l183 158h-151z" />
    <glyph glyph-name="cacute" unicode="&#x107;" horiz-adv-x="468" 
d="M286 -10q41 0 81 11.5t69 30.5l8 68q-27 -22 -60 -36t-66 -14q-65 0 -108.5 52t-43.5 146q0 96 39.5 150t100.5 54q39 0 72 -18.5t66 -55.5l-16 114q-34 -1 -67 9.5t-82 10.5q-23 0 -45 -4t-42.5 -11.5t-39 -19t-35.5 -25.5t-31 -31.5t-25 -37t-19 -42t-12 -46.5t-4 -50
q0 -28 5 -54t14.5 -49.5t23 -43.5t31 -37t38.5 -30t44.5 -22.5t49.5 -14t54 -4.5zM210 555h39l186 178h-151z" />
    <glyph glyph-name="Ccircumflex" unicode="&#x108;" horiz-adv-x="659" 
d="M32 342q0 -31 4.5 -59.5t13.5 -55.5t21.5 -51.5t29 -46t36 -40.5t42 -34.5t48 -27.5t53 -20.5t57.5 -13t61 -4.5q60 0 119 17.5t105 49.5l8 80q-45 -34 -97.5 -56t-110.5 -22q-25 0 -48 5t-44 14.5t-39.5 24t-34.5 33.5t-28 41.5t-21 49.5t-13.5 58t-4.5 65q0 33 4 63.5
t12 57.5t19.5 50t26 42.5t32.5 34.5t38 25.5t42.5 16t46.5 5.5q64 0 115.5 -28.5t102.5 -84.5l-20 143q-44 2 -91.5 19t-120.5 17q-30 0 -59.5 -4.5t-56.5 -13.5t-52 -21.5t-47.5 -29t-42.5 -36.5t-36.5 -42.5t-29.5 -48t-22 -53.5t-13.5 -57.5t-4.5 -61.5zM216 752h33
l135 93l137 -93h33l-111 158h-116z" />
    <glyph glyph-name="ccircumflex" unicode="&#x109;" horiz-adv-x="468" 
d="M286 -10q41 0 81 11.5t69 30.5l8 68q-27 -22 -60 -36t-66 -14q-65 0 -108.5 52t-43.5 146q0 96 39.5 150t100.5 54q39 0 72 -18.5t66 -55.5l-16 114q-34 -1 -67 9.5t-82 10.5q-23 0 -45 -4t-42.5 -11.5t-39 -19t-35.5 -25.5t-31 -31.5t-25 -37t-19 -42t-12 -46.5t-4 -50
q0 -28 5 -54t14.5 -49.5t23 -43.5t31 -37t38.5 -30t44.5 -22.5t49.5 -14t54 -4.5zM92 555h34l135 107l137 -107h34l-111 178h-118z" />
    <glyph glyph-name="Cdotaccent" unicode="&#x10a;" horiz-adv-x="659" 
d="M32 342q0 -31 4.5 -59.5t13.5 -55.5t21.5 -51.5t29 -46t36 -40.5t42 -34.5t48 -27.5t53 -20.5t57.5 -13t61 -4.5q60 0 119 17.5t105 49.5l8 80q-45 -34 -97.5 -56t-110.5 -22q-25 0 -48 5t-44 14.5t-39.5 24t-34.5 33.5t-28 41.5t-21 49.5t-13.5 58t-4.5 65q0 33 4 63.5
t12 57.5t19.5 50t26 42.5t32.5 34.5t38 25.5t42.5 16t46.5 5.5q64 0 115.5 -28.5t102.5 -84.5l-20 143q-44 2 -91.5 19t-120.5 17q-30 0 -59.5 -4.5t-56.5 -13.5t-52 -21.5t-47.5 -29t-42.5 -36.5t-36.5 -42.5t-29.5 -48t-22 -53.5t-13.5 -57.5t-4.5 -61.5zM385 763
q34 0 56 22t22 53t-22 53.5t-56 22.5t-56 -22.5t-22 -53.5t22 -53t56 -22z" />
    <glyph glyph-name="cdotaccent" unicode="&#x10b;" horiz-adv-x="468" 
d="M286 -10q41 0 81 11.5t69 30.5l8 68q-27 -22 -60 -36t-66 -14q-65 0 -108.5 52t-43.5 146q0 96 39.5 150t100.5 54q39 0 72 -18.5t66 -55.5l-16 114q-34 -1 -67 9.5t-82 10.5q-23 0 -45 -4t-42.5 -11.5t-39 -19t-35.5 -25.5t-31 -31.5t-25 -37t-19 -42t-12 -46.5t-4 -50
q0 -28 5 -54t14.5 -49.5t23 -43.5t31 -37t38.5 -30t44.5 -22.5t49.5 -14t54 -4.5zM262 571q34 0 56 22.5t22 53.5t-22 53.5t-56 22.5t-56 -22.5t-22 -53.5t22 -53.5t56 -22.5z" />
    <glyph glyph-name="Ccaron" unicode="&#x10c;" horiz-adv-x="659" 
d="M32 342q0 -31 4.5 -59.5t13.5 -55.5t21.5 -51.5t29 -46t36 -40.5t42 -34.5t48 -27.5t53 -20.5t57.5 -13t61 -4.5q60 0 119 17.5t105 49.5l8 80q-45 -34 -97.5 -56t-110.5 -22q-25 0 -48 5t-44 14.5t-39.5 24t-34.5 33.5t-28 41.5t-21 49.5t-13.5 58t-4.5 65q0 33 4 63.5
t12 57.5t19.5 50t26 42.5t32.5 34.5t38 25.5t42.5 16t46.5 5.5q64 0 115.5 -28.5t102.5 -84.5l-20 143q-44 2 -91.5 19t-120.5 17q-30 0 -59.5 -4.5t-56.5 -13.5t-52 -21.5t-47.5 -29t-42.5 -36.5t-36.5 -42.5t-29.5 -48t-22 -53.5t-13.5 -57.5t-4.5 -61.5zM327 757h116
l111 157h-33l-136 -92l-136 92h-33z" />
    <glyph glyph-name="ccaron" unicode="&#x10d;" horiz-adv-x="468" 
d="M286 -10q41 0 81 11.5t69 30.5l8 68q-27 -22 -60 -36t-66 -14q-65 0 -108.5 52t-43.5 146q0 96 39.5 150t100.5 54q39 0 72 -18.5t66 -55.5l-16 114q-34 -1 -67 9.5t-82 10.5q-23 0 -45 -4t-42.5 -11.5t-39 -19t-35.5 -25.5t-31 -31.5t-25 -37t-19 -42t-12 -46.5t-4 -50
q0 -28 5 -54t14.5 -49.5t23 -43.5t31 -37t38.5 -30t44.5 -22.5t49.5 -14t54 -4.5zM203 560h118l111 177h-34l-136 -107l-136 107h-34z" />
    <glyph glyph-name="Dcaron" unicode="&#x10e;" horiz-adv-x="728" 
d="M54 0h243q38 0 74 5t69 15t62.5 24.5t55 33.5t47.5 41.5t38.5 49t28.5 56.5t18 62.5t6 68.5q0 33 -6 64.5t-17 60t-27 54t-37 47.5t-46.5 40.5t-55 33t-63 24.5t-70.5 15t-77 5h-245q3 -7 6 -16t5 -19.5t4 -22.5t3.5 -25t2.5 -26l2 -26t1.5 -26t0.5 -24.5v-22.5v-284v-22
t-0.5 -25t-1.5 -26t-2 -26.5t-2 -26t-3 -24.5t-4 -23t-4.5 -19.5t-5.5 -15.5zM299 634q107 0 174 -77.5t67 -205.5q0 -131 -67 -209t-174 -78h-73v570h73zM300 757h116l111 157h-33l-136 -92l-136 92h-33z" />
    <glyph glyph-name="dcaron" unicode="&#x10f;" horiz-adv-x="692" 
d="M226 -11q46 0 86.5 24t64.5 66v-85l159 14q-3 7 -5.5 16t-4.5 19.5t-3.5 21.5t-2.5 23t-2 23.5t-1.5 23t-0.5 22.5v21v548l-160 -23q3 -7 6 -16t5 -19t3.5 -21t2.5 -23t2 -23.5t1.5 -23t0.5 -22.5v-21v-86q-23 32 -58 49t-73 17q-20 0 -39 -4t-37 -11.5t-34.5 -18.5
t-31 -25t-26.5 -31t-21.5 -37t-16.5 -42t-10.5 -46.5t-3.5 -50.5q0 -30 4 -56.5t11.5 -50.5t18 -44.5t24.5 -37.5t29.5 -30t34 -22t38 -13.5t40.5 -4.5zM167 253q0 88 33.5 138.5t85.5 50.5q26 0 49.5 -12t41.5 -35v-275q-20 -28 -44.5 -42t-51.5 -14q-51 0 -82.5 50
t-31.5 139zM574 494h31l109 224h-126z" />
    <glyph glyph-name="Dcroat" unicode="&#x110;" horiz-adv-x="738" 
d="M64 0h243q38 0 74 5t69 15t62.5 24.5t55 33.5t47.5 41.5t38.5 49t28.5 56.5t18 62.5t6 68.5q0 33 -6 64.5t-17 60t-27 54t-37 47.5t-46.5 40.5t-55 33t-63 24.5t-70.5 15t-77 5h-245q3 -7 6 -16t5 -19.5t4 -22.5t3.5 -25t2.5 -26l2 -26t1.5 -26t0.5 -24.5v-22.5v-113h-84
l-11 -58h95v-113v-22t-0.5 -25t-1.5 -26t-2 -26.5t-2 -26t-3 -24.5t-4 -23t-4.5 -19.5t-5.5 -15.5zM353 321l11 58h-128v255h73q107 0 174 -77.5t67 -205.5q0 -131 -67 -209t-174 -78h-73v257h117z" />
    <glyph glyph-name="dcroat" unicode="&#x111;" horiz-adv-x="580" 
d="M226 -11q47 0 87.5 25t64.5 68v-88l159 14q-3 7 -6 16t-5 19.5t-3.5 21.5t-2.5 23t-2 23.5t-1.5 23t-0.5 22.5v21v393h67l10 48h-77v107l-159 -23q7 -15 11 -37t6 -47h-112l-10 -48h125q1 -9 1 -18v-17v-88q-24 33 -58.5 49.5t-72.5 16.5q-20 0 -39.5 -4t-37.5 -11.5
t-34 -18.5t-30.5 -25t-27 -31t-22 -37t-16.5 -42t-10.5 -46.5t-3.5 -50.5q0 -30 4 -56.5t11.5 -50.5t18 -44.5t24 -37.5t29.5 -30t34 -22t38 -13.5t41 -4.5zM168 252q0 88 33 138.5t85 50.5q26 0 49.5 -12t42.5 -35v-272q-20 -28 -45 -42.5t-53 -14.5q-49 0 -80.5 49.5
t-31.5 137.5z" />
    <glyph glyph-name="Emacron" unicode="&#x112;" horiz-adv-x="574" 
d="M54 0h482l16 111q-12 -6 -26 -11t-29 -9.5t-31 -8t-32.5 -6.5t-33 -5.5t-32 -4t-30 -2.5t-28 -1.5t-24.5 -0.5h-62v261h36q50 0 90 -5.5t86 -18.5l-22 111q-38 -11 -75.5 -18t-82.5 -7h-32v250h59q56 0 125.5 -9t125.5 -38l-18 112h-464q3 -7 6 -16t5 -19.5t4 -22.5
t3.5 -25t2.5 -26l2 -26t1.5 -26t0.5 -24.5v-22.5v-284v-22t-0.5 -25t-1.5 -26t-2 -26.5t-2 -26t-3 -24.5t-4 -23t-4.5 -19.5t-5.5 -15.5zM164 791h296v76h-296v-76z" />
    <glyph glyph-name="emacron" unicode="&#x113;" horiz-adv-x="524" 
d="M292 -12q48 0 94 13.5t77 35.5l9 67q-34 -25 -72.5 -38t-76.5 -13q-69 0 -111.5 50.5t-45.5 146.5h333q-1 119 -63 191.5t-169 72.5q-23 0 -45 -4t-42 -12t-38 -19.5t-33.5 -25.5t-28.5 -31t-23 -36.5t-17 -41t-10.5 -44.5t-3.5 -48q0 -29 5 -56t14.5 -51t23 -45
t31 -38.5t39 -31t45.5 -23t51 -14.5t57 -5zM268 456q40 0 67.5 -36t34.5 -114h-203q5 72 32 111t69 39zM115 599h296v76h-296v-76z" />
    <glyph glyph-name="Ebreve" unicode="&#x114;" horiz-adv-x="574" 
d="M54 0h482l16 111q-12 -6 -26 -11t-29 -9.5t-31 -8t-32.5 -6.5t-33 -5.5t-32 -4t-30 -2.5t-28 -1.5t-24.5 -0.5h-62v261h36q50 0 90 -5.5t86 -18.5l-22 111q-38 -11 -75.5 -18t-82.5 -7h-32v250h59q56 0 125.5 -9t125.5 -38l-18 112h-464q3 -7 6 -16t5 -19.5t4 -22.5
t3.5 -25t2.5 -26l2 -26t1.5 -26t0.5 -24.5v-22.5v-284v-22t-0.5 -25t-1.5 -26t-2 -26.5t-2 -26t-3 -24.5t-4 -23t-4.5 -19.5t-5.5 -15.5zM312 754q68 0 112 39t50 111h-11q-16 -32 -56.5 -49.5t-94.5 -17.5t-94.5 17.5t-56.5 49.5h-11q6 -72 50 -111t112 -39z" />
    <glyph glyph-name="ebreve" unicode="&#x115;" horiz-adv-x="524" 
d="M292 -12q48 0 94 13.5t77 35.5l9 67q-34 -25 -72.5 -38t-76.5 -13q-69 0 -111.5 50.5t-45.5 146.5h333q-1 119 -63 191.5t-169 72.5q-23 0 -45 -4t-42 -12t-38 -19.5t-33.5 -25.5t-28.5 -31t-23 -36.5t-17 -41t-10.5 -44.5t-3.5 -48q0 -29 5 -56t14.5 -51t23 -45
t31 -38.5t39 -31t45.5 -23t51 -14.5t57 -5zM268 456q40 0 67.5 -36t34.5 -114h-203q5 72 32 111t69 39zM263 558q66 0 109 44t50 125h-11q-19 -39 -57 -63t-91 -24t-91 24t-57 63h-11q7 -81 50 -125t109 -44z" />
    <glyph glyph-name="Edotaccent" unicode="&#x116;" horiz-adv-x="574" 
d="M54 0h482l16 111q-12 -6 -26 -11t-29 -9.5t-31 -8t-32.5 -6.5t-33 -5.5t-32 -4t-30 -2.5t-28 -1.5t-24.5 -0.5h-62v261h36q50 0 90 -5.5t86 -18.5l-22 111q-38 -11 -75.5 -18t-82.5 -7h-32v250h59q56 0 125.5 -9t125.5 -38l-18 112h-464q3 -7 6 -16t5 -19.5t4 -22.5
t3.5 -25t2.5 -26l2 -26t1.5 -26t0.5 -24.5v-22.5v-284v-22t-0.5 -25t-1.5 -26t-2 -26.5t-2 -26t-3 -24.5t-4 -23t-4.5 -19.5t-5.5 -15.5zM312 762q34 0 56 22.5t22 53.5t-22 53.5t-56 22.5t-56 -22.5t-22 -53.5t22 -53.5t56 -22.5z" />
    <glyph glyph-name="edotaccent" unicode="&#x117;" horiz-adv-x="524" 
d="M292 -12q48 0 94 13.5t77 35.5l9 67q-34 -25 -72.5 -38t-76.5 -13q-69 0 -111.5 50.5t-45.5 146.5h333q-1 119 -63 191.5t-169 72.5q-23 0 -45 -4t-42 -12t-38 -19.5t-33.5 -25.5t-28.5 -31t-23 -36.5t-17 -41t-10.5 -44.5t-3.5 -48q0 -29 5 -56t14.5 -51t23 -45
t31 -38.5t39 -31t45.5 -23t51 -14.5t57 -5zM268 456q40 0 67.5 -36t34.5 -114h-203q5 72 32 111t69 39zM263 571q34 0 56 22.5t22 53.5t-22 53.5t-56 22.5t-56 -22.5t-22 -53.5t22 -53.5t56 -22.5z" />
    <glyph glyph-name="Eogonek" unicode="&#x118;" horiz-adv-x="574" 
d="M54 0h442q-75 -32 -110 -62.5t-35 -67.5q0 -34 29.5 -56.5t75.5 -22.5q17 0 37 3.5t34 8.5l11 49q-10 -4 -22 -6.5t-22 -2.5q-20 0 -34 12t-14 33q0 26 22.5 54t65.5 58h2l16 111q-12 -6 -26 -11t-29 -9.5t-31 -8t-32.5 -6.5t-33 -5.5t-32 -4t-30 -2.5t-28 -1.5
t-24.5 -0.5h-62v261h36q50 0 90 -5.5t86 -18.5l-22 111q-38 -11 -75.5 -18t-82.5 -7h-32v250h59q56 0 125.5 -9t125.5 -38l-18 112h-464q3 -7 6 -16t5 -19.5t4 -22.5t3.5 -25t2.5 -26l2 -26t1.5 -26t0.5 -24.5v-22.5v-284v-22t-0.5 -25t-1.5 -26t-2 -26.5t-2 -26t-3 -24.5
t-4 -23t-4.5 -19.5t-5.5 -15.5z" />
    <glyph glyph-name="eogonek" unicode="&#x119;" horiz-adv-x="524" 
d="M292 -12q18 0 36 2t34 6q-63 -31 -92 -61t-29 -67q0 -34 29.5 -56t75.5 -22q18 0 38.5 3.5t34.5 8.5l11 50q-10 -4 -23 -6.5t-23 -2.5q-21 0 -34.5 11.5t-13.5 32.5q0 30 21 61.5t65 65.5q11 5 21.5 11t19.5 12l9 67q-34 -25 -72.5 -38t-76.5 -13q-69 0 -111.5 50.5
t-45.5 146.5h333q-1 119 -63 191.5t-169 72.5q-23 0 -45 -4t-42 -12t-38 -19.5t-33.5 -25.5t-28.5 -31t-23 -36.5t-17 -41t-10.5 -44.5t-3.5 -48q0 -29 5 -56t14.5 -51t23 -45t31 -38.5t39 -31t45.5 -23t51 -14.5t57 -5zM268 456q40 0 67.5 -36t34.5 -114h-203q5 72 32 111
t69 39z" />
    <glyph glyph-name="Ecaron" unicode="&#x11a;" horiz-adv-x="574" 
d="M54 0h482l16 111q-12 -6 -26 -11t-29 -9.5t-31 -8t-32.5 -6.5t-33 -5.5t-32 -4t-30 -2.5t-28 -1.5t-24.5 -0.5h-62v261h36q50 0 90 -5.5t86 -18.5l-22 111q-38 -11 -75.5 -18t-82.5 -7h-32v250h59q56 0 125.5 -9t125.5 -38l-18 112h-464q3 -7 6 -16t5 -19.5t4 -22.5
t3.5 -25t2.5 -26l2 -26t1.5 -26t0.5 -24.5v-22.5v-284v-22t-0.5 -25t-1.5 -26t-2 -26.5t-2 -26t-3 -24.5t-4 -23t-4.5 -19.5t-5.5 -15.5zM254 757h116l111 157h-33l-136 -92l-136 92h-33z" />
    <glyph glyph-name="ecaron" unicode="&#x11b;" horiz-adv-x="524" 
d="M292 -12q48 0 94 13.5t77 35.5l9 67q-34 -25 -72.5 -38t-76.5 -13q-69 0 -111.5 50.5t-45.5 146.5h333q-1 119 -63 191.5t-169 72.5q-23 0 -45 -4t-42 -12t-38 -19.5t-33.5 -25.5t-28.5 -31t-23 -36.5t-17 -41t-10.5 -44.5t-3.5 -48q0 -29 5 -56t14.5 -51t23 -45
t31 -38.5t39 -31t45.5 -23t51 -14.5t57 -5zM268 456q40 0 67.5 -36t34.5 -114h-203q5 72 32 111t69 39zM204 560h118l111 177h-34l-136 -107l-136 107h-34z" />
    <glyph glyph-name="Gcircumflex" unicode="&#x11c;" horiz-adv-x="736" 
d="M414 -11q68 0 142.5 19t134.5 50q-4 25 -7 57t-3 62v28q0 43 4 77t15 62h-175q10 -27 14 -59t4 -79v-134q-28 -10 -57 -15t-60 -5q-26 0 -49.5 5t-45 15.5t-40.5 25t-35 33.5t-28.5 42t-21 50t-13 57.5t-4.5 63.5q0 35 4.5 66.5t13 59.5t20.5 51.5t27.5 43t34 34t39 25
t43.5 15.5t48 5q63 0 117.5 -27.5t108.5 -87.5l-21 144q-11 1 -22.5 2.5t-23 4.5l-23 6t-24.5 6.5t-26.5 6.5t-28.5 5.5t-32 4t-36 1.5q-33 0 -64.5 -4.5t-60 -13.5t-55 -22t-49.5 -30t-42.5 -36.5t-36 -42t-29.5 -48t-21.5 -52.5t-13 -56.5t-4.5 -59.5q0 -36 5.5 -69
t17 -62.5t27 -56t36 -49.5t45.5 -41.5t53 -33t60 -24.5t66.5 -15t71.5 -5zM225 752h33l135 93l137 -93h33l-111 158h-116z" />
    <glyph glyph-name="gcircumflex" unicode="&#x11d;" horiz-adv-x="538" 
d="M257 151q99 0 162 52t63 130q0 34 -12 63.5t-34 52.5q25 5 53 5.5t55 -4.5l-11 118q-40 -1 -73 -28t-48 -71q-28 22 -66.5 33.5t-84.5 11.5q-99 0 -162 -52t-63 -132q0 -56 33.5 -99t90.5 -64q-54 -10 -84 -39t-30 -66q0 -31 20.5 -55t59.5 -37q-66 -9 -97.5 -32
t-31.5 -54q0 -41 57 -69t165 -28q37 0 70 4t62 11t53 17t43.5 23t34.5 27t25.5 30t15.5 33t5 34q0 45 -32.5 70.5t-95.5 29.5l-184 11q-32 1 -47 12t-15 27q0 13 11 24t32 17q14 -3 29 -4.5t31 -1.5zM259 197q-38 0 -62.5 35t-24.5 100q0 66 24 100.5t63 34.5q38 0 62.5 -35
t24.5 -101q0 -65 -24 -99.5t-63 -34.5zM103 -106q0 20 16.5 37.5t49.5 28.5q5 -1 10.5 -1.5t10.5 -0.5l169 -12q25 -1 36.5 -10t11.5 -24q0 -31 -49.5 -55.5t-126.5 -24.5q-62 0 -95 16.5t-33 45.5zM92 555h34l135 107l137 -107h34l-111 178h-118z" />
    <glyph glyph-name="Gbreve" unicode="&#x11e;" horiz-adv-x="736" 
d="M414 -11q68 0 142.5 19t134.5 50q-4 25 -7 57t-3 62v28q0 43 4 77t15 62h-175q10 -27 14 -59t4 -79v-134q-28 -10 -57 -15t-60 -5q-26 0 -49.5 5t-45 15.5t-40.5 25t-35 33.5t-28.5 42t-21 50t-13 57.5t-4.5 63.5q0 35 4.5 66.5t13 59.5t20.5 51.5t27.5 43t34 34t39 25
t43.5 15.5t48 5q63 0 117.5 -27.5t108.5 -87.5l-21 144q-11 1 -22.5 2.5t-23 4.5l-23 6t-24.5 6.5t-26.5 6.5t-28.5 5.5t-32 4t-36 1.5q-33 0 -64.5 -4.5t-60 -13.5t-55 -22t-49.5 -30t-42.5 -36.5t-36 -42t-29.5 -48t-21.5 -52.5t-13 -56.5t-4.5 -59.5q0 -36 5.5 -69
t17 -62.5t27 -56t36 -49.5t45.5 -41.5t53 -33t60 -24.5t66.5 -15t71.5 -5zM394 755q68 0 112 38.5t50 110.5h-11q-16 -32 -56.5 -49t-94.5 -17t-94.5 17t-56.5 49h-11q6 -72 50 -110.5t112 -38.5z" />
    <glyph glyph-name="gbreve" unicode="&#x11f;" horiz-adv-x="538" 
d="M257 151q99 0 162 52t63 130q0 34 -12 63.5t-34 52.5q25 5 53 5.5t55 -4.5l-11 118q-40 -1 -73 -28t-48 -71q-28 22 -66.5 33.5t-84.5 11.5q-99 0 -162 -52t-63 -132q0 -56 33.5 -99t90.5 -64q-54 -10 -84 -39t-30 -66q0 -31 20.5 -55t59.5 -37q-66 -9 -97.5 -32
t-31.5 -54q0 -41 57 -69t165 -28q37 0 70 4t62 11t53 17t43.5 23t34.5 27t25.5 30t15.5 33t5 34q0 45 -32.5 70.5t-95.5 29.5l-184 11q-32 1 -47 12t-15 27q0 13 11 24t32 17q14 -3 29 -4.5t31 -1.5zM259 197q-38 0 -62.5 35t-24.5 100q0 66 24 100.5t63 34.5q38 0 62.5 -35
t24.5 -101q0 -65 -24 -99.5t-63 -34.5zM103 -106q0 20 16.5 37.5t49.5 28.5q5 -1 10.5 -1.5t10.5 -0.5l169 -12q25 -1 36.5 -10t11.5 -24q0 -31 -49.5 -55.5t-126.5 -24.5q-62 0 -95 16.5t-33 45.5zM262 557q66 0 109 44.5t50 125.5h-11q-20 -39 -57.5 -63t-90.5 -24
t-90.5 24t-57.5 63h-11q7 -81 50 -125.5t109 -44.5z" />
    <glyph glyph-name="Gdotaccent" unicode="&#x120;" horiz-adv-x="736" 
d="M414 -11q68 0 142.5 19t134.5 50q-4 25 -7 57t-3 62v28q0 43 4 77t15 62h-175q10 -27 14 -59t4 -79v-134q-28 -10 -57 -15t-60 -5q-26 0 -49.5 5t-45 15.5t-40.5 25t-35 33.5t-28.5 42t-21 50t-13 57.5t-4.5 63.5q0 35 4.5 66.5t13 59.5t20.5 51.5t27.5 43t34 34t39 25
t43.5 15.5t48 5q63 0 117.5 -27.5t108.5 -87.5l-21 144q-11 1 -22.5 2.5t-23 4.5l-23 6t-24.5 6.5t-26.5 6.5t-28.5 5.5t-32 4t-36 1.5q-33 0 -64.5 -4.5t-60 -13.5t-55 -22t-49.5 -30t-42.5 -36.5t-36 -42t-29.5 -48t-21.5 -52.5t-13 -56.5t-4.5 -59.5q0 -36 5.5 -69
t17 -62.5t27 -56t36 -49.5t45.5 -41.5t53 -33t60 -24.5t66.5 -15t71.5 -5zM394 763q34 0 56 22t22 53t-22 53.5t-56 22.5t-56 -22.5t-22 -53.5t22 -53t56 -22z" />
    <glyph glyph-name="gdotaccent" unicode="&#x121;" horiz-adv-x="538" 
d="M257 151q99 0 162 52t63 130q0 34 -12 63.5t-34 52.5q25 5 53 5.5t55 -4.5l-11 118q-40 -1 -73 -28t-48 -71q-28 22 -66.5 33.5t-84.5 11.5q-99 0 -162 -52t-63 -132q0 -56 33.5 -99t90.5 -64q-54 -10 -84 -39t-30 -66q0 -31 20.5 -55t59.5 -37q-66 -9 -97.5 -32
t-31.5 -54q0 -41 57 -69t165 -28q37 0 70 4t62 11t53 17t43.5 23t34.5 27t25.5 30t15.5 33t5 34q0 45 -32.5 70.5t-95.5 29.5l-184 11q-32 1 -47 12t-15 27q0 13 11 24t32 17q14 -3 29 -4.5t31 -1.5zM259 197q-38 0 -62.5 35t-24.5 100q0 66 24 100.5t63 34.5q38 0 62.5 -35
t24.5 -101q0 -65 -24 -99.5t-63 -34.5zM103 -106q0 20 16.5 37.5t49.5 28.5q5 -1 10.5 -1.5t10.5 -0.5l169 -12q25 -1 36.5 -10t11.5 -24q0 -31 -49.5 -55.5t-126.5 -24.5q-62 0 -95 16.5t-33 45.5zM262 571q34 0 56 22.5t22 53.5t-22 53.5t-56 22.5t-56 -22.5t-22 -53.5
t22 -53.5t56 -22.5z" />
    <glyph glyph-name="uni0122" unicode="&#x122;" horiz-adv-x="736" 
d="M414 -11q68 0 142.5 19t134.5 50q-4 25 -7 57t-3 62v28q0 43 4 77t15 62h-175q10 -27 14 -59t4 -79v-134q-28 -10 -57 -15t-60 -5q-26 0 -49.5 5t-45 15.5t-40.5 25t-35 33.5t-28.5 42t-21 50t-13 57.5t-4.5 63.5q0 35 4.5 66.5t13 59.5t20.5 51.5t27.5 43t34 34t39 25
t43.5 15.5t48 5q63 0 117.5 -27.5t108.5 -87.5l-21 144q-11 1 -22.5 2.5t-23 4.5l-23 6t-24.5 6.5t-26.5 6.5t-28.5 5.5t-32 4t-36 1.5q-33 0 -64.5 -4.5t-60 -13.5t-55 -22t-49.5 -30t-42.5 -36.5t-36 -42t-29.5 -48t-21.5 -52.5t-13 -56.5t-4.5 -59.5q0 -36 5.5 -69
t17 -62.5t27 -56t36 -49.5t45.5 -41.5t53 -33t60 -24.5t66.5 -15t71.5 -5zM358 -300q59 25 91 65t32 88q0 39 -22.5 62t-53.5 23q-29 0 -48 -18.5t-19 -44.5q0 -9 1.5 -15.5t4.5 -12.5t7 -10.5t8.5 -8.5t9 -7.5l9 -7t8.5 -7.5t7 -8t4.5 -9.5t1.5 -11.5q0 -16 -12 -35.5
t-33 -37.5z" />
    <glyph glyph-name="uni0123" unicode="&#x123;" horiz-adv-x="538" 
d="M312 810q-59 -25 -91 -65t-32 -88q0 -39 22.5 -62t53.5 -23q29 0 48 18.5t19 44.5q0 9 -1.5 15.5t-4.5 12.5t-7 10.5t-8.5 8.5t-9 7.5l-9 7t-8.5 7.5t-7 8t-4.5 9.5t-1.5 11.5q0 16 12 35.5t33 37.5zM257 151q99 0 162 52t63 130q0 34 -12 63.5t-34 52.5q25 5 53 5.5
t55 -4.5l-11 118q-40 -1 -73 -28t-48 -71q-28 22 -66.5 33.5t-84.5 11.5q-99 0 -162 -52t-63 -132q0 -56 33.5 -99t90.5 -64q-54 -10 -84 -39t-30 -66q0 -31 20.5 -55t59.5 -37q-66 -9 -97.5 -32t-31.5 -54q0 -41 57 -69t165 -28q37 0 70 4t62 11t53 17t43.5 23t34.5 27
t25.5 30t15.5 33t5 34q0 45 -32.5 70.5t-95.5 29.5l-184 11q-32 1 -47 12t-15 27q0 13 11 24t32 17q14 -3 29 -4.5t31 -1.5zM259 197q-38 0 -62.5 35t-24.5 100q0 66 24 100.5t63 34.5q38 0 62.5 -35t24.5 -101q0 -65 -24 -99.5t-63 -34.5zM103 -106q0 20 16.5 37.5
t49.5 28.5q5 -1 10.5 -1.5t10.5 -0.5l169 -12q25 -1 36.5 -10t11.5 -24q0 -31 -49.5 -55.5t-126.5 -24.5q-62 0 -95 16.5t-33 45.5z" />
    <glyph glyph-name="Hcircumflex" unicode="&#x124;" horiz-adv-x="724" 
d="M54 0h194q-3 7 -5.5 15.5t-4.5 19t-3.5 22.5t-3 25t-2.5 26t-1.5 26.5t-1 26.5t-0.5 25v22v117h272v-117v-22t-0.5 -25t-1.5 -26.5t-2 -26.5l-2 -26t-2.5 -25t-3.5 -22.5t-4.5 -19t-5.5 -15.5h194q-3 7 -5.5 15.5t-4.5 19t-4 22.5t-3 25l-2 26t-2 26.5t-1.5 26.5t-0.5 25
v22v284v22.5t0.5 24.5t1.5 26.5t2 26.5l2 26t3 25t4 22.5t4.5 19.5t5.5 15h-194q3 -6 5.5 -15t4.5 -19.5t3.5 -22.5t2.5 -25l2 -26t2 -26.5t1.5 -26.5t0.5 -25v-22v-101h-272v101v22.5t0.5 24.5t1 26.5t1.5 26.5t2.5 26t3 25t3.5 22.5t4.5 19.5t5.5 15h-194q3 -6 5.5 -15
t4.5 -19.5t4 -22.5t3 -25l2 -26t2 -26.5t1.5 -26.5t0.5 -25v-22v-284v-22t-0.5 -25t-1.5 -26.5t-2 -26.5l-2 -26t-3 -25t-4 -22.5t-4.5 -19t-5.5 -15.5zM193 752h33l135 93l137 -93h33l-111 158h-116z" />
    <glyph glyph-name="hcircumflex" unicode="&#x125;" horiz-adv-x="575" 
d="M44 0h176q-3 7 -5 15.5t-3.5 19t-3 21.5t-2.5 23t-2 24.5t-1.5 24t-0.5 23v21.5v206q20 25 44 40t52 15q33 0 55.5 -22t22.5 -65v-174v-21.5t-0.5 -23t-1.5 -24t-2 -24.5t-2.5 -23t-3 -21.5t-3.5 -19t-5 -15.5h176q-3 7 -5.5 16t-4.5 19.5t-3.5 22t-2.5 23.5t-2 24.5
t-1.5 25t-0.5 24v22.5v172q0 78 -42.5 121.5t-111.5 43.5q-51 0 -91.5 -26.5t-66.5 -69.5v308l-159 -23q3 -7 5.5 -16t5 -19t4 -21t2.5 -23t2 -23.5t1.5 -23t0.5 -22.5v-21v-357v-22.5t-0.5 -24t-1.5 -25t-2 -24.5t-2.5 -23.5t-3.5 -22t-4.5 -19.5t-5.5 -16zM-37 771h34
l135 107l137 -107h34l-111 178h-118z" />
    <glyph glyph-name="Hbar" unicode="&#x126;" horiz-adv-x="738" 
d="M62 0h194q-3 7 -5.5 15.5t-4.5 19t-4 22.5t-3 25l-2 26t-2 26.5t-1.5 26.5t-0.5 25v22v117h271v-117v-22t-0.5 -25t-1.5 -26.5t-2 -26.5l-2 -26t-2.5 -25t-3.5 -22.5t-4.5 -19t-5.5 -15.5h194q-3 7 -5.5 15.5t-4.5 19t-4 22.5t-3 25l-2 26t-2 26.5t-1.5 26.5t-0.5 25v22
v307h82l10 55h-90q2 39 7 75t14 55h-194q8 -19 13 -55t7 -75h-267q2 39 7 75t14 55h-194q8 -19 13 -55t7 -75h-79l-11 -55h92v-307v-22t-0.5 -25t-1.5 -26.5t-2 -26.5l-2 -26t-2.5 -25t-3.5 -22.5t-4.5 -19t-5.5 -15.5zM233 391v124h271v-124h-271z" />
    <glyph glyph-name="hbar" unicode="&#x127;" horiz-adv-x="575" 
d="M44 0h176q-3 7 -5 15.5t-3.5 19t-3 21.5t-2.5 23t-2 24.5t-1.5 24t-0.5 23v21.5v206q20 25 44 40t52 15q33 0 55.5 -22t22.5 -65v-174v-21.5t-0.5 -23t-1.5 -24t-2 -24.5t-2.5 -23t-3 -21.5t-3.5 -19t-5 -15.5h176q-3 7 -5.5 16t-4.5 19.5t-3.5 22t-2.5 23.5t-2 24.5
t-1.5 25t-0.5 24v22.5v172q0 78 -42.5 121.5t-111.5 43.5q-51 0 -91.5 -26.5t-66.5 -69.5v153h116l10 48h-126v107l-159 -23q7 -15 11 -37t6 -47h-62l-11 -48h76q1 -9 1 -18v-17v-359v-22.5t-0.5 -24t-1.5 -25t-2 -24.5t-2.5 -23.5t-3.5 -22t-4.5 -19.5t-5.5 -16z" />
    <glyph glyph-name="Itilde" unicode="&#x128;" horiz-adv-x="302" 
d="M54 0h194q-3 7 -5.5 15.5t-4.5 19t-3.5 22.5t-3 25t-2.5 26t-1.5 26.5t-1 26.5t-0.5 25v22v284v22.5t0.5 24.5t1 26.5t1.5 26.5t2.5 26t3 25t3.5 22.5t4.5 19.5t5.5 15h-194q3 -6 5.5 -15t4.5 -19.5t4 -22.5t3 -25l2 -26t2 -26.5t1.5 -26.5t0.5 -25v-22v-284v-22
t-0.5 -25t-1.5 -26.5t-2 -26.5l-2 -26t-3 -25t-4 -22.5t-4.5 -19t-5.5 -15.5zM-17 767h16q12 29 30.5 42t37.5 13q7 0 14 -2t15 -5t16 -7.5t17 -9t17.5 -9t18 -9t19 -7.5t18.5 -5t19 -2q38 0 66.5 32.5t44.5 105.5h-17q-13 -28 -31 -41t-37 -13q-7 0 -14 2t-15 5t-16 7
t-16.5 9t-17.5 9.5t-18 8.5t-18.5 7t-19 5t-19.5 2q-37 0 -66 -32.5t-44 -105.5z" />
    <glyph glyph-name="itilde" unicode="&#x129;" horiz-adv-x="266" 
d="M44 0h178q-3 7 -5.5 16t-4.5 19.5t-3.5 22t-2.5 23.5t-2 24.5t-1.5 25t-0.5 24v22.5v331l-159 -24q3 -7 5.5 -16t5 -19.5t4 -21.5t2.5 -23t2 -23.5t1.5 -23t0.5 -22.5v-21v-137v-22.5t-0.5 -24t-1.5 -25t-2 -24.5t-2.5 -23.5t-3.5 -22t-4.5 -19.5t-5.5 -16zM-36 570h16
q15 33 33 49t37 16q7 0 14 -2t14.5 -6t15.5 -9t16.5 -10t17.5 -10.5t18 -10.5t18 -9t18.5 -6t19.5 -2q37 0 65.5 35.5t45.5 113.5h-17q-13 -32 -31 -48.5t-37 -16.5q-7 0 -14.5 2t-15.5 6t-16 9t-16.5 10.5t-17.5 11t-18 10.5t-18 9t-18.5 6t-19.5 2q-37 0 -65.5 -36
t-44.5 -114z" />
    <glyph glyph-name="Imacron" unicode="&#x12a;" horiz-adv-x="302" 
d="M54 0h194q-3 7 -5.5 15.5t-4.5 19t-3.5 22.5t-3 25t-2.5 26t-1.5 26.5t-1 26.5t-0.5 25v22v284v22.5t0.5 24.5t1 26.5t1.5 26.5t2.5 26t3 25t3.5 22.5t4.5 19.5t5.5 15h-194q3 -6 5.5 -15t4.5 -19.5t4 -22.5t3 -25l2 -26t2 -26.5t1.5 -26.5t0.5 -25v-22v-284v-22
t-0.5 -25t-1.5 -26.5t-2 -26.5l-2 -26t-3 -25t-4 -22.5t-4.5 -19t-5.5 -15.5zM3 791h296v76h-296v-76z" />
    <glyph glyph-name="imacron" unicode="&#x12b;" horiz-adv-x="266" 
d="M44 0h178q-3 7 -5.5 16t-4.5 19.5t-3.5 22t-2.5 23.5t-2 24.5t-1.5 25t-0.5 24v22.5v331l-159 -24q3 -7 5.5 -16t5 -19.5t4 -21.5t2.5 -23t2 -23.5t1.5 -23t0.5 -22.5v-21v-137v-22.5t-0.5 -24t-1.5 -25t-2 -24.5t-2.5 -23.5t-3.5 -22t-4.5 -19.5t-5.5 -16zM-16 599h296
v76h-296v-76z" />
    <glyph glyph-name="Ibreve" unicode="&#x12c;" horiz-adv-x="302" 
d="M54 0h194q-3 7 -5.5 15.5t-4.5 19t-3.5 22.5t-3 25t-2.5 26t-1.5 26.5t-1 26.5t-0.5 25v22v284v22.5t0.5 24.5t1 26.5t1.5 26.5t2.5 26t3 25t3.5 22.5t4.5 19.5t5.5 15h-194q3 -6 5.5 -15t4.5 -19.5t4 -22.5t3 -25l2 -26t2 -26.5t1.5 -26.5t0.5 -25v-22v-284v-22
t-0.5 -25t-1.5 -26.5t-2 -26.5l-2 -26t-3 -25t-4 -22.5t-4.5 -19t-5.5 -15.5zM151 754q68 0 112 39t50 111h-11q-16 -32 -56.5 -49.5t-94.5 -17.5t-94.5 17.5t-56.5 49.5h-11q6 -72 50 -111t112 -39z" />
    <glyph glyph-name="ibreve" unicode="&#x12d;" horiz-adv-x="266" 
d="M44 0h178q-3 7 -5.5 16t-4.5 19.5t-3.5 22t-2.5 23.5t-2 24.5t-1.5 25t-0.5 24v22.5v331l-159 -24q3 -7 5.5 -16t5 -19.5t4 -21.5t2.5 -23t2 -23.5t1.5 -23t0.5 -22.5v-21v-137v-22.5t-0.5 -24t-1.5 -25t-2 -24.5t-2.5 -23.5t-3.5 -22t-4.5 -19.5t-5.5 -16zM132 557
q66 0 109 44.5t50 125.5h-11q-20 -39 -57.5 -63t-90.5 -24t-90.5 24t-57.5 63h-11q7 -81 50 -125.5t109 -44.5z" />
    <glyph glyph-name="Iogonek" unicode="&#x12e;" horiz-adv-x="302" 
d="M54 0h156q-75 -32 -110 -62.5t-35 -67.5q0 -34 29.5 -56.5t75.5 -22.5q17 0 37 3.5t34 8.5l11 49q-10 -4 -22 -6.5t-22 -2.5q-20 0 -34 12t-14 33q0 26 22.5 54t65.5 58q-3 7 -5.5 15.5t-4.5 19t-3.5 22.5t-3 25t-2.5 26t-1.5 26.5t-1 26.5t-0.5 25v22v284v22.5t0.5 24.5
t1 26.5t1.5 26.5t2.5 26t3 25t3.5 22.5t4.5 19.5t5.5 15h-194q3 -6 5.5 -15t4.5 -19.5t4 -22.5t3 -25l2 -26t2 -26.5t1.5 -26.5t0.5 -25v-22v-284v-22t-0.5 -25t-1.5 -26.5t-2 -26.5l-2 -26t-3 -25t-4 -22.5t-4.5 -19t-5.5 -15.5z" />
    <glyph glyph-name="iogonek" unicode="&#x12f;" horiz-adv-x="266" 
d="M132 567q34 0 57.5 23.5t23.5 57.5q0 33 -23.5 56.5t-57.5 23.5q-36 0 -59 -23.5t-23 -56.5q0 -34 23 -57.5t59 -23.5zM44 0h130q-75 -32 -110 -62.5t-35 -67.5q0 -34 29.5 -56.5t75.5 -22.5q17 0 37 3.5t34 8.5l11 49q-10 -4 -22 -6.5t-22 -2.5q-20 0 -34 12t-14 33
q0 26 22.5 54t65.5 58h10q-3 7 -5.5 16t-4.5 19.5t-3.5 22t-2.5 23.5t-2 24.5t-1.5 25t-0.5 24v22.5v331l-159 -24q3 -7 5.5 -16t5 -19t4 -21.5t2.5 -23l2 -23t1.5 -23.5t0.5 -22.5v-20.5v-138v-22.5t-0.5 -24t-1.5 -25t-2 -24.5t-2.5 -23.5t-3.5 -22t-4.5 -19.5t-5.5 -16z
" />
    <glyph glyph-name="Idotaccent" unicode="&#x130;" horiz-adv-x="302" 
d="M54 0h194q-3 7 -5.5 15.5t-4.5 19t-3.5 22.5t-3 25t-2.5 26t-1.5 26.5t-1 26.5t-0.5 25v22v284v22.5t0.5 24.5t1 26.5t1.5 26.5t2.5 26t3 25t3.5 22.5t4.5 19.5t5.5 15h-194q3 -6 5.5 -15t4.5 -19.5t4 -22.5t3 -25l2 -26t2 -26.5t1.5 -26.5t0.5 -25v-22v-284v-22
t-0.5 -25t-1.5 -26.5t-2 -26.5l-2 -26t-3 -25t-4 -22.5t-4.5 -19t-5.5 -15.5zM151 762q34 0 56 22.5t22 53.5t-22 53.5t-56 22.5t-56 -22.5t-22 -53.5t22 -53.5t56 -22.5z" />
    <glyph glyph-name="dotlessi" unicode="&#x131;" horiz-adv-x="266" 
d="M44 0h178q-3 7 -5.5 16t-4.5 19.5t-3.5 22t-2.5 23.5t-2 24.5t-1.5 25t-0.5 24v22.5v331l-159 -24q3 -7 5.5 -16t5 -19.5t4 -21.5t2.5 -23t2 -23.5t1.5 -23t0.5 -22.5v-21v-137v-22.5t-0.5 -24t-1.5 -25t-2 -24.5t-2.5 -23.5t-3.5 -22t-4.5 -19.5t-5.5 -16z" />
    <glyph glyph-name="IJ" unicode="&#x132;" horiz-adv-x="600" 
d="M54 0h194q-3 7 -5.5 15.5t-4.5 19t-3.5 22.5t-3 25t-2.5 26t-1.5 26.5t-1 26.5t-0.5 25v22v284v22.5t0.5 24.5t1 26.5t1.5 26.5t2.5 26t3 25t3.5 22.5t4.5 19.5t5.5 15h-194q3 -6 5.5 -15t4.5 -19.5t4 -22.5t3 -25l2 -26t2 -26.5t1.5 -26.5t0.5 -25v-22v-284v-22
t-0.5 -25t-1.5 -26.5t-2 -26.5l-2 -26t-3 -25t-4 -22.5t-4.5 -19t-5.5 -15.5zM330 -205q88 0 141.5 55t53.5 147v495v22.5t0.5 24.5t1.5 26.5t2 26.5l2 26t2.5 25t3.5 22.5t4.5 19.5t5.5 15h-195q3 -7 5.5 -15.5t4.5 -19.5t4 -23t3.5 -24.5t2.5 -26t2 -26.5t1.5 -26
t0.5 -24.5v-22.5v-551q0 -41 -18 -61.5t-50 -20.5q-16 0 -34.5 5.5t-35.5 15.5l8 -67q17 -8 38.5 -13t45.5 -5z" />
    <glyph glyph-name="ij" unicode="&#x133;" horiz-adv-x="528" 
d="M132 567q34 0 57.5 23.5t23.5 57.5q0 33 -23.5 56.5t-57.5 23.5q-36 0 -59 -23.5t-23 -56.5q0 -34 23 -57.5t59 -23.5zM44 0h178q-3 7 -5.5 16t-4.5 19.5t-3.5 22t-2.5 23.5t-2 24.5t-1.5 25t-0.5 24v22.5v331l-159 -24q3 -7 5.5 -16t5 -19t4 -21.5t2.5 -23l2 -23
t1.5 -23.5t0.5 -22.5v-20.5v-138v-22.5t-0.5 -24t-1.5 -25t-2 -24.5t-2.5 -23.5t-3.5 -22t-4.5 -19.5t-5.5 -16zM398 567q34 0 57.5 23.5t23.5 57.5q0 33 -23.5 56.5t-57.5 23.5q-36 0 -59 -23.5t-23 -56.5q0 -34 23 -57.5t59 -23.5zM304 -206q76 0 120 43t44 121v550
l-159 -24q3 -7 5.5 -16t5 -19t4 -21.5t2.5 -23l2 -23t1.5 -23.5t0.5 -22.5v-20.5v-399q0 -28 -13.5 -43.5t-38.5 -15.5q-14 0 -28.5 3.5t-27.5 8.5l6 -61q16 -7 36 -10.5t40 -3.5z" />
    <glyph glyph-name="Jcircumflex" unicode="&#x134;" horiz-adv-x="297" 
d="M28 -205q88 0 141.5 55t53.5 147v495v22.5t0.5 24.5t1.5 26.5t2 26.5l2 26t2.5 25t3.5 22.5t4.5 19.5t5.5 15h-195q3 -7 5.5 -15.5t4.5 -19.5t4 -23t3.5 -24.5t2.5 -26t2 -26.5t1.5 -26t0.5 -24.5v-22.5v-551q0 -41 -18 -61.5t-50 -20.5q-16 0 -34.5 5.5t-35.5 15.5
l8 -67q17 -8 38.5 -13t45.5 -5zM-21 752h33l135 93l137 -93h33l-111 158h-116z" />
    <glyph glyph-name="jcircumflex" unicode="&#x135;" horiz-adv-x="262" 
d="M38 -206q76 0 120 43t44 121v550l-159 -24q3 -7 5.5 -16t5 -19t4 -21.5t2.5 -23l2 -23t1.5 -23.5t0.5 -22.5v-20.5v-399q0 -28 -13.5 -43.5t-38.5 -15.5q-14 0 -28.5 3.5t-27.5 8.5l6 -61q16 -7 36 -10.5t40 -3.5zM-38 555h34l135 107l137 -107h34l-111 178h-118z" />
    <glyph glyph-name="uni0136" unicode="&#x136;" horiz-adv-x="667" 
d="M54 0h194q-3 7 -5.5 15.5t-4.5 19t-4 22.5t-3 25l-2 26t-2 26.5t-1.5 26.5t-0.5 25v22v284v22.5t0.5 24.5t1.5 26.5t2 26.5l2 26t3 25t4 22.5t4.5 19.5t5.5 15h-194q3 -6 5.5 -15t4.5 -19.5t4 -22.5t3 -25l2 -26t2 -26.5t1.5 -26.5t0.5 -25v-22v-284v-22t-0.5 -25
t-1.5 -26.5t-2 -26.5l-2 -26t-3 -25t-4 -22.5t-4.5 -19t-5.5 -15.5zM470 0h207q-22 27 -56.5 69.5t-65.5 84.5l-173 237l130 155q40 46 76.5 87.5t63.5 66.5h-133q0 -25 -21.5 -60t-52.5 -75l-192 -230l142 -193q31 -42 52 -79.5t23 -62.5zM306 -300q59 25 91 65t32 88
q0 39 -22.5 62t-53.5 23q-29 0 -48.5 -18.5t-19.5 -44.5q0 -8 1.5 -15t4.5 -12.5t7 -10.5t8.5 -9t9.5 -7.5t9.5 -7t8.5 -7.5t7 -8t4.5 -9.5t1.5 -11.5q0 -16 -12 -35.5t-33 -37.5z" />
    <glyph glyph-name="uni0137" unicode="&#x137;" horiz-adv-x="542" 
d="M44 0h176q-3 7 -5 15.5t-3.5 19t-3 21.5t-2.5 23t-2 24.5t-1.5 24t-0.5 23v21.5v554l-159 -23q3 -7 5.5 -16t5 -19t4 -21t2.5 -23t2 -23.5t1.5 -23t0.5 -22.5v-21v-357v-22.5t-0.5 -24t-1.5 -25t-2 -24.5t-2.5 -23.5t-3.5 -22t-4.5 -19.5t-5.5 -16zM371 0h181
q-21 26 -48.5 63.5t-55.5 77.5l-104 151l72 83q31 34 63 69t57 59h-117q-4 -25 -22 -55t-46 -61l-126 -144l90 -129q23 -34 37.5 -62.5t18.5 -51.5zM246 -300q59 25 91 65t32 88q0 39 -22.5 62t-53.5 23q-29 0 -48.5 -18.5t-19.5 -44.5q0 -8 1.5 -15t4.5 -12.5t7 -10.5
t8.5 -9t9.5 -7.5t9.5 -7t8.5 -7.5t7 -8t4.5 -9.5t1.5 -11.5q0 -16 -12 -35.5t-33 -37.5z" />
    <glyph glyph-name="kgreenlandic" unicode="&#x138;" horiz-adv-x="542" 
d="M44 0h176q-3 8 -5.5 17.5t-4.5 21t-3 24.5l-2 26t-1.5 26.5t-1 26t-0.5 24.5v342l-159 -24q4 -8 6.5 -17.5t5 -21t4 -24t2.5 -25.5t1.5 -25.5l1 -25t0.5 -23.5v-152q0 -12 -0.5 -25t-1 -27t-1.5 -27.5t-2.5 -26.5t-3.5 -24.5t-5 -21.5t-6 -18zM371 0h181
q-21 26 -48.5 63.5t-55.5 77.5l-104 151l72 83q31 34 63 69t57 59h-117q-4 -25 -22 -55t-46 -61l-126 -144l90 -129q23 -34 37.5 -62.5t18.5 -51.5z" />
    <glyph glyph-name="Lacute" unicode="&#x139;" horiz-adv-x="567" 
d="M54 0h482l16 111q-12 -6 -25.5 -11t-28.5 -9.5t-31 -8t-32.5 -6.5t-33 -5t-32 -3.5t-30.5 -2.5t-28.5 -1.5t-24.5 -0.5h-60v429v22.5t0.5 24.5t1.5 26t2 26.5t2.5 26t3 24.5t4 23t5 19.5t5.5 15.5h-196q3 -6 5.5 -15t4.5 -19.5t4 -22.5t3 -25l2 -26t2 -26.5t1.5 -26.5
t0.5 -25v-22v-284v-22t-0.5 -25t-1.5 -26t-2 -26.5t-2.5 -26t-3 -24.5t-3.5 -23t-4.5 -19.5t-5.5 -15.5zM102 752h37l183 158h-151z" />
    <glyph glyph-name="lacute" unicode="&#x13a;" horiz-adv-x="266" 
d="M44 0h178q-3 7 -5.5 16t-4.5 19.5t-3.5 22t-2.5 23.5t-2 24.5t-1.5 25t-0.5 24v22.5v549l-159 -23q3 -7 5.5 -16t5 -19t4 -21t2.5 -23t2 -23.5t1.5 -23t0.5 -22.5v-21v-357v-22.5t-0.5 -24t-1.5 -25t-2 -24.5t-2.5 -23.5t-3.5 -22t-4.5 -19.5t-5.5 -16zM81 771h38
l186 178h-150z" />
    <glyph glyph-name="uni013B" unicode="&#x13b;" horiz-adv-x="567" 
d="M54 0h482l16 111q-12 -6 -25.5 -11t-28.5 -9.5t-31 -8t-32.5 -6.5t-33 -5t-32 -3.5t-30.5 -2.5t-28.5 -1.5t-24.5 -0.5h-60v429v22.5t0.5 24.5t1.5 26t2 26.5t2.5 26t3 24.5t4 23t5 19.5t5.5 15.5h-196q3 -6 5.5 -15t4.5 -19.5t4 -22.5t3 -25l2 -26t2 -26.5t1.5 -26.5
t0.5 -25v-22v-284v-22t-0.5 -25t-1.5 -26t-2 -26.5t-2.5 -26t-3 -24.5t-3.5 -23t-4.5 -19.5t-5.5 -15.5zM276 -300q59 25 91 65t32 88q0 39 -22.5 62t-53.5 23q-29 0 -48.5 -18.5t-19.5 -44.5q0 -8 1.5 -15t4.5 -12.5t7 -10.5t8.5 -9t9.5 -7.5t9.5 -7t8.5 -7.5t7 -8
t4.5 -9.5t1.5 -11.5q0 -16 -12 -35.5t-33 -37.5z" />
    <glyph glyph-name="uni013C" unicode="&#x13c;" horiz-adv-x="266" 
d="M44 0h178q-3 7 -5.5 16t-4.5 19.5t-3.5 22t-2.5 23.5t-2 24.5t-1.5 25t-0.5 24v22.5v549l-159 -23q3 -7 5.5 -16t5 -19t4 -21t2.5 -23t2 -23.5t1.5 -23t0.5 -22.5v-21v-357v-22.5t-0.5 -24t-1.5 -25t-2 -24.5t-2.5 -23.5t-3.5 -22t-4.5 -19.5t-5.5 -16zM83 -300
q59 25 91 65t32 88q0 39 -22.5 62t-53.5 23q-29 0 -48.5 -18.5t-19.5 -44.5q0 -8 1.5 -15t4.5 -12.5t7 -10.5t8.5 -9t9.5 -7.5t9.5 -7t8.5 -7.5t7 -8t4.5 -9.5t1.5 -11.5q0 -16 -12 -35.5t-33 -37.5z" />
    <glyph glyph-name="Lcaron" unicode="&#x13d;" horiz-adv-x="567" 
d="M54 0h482l16 111q-12 -6 -25.5 -11t-28.5 -9.5t-31 -8t-32.5 -6.5t-33 -5t-32 -3.5t-30.5 -2.5t-28.5 -1.5t-24.5 -0.5h-60v429v22.5t0.5 24.5t1.5 26t2 26.5t2.5 26t3 24.5t4 23t5 19.5t5.5 15.5h-196q3 -6 5.5 -15t4.5 -19.5t4 -22.5t3 -25l2 -26t2 -26.5t1.5 -26.5
t0.5 -25v-22v-284v-22t-0.5 -25t-1.5 -26t-2 -26.5t-2.5 -26t-3 -24.5t-3.5 -23t-4.5 -19.5t-5.5 -15.5zM308 476h31l109 224h-126z" />
    <glyph glyph-name="lcaron" unicode="&#x13e;" horiz-adv-x="379" 
d="M44 0h178q-3 7 -5.5 16t-4.5 19.5t-3.5 22t-2.5 23.5t-2 24.5t-1.5 25t-0.5 24v22.5v549l-159 -23q3 -7 5.5 -16t5 -19t4 -21t2.5 -23t2 -23.5t1.5 -23t0.5 -22.5v-21v-357v-22.5t-0.5 -24t-1.5 -25t-2 -24.5t-2.5 -23.5t-3.5 -22t-4.5 -19.5t-5.5 -16zM262 494h31
l109 224h-126z" />
    <glyph glyph-name="Ldot" unicode="&#x13f;" horiz-adv-x="569" 
d="M433 312q34 0 56 23t22 53q0 31 -22 53.5t-56 22.5t-56 -22.5t-22 -53.5q0 -30 22 -53t56 -23zM54 0h482l16 111q-12 -6 -25.5 -11t-28.5 -9.5t-31 -8t-32.5 -6.5t-33 -5t-32 -3.5t-30.5 -2.5t-28.5 -1.5t-24.5 -0.5h-60v429v22.5t0.5 24.5t1.5 26t2 26.5t2.5 26t3 24.5
t4 23t5 19.5t5.5 15.5h-196q3 -6 5.5 -15t4.5 -19.5t4 -22.5t3 -25l2 -26t2 -26.5t1.5 -26.5t0.5 -25v-22v-284v-22t-0.5 -25t-1.5 -26t-2 -26.5t-2.5 -26t-3 -24.5t-3.5 -23t-4.5 -19.5t-5.5 -15.5z" />
    <glyph glyph-name="ldot" unicode="&#x140;" horiz-adv-x="412" 
d="M261 342q0 -31 22 -53t56 -22t56 22t22 53t-22 53t-56 22t-56 -22t-22 -53zM44 0h178q-3 7 -5.5 16t-4.5 19.5t-3.5 22t-2.5 23.5t-2 24.5t-1.5 25t-0.5 24v22.5v549l-159 -23q3 -7 5.5 -16t5 -19t4 -21t2.5 -23t2 -23.5t1.5 -23t0.5 -22.5v-21v-357v-22.5t-0.5 -24
t-1.5 -25t-2 -24.5t-2.5 -23.5t-3.5 -22t-4.5 -19.5t-5.5 -16z" />
    <glyph glyph-name="Lslash" unicode="&#x141;" horiz-adv-x="579" 
d="M64 0h482l16 111q-12 -6 -25.5 -11t-28.5 -9.5t-31 -8t-32.5 -6.5t-33 -5t-32 -3.5t-30.5 -2.5t-28.5 -1.5t-24.5 -0.5h-60v267l150 92v66l-150 -92v96v22.5t0.5 24.5t1.5 26t2 26.5t2.5 26t3 24.5t4 23t5 19.5t5.5 15.5h-196q3 -6 5.5 -15t4.5 -19.5t4 -22.5t3 -25
l2 -26t2 -26.5t1.5 -26.5t0.5 -25v-22v-188l-79 -49v-65l79 48v-30v-22t-0.5 -25t-1.5 -26t-2 -26.5t-2.5 -26t-3 -24.5t-3.5 -23t-4.5 -19.5t-5.5 -15.5z" />
    <glyph glyph-name="lslash" unicode="&#x142;" horiz-adv-x="266" 
d="M44 0h178q-3 7 -5.5 16t-4.5 19.5t-3.5 22t-2.5 23.5t-2 24.5t-1.5 25t-0.5 24v22.5v183l82 55v63l-82 -54v302l-159 -23q3 -7 5.5 -16t5 -19t4 -21t2.5 -23t2 -23.5t1.5 -23t0.5 -22.5v-21v-189l-83 -55v-64l83 56v-105v-22.5t-0.5 -24t-1.5 -25t-2 -24.5t-2.5 -23.5
t-3.5 -22t-4.5 -19.5t-5.5 -16z" />
    <glyph glyph-name="Nacute" unicode="&#x143;" horiz-adv-x="724" 
d="M648 493q0 11 0.5 22.5t1 24.5l1 26t2 26l3 26t3 24.5t4 22.5t5 19.5t5.5 15.5h-123q3 -7 6 -17.5t5.5 -22.5t4.5 -25.5t3.5 -27.5t2.5 -28.5l2 -29t1.5 -28t0.5 -25.5l1 -243l-8 7l-493 456v-509q0 -10 -0.5 -22t-1 -25l-1 -26t-2 -26l-3 -26t-3 -24.5t-4 -22.5
t-5 -19.5t-5.5 -15.5h123q-3 7 -6 16.5t-5.5 20.5t-4.5 23.5t-3.5 25.5t-3 26.5t-2 26.5t-1 25.5t-0.5 23.5l-1 259l6 -6l495 -457v509zM316 752h37l183 158h-151z" />
    <glyph glyph-name="nacute" unicode="&#x144;" horiz-adv-x="575" 
d="M44 0h176q-3 7 -5 15.5t-3.5 19t-3 21.5t-2.5 23t-2 24.5t-1.5 24t-0.5 23v21.5v206q20 25 44 40t52 15q33 0 55.5 -22t22.5 -65v-174v-21.5t-0.5 -23t-1.5 -24t-2 -24.5t-2.5 -23t-3 -21.5t-3.5 -19t-5 -15.5h176q-3 7 -5.5 16t-4 19.5t-3 22t-3 23.5t-2 24.5t-1.5 25
t-1 24v22.5v172q0 78 -42.5 121.5t-111.5 43.5q-51 0 -91.5 -26.5t-66.5 -69.5v90l-159 -24q3 -7 5.5 -16t5 -19t4 -21.5t2.5 -23l2 -23t1.5 -23.5t0.5 -22.5v-20.5v-138v-22.5t-0.5 -24t-1.5 -25t-2 -24.5t-2.5 -23.5t-3.5 -22t-4.5 -19.5t-5.5 -16zM237 555h38l186 178
h-150z" />
    <glyph glyph-name="uni0145" unicode="&#x145;" horiz-adv-x="724" 
d="M648 493q0 11 0.5 22.5t1 24.5l1 26t2 26l3 26t3 24.5t4 22.5t5 19.5t5.5 15.5h-123q3 -7 6 -17.5t5.5 -22.5t4.5 -25.5t3.5 -27.5t2.5 -28.5l2 -29t1.5 -28t0.5 -25.5l1 -243l-8 7l-493 456v-509q0 -10 -0.5 -22t-1 -25l-1 -26t-2 -26l-3 -26t-3 -24.5t-4 -22.5
t-5 -19.5t-5.5 -15.5h123q-3 7 -6 16.5t-5.5 20.5t-4.5 23.5t-3.5 25.5t-3 26.5t-2 26.5t-1 25.5t-0.5 23.5l-1 259l6 -6l495 -457v509zM332 -300q59 25 91 65t32 88q0 39 -22.5 62t-53.5 23q-29 0 -48.5 -18.5t-19.5 -44.5q0 -8 1.5 -15t4.5 -12.5t7 -10.5t8.5 -9t9.5 -7.5
t9.5 -7t8.5 -7.5t7 -8t4.5 -9.5t1.5 -11.5q0 -16 -12 -35.5t-33 -37.5z" />
    <glyph glyph-name="uni0146" unicode="&#x146;" horiz-adv-x="575" 
d="M44 0h176q-3 7 -5 15.5t-3.5 19t-3 21.5t-2.5 23t-2 24.5t-1.5 24t-0.5 23v21.5v206q20 25 44 40t52 15q33 0 55.5 -22t22.5 -65v-174v-21.5t-0.5 -23t-1.5 -24t-2 -24.5t-2.5 -23t-3 -21.5t-3.5 -19t-5 -15.5h176q-3 7 -5.5 16t-4 19.5t-3 22t-3 23.5t-2 24.5t-1.5 25
t-1 24v22.5v172q0 78 -42.5 121.5t-111.5 43.5q-51 0 -91.5 -26.5t-66.5 -69.5v90l-159 -24q3 -7 5.5 -16t5 -19t4 -21.5t2.5 -23l2 -23t1.5 -23.5t0.5 -22.5v-20.5v-138v-22.5t-0.5 -24t-1.5 -25t-2 -24.5t-2.5 -23.5t-3.5 -22t-4.5 -19.5t-5.5 -16zM247 -300q59 25 91 65
t32 88q0 39 -22.5 62t-53.5 23q-29 0 -48.5 -18.5t-19.5 -44.5q0 -8 1.5 -15t4.5 -12.5t7 -10.5t8.5 -9t9.5 -7.5t9.5 -7t8.5 -7.5t7 -8t4.5 -9.5t1.5 -11.5q0 -16 -12 -35.5t-33 -37.5z" />
    <glyph glyph-name="Ncaron" unicode="&#x147;" horiz-adv-x="724" 
d="M648 493q0 11 0.5 22.5t1 24.5l1 26t2 26l3 26t3 24.5t4 22.5t5 19.5t5.5 15.5h-123q3 -7 6 -17.5t5.5 -22.5t4.5 -25.5t3.5 -27.5t2.5 -28.5l2 -29t1.5 -28t0.5 -25.5l1 -243l-8 7l-493 456v-509q0 -10 -0.5 -22t-1 -25l-1 -26t-2 -26l-3 -26t-3 -24.5t-4 -22.5
t-5 -19.5t-5.5 -15.5h123q-3 7 -6 16.5t-5.5 20.5t-4.5 23.5t-3.5 25.5t-3 26.5t-2 26.5t-1 25.5t-0.5 23.5l-1 259l6 -6l495 -457v509zM307 757h116l111 157h-33l-136 -92l-136 92h-33z" />
    <glyph glyph-name="ncaron" unicode="&#x148;" horiz-adv-x="575" 
d="M44 0h176q-3 7 -5 15.5t-3.5 19t-3 21.5t-2.5 23t-2 24.5t-1.5 24t-0.5 23v21.5v206q20 25 44 40t52 15q33 0 55.5 -22t22.5 -65v-174v-21.5t-0.5 -23t-1.5 -24t-2 -24.5t-2.5 -23t-3 -21.5t-3.5 -19t-5 -15.5h176q-3 7 -5.5 16t-4 19.5t-3 22t-3 23.5t-2 24.5t-1.5 25
t-1 24v22.5v172q0 78 -42.5 121.5t-111.5 43.5q-51 0 -91.5 -26.5t-66.5 -69.5v90l-159 -24q3 -7 5.5 -16t5 -19t4 -21.5t2.5 -23l2 -23t1.5 -23.5t0.5 -22.5v-20.5v-138v-22.5t-0.5 -24t-1.5 -25t-2 -24.5t-2.5 -23.5t-3.5 -22t-4.5 -19.5t-5.5 -16zM230 560h118l111 177
h-34l-136 -107l-136 107h-34z" />
    <glyph glyph-name="Eng" unicode="&#x14a;" horiz-adv-x="724" 
d="M51 0h123q-3 7 -6 16.5t-5.5 20.5t-4.5 23.5t-3.5 25.5t-3 26.5t-2 26.5t-1 25.5t-0.5 23.5l-1 258l26 -24l399 -368v-122q0 -38 -19.5 -57.5t-53.5 -19.5q-19 0 -38 4t-37 11v-62q18 -7 41.5 -11.5t46.5 -4.5q63 0 99.5 36t36.5 102v570q0 12 0.5 25.5t1 27.5t1.5 28
t2.5 28t3.5 27t4.5 25t5.5 22t6 17h-123q3 -7 6 -17t5.5 -21.5t4 -24.5t3 -27t2.5 -28l2 -28t1.5 -27t0.5 -25l1 -249l-500 463v-509q0 -10 -0.5 -22t-1 -25l-1 -26t-2 -26l-3 -26t-3 -24.5t-4 -22.5t-5 -19.5t-5.5 -15.5z" />
    <glyph glyph-name="eng" unicode="&#x14b;" horiz-adv-x="574" 
d="M44 0h176q-3 8 -5.5 17.5t-4.5 21t-3 24.5l-2 26t-1.5 26.5t-1 26t-0.5 24.5v212q21 25 44.5 40.5t51.5 15.5q34 0 56 -22.5t22 -65.5v-431q0 -28 -13.5 -42.5t-38.5 -14.5q-13 0 -28.5 3t-29.5 9l7 -63q16 -6 38 -10.5t43 -4.5q76 0 118 39.5t42 114.5v405
q0 76 -41.5 119.5t-110.5 43.5q-51 0 -92 -26.5t-68 -69.5v90l-159 -24q4 -8 6.5 -17.5t5 -21t4 -24t2.5 -25.5t1.5 -25.5l1 -25t0.5 -23.5v-152q0 -12 -0.5 -25t-1 -27t-1.5 -27.5t-2.5 -26.5t-3.5 -24.5t-5 -21.5t-6 -18z" />
    <glyph glyph-name="Omacron" unicode="&#x14c;" horiz-adv-x="785" 
d="M752 350q0 32 -4.5 62.5t-13.5 58t-22 53t-29 47.5t-35.5 41.5t-42 35t-47 28t-51 20.5t-55 12.5t-58.5 4.5t-58.5 -4.5t-55.5 -13t-51.5 -21t-47 -28.5t-42.5 -35t-36.5 -41.5t-29.5 -47.5t-22 -52.5t-14 -57t-5 -61.5q0 -33 4.5 -63t13.5 -58t22 -53.5t29.5 -47.5
t36 -41.5t42 -35t47 -28t51 -20.5t55 -12.5t57.5 -4.5q30 0 58.5 4.5t55.5 13t52 21t47.5 28.5t42.5 35t36.5 41.5t29.5 47.5t22 52.5t13.5 57.5t4.5 62zM190 350q0 36 4 68t12 60t18.5 51t24.5 41.5t30.5 33t34.5 23.5t38.5 14t41.5 5q24 0 47 -6.5t43 -19t37 -31
t30.5 -42.5t23.5 -54t15 -66t5 -77q0 -42 -5 -77.5t-15 -66t-24 -55t-31.5 -43t-38 -30.5t-43.5 -18.5t-48 -6.5q-21 0 -40.5 5t-38 14.5t-34 24t-29.5 33t-24.5 42t-18 51t-11.5 59.5t-4 68zM246 791h296v76h-296v-76z" />
    <glyph glyph-name="omacron" unicode="&#x14d;" horiz-adv-x="563" 
d="M282 -11q24 0 47 4t44 11.5t40 19t35.5 25.5t30.5 31t24.5 36.5t18 41.5t11.5 45.5t4 49.5q0 25 -4 48.5t-11.5 45t-18 41t-24.5 36.5t-30.5 31t-35 25t-40 18.5t-44 11.5t-47.5 4q-24 0 -47 -4t-44 -11.5t-40 -18.5t-35.5 -25.5t-30.5 -31.5t-25 -36.5t-18.5 -41
t-11.5 -45.5t-4 -50q0 -25 4 -49t11.5 -45.5t18.5 -41t24.5 -36t30 -30.5t35.5 -25t40.5 -18.5t44.5 -11.5t47 -4zM283 47q-51 0 -83 52t-32 151q0 100 31.5 152t80.5 52q51 0 83 -52t32 -152q0 -99 -31 -151t-81 -52zM133 599h296v76h-296v-76z" />
    <glyph glyph-name="Obreve" unicode="&#x14e;" horiz-adv-x="785" 
d="M752 350q0 32 -4.5 62.5t-13.5 58t-22 53t-29 47.5t-35.5 41.5t-42 35t-47 28t-51 20.5t-55 12.5t-58.5 4.5t-58.5 -4.5t-55.5 -13t-51.5 -21t-47 -28.5t-42.5 -35t-36.5 -41.5t-29.5 -47.5t-22 -52.5t-14 -57t-5 -61.5q0 -33 4.5 -63t13.5 -58t22 -53.5t29.5 -47.5
t36 -41.5t42 -35t47 -28t51 -20.5t55 -12.5t57.5 -4.5q30 0 58.5 4.5t55.5 13t52 21t47.5 28.5t42.5 35t36.5 41.5t29.5 47.5t22 52.5t13.5 57.5t4.5 62zM190 350q0 36 4 68t12 60t18.5 51t24.5 41.5t30.5 33t34.5 23.5t38.5 14t41.5 5q24 0 47 -6.5t43 -19t37 -31
t30.5 -42.5t23.5 -54t15 -66t5 -77q0 -42 -5 -77.5t-15 -66t-24 -55t-31.5 -43t-38 -30.5t-43.5 -18.5t-48 -6.5q-21 0 -40.5 5t-38 14.5t-34 24t-29.5 33t-24.5 42t-18 51t-11.5 59.5t-4 68zM394 755q68 0 112 38.5t50 110.5h-11q-16 -32 -56.5 -49t-94.5 -17t-94.5 17
t-56.5 49h-11q6 -72 50 -110.5t112 -38.5z" />
    <glyph glyph-name="obreve" unicode="&#x14f;" horiz-adv-x="563" 
d="M282 -11q24 0 47 4t44 11.5t40 19t35.5 25.5t30.5 31t24.5 36.5t18 41.5t11.5 45.5t4 49.5q0 25 -4 48.5t-11.5 45t-18 41t-24.5 36.5t-30.5 31t-35 25t-40 18.5t-44 11.5t-47.5 4q-24 0 -47 -4t-44 -11.5t-40 -18.5t-35.5 -25.5t-30.5 -31.5t-25 -36.5t-18.5 -41
t-11.5 -45.5t-4 -50q0 -25 4 -49t11.5 -45.5t18.5 -41t24.5 -36t30 -30.5t35.5 -25t40.5 -18.5t44.5 -11.5t47 -4zM283 47q-51 0 -83 52t-32 151q0 100 31.5 152t80.5 52q51 0 83 -52t32 -152q0 -99 -31 -151t-81 -52zM281 558q66 0 109 44t50 125h-11q-19 -39 -57 -63
t-91 -24t-91 24t-57 63h-11q7 -81 50 -125t109 -44z" />
    <glyph glyph-name="Ohungarumlaut" unicode="&#x150;" horiz-adv-x="785" 
d="M752 350q0 32 -4.5 62.5t-13.5 58t-22 53t-29 47.5t-35.5 41.5t-42 35t-47 28t-51 20.5t-55 12.5t-58.5 4.5t-58.5 -4.5t-55.5 -13t-51.5 -21t-47 -28.5t-42.5 -35t-36.5 -41.5t-29.5 -47.5t-22 -52.5t-14 -57t-5 -61.5q0 -33 4.5 -63t13.5 -58t22 -53.5t29.5 -47.5
t36 -41.5t42 -35t47 -28t51 -20.5t55 -12.5t57.5 -4.5q30 0 58.5 4.5t55.5 13t52 21t47.5 28.5t42.5 35t36.5 41.5t29.5 47.5t22 52.5t13.5 57.5t4.5 62zM190 350q0 36 4 68t12 60t18.5 51t24.5 41.5t30.5 33t34.5 23.5t38.5 14t41.5 5q24 0 47 -6.5t43 -19t37 -31
t30.5 -42.5t23.5 -54t15 -66t5 -77q0 -42 -5 -77.5t-15 -66t-24 -55t-31.5 -43t-38 -30.5t-43.5 -18.5t-48 -6.5q-21 0 -40.5 5t-38 14.5t-34 24t-29.5 33t-24.5 42t-18 51t-11.5 59.5t-4 68zM254 752h40l178 158h-135zM437 752h39l180 158h-136z" />
    <glyph glyph-name="ohungarumlaut" unicode="&#x151;" horiz-adv-x="563" 
d="M282 -11q24 0 47 4t44 11.5t40 19t35.5 25.5t30.5 31t24.5 36.5t18 41.5t11.5 45.5t4 49.5q0 25 -4 48.5t-11.5 45t-18 41t-24.5 36.5t-30.5 31t-35 25t-40 18.5t-44 11.5t-47.5 4q-24 0 -47 -4t-44 -11.5t-40 -18.5t-35.5 -25.5t-30.5 -31.5t-25 -36.5t-18.5 -41
t-11.5 -45.5t-4 -50q0 -25 4 -49t11.5 -45.5t18.5 -41t24.5 -36t30 -30.5t35.5 -25t40.5 -18.5t44.5 -11.5t47 -4zM283 47q-51 0 -83 52t-32 151q0 100 31.5 152t80.5 52q51 0 83 -52t32 -152q0 -99 -31 -151t-81 -52zM141 555h40l178 178h-135zM324 555h39l180 178h-136z
" />
    <glyph glyph-name="OE" unicode="&#x152;" horiz-adv-x="1000" 
d="M430 0h533l17 111q-12 -6 -26 -11t-29 -9.5t-31 -8t-32.5 -6.5t-33 -5.5t-32.5 -4t-30.5 -2.5t-28 -1.5t-24.5 -0.5h-62v261h37q49 0 89 -5t86 -18l-22 109q-37 -10 -75 -17t-83 -7h-32v251h59q56 0 125.5 -9.5t126.5 -38.5l-18 112h-514q-38 0 -73.5 -5t-68.5 -15
t-62.5 -24.5t-55.5 -33.5t-47.5 -41.5t-38 -49t-28.5 -56.5t-18 -62.5t-6 -68.5q0 -33 6 -64.5t17 -60t27.5 -54t37.5 -47.5t46.5 -40.5t55 -33t62.5 -24.5t69.5 -15t76.5 -5zM428 63q-26 0 -50.5 5t-46.5 15t-41 24.5t-35 33t-28.5 41t-21 49t-13 56t-4.5 61.5
q0 33 4.5 62.5t13.5 56t21.5 49t28.5 41.5t35 33.5t41 24.5t46.5 15t50.5 5h74v-572h-75z" />
    <glyph glyph-name="oe" unicode="&#x153;" horiz-adv-x="897" 
d="M282 -11q57 0 104.5 23.5t81.5 63.5q34 -41 84 -64.5t112 -23.5q48 0 95 13.5t77 35.5l9 67q-34 -25 -72.5 -38t-76.5 -13q-69 0 -112 50.5t-46 146.5h334q0 119 -62.5 191.5t-169.5 72.5q-54 0 -98 -23t-75 -62q-33 40 -81 62.5t-104 22.5q-24 0 -47 -4t-44 -11.5
t-40 -18.5t-35.5 -25.5t-30.5 -31.5t-25 -36.5t-18.5 -41t-11.5 -45.5t-4 -50q0 -25 4 -49t11.5 -45.5t18.5 -41t24.5 -36t30 -30.5t35.5 -25t40.5 -18.5t44.5 -11.5t47 -4zM641 456q40 0 67.5 -36t34.5 -114h-204q6 72 33 111t69 39zM283 47q-51 0 -83 52t-32 151
q0 100 31.5 152t80.5 52q51 0 83 -52t32 -152q0 -99 -31 -151t-81 -52z" />
    <glyph glyph-name="Racute" unicode="&#x154;" horiz-adv-x="646" 
d="M54 0h192q-3 7 -5.5 15.5t-4.5 19t-4 22.5t-3 25l-2 26t-2 26.5t-1.5 26.5t-0.5 25v22v101h75l181 -309h171q-5 6 -10.5 14t-12 17t-13.5 19t-14 20.5t-14.5 21t-14 21t-13 20.5t-11.5 19l-106 175q64 22 103.5 68.5t39.5 112.5q0 87 -70.5 139.5t-197.5 52.5h-264
q3 -7 6 -16t5 -20t4 -23t3.5 -25t2.5 -26.5l2 -27t1.5 -27t0.5 -26v-23.5v-278v-22t-0.5 -25t-1.5 -26.5t-2 -26.5l-2 -26t-3 -25t-4 -22.5t-4.5 -19t-5.5 -15.5zM306 635q61 0 97 -34t36 -96t-37 -97.5t-98 -35.5h-81v263h83zM271 752h37l183 158h-151z" />
    <glyph glyph-name="racute" unicode="&#x155;" horiz-adv-x="399" 
d="M44 0h179q-12 28 -16.5 77t-4.5 92v164q22 37 50 58.5t64 21.5q19 0 35.5 -4t32.5 -11l-6 111q-6 3 -17 5t-23 2q-40 0 -77 -34t-59 -106v132l-159 -24q13 -28 17 -75.5t4 -86.5v-152q0 -43 -4 -92.5t-16 -77.5zM182 555h38l186 178h-150z" />
    <glyph glyph-name="uni0156" unicode="&#x156;" horiz-adv-x="646" 
d="M54 0h192q-3 7 -5.5 15.5t-4.5 19t-4 22.5t-3 25l-2 26t-2 26.5t-1.5 26.5t-0.5 25v22v101h75l181 -309h171q-5 6 -10.5 14t-12 17t-13.5 19t-14 20.5t-14.5 21t-14 21t-13 20.5t-11.5 19l-106 175q64 22 103.5 68.5t39.5 112.5q0 87 -70.5 139.5t-197.5 52.5h-264
q3 -7 6 -16t5 -20t4 -23t3.5 -25t2.5 -26.5l2 -27t1.5 -27t0.5 -26v-23.5v-278v-22t-0.5 -25t-1.5 -26.5t-2 -26.5l-2 -26t-3 -25t-4 -22.5t-4.5 -19t-5.5 -15.5zM306 635q61 0 97 -34t36 -96t-37 -97.5t-98 -35.5h-81v263h83zM314 -300q59 25 91 65t32 88q0 39 -22.5 62
t-53.5 23q-29 0 -48.5 -18.5t-19.5 -44.5q0 -8 1.5 -15t4.5 -12.5t7 -10.5t8.5 -9t9.5 -7.5t9.5 -7t8.5 -7.5t7 -8t4.5 -9.5t1.5 -11.5q0 -16 -12 -35.5t-33 -37.5z" />
    <glyph glyph-name="uni0157" unicode="&#x157;" horiz-adv-x="399" 
d="M44 0h179q-12 28 -16.5 77t-4.5 92v164q22 37 50 58.5t64 21.5q19 0 35.5 -4t32.5 -11l-6 111q-6 3 -17 5t-23 2q-40 0 -77 -34t-59 -106v132l-159 -24q13 -28 17 -75.5t4 -86.5v-152q0 -43 -4 -92.5t-16 -77.5zM83 -300q59 25 91 65t32 88q0 39 -22.5 62t-53.5 23
q-29 0 -48.5 -18.5t-19.5 -44.5q0 -8 1.5 -15t4.5 -12.5t7 -10.5t8.5 -9t9.5 -7.5t9.5 -7t8.5 -7.5t7 -8t4.5 -9.5t1.5 -11.5q0 -16 -12 -35.5t-33 -37.5z" />
    <glyph glyph-name="Rcaron" unicode="&#x158;" horiz-adv-x="646" 
d="M54 0h192q-3 7 -5.5 15.5t-4.5 19t-4 22.5t-3 25l-2 26t-2 26.5t-1.5 26.5t-0.5 25v22v101h75l181 -309h171q-5 6 -10.5 14t-12 17t-13.5 19t-14 20.5t-14.5 21t-14 21t-13 20.5t-11.5 19l-106 175q64 22 103.5 68.5t39.5 112.5q0 87 -70.5 139.5t-197.5 52.5h-264
q3 -7 6 -16t5 -20t4 -23t3.5 -25t2.5 -26.5l2 -27t1.5 -27t0.5 -26v-23.5v-278v-22t-0.5 -25t-1.5 -26.5t-2 -26.5l-2 -26t-3 -25t-4 -22.5t-4.5 -19t-5.5 -15.5zM306 635q61 0 97 -34t36 -96t-37 -97.5t-98 -35.5h-81v263h83zM262 757h116l111 157h-33l-136 -92l-136 92
h-33z" />
    <glyph glyph-name="rcaron" unicode="&#x159;" horiz-adv-x="399" 
d="M44 0h179q-12 28 -16.5 77t-4.5 92v164q22 37 50 58.5t64 21.5q19 0 35.5 -4t32.5 -11l-6 111q-6 3 -17 5t-23 2q-40 0 -77 -34t-59 -106v132l-159 -24q13 -28 17 -75.5t4 -86.5v-152q0 -43 -4 -92.5t-16 -77.5zM175 560h118l111 177h-34l-136 -107l-136 107h-34z" />
    <glyph glyph-name="Sacute" unicode="&#x15a;" horiz-adv-x="534" 
d="M260 -10q27 0 51.5 4.5t47 12.5t42 19.5t36 26.5t29.5 32.5t22 37.5t13.5 42t4.5 46q0 20 -3.5 37.5t-10 33t-15.5 28.5t-20.5 24.5t-24.5 21t-27 18t-29 16t-30.5 14.5t-31 13.5t-30.5 13t-29.5 13t-27.5 13.5t-24 14.5t-20 16.5t-15.5 19t-10 21.5t-3.5 25.5
q0 40 27.5 66.5t79.5 26.5q50 0 103.5 -26t107.5 -73l-22 130q-40 0 -88.5 15t-105.5 15q-26 0 -49.5 -4t-44 -12t-38.5 -19.5t-33 -25.5t-26.5 -31t-19.5 -35.5t-11.5 -39t-3.5 -41.5q0 -22 3.5 -40.5t10 -34.5t15.5 -30t20 -26t24 -22t27 -19t29 -17t30.5 -15t31 -13.5
t30.5 -13t29 -13t27 -13t24 -14t20 -16t15.5 -18.5t10 -21t3.5 -24q1 -43 -33.5 -71.5t-86.5 -28.5t-111 25.5t-128 86.5l24 -136q12 0 23.5 -1.5t23 -4t23.5 -6t24.5 -6.5t26.5 -6.5t28.5 -6t31 -4t34.5 -1.5zM206 752h37l183 158h-151z" />
    <glyph glyph-name="sacute" unicode="&#x15b;" horiz-adv-x="437" 
d="M218 -10q20 0 39 3t36 9t32.5 15t28.5 20t23.5 24t17.5 28.5t11 32.5t4 35q0 16 -3 30.5t-8.5 26.5t-13 22t-16.5 18.5t-20 16t-22.5 13.5t-23.5 11.5t-24.5 10t-24.5 9t-23.5 9t-22.5 9.5t-20 10t-16.5 10.5t-13 12.5t-8.5 15t-3 17q0 27 20.5 43.5t54.5 16.5
q36 0 77 -18.5t86 -61.5l-19 114q-29 -1 -66.5 10t-83.5 11q-78 0 -129 -46.5t-51 -112.5q0 -17 3 -31.5t8.5 -26.5t13 -22.5t16.5 -19.5t19.5 -16t22 -13.5t24 -12t24.5 -10.5t24.5 -9.5t24 -9t22 -9t19.5 -9.5t16.5 -11t13 -12.5t8.5 -14.5t3 -17q0 -29 -23 -47.5
t-63 -18.5q-45 0 -90.5 21t-93.5 67l21 -118q35 2 74.5 -11t94.5 -13zM171 555h39l186 178h-151z" />
    <glyph glyph-name="Scircumflex" unicode="&#x15c;" horiz-adv-x="534" 
d="M260 -10q27 0 51.5 4.5t47 12.5t42 19.5t36 26.5t29.5 32.5t22 37.5t13.5 42t4.5 46q0 20 -3.5 37.5t-10 33t-15.5 28.5t-20.5 24.5t-24.5 21t-27 18t-29 16t-30.5 14.5t-31 13.5t-30.5 13t-29.5 13t-27.5 13.5t-24 14.5t-20 16.5t-15.5 19t-10 21.5t-3.5 25.5
q0 40 27.5 66.5t79.5 26.5q50 0 103.5 -26t107.5 -73l-22 130q-40 0 -88.5 15t-105.5 15q-26 0 -49.5 -4t-44 -12t-38.5 -19.5t-33 -25.5t-26.5 -31t-19.5 -35.5t-11.5 -39t-3.5 -41.5q0 -22 3.5 -40.5t10 -34.5t15.5 -30t20 -26t24 -22t27 -19t29 -17t30.5 -15t31 -13.5
t30.5 -13t29 -13t27 -13t24 -14t20 -16t15.5 -18.5t10 -21t3.5 -24q1 -43 -33.5 -71.5t-86.5 -28.5t-111 25.5t-128 86.5l24 -136q12 0 23.5 -1.5t23 -4t23.5 -6t24.5 -6.5t26.5 -6.5t28.5 -6t31 -4t34.5 -1.5zM86 752h33l135 93l137 -93h33l-111 158h-116z" />
    <glyph glyph-name="scircumflex" unicode="&#x15d;" horiz-adv-x="437" 
d="M218 -10q20 0 39 3t36 9t32.5 15t28.5 20t23.5 24t17.5 28.5t11 32.5t4 35q0 16 -3 30.5t-8.5 26.5t-13 22t-16.5 18.5t-20 16t-22.5 13.5t-23.5 11.5t-24.5 10t-24.5 9t-23.5 9t-22.5 9.5t-20 10t-16.5 10.5t-13 12.5t-8.5 15t-3 17q0 27 20.5 43.5t54.5 16.5
q36 0 77 -18.5t86 -61.5l-19 114q-29 -1 -66.5 10t-83.5 11q-78 0 -129 -46.5t-51 -112.5q0 -17 3 -31.5t8.5 -26.5t13 -22.5t16.5 -19.5t19.5 -16t22 -13.5t24 -12t24.5 -10.5t24.5 -9.5t24 -9t22 -9t19.5 -9.5t16.5 -11t13 -12.5t8.5 -14.5t3 -17q0 -29 -23 -47.5
t-63 -18.5q-45 0 -90.5 21t-93.5 67l21 -118q35 2 74.5 -11t94.5 -13zM53 555h34l135 107l137 -107h34l-111 178h-118z" />
    <glyph glyph-name="uni015E" unicode="&#x15e;" horiz-adv-x="534" 
d="M262 -217q55 0 89.5 25.5t34.5 65.5q0 31 -26.5 51.5t-71.5 20.5q-7 0 -13 -1t-13 -2l29 49q94 9 155 70t60 149q0 20 -3.5 37.5t-10 33t-15.5 28.5t-20.5 24.5t-24.5 21t-27 18t-29 16t-30.5 14.5t-31 13.5t-30.5 13t-29.5 13t-27.5 13.5t-24 14.5t-20 16.5t-15.5 19
t-10 21.5t-3.5 25.5q0 40 27.5 66.5t79.5 26.5q50 0 103.5 -26t107.5 -73l-22 130q-40 0 -88.5 15t-105.5 15q-26 0 -49.5 -4t-44 -12t-38.5 -19.5t-33 -25.5t-26.5 -31t-19.5 -35.5t-11.5 -39t-3.5 -41.5q0 -22 3.5 -40.5t10 -34.5t15.5 -30t20 -26t24 -22t27 -19t29 -17
t30.5 -15t31 -13.5t30.5 -13t29 -13t27 -13t24 -14t20 -16t15.5 -18.5t10 -21t3.5 -24q1 -43 -33.5 -71.5t-86.5 -28.5t-111 25.5t-128 86.5l24 -136q43 0 88.5 -16.5t109.5 -19.5l-47 -89l2 -3q11 4 25 6t27 2q24 0 37.5 -10t13.5 -26q0 -18 -15.5 -28.5t-43.5 -10.5
q-22 0 -44.5 6t-41.5 13l5 -49q19 -7 45 -12.5t56 -5.5z" />
    <glyph glyph-name="uni015F" unicode="&#x15f;" horiz-adv-x="437" 
d="M205 -217q55 0 89.5 25.5t34.5 65.5q0 31 -26.5 51.5t-71.5 20.5q-7 0 -13 -1t-13 -2l28 47q75 5 126 51.5t51 115.5q0 16 -3 30.5t-8.5 26.5t-13 22t-16.5 18.5t-20 16t-22.5 13.5t-23.5 11.5t-24.5 10t-24.5 9t-23.5 9t-22.5 9.5t-20 10t-16.5 10.5t-13 12.5t-8.5 15
t-3 17q0 27 20.5 43.5t54.5 16.5q36 0 77 -18.5t86 -61.5l-19 114q-29 -1 -66.5 10t-83.5 11q-78 0 -129 -46.5t-51 -112.5q0 -17 3 -31.5t8.5 -26.5t13 -22.5t16.5 -19.5t19.5 -16t22 -13.5t24 -12t24.5 -10.5t24.5 -9.5t24 -9t22 -9t19.5 -9.5t16.5 -11t13 -12.5
t8.5 -14.5t3 -17q0 -29 -23 -47.5t-63 -18.5q-45 0 -90.5 21t-93.5 67l21 -118q30 2 62.5 -8t75.5 -14l-48 -91l2 -3q11 4 25 6t27 2q24 0 37.5 -10t13.5 -26q0 -18 -15.5 -28.5t-43.5 -10.5q-22 0 -44.5 6t-41.5 13l5 -49q19 -7 45 -12.5t56 -5.5z" />
    <glyph glyph-name="Scaron" unicode="&#x160;" horiz-adv-x="534" 
d="M260 -10q27 0 51.5 4.5t47 12.5t42 19.5t36 26.5t29.5 32.5t22 37.5t13.5 42t4.5 46q0 20 -3.5 37.5t-10 33t-15.5 28.5t-20.5 24.5t-24.5 21t-27 18t-29 16t-30.5 14.5t-31 13.5t-30.5 13t-29.5 13t-27.5 13.5t-24 14.5t-20 16.5t-15.5 19t-10 21.5t-3.5 25.5
q0 40 27.5 66.5t79.5 26.5q50 0 103.5 -26t107.5 -73l-22 130q-40 0 -88.5 15t-105.5 15q-26 0 -49.5 -4t-44 -12t-38.5 -19.5t-33 -25.5t-26.5 -31t-19.5 -35.5t-11.5 -39t-3.5 -41.5q0 -22 3.5 -40.5t10 -34.5t15.5 -30t20 -26t24 -22t27 -19t29 -17t30.5 -15t31 -13.5
t30.5 -13t29 -13t27 -13t24 -14t20 -16t15.5 -18.5t10 -21t3.5 -24q1 -43 -33.5 -71.5t-86.5 -28.5t-111 25.5t-128 86.5l24 -136q12 0 23.5 -1.5t23 -4t23.5 -6t24.5 -6.5t26.5 -6.5t28.5 -6t31 -4t34.5 -1.5zM197 757h116l111 157h-33l-136 -92l-136 92h-33z" />
    <glyph glyph-name="scaron" unicode="&#x161;" horiz-adv-x="437" 
d="M218 -10q20 0 39 3t36 9t32.5 15t28.5 20t23.5 24t17.5 28.5t11 32.5t4 35q0 16 -3 30.5t-8.5 26.5t-13 22t-16.5 18.5t-20 16t-22.5 13.5t-23.5 11.5t-24.5 10t-24.5 9t-23.5 9t-22.5 9.5t-20 10t-16.5 10.5t-13 12.5t-8.5 15t-3 17q0 27 20.5 43.5t54.5 16.5
q36 0 77 -18.5t86 -61.5l-19 114q-29 -1 -66.5 10t-83.5 11q-78 0 -129 -46.5t-51 -112.5q0 -17 3 -31.5t8.5 -26.5t13 -22.5t16.5 -19.5t19.5 -16t22 -13.5t24 -12t24.5 -10.5t24.5 -9.5t24 -9t22 -9t19.5 -9.5t16.5 -11t13 -12.5t8.5 -14.5t3 -17q0 -29 -23 -47.5
t-63 -18.5q-45 0 -90.5 21t-93.5 67l21 -118q35 2 74.5 -11t94.5 -13zM164 560h118l111 177h-34l-136 -107l-136 107h-34z" />
    <glyph glyph-name="uni0162" unicode="&#x162;" horiz-adv-x="626" 
d="M215 0h72l-52 -99l2 -3q11 4 25 6t27 2q24 0 37.5 -10t13.5 -26q0 -18 -15.5 -28.5t-43.5 -10.5q-22 0 -44.5 6t-41.5 13l5 -49q19 -7 45 -12.5t56 -5.5q55 0 89.5 25.5t34.5 65.5q0 31 -26.5 52t-71.5 21q-6 0 -12.5 -1t-12.5 -2l33 56h76q-3 7 -5.5 15.5t-4.5 19.5
t-4 23t-3.5 24.5t-2.5 26t-2 26.5t-1.5 26t-0.5 25v22v428h18q54 0 110 -10t107 -38l-18 112h-582l-18 -112q51 28 107.5 38t109.5 10h18v-428v-22t-0.5 -25t-1.5 -26t-2 -26.5t-2.5 -26t-3.5 -24.5t-4 -23t-4.5 -19.5t-5.5 -15.5z" />
    <glyph glyph-name="uni0163" unicode="&#x163;" horiz-adv-x="361" 
d="M216 -217q55 0 89.5 25.5t34.5 65.5q0 31 -26.5 51.5t-71.5 20.5q-7 0 -13 -1t-13 -2l28 46q25 0 53.5 7.5t47.5 17.5l6 58q-12 -6 -26.5 -10.5t-29.5 -4.5q-28 0 -43 15.5t-15 47.5v327h113v56h-113v130l-138 -31v-99h-83l-14 -56h97v-327q0 -54 25 -86.5t74 -41.5
l-48 -91l2 -3q11 4 25 6t27 2q24 0 37.5 -10t13.5 -26q0 -18 -15.5 -28.5t-43.5 -10.5q-22 0 -44.5 6t-41.5 13l5 -49q19 -7 45 -12.5t56 -5.5z" />
    <glyph glyph-name="Tcaron" unicode="&#x164;" horiz-adv-x="626" 
d="M215 0h196q-3 7 -5.5 15.5t-4.5 19.5t-4 23t-3.5 24.5t-2.5 26t-2 26.5t-1.5 26t-0.5 25v22v428h18q54 0 110 -10t107 -38l-18 112h-582l-18 -112q51 28 107.5 38t109.5 10h18v-428v-22t-0.5 -25t-1.5 -26t-2 -26.5t-2.5 -26t-3.5 -24.5t-4 -23t-4.5 -19.5t-5.5 -15.5z
M255 757h116l111 157h-33l-136 -92l-136 92h-33z" />
    <glyph glyph-name="tcaron" unicode="&#x165;" horiz-adv-x="362" 
d="M307 750l-13 -200h33l107 200h-127zM238 -11q29 0 58.5 7.5t48.5 17.5l6 58q-12 -6 -26.5 -10.5t-29.5 -4.5q-28 0 -43 15.5t-15 47.5v327h113v56h-113v130l-138 -31v-99h-83l-14 -56h97v-327q0 -64 35.5 -97.5t103.5 -33.5z" />
    <glyph glyph-name="Tbar" unicode="&#x166;" horiz-adv-x="626" 
d="M215 0h196q-3 7 -5.5 15.5t-4.5 19.5t-4 23t-3.5 24.5t-2.5 26t-2 26.5t-1.5 26t-0.5 25v22v109h124l11 58h-135v261h18q54 0 110 -10t107 -38l-18 112h-582l-18 -112q51 28 107.5 38t109.5 10h18v-261h-124l-11 -58h135v-109v-22t-0.5 -25t-1.5 -26t-2 -26.5t-2.5 -26
t-3.5 -24.5t-4 -23t-4.5 -19.5t-5.5 -15.5z" />
    <glyph glyph-name="tbar" unicode="&#x167;" horiz-adv-x="362" 
d="M238 -11q29 0 58.5 7.5t48.5 17.5l6 58q-12 -6 -26.5 -10.5t-29.5 -4.5q-28 0 -43 15.5t-15 47.5v154h114v51h-114v122h113v56h-113v130l-138 -31v-99h-83l-14 -56h97v-122h-84l-13 -51h97v-154q0 -64 35.5 -97.5t103.5 -33.5z" />
    <glyph glyph-name="Utilde" unicode="&#x168;" horiz-adv-x="710" 
d="M355 -13q130 0 207 76t77 209v220q0 11 0.5 22.5t1 24.5l1 26t2 26.5t3 26t3 24.5t4 23t5 19.5t5.5 15.5h-124q3 -7 6 -15.5t5 -19.5t4 -23t3.5 -24.5t3 -26t2 -26.5l1 -26t1 -24.5t0.5 -22.5v-220q0 -100 -51 -152t-127 -52q-73 0 -122 48t-49 138v238v22.5t0.5 24.5
t1.5 26.5t2 26.5l2 26t3 25t4 22.5t4.5 19.5t5.5 15h-194q3 -6 5.5 -15t4.5 -19.5t3.5 -22.5t2.5 -25l2 -26t2 -26.5t1.5 -26.5t0.5 -25v-22v-243q0 -125 78 -193.5t209 -68.5zM204 767h16q12 29 30.5 42t37.5 13q7 0 14 -2t15 -5t16 -7.5t17 -9t17.5 -9t18 -9t19 -7.5
t18.5 -5t19 -2q38 0 66.5 32.5t44.5 105.5h-17q-13 -28 -31 -41t-37 -13q-7 0 -14 2t-15 5t-16 7t-16.5 9t-17.5 9.5t-18 8.5t-18.5 7t-19 5t-19.5 2q-37 0 -66 -32.5t-44 -105.5z" />
    <glyph glyph-name="utilde" unicode="&#x169;" horiz-adv-x="574" 
d="M214 -11q51 0 91.5 26.5t66.5 69.5v-91l160 14q-3 7 -6 16t-5 19.5t-3.5 21.5t-2.5 22.5t-2 23.5t-1.5 23.5t-0.5 22v20.5v331l-160 -24q3 -7 6 -16t5 -19t3.5 -21.5t2.5 -23l2 -23t1.5 -23.5t0.5 -22.5v-20.5v-190q-20 -25 -43.5 -40t-51.5 -15q-33 0 -55 22t-22 65v351
l-160 -24q3 -7 6 -16t5 -19t3.5 -21.5t2.5 -23l2 -23t1.5 -23.5t0.5 -22.5v-20.5v-162q0 -78 42 -121t111 -43zM117 570h16q15 33 33 49t37 16q7 0 14 -2t14.5 -6t15.5 -9t16.5 -10t17.5 -10.5t18 -10.5t18 -9t18.5 -6t19.5 -2q37 0 65.5 35.5t45.5 113.5h-17
q-13 -32 -31 -48.5t-37 -16.5q-7 0 -14.5 2t-15.5 6t-16 9t-16.5 10.5t-17.5 11t-18 10.5t-18 9t-18.5 6t-19.5 2q-37 0 -65.5 -36t-44.5 -114z" />
    <glyph glyph-name="Umacron" unicode="&#x16a;" horiz-adv-x="710" 
d="M355 -13q130 0 207 76t77 209v220q0 11 0.5 22.5t1 24.5l1 26t2 26.5t3 26t3 24.5t4 23t5 19.5t5.5 15.5h-124q3 -7 6 -15.5t5 -19.5t4 -23t3.5 -24.5t3 -26t2 -26.5l1 -26t1 -24.5t0.5 -22.5v-220q0 -100 -51 -152t-127 -52q-73 0 -122 48t-49 138v238v22.5t0.5 24.5
t1.5 26.5t2 26.5l2 26t3 25t4 22.5t4.5 19.5t5.5 15h-194q3 -6 5.5 -15t4.5 -19.5t3.5 -22.5t2.5 -25l2 -26t2 -26.5t1.5 -26.5t0.5 -25v-22v-243q0 -125 78 -193.5t209 -68.5zM224 791h296v76h-296v-76z" />
    <glyph glyph-name="umacron" unicode="&#x16b;" horiz-adv-x="574" 
d="M214 -11q51 0 91.5 26.5t66.5 69.5v-91l160 14q-3 7 -6 16t-5 19.5t-3.5 21.5t-2.5 22.5t-2 23.5t-1.5 23.5t-0.5 22v20.5v331l-160 -24q3 -7 6 -16t5 -19t3.5 -21.5t2.5 -23l2 -23t1.5 -23.5t0.5 -22.5v-20.5v-190q-20 -25 -43.5 -40t-51.5 -15q-33 0 -55 22t-22 65v351
l-160 -24q3 -7 6 -16t5 -19t3.5 -21.5t2.5 -23l2 -23t1.5 -23.5t0.5 -22.5v-20.5v-162q0 -78 42 -121t111 -43zM137 599h296v76h-296v-76z" />
    <glyph glyph-name="Ubreve" unicode="&#x16c;" horiz-adv-x="710" 
d="M355 -13q130 0 207 76t77 209v220q0 11 0.5 22.5t1 24.5l1 26t2 26.5t3 26t3 24.5t4 23t5 19.5t5.5 15.5h-124q3 -7 6 -15.5t5 -19.5t4 -23t3.5 -24.5t3 -26t2 -26.5l1 -26t1 -24.5t0.5 -22.5v-220q0 -100 -51 -152t-127 -52q-73 0 -122 48t-49 138v238v22.5t0.5 24.5
t1.5 26.5t2 26.5l2 26t3 25t4 22.5t4.5 19.5t5.5 15h-194q3 -6 5.5 -15t4.5 -19.5t3.5 -22.5t2.5 -25l2 -26t2 -26.5t1.5 -26.5t0.5 -25v-22v-243q0 -125 78 -193.5t209 -68.5zM372 754q68 0 112 39t50 111h-11q-16 -32 -56.5 -49.5t-94.5 -17.5t-94.5 17.5t-56.5 49.5h-11
q6 -72 50 -111t112 -39z" />
    <glyph glyph-name="ubreve" unicode="&#x16d;" horiz-adv-x="574" 
d="M214 -11q51 0 91.5 26.5t66.5 69.5v-91l160 14q-3 7 -6 16t-5 19.5t-3.5 21.5t-2.5 22.5t-2 23.5t-1.5 23.5t-0.5 22v20.5v331l-160 -24q3 -7 6 -16t5 -19t3.5 -21.5t2.5 -23l2 -23t1.5 -23.5t0.5 -22.5v-20.5v-190q-20 -25 -43.5 -40t-51.5 -15q-33 0 -55 22t-22 65v351
l-160 -24q3 -7 6 -16t5 -19t3.5 -21.5t2.5 -23l2 -23t1.5 -23.5t0.5 -22.5v-20.5v-162q0 -78 42 -121t111 -43zM285 557q66 0 109 44.5t50 125.5h-11q-20 -39 -57.5 -63t-90.5 -24t-90.5 24t-57.5 63h-11q7 -81 50 -125.5t109 -44.5z" />
    <glyph glyph-name="Uring" unicode="&#x16e;" horiz-adv-x="710" 
d="M355 -13q130 0 207 76t77 209v220q0 11 0.5 22.5t1 24.5l1 26t2 26.5t3 26t3 24.5t4 23t5 19.5t5.5 15.5h-124q3 -7 6 -15.5t5 -19.5t4 -23t3.5 -24.5t3 -26t2 -26.5l1 -26t1 -24.5t0.5 -22.5v-220q0 -100 -51 -152t-127 -52q-73 0 -122 48t-49 138v238v22.5t0.5 24.5
t1.5 26.5t2 26.5l2 26t3 25t4 22.5t4.5 19.5t5.5 15h-194q3 -6 5.5 -15t4.5 -19.5t3.5 -22.5t2.5 -25l2 -26t2 -26.5t1.5 -26.5t0.5 -25v-22v-243q0 -125 78 -193.5t209 -68.5zM372 755q51 0 83.5 31.5t32.5 76.5q0 46 -32.5 77.5t-83.5 31.5t-83.5 -31.5t-32.5 -77.5
q0 -45 32.5 -76.5t83.5 -31.5zM372 797q-28 0 -47 18.5t-19 47.5t19 48t47 19t47 -19t19 -48t-19 -47.5t-47 -18.5z" />
    <glyph glyph-name="uring" unicode="&#x16f;" horiz-adv-x="574" 
d="M214 -11q51 0 91.5 26.5t66.5 69.5v-91l160 14q-3 7 -6 16t-5 19.5t-3.5 21.5t-2.5 22.5t-2 23.5t-1.5 23.5t-0.5 22v20.5v331l-160 -24q3 -7 6 -16t5 -19t3.5 -21.5t2.5 -23l2 -23t1.5 -23.5t0.5 -22.5v-20.5v-190q-20 -25 -43.5 -40t-51.5 -15q-33 0 -55 22t-22 65v351
l-160 -24q3 -7 6 -16t5 -19t3.5 -21.5t2.5 -23l2 -23t1.5 -23.5t0.5 -22.5v-20.5v-162q0 -78 42 -121t111 -43zM285 564q51 0 83 31t32 77t-32 77t-83 31t-83 -31t-32 -77t32 -77t83 -31zM285 606q-28 0 -47 18.5t-19 47.5t19 47.5t47 18.5t47 -18.5t19 -47.5t-19 -47.5
t-47 -18.5z" />
    <glyph glyph-name="Uhungarumlaut" unicode="&#x170;" horiz-adv-x="710" 
d="M355 -13q130 0 207 76t77 209v220q0 11 0.5 22.5t1 24.5l1 26t2 26.5t3 26t3 24.5t4 23t5 19.5t5.5 15.5h-124q3 -7 6 -15.5t5 -19.5t4 -23t3.5 -24.5t3 -26t2 -26.5l1 -26t1 -24.5t0.5 -22.5v-220q0 -100 -51 -152t-127 -52q-73 0 -122 48t-49 138v238v22.5t0.5 24.5
t1.5 26.5t2 26.5l2 26t3 25t4 22.5t4.5 19.5t5.5 15h-194q3 -6 5.5 -15t4.5 -19.5t3.5 -22.5t2.5 -25l2 -26t2 -26.5t1.5 -26.5t0.5 -25v-22v-243q0 -125 78 -193.5t209 -68.5zM232 752h40l178 158h-135zM415 752h39l180 158h-136z" />
    <glyph glyph-name="uhungarumlaut" unicode="&#x171;" horiz-adv-x="574" 
d="M214 -11q51 0 91.5 26.5t66.5 69.5v-91l160 14q-3 7 -6 16t-5 19.5t-3.5 21.5t-2.5 22.5t-2 23.5t-1.5 23.5t-0.5 22v20.5v331l-160 -24q3 -7 6 -16t5 -19t3.5 -21.5t2.5 -23l2 -23t1.5 -23.5t0.5 -22.5v-20.5v-190q-20 -25 -43.5 -40t-51.5 -15q-33 0 -55 22t-22 65v351
l-160 -24q3 -7 6 -16t5 -19t3.5 -21.5t2.5 -23l2 -23t1.5 -23.5t0.5 -22.5v-20.5v-162q0 -78 42 -121t111 -43zM145 555h40l178 178h-135zM328 555h39l180 178h-136z" />
    <glyph glyph-name="Uogonek" unicode="&#x172;" horiz-adv-x="710" 
d="M355 -13q19 0 38 1.5t37 5.5q-62 -30 -90.5 -60t-28.5 -66q0 -34 29.5 -56t75.5 -22q18 0 38.5 3.5t34.5 8.5l11 50q-10 -4 -23 -6.5t-23 -2.5q-21 0 -34.5 11.5t-13.5 32.5q0 30 21 61.5t65 65.5q69 32 108 98.5t39 159.5v220q0 11 0.5 22.5t1 24.5l1 26t2 26.5t3 26
t3 24.5t4 23t5 19.5t5.5 15.5h-124q3 -7 6 -15.5t5 -19.5t4 -23t3.5 -24.5t3 -26t2 -26.5l1 -26t1 -24.5t0.5 -22.5v-220q0 -100 -51 -152t-127 -52q-73 0 -122 48t-49 138v238v22.5t0.5 24.5t1.5 26.5t2 26.5l2 26t3 25t4 22.5t4.5 19.5t5.5 15h-194q3 -6 5.5 -15
t4.5 -19.5t3.5 -22.5t2.5 -25l2 -26t2 -26.5t1.5 -26.5t0.5 -25v-22v-243q0 -125 78 -193.5t209 -68.5z" />
    <glyph glyph-name="uogonek" unicode="&#x173;" horiz-adv-x="574" 
d="M214 -11q51 0 91.5 26.5t66.5 69.5v-91l103 9q-70 -31 -103 -60.5t-33 -65.5q0 -34 29.5 -56.5t75.5 -22.5q17 0 37 3.5t34 8.5l11 49q-10 -4 -22 -6.5t-22 -2.5q-20 0 -34 12t-14 33q0 26 22.5 54t65.5 58l10 1q-3 7 -6 16t-5 19.5t-3.5 21.5t-2.5 22.5t-2 23.5
t-1.5 23.5t-0.5 22v20.5v331l-160 -24q3 -7 6 -16t5 -19t3.5 -21.5t2.5 -23l2 -23t1.5 -23.5t0.5 -22.5v-20.5v-190q-20 -25 -43.5 -40t-51.5 -15q-33 0 -55 22t-22 65v351l-160 -24q3 -7 6 -16t5 -19t3.5 -21.5t2.5 -23l2 -23t1.5 -23.5t0.5 -22.5v-20.5v-162
q0 -78 42 -121t111 -43z" />
    <glyph glyph-name="Wcircumflex" unicode="&#x174;" horiz-adv-x="940" 
d="M858 508q19 53 40 106.5t37 85.5h-113q6 -32 -4.5 -79t-25.5 -93l-88 -269l-200 463l-184 -463l-92 269q-15 45 -26 92.5t-6 79.5h-191q16 -32 37 -85.5t40 -106.5l190 -528l192 477l210 -477zM317 752h33l135 93l137 -93h33l-111 158h-116z" />
    <glyph glyph-name="wcircumflex" unicode="&#x175;" horiz-adv-x="719" 
d="M656 353q16 43 32.5 82.5t29.5 67.5h-97q4 -26 -3 -62t-22 -76l-55 -158l-149 317l-139 -316l-57 159q-13 40 -20 75.5t-3 60.5h-171q13 -28 28.5 -67.5t31.5 -82.5l144 -376l147 329l160 -329zM205 555h34l135 107l137 -107h34l-111 178h-118z" />
    <glyph glyph-name="Ycircumflex" unicode="&#x176;" horiz-adv-x="661" 
d="M235 0h197q-3 7 -5.5 16.5t-4.5 21.5t-4 25t-3.5 27.5t-2.5 29l-2 29t-1.5 29t-0.5 27.5v24v50l162 269q25 43 51 84t45 68h-120q1 -25 -12 -62.5t-34 -73.5l-126 -215l-127 215q-22 36 -36 73.5t-11 62.5h-206q19 -27 45 -68t52 -84l168 -276v-43v-24t-0.5 -27.5
t-1.5 -29l-2 -29t-2.5 -29t-3.5 -27.5t-4 -25t-4.5 -21.5t-5.5 -16.5zM187 752h33l135 93l137 -93h33l-111 158h-116z" />
    <glyph glyph-name="ycircumflex" unicode="&#x177;" horiz-adv-x="518" 
d="M113 -208q56 0 97.5 34t71.5 106l170 415q18 45 36.5 86.5t33.5 69.5h-102q3 -26 -7 -65t-25 -76l-90 -228l-92 227q-16 39 -25 76.5t-7 65.5h-177q14 -28 31.5 -69.5t36.5 -86.5l159 -377q-22 -52 -48.5 -72t-60.5 -20q-22 0 -42 8t-38 19l10 -99q14 -6 31.5 -10
t36.5 -4zM119 555h34l135 107l137 -107h34l-111 178h-118z" />
    <glyph glyph-name="Ydieresis" unicode="&#x178;" horiz-adv-x="661" 
d="M235 0h197q-3 7 -5.5 16.5t-4.5 21.5t-4 25t-3.5 27.5t-2.5 29l-2 29t-1.5 29t-0.5 27.5v24v50l162 269q25 43 51 84t45 68h-120q1 -25 -12 -62.5t-34 -73.5l-126 -215l-127 215q-22 36 -36 73.5t-11 62.5h-206q19 -27 45 -68t52 -84l168 -276v-43v-24t-0.5 -27.5
t-1.5 -29l-2 -29t-2.5 -29t-3.5 -27.5t-4 -25t-4.5 -21.5t-5.5 -16.5zM257 764q34 0 54.5 22t20.5 52t-20.5 51.5t-54.5 21.5q-33 0 -54 -21.5t-21 -51.5t21 -52t54 -22zM455 764q33 0 54 22t21 52t-21 51.5t-54 21.5q-34 0 -54.5 -21.5t-20.5 -51.5t20.5 -52t54.5 -22z" />
    <glyph glyph-name="Zacute" unicode="&#x179;" horiz-adv-x="574" 
d="M546 0l17 111q-13 -6 -27.5 -11.5t-30 -10t-32.5 -8.5t-34 -7t-34 -5t-33.5 -3.5t-32 -2.5t-29.5 -1h-118l378 638h-524l-18 -111q50 28 118 37t128 9h103l-377 -635h546zM248 752h37l183 158h-151z" />
    <glyph glyph-name="zacute" unicode="&#x17a;" horiz-adv-x="442" 
d="M0 0h409l15 91q-39 -16 -86.5 -26t-90.5 -10h-71l260 448h-398l-20 -92q41 17 88.5 26t96.5 9h55zM177 555h38l186 178h-150z" />
    <glyph glyph-name="Zdotaccent" unicode="&#x17b;" horiz-adv-x="574" 
d="M546 0l17 111q-13 -6 -27.5 -11.5t-30 -10t-32.5 -8.5t-34 -7t-34 -5t-33.5 -3.5t-32 -2.5t-29.5 -1h-118l378 638h-524l-18 -111q50 28 118 37t128 9h103l-377 -635h546zM297 762q34 0 56 22.5t22 53.5t-22 53.5t-56 22.5t-56 -22.5t-22 -53.5t22 -53.5t56 -22.5z" />
    <glyph glyph-name="zdotaccent" unicode="&#x17c;" horiz-adv-x="442" 
d="M0 0h409l15 91q-39 -16 -86.5 -26t-90.5 -10h-71l260 448h-398l-20 -92q41 17 88.5 26t96.5 9h55zM229 571q34 0 56 22.5t22 53.5t-22 53.5t-56 22.5t-56 -22.5t-22 -53.5t22 -53.5t56 -22.5z" />
    <glyph glyph-name="Zcaron" unicode="&#x17d;" horiz-adv-x="574" 
d="M546 0l17 111q-13 -6 -27.5 -11.5t-30 -10t-32.5 -8.5t-34 -7t-34 -5t-33.5 -3.5t-32 -2.5t-29.5 -1h-118l378 638h-524l-18 -111q50 28 118 37t128 9h103l-377 -635h546zM239 757h116l111 157h-33l-136 -92l-136 92h-33z" />
    <glyph glyph-name="zcaron" unicode="&#x17e;" horiz-adv-x="442" 
d="M0 0h409l15 91q-39 -16 -86.5 -26t-90.5 -10h-71l260 448h-398l-20 -92q41 17 88.5 26t96.5 9h55zM170 560h118l111 177h-34l-136 -107l-136 107h-34z" />
    <glyph glyph-name="uni0218" unicode="&#x218;" horiz-adv-x="534" 
d="M260 -10q27 0 51.5 4.5t47 12.5t42 19.5t36 26.5t29.5 32.5t22 37.5t13.5 42t4.5 46q0 20 -3.5 37.5t-10 33t-15.5 28.5t-20.5 24.5t-24.5 21t-27 18t-29 16t-30.5 14.5t-31 13.5t-30.5 13t-29.5 13t-27.5 13.5t-24 14.5t-20 16.5t-15.5 19t-10 21.5t-3.5 25.5
q0 40 27.5 66.5t79.5 26.5q50 0 103.5 -26t107.5 -73l-22 130q-40 0 -88.5 15t-105.5 15q-26 0 -49.5 -4t-44 -12t-38.5 -19.5t-33 -25.5t-26.5 -31t-19.5 -35.5t-11.5 -39t-3.5 -41.5q0 -22 3.5 -40.5t10 -34.5t15.5 -30t20 -26t24 -22t27 -19t29 -17t30.5 -15t31 -13.5
t30.5 -13t29 -13t27 -13t24 -14t20 -16t15.5 -18.5t10 -21t3.5 -24q1 -43 -33.5 -71.5t-86.5 -28.5t-111 25.5t-128 86.5l24 -136q12 0 23.5 -1.5t23 -4t23.5 -6t24.5 -6.5t26.5 -6.5t28.5 -6t31 -4t34.5 -1.5zM224 -300q59 25 91 65t32 88q0 39 -22.5 62t-53.5 23
q-29 0 -48 -18.5t-19 -44.5q0 -9 1.5 -15.5t4.5 -12.5t7 -10.5t8.5 -8.5t9 -7.5l9 -7t8.5 -7.5t7 -8t4.5 -9.5t1.5 -11.5q0 -16 -12 -35.5t-33 -37.5z" />
    <glyph glyph-name="uni0219" unicode="&#x219;" horiz-adv-x="437" 
d="M218 -10q20 0 39 3t36 9t32.5 15t28.5 20t23.5 24t17.5 28.5t11 32.5t4 35q0 16 -3 30.5t-8.5 26.5t-13 22t-16.5 18.5t-20 16t-22.5 13.5t-23.5 11.5t-24.5 10t-24.5 9t-23.5 9t-22.5 9.5t-20 10t-16.5 10.5t-13 12.5t-8.5 15t-3 17q0 27 20.5 43.5t54.5 16.5
q36 0 77 -18.5t86 -61.5l-19 114q-29 -1 -66.5 10t-83.5 11q-78 0 -129 -46.5t-51 -112.5q0 -17 3 -31.5t8.5 -26.5t13 -22.5t16.5 -19.5t19.5 -16t22 -13.5t24 -12t24.5 -10.5t24.5 -9.5t24 -9t22 -9t19.5 -9.5t16.5 -11t13 -12.5t8.5 -14.5t3 -17q0 -29 -23 -47.5
t-63 -18.5q-45 0 -90.5 21t-93.5 67l21 -118q35 2 74.5 -11t94.5 -13zM167 -300q59 25 91 65t32 88q0 39 -22.5 62t-53.5 23q-29 0 -48 -18.5t-19 -44.5q0 -9 1.5 -15.5t4.5 -12.5t7 -10.5t8.5 -8.5t9 -7.5l9 -7t8.5 -7.5t7 -8t4.5 -9.5t1.5 -11.5q0 -16 -12 -35.5
t-33 -37.5z" />
    <glyph glyph-name="uni021A" unicode="&#x21a;" horiz-adv-x="626" 
d="M215 0h196q-3 7 -5.5 15.5t-4.5 19.5t-4 23t-3.5 24.5t-2.5 26t-2 26.5t-1.5 26t-0.5 25v22v428h18q54 0 110 -10t107 -38l-18 112h-582l-18 -112q51 28 107.5 38t109.5 10h18v-428v-22t-0.5 -25t-1.5 -26t-2 -26.5t-2.5 -26t-3.5 -24.5t-4 -23t-4.5 -19.5t-5.5 -15.5z
M263 -300q59 25 91 65t32 88q0 39 -22.5 62t-53.5 23q-29 0 -48.5 -18.5t-19.5 -44.5q0 -8 1.5 -15t4.5 -12.5t7 -10.5t8.5 -9t9.5 -7.5t9.5 -7t8.5 -7.5t7 -8t4.5 -9.5t1.5 -11.5q0 -16 -12 -35.5t-33 -37.5z" />
    <glyph glyph-name="uni021B" unicode="&#x21b;" horiz-adv-x="361" 
d="M238 -11q29 0 58.5 7.5t48.5 17.5l6 58q-12 -6 -26.5 -10.5t-29.5 -4.5q-28 0 -43 15.5t-15 47.5v327h113v56h-113v130l-138 -31v-99h-83l-14 -56h97v-327q0 -64 35.5 -97.5t103.5 -33.5zM178 -300q59 25 91 65t32 88q0 39 -22.5 62t-53.5 23q-29 0 -48 -18.5t-19 -44.5
q0 -9 1.5 -15.5t4.5 -12.5t7 -10.5t8.5 -8.5t9 -7.5l9 -7t8.5 -7.5t7 -8t4.5 -9.5t1.5 -11.5q0 -16 -12 -35.5t-33 -37.5z" />
    <glyph glyph-name="uni0237" unicode="&#x237;" horiz-adv-x="262" 
d="M38 -206q76 0 120 43t44 121v550l-159 -24q3 -7 5.5 -16t5 -19t4 -21.5t2.5 -23l2 -23t1.5 -23.5t0.5 -22.5v-20.5v-399q0 -28 -13.5 -43.5t-38.5 -15.5q-14 0 -28.5 3.5t-27.5 8.5l6 -61q16 -7 36 -10.5t40 -3.5z" />
    <glyph glyph-name="circumflex" unicode="&#x2c6;" 
d="M80 554h34l135 107l137 -107h34l-111 178h-118z" />
    <glyph glyph-name="caron" unicode="&#x2c7;" 
d="M191 559h118l111 177h-34l-136 -107l-136 107h-34z" />
    <glyph glyph-name="breve" unicode="&#x2d8;" 
d="M250 556q66 0 109 44.5t50 125.5h-11q-20 -39 -57.5 -63t-90.5 -24t-90.5 24t-57.5 63h-11q7 -81 50 -125.5t109 -44.5z" />
    <glyph glyph-name="dotaccent" unicode="&#x2d9;" 
d="M250 570q34 0 56 22.5t22 53.5t-22 53.5t-56 22.5t-56 -22.5t-22 -53.5t22 -53.5t56 -22.5z" />
    <glyph glyph-name="ring" unicode="&#x2da;" 
d="M250 563q51 0 83 31t32 77t-32 77t-83 31t-83 -31t-32 -77t32 -77t83 -31zM250 605q-28 0 -47 18.5t-19 47.5t19 47.5t47 18.5t47 -18.5t19 -47.5t-19 -47.5t-47 -18.5z" />
    <glyph glyph-name="ogonek" unicode="&#x2db;" 
d="M256 -209q17 0 37 3.5t34 8.5l11 49q-10 -4 -22 -6.5t-22 -2.5q-20 0 -34 12t-14 33q0 26 22.5 54t65.5 58l-23 6q-83 -34 -121.5 -65.5t-38.5 -70.5q0 -34 29.5 -56.5t75.5 -22.5z" />
    <glyph glyph-name="tilde" unicode="&#x2dc;" 
d="M82 569h16q15 33 33 49t37 16q7 0 14 -2t14.5 -6t15.5 -9t16.5 -10t17.5 -10.5t18 -10.5t18 -9t18.5 -6t19.5 -2q37 0 65.5 35.5t45.5 113.5h-17q-13 -32 -31 -48.5t-37 -16.5q-7 0 -14.5 2t-15.5 6t-16 9t-16.5 10.5t-17.5 11t-18 10.5t-18 9t-18.5 6t-19.5 2
q-37 0 -65.5 -36t-44.5 -114z" />
    <glyph glyph-name="hungarumlaut" unicode="&#x2dd;" 
d="M110 554h40l178 178h-135zM293 554h39l180 178h-136z" />
    <glyph glyph-name="Wgrave" unicode="&#x1e80;" horiz-adv-x="940" 
d="M858 508q19 53 40 106.5t37 85.5h-113q6 -32 -4.5 -79t-25.5 -93l-88 -269l-200 463l-184 -463l-92 269q-15 45 -26 92.5t-6 79.5h-191q16 -32 37 -85.5t40 -106.5l190 -528l192 477l210 -477zM498 752h37l-69 158h-151z" />
    <glyph glyph-name="wgrave" unicode="&#x1e81;" horiz-adv-x="719" 
d="M656 353q16 43 32.5 82.5t29.5 67.5h-97q4 -26 -3 -62t-22 -76l-55 -158l-149 317l-139 -316l-57 159q-13 40 -20 75.5t-3 60.5h-171q13 -28 28.5 -67.5t31.5 -82.5l144 -376l147 329l160 -329zM384 555h39l-74 178h-152z" />
    <glyph glyph-name="Wacute" unicode="&#x1e82;" horiz-adv-x="940" 
d="M858 508q19 53 40 106.5t37 85.5h-113q6 -32 -4.5 -79t-25.5 -93l-88 -269l-200 463l-184 -463l-92 269q-15 45 -26 92.5t-6 79.5h-191q16 -32 37 -85.5t40 -106.5l190 -528l192 477l210 -477zM437 752h37l183 158h-151z" />
    <glyph glyph-name="wacute" unicode="&#x1e83;" horiz-adv-x="719" 
d="M656 353q16 43 32.5 82.5t29.5 67.5h-97q4 -26 -3 -62t-22 -76l-55 -158l-149 317l-139 -316l-57 159q-13 40 -20 75.5t-3 60.5h-171q13 -28 28.5 -67.5t31.5 -82.5l144 -376l147 329l160 -329zM323 555h38l186 178h-150z" />
    <glyph glyph-name="Wdieresis" unicode="&#x1e84;" horiz-adv-x="940" 
d="M858 508q19 53 40 106.5t37 85.5h-113q6 -32 -4.5 -79t-25.5 -93l-88 -269l-200 463l-184 -463l-92 269q-15 45 -26 92.5t-6 79.5h-191q16 -32 37 -85.5t40 -106.5l190 -528l192 477l210 -477zM387 764q34 0 54.5 22t20.5 52t-20.5 51.5t-54.5 21.5q-33 0 -54 -21.5
t-21 -51.5t21 -52t54 -22zM585 764q33 0 54 22t21 52t-21 51.5t-54 21.5q-34 0 -54.5 -21.5t-20.5 -51.5t20.5 -52t54.5 -22z" />
    <glyph glyph-name="wdieresis" unicode="&#x1e85;" horiz-adv-x="719" 
d="M656 353q16 43 32.5 82.5t29.5 67.5h-97q4 -26 -3 -62t-22 -76l-55 -158l-149 317l-139 -316l-57 159q-13 40 -20 75.5t-3 60.5h-171q13 -28 28.5 -67.5t31.5 -82.5l144 -376l147 329l160 -329zM276 573q34 0 54.5 22t20.5 51q0 30 -20.5 52t-54.5 22q-33 0 -54 -22
t-21 -52q0 -29 21 -51t54 -22zM474 573q33 0 54 22t21 51q0 30 -21 52t-54 22q-34 0 -54.5 -22t-20.5 -52q0 -29 20.5 -51t54.5 -22z" />
    <glyph glyph-name="Ygrave" unicode="&#x1ef2;" horiz-adv-x="661" 
d="M235 0h197q-3 7 -5.5 16.5t-4.5 21.5t-4 25t-3.5 27.5t-2.5 29l-2 29t-1.5 29t-0.5 27.5v24v50l162 269q25 43 51 84t45 68h-120q1 -25 -12 -62.5t-34 -73.5l-126 -215l-127 215q-22 36 -36 73.5t-11 62.5h-206q19 -27 45 -68t52 -84l168 -276v-43v-24t-0.5 -27.5
t-1.5 -29l-2 -29t-2.5 -29t-3.5 -27.5t-4 -25t-4.5 -21.5t-5.5 -16.5zM368 752h37l-69 158h-151z" />
    <glyph glyph-name="ygrave" unicode="&#x1ef3;" horiz-adv-x="518" 
d="M113 -208q56 0 97.5 34t71.5 106l170 415q18 45 36.5 86.5t33.5 69.5h-102q3 -26 -7 -65t-25 -76l-90 -228l-92 227q-16 39 -25 76.5t-7 65.5h-177q14 -28 31.5 -69.5t36.5 -86.5l159 -377q-22 -52 -48.5 -72t-60.5 -20q-22 0 -42 8t-38 19l10 -99q14 -6 31.5 -10
t36.5 -4zM298 555h39l-74 178h-152z" />
    <glyph glyph-name="uni2002" unicode="&#x2002;" horiz-adv-x="529" 
 />
    <glyph glyph-name="uni2003" unicode="&#x2003;" horiz-adv-x="759" 
 />
    <glyph glyph-name="uni2009" unicode="&#x2009;" horiz-adv-x="167" 
 />
    <glyph glyph-name="uni200A" unicode="&#x200a;" horiz-adv-x="124" 
 />
    <glyph glyph-name="uni200B" unicode="&#x200b;" horiz-adv-x="0" 
 />
    <glyph glyph-name="endash" unicode="&#x2013;" horiz-adv-x="528" 
d="M26 326h466l8 61h-466z" />
    <glyph glyph-name="emdash" unicode="&#x2014;" horiz-adv-x="758" 
d="M26 326h696l8 61h-696z" />
    <glyph glyph-name="uni2015" unicode="&#x2015;" horiz-adv-x="1102" 
d="M26 323h1042l6 61h-1040z" />
    <glyph glyph-name="quoteleft" unicode="&#x2018;" horiz-adv-x="223" 
d="M187 710q-70 -37 -115 -94.5t-45 -121.5q0 -49 25 -75.5t59 -26.5t56 22t22 53q0 10 -1.5 18t-5 14.5t-7.5 12.5t-8.5 11.5t-9 10.5l-9 10t-8.5 10.5t-7.5 11.5t-5 13t-1.5 15q0 27 19.5 53.5t51.5 50.5z" />
    <glyph glyph-name="quoteright" unicode="&#x2019;" horiz-adv-x="223" 
d="M36 394q70 37 115 94.5t45 121.5q0 49 -25 75.5t-59 26.5t-56 -22t-22 -53q0 -10 1.5 -18t5 -14.5t7.5 -12.5t8.5 -11.5t9 -10.5l9 -10t8.5 -10.5t7.5 -11.5t5 -13t1.5 -15q0 -27 -19.5 -53.5t-51.5 -50.5z" />
    <glyph glyph-name="quotesinglbase" unicode="&#x201a;" horiz-adv-x="223" 
d="M36 -158q70 37 115 94.5t45 121.5q0 49 -25 75.5t-59 26.5t-56 -22t-22 -53q0 -10 1.5 -18t5 -14.5t7.5 -12.5t8.5 -11.5t9 -10.5l9 -10t8.5 -10.5t7.5 -11.5t5 -13t1.5 -15q0 -27 -19.5 -53.5t-51.5 -50.5z" />
    <glyph glyph-name="uni201B" unicode="&#x201b;" horiz-adv-x="223" 
d="M187 394l9 12q-31 24 -50.5 50.5t-19.5 53.5q0 8 1.5 15t5 13t7.5 11.5t8.5 10.5l9 10t9 10.5t8.5 11.5t7.5 12.5t5 14.5t1.5 18q0 31 -22 53t-55 22q-36 0 -61 -26.5t-25 -75.5q0 -64 45 -121.5t116 -94.5z" />
    <glyph glyph-name="quotedblleft" unicode="&#x201c;" horiz-adv-x="428" 
d="M187 710q-70 -37 -115 -94.5t-45 -121.5q0 -49 25 -75.5t59 -26.5t56 22t22 53q0 10 -1.5 18t-5 14.5t-7.5 12.5t-8.5 11.5t-9 10.5l-9 10t-8.5 10.5t-7.5 11.5t-5 13t-1.5 15q0 27 19.5 53.5t51.5 50.5zM391 710q-70 -37 -115 -94.5t-45 -121.5q0 -49 25 -75.5t59 -26.5
t56 22t22 53q0 10 -1.5 18t-5 14.5t-7.5 12.5t-8.5 11.5t-9 10.5l-9 10t-8.5 10.5t-7.5 11.5t-5 13t-1.5 15q0 27 19.5 53.5t51.5 50.5z" />
    <glyph glyph-name="quotedblright" unicode="&#x201d;" horiz-adv-x="427" 
d="M37 394q70 37 115 94.5t45 121.5q0 49 -25 75.5t-59 26.5t-56 -22t-22 -53q0 -10 1.5 -18t5 -14.5t7.5 -12.5t8.5 -11.5t9 -10.5l9 -10t8.5 -10.5t7.5 -11.5t5 -13t1.5 -15q0 -27 -19.5 -53.5t-51.5 -50.5zM241 394q70 37 115 94.5t45 121.5q0 49 -25 75.5t-59 26.5
t-56 -22t-22 -53q0 -10 1.5 -18t5 -14.5t7.5 -12.5t8.5 -11.5t9 -10.5l9 -10t8.5 -10.5t7.5 -11.5t5 -13t1.5 -15q0 -27 -19.5 -53.5t-51.5 -50.5z" />
    <glyph glyph-name="quotedblbase" unicode="&#x201e;" horiz-adv-x="427" 
d="M37 -158q70 37 115 94.5t45 121.5q0 49 -25 75.5t-59 26.5t-56 -22t-22 -53q0 -10 1.5 -18t5 -14.5t7.5 -12.5t8.5 -11.5t9 -10.5l9 -10t8.5 -10.5t7.5 -11.5t5 -13t1.5 -15q0 -27 -19.5 -53.5t-51.5 -50.5zM241 -158q70 37 115 94.5t45 121.5q0 49 -25 75.5t-59 26.5
t-56 -22t-22 -53q0 -10 1.5 -18t5 -14.5t7.5 -12.5t8.5 -11.5t9 -10.5l9 -10t8.5 -10.5t7.5 -11.5t5 -13t1.5 -15q0 -27 -19.5 -53.5t-51.5 -50.5z" />
    <glyph glyph-name="uni201F" unicode="&#x201f;" horiz-adv-x="427" 
d="M390 394l9 12q-31 24 -50.5 50.5t-19.5 53.5q0 8 1.5 15t5 13t7.5 11.5t8.5 10.5l9 10t9 10.5t8.5 11.5t7.5 12.5t5 14.5t1.5 18q0 31 -22 53t-56 22q-35 0 -60 -26.5t-25 -75.5q0 -64 45 -121.5t116 -94.5zM186 394l9 12q-31 24 -50.5 50.5t-19.5 53.5q0 8 1.5 15t5 13
t7.5 11.5t8.5 10.5l9 10t9 10.5t8.5 11.5t7.5 12.5t5 14.5t1.5 18q0 31 -22 53t-56 22q-35 0 -60 -26.5t-25 -75.5q0 -64 45 -121.5t116 -94.5z" />
    <glyph glyph-name="dagger" unicode="&#x2020;" horiz-adv-x="484" 
d="M237 -113h9q13 112 30 226.5t34 209.5q-14 34 -25.5 72t-21.5 75q72 -12 113.5 -21t75.5 -19v116q-34 -10 -75.5 -19.5t-114.5 -21.5q17 75 29 116.5t27 78.5h-152q14 -37 26 -78.5t29 -116.5q-73 12 -114 21.5t-75 19.5v-116q34 10 75 19t114 21q-10 -37 -22 -75
t-25 -72q16 -95 33 -209.5t30 -226.5z" />
    <glyph glyph-name="daggerdbl" unicode="&#x2021;" horiz-adv-x="484" 
d="M32 146v-116q34 10 75 19t114 21q-17 -75 -29 -116.5t-26 -78.5h152q-15 37 -27 78.5t-29 116.5q73 -12 114.5 -21t75.5 -19v116q-34 -10 -75.5 -19.5t-114.5 -21.5q11 46 23 92.5t25 90.5q-13 43 -25 89.5t-23 92.5q73 -12 114.5 -21t75.5 -19v116q-34 -10 -75.5 -19.5
t-114.5 -21.5q17 75 29 116.5t27 78.5h-152q14 -37 26 -78.5t29 -116.5q-73 12 -114 21.5t-75 19.5v-116q34 10 75 19t114 21q-10 -46 -22 -92.5t-25 -89.5q13 -44 25 -90t22 -93q-73 12 -114 21.5t-75 19.5z" />
    <glyph glyph-name="bullet" unicode="&#x2022;" horiz-adv-x="434" 
d="M217 202q64 0 109 45t45 109t-45 109t-109 45t-109 -45t-45 -109t45 -109t109 -45z" />
    <glyph glyph-name="ellipsis" unicode="&#x2026;" horiz-adv-x="700" 
d="M117 -8q34 0 58.5 24.5t24.5 59.5q0 34 -24.5 58.5t-58.5 24.5q-35 0 -59.5 -24.5t-24.5 -58.5q0 -35 24.5 -59.5t59.5 -24.5zM350 -8q34 0 58.5 24.5t24.5 59.5q0 34 -24.5 58.5t-58.5 24.5q-35 0 -59.5 -24.5t-24.5 -58.5q0 -35 24.5 -59.5t59.5 -24.5zM584 -8
q34 0 58.5 24.5t24.5 59.5q0 34 -24.5 58.5t-58.5 24.5q-35 0 -59.5 -24.5t-24.5 -58.5q0 -35 24.5 -59.5t59.5 -24.5z" />
    <glyph glyph-name="perthousand" unicode="&#x2030;" horiz-adv-x="1030" 
d="M170 0l417 700h-62l-417 -700h62zM168 365q61 0 106 47.5t45 124.5q0 76 -44.5 123.5t-106.5 47.5q-61 0 -105.5 -47.5t-44.5 -123.5q0 -77 44.5 -124.5t105.5 -47.5zM168 404q-21 0 -35 30t-14 102t14 101.5t35 29.5q22 0 36 -29.5t14 -101.5t-14 -102t-36 -30zM525 -7
q61 0 106 47.5t45 124.5q0 76 -44.5 123.5t-106.5 47.5q-61 0 -105.5 -47.5t-44.5 -123.5q0 -77 44.5 -124.5t105.5 -47.5zM525 32q-21 0 -35 30t-14 102t14 101.5t35 29.5q22 0 36 -29.5t14 -101.5t-14 -102t-36 -30zM861 -7q61 0 106 47.5t45 124.5q0 76 -44.5 123.5
t-106.5 47.5q-61 0 -105.5 -47.5t-44.5 -123.5q0 -77 44.5 -124.5t105.5 -47.5zM861 32q-21 0 -35 30t-14 102t14 101.5t35 29.5q22 0 36 -29.5t14 -101.5t-14 -102t-36 -30z" />
    <glyph glyph-name="guilsinglleft" unicode="&#x2039;" horiz-adv-x="324" 
d="M292 -5h16l-142 257l142 255h-16l-279 -255z" />
    <glyph glyph-name="guilsinglright" unicode="&#x203a;" horiz-adv-x="323" 
d="M31 -5h-16l142 257l-142 255h16l279 -255z" />
    <glyph glyph-name="fraction" unicode="&#x2044;" horiz-adv-x="479" 
d="M62 0l417 700h-62l-417 -700h62z" />
    <glyph glyph-name="uni2070" unicode="&#x2070;" horiz-adv-x="337" 
d="M168 365q61 0 106 47.5t45 124.5q0 76 -44.5 123.5t-106.5 47.5q-61 0 -105.5 -47.5t-44.5 -123.5q0 -77 44.5 -124.5t105.5 -47.5zM168 404q-21 0 -35 30t-14 102t14 101.5t35 29.5q22 0 36 -29.5t14 -101.5t-14 -102t-36 -30z" />
    <glyph glyph-name="uni2074" unicode="&#x2074;" horiz-adv-x="327" 
d="M6 442h164q-1 -20 -3.5 -39.5t-6.5 -30.5h112q-3 11 -5 30.5t-3 39.5h42l12 72q-12 -3 -26 -5.5t-28 -3.5v84l-93 -19v-67h-90l36 63q19 30 43.5 69t43.5 66h-74q-10 -25 -25.5 -59t-30.5 -62z" />
    <glyph glyph-name="uni2075" unicode="&#x2075;" horiz-adv-x="275" 
d="M120 366q62 0 102 31.5t40 81.5q0 44 -31.5 70t-80.5 26q-22 0 -40.5 -4.5t-33.5 -13.5l11 78h152l14 73q-17 -3 -42 -5t-49 -2h-114l-26 -183l34 -12q10 10 24.5 16.5t29.5 6.5q27 0 42.5 -16t15.5 -41q0 -28 -18 -45t-46 -17q-22 0 -44.5 7.5t-42.5 18.5l4 -48
q19 -10 44.5 -16t54.5 -6z" />
    <glyph glyph-name="uni2076" unicode="&#x2076;" horiz-adv-x="310" 
d="M164 365q58 0 94 34t36 85q0 43 -28 70t-68 27q-25 0 -47.5 -13t-35.5 -37q2 64 21.5 98t58.5 34q17 0 36.5 -6.5t36.5 -19.5l-6 53q-17 9 -37 13t-42 4q-75 0 -120.5 -51t-45.5 -129q0 -74 40.5 -118t106.5 -44zM158 536q19 0 30.5 -16t11.5 -45q0 -35 -11 -53t-28 -18
q-19 0 -32 22.5t-14 76.5q8 16 19.5 24.5t23.5 8.5z" />
    <glyph glyph-name="uni2077" unicode="&#x2077;" horiz-adv-x="272" 
d="M60 372h114q-7 91 9.5 158t63.5 134l23 37h-247l-15 -79q19 7 43 10t49 3h94l-2 -2q-51 -61 -87 -124t-45 -137z" />
    <glyph glyph-name="uni2078" unicode="&#x2078;" horiz-adv-x="301" 
d="M146 366q64 0 102 30.5t38 73.5q0 39 -26.5 60.5t-58.5 35.5q31 6 50.5 23t19.5 42q0 31 -32 54t-88 23q-57 0 -92 -30t-35 -72q0 -36 21 -57.5t49 -34.5q-37 -5 -58.5 -22.5t-21.5 -45.5q0 -34 35 -57t97 -23zM106 634q0 15 11.5 25.5t32.5 10.5t35.5 -12.5t14.5 -33.5
q0 -13 -6.5 -25.5t-18.5 -21.5q-28 11 -48.5 23.5t-20.5 33.5zM91 454q0 13 6.5 26t20.5 24q31 -13 56.5 -26t25.5 -36q0 -18 -14.5 -28.5t-37.5 -10.5q-25 0 -41 13.5t-16 37.5z" />
    <glyph glyph-name="uni2079" unicode="&#x2079;" horiz-adv-x="310" 
d="M146 707q-58 0 -94 -34t-36 -85q0 -43 28 -70t68 -27q25 0 47.5 13t35.5 37q-2 -64 -21.5 -98t-58.5 -34q-17 0 -36.5 6.5t-36.5 19.5l6 -53q17 -9 37 -13t42 -4q75 0 120.5 51t45.5 129q0 74 -40.5 118t-106.5 44zM152 536q-19 0 -30.5 16t-11.5 45q0 35 11 53t28 18
q19 0 32 -22.5t14 -76.5q-8 -16 -19.5 -24.5t-23.5 -8.5z" />
    <glyph glyph-name="uni2080" unicode="&#x2080;" horiz-adv-x="337" 
d="M168 -7q61 0 106 47.5t45 124.5q0 76 -44.5 123.5t-106.5 47.5q-61 0 -105.5 -47.5t-44.5 -123.5q0 -77 44.5 -124.5t105.5 -47.5zM168 32q-21 0 -35 30t-14 102t14 101.5t35 29.5q22 0 36 -29.5t14 -101.5t-14 -102t-36 -30z" />
    <glyph glyph-name="uni2081" unicode="&#x2081;" horiz-adv-x="161" 
d="M22 0h120q-6 16 -8.5 46.5t-2.5 55.5v234l-116 -34q10 -13 14 -37t4 -49v-114q0 -25 -2 -55.5t-9 -46.5z" />
    <glyph glyph-name="uni2082" unicode="&#x2082;" horiz-adv-x="266" 
d="M6 0h236l12 82q-21 -9 -51.5 -13t-55.5 -4h-46l54 45q49 40 72 69.5t23 63.5q0 41 -34.5 66.5t-91.5 25.5q-29 0 -57 -9t-47 -22l-8 -50q20 14 41 24t43 10q26 0 42.5 -15.5t16.5 -44.5q0 -25 -14.5 -54t-52.5 -75z" />
    <glyph glyph-name="uni2083" unicode="&#x2083;" horiz-adv-x="277" 
d="M122 -6q63 0 102 27.5t39 69.5q0 31 -24 52.5t-67 26.5q36 9 58.5 30t22.5 52q0 37 -32.5 60t-86.5 23q-33 0 -61 -8t-49 -20l-6 -49q21 13 42 21t42 8q25 0 39.5 -13t14.5 -35q0 -23 -15.5 -38t-43.5 -15h-23l-10 -40h33q34 0 50.5 -14t16.5 -39t-17 -39.5t-45 -14.5
q-22 0 -44.5 6.5t-43.5 19.5l3 -48q19 -10 46.5 -16.5t58.5 -6.5z" />
    <glyph glyph-name="uni2084" unicode="&#x2084;" horiz-adv-x="327" 
d="M6 70h164q-1 -20 -3.5 -39.5t-6.5 -30.5h112q-3 11 -5 30.5t-3 39.5h42l12 72q-12 -3 -26 -5.5t-28 -3.5v84l-93 -19v-67h-90l36 63q19 30 43.5 69t43.5 66h-74q-10 -25 -25.5 -59t-30.5 -62z" />
    <glyph glyph-name="uni2085" unicode="&#x2085;" horiz-adv-x="275" 
d="M120 -6q62 0 102 31.5t40 81.5q0 44 -31.5 70t-80.5 26q-22 0 -40.5 -4.5t-33.5 -13.5l11 78h152l14 73q-17 -3 -42 -5t-49 -2h-114l-26 -183l34 -12q10 10 24.5 16.5t29.5 6.5q27 0 42.5 -16t15.5 -41q0 -28 -18 -45t-46 -17q-22 0 -44.5 7.5t-42.5 18.5l4 -48
q19 -10 44.5 -16t54.5 -6z" />
    <glyph glyph-name="uni2086" unicode="&#x2086;" horiz-adv-x="310" 
d="M164 -7q58 0 94 34t36 85q0 43 -28 70t-68 27q-25 0 -47.5 -13t-35.5 -37q2 64 21.5 98t58.5 34q17 0 36.5 -6.5t36.5 -19.5l-6 53q-17 9 -37 13t-42 4q-75 0 -120.5 -51t-45.5 -129q0 -74 40.5 -118t106.5 -44zM158 164q19 0 30.5 -16t11.5 -45q0 -35 -11 -53t-28 -18
q-19 0 -32 22.5t-14 76.5q8 16 19.5 24.5t23.5 8.5z" />
    <glyph glyph-name="uni2087" unicode="&#x2087;" horiz-adv-x="272" 
d="M60 0h114q-7 91 9.5 158t63.5 134l23 37h-247l-15 -79q19 7 43 10t49 3h94l-2 -2q-51 -61 -87 -124t-45 -137z" />
    <glyph glyph-name="uni2088" unicode="&#x2088;" horiz-adv-x="301" 
d="M146 -6q64 0 102 30.5t38 73.5q0 39 -26.5 60.5t-58.5 35.5q31 6 50.5 23t19.5 42q0 31 -32 54t-88 23q-57 0 -92 -30t-35 -72q0 -36 21 -57.5t49 -34.5q-37 -5 -58.5 -22.5t-21.5 -45.5q0 -34 35 -57t97 -23zM106 262q0 15 11.5 25.5t32.5 10.5t35.5 -12.5t14.5 -33.5
q0 -13 -6.5 -25.5t-18.5 -21.5q-28 11 -48.5 23.5t-20.5 33.5zM91 82q0 13 6.5 26t20.5 24q31 -13 56.5 -26t25.5 -36q0 -18 -14.5 -28.5t-37.5 -10.5q-25 0 -41 13.5t-16 37.5z" />
    <glyph glyph-name="uni2089" unicode="&#x2089;" horiz-adv-x="310" 
d="M146 335q-58 0 -94 -34t-36 -85q0 -43 28 -70t68 -27q25 0 47.5 13t35.5 37q-2 -64 -21.5 -98t-58.5 -34q-17 0 -36.5 6.5t-36.5 19.5l6 -53q17 -9 37 -13t42 -4q75 0 120.5 51t45.5 129q0 74 -40.5 118t-106.5 44zM152 164q-19 0 -30.5 16t-11.5 45q0 35 11 53t28 18
q19 0 32 -22.5t14 -76.5q-8 -16 -19.5 -24.5t-23.5 -8.5z" />
    <glyph glyph-name="Euro" unicode="&#x20ac;" horiz-adv-x="654" 
d="M7 263h93q6 -31 16 -59.5t24.5 -54t32.5 -47t39.5 -39.5t46 -32t51.5 -23.5t56.5 -14.5t61.5 -5q51 0 99 12.5t85 35.5l13 72q-36 -23 -77 -36t-82 -13q-83 0 -142 55t-78 149h181l27 45h-214q-1 10 -1.5 21t-0.5 21v11t1 11h245l26 45h-267q15 99 72 161.5t142 62.5
q43 0 85 -15t78 -40l-9 84q-38 19 -83 30.5t-92 11.5q-29 0 -57 -4.5t-53.5 -13t-49 -21t-44.5 -28.5t-39 -35.5t-33.5 -41t-27.5 -46t-20.5 -51t-13.5 -54.5h-91v-45h86q-1 -7 -1 -13v-13q0 -10 0.5 -19.5t1.5 -18.5h-87v-45z" />
    <glyph glyph-name="trademark" unicode="&#x2122;" horiz-adv-x="770" 
d="M121 355h110q-2 4 -3 10.5t-2.5 14.5t-2 16.5t-1 17.5l-1 18t-0.5 17v15v195h11q27 0 52 -4.5t52 -14.5l-12 60h-296l-10 -60q26 10 50.5 14.5t51.5 4.5h12v-195v-15t-0.5 -17l-1 -18t-1.5 -17.5t-2 -16.5t-2.5 -14.5t-3.5 -10.5zM365 355h65q-6 15 -8 49.5t-2 58.5v156
l109 -211l111 212v-157q0 -24 -2 -58.5t-8 -49.5h104q-6 15 -7.5 49.5t-1.5 58.5v129v15t0.5 17t0.5 18t1 17.5t2 16.5t2 14t3 10h-98l-85 -167l-87 167h-100q7 -16 9 -50t2 -58v-129q0 -24 -2.5 -58.5t-7.5 -49.5z" />
    <glyph glyph-name="uni2153" unicode="&#x2153;" horiz-adv-x="568" 
d="M413 -6q63 0 102 27.5t39 69.5q0 31 -24 52.5t-67 26.5q36 9 58.5 30t22.5 52q0 37 -32.5 60t-86.5 23q-33 0 -61 -8t-49 -20l-6 -49q21 13 42 21t42 8q25 0 39.5 -13t14.5 -35q0 -23 -15.5 -38t-43.5 -15h-23l-10 -40h33q34 0 50.5 -14t16.5 -39t-17 -39.5t-45 -14.5
q-22 0 -44.5 6.5t-43.5 19.5l3 -48q19 -10 46.5 -16.5t58.5 -6.5zM37 372h120q-6 16 -8.5 46.5t-2.5 55.5v234l-116 -34q10 -13 14 -37t4 -49v-114q0 -25 -2 -55.5t-9 -46.5zM63 0l417 700h-62l-417 -700h62z" />
    <glyph glyph-name="uni2154" unicode="&#x2154;" horiz-adv-x="660" 
d="M6 372h236l12 82q-21 -9 -51.5 -13t-55.5 -4h-46l54 45q49 40 72 69.5t23 63.5q0 41 -34.5 66.5t-91.5 25.5q-29 0 -57 -9t-47 -22l-8 -50q20 14 41 24t43 10q26 0 42.5 -15.5t16.5 -44.5q0 -25 -14.5 -54t-52.5 -75zM505 -6q63 0 102 27.5t39 69.5q0 31 -24 52.5
t-67 26.5q36 9 58.5 30t22.5 52q0 37 -32.5 60t-86.5 23q-33 0 -61 -8t-49 -20l-6 -49q21 13 42 21t42 8q25 0 39.5 -13t14.5 -35q0 -23 -15.5 -38t-43.5 -15h-23l-10 -40h33q34 0 50.5 -14t16.5 -39t-17 -39.5t-45 -14.5q-22 0 -44.5 6.5t-43.5 19.5l3 -48
q19 -10 46.5 -16.5t58.5 -6.5zM158 0l417 700h-62l-417 -700h62z" />
    <glyph glyph-name="uni2155" unicode="&#x2155;" horiz-adv-x="571" 
d="M416 -6q62 0 102 31.5t40 81.5q0 44 -31.5 70t-80.5 26q-22 0 -40.5 -4.5t-33.5 -13.5l11 78h152l14 73q-17 -3 -42 -5t-49 -2h-114l-26 -183l34 -12q10 10 24.5 16.5t29.5 6.5q27 0 42.5 -16t15.5 -41q0 -28 -18 -45t-46 -17q-22 0 -44.5 7.5t-42.5 18.5l4 -48
q19 -10 44.5 -16t54.5 -6zM37 372h120q-6 16 -8.5 46.5t-2.5 55.5v234l-116 -34q10 -13 14 -37t4 -49v-114q0 -25 -2 -55.5t-9 -46.5zM63 0l417 700h-62l-417 -700h62z" />
    <glyph glyph-name="uni2156" unicode="&#x2156;" horiz-adv-x="664" 
d="M6 372h236l12 82q-21 -9 -51.5 -13t-55.5 -4h-46l54 45q49 40 72 69.5t23 63.5q0 41 -34.5 66.5t-91.5 25.5q-29 0 -57 -9t-47 -22l-8 -50q20 14 41 24t43 10q26 0 42.5 -15.5t16.5 -44.5q0 -25 -14.5 -54t-52.5 -75zM509 -6q62 0 102 31.5t40 81.5q0 44 -31.5 70
t-80.5 26q-22 0 -40.5 -4.5t-33.5 -13.5l11 78h152l14 73q-17 -3 -42 -5t-49 -2h-114l-26 -183l34 -12q10 10 24.5 16.5t29.5 6.5q27 0 42.5 -16t15.5 -41q0 -28 -18 -45t-46 -17q-22 0 -44.5 7.5t-42.5 18.5l4 -48q19 -10 44.5 -16t54.5 -6zM158 0l417 700h-62l-417 -700
h62z" />
    <glyph glyph-name="uni2157" unicode="&#x2157;" horiz-adv-x="654" 
d="M122 366q63 0 102 27.5t39 69.5q0 31 -24 52.5t-67 26.5q36 9 58.5 30t22.5 52q0 37 -32.5 60t-86.5 23q-33 0 -61 -8t-49 -20l-6 -49q21 13 42 21t42 8q25 0 39.5 -13t14.5 -35q0 -23 -15.5 -38t-43.5 -15h-23l-10 -40h33q34 0 50.5 -14t16.5 -39t-17 -39.5t-45 -14.5
q-22 0 -44.5 6.5t-43.5 19.5l3 -48q19 -10 46.5 -16.5t58.5 -6.5zM499 -6q62 0 102 31.5t40 81.5q0 44 -31.5 70t-80.5 26q-22 0 -40.5 -4.5t-33.5 -13.5l11 78h152l14 73q-17 -3 -42 -5t-49 -2h-114l-26 -183l34 -12q10 10 24.5 16.5t29.5 6.5q27 0 42.5 -16t15.5 -41
q0 -28 -18 -45t-46 -17q-22 0 -44.5 7.5t-42.5 18.5l4 -48q19 -10 44.5 -16t54.5 -6zM148 0l417 700h-62l-417 -700h62z" />
    <glyph glyph-name="uni2158" unicode="&#x2158;" horiz-adv-x="709" 
d="M6 442h164q-1 -20 -3.5 -39.5t-6.5 -30.5h112q-3 11 -5 30.5t-3 39.5h42l12 72q-12 -3 -26 -5.5t-28 -3.5v84l-93 -19v-67h-90l36 63q19 30 43.5 69t43.5 66h-74q-10 -25 -25.5 -59t-30.5 -62zM554 -6q62 0 102 31.5t40 81.5q0 44 -31.5 70t-80.5 26q-22 0 -40.5 -4.5
t-33.5 -13.5l11 78h152l14 73q-17 -3 -42 -5t-49 -2h-114l-26 -183l34 -12q10 10 24.5 16.5t29.5 6.5q27 0 42.5 -16t15.5 -41q0 -28 -18 -45t-46 -17q-22 0 -44.5 7.5t-42.5 18.5l4 -48q19 -10 44.5 -16t54.5 -6zM204 0l417 700h-62l-417 -700h62z" />
    <glyph glyph-name="uni2159" unicode="&#x2159;" horiz-adv-x="560" 
d="M414 -7q58 0 94 34t36 85q0 43 -28 70t-68 27q-25 0 -47.5 -13t-35.5 -37q2 64 21.5 98t58.5 34q17 0 36.5 -6.5t36.5 -19.5l-6 53q-17 9 -37 13t-42 4q-75 0 -120.5 -51t-45.5 -129q0 -74 40.5 -118t106.5 -44zM408 164q19 0 30.5 -16t11.5 -45q0 -35 -11 -53t-28 -18
q-19 0 -32 22.5t-14 76.5q8 16 19.5 24.5t23.5 8.5zM38 372h120q-6 16 -8.5 46.5t-2.5 55.5v234l-116 -34q10 -13 14 -37t4 -49v-114q0 -25 -2 -55.5t-9 -46.5zM62 0l417 700h-62l-417 -700h62z" />
    <glyph glyph-name="uni215A" unicode="&#x215a;" horiz-adv-x="638" 
d="M120 366q62 0 102 31.5t40 81.5q0 44 -31.5 70t-80.5 26q-22 0 -40.5 -4.5t-33.5 -13.5l11 78h152l14 73q-17 -3 -42 -5t-49 -2h-114l-26 -183l34 -12q10 10 24.5 16.5t29.5 6.5q27 0 42.5 -16t15.5 -41q0 -28 -18 -45t-46 -17q-22 0 -44.5 7.5t-42.5 18.5l4 -48
q19 -10 44.5 -16t54.5 -6zM493 -7q58 0 94 34t36 85q0 43 -28 70t-68 27q-25 0 -47.5 -13t-35.5 -37q2 64 21.5 98t58.5 34q17 0 36.5 -6.5t36.5 -19.5l-6 53q-17 9 -37 13t-42 4q-75 0 -120.5 -51t-45.5 -129q0 -74 40.5 -118t106.5 -44zM487 164q19 0 30.5 -16t11.5 -45
q0 -35 -11 -53t-28 -18q-19 0 -32 22.5t-14 76.5q8 16 19.5 24.5t23.5 8.5zM138 0l417 700h-62l-417 -700h62z" />
    <glyph glyph-name="uni215B" unicode="&#x215b;" horiz-adv-x="575" 
d="M420 -6q64 0 102 30.5t38 73.5q0 39 -26.5 60.5t-58.5 35.5q31 6 50.5 23t19.5 42q0 31 -32 54t-88 23q-57 0 -92 -30t-35 -72q0 -36 21 -57.5t49 -34.5q-37 -5 -58.5 -22.5t-21.5 -45.5q0 -34 35 -57t97 -23zM380 262q0 15 11.5 25.5t32.5 10.5t35.5 -12.5t14.5 -33.5
q0 -13 -6.5 -25.5t-18.5 -21.5q-28 11 -48.5 23.5t-20.5 33.5zM365 82q0 13 6.5 26t20.5 24q31 -13 56.5 -26t25.5 -36q0 -18 -14.5 -28.5t-37.5 -10.5q-25 0 -41 13.5t-16 37.5zM37 372h120q-6 16 -8.5 46.5t-2.5 55.5v234l-116 -34q10 -13 14 -37t4 -49v-114
q0 -25 -2 -55.5t-9 -46.5zM63 0l417 700h-62l-417 -700h62z" />
    <glyph glyph-name="uni215C" unicode="&#x215c;" horiz-adv-x="664" 
d="M122 366q63 0 102 27.5t39 69.5q0 31 -24 52.5t-67 26.5q36 9 58.5 30t22.5 52q0 37 -32.5 60t-86.5 23q-33 0 -61 -8t-49 -20l-6 -49q21 13 42 21t42 8q25 0 39.5 -13t14.5 -35q0 -23 -15.5 -38t-43.5 -15h-23l-10 -40h33q34 0 50.5 -14t16.5 -39t-17 -39.5t-45 -14.5
q-22 0 -44.5 6.5t-43.5 19.5l3 -48q19 -10 46.5 -16.5t58.5 -6.5zM509 -6q64 0 102 30.5t38 73.5q0 39 -26.5 60.5t-58.5 35.5q31 6 50.5 23t19.5 42q0 31 -32 54t-88 23q-57 0 -92 -30t-35 -72q0 -36 21 -57.5t49 -34.5q-37 -5 -58.5 -22.5t-21.5 -45.5q0 -34 35 -57
t97 -23zM469 262q0 15 11.5 25.5t32.5 10.5t35.5 -12.5t14.5 -33.5q0 -13 -6.5 -25.5t-18.5 -21.5q-28 11 -48.5 23.5t-20.5 33.5zM454 82q0 13 6.5 26t20.5 24q31 -13 56.5 -26t25.5 -36q0 -18 -14.5 -28.5t-37.5 -10.5q-25 0 -41 13.5t-16 37.5zM150 0l417 700h-62
l-417 -700h62z" />
    <glyph glyph-name="uni215D" unicode="&#x215d;" horiz-adv-x="653" 
d="M120 366q62 0 102 31.5t40 81.5q0 44 -31.5 70t-80.5 26q-22 0 -40.5 -4.5t-33.5 -13.5l11 78h152l14 73q-17 -3 -42 -5t-49 -2h-114l-26 -183l34 -12q10 10 24.5 16.5t29.5 6.5q27 0 42.5 -16t15.5 -41q0 -28 -18 -45t-46 -17q-22 0 -44.5 7.5t-42.5 18.5l4 -48
q19 -10 44.5 -16t54.5 -6zM498 -6q64 0 102 30.5t38 73.5q0 39 -26.5 60.5t-58.5 35.5q31 6 50.5 23t19.5 42q0 31 -32 54t-88 23q-57 0 -92 -30t-35 -72q0 -36 21 -57.5t49 -34.5q-37 -5 -58.5 -22.5t-21.5 -45.5q0 -34 35 -57t97 -23zM458 262q0 15 11.5 25.5t32.5 10.5
t35.5 -12.5t14.5 -33.5q0 -13 -6.5 -25.5t-18.5 -21.5q-28 11 -48.5 23.5t-20.5 33.5zM443 82q0 13 6.5 26t20.5 24q31 -13 56.5 -26t25.5 -36q0 -18 -14.5 -28.5t-37.5 -10.5q-25 0 -41 13.5t-16 37.5zM138 0l417 700h-62l-417 -700h62z" />
    <glyph glyph-name="uni215E" unicode="&#x215e;" horiz-adv-x="614" 
d="M60 372h114q-7 91 9.5 158t63.5 134l23 37h-247l-15 -79q19 7 43 10t49 3h94l-2 -2q-51 -61 -87 -124t-45 -137zM458 -6q64 0 102 30.5t38 73.5q0 39 -26.5 60.5t-58.5 35.5q31 6 50.5 23t19.5 42q0 31 -32 54t-88 23q-57 0 -92 -30t-35 -72q0 -36 21 -57.5t49 -34.5
q-37 -5 -58.5 -22.5t-21.5 -45.5q0 -34 35 -57t97 -23zM418 262q0 15 11.5 25.5t32.5 10.5t35.5 -12.5t14.5 -33.5q0 -13 -6.5 -25.5t-18.5 -21.5q-28 11 -48.5 23.5t-20.5 33.5zM403 82q0 13 6.5 26t20.5 24q31 -13 56.5 -26t25.5 -36q0 -18 -14.5 -28.5t-37.5 -10.5
q-25 0 -41 13.5t-16 37.5zM100 0l417 700h-62l-417 -700h62z" />
    <glyph glyph-name="uni215F" unicode="&#x215f;" horiz-adv-x="481" 
d="M38 372h120q-6 16 -8.5 46.5t-2.5 55.5v234l-116 -34q10 -13 14 -37t4 -49v-114q0 -25 -2 -55.5t-9 -46.5zM64 0l417 700h-62l-417 -700h62z" />
    <glyph glyph-name="uni2190" unicode="&#x2190;" horiz-adv-x="734" 
d="M285 72h72q-47 62 -95 124.5t-95 125.5q132 -3 264.5 -6.5t264.5 -7.5v84q-131 -3 -264 -6.5t-264 -6.5q47 62 94.5 125t94.5 124h-72q-61 -65 -128.5 -137t-132.5 -141q65 -69 130.5 -139t130.5 -139z" />
    <glyph glyph-name="arrowup" unicode="&#x2191;" horiz-adv-x="734" 
d="M89 450v-72q62 47 124.5 95t125.5 95q-3 -132 -6.5 -264.5t-7.5 -264.5h84q-3 131 -6.5 264t-6.5 264q62 -47 125 -94.5t124 -94.5v72q-65 61 -137 128.5t-141 132.5q-69 -65 -139 -130.5t-139 -130.5z" />
    <glyph glyph-name="uni2192" unicode="&#x2192;" horiz-adv-x="734" 
d="M449 72h-72q47 62 95 124.5t95 125.5q-132 -3 -264.5 -6.5t-264.5 -7.5v84q131 -3 264 -6.5t264 -6.5q-47 62 -94.5 125t-94.5 124h72q61 -65 128.5 -137t132.5 -141q-65 -69 -130.5 -139t-130.5 -139z" />
    <glyph glyph-name="arrowdown" unicode="&#x2193;" horiz-adv-x="734" 
d="M645 263v72q-62 -47 -124.5 -95t-125.5 -95q3 132 6.5 264.5t7.5 264.5h-84q3 -131 6.5 -264t6.5 -264q-62 47 -125 94.5t-124 94.5v-72q65 -61 137 -128.5t141 -132.5q69 65 139 130.5t139 130.5z" />
    <glyph glyph-name="uni2196" unicode="&#x2196;" horiz-adv-x="734" 
d="M104 229l51 -51q11 78 21.5 156t21.5 156l182 -192l182 -192l59 59q-94 90 -190.5 181.5t-191.5 182.5q77 11 155 22t155 21l-51 51q-90 -3 -188.5 -6t-193.5 -6q-3 -95 -6 -191t-6 -191z" />
    <glyph glyph-name="uni2197" unicode="&#x2197;" horiz-adv-x="734" 
d="M236 624l-51 -51q78 -11 156 -21.5t156 -21.5l-192 -182l-192 -182l59 -59q90 94 181.5 190.5t182.5 191.5q11 -77 22 -155t21 -155l51 51q-3 90 -6 188.5t-6 193.5q-95 3 -191 6t-191 6z" />
    <glyph glyph-name="uni2198" unicode="&#x2198;" horiz-adv-x="734" 
d="M630 471l-51 51q-11 -78 -21.5 -156t-21.5 -156l-182 192l-182 192l-59 -59q94 -90 190.5 -181.5t191.5 -182.5q-77 -11 -155 -22t-155 -21l51 -51q90 3 188.5 6t193.5 6q3 95 6 191t6 191z" />
    <glyph glyph-name="uni2199" unicode="&#x2199;" horiz-adv-x="734" 
d="M498 77l51 51q-78 11 -156 21.5t-156 21.5l192 182l192 182l-59 59q-90 -94 -181.5 -190.5t-182.5 -191.5q-11 77 -22 155t-21 155l-51 -51q3 -90 6 -188.5t6 -193.5q95 -3 191 -6t191 -6z" />
    <glyph glyph-name="minus" unicode="&#x2212;" horiz-adv-x="612" 
d="M74 325h464v50h-464v-50z" />
    <glyph glyph-name="approxequal" unicode="&#x2248;" horiz-adv-x="612" 
d="M427 352q25 0 57.5 12t53.5 34v52q-21 -22 -51.5 -35t-59.5 -13q-13 0 -26.5 2t-26.5 6t-26 8.5t-26.5 10t-26.5 11t-26.5 10t-27 8.5t-27.5 6t-28 2q-29 0 -59.5 -11.5t-52.5 -32.5v-52q22 22 52.5 34t59.5 12q13 0 26.5 -2t26.5 -6t26 -8.5t26.5 -10t26.5 -11t26.5 -10
t27 -8.5t27.5 -6t28 -2zM427 202q25 0 57.5 11.5t53.5 33.5v51q-21 -22 -51.5 -34t-59.5 -12q-13 0 -26.5 2t-26.5 6t-26 8.5t-26.5 10t-26.5 11t-26.5 10t-27 8.5t-27.5 6t-28 2q-29 0 -59.5 -12t-52.5 -34v-52q22 23 52.5 35.5t59.5 12.5q13 0 26.5 -2t26.5 -6t26 -8.5
t26.5 -10t26.5 -11t26.5 -10t27 -8.5t27.5 -6t28 -2z" />
    <glyph glyph-name="notequal" unicode="&#x2260;" horiz-adv-x="612" 
d="M94 89h50l115 160h279v47h-246l78 108h168v48h-134l114 159h-46l-115 -159h-283v-48h248l-78 -108h-170v-47h136z" />
    <glyph glyph-name="lessequal" unicode="&#x2264;" horiz-adv-x="612" 
d="M74 9h464v50h-464v-50zM516 147v55l-336 190l336 190v55l-428 -245z" />
    <glyph glyph-name="greaterequal" unicode="&#x2265;" horiz-adv-x="612" 
d="M74 9h464v50h-464v-50zM109 637v-55l336 -190l-336 -190v-55l428 245z" />
    <glyph glyph-name="uni25A0" unicode="&#x25a0;" horiz-adv-x="896" 
d="M798 700h-700v-700h700v700z" />
    <glyph glyph-name="uni25A1" unicode="&#x25a1;" horiz-adv-x="896" 
d="M798 700h-700v-700h700v700zM696 598v-496h-496v496h496z" />
    <glyph glyph-name="uni25AA" unicode="&#x25aa;" horiz-adv-x="720" 
d="M94 0h534v534h-534v-534z" />
    <glyph glyph-name="uni25AB" unicode="&#x25ab;" horiz-adv-x="720" 
d="M94 0h534v534h-534v-534zM178 450h366v-366h-366v366z" />
    <glyph glyph-name="triagup" unicode="&#x25b2;" horiz-adv-x="751" 
d="M724 0l-348 606l-350 -606h698z" />
    <glyph glyph-name="triagrt" unicode="&#x25ba;" horiz-adv-x="751" 
d="M90 0l604 350l-604 349v-699z" />
    <glyph glyph-name="triagdn" unicode="&#x25bc;" horiz-adv-x="751" 
d="M26 700l350 -606l348 606h-698z" />
    <glyph glyph-name="triaglf" unicode="&#x25c4;" horiz-adv-x="751" 
d="M662 699l-606 -349l606 -350v699z" />
    <glyph glyph-name="uni25CB" unicode="&#x25cb;" horiz-adv-x="840" 
d="M420 -9q30 0 58.5 4.5t55 13.5t51.5 22t47.5 29.5t42 36t36 42t29.5 47.5t22 51.5t13.5 55t4.5 58.5t-4.5 58t-13.5 55t-22 51.5t-29.5 47t-36 42t-42 36t-47.5 29.5t-51.5 22t-55 13.5t-58.5 4.5t-58.5 -4.5t-55 -13.5t-51.5 -22t-47.5 -29.5t-42 -36t-36 -42t-29.5 -47
t-22 -51.5t-13.5 -55t-4.5 -58t4.5 -58.5t13.5 -55t22 -51.5t29.5 -47.5t36 -42t42 -36t47.5 -29.5t51.5 -22t55 -13.5t58.5 -4.5zM420 87q-24 0 -47 4.5t-44.5 12.5t-41 19.5t-37 26t-32 32t-26 37t-19.5 41t-12.5 44.5t-4.5 47t4.5 47t12.5 44.5t19.5 41t26 36.5t32 31.5
t37 26t41 19.5t44.5 12.5t47 4.5t47 -4.5t44 -12.5t40.5 -19.5t37 -26t32 -32t26 -37.5t19.5 -41.5t12 -44.5t4 -47t-4 -47t-12 -44t-19.5 -40.5t-26 -37t-32 -32t-37 -26t-40.5 -19.5t-44 -12t-47 -4z" />
    <glyph glyph-name="uni25CF" unicode="&#x25cf;" horiz-adv-x="840" 
d="M420 -9q30 0 58.5 4.5t55 13.5t51.5 22t47.5 29.5t42 36t36 42t29.5 47.5t22 51.5t13.5 55t4.5 58.5t-4.5 58t-13.5 55t-22 51.5t-29.5 47t-36 42t-42 36t-47.5 29.5t-51.5 22t-55 13.5t-58.5 4.5t-58.5 -4.5t-55 -13.5t-51.5 -22t-47.5 -29.5t-42 -36t-36 -42t-29.5 -47
t-22 -51.5t-13.5 -55t-4.5 -58t4.5 -58.5t13.5 -55t22 -51.5t29.5 -47.5t36 -42t42 -36t47.5 -29.5t51.5 -22t55 -13.5t58.5 -4.5z" />
    <glyph glyph-name="uni25E2" unicode="&#x25e2;" horiz-adv-x="701" 
d="M12 181l676 -181l-180 676z" />
    <glyph glyph-name="uni25E3" unicode="&#x25e3;" horiz-adv-x="701" 
d="M194 676l-182 -676l676 181z" />
    <glyph glyph-name="uni25E4" unicode="&#x25e4;" horiz-adv-x="701" 
d="M688 520l-676 181l182 -676z" />
    <glyph glyph-name="uni25E5" unicode="&#x25e5;" horiz-adv-x="701" 
d="M508 25l180 676l-676 -181z" />
    <glyph glyph-name="caronSlovak" unicode="&#xe413;" 
d="M240 494h31l109 224h-126z" />
    <glyph glyph-name="uni00200326" unicode="&#xe414;" 
d="M200 -300q59 25 91 65t32 88q0 39 -22.5 62t-53.5 23q-29 0 -48.5 -18.5t-19.5 -44.5q0 -8 1.5 -15t4.5 -12.5t7 -10.5t8.5 -9t9.5 -7.5t9.5 -7t8.5 -7.5t7 -8t4.5 -9.5t1.5 -11.5q0 -16 -12 -35.5t-33 -37.5z" />
    <glyph glyph-name="fi" unicode="&#xfb01;" horiz-adv-x="633" 
d="M80 0h179q-12 28 -16.5 77.5t-4.5 92.5v277h112v56h-113q-1 24 -3 48.5t-2 48.5q0 33 15 52t45 19q16 0 34 -5.5t34 -15.5l-9 70q-17 9 -40.5 13.5t-44.5 4.5q-78 0 -122 -47t-44 -131v-57h-85l-13 -56h98v-277q0 -43 -4.5 -92.5t-15.5 -77.5zM499 567q34 0 57.5 23.5
t23.5 57.5q0 33 -23.5 56.5t-57.5 23.5q-36 0 -59 -23.5t-23 -56.5q0 -34 23 -57.5t59 -23.5zM411 0h178q-3 7 -5.5 16t-4.5 19.5t-3.5 22t-2.5 23.5t-2 24.5t-1.5 25t-0.5 24v22.5v331l-159 -24q3 -7 5.5 -16t5 -19t4 -21.5t2.5 -23l2 -23t1.5 -23.5t0.5 -22.5v-20.5v-138
v-22.5t-0.5 -24t-1.5 -25t-2 -24.5t-2.5 -23.5t-3.5 -22t-4.5 -19.5t-5.5 -16z" />
    <glyph glyph-name="fl" unicode="&#xfb02;" horiz-adv-x="633" 
d="M80 0h179q-12 28 -16.5 77.5t-4.5 92.5v277h112v56h-113q-1 24 -3 48.5t-2 48.5q0 33 15 52t45 19q16 0 34 -5.5t34 -15.5l-9 70q-17 9 -40.5 13.5t-44.5 4.5q-78 0 -122 -47t-44 -131v-57h-85l-13 -56h98v-277q0 -43 -4.5 -92.5t-15.5 -77.5zM411 0h178q-3 7 -5.5 16
t-4.5 19.5t-3.5 22t-2.5 23.5t-2 24.5t-1.5 25t-0.5 24v22.5v549l-159 -23q3 -7 5.5 -16t5 -19t4 -21t2.5 -23t2 -23.5t1.5 -23t0.5 -22.5v-21v-357v-22.5t-0.5 -24t-1.5 -25t-2 -24.5t-2.5 -23.5t-3.5 -22t-4.5 -19.5t-5.5 -16z" />
    <glyph glyph-name="A.flat" horiz-adv-x="670" 
d="M-4 0h123q-1 8 -1 18.5t1.5 22t3.5 23.5t5 25t7 26l8 26t8.5 25.5t8.5 23.5l3 8h268l3 -8q4 -11 8 -23t8.5 -25t8 -26t6.5 -26t5.5 -25.5t4 -24t2 -22t-0.5 -18.5h199q-4 8 -9 17.5t-10 21t-11 24t-11.5 26t-11.5 27.5l-12 28t-11.5 27.5t-10.5 26.5l-200 504h-102
l-201 -504q-5 -13 -10.5 -26.5t-11.5 -27.5l-12 -28t-12 -27.5t-12 -26.5t-11.5 -24t-10.5 -20.5t-9 -17.5zM187 261l113 293l108 -293h-221z" />
    <glyph glyph-name="J.alt" horiz-adv-x="477" 
d="M179 -10q100 0 162.5 51t62.5 139v312v22.5t0.5 24.5t1.5 26.5t2 26.5t2.5 26t3 25t3.5 22.5t4.5 19.5t5.5 15h-195q3 -7 5.5 -15.5t4.5 -19.5t4 -23t3.5 -24.5t2.5 -26t2 -26.5t1.5 -26t0.5 -24.5v-22.5v-332q0 -54 -28 -79t-74 -25q-34 0 -70.5 12t-67.5 31l7 -71
q33 -17 71.5 -27.5t84.5 -10.5z" />
    <glyph glyph-name="M.flat" horiz-adv-x="842" 
d="M55 0h123q-3 7 -5.5 15.5t-5 19.5t-4 23t-3 24.5t-3 26t-2 26.5l-1 26t-1 25t-0.5 22l-1 352l236 -448l233 449l-2 -353v-22t-0.5 -25t-1.5 -26.5t-2 -26.5l-2 -26t-2.5 -25t-3.5 -22.5t-4.5 -19t-5.5 -15.5h191q-3 7 -5.5 15.5t-4.5 19t-4 22.5t-3 25l-2 26t-2 26.5
t-1.5 26.5t-0.5 25v22v284q0 11 0.5 22.5t1 24t1 26t2 26.5t3 25.5t3.5 24.5t4.5 23t5.5 20t6 16h-172l-191 -373l-197 373h-182q4 -8 7.5 -19t6 -23.5t5 -26t4.5 -28t3 -29.5t2 -29t1.5 -27.5t0.5 -25.5v-284q0 -10 -0.5 -22t-1 -25l-1 -26t-2 -26.5t-3 -26t-3 -24.5
t-4 -23t-5 -19.5t-5.5 -15.5z" />
    <glyph glyph-name="N.flat" horiz-adv-x="731" 
d="M552 0h101v492q0 11 0.5 22.5t1 24.5l1 26t2 26.5t3 26t3 24.5t4 23t5 19.5t5.5 15.5h-122q3 -7 5.5 -15.5t4.5 -19.5t4 -23t3.5 -24.5t2.5 -26t2 -26.5t1.5 -26t1 -24.5t0.5 -22.5l3 -285l-351 493h-183q3 -7 6 -16t5.5 -20t5 -23t4.5 -25t3.5 -26.5t2.5 -27.5t1.5 -27
t1 -25t0.5 -23v-279q0 -10 -0.5 -22t-1 -25l-1 -26t-2 -26.5t-3 -26t-3 -24.5t-4 -23t-5 -19.5t-5.5 -15.5h122q-3 7 -5.5 15.5t-5 19.5t-4 23t-3 24.5t-3 26t-2 26.5l-1 26t-1 25t-0.5 22l-2 356z" />
    <glyph glyph-name="Q.alt" horiz-adv-x="784" 
d="M696 -192q22 0 48 3.5t50 9.5q-90 27 -159.5 75t-112.5 114q25 9 48.5 22t44 29t39 35.5t34 41.5t27.5 46t20 51t12.5 55.5t4.5 59.5q0 32 -4.5 62.5t-13.5 58t-22 53t-29 47.5t-35.5 41.5t-42 35t-47 28t-51 20.5t-55 12.5t-58.5 4.5t-58.5 -4.5t-55.5 -13t-51.5 -21
t-47 -28.5t-42.5 -35t-36.5 -41.5t-29.5 -47.5t-22 -52.5t-14 -57t-5 -61.5q0 -34 5.5 -66.5t15.5 -61.5t24.5 -55.5t32.5 -49.5t40 -42t46.5 -34.5t51.5 -26.5t56 -18t60 -9q54 -83 143.5 -131.5t188.5 -48.5zM190 350q0 36 4 68t12 60t18.5 51t24.5 41.5t30.5 33
t34.5 23.5t38.5 14t41.5 5q24 0 47 -6.5t43 -19t37 -31t30.5 -42.5t23.5 -54t15 -66t5 -77q0 -42 -5 -77.5t-15 -66t-24 -55t-31.5 -43t-38 -30.5t-43.5 -18.5t-48 -6.5q-21 0 -40.5 5t-38 14.5t-34 24t-29.5 33t-24.5 42t-18 51t-11.5 59.5t-4 68z" />
    <glyph glyph-name="R.alt" horiz-adv-x="646" 
d="M54 0h192q-3 7 -5.5 15.5t-4.5 19t-4 22.5t-3 25l-2 26t-2 26.5t-1.5 26.5t-0.5 25v22v101h77q54 -134 148.5 -215.5t219.5 -97.5v2q-20 19 -39.5 40.5t-37.5 44.5t-35 47t-32 49t-28.5 50.5t-25 50.5t-20.5 50q60 23 97 69t37 109q0 87 -70.5 139.5t-195.5 52.5h-266
q3 -7 6 -16t5 -20t4 -23t3.5 -25t2.5 -26.5l2 -27t1.5 -27t0.5 -26v-23.5v-278v-22t-0.5 -25t-1.5 -26.5t-2 -26.5l-2 -26t-3 -25t-4 -22.5t-4.5 -19t-5.5 -15.5zM306 635q61 0 97 -34t36 -96t-37 -97.5t-98 -35.5h-81v263h83z" />
    <glyph glyph-name="V.flat" horiz-adv-x="669" 
d="M674 700h-123q1 -8 1 -18.5t-1 -22t-3.5 -23.5t-5.5 -25t-6.5 -26t-7.5 -26t-8.5 -25.5t-8.5 -23.5l-141 -363l-136 363q-4 11 -8.5 23t-8.5 25t-7.5 26l-7 26t-5.5 25.5t-3.5 24t-2 22t0.5 18.5h-197q4 -7 9 -17t10 -21.5t11 -24t11.5 -26t11.5 -27.5l12 -28t11.5 -27.5
t10.5 -26.5l200 -504h102l201 504q5 13 10.5 26.5t11.5 27.5l12 28t12 27.5t12 26.5t11.5 24l10.5 21t9 17z" />
    <glyph glyph-name="W.flat" horiz-adv-x="929" 
d="M210 -2h100l146 488l7 24l7 -24l150 -488h98l133 496q15 56 32.5 114.5t31.5 91.5h-109q7 -30 -0.5 -82t-19.5 -98l-82 -320l-4 -16l-4 16l-151 501h-89l-150 -503l-5 -17l-4 17l-80 322q-3 12 -5.5 24.5t-5.5 25t-5.5 25.5t-4.5 25t-3 24t-1.5 22t0 18.5t1.5 15.5h-179
q13 -33 30 -91.5t33 -114.5z" />
    <glyph glyph-name="Agrave.flat" horiz-adv-x="670" 
d="M-4 0h123q-1 8 -1 18.5t1.5 22t3.5 23.5t5 25t7 26l8 26t8.5 25.5t8.5 23.5l3 8h268l3 -8q4 -11 8 -23t8.5 -25t8 -26t6.5 -26t5.5 -25.5t4 -24t2 -22t-0.5 -18.5h199q-4 8 -9 17.5t-10 21t-11 24t-11.5 26t-11.5 27.5l-12 28t-11.5 27.5t-10.5 26.5l-200 504h-102
l-201 -504q-5 -13 -10.5 -26.5t-11.5 -27.5l-12 -28t-12 -27.5t-12 -26.5t-11.5 -24t-10.5 -20.5t-9 -17.5zM187 261l113 293l108 -293h-221zM338 752h37l-69 158h-151z" />
    <glyph glyph-name="Aacute.flat" horiz-adv-x="670" 
d="M-4 0h123q-1 8 -1 18.5t1.5 22t3.5 23.5t5 25t7 26l8 26t8.5 25.5t8.5 23.5l3 8h268l3 -8q4 -11 8 -23t8.5 -25t8 -26t6.5 -26t5.5 -25.5t4 -24t2 -22t-0.5 -18.5h199q-4 8 -9 17.5t-10 21t-11 24t-11.5 26t-11.5 27.5l-12 28t-11.5 27.5t-10.5 26.5l-200 504h-102
l-201 -504q-5 -13 -10.5 -26.5t-11.5 -27.5l-12 -28t-12 -27.5t-12 -26.5t-11.5 -24t-10.5 -20.5t-9 -17.5zM187 261l113 293l108 -293h-221zM277 752h37l183 158h-151z" />
    <glyph glyph-name="Acircumflex.flat" horiz-adv-x="670" 
d="M-4 0h123q-1 8 -1 18.5t1.5 22t3.5 23.5t5 25t7 26l8 26t8.5 25.5t8.5 23.5l3 8h268l3 -8q4 -11 8 -23t8.5 -25t8 -26t6.5 -26t5.5 -25.5t4 -24t2 -22t-0.5 -18.5h199q-4 8 -9 17.5t-10 21t-11 24t-11.5 26t-11.5 27.5l-12 28t-11.5 27.5t-10.5 26.5l-200 504h-102
l-201 -504q-5 -13 -10.5 -26.5t-11.5 -27.5l-12 -28t-12 -27.5t-12 -26.5t-11.5 -24t-10.5 -20.5t-9 -17.5zM187 261l113 293l108 -293h-221zM157 752h33l135 93l137 -93h33l-111 158h-116z" />
    <glyph glyph-name="Atilde.flat" horiz-adv-x="670" 
d="M-4 0h123q-1 8 -1 18.5t1.5 22t3.5 23.5t5 25t7 26l8 26t8.5 25.5t8.5 23.5l3 8h268l3 -8q4 -11 8 -23t8.5 -25t8 -26t6.5 -26t5.5 -25.5t4 -24t2 -22t-0.5 -18.5h199q-4 8 -9 17.5t-10 21t-11 24t-11.5 26t-11.5 27.5l-12 28t-11.5 27.5t-10.5 26.5l-200 504h-102
l-201 -504q-5 -13 -10.5 -26.5t-11.5 -27.5l-12 -28t-12 -27.5t-12 -26.5t-11.5 -24t-10.5 -20.5t-9 -17.5zM187 261l113 293l108 -293h-221zM158 767h16q12 29 30.5 42t37.5 13q7 0 14 -2t15 -5t16 -7.5t17 -9t17.5 -9t18 -9t19 -7.5t18.5 -5t19 -2q38 0 66.5 32.5
t44.5 105.5h-17q-13 -28 -31 -41t-37 -13q-7 0 -14 2t-15 5t-16 7t-16.5 9t-17.5 9.5t-18 8.5t-18.5 7t-19 5t-19.5 2q-37 0 -66 -32.5t-44 -105.5z" />
    <glyph glyph-name="Adieresis.flat" horiz-adv-x="670" 
d="M-4 0h123q-1 8 -1 18.5t1.5 22t3.5 23.5t5 25t7 26l8 26t8.5 25.5t8.5 23.5l3 8h268l3 -8q4 -11 8 -23t8.5 -25t8 -26t6.5 -26t5.5 -25.5t4 -24t2 -22t-0.5 -18.5h199q-4 8 -9 17.5t-10 21t-11 24t-11.5 26t-11.5 27.5l-12 28t-11.5 27.5t-10.5 26.5l-200 504h-102
l-201 -504q-5 -13 -10.5 -26.5t-11.5 -27.5l-12 -28t-12 -27.5t-12 -26.5t-11.5 -24t-10.5 -20.5t-9 -17.5zM187 261l113 293l108 -293h-221zM227 764q34 0 54.5 22t20.5 52t-20.5 51.5t-54.5 21.5q-33 0 -54 -21.5t-21 -51.5t21 -52t54 -22zM425 764q33 0 54 22t21 52
t-21 51.5t-54 21.5q-34 0 -54.5 -21.5t-20.5 -51.5t20.5 -52t54.5 -22z" />
    <glyph glyph-name="Amacron.flat" horiz-adv-x="670" 
d="M-4 0h123q-1 8 -1 18.5t1.5 22t3.5 23.5t5 25t7 26l8 26t8.5 25.5t8.5 23.5l3 8h268l3 -8q4 -11 8 -23t8.5 -25t8 -26t6.5 -26t5.5 -25.5t4 -24t2 -22t-0.5 -18.5h199q-4 8 -9 17.5t-10 21t-11 24t-11.5 26t-11.5 27.5l-12 28t-11.5 27.5t-10.5 26.5l-200 504h-102
l-201 -504q-5 -13 -10.5 -26.5t-11.5 -27.5l-12 -28t-12 -27.5t-12 -26.5t-11.5 -24t-10.5 -20.5t-9 -17.5zM187 261l113 293l108 -293h-221zM178 791h296v76h-296v-76z" />
    <glyph glyph-name="Aogonek.flat" horiz-adv-x="670" 
d="M-4 0h123q-1 8 -1 18.5t1.5 22t3.5 23.5t5 25t7 26l8 26t8.5 25.5t8.5 23.5l3 8h268l3 -8q4 -11 8 -23t8.5 -25t8 -26t6.5 -26t5.5 -25.5t4 -24t2 -22t-0.5 -18.5h159q-75 -32 -110 -62.5t-35 -67.5q0 -34 29.5 -56.5t75.5 -22.5q17 0 37 3.5t34 8.5l11 49
q-10 -4 -22 -6.5t-22 -2.5q-20 0 -34 12t-14 33q0 26 22.5 54t65.5 58h2q-4 8 -9 17.5t-10 21t-11 24t-11.5 26t-11.5 27.5l-12 28t-11.5 27.5t-10.5 26.5l-200 504h-102l-201 -504q-5 -13 -10.5 -26.5t-11.5 -27.5l-12 -28t-12 -27.5t-12 -26.5t-11.5 -24t-10.5 -20.5
t-9 -17.5zM187 261l113 293l108 -293h-221z" />
    <glyph glyph-name="Abreve.flat" horiz-adv-x="670" 
d="M-4 0h123q-1 8 -1 18.5t1.5 22t3.5 23.5t5 25t7 26l8 26t8.5 25.5t8.5 23.5l3 8h268l3 -8q4 -11 8 -23t8.5 -25t8 -26t6.5 -26t5.5 -25.5t4 -24t2 -22t-0.5 -18.5h199q-4 8 -9 17.5t-10 21t-11 24t-11.5 26t-11.5 27.5l-12 28t-11.5 27.5t-10.5 26.5l-200 504h-102
l-201 -504q-5 -13 -10.5 -26.5t-11.5 -27.5l-12 -28t-12 -27.5t-12 -26.5t-11.5 -24t-10.5 -20.5t-9 -17.5zM187 261l113 293l108 -293h-221zM326 755q68 0 112 38.5t50 110.5h-11q-16 -32 -56.5 -49t-94.5 -17t-94.5 17t-56.5 49h-11q6 -72 50 -110.5t112 -38.5z" />
    <glyph glyph-name="Aring.flat" horiz-adv-x="670" 
d="M-4 0h123q-1 8 -1 18.5t1.5 22t3.5 23.5t5 25t7 26l8 26t8.5 25.5t8.5 23.5l3 8h268l3 -8q4 -11 8 -23t8.5 -25t8 -26t6.5 -26t5.5 -25.5t4 -24t2 -22t-0.5 -18.5h199q-4 8 -9 17.5t-10 21t-11 24t-11.5 26t-11.5 27.5l-12 28t-11.5 27.5t-10.5 26.5l-200 504h-102
l-201 -504q-5 -13 -10.5 -26.5t-11.5 -27.5l-12 -28t-12 -27.5t-12 -26.5t-11.5 -24t-10.5 -20.5t-9 -17.5zM187 261l113 293l108 -293h-221zM326 756q51 0 84 31t33 77q0 45 -33 76.5t-84 31.5t-84 -31.5t-33 -76.5q0 -46 33 -77t84 -31zM326 798q-29 0 -48.5 19t-19.5 47
t19.5 47t48.5 19t48.5 -19t19.5 -47t-19.5 -47t-48.5 -19z" />
    <glyph glyph-name="Eng.flat" horiz-adv-x="731" 
d="M517 -208q65 0 100.5 34t35.5 98v576q0 12 0.5 25t1 27t1.5 28.5t2.5 28.5t3.5 27t4.5 25t5.5 22t6 17h-123q3 -7 6 -17t5.5 -22t4.5 -25t3.5 -27t2.5 -28.5t1.5 -28.5t1 -27t0.5 -25l1 -278l-348 478h-183q3 -7 6 -16t5.5 -20t5 -23t4.5 -25t3.5 -26.5t2.5 -27.5
t1.5 -27t1 -25t0.5 -23v-279q0 -10 -0.5 -22t-1 -25l-1 -26t-2 -26.5t-3 -26t-3 -24.5t-4 -23t-5 -19.5t-5.5 -15.5h122q-3 7 -5.5 15.5t-5 19.5t-4 23t-3 24.5t-3 26t-2 26.5l-1 26t-1 25t-0.5 22l-2 357l426 -585v-52q0 -37 -18.5 -56t-52.5 -19q-17 0 -35 3.5t-34 8.5
v-59q16 -6 37.5 -10t43.5 -4z" />
    <glyph glyph-name="IJ.alt" horiz-adv-x="782" 
d="M54 0h194q-3 7 -5.5 15.5t-4.5 19t-3.5 22.5t-3 25t-2.5 26t-1.5 26.5t-1 26.5t-0.5 25v22v284v22.5t0.5 24.5t1 26.5t1.5 26.5t2.5 26t3 25t3.5 22.5t4.5 19.5t5.5 15h-194q3 -6 5.5 -15t4.5 -19.5t4 -22.5t3 -25l2 -26t2 -26.5t1.5 -26.5t0.5 -25v-22v-284v-22
t-0.5 -25t-1.5 -26.5t-2 -26.5l-2 -26t-3 -25t-4 -22.5t-4.5 -19t-5.5 -15.5zM481 -10q100 0 162.5 51t62.5 139v312v22.5t0.5 24.5t1.5 26.5t2 26.5t2.5 26t3 25t3.5 22.5t4.5 19.5t5.5 15h-195q3 -7 5.5 -15.5t4.5 -19.5t4 -23t3.5 -24.5t2.5 -26t2 -26.5t1.5 -26
t0.5 -24.5v-22.5v-332q0 -54 -28 -79t-74 -25q-34 0 -70.5 12t-67.5 31l7 -71q33 -17 71.5 -27.5t84.5 -10.5z" />
    <glyph glyph-name="Jcircumflex.alt" horiz-adv-x="480" 
d="M179 -10q100 0 162.5 51t62.5 139v312v22.5t0.5 24.5t1.5 26.5t2 26.5t2.5 26t3 25t3.5 22.5t4.5 19.5t5.5 15h-195q3 -7 5.5 -15.5t4.5 -19.5t4 -23t3.5 -24.5t2.5 -26t2 -26.5t1.5 -26t0.5 -24.5v-22.5v-332q0 -54 -28 -79t-74 -25q-34 0 -70.5 12t-67.5 31l7 -71
q33 -17 71.5 -27.5t84.5 -10.5zM163 752h33l135 93l137 -93h33l-111 158h-116z" />
    <glyph glyph-name="Nacute.flat" horiz-adv-x="731" 
d="M552 0h101v492q0 11 0.5 22.5t1 24.5l1 26t2 26.5t3 26t3 24.5t4 23t5 19.5t5.5 15.5h-122q3 -7 5.5 -15.5t4.5 -19.5t4 -23t3.5 -24.5t2.5 -26t2 -26.5t1.5 -26t1 -24.5t0.5 -22.5l3 -285l-351 493h-183q3 -7 6 -16t5.5 -20t5 -23t4.5 -25t3.5 -26.5t2.5 -27.5t1.5 -27
t1 -25t0.5 -23v-279q0 -10 -0.5 -22t-1 -25l-1 -26t-2 -26.5t-3 -26t-3 -24.5t-4 -23t-5 -19.5t-5.5 -15.5h122q-3 7 -5.5 15.5t-5 19.5t-4 23t-3 24.5t-3 26t-2 26.5l-1 26t-1 25t-0.5 22l-2 356zM333 752h37l183 158h-151z" />
    </font>
</defs>
</svg>
