<?xml version="1.0" encoding="utf-8"?>
<!-- Generator: Adobe Illustrator 15.1.0, SVG Export Plug-In . SVG Version: 6.00 Build 0)  -->
<!DOCTYPE svg PUBLIC "-//W3C//DTD SVG 1.1//EN" "http://www.w3.org/Graphics/SVG/1.1/DTD/svg11.dtd">
<svg version="1.1" id="Layer_1" xmlns="http://www.w3.org/2000/svg" xmlns:xlink="http://www.w3.org/1999/xlink" x="0px" y="0px"
	 width="800px" height="600px" viewBox="0 0 800 600" enable-background="new 0 0 800 600" xml:space="preserve">
<g>
	<path fill="#AAAAAA" d="M192.22,92.22C134.74,149.7,106,219.18,106,299.4c0,81.42,28.74,150.9,86.22,208.38l0,0
		C249.7,565.26,317.98,594,399.4,594c81.42,0,150.9-28.74,208.38-86.222C665.26,450.3,694,380.82,694,299.4
		S665.26,149.7,607.78,92.22l0,0C550.3,34.74,480.82,6,399.4,6C319.18,6,249.7,34.74,192.22,92.22z M225.76,126.96l1.2-1.2
		c46.68-47.94,105.36-71.88,172.44-71.88c68.28,0,125.76,23.938,174.84,73.08c47.88,46.68,71.88,105.358,71.88,172.438
		c0,68.28-23.94,125.76-71.88,174.84c-49.08,47.94-106.562,71.88-174.84,71.88c-67.08,0-125.76-23.938-172.44-71.88
		c-49.08-49.08-73.08-106.56-73.08-174.84C153.88,232.32,177.88,173.64,225.76,126.96z"/>
	<path fill="#AAAAAA" d="M276.04,198.78c0,7.2,2.4,13.2,7.2,17.94l82.62,81.479l-82.62,81.42c-4.8,4.802-7.2,10.802-7.2,17.94
		c0,6,2.4,10.8,7.2,15.6c4.8,4.802,10.8,7.2,16.8,7.2c7.2,0,12-2.398,16.74-6l82.62-82.62l81.42,82.62c4.8,3.602,9.6,6,16.8,6
		s13.14-2.398,16.74-6c4.8-4.8,7.198-10.8,7.198-16.8c0-7.2-2.398-13.14-7.198-17.94l-81.42-81.42l81.42-81.42
		c4.8-4.8,7.198-10.8,7.198-16.738c0-7.2-2.398-13.2-7.198-17.94c-3.602-4.8-9.602-7.2-15.54-7.2c-7.2,0-13.142,2.4-17.94,7.2
		L399.4,264.66l-81.42-82.62c-4.8-4.802-10.8-7.2-17.94-7.2c-6,0-12,2.398-16.8,7.2C278.44,186.84,276.04,192.84,276.04,198.78z"/>
</g>
</svg>
