<?xml version="1.0" encoding="utf-8"?>
<!-- Generator: Adobe Illustrator 28.2.0, SVG Export Plug-In . SVG Version: 6.00 Build 0)  -->
<svg version="1.1" id="Layer_1" xmlns="http://www.w3.org/2000/svg" xmlns:xlink="http://www.w3.org/1999/xlink" x="0px" y="0px"
	 viewBox="0 0 432 252" style="enable-background:new 0 0 432 252;" xml:space="preserve"><metadata><c2pa:manifest xmlns:c2pa="http://c2pa.org/manifest">AAAsdWp1bWIAAAAeanVtZGMycGEAEQAQgAAAqgA4m3EDYzJwYQAAACxPanVtYgAAAEdqdW1kYzJtYQARABCAAACqADibcQN1cm46dXVpZDoxMThlNDZhYi1kOGI0LTRkYTYtYjBmNS0wMzM3N2U4NzgwOWUAAAABtWp1bWIAAAApanVtZGMyYXMAEQAQgAAAqgA4m3EDYzJwYS5hc3NlcnRpb25zAAAAANdqdW1iAAAAJmp1bWRjYm9yABEAEIAAAKoAOJtxA2MycGEuYWN0aW9ucwAAAACpY2JvcqFnYWN0aW9uc4GjZmFjdGlvbmtjMnBhLmVkaXRlZG1zb2Z0d2FyZUFnZW50bUFkb2JlIEZpcmVmbHlxZGlnaXRhbFNvdXJjZVR5cGV4U2h0dHA6Ly9jdi5pcHRjLm9yZy9uZXdzY29kZXMvZGlnaXRhbHNvdXJjZXR5cGUvY29tcG9zaXRlV2l0aFRyYWluZWRBbGdvcml0aG1pY01lZGlhAAAArWp1bWIAAAAoanVtZGNib3IAEQAQgAAAqgA4m3EDYzJwYS5oYXNoLmRhdGEAAAAAfWNib3KlamV4Y2x1c2lvbnOBomVzdGFydBkBnmZsZW5ndGgZO0hkbmFtZW5qdW1iZiBtYW5pZmVzdGNhbGdmc2hhMjU2ZGhhc2hYIG1Bc/2q+0eVhuN2TOr3RX5bsQIOgmwaDM7nf24t7UXUY3BhZEkAAAAAAAAAAAAAAAILanVtYgAAACRqdW1kYzJjbAARABCAAACqADibcQNjMnBhLmNsYWltAAAAAd9jYm9yqGhkYzp0aXRsZW9HZW5lcmF0ZWQgSW1hZ2VpZGM6Zm9ybWF0bWltYWdlL3N2Zyt4bWxqaW5zdGFuY2VJRHgseG1wOmlpZDo5ODQ0YjI2My0zMTA1LTQ4ZTYtODcyZC02MzIwZDcyOGEzM2FvY2xhaW1fZ2VuZXJhdG9yeDZBZG9iZV9JbGx1c3RyYXRvci8yOC4yIGFkb2JlX2MycGEvMC43LjYgYzJwYS1ycy8wLjI1LjJ0Y2xhaW1fZ2VuZXJhdG9yX2luZm+Bv2RuYW1lcUFkb2JlIElsbHVzdHJhdG9yZ3ZlcnNpb25kMjguMv9pc2lnbmF0dXJleBlzZWxmI2p1bWJmPWMycGEuc2lnbmF0dXJlamFzc2VydGlvbnOComN1cmx4J3NlbGYjanVtYmY9YzJwYS5hc3NlcnRpb25zL2MycGEuYWN0aW9uc2RoYXNoWCBKacG9/6jeQTB4viTtzPgxOsHRZJU0VnGgDWsGszfUr6JjdXJseClzZWxmI2p1bWJmPWMycGEuYXNzZXJ0aW9ucy9jMnBhLmhhc2guZGF0YWRoYXNoWCDQ4K9WQZIDu7EWIjNhJ7h8SEgjwDrqZzj5s5214B00hmNhbGdmc2hhMjU2AAAoQGp1bWIAAAAoanVtZGMyY3MAEQAQgAAAqgA4m3EDYzJwYS5zaWduYXR1cmUAAAAoEGNib3LShFkMwqIBOCQYIYJZBhAwggYMMIID9KADAgECAhB/8nQf0cbeQ7WUeo5lcJ6eMA0GCSqGSIb3DQEBCwUAMHUxCzAJBgNVBAYTAlVTMSMwIQYDVQQKExpBZG9iZSBTeXN0ZW1zIEluY29ycG9yYXRlZDEdMBsGA1UECxMUQWRvYmUgVHJ1c3QgU2VydmljZXMxIjAgBgNVBAMTGUFkb2JlIFByb2R1Y3QgU2VydmljZXMgRzMwHhcNMjQwMTExMDAwMDAwWhcNMjUwMTEwMjM1OTU5WjB/MREwDwYDVQQDDAhjYWktcHJvZDETMBEGA1UECgwKQWRvYmUgSW5jLjERMA8GA1UEBwwIU2FuIEpvc2UxEzARBgNVBAgMCkNhbGlmb3JuaWExCzAJBgNVBAYTAlVTMSAwHgYJKoZIhvcNAQkBFhFjYWktb3BzQGFkb2JlLmNvbTCCASIwDQYJKoZIhvcNAQEBBQADggEPADCCAQoCggEBAO/TAKd9hj2WQcOzKStMbsViWdgcFzK5qW4Pm71QuPO/4WxNY4uDw2GvP1FPEj0R4Fu7dabt/i+o+xBh/GQSnTAhroNWYQ5mFsB5F9uHJtZD8Pha+9yTiYRlH5BmZOkifsdfrWBu0wUeUlTGRgFy0igC31MEAVvP13kiDZYbRuwff1vr/xRJecgiTgUHp20FFPXF4TBIO3A53VgGldc0EmZFYdc0llnzmh/a0FN6yD+Qy9Os4knFgNn3tTjXrBy9tWiaV56z41dRjf9kHjEf42xmKWzubVsva/aFKceIuipl5QqSVsdSZPhmmOtkJ224ixabmPY89cqvscpS4JtlJcECAwEABaOCAYwwggGIMAwGA1UdEwEB/wQCMAAwDgYDVR0PAQH/BAQDAgeAMB4GA1UdJQQXMBUGCSqGSIb3LwEBDAYIKwYBBQUHAwQwgY4GA1UdIASBhjCBgzCBgAYJKoZIhvcvAQIDMHMwcQYIKwYBBQUHAgIwZQxjWW91IGFyZSBub3QgcGVybWl0dGVkIHRvIHVzZSB0aGlzIExpY2Vuc2UgQ2VydGlmaWNhdGUgZXhjZXB0IGFzIHBlcm1pdHRlZCBieSB0aGUgbGljZW5zZSBhZ3JlZW1lbnQuMF0GA1UdHwRWMFQwUqBQoE6GTGh0dHA6Ly9wa2ktY3JsLnN5bWF1dGguY29tL2NhXzdhNWMzYTBjNzMxMTc0MDZhZGQxOTMxMmJjMWJjMjNmL0xhdGVzdENSTC5jcmwwNwYIKwYBBQUHAQEEKzApMCcGCCsGAQUFBzABhhtodHRwOi8vcGtpLW9jc3Auc3ltYXV0aC5jb20wHwYDVR0jBBgwFoAUVyl6Mk3M/uQ1TsAfJHPOc1Or32owDQYJKoZIhvcNAQELBQADggIBACFj1fzbYu+jD34qVJ2QAj/3laxL+fVjmx7lgmR49QcvGxpuVJo04D0GJV8k4/FxP4mNu6YYKx4NKYg7Fg87ubPAekypGjJlL4LZPlILpMm233bQQuir7RoMuNHDuA5BFKDw4rQ8U9YoG0KnSqIAKFSqgxFapxfghUEM7WxnGYRSPVyk7AkMH/YcOy4SQqOowDQSAATckLUsFiKT3khCYT1YFi8inqYEMSTKi+rIGGcRqvaQkkJ9oEvKWn8kBSwcmcBAQ/w8crUWWS+m92V6hfn2WbBPX7AcaXFhYr/KRb4AUDrQs5Um3xvKO24ATyV5u5gAPI97d4QxHhMdBsfAf/WvPac03m1law90hHtLmZfRG1QvvheBKLESRXWMM7j9YiTtXeSN1cRmvRa1avxWARjkb7w2k8Gp3YswsGnuN6MwiPe0DxFLUvoyc7c9ZGqR3AbCwIey8ZxPNq5ZqtaOL33RbEFM+xxKTpDxZMiqIcj059RSKuJZCSl94wQOjWv7MclGaPbr7OAgPtAHjXE15XcroEVBfprKXWzC4iHbooHQy7viyd1HMb7y0xN9++MGg71A9b8611bJiawsZPQpyP0RpoiDUmaA21EHCj1/z15glJjB6dD4Z12mp2cEiOTrdD4reAJ2WlOz760kJnsNf3Kd2ZiXH3geBRkU9w2Ka6fpWQalMIIGoTCCBImgAwIBAgIQDKi2VHuJ5tIGiXXNi5uJ4jANBgkqhkiG9w0BAQsFADBsMQswCQYDVQQGEwJVUzEjMCEGA1UEChMaQWRvYmUgU3lzdGVtcyBJbmNvcnBvcmF0ZWQxHTAbBgNVBAsTFEFkb2JlIFRydXN0IFNlcnZpY2VzMRkwFwYDVQQDExBBZG9iZSBSb290IENBIEcyMB4XDTE2MTEyOTAwMDAwMFoXDTQxMTEyODIzNTk1OVowdTELMAkGA1UEBhMCVVMxIzAhBgNVBAoTGkFkb2JlIFN5c3RlbXMgSW5jb3Jwb3JhdGVkMR0wGwYDVQQLExRBZG9iZSBUcnVzdCBTZXJ2aWNlczEiMCAGA1UEAxMZQWRvYmUgUHJvZHVjdCBTZXJ2aWNlcyBHMzCCAiIwDQYJKoZIhvcNAQEBBQADggIPADCCAgoCggIBALcfLr29CbNcSGz+DIOubAHqUXglpIA+iaexsohk2vaJdoH5+R3zlfx4mI2Yjs/k7hxVPg1zWnfOsRKoFXhlTJbyBxnvxB3CgcbxA13ZU1wecyBJH5dP0hp+yer01/DDcm30oveXkA1DmfX4wmqvjwRY0uWX3jZs4v8kfjLANIyiqFmq0kQhRRQaVBUFnwIC8lzssTp10DkLnY8TY+lrtF9CAdd/iB9dVnCnFhFlzOI+I4eoS8tvQndxKFRt6MXFXpzBfxDIA9rV48eDVG0zQdf4PfjEejcOTIaeZP4N2rTRMQMYbboAvk90g0oUhCX7NqrookVB7V90YTnCtbNTiYE+bNrPcRsuf7sVaXACGitiogyV1t8cTfJ1z5pNTUlbv5sbX2qa+E70iW4a1O1AN6oUGPZ+Dp9rGx9V9U8Puy03pPCggOWQ4IThET4iKfybfPd6qL9WxOayZGoHFYNFqo4fPTYQmgQPFckbd6L5RsginTVdlC925+b3RbE5O6qpqfZmpM9f0rlV2MSH+i+vvEVzmrV1mj5JrnLixNUzznj+0tTeSU6BQrPNJdg9hLcaEFxgkePCv3E1Eec1f30PoXSDs6KNJxZ++2PGHXdpO/8fQRO/KZqHjJ8OlV2H1wrlhII+qe46Wy6MUDKFjAlc5YO9llTYSRZUsOGg/H3Ons3hAgMBAAGjggE0MIIBMDASBgNVHRMBAf8ECDAGAQH/AgEAMDUGA1UdHwQuMCwwKqAooCaGJGh0dHA6Ly9jcmwuYWRvYmUuY29tL2Fkb2Jlcm9vdGcyLmNybDAOBgNVHQ8BAf8EBAMCAQYwFAYDVR0lBA0wCwYJKoZIhvcvAQEHMFcGA1UdIARQME4wTAYJKoZIhvcvAQIDMD8wPQYIKwYBBQUHAgEWMWh0dHBzOi8vd3d3LmFkb2JlLmNvbS9taXNjL3BraS9wcm9kX3N2Y2VfY3BzLmh0bWwwJAYDVR0RBB0wG6QZMBcxFTATBgNVBAMTDFNZTUMtNDA5Ni0zMzAdBgNVHQ4EFgQUVyl6Mk3M/uQ1TsAfJHPOc1Or32owHwYDVR0jBBgwFoAUphzhbVQkTKiPSHK/bqmM1eTsMdQwDQYJKoZIhvcNAQELBQADggIBAHHO5QeMptwt3MjgO2VeAJKBleuVICSvn2k4Xcl88bjapU0AZTslwRhcnr5Zt9wbBjtZgyX6M7si8k9vuyFcVhb1ucmDFfuUtTXgoTFyGZws1jV57oiEEnZjw/NkxFQpJ3kKRRE+DQ8EsaPP8pH8Oh8fH4bis9MI4Y5FjF5it3TWVyLmFXG8pxy8iTswPr1lN7B9k9Iz7RaexTd/RmZ3uGBtGlTJZx4bR4cWl1Qor9kVaEeMNULbyh0Kc3zzm0edwpe+Ii0rRlRSj8Ai2EUqWEReyer1Uv18VuC87zdm+lRCjnLyZjdy4acRUZd2GM1vncJ8LW7h1uliZZo332y5tTMSxRpRveWgs99V/MM6mDbL2/fuQF3L/C5evbS15jtTrbGP98CCzVBKeFS2UxN8Kpt5/ITJwpWYoismQkuy+BNJgpW8fgUUjB93laOo4L3uNf3ytxUDOEAjSJKRrOxY4y8vqbQvicslqnH7zkaxVfxjoAeYQ/huYISXCKXooA/5R7AkWLDmubBXakRIcCFi5klrTcHy2XSd3ZAnO8kaZt4GpeqkX05GKcUzccSsrym5GiQ6MUfb7Vqwt4ja0HfVb8Qt017bs6B26rpnqoHAKnn1hfburJ0OEPRZF83riQKzbkrzyIYAY1bYIB9MNL5v5ZgkGIgv2NdhngsX4GJS9927omZzaWdUc3ShaXRzdFRva2Vuc4GhY3ZhbFkOODCCDjQwAwIBADCCDisGCSqGSIb3DQEHAqCCDhwwgg4YAgEDMQ8wDQYJYIZIAWUDBAIBBQAwgYMGCyqGSIb3DQEJEAEEoHQEcjBwAgEBBglghkgBhv1sBwEwMTANBglghkgBZQMEAgEFAAQg7zIOGFV1Y58X5WJsP3XPGvVGmfDkn0qgIYncLaGZ35UCEQCInVqEQUqrM9AkqxgkATEaGA8yMDI0MDMwODIxMDIxNFoCCQCxW8c6jNcWWqCCC70wggUHMIIC76ADAgECAhAFHp6R1x6RCrvkPVzt0N3ZMA0GCSqGSIb3DQEBCwUAMGMxCzAJBgNVBAYTAlVTMRcwFQYDVQQKEw5EaWdpQ2VydCwgSW5jLjE7MDkGA1UEAxMyRGlnaUNlcnQgVHJ1c3RlZCBHNCBSU0E0MDk2IFNIQTI1NiBUaW1lU3RhbXBpbmcgQ0EwHhcNMjMwOTA4MDAwMDAwWhcNMzQxMjA3MjM1OTU5WjBYMQswCQYDVQQGEwJVUzEXMBUGA1UEChMORGlnaUNlcnQsIEluYy4xMDAuBgNVBAMTJ0RpZ2lDZXJ0IEFkb2JlIEFBVEwgVGltZXN0YW1wIFJlc3BvbmRlcjBZMBMGByqGSM49AgEGCCqGSM49AwEHA0IABE0srlH5A/+15/MFl1asNh8Q8TubOsEVfu0qlJrF0smjtwL1IeHZ/AB7J59u1Trpho1BDN85lfTY30rNBsfT+myjggGLMIIBhzAOBgNVHQ8BAf8EBAMCB4AwDAYDVR0TAQH/BAIwADAWBgNVHSUBAf8EDDAKBggrBgEFBQcDCDAgBgNVHSAEGTAXMAgGBmeBDAEEAjALBglghkgBhv1sBwEwHwYDVR0jBBgwFoAUuhbZbU2FL3MpdpovdYxqII+eyG8wHQYDVR0OBBYEFLA1qlbDIamLztO4vIsWJVed7zThMFoGA1UdHwRTMFEwT6BNoEuGSWh0dHA6Ly9jcmwzLmRpZ2ljZXJ0LmNvbS9EaWdpQ2VydFRydXN0ZWRHNFJTQTQwOTZTSEEyNTZUaW1lU3RhbXBpbmdDQS5jcmwwgZAGCCsGAQUFBwEBBIGDMIGAMCQGCCsGAQUFBzABhhhodHRwOi8vb2NzcC5kaWdpY2VydC5jb20wWAYIKwYBBQUHMAKGTGh0dHA6Ly9jYWNlcnRzLmRpZ2ljZXJ0LmNvbS9EaWdpQ2VydFRydXN0ZWRHNFJTQTQwOTZTSEEyNTZUaW1lU3RhbXBpbmdDQS5jcnQwDQYJKoZIhvcNAQELBQADggIBAHgrjELHhBCEWJSCyRX7lsL0C9LJgbX1ryVYySNRxHkMR2LqC7PQZRJgDNR+kJop8P5v2Bzp/jMrzw4U4pY6rYv3I8HpFlJa4uBwUTIUgHWpi8Xxd1JEEX94POODi7HySekX60A055BozFb7GGVaxb0LreQTRXnkr6ggPNUPX9Gh+2ScOxlTdQQLgZbkdYvxo3Ap6cy9riZijRxOZqiOyWSxMUhgKxeKzwrFW6Xbe0awNhOUXZzIxc4ixpKzWSItpPJ30ZiBQn49U3ADYTnshbN9ZkTA1pHf/Nov2ZUvvddkZ8UYvwo9vBvLTDvnmABnRMBKaXYAs3ZCvw9CkDPOWTeUJMFRAtmUx52ohaA3nD8bCJ6UfpQ2pFfOdShwpb6GKv0g+BgcdIG2LHPJ0Ufmr+XmpgZgq/HIge0hjcCADpjDgq2z4B0L4xtAA1M8MrUx02hxb7104nFKqMuv5zJTQl3sgwqXUyP+9zHQP9y/Z5Fx/AQWrOXCW56dV7P4cFBJl8zHqinlhkOStZ1m22+9Hlq+eC0hJ2lkF1LuzRdJJb/51LXoPKRnopFDng6XpoD7eG6w4YpAx9+P00JuUoBsYSrdsuFiyWyQQGBAnjI69ggbSLcW+hJytuinaxawVlItJkS2eV5Z4XsxPg7f82uRkdtN0hTHeI93CN3OWeRebnK7MIIGrjCCBJagAwIBAgIQBzY3tyRUfNhHrP0oZipeWzANBgkqhkiG9w0BAQsFADBiMQswCQYDVQQGEwJVUzEVMBMGA1UEChMMRGlnaUNlcnQgSW5jMRkwFwYDVQQLExB3d3cuZGlnaWNlcnQuY29tMSEwHwYDVQQDExhEaWdpQ2VydCBUcnVzdGVkIFJvb3QgRzQwHhcNMjIwMzIzMDAwMDAwWhcNMzcwMzIyMjM1OTU5WjBjMQswCQYDVQQGEwJVUzEXMBUGA1UEChMORGlnaUNlcnQsIEluYy4xOzA5BgNVBAMTMkRpZ2lDZXJ0IFRydXN0ZWQgRzQgUlNBNDA5NiBTSEEyNTYgVGltZVN0YW1waW5nIENBMIICIjANBgkqhkiG9w0BAQEFAAOCAg8AMIICCgKCAgEAxoY1BkmzwT1ySVFVxyUDxPKRN6mXUaHW0oPRnkyibaCwzIP5WvYRoUQVQl+kiPNo+n3znIkLf50fng8zH1ATCyZzlm34V6gCff1DtITaEfFzsbPuK4CEiiIY3+vaPcQXf6sZKz5C3GeO6lE98NZW1OcoLevTsbV15x8GZY2UKdPZ7Gnf2ZCHRgB720RBidx8ald68Dd5n12sy+iEZLRS8nZH92GDGd1ftFQLIWhuNyG7QKxfst5Kfc71ORJn7w6lY2zkpsUdzTYNXNXmG6jBZHRAp8ByxbpOH7G1WE15/tePc5OsLDnipUjW8LAxE6lXKZYnLvWHpo9OdhVVJnCYJn+gGkcgQ+NDY4B7dW4nJZCYOjgRs/b2nuY7W+yB3iIU2YIqx5K/oN7jPqJz+ucfWmyU8lKVEStYdEAoq3NDzt9KoRxrOMUp88qqlnNCaJ+2RrOdOqPVA+C/8KI8ykLcGEh/FDTP0kyr75s9/g64ZCr6dSgkQe1CvwWcZklSUPRR8zZJTYsg0ixXNXkrqPNFYLwjjVj33GHek/45wPmyMKVM1+mYSlg+0wOI/rOP015LdhJRk8mMDDtbiiKowSYI+RQQEgN9XyO7ZONj4KbhPvbCdLI/Hgl27KtdRnXiYKNYCQEoAA6EVO7O6V3IXjASvUaetdN2udIOa5kM0jO0zbECAwEAAaOCAV0wggFZMBIGA1UdEwEB/wQIMAYBAf8CAQAwHQYDVR0OBBYEFLoW2W1NhS9zKXaaL3WMaiCPnshvMB8GA1UdIwQYMBaAFOzX44LScV1kTN8uZz/nupiuHA9PMA4GA1UdDwEB/wQEAwIBhjATBgNVHSUEDDAKBggrBgEFBQcDCDB3BggrBgEFBQcBAQRrMGkwJAYIKwYBBQUHMAGGGGh0dHA6Ly9vY3NwLmRpZ2ljZXJ0LmNvbTBBBggrBgEFBQcwAoY1aHR0cDovL2NhY2VydHMuZGlnaWNlcnQuY29tL0RpZ2lDZXJ0VHJ1c3RlZFJvb3RHNC5jcnQwQwYDVR0fBDwwOjA4oDagNIYyaHR0cDovL2NybDMuZGlnaWNlcnQuY29tL0RpZ2lDZXJ0VHJ1c3RlZFJvb3RHNC5jcmwwIAYDVR0gBBkwFzAIBgZngQwBBAIwCwYJYIZIAYb9bAcBMA0GCSqGSIb3DQEBCwUAA4ICAQB9WY7Ak7ZvmKlEIgF+ZtbYIULhsBguEE0TzzBTzr8Y+8dQXeJLKftwig2qKWn8acHPHQfpPmDI2AvlXFvXbYf6hCAlNDFnzbYSlm/EUExiHQwIgqgWvalWzxVzjQEiJc6VaT9Hd/tydBTX/6tPiix6q4XNQ1/tYLaqT5Fmniye4Iqs5f2MvGQmh2ySvZ180HAKfO+ovHVPulr3qRCyXen/KFSJ8NWKcXZl2szwcqMj+sAngkSumScbqyQeJsG33irr9p6xeZmBo1aGqwpFyd/EjaDnmPv7pp1yr8THwcFqcdnGE4AJxLafzYeHJLtPo0m5d2aR8XKc6UsCUqc3fpNTrDsdCEkPlM05et3/JWOZJyw9P2un8WbDQc1PtkCbISFA0LcTJM3cHXg65J6t5TRxktcma+Q4c6umAU+9Pzt4rUyt+8SVe+0KXzM5h0F4ejjpnOHdI/0dKNPH+ejxmF/7K9h+8kaddSweJywm228Vex4Ziza4k9Tm8heZWcpw8De/mADfIBZPJ/tgZxahZrrdVcA6KYawmKAr7ZVBtzrVFZgxtGIJDwq9gdkT/r+k0fNX2bwE+oLeMt8EifAAzV3C+dAjfwAL5HYCJtnwZXZCpimHCUcr5n8apIUP/JiW9lVUKx+A+sDyDivl1vupL0QVSucTDh3bNzgaoSv27dZ8/DGCAbkwggG1AgEBMHcwYzELMAkGA1UEBhMCVVMxFzAVBgNVBAoTDkRpZ2lDZXJ0LCBJbmMuMTswOQYDVQQDEzJEaWdpQ2VydCBUcnVzdGVkIEc0IFJTQTQwOTYgU0hBMjU2IFRpbWVTdGFtcGluZyBDQQIQBR6ekdcekQq75D1c7dDd2TANBglghkgBZQMEAgEFAKCB0TAaBgkqhkiG9w0BCQMxDQYLKoZIhvcNAQkQAQQwHAYJKoZIhvcNAQkFMQ8XDTI0MDMwODIxMDIxNFowKwYLKoZIhvcNAQkQAgwxHDAaMBgwFgQU2Rq5M/4XremCHqYT9aQ6cU4+fn0wLwYJKoZIhvcNAQkEMSIEIKq7YfLb81olwAmzRvrGD7jviP9h/7bm3T1fERQQnDNoMDcGCyqGSIb3DQEJEAIvMSgwJjAkMCIEIILa8ZSVezaEAkWP1ScAaf5ixxRW+p4Lhqv4J+hTICfZMAoGCCqGSM49BAMCBEgwRgIhALYb7J7AEVt6FkFU1Kox1HW/stTfKQ3untTFbLTYxxZBAiEA8yQVZB2pXf9kvKAc5ppoeYVHYJmpJR5JtuxvM8Ly1WdjcGFkWQviAAAAAAAAAAAAAAAAAAAAAAAAAAAAAAAAAAAAAAAAAAAAAAAAAAAAAAAAAAAAAAAAAAAAAAAAAAAAAAAAAAAAAAAAAAAAAAAAAAAAAAAAAAAAAAAAAAAAAAAAAAAAAAAAAAAAAAAAAAAAAAAAAAAAAAAAAAAAAAAAAAAAAAAAAAAAAAAAAAAAAAAAAAAAAAAAAAAAAAAAAAAAAAAAAAAAAAAAAAAAAAAAAAAAAAAAAAAAAAAAAAAAAAAAAAAAAAAAAAAAAAAAAAAAAAAAAAAAAAAAAAAAAAAAAAAAAAAAAAAAAAAAAAAAAAAAAAAAAAAAAAAAAAAAAAAAAAAAAAAAAAAAAAAAAAAAAAAAAAAAAAAAAAAAAAAAAAAAAAAAAAAAAAAAAAAAAAAAAAAAAAAAAAAAAAAAAAAAAAAAAAAAAAAAAAAAAAAAAAAAAAAAAAAAAAAAAAAAAAAAAAAAAAAAAAAAAAAAAAAAAAAAAAAAAAAAAAAAAAAAAAAAAAAAAAAAAAAAAAAAAAAAAAAAAAAAAAAAAAAAAAAAAAAAAAAAAAAAAAAAAAAAAAAAAAAAAAAAAAAAAAAAAAAAAAAAAAAAAAAAAAAAAAAAAAAAAAAAAAAAAAAAAAAAAAAAAAAAAAAAAAAAAAAAAAAAAAAAAAAAAAAAAAAAAAAAAAAAAAAAAAAAAAAAAAAAAAAAAAAAAAAAAAAAAAAAAAAAAAAAAAAAAAAAAAAAAAAAAAAAAAAAAAAAAAAAAAAAAAAAAAAAAAAAAAAAAAAAAAAAAAAAAAAAAAAAAAAAAAAAAAAAAAAAAAAAAAAAAAAAAAAAAAAAAAAAAAAAAAAAAAAAAAAAAAAAAAAAAAAAAAAAAAAAAAAAAAAAAAAAAAAAAAAAAAAAAAAAAAAAAAAAAAAAAAAAAAAAAAAAAAAAAAAAAAAAAAAAAAAAAAAAAAAAAAAAAAAAAAAAAAAAAAAAAAAAAAAAAAAAAAAAAAAAAAAAAAAAAAAAAAAAAAAAAAAAAAAAAAAAAAAAAAAAAAAAAAAAAAAAAAAAAAAAAAAAAAAAAAAAAAAAAAAAAAAAAAAAAAAAAAAAAAAAAAAAAAAAAAAAAAAAAAAAAAAAAAAAAAAAAAAAAAAAAAAAAAAAAAAAAAAAAAAAAAAAAAAAAAAAAAAAAAAAAAAAAAAAAAAAAAAAAAAAAAAAAAAAAAAAAAAAAAAAAAAAAAAAAAAAAAAAAAAAAAAAAAAAAAAAAAAAAAAAAAAAAAAAAAAAAAAAAAAAAAAAAAAAAAAAAAAAAAAAAAAAAAAAAAAAAAAAAAAAAAAAAAAAAAAAAAAAAAAAAAAAAAAAAAAAAAAAAAAAAAAAAAAAAAAAAAAAAAAAAAAAAAAAAAAAAAAAAAAAAAAAAAAAAAAAAAAAAAAAAAAAAAAAAAAAAAAAAAAAAAAAAAAAAAAAAAAAAAAAAAAAAAAAAAAAAAAAAAAAAAAAAAAAAAAAAAAAAAAAAAAAAAAAAAAAAAAAAAAAAAAAAAAAAAAAAAAAAAAAAAAAAAAAAAAAAAAAAAAAAAAAAAAAAAAAAAAAAAAAAAAAAAAAAAAAAAAAAAAAAAAAAAAAAAAAAAAAAAAAAAAAAAAAAAAAAAAAAAAAAAAAAAAAAAAAAAAAAAAAAAAAAAAAAAAAAAAAAAAAAAAAAAAAAAAAAAAAAAAAAAAAAAAAAAAAAAAAAAAAAAAAAAAAAAAAAAAAAAAAAAAAAAAAAAAAAAAAAAAAAAAAAAAAAAAAAAAAAAAAAAAAAAAAAAAAAAAAAAAAAAAAAAAAAAAAAAAAAAAAAAAAAAAAAAAAAAAAAAAAAAAAAAAAAAAAAAAAAAAAAAAAAAAAAAAAAAAAAAAAAAAAAAAAAAAAAAAAAAAAAAAAAAAAAAAAAAAAAAAAAAAAAAAAAAAAAAAAAAAAAAAAAAAAAAAAAAAAAAAAAAAAAAAAAAAAAAAAAAAAAAAAAAAAAAAAAAAAAAAAAAAAAAAAAAAAAAAAAAAAAAAAAAAAAAAAAAAAAAAAAAAAAAAAAAAAAAAAAAAAAAAAAAAAAAAAAAAAAAAAAAAAAAAAAAAAAAAAAAAAAAAAAAAAAAAAAAAAAAAAAAAAAAAAAAAAAAAAAAAAAAAAAAAAAAAAAAAAAAAAAAAAAAAAAAAAAAAAAAAAAAAAAAAAAAAAAAAAAAAAAAAAAAAAAAAAAAAAAAAAAAAAAAAAAAAAAAAAAAAAAAAAAAAAAAAAAAAAAAAAAAAAAAAAAAAAAAAAAAAAAAAAAAAAAAAAAAAAAAAAAAAAAAAAAAAAAAAAAAAAAAAAAAAAAAAAAAAAAAAAAAAAAAAAAAAAAAAAAAAAAAAAAAAAAAAAAAAAAAAAAAAAAAAAAAAAAAAAAAAAAAAAAAAAAAAAAAAAAAAAAAAAAAAAAAAAAAAAAAAAAAAAAAAAAAAAAAAAAAAAAAAAAAAAAAAAAAAAAAAAAAAAAAAAAAAAAAAAAAAAAAAAAAAAAAAAAAAAAAAAAAAAAAAAAAAAAAAAAAAAAAAAAAAAAAAAAAAAAAAAAAAAAAAAAAAAAAAAAAAAAAAAAAAAAAAAAAAAAAAAAAAAAAAAAAAAAAAAAAAAAAAAAAAAAAAAAAAAAAAAAAAAAAAAAAAAAAAAAAAAAAAAAAAAAAAAAAAAAAAAAAAAAAAAAAAAAAAAAAAAAAAAAAAAAAAAAAAAAAAAAAAAAAAAAAAAAAAAAAAAAAAAAAAAAAAAAAAAAAAAAAAAAAAAAAAAAAAAAAAAAAAAAAAAAAAAAAAAAAAAAAAAAAAAAAAAAAAAAAAAAAAAAAAAAAAAAAAAAAAAAAAAAAAAAAAAAAAAAAAAAAAAAAAAAAAAAAAAAAAAAAAAAAAAAAAAAAAAAAAAAAAAAAAAAAAAAAAAAAAAAAAAAAAAAAAAAAAAAAAAAAAAAAAAAAAAAAAAAAAAAAAAAAAAAAAAAAAAAAAAAAAAAAAAAAAAAAAAAAAAAAAAAAAAAAAAAAAAAAAAAAAAAAAAAAAAAAAAAAAAAAAAAAAAAAAAAAAAAAAAAAAAAAAAAAAAAAAAAAAAAAAAAAAAAAAAAAAAAAAAAAAAAAAAAAAAAAAAAAAAAAAAAAAAAAAAAAAAAAAAAAAAAAAAAAAAAAAAAAAAAAAAAAAAAAAAAAAAAAAAAAAAAAAAAAAAAAAAAAAAAAAAAAAAAAAAAAAAAAAAAAAAAAAAAAAAAAAAAAAAAAAAAAAAAAAAAAAAAAAAAAAAAAAAAAAAAAAAAAAAAAAAAAAAAAAAAAAAAAAAAAAAAAAAAAAAAAAAAAAAAAAAAAAAAAAAAAAAAAAAAAAAAAAAAAAAAAAAAAAAAAAAAAAAAAAAAAAAAAAAAAAAAAAAAAAAAAAAAAAAAAAAAAAAAAAAAAAAAAAAAAAAAAAAAAAAAAAAAAAAAAAAAAAAAAAAAAAAAAAAAAAAAAAAAAAAAAAAAAAAAAAAAAAAAAAAAAAAAAAAAAAAAAAAAAAAAAAAAAAAAAAAAAAAAAAAAAAAAAAAAAAAAAAAAAAAAAAAAAAAAAAAAAAAAAAAAAAAAAAAAAAAAAAAAAAAAAAAAAAAAAAAAAAAAAAAAAAAAAAAAAAAAAAAAAAAAAAAAAAAAAAAAAAAAAAAAAAAAAAAAAAAAAAAAAAAAAAAAAAAAAAAAAAAAAAAAAAAAAAAAAAAAAAAAAAAAAAAAAAAAAAAAAAAAAAAAAAAAAAAAAAAAAAAAAAAAAAAAAAAAAAAAAAAAAAAAAAAAAAAAAAAAAAAAAAAAAAAAAAAAAAAAAAAAAAAAAAAAAAAAAAAAAAAAAAAAAAAAAAAAAAAAAAAAAAAAAAAAAAAAAAAAAAAAAAAAAAAAAAAAAAAAAAAAAAAAAAAAAAAAAAAAAAAAAAAAAAAAAAAAAAAAAAAAAAAAAAAAAAAAAAAAAAAAAAAAAAAAAAAAAAAAAAAAAAAAAAAAAAAAAAAAAAAAAAAAAAAAAAAAAAAAAAAAAAAAAAAAAAAAAAAAAAAAAAAAAAAAAAAAAAAAAAAAAAAAAAAAAAAAAAAAAAA9lkBAGCPADKJkyAQwLNDmltSv7JdzuMfFcoFL4HnQ4oHNpgPyHHcKEVHSJmVvImcSLX1zhqf1rhZPSfalY6dqBBIwLx6G6RflBwW9URYzQ2DHHHrZgTI2DSpAFcyqOTMCJcQR5C1zir9tRRo3933kEnJPj+HJPsaLANMvd+WqlafS7zXQi/4FOljfkkeNpUT3uGnR0B6hCzSF9GhOTMd8J6zprkbPSOQJlUxPn58A1uxznueErljJw0it1e3X30xLoyx/W9kXRQnk509jNvReR1uku4My1j+wS8JjmZ5Fa8IqrDn8CSjnx3g+OoEZneU1DqDbWxV8OCP10iDt4P0cpP0V0E=</c2pa:manifest></metadata>
<style type="text/css">
	.st0{fill:#1D7279;}
	.st1{fill:#B0DCDA;}
	.st2{fill:#0BB3AA;}
	.st3{fill:#FFFFFF;}
	.st4{fill:#4E3481;}
	.st5{fill:#CA1C68;}
	.st6{fill:#7A67A0;}
	.st7{fill:#EAEEF0;}
	.st8{fill:none;}
	.st9{fill:#55959A;}
	.st10{fill:#E64151;}
	.st11{fill:#B6ABCF;}
	.st12{fill:#826DAA;}
	.st13{fill:#1D4D88;}
	.st14{fill:#C2E2F4;}
	.st15{fill:#6CBFE6;}
	.st16{fill:#5679A6;}
	.st17{fill:#F2B1A7;}
	.st18{fill:#EA6A69;}
	.st19{fill:#EC707C;}
</style>
<path class="st0" d="M123.9,145.4c8.8,42.8,46.7,75,92.1,75c45.4,0,83.3-32.2,92.1-75H123.9z"/>
<path class="st0" d="M308.1,106.6c-8.8-42.8-46.7-75-92.1-75c-45.4,0-83.3,32.2-92.1,75H308.1z"/>
<path class="st1" d="M125.1,101.4c-0.4,1.7-0.9,3.4-1.2,5.1h157l5.1-5.1H125.1z"/>
<path class="st2" d="M306.9,151.6c0.4-2,0.9-4.1,1.2-6.2H151.1l-5.1,6.2H306.9z"/>
<g>
	<g>
		<path class="st3" d="M172.4,166.1l-1.1,0.7c-0.7-1.1-2-1.8-3.5-1.8c-2.5,0-4.5,1.8-4.5,4.6c0,2.7,1.9,4.6,4.5,4.6
			c1.5,0,2.8-0.7,3.5-1.8l1,0.8c-0.9,1.4-2.6,2.3-4.6,2.3c-3.4,0-5.8-2.4-5.8-5.8c0-3.4,2.5-5.8,5.8-5.8
			C169.8,163.8,171.5,164.7,172.4,166.1z"/>
		<path class="st3" d="M167.8,181.7c2.5,0,3.9,1.1,3.9,3.2c0,1.9-1.5,3.2-3.9,3.2h-0.2l4.1,4.9h-1.6l-4-4.9h-1.4v4.9h-1.3v-11.3
			H167.8z M164.7,182.9v4h3.1c1.7,0,2.6-0.7,2.6-2c0-1.3-0.9-2-2.6-2H164.7z"/>
	</g>
	<g>
		<path class="st3" d="M183.3,168.9h6.8v-5h1.3v11.3h-1.3v-5.1h-6.8v5.1H182V164h1.3V168.9z"/>
		<path class="st3" d="M190.9,193h-7.9v-11.3h7.9v1.2h-6.6v3.8h6.4v1.2h-6.4v3.9h6.6V193z"/>
	</g>
	<g>
		<path class="st3" d="M211.7,175.2h-1.4l-1.3-3.1h-5.6l-1.3,3.1h-1.3l4.6-11.3h1.6L211.7,175.2z M204,170.9h4.6l-2.3-5.6L204,170.9
			z"/>
		<path class="st3" d="M211.7,193h-1.4l-1.3-3.1h-5.6l-1.3,3.1h-1.3l4.6-11.3h1.6L211.7,193z M204,188.6h4.6l-2.3-5.6L204,188.6z"/>
	</g>
	<g>
		<path class="st3" d="M230.6,175.2h-1.2l-7-9.1v9.1h-1.3V164h1.2l7,9.1V164h1.3V175.2z"/>
		<path class="st3" d="M225.3,181.7c3.7,0,6,2.2,6,5.6s-2.3,5.6-6,5.6h-4.2v-11.3H225.3z M222.4,182.9v8.8h2.9
			c3.1,0,4.7-1.8,4.7-4.4c0-2.7-1.6-4.4-4.7-4.4H222.4z"/>
	</g>
	<g>
		<path class="st3" d="M250,165.7l-1,0.9c-0.8-1-2-1.6-3.4-1.6c-2.5,0-4.5,1.8-4.5,4.6c0,2.7,1.9,4.6,4.4,4.6c2.4,0,3.9-1.4,4.1-3.7
			h-3.5v-1.2h4.9c0,0.1,0,0.2,0,0.3c0,3.3-2.1,5.8-5.5,5.8c-3,0-5.8-2.1-5.8-5.8c0-3.4,2.5-5.8,5.8-5.8
			C247.4,163.8,249,164.5,250,165.7z"/>
		<path class="st3" d="M246.1,188.2v4.7h-1.3v-4.7l-4.5-6.5h1.5l3.6,5.3l3.6-5.3h1.5L246.1,188.2z"/>
	</g>
	<g>
		<path class="st3" d="M269.1,175.2h-7.9V164h7.9v1.2h-6.6v3.8h6.4v1.2h-6.4v3.9h6.6V175.2z"/>
	</g>
	<g>
		<path class="st3" d="M261.3,186.6v-3.9h-1.6v-0.8h4v0.8h-1.6v3.9H261.3z M269.1,186.6V183l-1.3,3.1h-0.9l-1.3-3.1v3.6h-0.9v-4.7
			h1.2l1.4,3.2l1.4-3.2h1.2v4.7H269.1z"/>
	</g>
</g>
<g>
	<g>
		<path class="st0" d="M323.8,80.5c-5.9-13.9-14.3-26.4-25.1-37.2c-10.7-10.7-23.3-19.2-37.2-25.1C247.1,12.1,231.8,9,216,9
			c-15.8,0-31.1,3.1-45.5,9.2c-13.9,5.9-26.4,14.3-37.2,25.1c-10.7,10.7-19.2,23.3-25.1,37.2C102.1,94.9,99,110.2,99,126
			c0,15.8,3.1,31.1,9.2,45.5c5.9,13.9,14.3,26.4,25.1,37.2c10.7,10.7,23.3,19.2,37.2,25.1c14.4,6.1,29.8,9.2,45.5,9.2
			c15.8,0,31.1-3.1,45.5-9.2c13.9-5.9,26.4-14.3,37.2-25.1c10.7-10.7,19.2-23.3,25.1-37.2c6.1-14.4,9.2-29.8,9.2-45.5
			C333,110.2,329.9,94.9,323.8,80.5z M216,230.1c-28.7,0-54.7-11.7-73.6-30.5s-30.5-44.9-30.5-73.6c0-57.4,46.7-104.1,104.1-104.1
			c28.7,0,54.7,11.7,73.6,30.5c18.8,18.8,30.5,44.9,30.5,73.6C320.1,183.4,273.4,230.1,216,230.1z"/>
	</g>
</g>
<g>
	<path class="st0" d="M141.1,126.1c0,6.4-2.6,10.1-7.1,10.1c-4.5,0-7.1-3.7-7.1-10.1c0-6.4,2.6-10.1,7.1-10.1
		C138.5,116,141.1,119.7,141.1,126.1z M130.6,126.1c0,4.4,1.3,6.6,3.4,6.6c2.1,0,3.4-2.2,3.4-6.6c0-4.4-1.3-6.6-3.4-6.6
		C131.9,119.5,130.6,121.7,130.6,126.1z"/>
	<path class="st0" d="M150.9,116.3c3.9,0,6.2,2.2,6.2,6c0,2.9-1.6,4.9-4.2,5.6l4.5,8h-4l-4.1-7.8h-0.4v7.8h-3.5v-19.6H150.9z
		 M148.9,119.6v5.5h2c1.5,0,2.6-0.9,2.6-2.8c0-1.9-1.1-2.7-2.6-2.7H148.9z"/>
	<path class="st0" d="M173.4,119.8l-2.9,1.6c-0.6-1.3-1.5-1.9-2.7-1.9c-2.1,0-3.4,2-3.4,6.6c0,4.7,1.4,6.7,3.4,6.7
		c1.9,0,3-1.4,3.2-4.6h-3.2v-3.1h6.5c0.1,0.5,0.1,1.1,0.1,1.7c0,6.3-2.8,9.4-6.6,9.4c-4.3,0-7.1-3.4-7.1-10.1
		c0-6.5,2.6-10.1,7.1-10.1C170.4,116,172.4,117.4,173.4,119.8z"/>
	<path class="st0" d="M191.5,135.9h-3.7l-1-4.4h-5.2l-1,4.4h-3.6l5.3-19.6h4.1L191.5,135.9z M182.3,128.3h3.7l-1.8-7.7L182.3,128.3z
		"/>
	<path class="st0" d="M208,135.9h-3.5l-6.1-12.3v12.3h-3.5v-19.6h3.5l6.1,12.4v-12.4h3.5V135.9z"/>
	<path class="st0" d="M216.2,135.9h-3.5v-19.6h3.5V135.9z"/>
	<path class="st0" d="M231.6,119.1l-7.1,13.6h7.1v3.2h-11.2v-2.8l7.1-13.6h-7.1v-3.2h11.2V119.1z"/>
	<path class="st0" d="M249.2,135.9h-3.7l-1-4.4h-5.2l-1,4.4h-3.6l5.3-19.6h4.1L249.2,135.9z M240,128.3h3.7l-1.8-7.7L240,128.3z"/>
	<path class="st0" d="M261.8,119.6h-4.2v16.3h-3.5v-16.3h-4.2v-3.3h11.9V119.6z"/>
	<path class="st0" d="M269,135.9h-3.5v-19.6h3.5V135.9z"/>
	<path class="st0" d="M287.3,126.1c0,6.4-2.6,10.1-7.1,10.1c-4.5,0-7.1-3.7-7.1-10.1c0-6.4,2.6-10.1,7.1-10.1
		C284.7,116,287.3,119.7,287.3,126.1z M276.8,126.1c0,4.4,1.3,6.6,3.4,6.6c2.1,0,3.4-2.2,3.4-6.6c0-4.4-1.3-6.6-3.4-6.6
		C278.1,119.5,276.8,121.7,276.8,126.1z"/>
	<path class="st0" d="M304.6,135.9h-3.5l-6.1-12.3v12.3h-3.5v-19.6h3.5l6.1,12.4v-12.4h3.5V135.9z"/>
</g>
<path class="st9" d="M252.3,54.3l-6.8,6.8l-0.4,0.4c0.9,1.7,1.4,3.7,1.4,5.8c0,7-5.7,12.7-12.7,12.7c-4.1,0-7.7-1.9-10-5
	c-1,3.4-2.8,6.6-5,9.3c4,3.6,9.3,5.7,15.1,5.7c12.5,0,22.7-10.2,22.7-22.7C256.5,62.5,254.9,58,252.3,54.3z"/>
<g>
	<path class="st3" d="M233.5,45c-5.8,0-11.1,2.2-15.1,5.7c-0.9,0.8-1.8,1.8-2.6,2.7c-3.1,3.9-5,8.8-5,14.2c0,2.9-1,5.6-2.6,7.7
		c-2.3,3-6,5-10,5c-7,0-12.7-5.7-12.7-12.7c0-7,5.7-12.7,12.7-12.7c0,0,0,0,0,0c0-3.4,0-6.5,0-10c0,0,0,0,0,0
		c-12.5,0-22.7,10.2-22.7,22.7c0,12.5,10.2,22.7,22.7,22.7c5.8,0,11.1-2.2,15.1-5.7c0.9-0.8,1.8-1.8,2.6-2.7c3.1-3.9,5-8.8,5-14.2
		c0-2.9,1-5.6,2.6-7.7c2.3-3,6-5,10-5c3.6,0,6.9,1.5,9.2,4l7.1-7.1C245.7,47.6,239.9,45,233.5,45z"/>
</g>
<path class="st9" d="M202,54.7v0.5c2.6,0.8,4.9,2.3,6.5,4.4c1-3.4,2.8-6.6,5-9.3c-3.2-2.8-7.2-4.8-11.6-5.4V54.7z"/>
</svg>
