<?xml version="1.0" encoding="utf-8"?>
<!-- Generator: Adobe Illustrator 22.1.0, SVG Export Plug-In . SVG Version: 6.00 Build 0)  -->
<svg version="1.1" id="Layer_1" xmlns="http://www.w3.org/2000/svg" xmlns:xlink="http://www.w3.org/1999/xlink" x="0px" y="0px"
	 viewBox="0 0 360 360" style="enable-background:new 0 0 360 360;" xml:space="preserve">
<style type="text/css">
	.st0{fill:none;stroke:#FFFFFF;stroke-width:14;stroke-miterlimit:10;}
</style>
<g>
	<polygon class="st0" points="193.4,33.7 232.8,73.1 161.8,144.1 193.4,175.6 224.9,144.1 272.2,191.4 311.7,152 351.1,191.4 
		351.1,33.7 	"/>
	
		<rect x="121.4" y="174.7" transform="matrix(0.7071 -0.7071 0.7071 0.7071 -94.9 153.7962)" class="st0" width="33.5" height="33.5"/>
	<line class="st0" x1="311.7" y1="230.8" x2="248.6" y2="293.9"/>
	<line class="st0" x1="232.8" y1="309.7" x2="217" y2="325.5"/>
	<line class="st0" x1="201.3" y1="341.2" x2="185.5" y2="357"/>
	<line class="st0" x1="146.1" y1="88.9" x2="75.1" y2="159.8"/>
	
		<rect x="89.9" y="237.8" transform="matrix(0.7071 -0.7071 0.7071 0.7071 -148.7213 149.9894)" class="st0" width="33.5" height="33.5"/>
	
		<rect x="105.7" y="308.7" transform="matrix(0.7071 -0.7071 0.7071 0.7071 -194.2472 181.8846)" class="st0" width="33.5" height="33.5"/>
	
		<rect x="160.9" y="253.5" transform="matrix(0.7071 -0.7071 0.7071 0.7071 -139.0477 204.752)" class="st0" width="33.5" height="33.5"/>
	
		<rect x="208.2" y="206.2" transform="matrix(0.7071 -0.7071 0.7071 0.7071 -91.7482 224.3587)" class="st0" width="33.5" height="33.5"/>
	
		<rect x="18.9" y="277.2" transform="matrix(0.7071 -0.7071 0.7071 0.7071 -197.399 111.3221)" class="st0" width="33.5" height="33.5"/>
</g>
</svg>
