<?xml version="1.0" encoding="utf-8"?>
<!-- Generator: Adobe Illustrator 24.0.0, SVG Export Plug-In . SVG Version: 6.00 Build 0)  -->
<svg version="1.1" id="Capa_1" xmlns="http://www.w3.org/2000/svg" xmlns:xlink="http://www.w3.org/1999/xlink" x="0px" y="0px"
	 viewBox="0 0 35.7 35.7" style="enable-background:new 0 0 35.7 35.7;" xml:space="preserve">
<style type="text/css">
	.st0{fill:#FFFDFD;}
</style>
<g>
	<path class="st0" d="M33.2,5.7H2.5C1.1,5.7,0,4.5,0,3.2s1.1-2.5,2.5-2.5h30.7c1.4,0,2.5,1.1,2.5,2.5S34.5,5.7,33.2,5.7z M18.7,10.5
		c0-1.4-1.1-2.5-2.5-2.5H2.5C1.1,8,0,9.1,0,10.5S1.1,13,2.5,13h13.7C17.5,13,18.7,11.9,18.7,10.5z M35.7,17.8c0-1.4-1.1-2.5-2.5-2.5
		H2.5c-1.4,0-2.5,1.1-2.5,2.5s1.1,2.5,2.5,2.5h30.7C34.5,20.3,35.7,19.2,35.7,17.8z M18.7,25.2c0-1.4-1.1-2.5-2.5-2.5H2.5
		c-1.4,0-2.5,1.1-2.5,2.5s1.1,2.5,2.5,2.5h13.7C17.5,27.7,18.7,26.5,18.7,25.2z M35.7,32.5c0-1.4-1.1-2.5-2.5-2.5H2.5
		C1.1,30,0,31.1,0,32.5S1.1,35,2.5,35h30.7C34.5,35,35.7,33.9,35.7,32.5z"/>
</g>
</svg>
