<?xml version="1.0" encoding="utf-8"?>
<!-- Generator: Adobe Illustrator 24.0.0, SVG Export Plug-In . SVG Version: 6.00 Build 0)  -->
<svg version="1.1" id="Capa_1" xmlns="http://www.w3.org/2000/svg" xmlns:xlink="http://www.w3.org/1999/xlink" x="0px" y="0px"
	 viewBox="0 0 50 50" style="enable-background:new 0 0 50 50;" xml:space="preserve">
<style type="text/css">
	.st0{fill:#FFFFFF;}
</style>
<g>
	<g>
		<path class="st0" d="M17.6,4.7H6.5C5,4.7,3.7,5.2,2.6,6.3C1.5,7.4,1,8.7,1,10.2v11.1c0,1.5,0.5,2.8,1.6,3.9
			c1.1,1.1,2.4,1.6,3.9,1.6H13c0.8,0,1.4,0.3,2,0.8c0.5,0.5,0.8,1.2,0.8,2v0.9c0,2-0.7,3.8-2.2,5.2c-1.4,1.4-3.2,2.2-5.2,2.2H6.5
			c-0.5,0-0.9,0.2-1.3,0.5c-0.4,0.4-0.5,0.8-0.5,1.3v3.7c0,0.5,0.2,0.9,0.5,1.3c0.4,0.4,0.8,0.5,1.3,0.5h1.8c2,0,3.9-0.4,5.7-1.2
			c1.8-0.8,3.4-1.8,4.7-3.2c1.3-1.3,2.4-2.9,3.2-4.7c0.8-1.8,1.2-3.7,1.2-5.7V10.2c0-1.5-0.5-2.8-1.6-3.9S19.2,4.7,17.6,4.7z"/>
		<path class="st0" d="M47.4,6.3c-1.1-1.1-2.4-1.6-3.9-1.6H32.4c-1.5,0-2.8,0.5-3.9,1.6c-1.1,1.1-1.6,2.4-1.6,3.9v11.1
			c0,1.5,0.5,2.8,1.6,3.9c1.1,1.1,2.4,1.6,3.9,1.6h6.5c0.8,0,1.4,0.3,2,0.8c0.5,0.5,0.8,1.2,0.8,2v0.9c0,2-0.7,3.8-2.2,5.2
			c-1.4,1.4-3.2,2.2-5.2,2.2h-1.8c-0.5,0-0.9,0.2-1.3,0.5c-0.4,0.4-0.5,0.8-0.5,1.3v3.7c0,0.5,0.2,0.9,0.5,1.3
			c0.4,0.4,0.8,0.5,1.3,0.5h1.8c2,0,3.9-0.4,5.7-1.2c1.8-0.8,3.4-1.8,4.7-3.2c1.3-1.3,2.4-2.9,3.2-4.7c0.8-1.8,1.2-3.7,1.2-5.7V10.2
			C49,8.7,48.5,7.4,47.4,6.3z"/>
	</g>
</g>
</svg>
