<?xml version="1.0" encoding="utf-8"?>
<!-- Generator: Adobe Illustrator 24.0.0, SVG Export Plug-In . SVG Version: 6.00 Build 0)  -->
<svg version="1.1" id="Capa_1" xmlns="http://www.w3.org/2000/svg" xmlns:xlink="http://www.w3.org/1999/xlink" x="0px" y="0px"
	 viewBox="0 0 50 50" style="enable-background:new 0 0 50 50;" xml:space="preserve">
<style type="text/css">
	.st0{fill:#FFFFFF;}
</style>
<g>
	<g>
		<path class="st0" d="M17.6,23.2h-6.5c-0.8,0-1.4-0.3-2-0.8c-0.5-0.5-0.8-1.2-0.8-2v-0.9c0-2,0.7-3.8,2.2-5.2
			c1.4-1.4,3.2-2.2,5.2-2.2h1.8c0.5,0,0.9-0.2,1.3-0.5c0.4-0.4,0.5-0.8,0.5-1.3V6.5c0-0.5-0.2-0.9-0.5-1.3c-0.4-0.4-0.8-0.5-1.3-0.5
			h-1.8c-2,0-3.9,0.4-5.7,1.2C8.2,6.6,6.7,7.7,5.3,9c-1.3,1.3-2.4,2.9-3.2,4.7C1.4,15.6,1,17.5,1,19.5v20.3c0,1.5,0.5,2.8,1.6,3.9
			c1.1,1.1,2.4,1.6,3.9,1.6h11.1c1.5,0,2.8-0.5,3.9-1.6c1.1-1.1,1.6-2.4,1.6-3.9V28.7c0-1.5-0.5-2.8-1.6-3.9
			C20.5,23.7,19.2,23.2,17.6,23.2z"/>
		<path class="st0" d="M47.4,24.8c-1.1-1.1-2.4-1.6-3.9-1.6H37c-0.8,0-1.4-0.3-2-0.8c-0.5-0.5-0.8-1.2-0.8-2v-0.9
			c0-2,0.7-3.8,2.2-5.2c1.4-1.4,3.2-2.2,5.2-2.2h1.8c0.5,0,0.9-0.2,1.3-0.5c0.4-0.4,0.5-0.8,0.5-1.3V6.5c0-0.5-0.2-0.9-0.5-1.3
			c-0.4-0.4-0.8-0.5-1.3-0.5h-1.8c-2,0-3.9,0.4-5.7,1.2c-1.8,0.8-3.4,1.8-4.7,3.2c-1.3,1.3-2.4,2.9-3.2,4.7
			c-0.8,1.8-1.2,3.7-1.2,5.7v20.3c0,1.5,0.5,2.8,1.6,3.9c1.1,1.1,2.4,1.6,3.9,1.6h11.1c1.5,0,2.8-0.5,3.9-1.6
			c1.1-1.1,1.6-2.4,1.6-3.9V28.7C49,27.2,48.5,25.8,47.4,24.8z"/>
	</g>
</g>
</svg>
